<svg width="1280" height="720" viewBox="0 0 1280 720" fill="none" xmlns="http://www.w3.org/2000/svg">
<g clip-path="url(#clip0_416_471)">
<rect width="1280" height="720" fill="#FFFBF3"/>
<rect width="1280" height="720" fill="#023A2F"/>
<path d="M93.3714 886.484C92.5535 884.57 89.2152 883.005 89.067 879.866C88.9187 876.727 87.57 876.392 87.1539 873.526C86.7378 870.659 88.1774 874.21 88.6557 872.913C89.1339 871.616 86.8143 869.707 86.7426 868.128C86.6709 866.548 88.7178 866.151 87.967 861.514C87.2161 856.877 83.8108 852.24 82.7873 849.446C81.7638 846.651 75.972 840.038 75.135 838.128C74.2981 836.219 74.9342 837.377 74.7955 835.128C74.6568 832.879 72.6815 831.094 72.2368 828.428C72.1549 827.191 71.9089 825.969 71.505 824.796C69.1424 817.704 67.258 811.704 63.5658 800.429C59.8736 789.155 55.5118 778.063 48.9691 768.97C42.4264 759.878 41.6994 759.151 41.1542 753.519C40.609 747.886 37.8829 748.255 37.1559 746.79C36.4289 745.326 33.1576 733.698 31.3402 729.333C29.5228 724.969 22.9801 722.787 21.8896 719.514C17.9678 707.742 12.1378 691.496 10.8034 689.146C9.46903 686.796 6.07812 688.419 5.54246 689.146C8.62728 699.846 1.52025 688.285 -0.0341201 681.346C-2.02371 672.469 -0.124998 665.98 -2.59764 661.549C-5.47632 656.332 -7.86206 650.858 -9.72381 645.197C-13.9039 644.652 -14.4491 643.379 -15.8121 647.016C-16.7113 649.408 -18.4235 658.084 -19.16 664.348C-20.9535 673.512 -24.8992 679.728 -25.7123 685.715C-26.7501 693.304 -33.8428 694.75 -34.718 699.975C-35.2393 703.148 -32.2693 702.846 -35.6746 715.183C-36.4924 718.131 -45.2399 720.925 -47.7125 728.013C-49.8839 734.296 -45.8808 728.836 -45.2016 737.665C-45.039 739.746 -47.1673 744.623 -47.6456 747.929C-48.4395 753.447 -42.0212 745.154 -40.1942 739.373C-39.1133 735.956 -32.518 731.425 -30.1219 725.692C-28.4671 721.725 -26.6258 715.408 -26.3818 712.618C-25.6788 704.665 -17.773 708.646 -17.1178 701.497C-16.6395 696.439 -15.5156 683.284 -15.0421 678.652C-13.7891 688.366 -8.76727 689.596 -6.49072 694.496C-4.12808 699.588 -3.53025 708.417 -4.6207 712.417C-5.71114 716.418 -10.2547 717.872 -8.9825 721.146C-7.71031 724.419 -4.98419 728.056 -2.98503 724.601C-0.985877 721.146 -1.34935 715.872 0.841116 718.782C3.03158 721.691 1.38632 727.692 3.9307 731.147C6.47508 734.602 12.2908 744.422 10.6551 751.695C9.01946 758.969 2.65851 769.511 -0.976321 772.784C-4.61115 776.058 -4.97462 775.512 -4.97462 779.331C-4.97462 783.149 -6.79203 787.15 -9.33641 787.15C-11.8808 787.15 -12.9712 797.333 -14.7887 802.061C-16.6061 806.789 -19.7148 818.102 -22.9862 821.92C-26.2575 825.739 -24.1483 839.521 -21.7857 844.411C-19.4231 849.302 -18.1413 846.622 -17.5148 841.32C-16.3861 831.807 -14.7886 826.773 -14.516 822.954C-14.2434 819.135 -9.88163 813.407 -6.86377 806.315C-3.84591 799.223 -2.7746 791.859 2.4959 784.585C7.7664 777.311 13.2187 772.583 14.6726 767.836C16.1265 763.089 17.9439 754.916 16.49 749.111C21.397 761.654 27.3945 774.564 31.0293 777.292C34.6641 780.02 37.7537 785.293 41.5512 791.294C45.3486 797.295 51.7287 812.933 52.6374 816.57C52.757 817.049 52.9196 817.628 53.1157 818.226C53.7805 822.729 53.4409 831.333 52.4174 835.348C51.1356 840.382 42.876 858.394 41.1064 861.94C39.3368 865.486 38.6529 877.622 36.3237 882.67C33.9946 887.719 26.5097 893.581 28.1453 896.443C29.781 899.304 28.8293 895.763 32.2345 893.715C35.6398 891.667 39.1885 895.079 43.9568 882.943C48.7252 870.807 46.1378 870.123 49.9543 867.941C53.7709 865.759 52.4078 869.712 54.1822 870.53C55.9566 871.348 53.3644 868.075 56.3631 861.533C59.3618 854.992 60.9066 845.302 61.4519 840.392C61.8659 836.559 62.04 832.704 61.9731 828.85V828.85C65.7228 832.118 66.3589 834.936 66.9041 836.664C67.4493 838.391 68.8172 837.937 70.4433 840.937C72.0694 843.938 76.259 851.121 77.4403 853.303C73.8103 850.848 71.1702 849.029 73.7194 854.121C76.2685 859.213 77.8038 859.122 78.2581 861.486C78.7125 863.85 77.9855 865.032 79.2577 866.749C80.5299 868.467 80.6925 870.932 80.439 874.205C80.1856 877.478 83.4186 880.818 85.1213 882.933C86.8239 885.049 89.9039 888.197 91.0518 889.633C92.1996 891.069 94.1892 888.394 93.3714 886.484Z" fill="#ED824C"/>
<path d="M-39.8548 158.398C-38.3817 168.165 -34.6751 175.582 -34.6751 181.583C-34.6751 187.584 -32.7621 194.403 -27.8598 206.132C-22.9576 217.86 -13.4114 234.226 -12.8662 237.768C-12.3209 241.309 -10.6853 256.588 -8.23176 259.043C-5.77825 261.498 -2.77952 265.862 -2.49256 267.772C-2.2056 269.681 3.77752 271.863 4.59535 270.772C8.95715 276.515 17.3172 298.049 18.7233 305.413C20.1294 312.778 22.0425 314.414 24.496 314.414C26.9495 314.414 30.7661 322.87 33.4922 332.962C36.2183 343.055 41.6706 366.785 40.0349 373.877C38.3992 380.969 51.7572 382.06 52.8477 377.706C53.9381 373.351 57.2095 372.001 56.9369 366.805C56.6643 361.608 53.1107 350.429 51.4846 346.065C56.3916 352.884 59.9356 357.521 60.7534 361.067C61.5713 364.613 65.3878 359.976 62.6665 350.429C59.9452 340.882 56.1238 337.064 51.762 328.608C47.4002 320.152 42.7658 314.697 42.1967 308.696C41.6275 302.695 43.5597 301.331 39.7432 293.967C35.9266 286.602 31.9283 275.328 34.4822 266.963C37.0362 258.598 39.7432 253.87 42.2971 250.961C44.8511 248.051 42.2971 245.505 38.844 247.506C35.3909 249.506 31.5744 255.507 31.5744 258.033C31.5744 260.56 29.3935 269.327 29.3935 269.327C23.2143 264.034 22.3056 259.306 19.5795 253.306C16.8533 247.305 9.94716 244.577 7.94801 239.304C5.94885 234.03 3.76796 224.948 3.40447 223.67C3.04099 222.392 1.22358 228.934 1.22358 228.934C-0.957317 216.387 -2.60256 214.932 -4.59215 210.749C-6.58173 206.567 -8.04523 208.385 -8.41828 202.748C-8.79133 197.111 -18.2323 189.828 -22.5941 187.473C-26.9559 185.119 -26.0472 176.199 -28.5916 169.289C-31.136 162.379 -34.2256 158.015 -35.316 155.651C-36.4065 153.287 -40.4095 154.775 -39.8548 158.398Z" fill="#ED824C"/>
<path d="M60.816 227.845C58.8168 231.343 54.1203 236.458 55.7703 239.985C57.4203 243.512 57.1716 249.532 55.4499 252.394C53.7281 255.255 49.1081 266.927 47.6159 268.238C44.9806 270.554 51.4755 272.578 54.4073 267.802C57.339 263.027 55.2251 261.395 57.9512 258.806C60.6773 256.217 63.8147 253.351 65.723 246.12C67.6313 238.889 68.7217 236.549 66.7417 232.687C64.7617 228.826 65.6321 227.524 65.6321 225.821C65.6321 224.117 62.3369 225.198 60.816 227.845Z" fill="#ED824C"/>
<path d="M242.072 414.615C241.087 418.522 237.937 424.711 240.474 427.665C243.011 430.618 244.389 436.484 243.5 439.703C242.61 442.922 241.297 455.406 240.212 457.07C238.296 460.009 245.096 460.213 246.636 454.825C248.177 449.437 245.702 448.434 247.632 445.207C249.563 441.981 251.814 438.377 251.71 430.9C251.605 423.422 252.026 420.875 249.081 417.687C246.136 414.5 246.625 413.012 246.167 411.371C245.71 409.73 242.826 411.657 242.072 414.615Z" fill="#ED824C"/>
<path d="M60.3349 399.994C60.6649 404.985 56.3031 413.829 59.4932 424.399C60.8945 429.041 67.5759 439.756 67.1072 443.708C66.6385 447.661 70.125 447.331 70.6129 449.929C72.7507 461.376 70.455 471.315 63.9171 479.01C57.3792 486.705 56.6331 493.576 57.1209 496.285C57.6088 498.993 63.1375 493.414 64.2949 488.839C65.4524 484.264 70.6033 482.388 72.942 480.517C75.2808 478.646 78.0786 471.358 79.7143 465.74C81.35 460.122 76.9116 451.8 76.9116 451.8C83.6887 461.371 89.997 468.449 90.4657 475.105C90.9344 481.761 95.588 478.555 92.551 466.697C89.514 454.839 80.8621 445.163 78.7721 441.603C76.6821 438.042 72.1672 419.801 72.6503 414.805C73.4681 406.349 72.0046 408.191 69.202 404.234C66.3993 400.276 66.3993 396.434 65.3471 393.228C64.295 390.021 59.8949 393.381 60.3349 399.994Z" fill="#ED824C"/>
<path d="M87.9756 258.338C92.9378 257.422 96.9087 256.447 99.3472 255.412C101.786 254.377 101.745 257.023 102.977 259.005C104.21 260.987 100.912 261.913 101.361 264.199C101.81 266.486 106.077 276.894 108.72 277.623C111.364 278.352 114.276 279.034 115.788 281.794C117.3 284.555 116.498 286.103 115.848 287.064C119.708 286.862 118.23 285.763 121.185 290.186C124.139 294.609 123.244 297.15 123.511 298.507C123.778 299.864 126.65 304.562 128.43 307.27C130.209 309.978 132.287 312.764 133.032 313.73C133.778 314.696 133.866 313.01 133.708 310.818C133.55 308.625 135.883 308.44 137.045 312.249C138.208 316.059 138.794 316.909 140.263 318.703C141.731 320.497 144.543 320.642 145.941 323.567C147.339 326.492 146.194 327.687 147.018 329.052C147.842 330.416 150.514 331.291 151.043 333.265C151.572 335.238 151.024 338.828 151.628 341.903C152.232 344.979 152.439 346.748 149.181 345.72C145.923 344.692 145.982 335.785 141.869 334.652C137.757 333.519 132.936 335.153 131.327 330.607C129.717 326.061 129.828 322.977 127.303 317.913C124.778 312.849 119.455 315.426 119.455 315.426C118.456 310.341 115.629 300.192 114.169 296.309C112.71 292.426 112.189 289.748 110.316 290.116C108.444 290.484 104.909 291.597 102.704 287.442C100.499 283.286 100.965 280.697 97.7516 274.238C93.9266 282.358 91.2515 282.883 91.0273 285.985C90.8031 289.087 91.9287 296.927 92.3972 300.726C92.8657 304.526 91.2246 307.487 89.8252 310.263C93.5797 309.526 92.36 311.853 91.6482 316.021C90.9364 320.189 91.5012 328.003 92.132 331.215C92.7629 334.426 89.2544 337.061 88.9377 339.767C88.621 342.472 90.4495 343.22 91.0591 344.91C91.6688 346.599 91.2865 352.668 91.8399 355.734C92.3934 358.8 93.9577 365.325 97.6053 369.056C101.253 372.787 106.34 371.091 107.408 372.983C108.477 374.875 107.551 377.261 110.065 378.021C112.578 378.78 114.72 384.748 115.167 387.026C115.614 389.303 119.115 390.152 122.23 392.588C125.346 395.024 129.555 397.226 131.396 399.498C133.236 401.77 134.142 402.86 134.64 405.395C135.138 407.931 136.398 407.274 139.064 408.833C141.729 410.391 144.153 415.636 144.544 417.627C144.935 419.618 146.042 424.56 147.585 427.451C149.127 430.342 147.922 429.887 144.905 429.367C141.888 428.848 140.782 430.041 137.957 428.508C136.068 427.593 134.599 425.994 133.846 424.034C129.672 424.717 131.706 424.454 128.668 421.715C125.63 418.977 123.074 415.865 119.579 412.938C116.085 410.01 113.411 402.752 112.136 400.501C110.86 398.25 108.536 398.428 106.155 398.34C103.773 398.251 99.727 394.599 94.6635 389.341C91.6964 386.306 89.2679 382.787 87.4823 378.935C83.3647 379.188 83.6538 379.965 85.6505 375.267C87.6473 370.568 87.4933 369.76 87.6819 367.221C87.8705 364.682 84.4116 361.192 83.0885 357.979C81.7654 354.767 79.3595 346.066 80.6796 342.886C81.9997 339.705 81.4801 330.707 81.0199 328.364C77.5599 327.722 75.9863 326.783 75.5261 324.44C75.0658 322.097 76.8072 321.408 77.7865 318.578C78.7659 315.747 79.3336 311.739 78.7744 308.42C78.2152 305.102 77.241 297.139 78.4081 293.155C79.5751 289.171 82.0092 289.156 82.633 286.624C83.2568 284.092 83.8268 282.776 82.8217 278.155C81.8166 273.534 82.6955 273.269 85.168 269.355C87.6405 265.441 87.158 265.814 87.0591 263.424C86.9601 261.034 84.9806 258.897 87.9756 258.338Z" fill="#ED824C"/>
<path d="M172.113 772.593C164.537 774.328 161.675 768.503 162.633 761.207C163.59 753.911 168.366 748.074 165.773 743.879C163.179 739.684 162.791 737.751 159.905 733.128C157.02 728.505 157.783 728.401 159.069 721.305C160.354 714.209 163.631 695.806 163.631 695.806C155.86 699.986 154.896 690.926 155.588 687.112C156.279 683.298 157.222 671.924 158.566 670.679C159.909 669.434 158.222 643.796 156.616 642.386C155.01 640.976 156.929 607.802 157.128 602.6C147.999 607.754 139.594 618.545 138.352 625.396C137.111 632.247 144.241 647.079 134.317 647.206C127.37 647.294 121.55 660.742 119.804 667.482C111.963 697.74 110.177 701.453 107.961 705.443C103.728 713.061 100.165 711.481 101.406 704.63C102.648 697.779 103.947 681.703 100.83 676.319C97.7136 670.934 92.2605 671.522 89.8306 668.489C87.4006 665.457 93.5311 653.836 96.734 649.572C98.8421 646.764 101.151 654.701 102.327 649.744C102.932 647.179 99.1747 641.066 99.7775 639.269C100.538 636.975 103.529 635.275 107.173 632.682C112.006 629.244 126.462 626.85 129.929 617.08C136.016 599.931 137.091 587.832 145.119 582.585C149.057 580.006 151.944 575.686 157.496 570.88C158.977 569.597 163.177 572.576 164.531 571.323C168.447 567.714 172.061 559.708 173.275 557.671C176.481 552.295 181.139 559.471 181.568 563.274C181.997 567.077 175.247 591.075 179.657 593.615C185.074 596.736 182.64 599.442 183.236 604.389C183.831 609.336 174.784 609.938 173.019 619.676C171.254 629.413 179.12 635.308 179.025 641.997C178.931 648.687 176.505 649.735 175.525 655.145C174.544 660.556 184.008 677.668 186.479 681.758C188.951 685.849 191.26 686.681 192.313 693.768C193.367 700.855 195.906 719.538 197.289 724.754C198.672 729.97 195.633 733.893 194.508 731.866C193.383 729.838 194.061 728.969 192.785 724.934C191.508 720.9 191.475 719.396 188.371 715.522C185.267 711.647 186.376 701.587 182.816 695.806C177.882 707.663 176.282 718.452 176.49 724.462C176.699 730.472 178.273 736.539 177.313 741.832C176.354 747.124 174.203 749.876 174.277 754.028C174.351 758.18 178.38 771.161 172.113 772.593Z" fill="#ED824C"/>
<path d="M-36.5673 51.3114C-36.5004 55.6852 -42.7848 54.9195 -41.6943 61.9444C-41.393 63.8873 -39.676 65.2559 -39.4943 67.438C-39.3126 69.6201 -46.1135 74.64 -44.8413 77.1858C-43.5691 79.7316 -41.0152 78.2768 -38.1169 81.3682C-35.2186 84.4595 -34.4821 90.0967 -34.1186 92.0969C-33.7551 94.0972 -32.3012 105.735 -31.5742 108.281C-30.8473 110.827 -29.2116 111.832 -27.7481 112.784C-26.6576 120.101 -24.295 123.192 -21.9324 127.011C-19.5697 130.83 -13.8879 145.468 -13.2757 145.468C-12.6636 145.468 -11.0279 144.444 -11.0279 144.444C-11.3005 147.444 -8.43569 154.809 -8.30177 156.173C-8.16786 157.537 -9.45918 159.379 -8.30177 161.767C-7.14437 164.155 -6.38871 166.222 -3.99738 168.562C-1.60604 170.902 -1.47692 171.912 -1.47692 173.424C-1.47692 174.936 -1.81649 174.788 0.0917965 176.903C2.00008 179.018 2.88487 186.837 4.3388 189.201C5.79273 191.565 9.33669 194.02 10.1545 195.929C10.9724 197.839 12.9093 199.839 13.8037 198.021C16.3337 199.566 16.6972 200.748 16.7881 201.476C17.3333 196.293 15.5446 194.748 13.8037 192.111C12.0628 189.474 10.8815 184.382 10.4271 181.382C9.97279 178.382 7.4284 177.109 6.42883 173.381C8.51885 175.017 10.9724 175.745 9.15495 171.199C7.33754 166.653 7.33754 168.5 6.70144 163.542C6.06535 158.585 4.88402 152.029 4.06619 149.301C3.24835 146.573 -0.568209 136.381 -1.38604 134.572C-2.20388 132.763 -4.56652 135.663 -6.11132 131.844C-7.65612 128.025 -9.11005 124.479 -13.2853 123.843C-6.92437 123.934 -5.83392 128.116 -5.19783 129.662C-4.56173 131.208 -1.84996 130.935 -0.472554 130.935C0.904853 130.935 2.70792 133.572 4.16185 135.936C5.61578 138.299 7.61493 137.936 7.7058 136.39C7.79667 134.844 6.34274 131.887 7.52406 129.887C8.70538 127.887 9.02581 127.389 9.02581 127.389C6.84491 124.57 2.88966 121.843 2.25357 119.206C1.61748 116.569 1.89009 115.028 2.07183 112.798C2.25357 110.568 -0.290821 111.387 -2.1991 111.478C-4.10739 111.569 -7.56046 104.84 -8.46917 98.6577C-9.37788 92.475 -10.2866 92.475 -13.1944 91.2021C-16.1023 89.9292 -22.8506 84.2777 -23.0419 79.9134C-23.2185 76.8114 -22.9234 73.7006 -22.1667 70.6873C-21.588 76.2766 -21.2102 80.0953 -19.5889 81.3682C-17.9675 82.6411 -17.9532 76.8221 -17.5897 72.6397C-17.2262 68.4573 -19.0245 65.5478 -19.4071 62.4565C-19.7897 59.3651 -20.9232 49.0001 -22.1667 45.1814C-18.6802 40.8171 -18.1062 36.7926 -19.5602 34.2468C-21.0141 31.701 -26.0359 39.5394 -26.3994 34.0841C-26.7629 28.6288 -26.7629 28.6288 -27.1742 23.5564C-27.3703 21.0919 -37.1843 27.3416 -37.4282 31.9834C-37.7438 38.1708 -36.6343 46.5595 -36.5673 51.3114Z" fill="#ED824C"/>
<path d="M375.392 662.558C374.12 657.295 372.121 654.376 370.849 645.81C370.849 645.81 364.851 642.718 358.309 642.355C359.217 644.355 362.135 652.356 361.111 652.174C360.088 651.992 357.582 655.084 359.036 658.721C360.49 662.357 362.125 663.449 360.308 667.631C358.49 671.813 352.656 680.178 353.402 684.724C354.148 689.27 353.947 694.362 349.155 708.335C344.903 700.487 343.951 705.818 343.951 708.335C343.951 710.852 343.406 719.911 339.317 722.959C338.728 723.399 338.131 723.83 337.552 724.285C336.729 722.471 336.055 720.849 335.859 719.547C335.404 716.547 336.313 707.455 335.132 705.091C333.951 702.727 332.224 702.999 330.407 705.363C325.59 701.454 324.5 689.725 321.592 682.451C318.684 675.177 318.321 670.268 314.504 666.267C310.688 662.267 304.327 660.448 307.78 657.902C311.233 655.357 309.052 647.901 307.598 640.991C312.505 637.9 311.96 641.173 309.033 632.808C306.106 624.443 305.761 618.811 307.034 615.356C308.306 611.901 306.67 604.244 299.764 598.253C292.858 592.262 293.408 579.169 292.863 576.896C288.592 574.805 287.501 579.442 286.047 582.806C284.593 586.17 284.134 586.715 283.23 587.261C284.034 584.203 284.461 581.058 284.502 577.896C284.593 574.714 285.32 568.325 285.411 565.985C285.502 563.645 281.322 565.985 280.05 567.713C278.778 569.44 276.506 571.441 275.688 574.35C273.718 581.437 264.329 586.098 267.28 590.482C270.231 594.865 268.28 596.903 266.668 601.196C265.056 605.488 252.454 616.031 248.819 619.304C245.184 622.577 246.82 627.85 248.819 630.942C250.818 634.033 248.455 636.942 248.092 643.671C248.092 643.915 248.054 644.149 248.03 644.374C247.289 644.47 243.568 644.704 242.525 644.853C238.163 645.398 235.576 648.068 233.758 649.705C231.941 651.342 237.828 657.29 237.828 659.955C237.828 662.621 236.121 668.354 234.304 672.172C232.486 675.991 233.452 681.331 233.825 685.696C234.198 690.06 228 691.189 228 692.826C228 694.462 236.303 700.253 237.03 706.253C237.757 712.254 237.393 717.71 236.484 720.074C235.576 722.438 234.849 726.074 238.665 724.801C242.482 723.529 242.491 722.074 242.491 722.801C244.491 727.347 249.819 735.545 249.273 739C248.728 742.455 247.839 751.183 250.182 751.92C252.526 752.657 254.544 755.38 254.907 758.017C255.271 760.653 257.997 768.831 257.633 773.378C257.27 777.924 261.995 781.379 264.358 786.298C266.72 791.217 267.156 793.572 267.304 796.118C267.452 798.663 263.994 801.573 263.086 804.301C262.177 807.028 265.448 806.119 265.448 809.938C265.448 813.756 266.175 817.211 264.176 820.121C262.177 823.03 266.611 828.581 267.304 834.262C267.997 839.942 268.294 844.579 267.304 852.762C266.314 860.945 264.128 860.26 264.128 861.763C264.128 863.266 265.023 865.036 267.304 865.988C269.585 866.941 268.701 874.856 267.304 877.172C265.907 879.488 265.63 883.039 264.946 886.857C264.262 890.676 264.946 891.643 265.219 894.902C265.491 898.16 265.085 900.223 265.219 902.812C261.675 906.224 261.393 908.951 261.675 913.316C261.957 917.68 260.996 920.589 259.762 922.953C258.528 925.317 256.356 924.188 256.356 926.781C256.356 929.375 256.902 934.85 255.266 937.577C253.63 940.305 250.086 940.578 248.857 944.937C247.628 949.297 249.541 949.167 249.675 952.986C249.809 956.805 250.359 961.987 247.222 963.758C249.402 969.079 249.948 974.535 248.178 979.578C251.813 974.85 254.357 971.213 255.084 965.395C255.811 959.576 256.356 955.211 259.083 950.665C261.809 946.119 261.99 946.301 261.99 950.665C261.99 955.029 258.719 960.848 261.99 959.576C265.262 958.303 267.251 953.211 269.805 945.033C272.359 936.855 274.349 936.486 276.53 933.759C278.711 931.031 281.791 922.666 281.437 920.484C281.083 918.302 275.803 918.527 275.348 918.302C279.117 917.072 281.346 917.211 283.001 917.393C284.656 917.574 287.09 912.756 288.362 910.483C289.634 908.21 288.907 908.3 288.907 906.755C288.907 905.209 289.18 904.209 291.452 902.482C293.723 900.754 293.451 894.614 294.264 891.207C295.077 887.8 296.45 880.569 297.808 877.296C299.166 874.023 300.534 867.338 299.989 865.701C299.444 864.065 296.856 863.931 295.354 865.701C293.853 867.472 292.485 877.023 291.949 879.067C291.413 881.11 289.768 882.34 289.768 878.794C289.768 875.248 291.131 862.974 290.041 860.246C288.95 857.518 288.816 859.428 287.453 854.504C286.09 849.579 288.18 841.913 288.362 836.094C288.544 830.275 287.635 821.001 287.272 818.819C286.908 816.637 284.909 820.255 276.549 818.819C283.637 817.183 285.272 816.273 286.181 813.364C287.09 810.454 287.09 810.048 285.636 805.43C284.182 800.812 283.637 794.089 284.364 788.815C285.091 783.542 283.819 783.724 282.001 780.268C280.184 776.813 274.617 769.822 272.436 760.84C270.255 751.858 271.618 750.748 271.891 744.747C272.163 738.746 269.71 741.201 265.893 736.837C262.077 732.472 262.067 726.749 261.531 717.748C261.187 712.082 260.733 707.474 259.833 704.167C259.835 704.159 259.835 704.151 259.833 704.143C257.265 694.525 257.265 685.533 264.774 692.941C269.786 697.726 275.908 703.732 277.075 706.818C278.711 711.182 277.075 718.547 279.801 720.456C282.527 722.366 286.344 721.547 286.616 731.367C286.889 741.187 289.343 745.819 291.069 745C293.442 743.78 295.43 741.922 296.808 739.636C298.171 737.181 296.45 735.908 295.632 732.181C294.814 728.453 295.153 721.82 294.814 719.093C294.474 716.365 287.64 715.547 285.363 715.092C290.27 713.819 291.815 713.91 293.633 714.183C295.45 714.456 292.542 704.091 291.452 701.181C290.361 698.272 289.089 699.544 285.999 697.908C282.91 696.271 283.063 693.367 282.341 690.27C281.619 687.174 272.842 684.073 272.163 682.011C271.8 680.925 269.49 677.575 267.065 674.225C267.294 668.607 267.997 664.793 268.347 661.654C268.892 656.744 272.618 655.29 274.98 653.289C277.343 651.289 273.435 640.651 275.071 636.105C276.707 631.559 281.977 607.197 281.614 602.129C289.108 616.901 287.975 635.22 286.875 639.402C285.775 643.585 283.646 642.493 287.353 648.676C291.06 654.859 293.967 667.224 294.149 671.588C294.331 675.953 298.688 688.864 302.504 689.045C307.048 700.32 308.684 706.684 310.501 708.665C312.318 710.646 311.41 713.35 315.91 713.623C320.411 713.896 324.089 716.896 322.453 718.667C320.817 720.437 324.892 728.079 324.629 732.032C324.366 735.985 319.225 756.217 319.952 759.581C320.679 762.946 323.859 768.401 327.857 771.038C331.856 773.674 330.765 770.219 329.039 768.128C327.312 766.037 327.403 764.218 327.403 764.218C329.493 762.855 331.97 765.855 330.598 756.308C329.225 746.761 333.037 744.943 333.764 741.579C333.836 741.23 333.889 740.877 333.922 740.521C336.466 737.794 341.038 736.578 345.582 733.123C350.125 729.668 358.495 718.767 359.394 714.03C360.293 709.292 360.485 709.302 365.755 708.364C371.026 707.426 364.847 702.574 364.483 696.936C364.12 691.299 366.301 686.571 370.844 683.844C375.388 681.116 376.665 667.832 375.392 662.558Z" fill="#ED824C"/>
<path d="M99.2128 50.0702C106.358 53.128 110.213 47.9072 110.572 40.5617C110.93 33.2162 107.272 26.6124 110.572 22.9468C113.872 19.2812 114.599 17.4484 118.262 13.4192C121.926 9.38991 121.194 9.14107 121.194 1.93434C121.194 -5.2724 121.251 -23.9688 121.251 -23.9688C128.153 -18.4704 130.716 -27.1941 130.716 -31.0894C130.716 -34.9846 131.816 -46.3259 130.716 -47.795C129.616 -49.2641 135.867 -74.1862 137.68 -75.2821C139.492 -76.3779 143.539 -109.373 144.27 -114.522C152.334 -107.822 158.68 -95.7059 158.68 -88.7432C158.68 -81.7806 149.019 -68.4629 158.762 -66.5632C165.582 -65.2376 168.911 -50.9677 169.427 -44.0242C171.737 -12.838 172.842 -8.8662 174.31 -4.54024C177.118 3.70492 180.906 2.79092 180.906 -4.17655C180.906 -11.144 182.493 -27.1845 186.52 -31.9316C190.547 -36.6786 195.808 -35.1282 198.74 -37.674C201.672 -40.2198 197.712 -52.7526 195.32 -57.5141C193.747 -60.6532 190.06 -53.2551 189.787 -58.3419C189.648 -60.9787 194.436 -66.3191 194.163 -68.195C193.824 -70.5637 191.183 -72.7937 188.06 -75.9951C183.919 -80.2397 170.121 -85.1734 168.451 -95.4045C165.52 -113.364 166.62 -125.461 159.656 -132.06C156.241 -135.295 154.17 -140.061 149.565 -145.785C148.336 -147.311 143.672 -145.124 142.563 -146.598C139.354 -150.848 137.225 -159.375 136.393 -161.591C134.198 -167.457 128.334 -161.222 127.234 -157.561C126.134 -153.901 128.497 -129.079 123.705 -127.361C117.817 -125.255 119.73 -122.164 118.262 -117.398C116.794 -112.632 125.589 -110.43 125.589 -100.534C125.589 -90.6382 116.799 -86.2405 115.699 -79.6415C114.599 -73.0425 116.799 -71.5782 116.799 -66.0798C116.799 -60.5815 104.435 -45.4741 101.274 -41.8899C98.1128 -38.3057 95.6927 -37.8845 93.3923 -31.0894C91.0918 -24.2942 85.2617 -6.37303 82.9709 -1.48719C80.68 3.39866 82.9708 7.79639 84.4391 6.00667C85.9074 4.21695 85.3956 3.23596 87.3709 -0.51097C89.3461 -4.2579 89.6474 -5.72222 93.3923 -8.98105C97.1371 -12.2399 97.8401 -22.337 102.374 -27.3903C105.115 -14.8479 104.765 -3.94207 103.488 1.93434C102.212 7.81075 99.581 13.5005 99.581 18.8745C99.581 24.2484 101.207 27.3493 100.394 31.4217C99.581 35.494 93.3014 47.5483 99.2128 50.0702Z" fill="#ED824C"/>
<path d="M202.938 440.016C199.973 441.37 195.067 445.678 200.499 453.872C198.609 453.426 193.561 454.482 189.66 463.024C185.758 471.566 175.525 486.058 176.042 491.159C176.56 496.261 179.476 500.119 176.869 502.298C174.261 504.477 167.903 506.615 170.355 513.019C172.808 519.422 176.949 519.546 178.451 529.357C178.709 531.023 184.147 541.044 184.466 538.499C185.52 530.1 183.724 521.738 184.482 519.72C185.24 517.701 187.197 505.902 189.717 492.663C189.717 492.663 194.809 499.173 199.42 515.309C201.113 521.275 207.434 527.878 209.428 534.581C210.25 537.345 214.052 542.951 215.327 547.977C217.142 555.153 222.488 556.628 229.498 563.088C233.531 566.807 230.744 556.287 227.253 551.73C227.253 551.73 222.913 549.692 217.93 540.776C213.094 532.128 212.111 525.826 211.197 521.092C209.498 512.33 205.413 513.651 204.929 506.59C204.545 500.985 202.334 491.333 203.981 489.133C205.628 486.934 211.284 486.714 210.041 483.48C208.799 480.246 206.242 474.56 207.777 471.428C209.312 468.296 219.113 461.206 219.648 450.621C218.601 443.388 224.429 437.626 227.032 436.435C229.634 435.245 227.608 429.949 225.098 427.387C222.587 424.825 224.613 404.661 224.404 401.61C220.413 395.701 219.881 390.816 218.209 392.442C216.538 394.067 218.395 399.417 218.635 403.046C218.874 406.675 216.195 415.143 213.548 417.723C210.901 420.302 210.919 436.355 202.938 440.016Z" fill="#ED824C"/>
<path d="M167.336 156.536C168.896 158.343 171.5 168.844 172.684 170.644C177.243 177.584 181.029 177.14 181.31 176.463C181.592 175.787 176.588 167.446 175.923 162.234C175.758 160.91 177.945 153.301 178.207 151.73C178.468 150.159 165.871 146.201 163.88 140.682C151.297 105.805 153.716 122.435 150.178 114.601C147.629 108.969 147.292 103.841 146.124 101.86C143.334 97.1209 138.164 98.4852 135.766 95.7611C133.367 93.0369 129.894 85.7981 129.894 85.7981C131.382 83.7797 129.963 80.4847 128.632 78.6255C126.473 75.2538 124.57 71.7239 122.941 68.066C121.882 65.4495 119.01 67.4576 117.608 67.8159C116.207 68.1742 111.195 72.9235 110.68 74.0874C110.165 75.2512 114.78 79.8976 115.739 83.7178C112.132 79.7702 110.284 77.4355 108.435 78.0329C106.587 78.6303 107.285 82.7579 107.68 84.4496C108.074 86.1412 110.824 87.6303 111.467 89.8408C112.109 92.0512 112.016 96.7841 113.335 98.5436C114.653 100.303 116.377 102.022 117.24 105.613C118.103 109.204 118.522 116.998 118.254 120.33C117.986 123.662 120.923 125.219 121.652 123.344C122.382 121.468 123.239 119.572 123.188 119.164C124.746 128.315 123.318 135.641 123.441 138.784C123.564 141.927 125.116 143.397 125.588 144.978C124.204 152.573 126.011 157.155 128.361 160.575C130.711 163.995 132.148 171.097 131.964 172.905C131.78 174.712 134.364 185.524 135.007 188.468C135.649 191.411 137.152 193.563 134.601 194.016C132.05 194.47 127.348 195.337 127.177 196.318C127.005 197.299 127.276 198.235 129.559 198.914C131.842 199.593 130.525 203.327 128.105 207.067C127.23 208.438 126.653 209.978 126.412 211.587C126.171 213.196 126.272 214.837 126.707 216.405C127.203 218.175 124.667 219.133 123.551 219.731C122.435 220.329 118.693 224.095 118.693 224.095C118.693 224.095 120.891 228.493 120.631 230.083C120.372 231.673 117.918 235.37 116.258 236.127C114.598 236.884 112.234 236.905 111.016 236.3C109.798 235.695 109.301 236.88 110.337 238.579C111.373 240.277 113.294 245.925 111.818 248.429C116.654 247.551 123.619 248.33 123.773 244.043C123.927 239.755 122.658 239.326 125.347 236.656C128.035 233.986 129.456 234.358 130.318 232.461C131.18 230.564 130.369 228.471 131.362 226.544C136.758 226.834 140.288 229.827 142.472 219.798C144.656 209.769 145.435 205.776 146.1 201.569C146.765 197.363 147.554 199.28 146.776 193.055C145.999 186.83 145.266 173.635 144.973 168.357C144.68 163.079 144.094 159.854 141.637 154.846C139.18 149.839 140.713 145.982 140.127 141.291C139.857 139.126 138.81 134.26 137.641 129.41C136.278 123.75 134.745 118.116 134.094 116.832C137.337 121.38 140.695 126.347 146.496 130.426C148.264 131.652 157.786 154.942 159.086 156.433C163.797 161.892 166.406 155.461 167.336 156.536Z" fill="#ED824C"/>
<path d="M-9.33173 601.722C-4.76906 592.003 -4.90299 590.448 -4.90299 590.448C0.27664 593.721 -0.866424 590.644 -0.3212 587.376C0.224024 584.108 3.27539 583.016 4.36584 582.198C5.45628 581.38 2.11798 574.637 8.93328 570.268C15.7486 565.899 25.8352 557.989 26.9257 543.805C25.29 563.172 30.4696 571.9 34.8314 574.489C39.1932 577.078 50.0977 576.81 53.369 587.721C56.6404 598.631 57.1952 611.169 56.0951 615.543C54.9951 619.916 45.0376 634.684 45.0376 638.512C45.0376 642.34 46.6733 644.255 46.6733 644.255C44.2198 651.911 40.4271 658.448 40.4271 662.539C40.4271 666.631 39.791 671.359 37.8827 675.46C35.9745 679.561 39.2458 685.552 41.9719 691.007C47.7111 683.097 54.1486 684.916 54.1486 681.097C54.1486 677.278 52.7855 665.549 52.7855 660.094C56.0569 668.55 59.0556 664.458 59.0556 658.457C59.0556 652.457 61.6669 648.887 61.1217 643.173C60.5765 637.459 74.0828 622.941 75.1732 617.758C76.2636 612.576 76.8089 607.12 81.1707 600.574C85.5324 594.028 103.525 579.853 109.522 570.302C115.52 560.75 119.882 559.386 118.791 552.84C117.701 546.294 117.973 548.203 123.426 549.012C128.878 549.821 132.991 542.738 132.149 537.828C131.307 532.919 135.148 518.209 137.329 508.097C139.51 497.986 140.327 485.185 140.327 480.002C140.327 474.82 141.963 470.728 138.964 469.365C135.966 468.001 134.057 465.819 132.422 460.909C130.786 455.999 130.509 453.252 125.726 453.956C120.943 454.659 117.548 450.271 117.548 450.271C117.548 450.271 110.852 452.046 112.287 454.501C113.721 456.956 116.314 465.546 116.452 468.546C112.091 471.001 112.77 470.867 113.999 478.093C115.228 485.319 114.955 498.962 114.678 502.369C114.401 505.776 116.591 506.872 119.585 505.642C120.542 513.825 116.405 524.827 115.678 527.176C114.951 529.526 104.046 529.177 103.501 531.722C102.956 534.268 104.591 534.45 103.683 538.996C102.774 543.542 95.5043 546.27 93.8686 548.816C92.233 551.361 86.599 559.525 86.0538 567.718C85.5085 575.91 84.2363 580.456 79.1476 583.729C74.0588 587.003 73.5136 597.368 68.6257 602.459C68.0805 588.276 60.9735 579.365 58.8117 577.001C56.6499 574.637 43.7272 571.709 40.8193 567.718C37.9114 563.727 35.9123 550.998 35.9123 549.725C40.0923 551.907 42.455 551.543 42.2732 546.634C42.0915 541.724 41.5463 539.905 39.9106 535.541C38.2749 531.177 35.5488 532.995 34.6497 530.631C33.7505 528.267 31.8423 524.63 33.3344 521.175C34.8266 517.72 33.3344 509.901 33.3344 509.901C29.03 511.337 22.473 513.729 21.2008 514.629C19.9286 515.529 24.1087 521.357 24.1087 523.721C24.1087 526.085 18.3695 528.631 18.6995 530.813C19.0295 532.995 17.7429 539.178 15.7486 542.815C13.7542 546.452 3.75364 561.363 -0.789892 565.181C-5.33342 569 -6.24212 576.092 -6.96909 581.547C-7.69605 587.003 -11.1491 591.731 -13.1483 594.468C-15.1475 597.205 -11.9431 607.288 -9.33173 601.722Z" fill="#ED824C"/>
<path d="M13.739 409.051C10.0267 414.397 8.23759 415.71 7.89276 421.09C7.54793 426.47 17.6249 437.8 17.3817 445.884C17.1384 453.968 21.9456 455.375 23.0527 451.509C25.817 459.166 24.4114 468.015 24.1684 473.201C24.0415 476.134 27.1811 480.41 26.3265 485.909C25.6703 490.14 21.0334 495.929 20.6529 497.264C19.7821 500.342 24.1463 500.478 27.4764 495.165C30.8065 489.853 35.2434 479.716 43.5767 476.692C49.6416 474.532 36.4482 466.679 35.1471 456.259C33.846 445.839 35.841 438.7 34.7072 434.306C33.5733 429.911 22.3831 436.117 22.3831 436.117C29.0899 431.078 30.796 430.718 31.6347 429.142C30.4459 424.243 27.2827 423.048 27.6052 418.164C27.9277 413.279 28.5278 404.249 26.8106 402.581C25.0933 400.913 27.6699 393.714 29.1727 389.441C30.6754 385.169 21.6851 385.467 19.6306 392.21C17.576 398.954 15.9592 405.867 13.739 409.051Z" fill="#ED824C"/>
<path d="M191.316 88.9073C193.804 86.8003 197.365 81.3233 189.912 74.9078C191.853 74.8251 196.43 72.4403 197.869 63.163C199.307 53.8856 205.239 37.1625 203.359 32.3916C201.48 27.6206 197.628 24.6962 199.548 21.8928C201.468 19.0893 207.01 15.3086 202.915 9.80873C198.82 4.30883 194.801 5.3109 190.698 -3.7274C189.998 -5.26121 182.055 -13.4374 182.432 -10.8995C183.692 -2.52872 187.685 5.03469 187.501 7.18312C187.318 9.33155 188.629 21.2202 189.793 34.645C189.793 34.645 183.124 29.7585 174.321 15.472C171.07 10.1892 163.198 5.54408 159.464 -0.368912C157.924 -2.80701 152.746 -7.17353 150.162 -11.668C146.467 -18.0828 140.922 -18.0556 132.424 -22.376C127.535 -24.8642 133.067 -15.4923 137.666 -12.0521C137.666 -12.0521 142.39 -11.2632 149.602 -4.02986C156.598 2.98541 159.251 8.78612 161.413 13.0956C165.421 21.0704 168.995 18.6927 171.373 25.3588C173.261 30.6502 178.002 39.3438 177.013 41.907C176.023 44.4702 170.637 46.2135 172.71 48.9901C174.782 51.7668 178.783 56.5482 178.153 59.9788C177.523 63.4093 170.008 72.8884 172.358 83.2222C175.331 89.8896 171.282 97.0144 169.098 98.8653C166.915 100.716 170.3 105.265 173.41 107.052C176.52 108.838 180.03 128.798 181.057 131.678C186.499 136.286 188.334 140.844 189.507 138.825C190.681 136.806 187.435 132.162 186.222 128.733C185.009 125.305 185.3 116.426 187.145 113.228C188.99 110.03 184.625 94.5915 191.316 88.9073Z" fill="#ED824C"/>
<path d="M-28.7581 24.4165C-27.3615 35.0576 -27.9615 36.4987 -27.9615 36.4987C-22.0324 34.9534 -24.0561 37.5378 -24.5308 40.822C-25.0055 44.1061 -22.4282 46.0679 -21.6378 47.1787C-20.8474 48.2896 -26.0745 53.6951 -20.9082 59.9277C-15.7419 66.1604 -8.53435 76.7605 -11.8035 90.6054C-7.47971 71.6572 0.082289 64.9267 5.04838 63.7725C10.0145 62.6184 20.2984 66.1982 26.7291 56.7966C33.1598 47.3951 37.4965 35.6183 37.7754 31.1216C38.0544 26.6248 33.0542 9.52592 34.2169 5.8785C35.3797 2.23108 37.5195 0.904177 37.5195 0.904177C37.5074 -7.13588 35.8794 -14.5158 37.1221 -18.414C38.3648 -22.3122 39.1948 -27.0099 38.6223 -31.4968C38.0498 -35.9837 42.9864 -40.6983 47.2406 -45.0679C50.3061 -35.7882 56.9918 -35.5655 55.8319 -31.9272C54.672 -28.2889 49.8022 -17.5007 48.1453 -12.3032C53.8303 -19.3658 55.4447 -14.5568 53.622 -8.83947C51.7994 -3.12214 53.2031 1.07223 50.9481 6.3504C48.6932 11.6286 57.1501 29.5683 56.615 34.8372C56.0798 40.1061 54.9423 45.4692 57.1111 53.0266C59.28 60.5839 72.1157 79.558 74.9287 90.4799C77.7417 101.402 81.4832 104.026 78.4559 109.932C75.4287 115.838 76.2683 114.101 81.7086 114.987C87.1489 115.873 88.9166 123.87 86.6233 128.292C84.3301 132.714 83.5211 147.896 82.5278 158.192C81.5345 168.488 78.4257 180.932 76.8516 185.87C75.2775 190.808 75.5932 195.203 72.3219 195.591C69.0506 195.98 66.5697 197.479 63.52 201.66C60.4703 205.841 59.3718 208.374 55.0287 206.251C50.6856 204.128 46.1175 207.278 46.1175 207.278C46.1175 207.278 40.2774 203.553 42.39 201.649C44.5026 199.746 49.5814 192.35 50.6248 189.533C47.2147 185.87 47.8211 186.203 51.1869 179.692C54.5527 173.181 58.4354 160.104 59.2074 156.769C59.9794 153.434 62.3964 153.065 64.8768 155.141C68.2736 147.635 67.6735 135.897 67.6946 133.438C67.7156 130.978 57.2202 127.999 57.4739 125.408C57.7277 122.817 59.3414 123.14 59.8564 118.533C60.3714 113.926 54.2736 109.119 53.4885 106.197C52.7033 103.274 49.8152 93.7848 51.784 85.8138C53.7529 77.8427 53.9216 73.125 50.0674 68.4608C46.2133 63.7966 48.842 53.7556 45.7301 47.4245C40.904 60.768 31.4263 67.0988 28.6487 68.6944C25.871 70.2901 12.6692 69.1553 8.68657 72.0746C4.70389 74.9938 -1.06705 86.5142 -1.45367 87.727C3.19169 86.9176 5.33223 87.9817 3.66782 92.6043C2.00341 97.2269 0.931647 98.7939 -1.95231 102.455C-4.83628 106.116 -6.88128 103.556 -8.45596 105.535C-10.0306 107.514 -12.9462 110.377 -12.5904 114.127C-12.2347 117.876 -16.0148 124.868 -16.0148 124.868C-19.6798 122.193 -25.2003 117.922 -26.1392 116.678C-27.078 115.435 -21.3251 111.151 -20.6071 108.899C-19.8891 106.647 -24.5839 102.478 -23.6067 100.499C-22.6295 98.5203 -21.9774 92.239 -22.7729 88.1682C-23.5684 84.0974 -28.5509 66.8484 -31.717 61.821C-34.8832 56.7935 -33.5978 49.7698 -32.6335 44.3514C-31.6691 38.933 -33.5231 33.3797 -34.5964 30.1645C-35.6697 26.9494 -29.5528 18.3118 -28.7581 24.4165Z" fill="#ED824C"/>
<path d="M356.392 -177.442C355.12 -182.705 353.121 -185.624 351.849 -194.19C351.849 -194.19 345.851 -197.282 339.309 -197.645C340.217 -195.645 343.135 -187.644 342.111 -187.826C341.088 -188.008 338.582 -184.916 340.036 -181.279C341.49 -177.643 343.125 -176.551 341.308 -172.369C339.49 -168.187 333.656 -159.822 334.402 -155.276C335.148 -150.73 334.947 -145.638 330.155 -131.665C325.903 -139.513 324.951 -134.182 324.951 -131.665C324.951 -129.148 324.406 -120.089 320.317 -117.041C319.728 -116.601 319.131 -116.17 318.552 -115.715C317.729 -117.529 317.055 -119.151 316.859 -120.453C316.404 -123.453 317.313 -132.545 316.132 -134.909C314.951 -137.273 313.224 -137.001 311.407 -134.637C306.59 -138.546 305.5 -150.275 302.592 -157.549C299.684 -164.823 299.321 -169.732 295.504 -173.733C291.688 -177.733 285.327 -179.552 288.78 -182.098C292.233 -184.643 290.052 -192.099 288.598 -199.009C293.505 -202.1 292.96 -198.827 290.033 -207.192C287.106 -215.557 286.761 -221.189 288.034 -224.644C289.306 -228.099 287.67 -235.756 280.764 -241.747C273.858 -247.738 274.408 -260.831 273.863 -263.104C269.592 -265.195 268.501 -260.558 267.047 -257.194C265.593 -253.83 265.134 -253.285 264.23 -252.739C265.034 -255.797 265.461 -258.942 265.502 -262.104C265.593 -265.286 266.32 -271.675 266.411 -274.015C266.502 -276.355 262.322 -274.015 261.05 -272.287C259.778 -270.56 257.506 -268.559 256.688 -265.65C254.718 -258.563 245.329 -253.902 248.28 -249.518C251.231 -245.135 249.28 -243.097 247.668 -238.804C246.056 -234.512 233.454 -223.969 229.819 -220.696C226.184 -217.423 227.82 -212.15 229.819 -209.058C231.818 -205.967 229.455 -203.058 229.092 -196.329C229.092 -196.085 229.054 -195.851 229.03 -195.626C228.289 -195.53 224.568 -195.296 223.525 -195.147C219.163 -194.602 216.576 -191.932 214.758 -190.295C212.941 -188.658 218.828 -182.71 218.828 -180.045C218.828 -177.379 217.121 -171.646 215.304 -167.828C213.486 -164.009 214.452 -158.669 214.825 -154.304C215.198 -149.94 209 -148.811 209 -147.174C209 -145.538 217.303 -139.747 218.03 -133.747C218.757 -127.746 218.393 -122.29 217.484 -119.926C216.576 -117.562 215.849 -113.926 219.665 -115.199C223.482 -116.471 223.491 -117.926 223.491 -117.199C225.491 -112.653 230.819 -104.455 230.273 -101C229.728 -97.5453 228.839 -88.8169 231.182 -88.0799C233.526 -87.343 235.544 -84.6201 235.907 -81.9834C236.271 -79.3467 238.997 -71.1685 238.633 -66.6224C238.27 -62.0763 242.995 -58.6213 245.358 -53.702C247.721 -48.7826 248.156 -46.4283 248.304 -43.8824C248.452 -41.3366 244.994 -38.4271 244.086 -35.6995C243.177 -32.9718 246.448 -33.8811 246.448 -30.0624C246.448 -26.2436 247.175 -22.7886 245.176 -19.8791C243.177 -16.9696 247.611 -11.4186 248.304 -5.73842C248.997 -0.0582108 249.294 4.57878 248.304 12.7617C247.314 20.9447 245.128 20.2604 245.128 21.763C245.128 23.2656 246.023 25.0362 248.304 25.9884C250.585 26.9407 249.701 34.8557 248.304 37.1718C246.907 39.4879 246.63 43.0386 245.946 46.8573C245.262 50.676 245.946 51.6427 246.219 54.9015C246.491 58.1603 246.085 60.2228 246.219 62.8117C242.675 66.2237 242.393 68.9513 242.675 73.3156C242.957 77.6798 241.996 80.5893 240.762 82.9532C239.528 85.3172 237.356 84.1878 237.356 86.7815C237.356 89.3752 237.902 94.8496 236.266 97.5773C234.63 100.305 231.086 100.578 229.857 104.937C228.628 109.297 230.541 109.167 230.675 112.986C230.809 116.805 231.359 121.987 228.222 123.758C230.402 129.079 230.948 134.535 229.178 139.578C232.813 134.85 235.357 131.213 236.084 125.395C236.811 119.576 237.356 115.211 240.083 110.665C242.809 106.119 242.99 106.301 242.99 110.665C242.99 115.029 239.719 120.848 242.99 119.576C246.262 118.303 248.251 113.211 250.805 105.033C253.359 96.8547 255.349 96.4862 257.53 93.7585C259.711 91.0309 262.791 82.6661 262.437 80.484C262.083 78.3019 256.803 78.5268 256.348 78.3019C260.117 77.072 262.346 77.2108 264.001 77.3926C265.656 77.5745 268.09 72.7556 269.362 70.4826C270.634 68.2096 269.907 68.3005 269.907 66.7548C269.907 65.2092 270.18 64.209 272.452 62.4815C274.723 60.754 274.451 54.6144 275.264 51.2072C276.077 47.8001 277.45 40.5694 278.808 37.2962C280.166 34.023 281.534 27.3379 280.989 25.7013C280.444 24.0647 277.856 23.9307 276.354 25.7013C274.853 27.4719 273.485 37.0235 272.949 39.0668C272.413 41.1101 270.768 42.34 270.768 38.794C270.768 35.2481 272.131 22.9737 271.041 20.246C269.95 17.5184 269.816 19.4277 268.453 14.5036C267.09 9.57948 269.18 1.91336 269.362 -3.90562C269.544 -9.72461 268.635 -18.9986 268.272 -21.1808C267.908 -23.3629 265.909 -19.7451 257.549 -21.1808C264.637 -22.8173 266.272 -23.7265 267.181 -26.636C268.09 -29.5455 268.09 -29.9523 266.636 -34.5702C265.182 -39.188 264.637 -45.9114 265.364 -51.1849C266.091 -56.4583 264.819 -56.2765 263.001 -59.7315C261.184 -63.1865 255.617 -70.1779 253.436 -79.16C251.255 -88.1421 252.618 -89.2523 252.891 -95.2532C253.163 -101.254 250.71 -98.7991 246.893 -103.163C243.077 -107.528 243.067 -113.251 242.531 -122.252C242.187 -127.918 241.733 -132.526 240.833 -135.833C240.835 -135.841 240.835 -135.849 240.833 -135.857C238.265 -145.475 238.265 -154.467 245.774 -147.059C250.786 -142.274 256.908 -136.268 258.075 -133.182C259.711 -128.818 258.075 -121.453 260.801 -119.544C263.527 -117.634 267.344 -118.453 267.616 -108.633C267.889 -98.8135 270.343 -94.1813 272.069 -94.9996C274.442 -96.2205 276.43 -98.0778 277.808 -100.364C279.171 -102.819 277.45 -104.092 276.632 -107.819C275.814 -111.547 276.153 -118.18 275.814 -120.907C275.474 -123.635 268.64 -124.453 266.363 -124.908C271.27 -126.181 272.815 -126.09 274.633 -125.817C276.45 -125.544 273.542 -135.909 272.452 -138.819C271.361 -141.728 270.089 -140.456 266.999 -142.092C263.91 -143.729 264.063 -146.633 263.341 -149.73C262.619 -152.826 253.842 -155.927 253.163 -157.989C252.8 -159.075 250.49 -162.425 248.065 -165.775C248.294 -171.393 248.997 -175.207 249.347 -178.346C249.892 -183.256 253.618 -184.71 255.98 -186.711C258.343 -188.711 254.435 -199.349 256.071 -203.895C257.707 -208.441 262.977 -232.803 262.614 -237.871C270.108 -223.099 268.975 -204.78 267.875 -200.598C266.775 -196.415 264.646 -197.507 268.353 -191.324C272.06 -185.141 274.967 -172.776 275.149 -168.412C275.331 -164.047 279.688 -151.136 283.504 -150.955C288.048 -139.68 289.684 -133.316 291.501 -131.335C293.318 -129.354 292.41 -126.65 296.91 -126.377C301.411 -126.104 305.089 -123.104 303.453 -121.333C301.817 -119.563 305.892 -111.921 305.629 -107.968C305.366 -104.015 300.225 -83.7827 300.952 -80.4186C301.679 -77.0545 304.859 -71.5992 308.857 -68.9625C312.856 -66.3257 311.765 -69.7808 310.039 -71.872C308.312 -73.9631 308.403 -75.7816 308.403 -75.7816C310.493 -77.1454 312.97 -74.145 311.598 -83.6918C310.225 -93.2385 314.037 -95.057 314.764 -98.4211C314.836 -98.7704 314.889 -99.1235 314.922 -99.4786C317.466 -102.206 322.038 -103.422 326.582 -106.877C331.126 -110.332 339.495 -121.233 340.394 -125.97C341.293 -130.708 341.485 -130.698 346.755 -131.636C352.026 -132.574 345.847 -137.426 345.483 -143.064C345.12 -148.701 347.3 -153.429 351.844 -156.156C356.388 -158.884 357.665 -172.168 356.392 -177.442Z" fill="#ED824C"/>
<path d="M1205.94 269.217C1206.06 277.132 1205.39 287.492 1208.94 289.947C1212.48 292.402 1213.57 297.857 1213.57 301.13C1213.57 304.404 1215.21 312.314 1215.21 315.86C1215.21 319.406 1217.12 317.774 1220.66 322.133C1224.2 326.493 1220.11 327.043 1220.66 331.407C1221.2 335.772 1226.92 346.137 1231.01 355.683C1235.1 365.23 1235.1 370.686 1235.92 376.959C1236.74 383.233 1237.55 385.96 1241.1 385.96C1238.65 391.416 1234.28 399.599 1237.01 403.666C1239.74 407.734 1240.28 407.179 1240.01 411.016C1239.74 414.854 1241.37 419.487 1241.1 422.501C1240.83 425.516 1238.65 427.138 1237.55 428.502C1236.46 429.866 1237.46 433.139 1238.19 433.139C1232.19 439.14 1228.56 445.686 1228.56 449.687C1228.56 453.687 1229.1 456.233 1228.2 460.416C1227.29 464.598 1221.2 471.867 1221.2 475.413C1221.2 478.959 1215.46 492.597 1213.55 497.507C1211.64 502.417 1212.46 509.509 1210.82 515.509C1201.56 499.689 1208.37 488.233 1205.92 483.323C1203.46 478.413 1198.56 478.959 1196.35 473.752C1194.15 468.546 1197.17 458.755 1197.44 453.027C1197.72 447.299 1198.04 447.845 1195.56 439.934C1193.09 432.024 1199.35 410.203 1200.99 404.202C1202.62 398.201 1196.07 397.383 1194.99 400.374C1194.72 389.19 1196.07 384.826 1194.99 378.28C1193.9 371.734 1195.81 366.278 1197.17 360.005C1198.53 353.731 1197.34 349.64 1194.66 344.457C1191.99 339.274 1191.72 339.193 1192.54 333.369C1193.35 327.546 1192.17 319.454 1190.54 314.907C1188.9 310.361 1190.17 305.452 1188.9 299.451C1185.07 315.635 1179.81 320.181 1179.27 323.09C1178.72 326 1184.18 331.273 1184.18 331.273C1180.9 330.728 1178.18 328.909 1178 329.838C1177.27 335.269 1177.27 340.773 1178 346.204C1178.65 350.984 1178.46 355.842 1177.45 360.56C1176.54 364.388 1171.82 373.652 1172 380.017C1172.18 386.381 1173.63 392.564 1173.82 395.11C1174 397.656 1175.82 398.656 1176 392.334C1176.18 386.013 1177.27 378.199 1179.27 374.38C1181.81 384.199 1181.63 396.641 1180.9 401.331C1180.18 406.021 1178.54 418.386 1177.63 423.114C1176.72 427.842 1174.36 435.297 1177.45 436.934C1175.09 441.662 1175.45 448.754 1175.82 454.209C1176.18 459.664 1181.49 460.258 1181.86 463.153C1182.23 466.048 1179.86 473.513 1182.04 478.605C1184.22 483.696 1186.22 496.789 1190.58 495.698C1188.95 502.244 1191.13 503.154 1193.86 505.154C1196.58 507.154 1198.76 512.064 1198.4 515.519C1198.04 518.974 1206.4 531.885 1207.49 534.613C1206.05 538.795 1205.12 540.977 1204.94 543.705C1204.76 546.432 1209.49 548.433 1213.48 546.25C1217.48 544.068 1221.3 540.613 1225.3 539.34C1229.3 538.068 1230.2 536.976 1229.47 532.43C1228.75 527.884 1228.04 518.247 1228.93 515.337C1229.82 512.428 1229.84 514.428 1232.2 507.882C1234.56 501.335 1233.63 495.516 1233.83 492.243C1234.03 488.97 1234.38 485.333 1234.38 485.333C1238.56 480.969 1238.74 479.514 1238.56 474.805C1238.38 470.096 1237.29 470.441 1237.29 466.081C1237.29 461.722 1241.83 459.899 1243.83 454.807C1245.83 449.716 1244.56 452.625 1246.01 446.442C1247.46 440.26 1247.65 440.987 1249.28 436.987C1250.92 432.986 1250.48 424.803 1250.72 420.984C1253.48 421.53 1254.03 421.53 1254.39 413.165C1254.75 404.8 1255.48 401.891 1254.39 398.436C1253.3 394.981 1255.35 388.071 1254.97 382.797C1254.59 377.524 1254.13 374.978 1250.72 370.25C1247.3 365.522 1245.85 363.522 1245.85 363.522C1251.3 366.068 1252.21 366.431 1254.21 369.159C1256.21 371.887 1257.84 372.25 1258.21 370.25C1258.57 368.25 1258.93 364.249 1255.66 363.158C1252.39 362.067 1252.31 363.704 1250.72 358.794C1249.12 353.884 1248.39 354.966 1245.67 350.793C1242.94 346.62 1237.31 341.155 1236.58 336.437C1235.85 331.718 1237.12 324.253 1236.22 321.344C1235.31 318.434 1231.49 316.979 1229.67 315.707C1227.86 314.434 1227.49 315.888 1227.86 311.161C1228.22 306.433 1225.13 304.069 1223.5 299.341C1221.86 294.613 1223.5 286.42 1222.77 285.157C1222.04 283.894 1214.05 284.066 1214.05 284.066C1218.96 283.157 1221.7 281.735 1221.7 281.735C1218.97 278.792 1212.52 274.701 1211.43 268.566C1210.34 262.431 1208.84 262.292 1207.61 262.02C1206.37 261.747 1205.86 264.312 1205.94 269.217Z" fill="#ED824C"/>
<path d="M1318 658.409C1316.41 653.232 1314.24 650.439 1312.45 641.965C1312.45 641.965 1306.28 639.242 1299.73 639.274C1300.76 641.216 1304.15 649.026 1303.12 648.907C1302.09 648.787 1299.77 652.024 1301.44 655.566C1303.11 659.109 1304.81 660.099 1303.25 664.384C1301.69 668.668 1296.37 677.37 1297.39 681.863C1298.41 686.356 1298.52 691.45 1294.58 705.687C1289.86 698.111 1289.23 703.489 1289.38 706.002C1289.54 708.514 1289.54 717.589 1285.64 720.879C1285.08 721.354 1284.51 721.82 1283.96 722.309C1283.03 720.548 1282.26 718.97 1281.98 717.682C1281.35 714.715 1281.71 705.584 1280.38 703.296C1279.06 701.008 1277.36 701.384 1275.68 703.854C1270.64 700.242 1268.84 688.606 1265.5 681.521C1262.16 674.436 1261.5 669.557 1257.45 665.795C1253.4 662.032 1246.94 660.601 1250.23 657.851C1253.52 655.102 1250.9 647.791 1249.03 640.982C1253.74 637.6 1253.39 640.9 1249.97 632.727C1246.54 624.554 1245.85 618.948 1246.92 615.423C1247.98 611.897 1245.88 604.353 1238.63 598.79C1231.37 593.227 1231.13 580.125 1230.45 577.889C1226.06 576.06 1225.25 580.754 1224 584.2C1222.75 587.646 1222.33 588.218 1221.46 588.817C1222.08 585.716 1222.31 582.551 1222.16 579.393C1222.06 576.211 1222.4 569.79 1222.35 567.449C1222.3 565.108 1218.27 567.696 1217.1 569.497C1215.94 571.298 1213.79 573.432 1213.15 576.386C1211.59 583.561 1202.5 588.781 1205.72 592.958C1208.95 597.135 1207.11 599.313 1205.76 603.69C1204.41 608.067 1192.47 619.356 1189.04 622.843C1185.61 626.33 1187.56 631.495 1189.74 634.46C1191.92 637.425 1189.74 640.471 1189.79 647.209C1189.8 647.458 1189.78 647.689 1189.77 647.915C1189.03 648.056 1185.33 648.514 1184.3 648.725C1179.98 649.534 1177.56 652.35 1175.84 654.094C1174.13 655.837 1180.36 661.419 1180.52 664.084C1180.69 666.75 1179.35 672.584 1177.76 676.515C1176.18 680.446 1177.47 685.704 1178.1 690.037C1178.74 694.371 1172.62 695.911 1172.72 697.555C1172.82 699.198 1181.45 704.466 1182.54 710.412C1183.63 716.358 1183.6 721.825 1182.83 724.24C1182.07 726.654 1181.56 730.329 1185.3 728.827C1189.03 727.326 1188.95 725.874 1188.99 726.6C1191.26 731.017 1197.08 738.882 1196.74 742.364C1196.41 745.845 1196.05 754.611 1198.43 755.205C1200.81 755.799 1202.99 758.391 1203.52 761.001C1204.04 763.611 1207.25 771.614 1207.17 776.174C1207.08 780.733 1212 783.897 1214.66 788.664C1217.31 793.432 1217.89 795.751 1218.19 798.283C1218.49 800.815 1215.22 803.928 1214.48 806.706C1213.73 809.483 1216.94 808.378 1217.17 812.19C1217.41 816.002 1218.34 819.406 1216.52 822.431C1214.7 825.456 1219.46 830.729 1220.5 836.357C1221.53 841.985 1222.11 846.596 1221.61 854.824C1221.12 863.051 1218.9 862.505 1218.99 864C1219.08 865.495 1220.08 867.214 1222.41 868.031C1224.75 868.848 1224.34 876.793 1223.09 879.194C1221.84 881.595 1221.77 885.146 1221.32 888.999C1220.87 892.853 1221.61 893.776 1222.08 897.017C1222.55 900.258 1222.27 902.332 1222.56 904.908C1219.23 908.528 1219.11 911.268 1219.66 915.631C1220.2 919.994 1219.42 922.932 1218.33 925.367C1217.24 927.801 1215 926.805 1215.16 929.394C1215.32 931.983 1216.19 937.409 1214.72 940.231C1213.26 943.052 1209.73 943.539 1208.77 947.969C1207.81 952.4 1209.71 952.146 1210.07 955.949C1210.44 959.753 1211.3 964.893 1208.28 966.854C1210.77 972.029 1211.65 977.442 1210.19 982.588C1213.53 977.649 1215.85 973.865 1216.22 968.013C1216.6 962.161 1216.88 957.771 1219.32 953.069C1221.77 948.366 1221.96 948.537 1222.23 952.893C1222.49 957.25 1219.58 963.256 1222.77 961.787C1225.95 960.319 1227.63 955.117 1229.69 946.794C1231.74 938.472 1233.71 937.989 1235.72 935.134C1237.73 932.28 1240.3 923.744 1239.81 921.587C1239.33 919.431 1234.07 919.974 1233.6 919.777C1237.29 918.322 1239.53 918.326 1241.19 918.407C1242.85 918.489 1244.99 913.532 1246.12 911.186C1247.25 908.84 1246.53 908.975 1246.44 907.432C1246.35 905.889 1246.56 904.874 1248.72 903.013C1250.89 901.151 1250.24 895.044 1250.85 891.589C1251.45 888.134 1252.39 880.839 1253.55 877.489C1254.7 874.14 1255.67 867.389 1255.02 865.789C1254.38 864.188 1251.79 864.206 1250.4 866.069C1249 867.932 1248.22 877.539 1247.8 879.616C1247.39 881.692 1245.83 883.015 1245.61 879.475C1245.4 875.936 1246.02 863.601 1244.76 860.944C1243.51 858.288 1243.49 860.202 1241.83 855.369C1240.18 850.536 1241.8 842.753 1241.63 836.934C1241.46 831.114 1239.99 821.912 1239.5 819.756C1239 817.6 1237.22 821.332 1228.79 820.404C1235.77 818.342 1237.35 817.336 1238.08 814.376C1238.81 811.417 1238.78 811.011 1237.05 806.494C1235.32 801.978 1234.37 795.29 1234.78 789.982C1235.19 784.674 1233.93 784.938 1231.91 781.599C1229.88 778.26 1223.93 771.607 1221.21 762.754C1218.49 753.9 1219.78 752.729 1219.69 746.723C1219.6 740.716 1217.3 743.315 1213.23 739.189C1209.15 735.064 1208.8 729.347 1207.72 720.394C1207.03 714.76 1206.3 710.187 1205.2 706.946C1202.06 697.495 1201.51 688.52 1209.46 695.46C1214.75 699.934 1221.22 705.559 1222.57 708.569C1224.47 712.827 1223.28 720.277 1226.12 722.018C1228.96 723.759 1232.72 722.712 1233.58 732.497C1234.45 742.282 1237.18 746.762 1238.85 745.841C1241.15 744.479 1243.02 742.505 1244.25 740.14C1245.47 737.607 1243.67 736.44 1242.63 732.769C1241.59 729.097 1241.53 722.452 1241.02 719.749C1240.52 717.047 1233.65 716.643 1231.35 716.327C1236.17 714.76 1237.72 714.758 1239.55 714.92C1241.38 715.082 1237.85 704.912 1236.58 702.074C1235.32 699.235 1234.13 700.583 1230.94 699.136C1227.76 697.689 1227.77 694.774 1226.85 691.713C1225.94 688.652 1217 686.101 1216.2 684.083C1215.77 683.021 1213.26 679.798 1210.64 676.615C1210.53 670.994 1211 667.149 1211.16 663.994C1211.4 659.061 1215.03 657.383 1217.27 655.244C1219.51 653.105 1214.97 642.722 1216.32 638.086C1217.68 633.449 1221.47 608.808 1220.8 603.748C1229.17 618.04 1229.15 636.399 1228.3 640.64C1227.46 644.881 1225.27 643.921 1229.34 649.868C1233.41 655.815 1237.06 667.982 1237.51 672.328C1237.95 676.673 1243.08 689.297 1246.9 689.248C1252.12 700.222 1254.14 706.476 1256.07 708.349C1258.01 710.221 1257.26 712.97 1261.77 712.971C1266.28 712.971 1270.13 715.744 1268.61 717.61C1267.08 719.476 1271.61 726.858 1271.59 730.819C1271.56 734.781 1267.65 755.287 1268.58 758.601C1269.51 761.915 1273.01 767.168 1277.17 769.559C1281.32 771.949 1280.02 768.566 1278.17 766.583C1276.32 764.6 1276.3 762.779 1276.3 762.779C1278.3 761.292 1280.96 764.137 1279.01 754.691C1277.06 745.244 1280.76 743.199 1281.28 739.797C1281.33 739.445 1281.36 739.091 1281.37 738.736C1283.75 735.86 1288.24 734.366 1292.57 730.643C1296.89 726.919 1304.59 715.533 1305.2 710.749C1305.81 705.966 1306 705.964 1311.21 704.71C1316.41 703.455 1309.95 698.985 1309.25 693.38C1308.54 687.775 1310.43 682.924 1314.8 679.927C1319.18 676.93 1319.59 663.615 1318 658.409Z" fill="#ED824C"/>
<path d="M1174.52 569.02C1173.68 563.599 1171.28 552.581 1168.62 548.013C1165.96 543.446 1163.12 536.817 1163.23 532.457C1163.33 528.096 1160.13 528.61 1158.9 525.971C1157.66 523.332 1149.13 499.503 1155.28 490.461C1161.44 481.419 1160.38 474.976 1159.6 472.065C1158.82 469.154 1157.24 473.554 1156.47 478.684C1155.7 483.813 1151.43 489.425 1149.15 491.699C1146.87 493.972 1148.87 503.271 1147.72 509.574C1146.58 515.876 1152.07 524.537 1152.07 524.537C1139.94 518.152 1148.54 532.168 1151.12 535.854C1153.7 539.539 1158.85 552.698 1159.48 558.129C1160.11 563.56 1161.38 561.164 1164.73 565.218C1168.08 569.272 1168.47 573.475 1169.91 576.894C1171.34 580.314 1175.64 576.199 1174.52 569.02Z" fill="#ED824C"/>
<path d="M1115.3 440.972C1112.15 441.81 1106.58 445.234 1110.57 454.223C1108.78 453.467 1103.62 453.661 1098.35 461.428C1093.08 469.196 1080.55 481.766 1080.21 486.883C1079.86 491.999 1082.09 496.291 1079.16 498.002C1076.22 499.713 1069.59 500.756 1070.94 507.48C1072.28 514.203 1076.34 515.019 1076.18 524.944C1076.15 526.629 1079.83 537.42 1080.58 534.965C1083.02 526.862 1082.66 518.317 1083.74 516.454C1084.83 514.591 1088.73 503.287 1093.43 490.657C1093.43 490.657 1097.37 497.929 1099.2 514.609C1099.88 520.775 1105 528.344 1105.84 535.287C1106.19 538.15 1109 544.313 1109.41 549.481C1110 556.86 1115.02 559.211 1120.85 566.755C1124.2 571.097 1123.22 560.259 1120.54 555.181C1120.54 555.181 1116.6 552.444 1113.19 542.819C1109.87 533.483 1109.96 527.105 1109.85 522.285C1109.64 513.362 1105.39 513.98 1106.1 506.938C1106.66 501.348 1106.1 491.461 1108.09 489.569C1110.08 487.677 1115.7 488.408 1115.01 485.011C1114.33 481.615 1112.76 475.58 1114.8 472.75C1116.84 469.92 1127.69 464.573 1129.99 454.228C1130.16 446.93 1136.87 442.227 1139.64 441.489C1142.4 440.752 1141.29 435.192 1139.25 432.245C1137.2 429.299 1142.58 409.759 1142.89 406.716C1139.94 400.222 1140.24 395.317 1138.31 396.639C1136.39 397.961 1137.33 403.548 1136.96 407.165C1136.59 410.783 1132.52 418.681 1129.48 420.781C1126.45 422.881 1123.78 438.701 1115.3 440.972Z" fill="#ED824C"/>
<path d="M1164.95 206.157C1159.09 208.99 1156.89 209.255 1153.94 213.772C1151 218.289 1154.21 233.107 1150.03 240.03C1145.85 246.953 1149.35 250.539 1152.21 247.715C1150.86 255.743 1145.29 262.761 1142.53 267.159C1140.98 269.652 1141.61 274.918 1138.17 279.288C1135.52 282.651 1128.63 285.417 1127.65 286.393C1125.38 288.647 1129.11 290.908 1134.62 287.916C1140.13 284.925 1148.98 278.273 1157.72 279.732C1164.06 280.829 1156.43 267.509 1160.41 257.793C1164.4 248.077 1169.64 242.838 1170.81 238.453C1171.98 234.068 1159.19 233.979 1159.19 233.979C1167.5 232.883 1169.17 233.407 1170.67 232.447C1172.04 227.595 1169.87 225.001 1172.55 220.904C1175.23 216.808 1180.19 209.236 1179.51 206.94C1178.84 204.644 1184.62 199.638 1188.02 196.655C1191.43 193.671 1183.45 189.515 1178.35 194.38C1173.25 199.245 1168.45 204.473 1164.95 206.157Z" fill="#ED824C"/>
<path d="M1124.37 223.549C1121.27 220.484 1118.07 219.936 1112.48 219.073C1106.89 218.21 1099.17 216.978 1097.43 215.337C1095.69 213.697 1089.64 208.692 1087.08 207.678C1084.53 206.664 1084.98 202.681 1084.78 201.57C1084.59 200.459 1082.81 198.315 1080.11 195.085C1077.41 191.856 1073.55 181.709 1073.71 175.836C1073.87 169.963 1069.88 167.408 1067.65 165.169C1065.41 162.842 1063.32 160.368 1061.41 157.764C1059.67 155.426 1057.36 150.005 1054.62 147.427C1051.88 144.848 1049.1 143.201 1049.26 147.853C1049.42 152.505 1052.01 152.615 1053.36 156.443C1054.71 160.271 1053.71 160.253 1053.58 164.762C1053.44 169.27 1057.65 172.306 1059.14 174.641C1056.35 178.04 1055.27 176.397 1060.26 182.686C1065.26 188.975 1063.47 192.628 1062.91 196.733C1062.34 200.839 1070.05 210.644 1074.2 214.558C1078.36 218.472 1079.1 224.275 1081.11 228.716C1083.12 233.157 1085.62 240.153 1089.23 243.779C1092.83 247.404 1101.14 255.466 1103.4 259.443C1108.07 260.838 1106.01 258.425 1106.06 256.62C1106.11 254.814 1107.95 253.071 1110 251.988C1106.43 247.004 1105.42 243.037 1105.92 241.188C1106.42 239.339 1104.55 238.268 1103.78 237.546C1103.01 236.824 1102.55 233.145 1103.05 231.523C1103.54 229.901 1096.14 225.484 1094.14 220.812C1102.5 222.896 1106.01 225.969 1108.69 226.631C1111.36 227.293 1112.64 225.833 1115.44 226.041C1118.24 226.249 1119.12 227.069 1120.89 227.93C1122.67 228.791 1122.75 225.74 1125.29 227.658C1127.82 229.576 1126.88 226.03 1124.37 223.549Z" fill="#ED824C"/>
<path d="M1119.17 390.904C1119.93 385.96 1126.11 378.274 1125.29 367.263C1124.93 362.428 1120.74 350.519 1122.05 346.762C1123.37 343.005 1119.89 342.571 1119.98 339.928C1120.38 328.291 1124.77 319.087 1132.83 312.994C1140.88 306.902 1143.1 300.356 1143.21 297.606C1143.32 294.856 1136.71 299.103 1134.59 303.317C1132.47 307.532 1127.03 308.245 1124.34 309.564C1121.65 310.883 1117.34 317.39 1114.53 322.519C1111.71 327.648 1114.24 336.735 1114.24 336.735C1109.7 325.921 1105.08 317.643 1106.06 311.044C1107.05 304.444 1101.81 306.564 1102.2 318.799C1102.59 331.033 1108.94 342.356 1110.21 346.285C1111.47 350.214 1111.92 369.001 1110.37 373.773C1107.73 381.85 1109.56 380.369 1111.44 384.841C1113.31 389.312 1112.48 393.063 1112.81 396.421C1113.14 399.779 1118.17 397.455 1119.17 390.904Z" fill="#ED824C"/>
<path d="M1002.31 553.413C1000.73 551.617 998.064 541.132 996.869 539.339C992.266 532.429 988.483 532.897 988.206 533.575C987.928 534.254 992.984 542.562 993.683 547.77C993.857 549.093 991.717 556.715 991.466 558.288C991.214 559.861 1003.84 563.739 1005.86 569.245C1018.67 604.042 1016.14 587.428 1019.73 595.239C1022.31 600.855 1022.68 605.981 1023.86 607.954C1026.68 612.676 1031.84 611.279 1034.26 613.988C1036.68 616.696 1040.19 623.913 1040.19 623.913C1038.72 625.941 1040.16 629.227 1041.5 631.078C1043.68 634.436 1045.61 637.953 1047.26 641.601C1048.34 644.211 1051.19 642.184 1052.59 641.817C1053.99 641.45 1058.97 636.669 1059.48 635.502C1059.99 634.335 1055.35 629.718 1054.36 625.904C1057.99 629.829 1059.86 632.151 1061.7 631.542C1063.55 630.933 1062.82 626.81 1062.42 625.121C1062.01 623.432 1059.25 621.96 1058.6 619.754C1057.94 617.548 1058 612.814 1056.67 611.063C1055.34 609.312 1053.61 607.604 1052.72 604.019C1051.84 600.433 1051.37 592.642 1051.62 589.308C1051.86 585.975 1048.92 584.436 1048.2 586.316C1047.48 588.196 1046.64 590.098 1046.69 590.506C1045.07 581.364 1046.45 574.03 1046.31 570.887C1046.17 567.745 1044.61 566.285 1044.13 564.707C1045.46 557.104 1043.63 552.533 1041.25 549.128C1038.88 545.723 1037.4 538.63 1037.57 536.821C1037.75 535.013 1035.09 524.217 1034.43 521.278C1033.77 518.338 1032.26 516.197 1034.8 515.727C1037.35 515.257 1042.05 514.36 1042.21 513.378C1042.38 512.396 1042.1 511.462 1039.81 510.797C1037.53 510.133 1038.82 506.391 1041.22 502.635C1042.08 501.259 1042.65 499.715 1042.88 498.105C1043.11 496.495 1043 494.854 1042.56 493.289C1042.05 491.522 1044.58 490.547 1045.69 489.943C1046.8 489.338 1050.52 485.549 1050.52 485.549C1050.52 485.549 1048.29 481.164 1048.54 479.572C1048.79 477.981 1051.22 474.268 1052.88 473.501C1054.53 472.733 1056.9 472.698 1058.12 473.295C1059.34 473.893 1059.83 472.704 1058.78 471.012C1057.74 469.32 1055.78 463.684 1057.24 461.171C1052.41 462.08 1045.44 461.345 1045.31 465.633C1045.19 469.921 1046.46 470.343 1043.79 473.03C1041.12 475.717 1039.69 475.353 1038.84 477.256C1037.99 479.158 1038.82 481.246 1037.84 483.18C1032.44 482.923 1028.89 479.953 1026.77 489.995C1024.65 500.038 1023.9 504.036 1023.26 508.247C1022.62 512.457 1021.82 510.545 1022.63 516.765C1023.45 522.986 1024.27 536.175 1024.59 541.451C1024.92 546.727 1025.53 549.949 1028.01 554.941C1030.5 559.932 1028.99 563.799 1029.61 568.486C1029.89 570.65 1030.97 575.509 1032.17 580.351C1033.57 586.003 1035.14 591.627 1035.8 592.906C1032.53 588.379 1029.14 583.433 1023.31 579.391C1021.53 578.177 1011.87 554.948 1010.56 553.464C1005.81 548.035 1003.24 554.483 1002.31 553.413Z" fill="#ED824C"/>
<path d="M1297.21 610.197C1292.41 612.167 1297.55 617.385 1291.24 621.03C1289.51 622.029 1286.14 616.864 1285.24 621.172C1284.31 625.595 1282.12 628.547 1278.65 631.434C1275.18 634.321 1270.58 632.852 1272.2 629.397C1273.83 625.943 1277.73 622.581 1278.82 617.065C1279.92 611.55 1276.15 611.424 1277.2 604.079C1278.25 596.734 1279.96 593.015 1278.59 590.363C1277.23 587.71 1273.03 588.947 1272.84 584.633C1272.64 580.318 1272.93 563.971 1271.39 557.415C1269.02 556.901 1264.17 558.243 1263.02 557.701C1261.87 557.158 1264.29 549.456 1264.98 544.555C1265.67 539.655 1268.44 525.279 1269.29 523.47C1270.15 521.66 1270.98 519.038 1268.51 514.053C1266.04 509.068 1276.54 495.727 1278.19 485.847C1275.75 482.488 1278.1 478.366 1278.33 474.456C1278.57 470.547 1277.27 467.324 1276.55 464.169C1275.83 461.013 1277.74 455.682 1279.76 451.396C1281.78 447.111 1286.21 435.141 1288.84 429.142C1287.75 427.622 1286.88 425.574 1287.93 421.273C1288.44 419.166 1291.11 419.208 1294.33 418.765C1297.56 418.321 1299.75 415.588 1302.16 411.447C1304.56 407.307 1304.51 409.674 1305.41 414.49C1306.31 419.306 1308.87 424.411 1307.36 427.315C1305.84 430.218 1305.91 430.705 1305.86 433.696C1305.8 436.687 1307.31 436.038 1307.4 440.002C1307.5 443.966 1302.9 450.844 1301.38 454.051C1299.87 457.259 1293.78 465.698 1295.88 466.687C1297.98 467.676 1298.94 467.225 1300.76 469.438C1302.59 471.652 1299.39 473.313 1297.06 475.687C1294.74 478.062 1294.6 477.391 1293.74 479.853C1292.89 482.316 1292.59 490.614 1295.15 496.062C1297.7 501.509 1294.53 498.317 1291.61 501.312C1288.7 504.306 1284.78 506.836 1285.72 509.99C1286.65 513.145 1285.54 520.917 1285.11 523.423C1284.68 525.928 1285.64 527.744 1286.48 530.101C1287.33 532.457 1291.66 537.666 1291.58 540.386C1291.5 543.106 1288.76 546.704 1290.77 554.587C1291.72 550.963 1293.96 550.06 1295.65 551.909C1297.33 553.757 1299.11 554.146 1299.2 558.108C1299.29 562.07 1298.12 572.227 1298.45 575.398C1298.78 578.569 1300.76 580.719 1302.87 582.003C1304.98 583.287 1303.9 586.191 1304.72 588.482C1307.63 596.513 1300.03 592.495 1299.78 597.503C1299.53 602.511 1299.87 609.107 1297.21 610.197Z" fill="#ED824C"/>
<path d="M1099.03 596.923C1091.29 597.607 1090.36 604.03 1093.52 610.674C1096.68 617.318 1103.02 621.403 1101.85 626.191C1100.68 630.979 1100.89 632.943 1099.57 638.229C1098.25 643.516 1099.01 643.379 1102.42 649.733C1105.83 656.088 1114.62 672.588 1114.62 672.588C1105.93 671.006 1107.81 679.922 1109.64 683.337C1111.47 686.753 1115.88 697.283 1117.54 698.054C1119.2 698.824 1125.5 723.733 1124.4 725.569C1123.31 727.405 1135.35 758.377 1137.14 763.264C1126.88 761.171 1115.55 753.497 1112.26 747.362C1108.97 741.226 1111.18 724.917 1101.7 727.853C1095.06 729.912 1085.39 718.909 1081.65 713.035C1064.87 686.664 1062.03 683.682 1058.68 680.571C1052.31 674.626 1049.41 677.226 1052.7 683.362C1055.99 689.497 1062.18 704.391 1060.87 710.476C1059.56 716.561 1054.2 717.677 1052.82 721.311C1051.45 724.945 1060.86 734.114 1065.22 737.183C1068.09 739.205 1067.84 730.943 1070.49 735.294C1071.85 737.55 1070.16 744.521 1071.29 746.046C1072.72 747.993 1076.09 748.691 1080.36 750.033C1086.01 751.815 1100.5 749.639 1106.81 757.866C1117.89 772.305 1122.64 783.485 1131.89 786.005C1136.43 787.243 1140.51 790.464 1147.27 793.326C1149.08 794.09 1152.15 789.962 1153.83 790.736C1158.66 792.966 1164.57 799.467 1166.35 801.033C1171.06 805.158 1173.27 796.898 1172.51 793.148C1171.75 789.398 1157.94 768.644 1161.35 764.869C1165.54 760.23 1162.39 758.406 1161.43 753.519C1160.47 748.631 1151.68 750.841 1147.01 742.121C1142.33 733.401 1147.99 725.37 1145.84 719.035C1143.69 712.7 1141.06 712.45 1138.46 707.605C1135.86 702.759 1139.59 683.566 1140.68 678.913C1141.77 674.26 1143.73 672.738 1142.52 665.674C1141.31 658.61 1138 640.051 1137.71 634.662C1137.42 629.274 1133.32 626.477 1132.88 628.751C1132.44 631.024 1133.34 631.644 1133.37 635.876C1133.4 640.107 1133.83 641.551 1132.07 646.193C1130.31 650.835 1134.47 660.062 1132.86 666.659C1124.51 656.9 1119.64 647.141 1118.02 641.346C1116.39 635.55 1115.99 629.306 1113.45 624.567C1110.9 619.827 1108.01 617.874 1106.8 613.899C1105.6 609.924 1105.42 596.359 1099.03 596.923Z" fill="#ED824C"/>
<path d="M1249.85 283.772C1248.4 285.051 1252.91 288.465 1253.35 291.324C1253.79 294.183 1252.24 295.452 1252.16 297.681C1252.08 299.909 1254.72 303.103 1254.83 306.001C1254.95 308.898 1260.67 314.004 1263.07 318.196C1264.76 321.305 1266.21 324.54 1267.4 327.873C1264.71 328.434 1264.04 330.848 1264.99 332.691C1265.93 334.534 1268.04 337.232 1272.96 337.57C1277.88 337.907 1278.55 346.155 1279.01 347.768C1279.47 349.382 1281.28 349.063 1284.48 345.973C1287.68 342.882 1290.98 340.88 1289.55 337.286C1288.12 333.691 1286.53 325.792 1285.78 322.56C1284.18 315.738 1272.8 319.128 1268.44 304.899C1267.42 301.579 1267.81 300.078 1266.57 298.852C1265.32 297.626 1262.55 292.708 1262.17 291.293C1261.79 289.878 1263.94 284.115 1263.94 284.115C1264.07 278.845 1260.2 275.875 1258.79 268.431C1257.37 260.986 1255.81 272.075 1255.74 275.878C1255.68 279.681 1252.49 281.431 1249.85 283.772Z" fill="#ED824C"/>
<path d="M1057.51 276.673C1053.49 279.946 1059.92 283.454 1054.93 288.767C1053.57 290.224 1048.85 286.253 1049.23 290.639C1049.61 295.143 1048.37 298.601 1045.88 302.368C1043.39 306.136 1038.57 306.058 1039.13 302.281C1039.69 298.503 1042.45 294.158 1041.9 288.561C1041.35 282.965 1037.71 283.934 1036.59 276.599C1035.47 269.264 1036.03 265.21 1033.96 263.065C1031.89 260.92 1028.23 263.318 1026.79 259.244C1025.36 255.171 1020.91 239.438 1017.54 233.607C1015.12 233.8 1010.87 236.487 1009.61 236.3C1008.35 236.114 1008.44 228.039 1007.69 223.148C1006.94 218.256 1005.43 203.694 1005.72 201.716C1006.02 199.737 1006.06 196.986 1002.25 192.928C998.442 188.871 1004.64 173.062 1003.36 163.128C1000.06 160.617 1001.11 155.993 1000.21 152.182C999.303 148.372 997.133 145.66 995.529 142.848C993.925 140.037 994.212 134.381 994.907 129.694C995.602 125.008 996.389 112.266 997.17 105.764C995.685 104.625 994.266 102.915 994.022 98.4956C993.903 96.3301 996.472 95.5984 999.429 94.2421C1002.39 92.8859 1003.7 89.6355 1004.8 84.9765C1005.91 80.3174 1006.54 82.598 1008.8 86.9478C1011.05 91.2976 1014.98 95.445 1014.37 98.6631C1013.75 101.881 1013.96 102.328 1014.77 105.206C1015.59 108.085 1016.84 107.027 1018.08 110.795C1019.31 114.563 1016.9 122.477 1016.38 125.985C1015.86 129.492 1012.46 139.332 1014.76 139.672C1017.05 140.013 1017.85 139.303 1020.23 140.895C1022.61 142.487 1020.03 145.002 1018.49 147.947C1016.95 150.892 1016.63 150.288 1016.52 152.894C1016.41 155.499 1018.53 163.529 1022.55 168.005C1026.57 172.482 1022.61 170.342 1020.68 174.052C1018.76 177.762 1015.74 181.315 1017.55 184.065C1019.35 186.815 1020.54 194.576 1020.85 197.099C1021.16 199.622 1022.6 201.084 1024.09 203.095C1025.59 205.106 1031.23 208.842 1031.95 211.468C1032.66 214.094 1031.07 218.333 1035.27 225.298C1035.14 221.553 1037.02 220.042 1039.17 221.324C1041.32 222.605 1043.13 222.463 1044.37 226.231C1045.6 229.998 1047.42 240.059 1048.65 242.999C1049.88 245.939 1052.4 247.425 1054.78 248.045C1057.17 248.666 1056.98 251.757 1058.43 253.713C1063.53 260.561 1055.1 258.91 1056.31 263.776C1057.52 268.643 1059.74 274.861 1057.51 276.673Z" fill="#ED824C"/>
<path d="M1017.23 70.34C1016.78 68.3059 1013.8 66.1432 1014.25 63.0326C1014.7 59.9219 1013.44 59.3335 1013.57 56.4447C1013.7 53.556 1014.44 57.3054 1015.16 56.127C1015.87 54.9485 1013.96 52.6306 1014.18 51.0664C1014.41 49.5021 1016.5 49.4988 1016.64 44.8034C1016.77 40.108 1014.31 34.9112 1013.83 31.9735C1013.35 29.0358 1008.92 21.4427 1008.45 19.4096C1007.99 17.3765 1008.4 18.6386 1008.69 16.399C1008.98 14.1595 1007.37 12.043 1007.44 9.3368C1007.59 8.10735 1007.58 6.86299 1007.41 5.63657C1006.43 -1.77396 1005.71 -8.02272 1004.21 -19.7915C1002.72 -31.5603 1000.56 -43.251 995.858 -53.4156C991.151 -63.5801 990.574 -64.4317 991.104 -70.0703C991.633 -75.7089 988.886 -75.8574 988.449 -77.4327C988.011 -79.008 986.996 -91.045 986.036 -95.674C985.075 -100.303 979.063 -103.682 978.61 -107.102C976.987 -119.373 974.327 -136.454 973.46 -139.013C972.594 -141.572 968.957 -140.62 968.294 -140.007C969.303 -128.921 964.507 -141.613 964.292 -148.725C964.015 -157.813 967.106 -163.831 965.514 -168.645C963.673 -174.312 962.364 -180.138 961.606 -186.048C957.604 -187.374 957.309 -188.727 955.283 -185.413C953.948 -183.233 950.629 -175.042 948.721 -169.025C945.229 -160.365 940.181 -155.011 938.25 -149.281C935.798 -142.029 928.559 -141.945 926.714 -136.983C925.601 -133.962 928.576 -133.701 922.9 -122.226C921.54 -119.485 912.422 -118.394 908.655 -111.901C905.337 -106.146 910.298 -110.747 909.297 -101.949C909.065 -99.8785 906.053 -95.4874 904.959 -92.3354C903.137 -87.0672 911.006 -93.9936 913.892 -99.325C915.599 -102.476 922.932 -105.685 926.368 -110.862C928.742 -114.44 931.744 -120.3 932.51 -122.989C934.703 -130.666 941.714 -125.263 943.708 -132.159C945.134 -137.036 948.724 -149.746 950.063 -154.201C949.434 -144.43 954.122 -142.29 955.443 -137.031C956.801 -131.585 955.721 -122.802 953.894 -119.079C952.067 -115.357 947.331 -114.787 947.962 -111.332C948.593 -107.877 950.582 -103.791 953.198 -106.806C955.814 -109.821 956.454 -115.068 958.055 -111.798C959.656 -108.527 956.907 -102.945 958.753 -99.0712C960.599 -95.1977 964.426 -84.4617 961.465 -77.6243C958.503 -70.787 950.249 -61.6542 946.058 -59.1078C941.866 -56.5615 941.616 -57.1847 940.894 -53.4347C940.173 -49.6848 937.633 -46.0996 935.134 -46.5803C932.635 -47.061 929.641 -37.2672 926.963 -32.9678C924.285 -28.6683 907.19 -43.0311 903.256 -39.8992C899.322 -36.7673 898.789 -22.8305 900.181 -17.5627C901.574 -12.295 903.342 -14.7032 904.959 -19.7915C907.866 -28.9249 910.385 -33.562 911.374 -37.2604C912.363 -40.9589 929.634 -20.8802 933.938 -27.2742C938.241 -33.6682 940.684 -40.6979 947.234 -46.8449C953.784 -52.9919 960.031 -56.6046 962.356 -60.9915C964.68 -65.3784 968.009 -73.0613 967.679 -79.0407C970.127 -65.7924 973.577 -51.981 976.631 -48.6158C979.686 -45.2505 981.723 -39.4883 984.319 -32.8781C986.914 -26.268 990.225 -9.7057 990.43 -5.96265C990.457 -5.47015 990.507 -4.87083 990.587 -4.24638C990.389 0.301136 988.43 8.6861 986.667 12.4306C984.457 17.1367 972.943 33.264 970.535 36.4117C968.127 39.5595 965.163 51.3474 961.922 55.865C958.681 60.3826 950.224 64.725 951.289 67.8441C952.355 70.9632 952.089 67.3061 955.82 65.9382C959.551 64.5702 962.391 68.5912 969.366 57.5749C976.341 46.5587 973.93 45.3979 978.09 43.9761C982.25 42.5543 980.165 46.1783 981.753 47.3171C983.34 48.4559 981.413 44.7519 985.595 38.89C989.776 33.028 993.122 23.8135 994.585 19.0951C995.716 15.408 996.616 11.6538 997.279 7.85448C1000.34 11.7771 1000.43 14.6651 1000.64 16.4645C1000.85 18.2639 1002.28 18.0759 1003.31 21.3295C1004.34 24.5831 1007.1 32.4281 1007.85 34.7941C1004.75 31.6976 1002.5 29.4132 1004.04 34.8947C1005.58 40.3762 1007.09 40.5939 1007.11 43.0057C1007.14 45.4174 1006.18 46.4363 1007.1 48.3636C1008.03 50.291 1007.72 52.7418 1006.85 55.9081C1005.99 59.0745 1008.53 62.9653 1009.8 65.364C1011.07 67.7627 1013.5 71.4367 1014.36 73.0633C1015.22 74.6899 1017.67 72.3695 1017.23 70.34Z" fill="#ED824C"/>
</g>
<defs>
<clipPath id="clip0_416_471">
<rect width="1280" height="720" fill="white"/>
</clipPath>
</defs>
</svg>
