<svg width="1280" height="720" viewBox="0 0 1280 720" fill="none" xmlns="http://www.w3.org/2000/svg">
<g clip-path="url(#clip0_416_1037)">
<rect width="1280" height="720" fill="#FFFBF3"/>
<rect width="1280" height="720" fill="#023A2F"/>
<path d="M11.1771 7.38161C12.9514 14.3547 10.6093 15.2951 10.6093 21.1858C10.6093 27.0765 17.3162 34.7771 20.9891 35.5046C25.1012 36.6248 29.1472 37.9755 33.1077 39.55C33.1077 39.55 20.9891 37.7757 20.6875 43.2229C20.3858 48.67 13.1289 59.3869 9.81087 64.8873C6.4929 70.3877 7.18488 83.2515 4.98473 87.6696C2.70908 91.6499 0.13485 95.4519 -2.71582 99.0429L3.51204 107.489C3.51204 107.489 13.8031 81.424 18.2744 78.106C22.7457 74.788 22.6924 87.2969 22.6924 89.1245C22.6924 90.952 43.9843 88.7696 43.9843 88.7696C43.9843 88.7696 24.1651 93.1699 22.6924 96.4702C21.2197 99.7704 21.5214 110.807 20.5987 114.834C19.6761 118.862 35.8401 117.407 35.8401 117.407L47.2313 106.761L40.2405 121.08L50.2121 137.244C50.2121 137.244 42.8132 125.853 35.8401 125.48C28.8671 125.108 21.823 121.453 20.7762 123.28C19.7293 125.108 18.9486 148.546 23.7215 155.644C28.4945 162.741 28.1218 175.835 27.0218 179.508C25.9217 183.181 38.7678 187.227 38.7678 187.227C38.7678 187.227 28.1218 186.127 27.767 190.899C27.4121 195.672 22.6215 215.137 33.2674 215.137C43.9133 215.137 44.4811 220.584 44.8537 227.557C45.2263 234.53 43.381 242.993 43.381 250.339C43.381 257.685 44.8537 265.758 44.8537 269.857C44.8537 273.955 46.628 282.951 40.684 294.218C34.7401 305.485 46.557 321.134 45.5811 326.528C44.6053 331.922 62.7211 331.301 62.7211 331.301C63.2001 324.452 64.1938 306.816 62.7211 302.912C67.1214 319.076 70.5458 335.719 72.5153 343.065C83.7822 348.956 106.227 337.742 106.227 337.742C105.731 326.475 104.755 315.705 106.227 307.384C107.7 299.062 96.4332 270.123 96.4332 270.123C96.4332 270.123 87.5615 271.116 85.1662 266.219C82.7709 261.322 80.3756 240.261 80.3756 240.261C72.5508 241.734 58.8353 239.764 58.8353 239.764C74.0235 234.867 80.8724 236.837 80.8724 233.394C78.3883 222.624 62.1533 207.099 62.6324 193.792C63.1114 180.484 64.5841 181.052 65.0809 173.476C65.5777 165.899 63.1114 144.341 67.0327 142.39C70.9539 140.438 68.0085 122.872 66.5536 119.323C65.0987 115.775 59.2079 113.45 59.2079 113.45L66.0568 105.129C66.0568 105.129 66.0568 86.5162 68.5054 77.2188C70.9539 67.9214 73.438 42.4422 72.604 35.9836C69.0554 31.4414 63.2534 29.8977 59.8999 16.3597C58.3917 10.1495 56.8658 -5.99676 56.8658 -5.99676L35.8224 -10.3971H57.3094C54.4647 -18.2782 52.7909 -26.5337 52.3413 -34.9004C51.809 -54.0631 50.567 -53.584 47.9765 -57.5585C44.4278 -62.9702 50.3541 -77.9099 49.0943 -88.2187C47.9055 -98.0662 47.9055 -106.405 43.8601 -113.716C40.8615 -119.039 28.4235 -119.944 18.718 -122.8C11.5142 -124.947 6.40418 -124.929 7.46877 -119.252C8.90597 -111.711 17.8308 -106.051 19.0728 -92.9562C19.3567 -90.0108 17.2985 -80.2343 17.1211 -77.2712C16.9436 -74.3081 29.8252 -70.5465 27.3411 -70.1739C22.8699 -69.3754 14.2112 -68.9674 13.4482 -68.0979C10.0238 -64.1767 18.0969 -53.7969 18.0969 -50.3547C18.0969 -46.9126 13.6079 -36.4441 12.9514 -33.8713C9.59796 -19.3929 16.6597 -0.602829 16.6597 -0.602829L11.1771 7.38161Z" fill="#939960"/>
<path d="M102.49 661.514C90.1759 669.268 79.7783 679.257 80.0445 684.758C80.3106 690.258 85.6159 695.279 83.1496 698.952C80.6833 702.625 77.0459 707.203 78.9622 708.409C80.8784 709.616 86.0594 713.307 86.0594 713.307L90.9033 724.325C100.627 720.776 106.092 721.522 106.092 721.522L91.8969 731.866C92.0921 737.455 91.2582 752.146 93.4229 749.84C110.137 738.36 124.598 729.896 122.965 728.211C117.891 724.662 115.62 708.143 115.868 703.37C116.116 698.597 120.286 697.941 119.186 692.228C118.086 686.514 114.253 687.508 112.337 682.433C110.421 677.359 110.35 665.418 109.995 662.526C109.64 659.633 102.49 661.514 102.49 661.514Z" fill="#939960"/>
<path d="M244.863 549.198C238.774 544.258 242.155 538.099 242.483 530.936C242.811 523.773 250.688 509.907 250.245 496.355C250.114 492.502 240.153 495.07 241.597 494.165C245.043 492.024 252.001 486.985 250.393 485.931C248.784 484.877 244.157 476.891 244.157 476.891V465.726C234.623 465.034 230.274 462.432 230.274 462.432L246.142 459.007C248.062 454.182 254.347 442.029 251.607 443.182C233.162 446.624 217.77 448.336 218.508 450.395C221.429 455.335 217.179 470.155 215.112 474.19C213.044 478.224 209.335 477.121 208.121 482.424C206.907 487.726 210.5 488.302 210.221 493.325C209.942 498.347 201.836 516.807 201.048 519.392C200.261 521.978 207.005 523.065 207.005 523.065C210.057 523.723 211.928 523.279 213.405 521.846C213.405 522.653 213.011 526.144 212.666 528.68C211.485 537.276 208.958 538.264 206.907 546.794C206.907 547.815 221.675 553.381 221.675 553.381C221.675 553.381 209.106 552.129 204.691 553.381C200.277 554.632 198.915 567.46 190.431 588.258C189.742 589.625 184.983 570.869 182.948 564.743C181.931 560.989 171.068 574.278 171.068 574.278C171.068 574.278 178.879 558.601 179.273 557.58C179.666 556.559 177.271 539.104 170.543 535.695C170.543 534.674 167.343 526.111 167.654 518.042C167.933 511.159 171.248 505.955 168.097 505C164.635 503.963 150.326 510.961 147.7 516.247C144.287 523.081 142.318 532.731 143.991 539.071L149.078 549.182L146.814 571.709L153.165 581.26C153.165 581.26 148.242 593.067 150.9 599.374C153.558 605.681 163.585 608.908 163.585 608.908C163.585 608.908 161.763 621.193 163.585 625.721C165.406 630.25 166.292 647.129 162.223 659.364C158.153 671.599 164.028 665.72 167.654 675.271C171.281 684.822 170.821 707.531 168.114 715.715C165.406 723.899 169.016 731.622 166.292 744.335C163.568 757.048 156.332 756.158 168.114 779.789C181.685 776.611 186.165 768.888 188.938 749.802C188.938 749.802 191.202 766.615 190.3 774.338C189.397 782.061 176.713 788.434 169.919 791.151C169.919 791.151 164.996 811.603 164.487 821.154C163.979 830.705 171.724 845.23 171.724 853.414C171.724 861.598 181.685 862.043 181.685 875.233C181.619 879.473 180.349 883.607 178.024 887.148C175.699 890.69 172.414 893.491 168.557 895.224C166.752 895.685 160.861 901.136 160.861 901.136C160.861 901.136 164.487 915.215 160.861 919.25C157.234 923.284 151.803 936.063 150.9 950.537C157.878 948.64 165.022 947.421 172.233 946.898C164.851 951.499 157.729 956.507 150.9 961.9C152.262 968.256 154.527 972.801 157.234 988.247C157.234 988.247 174.891 993.188 173.546 983.703C172.2 974.217 170.821 970.973 173.546 967.334C176.27 963.695 172.627 960.517 174.891 953.255C177.156 945.993 189.84 929.163 192.105 915.528C192.105 915.528 194.829 940.97 193.467 953.255C200.999 953.13 208.473 951.904 215.653 949.615C215.653 945.07 222.004 934.153 222.004 927.681C222.004 921.209 215.653 913.717 215.21 905.533C215.21 905.533 223.415 902.799 225.171 895.537C227.275 884.577 227.275 873.315 225.171 862.355C222.791 851.783 229.24 841.228 229.24 837.128C229.24 833.027 223.464 823.163 222.791 819.409C221.273 812.115 220.362 804.706 220.067 797.261C220.067 797.261 222.447 805.774 231.554 824.514C231.554 824.514 237.675 812.592 240.054 809.183C242.434 805.774 238.413 781.567 238.692 774.42C238.003 771.358 215.587 773.729 207.104 768.97C213.208 766.236 219.673 763.849 219.673 763.849C219.673 763.849 223.743 762.202 222.726 743.396C223.398 749.193 230.931 764.54 239.71 768.97C240.054 764.194 244.124 760.094 244.124 760.094C243.68 756.287 242.28 752.655 240.054 749.538C236.658 745.438 242.417 743.396 243.107 740.333C243.796 737.27 242.155 708.93 236.379 700.697C230.602 692.463 225.844 676.836 224.153 676.506C222.463 676.177 215.325 672.077 216.342 664.979C217.36 657.882 223.809 648.611 226.188 642.831C228.568 637.051 234.672 616.582 234.672 608.398C234.672 600.214 233.031 597.826 228.223 595.784C223.415 593.742 228.223 589.987 228.912 585.212C228.912 585.212 238.069 585.904 242.828 585.904L244.469 563.739C244.469 563.739 250.951 554.138 244.863 549.198Z" fill="#939960"/>
<path d="M222.268 36.3621C216.746 31.6678 219.954 26.0071 220.397 19.376C220.841 12.7449 228.328 -0.0249322 228.158 -12.6035C228.105 -16.1843 218.882 -13.9727 220.229 -14.7886C223.426 -16.7167 229.941 -21.2744 228.478 -22.2813C227.015 -23.2882 222.892 -30.7861 222.892 -30.7861L223.088 -41.1547C214.301 -41.964 210.355 -44.456 210.355 -44.456L225.098 -47.4348C226.952 -51.8668 232.957 -63.0584 230.412 -62.0358C213.357 -59.162 199.144 -57.8406 199.788 -55.9161C202.393 -51.2771 198.2 -37.5881 196.239 -33.8772C194.278 -30.1663 190.85 -31.2563 189.638 -26.3532C188.426 -21.4501 191.742 -20.8518 191.397 -16.1923C191.051 -11.5328 183.257 5.43825 182.471 7.80989C181.685 10.1815 187.88 11.324 187.88 11.324C190.68 11.9891 192.412 11.6089 193.798 10.3042C193.784 11.0536 193.374 14.3044 193.012 16.6382C191.772 24.6004 189.411 25.4735 187.386 33.3597C187.368 34.3079 200.878 39.735 200.878 39.735C200.878 39.735 189.318 38.3531 185.229 39.4382C181.14 40.5233 179.659 52.4126 171.46 71.579C170.816 72.8366 166.762 55.3347 164.995 49.6102C164.124 46.1056 153.865 58.2568 153.865 58.2568C153.865 58.2568 161.353 43.8348 161.719 42.8932C162.085 41.9517 160.183 25.8216 153.968 22.537C153.986 21.5888 151.189 13.5806 151.618 6.09247C151.981 -0.295381 155.142 -5.06971 152.256 -6.01178C149.084 -7.03575 135.761 -0.786683 133.249 4.07645C129.999 10.3483 128.074 19.3532 129.505 25.209L134.014 34.6878L131.531 55.569L137.199 64.5496C137.199 64.5496 132.455 75.4438 134.793 81.3322C137.132 87.2206 146.313 90.4085 146.313 90.4085C146.313 90.4085 144.433 101.785 146.016 106.038C147.599 110.29 148.149 125.966 144.169 137.242C140.189 148.518 145.735 143.177 148.908 152.11C152.082 161.044 151.258 182.125 148.604 189.678C145.95 197.231 149.155 204.466 146.437 216.225C143.718 227.984 137.051 227.031 147.475 249.182C160.05 246.468 164.299 239.374 167.205 221.698C167.205 221.698 168.996 237.352 168.028 244.508C167.06 251.665 155.261 257.362 148.953 259.766C148.953 259.766 144.057 278.674 143.405 287.535C142.753 296.396 149.664 310.02 149.519 317.62C149.375 325.221 158.545 325.808 158.313 338.058C158.178 341.995 156.935 345.811 154.73 349.059C152.525 352.307 149.449 354.852 145.865 356.394C144.178 356.79 138.669 361.749 138.669 361.749C138.669 361.749 141.748 374.888 138.35 378.572C134.953 382.255 129.708 394.027 128.606 407.454C135.069 405.813 141.673 404.807 148.326 404.447C141.442 408.589 134.792 413.116 128.406 418.006C129.549 423.933 131.555 428.193 133.793 442.586C133.793 442.586 149.975 447.482 148.887 438.65C147.799 429.817 146.617 426.781 149.175 423.448C151.734 420.116 148.464 417.101 150.678 410.397C152.893 403.692 164.877 388.284 167.204 375.662C167.204 375.662 169.25 399.352 167.794 410.721C174.736 410.737 181.644 409.729 188.3 407.73C188.38 403.509 194.408 393.495 194.523 387.47C194.637 381.445 188.932 374.391 188.653 366.782C188.653 366.782 196.261 364.387 198.022 357.674C200.146 347.532 200.344 337.074 198.607 326.859C196.601 316.999 202.729 307.309 202.801 303.501C202.873 299.693 197.725 290.432 197.171 286.933C195.893 280.134 195.184 273.237 195.051 266.317C195.051 266.317 197.094 274.265 205.155 291.842C205.155 291.842 210.99 280.862 213.242 277.738C215.495 274.614 212.216 252.078 212.6 245.431C212.034 242.574 191.338 244.385 183.605 239.817C189.278 237.385 195.262 235.28 195.262 235.28C195.262 235.28 199.056 233.822 198.45 216.34C198.968 221.735 205.637 236.119 213.648 240.387C214.035 235.957 217.872 232.236 217.872 232.236C217.522 228.687 216.291 225.285 214.293 222.347C211.235 218.495 216.594 216.684 217.283 213.852C217.972 211.019 216.888 184.395 211.726 176.693C206.563 168.992 202.439 154.35 200.873 154.014C199.306 153.679 192.816 149.746 193.879 143.173C194.941 136.599 201.062 128.102 203.341 122.776C205.62 117.449 211.738 98.687 211.883 91.0865C212.027 83.4859 210.557 81.2397 206.163 79.2593C201.769 77.279 206.265 73.8762 206.969 69.4684C206.969 69.4684 215.409 70.2557 219.793 70.3389L221.696 49.7986C221.696 49.7986 227.791 41.0411 222.268 36.3621Z" fill="#939960"/>
<path d="M0.105488 636.821C1.87981 643.794 -0.462294 644.752 -0.462294 650.625C-0.462294 656.498 6.24463 664.217 9.91747 664.962C14.0311 666.07 18.0774 667.415 22.0361 668.99C22.0361 668.99 9.91747 667.215 9.61584 672.662C9.31421 678.11 1.98627 688.826 -1.243 694.345C-4.47226 699.863 -3.88673 712.78 -6.08689 717.109C-8.36786 721.096 -10.948 724.904 -13.8052 728.5L-7.55957 736.946C-7.55957 736.946 2.73148 710.864 7.13179 707.563C11.5321 704.263 11.5498 716.737 11.5498 718.582C11.5498 720.427 32.8417 718.209 32.8417 718.209C32.8417 718.209 13.0048 722.61 11.5498 725.928C10.0949 729.246 10.4498 740.246 9.52712 744.292C8.60448 748.337 24.7685 746.864 24.7685 746.864L36.1419 736.219L29.1688 750.555L39.0873 766.701C39.0873 766.701 31.7416 755.328 24.7685 754.955C17.7955 754.583 10.8046 750.91 9.70455 752.755C8.60448 754.601 7.93024 778.092 12.6499 785.066C17.3696 792.039 17.0502 805.275 15.9502 808.948C14.8501 812.621 27.6962 816.648 27.6962 816.648C27.6962 816.648 17.0502 815.548 16.6776 820.321C16.305 825.094 11.5498 844.558 22.1958 844.558C32.8417 844.558 33.4095 850.006 33.7643 856.979C34.1192 863.952 32.3094 872.398 32.3094 879.743C32.3094 887.089 33.7643 895.162 33.7643 899.261C33.7643 903.359 35.5386 912.355 29.6124 923.622C23.6862 934.889 35.4854 950.539 34.5095 955.862C33.5337 961.185 51.6495 960.759 51.6495 960.759C52.1285 953.892 53.1221 936.273 51.6495 932.37C56.0498 948.534 59.4742 965.177 61.4437 972.522C72.6929 978.395 95.1558 967.2 95.1558 967.2C94.659 955.95 93.6831 945.162 95.1558 936.841C96.6285 928.519 85.3615 899.58 85.3615 899.58C85.3615 899.58 76.4899 900.556 74.0946 895.659C71.6993 890.762 69.1975 869.701 69.1975 869.701C61.3727 871.173 47.6572 869.222 47.6572 869.222C62.8277 864.324 69.6943 866.276 69.6943 862.852C67.2457 852.082 51.0107 836.468 51.5075 823.249C52.0043 810.03 53.4593 810.492 53.9561 802.915C54.4529 795.339 51.9866 773.781 55.9078 771.829C59.8291 769.877 56.8837 752.312 55.4288 748.763C53.9738 745.214 48.1541 742.943 48.1541 742.943L55.0029 734.622C55.0029 734.622 55.0029 716.009 57.4515 706.712C59.9001 697.414 62.3841 671.935 61.5324 665.476C57.9838 660.916 52.1995 659.373 48.846 645.835C47.3201 639.66 45.7942 623.461 45.7942 623.461L24.7508 619.043H46.291C43.4453 611.168 41.7714 602.918 41.3229 594.557C40.7906 575.377 39.5486 575.856 36.9581 571.881C33.4095 566.558 39.3357 551.547 38.0759 541.239C36.8871 531.373 36.8871 523.034 32.8417 515.742C29.8431 510.419 17.3874 509.514 7.69958 506.639C0.495839 504.51 -4.6142 504.528 -3.54961 510.188C-2.11241 517.729 6.81241 523.371 8.05444 536.466C8.33833 539.429 6.28012 549.205 6.10269 552.151C5.92525 555.096 18.8068 558.893 16.3228 559.337C11.8515 560.135 3.1928 560.543 2.42985 561.413C-0.994591 565.334 7.07856 575.714 7.07856 579.156C7.07856 582.598 2.53631 593.084 1.93304 595.657C-1.42043 610.135 5.64136 628.925 5.64136 628.925L0.105488 636.821Z" fill="#939960"/>
<path d="M114.638 596.739C115.205 587.867 120.723 557.189 120.723 557.189C111.32 556.905 109.013 552.771 109.013 552.771L102.2 567.977V545.852C102.2 541.983 105.518 534.23 104.134 533.13C102.75 532.03 98.1186 522.608 98.1186 522.608C98.1186 522.608 106.139 529.528 106.139 526.157C106.139 522.785 102.821 515.919 105.305 509.567C107.789 503.215 105.305 498.779 109.456 496.845C113.608 494.911 119.41 499.861 119.073 493.012C118.736 486.163 112.437 470.62 112.437 467.302C112.437 463.984 106.351 465.084 106.351 465.084C106.351 465.084 111.32 462.033 112.704 458.449C114.087 454.864 106.068 431.053 106.068 424.967C106.068 418.881 104.967 400.641 104.967 400.641H90.3116C90.3116 400.641 101.366 398.973 101.099 394.555C100.833 390.137 104.967 376.564 100.816 376.014C96.6636 375.464 57.1141 371.596 53.5122 371.862C49.9104 372.128 53.2461 399.523 53.5122 408.927C53.7784 418.331 61.266 437.76 61.816 439.357C62.3661 440.954 71.5038 441.309 71.5038 441.309C71.5038 441.309 64.3178 443.243 64.0517 450.18C63.7855 457.118 71.5038 459.318 72.6216 472.856C73.7395 486.394 74.8395 501.068 70.9538 511.039C67.068 521.011 74.8395 540.901 75.3896 544.751C75.9396 548.602 93.1328 544.184 93.1328 544.184C93.1328 544.184 75.3896 552.771 75.3896 556.905C75.3896 561.04 83.9595 569.326 81.1916 577.931C78.4237 586.537 80.9254 601.441 80.9254 601.441C80.9254 601.441 108.552 601.175 114.638 596.739Z" fill="#939960"/>
<path d="M110.239 137.338C107.045 137.143 96.5941 135.759 96.5941 140.479C96.5941 150.38 98.3684 162.179 89 165.976C90.6324 175.504 93.2229 184.074 93.1696 187.268C93.1164 190.461 106.495 186.097 109.28 185.156C105.04 190.479 95.5472 195.252 95.5472 195.252C96.9844 200.149 102.786 206.909 104.774 208.471C106.761 210.032 114.958 201.604 117.194 200.309C119.43 199.014 117.779 191.065 117.939 188.687C118.099 186.31 122.659 174.599 122.659 174.599C122.659 174.599 111.179 142.36 110.239 137.338Z" fill="#939960"/>
<path d="M272.618 599.695C272.618 603.243 275.51 614.564 273.523 620.046C280.336 622.016 286.688 623.329 286.688 623.329C279.68 624.872 272.494 623.772 272.299 624.659C270.897 628.598 271.447 636.512 271.82 639.67C272.139 642.385 270.17 645.401 278.03 643.751C285.89 642.101 306.206 636.21 310.589 634.88C311.902 628.723 304.041 620.188 304.041 620.188C298.47 616.356 298.931 613.215 297.725 609.542C303.527 605.798 301.486 599.18 300.706 593.751C299.823 588.675 298.596 583.666 297.033 578.758C297.033 578.758 285.056 579.539 282.98 588.96C282.501 591.089 272.618 599.695 272.618 599.695Z" fill="#939960"/>
<path d="M299.637 738C311.951 730.247 322.349 720.257 322.082 714.775C321.816 709.292 316.511 704.253 318.977 700.58C321.444 696.907 325.081 692.329 323.165 691.141C321.249 689.952 316.068 686.244 316.068 686.244L311.224 675.225C301.5 678.774 296.035 678.028 296.035 678.028L310.23 667.684C310.035 662.095 310.869 647.386 308.704 649.693C291.99 661.19 277.529 669.636 279.162 671.339C284.236 674.888 286.507 691.389 286.259 696.18C286.011 700.97 281.841 701.609 282.941 707.305C284.041 713 287.874 712.042 289.79 717.099C291.706 722.156 291.813 733.991 292.167 736.883C292.522 739.775 299.637 738 299.637 738Z" fill="#939960"/>
<path d="M348.006 61.4097C347.734 54.2905 345.452 43.2179 344.81 36.7556C344.168 30.2934 350.003 31.9297 348.34 26.7142C346.677 21.4987 340.112 13.3781 339.879 10.1513C345.488 0.478215 351.356 -6.51745 349.591 -11.0984C347.826 -15.6794 334.167 -24.0591 332.056 -33.5246C319.063 -37.3772 312.075 -38.6792 312.075 -38.6792C323.674 -39.3894 331.477 -41.2805 331.538 -42.5388C331.676 -51.8584 327.307 -67.8121 326.762 -69.7573C320.604 -68.7804 316.473 -63.1562 315.12 -61.6593C315.004 -72.3237 317.104 -76.0223 315.41 -80.5998C313.716 -85.1773 283.336 -73.5393 281.267 -52.7142C280.416 -44.0691 276.978 -24.3236 279.805 -22.906C282.631 -21.4883 282.847 -10.3216 283.336 -5.07485C278.222 -9.48253 271.637 -20.0912 271.637 -20.0912C269.521 -9.90929 269.007 7.08392 270.206 9.07906C271.405 11.0742 276.61 16.1437 273.774 21.4583C270.937 26.7728 269.208 30.8805 267.891 32.7344C266.575 34.5884 266.928 40.7878 267.404 42.6764C268.428 46.7947 258.435 52.4156 257.684 59.7511C256.937 66.2873 262.256 66.8679 262.358 73.1083C262.422 77.9612 258.184 81.7859 259.428 85.3998C260.659 88.4495 261.146 91.7482 260.85 95.0234C260.553 98.2986 259.481 101.456 257.723 104.235C254.472 109.538 253.445 115.91 254.864 121.966C256.267 129.567 265.814 142.826 265.814 142.826C265.814 142.826 256.426 147.695 258.519 149.574C260.612 151.453 264.131 162.284 264.131 162.284C264.131 162.284 285.508 158.536 284.21 154.209C282.913 149.882 280.617 139.821 281.492 137.2C282.366 134.578 285.643 131.878 284.676 124.068C284.676 124.068 279.489 121.167 264.069 119.007C264.069 119.007 268.592 116.6 283.39 116.615L284.63 109.428L270.653 101.032C270.653 101.032 271.942 101.184 273.968 101.532C280.691 106.072 289.467 107.871 290.626 102.349C291.763 100.928 292.583 99.2798 293.031 97.5157C293.479 95.7515 293.545 93.9119 293.224 92.1202C292.386 85.7127 292.911 79.2003 294.766 73.0101C295.372 70.7838 292.935 67.591 293.863 65.3271C295.023 63.0088 295.384 60.372 294.889 57.8275L299.994 59.8543C301.78 57.1174 299.329 53.1422 298.878 50.3844C297.644 42.9338 301.554 42.1663 299.75 36.2155C297.946 30.2648 293.478 25.7466 296.074 18.8037C298.671 11.8607 306.704 -1.24632 303.931 -16.8019C307.634 5.86957 303.312 8.87298 305.009 17.0036C306.707 25.1341 310.456 26.9169 312.518 30.8729C312.653 41.1652 312.1 48.83 312.1 48.83C317.54 49.0969 320.192 56.2439 320.42 58.1204C321.304 65.4955 321.344 72.9476 320.538 80.3318C319.805 88.7518 348.297 68.5297 348.006 61.4097Z" fill="#939960"/>
<path d="M37.4119 439.85C36.0102 434.527 36.9506 417.316 36.0102 400.176C35.0698 383.036 27.6177 386.957 27.6177 386.957C27.6177 386.957 27.6177 382.557 24.8143 369.817C22.0108 357.078 16.8831 356.102 13.3699 350.725C9.85676 345.349 11.3117 309.739 8.72119 309.739C9.13 307.198 9.18375 304.612 8.88088 302.056C7.10656 293.61 5.33224 287.737 8.52602 283.709C12.2435 278.766 13.949 272.597 13.2989 266.445C12.8199 258.727 5.36773 244.408 5.36773 244.408C5.36773 244.408 14.8249 240.735 13.086 238.535C11.3472 236.335 9.23574 225.299 9.23574 225.299C9.23574 225.299 -11.4351 226.417 -10.7431 230.817C-10.0511 235.217 -8.96877 245.508 -10.0334 248.081C-11.098 250.654 -14.5934 252.854 -14.5934 260.732C-14.5934 260.732 -10.0334 264.281 4.32088 268.273C4.32088 268.273 -0.23912 270.047 -14.2385 268.273L-16.3499 275.246L-4.08939 285.36C-9.17203 283.993 -14.1009 282.108 -18.7985 279.735C-20.9099 278.99 -26.8539 283.78 -26.499 291.481C-26.1442 299.181 -29.6573 313.145 -37.3756 324.909C-38.7616 327.914 -39.8147 331.061 -40.5162 334.295C-42.947 343.628 -41.9001 358.444 -40.1258 364.459C-38.245 370.829 -25.0618 375.601 -25.0618 375.601C-25.0618 375.601 -33.1173 383.071 -30.7752 386.993C-28.4331 390.914 -25.8248 403.157 -25.8248 403.157C-18.1597 403.157 -10.2285 403.157 -7.42511 406.084C-4.62169 409.012 -5.08301 414.406 -6.52021 418.238C-8.39652 421.836 -10.5313 425.293 -12.9078 428.583C7.70983 427.128 10.9746 428.583 10.9746 428.583C10.9746 428.583 -14.3627 434.402 -12.9078 437.951C-11.4351 444.8 -4.83461 456.599 -4.83461 456.599C-4.83461 456.599 14.3813 465.684 22.206 480.286C26.3579 488.04 37.4119 460.006 37.4119 460.006C37.4119 460.006 38.8136 445.226 37.4119 439.85Z" fill="#939960"/>
<path d="M282.694 386.919C287.409 384.863 293.02 382.111 296.462 381.693C298.7 391.726 311.952 407.662 311.952 410.257C311.952 414.35 306.961 432.307 311.952 433.892C316.943 435.477 321.917 443.959 321.917 447.739C321.917 451.518 330.212 454.705 330.212 454.705C331.933 459.129 311.848 462.909 306.444 466.375C314.869 467.67 323.439 467.67 331.864 466.375C331.864 473.341 334.36 486.84 334.05 490.306C333.74 493.772 325.651 497.551 325.651 500.076C325.651 502.602 329.179 510.527 330.212 511.728C331.245 512.93 338.714 530.626 335.599 535.677C332.484 540.728 332.002 565.146 329.592 567.027C326.925 569.117 313.088 558.319 307.769 556.211C302.451 554.104 305.911 541.181 305.67 537.418C305.429 533.656 301.075 534.667 294.104 529.511C289.939 526.411 301.729 518.626 303.278 517.685C295.068 519.636 289.509 520.507 289.509 514.864C289.509 509.22 290.37 508.942 291.058 502.254C291.746 495.566 291.523 495.966 289.199 491.002C286.876 486.038 287.117 485.324 289.199 481.336C291.282 477.347 290.92 463.483 283.709 453.608C276.498 443.733 274.57 441.921 273.383 439.274C271.748 435.599 272.35 432.307 275.655 426.716C278.959 421.125 263.332 404.649 259.786 395.453C257.463 389.392 256.93 374.553 261.301 366.906C268.03 355.15 280.99 342.349 285.396 336.113C286.79 344.822 290.852 367.795 293.295 372.306C294.603 374.674 291.54 377.897 282.694 386.919Z" fill="#939960"/>
<path d="M1174.43 -18.1544C1179.31 -20.2481 1185.07 -23.0515 1188.62 -23.4774C1190.93 -13.2573 1204.59 2.97771 1204.59 5.62144C1204.59 9.79109 1199.46 28.0843 1204.59 29.699C1209.72 31.3136 1214.87 39.9546 1214.87 43.8048C1214.87 47.6551 1223.42 50.9021 1223.42 50.9021C1225.19 55.4089 1204.49 59.2591 1198.93 62.79C1207.62 64.109 1216.45 64.109 1225.14 62.79C1225.14 69.8873 1227.69 83.6383 1227.37 87.1692C1227.06 90.7001 1218.72 94.5503 1218.72 97.1231C1218.72 99.6959 1222.26 107.769 1223.42 108.993C1224.57 110.218 1232.2 128.245 1228.99 133.39C1225.78 138.536 1225.26 163.412 1222.78 165.328C1220.03 167.457 1205.76 156.456 1200.28 154.309C1194.8 152.163 1198.36 138.997 1198.13 135.165C1197.9 131.332 1193.38 132.343 1186.19 127.02C1181.9 123.862 1194.05 115.931 1195.65 114.973C1187.2 116.96 1181.46 117.847 1181.46 112.098C1181.46 106.35 1182.34 106.066 1183.05 99.2523C1183.76 92.4389 1183.53 92.847 1181.14 87.7902C1178.74 82.7334 1178.99 82.0059 1181.14 77.9427C1183.28 73.8795 1182.91 59.756 1175.48 49.6956C1168.04 39.6352 1166.07 37.7899 1164.83 35.0929C1163.16 31.3491 1163.77 27.9957 1167.17 22.3001C1170.58 16.6045 1154.47 -0.180556 1150.83 -9.54896C1148.42 -15.7236 1147.89 -30.8408 1152.37 -38.6301C1159.33 -50.6067 1172.67 -63.6479 1177.21 -70C1178.63 -61.1284 1182.84 -37.7251 1185.34 -33.1297C1186.72 -30.6279 1183.6 -27.3454 1174.43 -18.1544Z" fill="#939960"/>
<path d="M1088.64 238.125C1084.43 243.152 1081.09 263.565 1078.79 268.903C1076.49 274.24 1095.18 268.734 1095.18 268.734C1094.6 274.193 1093.71 279.615 1092.53 284.977L1119.72 289.421L1088.79 292.998C1088.19 296.714 1079.5 311.505 1079.67 316.764C1079.84 322.023 1085.11 324.8 1083.72 327.438C1082.33 330.077 1076.11 338.572 1077.44 339.274C1078.78 339.975 1085.11 365.784 1085.11 365.784C1085.11 365.784 1079.73 357.756 1075.12 359.385C1070.5 361.014 1063.93 386.612 1062.34 396.364C1060.74 406.116 1070.65 419.13 1069.78 424.477C1068.91 429.824 1094.33 421.585 1094.33 421.585C1094.33 421.585 1076.64 429.172 1073.97 433.967C1071.3 438.761 1078.66 443.797 1078.66 443.797C1078.66 443.797 1069.18 439.866 1067.52 450.072C1065.85 460.278 1065.9 468.798 1062.94 472.198C1059.98 475.598 1071.91 485.093 1077.54 486.013C1082.88 491.651 1078.54 511.9 1078.54 511.9C1085.35 514.445 1120.54 508.285 1121.37 503.19C1121.79 499.74 1121.37 496.238 1120.14 492.977L1102.39 486.743C1115.9 486.569 1124.02 486.947 1124.02 486.947C1125.26 467.608 1123.11 445.365 1125.98 439.62C1128.86 433.875 1132.61 416.69 1130.97 411.985C1129.33 407.28 1121.87 399.984 1121.87 399.984L1131.72 398.625C1129.58 379.699 1132.72 377.829 1134.54 366.698C1136.35 355.567 1143.03 332.35 1139.45 318.904C1135.87 305.458 1138.65 297.332 1135.05 295.743C1136.25 285.458 1142.32 280.737 1139.93 271.767C1137.54 262.796 1136.28 258.791 1137.03 257.482C1144.41 250.59 1152.08 236.117 1148.01 237.369C1130.31 239.655 1103.48 235.804 1100.05 233.327C1096.61 230.849 1088.64 238.125 1088.64 238.125Z" fill="#939960"/>
<path d="M980.34 -104.706C975.111 -107.578 976.822 -112.624 976.107 -118.022C975.392 -123.419 979.438 -134.843 977.286 -144.911C976.668 -147.786 969.545 -144.512 970.507 -145.383C972.802 -147.46 977.343 -152.163 975.998 -152.721C974.653 -153.28 970.108 -158.638 970.108 -158.638L968.609 -166.982C961.356 -166.2 957.756 -167.573 957.756 -167.573L969.231 -172.29C970.026 -176.142 973.108 -186.071 971.205 -184.852C957.835 -179.796 946.521 -176.443 947.351 -175.004C950.204 -171.705 948.994 -160.054 947.999 -156.751C947.005 -153.447 944.061 -153.782 943.849 -149.654C943.638 -145.525 946.433 -145.595 946.898 -141.804C947.363 -138.013 943.727 -123.246 943.504 -121.16C943.282 -119.075 948.464 -119.218 948.464 -119.218C950.83 -119.135 952.185 -119.722 953.098 -121.003C953.207 -120.4 953.382 -117.726 953.464 -115.784C953.732 -109.201 951.957 -108.12 951.576 -101.471C951.713 -100.708 963.536 -98.5376 963.536 -98.5376C963.536 -98.5376 953.941 -97.7798 950.798 -96.25C947.656 -94.7201 948.358 -84.9373 944.773 -68.2612C944.452 -67.1491 938.367 -80.5133 936.017 -84.8296C934.75 -87.4985 928.389 -76.0914 928.389 -76.0914C928.389 -76.0914 932.143 -88.8596 932.299 -89.688C932.455 -90.5163 928.304 -103.161 922.751 -104.793C922.612 -105.568 919.001 -111.526 918.214 -117.609C917.487 -122.789 919.286 -127.126 916.798 -127.404C914.059 -127.725 904.257 -120.553 902.995 -116.261C901.367 -110.684 901.244 -103.166 903.339 -98.715L908.511 -91.8438L909.839 -74.6908L915.881 -68.4206C915.881 -68.4206 913.776 -58.9212 916.614 -54.5781C919.452 -50.2349 927.397 -49.1465 927.397 -49.1465C927.397 -49.1465 927.69 -39.7348 929.654 -36.5813C931.618 -33.4277 934.57 -20.9493 933.158 -11.2695C931.746 -1.58975 935.367 -6.74996 939.367 -0.112805C943.366 6.52435 946.074 23.5819 945.128 30.053C944.181 36.5241 947.952 41.8176 947.615 51.6853C947.279 61.5531 941.734 61.8756 953.73 77.951C963.494 73.7457 965.802 67.3603 965.332 52.721C965.332 52.721 969.288 64.9812 969.65 70.8869C970.011 76.7927 961.349 83.2394 956.621 86.1974C956.621 86.1974 955.674 102.145 956.573 109.34C957.471 116.534 965.274 126.451 966.372 132.568C967.471 138.684 975.001 137.675 976.769 147.52C977.294 150.718 976.891 153.998 975.608 156.973C974.325 159.948 972.217 162.493 969.532 164.306C968.238 164.882 964.551 169.749 964.551 169.749C964.551 169.749 969.163 179.795 966.982 183.286C964.802 186.777 962.446 197.071 963.712 208.011C968.688 205.646 973.882 203.773 979.222 202.417C974.302 206.845 969.633 211.544 965.235 216.49C967.099 221.072 969.407 224.163 973.521 235.328C973.521 235.328 987.427 236.641 985.144 229.734C982.862 222.827 981.393 220.588 982.95 217.513C984.506 214.439 981.345 212.542 982.067 206.798C982.788 201.053 990.045 186.779 989.915 176.296C989.915 176.296 995.373 194.943 995.998 204.295C1001.63 203.187 1007.07 201.264 1012.15 198.587C1011.54 195.191 1014.84 186.188 1013.97 181.352C1013.1 176.515 1007.33 171.759 1005.9 165.702C1005.9 165.702 1011.69 162.566 1012.03 156.89C1012.14 148.42 1010.62 140.007 1007.58 132.104C1004.37 124.524 1007.79 115.754 1007.24 112.702C1006.69 109.65 1001.03 103.031 1000.03 100.328C997.902 95.0796 996.224 89.6611 995.009 84.1303C995.009 84.1303 997.939 90.1848 1007.28 102.963C1007.28 102.963 1010.27 93.2286 1011.59 90.3628C1012.9 87.497 1006.65 69.9454 1005.91 64.5521C1004.98 62.3559 988.493 67.1596 981.489 64.7334C985.703 61.8806 990.231 59.2252 990.231 59.2252C990.231 59.2252 993.062 57.4464 989.775 43.529C991.058 47.7704 998.764 58.2135 1005.94 60.3415C1005.55 56.7284 1008.06 53.1259 1008.06 53.1259C1007.21 50.338 1005.67 47.81 1003.58 45.7753C1000.49 43.1808 1004.54 40.8767 1004.65 38.4948C1004.75 36.1129 999.631 14.9413 994.201 9.60283C988.77 4.26438 983.097 -6.8107 981.783 -6.84148C980.469 -6.87227 974.555 -8.96066 974.378 -14.4041C974.201 -19.8476 977.783 -27.6305 978.789 -32.283C979.796 -36.9354 981.628 -53.0427 980.532 -59.1469C979.436 -65.251 977.882 -66.8268 974.002 -67.7052C970.123 -68.5836 973.224 -72.0372 973.088 -75.6968C973.088 -75.6968 980.058 -76.4278 983.627 -77.0688L981.885 -93.8424C981.885 -93.8424 985.567 -101.847 980.34 -104.706Z" fill="#939960"/>
<path d="M1219.72 688.219C1221.3 694.412 1219.23 695.263 1219.23 700.479C1219.23 705.695 1225.22 712.55 1228.5 713.212C1232.17 714.2 1235.79 715.4 1239.32 716.805C1239.32 716.805 1228.5 715.229 1228.23 720.067C1227.96 724.905 1221.48 734.408 1218.53 739.309C1215.58 744.209 1216.23 755.619 1214.26 759.527C1212.22 763.064 1209.92 766.446 1207.37 769.644L1212.95 777.145C1212.95 777.145 1222.13 753.98 1226.07 751.049C1230.02 748.118 1230 759.196 1230 760.835C1230 762.474 1249.02 760.504 1249.02 760.504C1249.02 760.504 1231.3 764.428 1230 767.359C1228.7 770.29 1229.02 780.076 1228.2 783.669C1227.37 787.262 1241.81 785.954 1241.81 785.954L1251.99 776.499L1245.76 789.232L1254.62 803.572C1254.62 803.572 1248.06 793.471 1241.81 793.14C1235.57 792.809 1229.35 789.547 1228.37 791.186C1227.39 792.825 1226.79 813.689 1230.99 819.882C1235.19 826.075 1234.93 837.831 1233.95 841.093C1232.97 844.355 1244.44 847.932 1244.44 847.932C1244.44 847.932 1234.93 846.955 1234.6 851.194C1234.27 855.433 1230 872.72 1239.51 872.72C1249.02 872.72 1249.53 877.574 1249.87 883.751C1250.2 889.929 1248.55 897.446 1248.55 903.97C1248.55 910.494 1249.87 917.664 1249.87 921.304C1249.87 924.944 1251.45 932.934 1246.14 942.941C1240.83 952.947 1251.39 966.862 1250.51 971.653C1249.64 976.443 1265.83 976.002 1265.83 976.002C1266.27 969.903 1267.14 954.255 1265.83 950.788C1269.77 965.144 1272.83 979.926 1274.58 986.45C1284.64 991.666 1304.69 981.722 1304.69 981.722C1304.27 971.731 1303.39 962.15 1304.69 954.76C1305.99 947.369 1295.94 921.667 1295.94 921.667C1295.94 921.667 1288.02 922.533 1285.89 918.184C1283.77 913.835 1281.52 895.129 1281.52 895.129C1274.51 896.437 1262.26 894.704 1262.26 894.704C1275.83 890.354 1281.95 892.088 1281.95 889.046C1279.76 879.481 1265.27 865.613 1265.7 853.873C1266.13 842.133 1267.46 842.543 1267.89 835.814C1268.32 829.085 1266.14 809.954 1269.65 808.205C1273.15 806.456 1270.52 790.871 1269.2 787.719C1267.89 784.567 1262.64 782.503 1262.64 782.503L1268.76 775.112C1268.76 775.112 1268.76 758.581 1270.95 750.324C1273.13 742.066 1275.35 719.437 1274.61 713.701C1271.44 709.651 1266.27 708.28 1263.27 696.256C1261.91 690.772 1260.55 676.385 1260.55 676.385L1241.73 672.461H1260.98C1258.44 665.462 1256.95 658.129 1256.55 650.698C1256.08 633.663 1254.97 634.089 1252.64 630.559C1249.47 625.752 1254.78 612.499 1253.65 603.344C1252.58 594.582 1252.59 587.175 1248.9 580.699C1246.22 575.971 1235.11 575.167 1226.45 572.614C1220 570.723 1215.36 570.739 1216.39 575.766C1217.67 582.464 1225.65 587.475 1226.77 599.105C1227.02 601.736 1225.19 610.419 1225.03 613.035C1224.87 615.651 1236.36 619.023 1234.14 619.417C1230.15 620.127 1222.43 620.489 1221.75 621.261C1218.69 624.744 1225.88 633.963 1225.88 637.02C1225.88 640.077 1221.83 649.39 1221.3 651.675C1218.31 664.534 1224.61 681.238 1224.61 681.238L1219.72 688.219Z" fill="#939960"/>
<path d="M1141.4 42.7776C1142.5 48.5461 1150.32 71.7811 1155.27 80.119C1144.71 85.5174 1134.67 89.6778 1134.67 89.6778C1146.69 89.9987 1158.29 85.9003 1158.73 87.3168C1162.29 93.374 1166.12 107.075 1169.43 111.192C1172.75 115.309 1172.75 119.085 1159.26 118.828C1145.77 118.571 1131.22 114.634 1123.59 113.853C1120.82 106.636 1118.82 99.1472 1117.62 91.5101C1112.59 87.6118 1111.75 71.6948 1112.58 65.1772C1101.86 60.8688 1099.98 53.0093 1098.25 43.9819L1095 26.9727C1095 26.9727 1105.08 26.8526 1108.76 26.5811C1112.45 26.3096 1141.4 42.7776 1141.4 42.7776Z" fill="#939960"/>
<path d="M1229.7 494.748C1228.36 489.588 1229.24 472.904 1228.36 456.305C1227.48 439.707 1220.33 443.474 1220.33 443.474C1220.33 443.474 1220.33 439.208 1217.65 426.858C1214.97 414.508 1210.07 413.579 1206.72 408.35C1203.36 403.121 1204.75 368.617 1202.27 368.617C1202.67 366.16 1202.72 363.659 1202.43 361.187C1200.73 352.999 1199.04 347.306 1202.09 343.384C1205.64 338.592 1207.27 332.611 1206.65 326.648C1206.19 319.183 1199.09 305.285 1199.09 305.285C1199.09 305.285 1208.12 301.725 1206.44 299.592C1204.77 297.459 1202.77 286.777 1202.77 286.777C1202.77 286.777 1183.02 287.844 1183.68 292.109C1184.34 296.375 1185.37 306.351 1184.36 308.846C1183.34 311.34 1180 313.472 1180 321.127C1180 321.127 1184.36 324.567 1198.07 328.437C1198.07 328.437 1193.73 330.157 1180.34 328.437L1178.32 335.197L1190.04 344.932C1185.18 343.597 1180.47 341.764 1175.98 339.462C1173.98 338.757 1168.29 343.384 1168.63 350.866C1168.97 358.349 1165.61 371.868 1158.25 383.255C1156.93 386.174 1155.91 389.231 1155.24 392.371C1152.91 401.418 1153.91 415.781 1155.61 421.612C1157.41 427.787 1170 432.414 1170 432.414C1170 432.414 1162.3 439.655 1164.54 443.439C1166.78 447.223 1169.29 459.109 1169.29 459.109C1176.59 459.109 1184.17 459.109 1186.85 461.964C1189.53 464.819 1189.09 470.031 1187.71 473.729C1185.92 477.221 1183.89 480.578 1181.63 483.774C1201.31 482.347 1204.43 483.774 1204.43 483.774C1204.43 483.774 1180.22 489.468 1181.63 492.787C1183.02 499.444 1189.32 510.865 1189.32 510.865C1189.32 510.865 1207.68 519.689 1215.16 533.845C1219.14 541.344 1229.7 514.168 1229.7 514.168C1229.7 514.168 1231.04 499.908 1229.7 494.748Z" fill="#939960"/>
<path d="M1041.99 528.882C1046.75 527.27 1052.39 525.072 1055.77 524.92C1057.17 534.778 1068.81 551.149 1068.61 553.667C1068.29 557.61 1062.07 574.525 1066.78 576.423C1071.49 578.321 1075.68 586.916 1075.38 590.625C1075.08 594.334 1082.9 597.984 1082.9 597.984C1084.23 602.364 1064.43 604.441 1058.93 607.36C1067.01 609.274 1075.34 609.942 1083.62 609.342C1083.08 616.054 1084.46 629.272 1083.88 632.586C1083.29 635.9 1075.16 638.912 1074.96 641.329C1074.77 643.746 1077.58 651.673 1078.49 652.928C1079.4 654.184 1085.31 671.801 1081.89 676.408C1078.48 681.015 1076.1 704.521 1073.63 706.147C1070.88 707.97 1058.26 696.468 1053.25 694.04C1048.25 691.612 1052.61 679.396 1052.69 675.753C1052.76 672.111 1048.42 672.759 1042.06 667.233C1038.24 663.92 1050.31 657.339 1051.89 656.553C1043.76 657.793 1038.19 658.191 1038.63 652.753C1039.07 647.316 1039.92 647.131 1041.13 640.725C1042.33 634.319 1042.05 634.702 1040.19 629.739C1038.34 624.777 1038.59 624.121 1040.94 620.425C1043.29 616.729 1043.99 603.358 1037.73 593.279C1031.48 583.201 1029.78 581.308 1028.81 578.663C1027.52 574.996 1028.35 571.87 1031.99 566.74C1035.63 561.611 1021.72 544.517 1019.02 535.297C1017.21 529.275 1017.86 514.936 1022.69 507.91C1030.14 497.107 1043.7 485.781 1048.48 480.134C1049.16 488.634 1051.33 511.086 1053.34 515.605C1054.49 518.028 1051.34 520.815 1041.99 528.882Z" fill="#939960"/>
<path d="M1201.28 632.092C1200.23 625.044 1196.79 614.244 1195.45 607.888C1194.12 601.532 1200.1 602.533 1197.89 597.526C1195.67 592.519 1188.27 585.15 1187.7 581.967C1192.23 571.748 1197.32 564.18 1195.07 559.797C1192.82 555.415 1178.41 548.563 1175.23 539.419C1161.9 537.001 1154.81 536.439 1154.81 536.439C1166.27 534.488 1173.82 531.77 1173.75 530.512C1172.88 521.232 1166.83 505.839 1166.08 503.964C1160.06 505.596 1156.56 511.631 1155.37 513.265C1154.11 502.674 1155.8 498.772 1153.63 494.402C1151.45 490.033 1122.48 504.866 1122.67 525.792C1122.76 534.479 1121.46 554.479 1124.42 555.585C1127.38 556.691 1128.8 567.77 1129.85 572.934C1124.29 569.101 1116.6 559.26 1116.6 559.26C1115.59 569.611 1116.91 586.561 1118.31 588.416C1119.72 590.271 1125.44 594.752 1123.19 600.34C1120.94 605.929 1119.66 610.198 1118.55 612.183C1117.44 614.168 1118.46 620.293 1119.13 622.12C1120.59 626.104 1111.26 632.783 1111.3 640.139C1111.26 646.718 1116.61 646.724 1117.38 652.917C1117.98 657.734 1114.18 661.992 1115.81 665.451C1117.36 668.341 1118.21 671.559 1118.28 674.839C1118.34 678.119 1117.63 681.369 1116.2 684.322C1113.54 689.943 1113.2 696.388 1115.26 702.257C1117.47 709.663 1128.39 721.821 1128.39 721.821C1128.39 721.821 1119.58 727.669 1121.86 729.313C1124.14 730.956 1128.8 741.347 1128.8 741.347C1128.8 741.347 1149.66 735.326 1147.94 731.197C1146.22 727.067 1142.79 717.28 1143.28 714.567C1143.78 711.854 1146.84 708.813 1145.04 701.151C1145.04 701.151 1139.57 698.824 1124.01 698.332C1124.01 698.332 1128.25 695.453 1142.96 693.879L1143.51 686.595L1128.71 679.749C1128.71 679.749 1130.01 679.762 1132.06 679.89C1139.23 683.682 1148.15 684.528 1148.71 678.914C1149.69 677.379 1150.33 675.652 1150.58 673.85C1150.84 672.048 1150.71 670.212 1150.2 668.465C1148.67 662.174 1148.49 655.63 1149.68 649.265C1150.04 646.986 1147.28 644.162 1147.95 641.723C1148.86 639.294 1148.93 636.633 1148.17 634.157L1153.46 635.624C1154.94 632.711 1152.08 629.04 1151.34 626.328C1149.31 619.053 1153.12 617.87 1150.68 612.148C1148.25 606.425 1143.32 602.395 1145.16 595.213C1146.99 588.032 1153.57 574.156 1149.15 558.97C1155.26 581.113 1151.29 584.563 1153.85 592.465C1156.41 600.366 1160.33 601.718 1162.8 605.43C1164.04 615.648 1164.31 623.328 1164.31 623.328C1169.75 623.009 1173.15 629.831 1173.58 631.672C1175.25 638.909 1176.09 646.314 1176.08 653.742C1176.18 662.268 1202.42 639.099 1201.28 632.092Z" fill="#939960"/>
<path d="M1257.44 321.757C1262.3 319.663 1268.08 316.878 1271.63 316.434C1273.94 326.672 1287.6 342.889 1287.6 345.551C1287.6 349.72 1282.47 368.013 1287.6 369.61C1292.73 371.207 1297.87 379.884 1297.87 383.805C1297.87 387.726 1306.42 390.902 1306.42 390.902C1308.2 395.391 1287.49 399.241 1281.92 402.772C1290.61 404.102 1299.45 404.102 1308.15 402.772C1308.15 409.87 1310.7 423.638 1310.38 427.169C1310.06 430.7 1301.72 434.55 1301.72 437.105C1301.72 439.66 1305.36 447.751 1306.42 448.993C1307.49 450.235 1315.19 468.245 1312 473.372C1308.8 478.5 1308.27 503.394 1305.79 505.31C1303.04 507.457 1288.77 496.439 1283.29 494.309C1277.8 492.18 1281.37 478.979 1281.14 475.147C1280.91 471.314 1276.38 472.361 1269.2 467.091C1264.9 463.933 1277.06 456.002 1278.66 455.044C1270.21 457.031 1264.46 457.918 1264.46 452.169C1264.46 446.421 1265.35 446.154 1266.06 439.323C1266.77 432.492 1266.54 432.918 1264.14 427.861C1261.75 422.804 1262 422.095 1264.14 418.014C1266.29 413.933 1265.92 399.827 1258.48 389.767C1251.05 379.706 1249.08 377.861 1247.84 375.164C1246.15 371.42 1246.77 368.067 1250.18 362.371C1253.58 356.676 1237.47 339.89 1233.84 330.433C1231.42 324.259 1230.87 309.141 1235.38 301.352C1242.34 289.376 1255.68 276.334 1260.22 270C1261.66 278.872 1265.85 302.275 1268.36 306.853C1269.73 309.301 1266.61 312.495 1257.44 321.757Z" fill="#939960"/>
<path d="M1322.68 739.134C1323.29 729.979 1329.42 698.32 1329.42 698.32C1318.98 698.027 1316.42 693.743 1316.42 693.743L1308.85 709.453V686.602C1308.85 682.61 1312.53 674.627 1311 673.473C1309.46 672.32 1304.24 662.634 1304.24 662.634C1304.24 662.634 1313.14 669.775 1313.14 666.296C1313.14 662.817 1309.46 655.731 1312.24 649.157C1315.02 642.584 1312.24 638.025 1316.83 636.029C1321.42 634.033 1327.91 639.178 1327.59 632.037C1327.28 624.896 1320.22 608.912 1320.22 605.488C1320.22 602.064 1313.46 603.199 1313.46 603.199C1313.46 603.199 1318.98 600.068 1320.52 596.351C1322.05 592.634 1313.14 568.098 1313.14 561.818C1313.14 555.537 1311.92 536.696 1311.92 536.696H1295.72C1295.72 536.696 1308 534.993 1307.7 530.416C1307.41 525.838 1312 511.867 1307.39 511.3C1302.78 510.732 1258.85 506.722 1254.85 507.015C1250.84 507.308 1254.55 535.561 1254.85 545.265C1255.14 554.97 1263.46 574.946 1264.07 576.667C1264.68 578.389 1274.83 578.663 1274.83 578.663C1274.83 578.663 1266.83 580.659 1266.53 587.818C1266.24 594.978 1274.83 597.23 1276.05 611.219C1277.27 625.208 1278.52 640.332 1274.2 650.604C1269.88 660.876 1278.52 681.438 1279.13 685.393C1279.74 689.348 1298.84 684.826 1298.84 684.826C1298.84 684.826 1279.13 693.67 1279.13 697.954C1279.13 702.239 1288.65 710.771 1285.57 719.652C1282.5 728.532 1285.28 743.913 1285.28 743.913C1285.28 743.913 1315.92 743.675 1322.68 739.134Z" fill="#939960"/>
<path d="M1052.24 166.352C1049.04 166.139 1038.59 164.755 1038.59 169.475C1038.59 179.393 1040.37 191.175 1031 194.972C1032.63 204.518 1035.22 213.07 1035.17 216.264C1035.12 219.457 1048.49 215.11 1051.28 214.17C1047.04 219.493 1037.55 224.266 1037.55 224.266C1038.98 229.145 1044.8 235.905 1046.77 237.485C1048.74 239.064 1056.98 230.618 1059.19 229.305C1061.41 227.992 1059.8 220.079 1059.94 217.683C1060.08 215.288 1064.84 203.595 1064.84 203.595C1064.84 203.595 1053.23 171.373 1052.24 166.352Z" fill="#939960"/>
<path d="M1328.96 97.1272C1328.32 90.0299 1325.52 79.0646 1324.56 72.6416C1323.6 66.2185 1329.51 67.567 1327.59 62.4215C1325.68 57.276 1318.72 49.5222 1318.33 46.3107C1323.46 36.3567 1328.98 29.0998 1326.99 24.6107C1325 20.1217 1311.02 12.4212 1308.38 3.10599C1295.21 -0.105525 1288.17 -1.06361 1288.17 -1.06361C1299.72 -2.34112 1307.42 -4.61229 1307.42 -5.87206C1307.1 -15.1872 1301.96 -30.9077 1301.32 -32.8417C1295.21 -31.5464 1291.36 -25.7444 1290.09 -24.1653C1289.45 -34.8112 1291.36 -38.6082 1289.45 -43.115C1287.53 -47.6218 1257.76 -34.4918 1256.71 -13.5904C1256.28 -4.89619 1253.82 14.9762 1256.71 16.2715C1259.6 17.5667 1260.37 28.6917 1261.11 33.9082C1255.79 29.7386 1248.69 19.4652 1248.69 19.4652C1247.08 29.7385 1247.4 46.7543 1248.69 48.6705C1249.99 50.5868 1255.43 55.4129 1252.86 60.8778C1250.29 66.3427 1248.76 70.4947 1247.54 72.4287C1246.31 74.3627 1246.97 80.5196 1247.54 82.3826C1248.76 86.4458 1239.06 92.5494 1238.67 99.9128C1238.24 106.46 1243.58 106.797 1243.99 113.025C1244.29 117.869 1240.24 121.897 1241.66 125.445C1243.04 128.42 1243.68 131.677 1243.55 134.95C1243.42 138.223 1242.51 141.417 1240.9 144.271C1237.91 149.734 1237.2 156.153 1238.91 162.138C1240.69 169.644 1250.87 182.436 1250.87 182.436C1250.87 182.436 1241.74 187.759 1243.92 189.534C1246.1 191.308 1250.15 201.865 1250.15 201.865C1250.15 201.865 1271.31 197.075 1269.84 192.869C1268.37 188.664 1265.51 178.675 1266.17 175.978C1266.82 173.281 1270.05 170.46 1268.7 162.688C1268.7 162.688 1263.38 160.062 1247.87 158.643C1247.87 158.643 1252.27 156.035 1267.05 155.325L1268.03 148.068L1253.66 140.385C1253.66 140.385 1254.95 140.385 1256.99 140.704C1263.93 144.927 1272.79 146.276 1273.67 140.704C1274.74 139.225 1275.48 137.536 1275.84 135.749C1276.2 133.962 1276.17 132.119 1275.77 130.342C1274.61 123.978 1274.82 117.441 1276.37 111.162C1276.87 108.909 1274.28 105.839 1275.09 103.532C1276.14 101.154 1276.37 98.497 1275.75 95.9739L1280.95 97.7482C1282.6 94.9448 1279.95 91.0945 1279.37 88.3621C1277.77 80.9809 1281.64 80.0228 1279.55 74.1675C1277.45 68.3123 1272.77 64.0184 1275.02 56.9566C1277.27 49.8948 1284.66 36.41 1281.12 21.0089C1285.93 43.4717 1281.76 46.6833 1283.86 54.7209C1285.95 62.7586 1289.78 64.3555 1292.04 68.2058C1292.68 78.4791 1292.5 86.1619 1292.5 86.1619C1297.95 86.1619 1300.94 93.1704 1301.26 95.0335C1302.51 102.357 1302.91 109.798 1302.47 117.212C1302.13 125.8 1329.6 104.189 1328.96 97.1272Z" fill="#939960"/>
</g>
<defs>
<clipPath id="clip0_416_1037">
<rect width="1280" height="720" fill="white"/>
</clipPath>
</defs>
</svg>
