<svg width="1280" height="720" viewBox="0 0 1280 720" fill="none" xmlns="http://www.w3.org/2000/svg">
<g clip-path="url(#clip0_416_870)">
<rect width="1280" height="720" fill="#FFFBF3"/>
<rect width="1280" height="720" fill="#023A2F"/>
<path d="M-44.2866 227.22C-47.6623 232.003 -46.6496 242.859 -44.2866 247.824C-41.9235 252.789 -38.8854 262.726 -39.8982 264.748C-40.9109 266.771 -45.1333 277.073 -45.1333 277.073C-37.0315 275.599 -29.6049 284.981 -28.5922 288.106C-27.5795 291.232 -17.2808 300.248 -13.396 303.191C-9.5111 306.133 -4.61904 293.443 -0.739727 289.398C3.13959 285.352 14.7941 278.176 14.9601 275.05C15.1262 271.925 1.96085 271.553 2.29842 267.874C2.63599 264.194 11.4184 261.069 10.5717 256.286C9.72501 251.504 -1.04963 246.167 -1.04963 242.304C-1.04963 238.442 -14.7185 238.259 -20.2913 233.111C-25.864 227.963 -30.9497 222.604 -44.2866 227.22Z" fill="#E5B76E"/>
<path d="M55.2913 332.65C57.04 340.707 55.6454 345.041 61.5723 348.449C67.4992 351.857 75.6784 363.079 75.8057 367.606C75.933 372.134 75.8057 384.542 77.8754 386.869C79.9451 389.197 87.2832 395.664 90.2937 395.581C93.3042 395.498 95.3075 384.702 98.2848 382.469C101.262 380.236 95.1138 377.792 94.7541 374.223C94.3944 370.654 102.159 367.091 103.608 364.664C105.058 362.236 102.347 337.986 102.734 333.919C103.121 329.851 105.805 325.961 106.447 321.882C107.089 317.803 100.958 307.014 98.0468 302.802C95.1359 298.59 97.3052 294.49 97.4491 290.655C97.593 286.82 81.9097 279.167 78.4897 274.734C75.0697 270.3 75.5235 268.638 77.6983 264.759C79.8732 260.879 77.477 257.106 75.9053 255.255C74.3337 253.404 79.1261 243.728 80.8582 242.248C75.7725 232.827 74.2175 221.744 74.0625 217.311C73.9076 212.878 64.6548 212.196 60.5375 210.511C56.4202 208.827 55.9775 204.354 54.8873 201.523C53.7971 198.691 47.5382 195.105 44.6162 210.511C42.6129 221.079 33.183 228.577 31.6169 231.231C28.4736 236.568 32.8012 240.287 34.4448 244.531C36.0883 248.776 29.7852 260.253 29.7852 260.253C36.354 263.894 40.0286 267.147 38.8222 269.297C36.8908 272.733 30.1836 277.344 34.1459 282.957C38.1083 288.571 50.3107 286.787 51.2349 292.484C52.159 298.18 43.205 304.841 44.1348 310.161C45.0645 315.481 52.7069 321.987 55.2913 332.65Z" fill="#E5B76E"/>
<path d="M81.012 172.584C79.1249 177.666 66.834 186.294 66.834 186.294C70.8849 195.35 76.286 198.658 81.9141 198.486C87.5421 198.314 94.0888 200.099 95.1956 205.059C96.3024 210.018 92.9433 222.864 95.1956 227.148C97.4479 231.431 101.72 236.386 101.72 239.339C101.72 242.293 97.6693 254.213 99.2465 263.002C103.503 265.276 106.875 268.913 108.826 273.332C111.589 265.206 113.884 256.928 115.699 248.538C116.596 244.26 121.322 241.556 123.574 238.852C125.826 236.147 124.476 228.932 124.681 222.509C124.885 216.086 139.539 212.479 140.215 207.07C140.89 201.661 143.812 181.152 147.862 176.192C151.913 171.232 147.187 161.545 145.389 156.796C143.59 152.047 149.462 141.473 149.462 141.473C146.512 136.065 143.136 129.526 143.136 129.526C142.03 133.133 137.514 139.445 136.164 140.57C134.813 141.695 126.485 134.258 129.634 129.526C132.782 124.793 135.765 114.486 137.625 111.271C139.484 108.057 143.872 103.663 143.872 99.0798C143.872 94.4968 142.013 88.0907 139.141 88.9386C136.269 89.7864 131.211 95.8656 127.52 97.3896C123.828 98.9135 110.602 98.0657 108.151 98.0657C105.699 98.0657 107.072 108.717 106.059 109.221C105.046 109.725 93.7347 103.125 90.5305 106.007C87.3263 108.889 80.7353 122.743 80.9069 126.461C81.0784 130.18 88.1675 134.746 87.9959 137.96C87.8244 141.174 80.2483 143.369 81.416 147.425C82.5837 151.482 82.9821 167.292 81.012 172.584Z" fill="#E5B76E"/>
<path d="M168.422 244.006C171.101 252.38 169.197 259.085 174.117 270.878C175.96 275.311 189.85 280.692 194.742 282.898C199.634 285.103 194.366 293.261 192.451 293.865C190.536 294.469 186.889 290.734 182.966 287.885C182.966 287.885 185.971 303.108 185.821 307.159C185.672 311.21 178.942 320.897 178.361 323.784C177.78 326.671 179.872 327.896 181.389 331.786C182.905 335.676 178.195 346.998 173.741 352.473C166.923 346.466 156.441 348.55 153.962 349.398C151.483 350.245 144.554 354.385 143.331 356.164C140.326 360.542 137.925 351.487 138.207 346.388C138.489 341.29 144.886 333.565 143.791 327.336C142.695 321.107 135.534 324.233 132.784 319.423C130.033 314.613 143.912 310.118 145.246 309.597C149.225 308.046 144.095 303.596 139.745 305.014C133.758 306.971 131.876 301.135 132.059 298.137C132.241 295.139 136.768 293.15 135.932 289.481C135.097 285.813 133.022 282.576 130 278.049C131.029 272.939 132.922 270.523 135.927 267.98C142.407 262.488 139.53 257.927 140.476 255.234C142.894 248.39 153.663 250.917 155.644 246.367C157.626 241.817 165.838 235.932 168.422 244.006Z" fill="#E5B76E"/>
<path d="M262.67 422.374C260.168 424.779 249.544 440.796 250.16 445.452C250.775 450.108 258.707 457.973 258.707 457.973C258.707 457.973 251.261 480.357 250.1 483.986C248.939 487.616 251.931 503.325 254.403 508.324C256.875 513.322 252.742 520.289 245.346 519.684C237.95 519.079 246.192 538.438 247.718 546C229.403 539.058 225.13 544.512 219.33 539.648C213.531 534.783 220.857 530.271 213.531 527.549C206.205 524.826 194.906 533.003 193.38 539.345C185.443 533.296 179.949 519.382 181.17 515.449C182.391 511.517 190.347 509.097 189.101 504.877C187.855 500.658 185.744 500.34 185.744 496.105C185.744 491.871 197.308 480.679 198.974 475.839C200.64 470.999 207.111 450.024 208.942 446.583C210.773 443.141 213.015 445.373 214.031 448.596C215.047 451.819 221.357 446.583 223.188 441.743C225.02 436.903 227.056 425.607 231.94 422.583C236.824 419.558 245.186 422.508 248.834 419.959C257.786 413.702 270.216 415.125 262.67 422.374Z" fill="#E5B76E"/>
<path d="M117.349 798.458C112.727 795.503 113.283 784.108 110.367 782.022C107.565 780.096 104.413 778.736 101.089 778.02C97.897 777.253 95.2983 770.043 95.3544 766.045C95.4105 762.048 98.4345 750.022 97.5137 743.321C96.593 736.621 93.1297 735.438 91.6247 732.1C90.1197 728.761 97.5184 718.76 96.9949 716.342C95.2049 708.104 84.5766 725.694 79.5241 718.493C73.0088 709.179 80.7066 693.104 84.6654 687.633C88.6241 682.163 85.6001 665.845 85.6001 665.845C91.7322 665.269 99.3926 660.734 95.4152 660.112C91.4377 659.49 85.0206 659.645 85.1795 655.095C85.3384 650.546 88.6615 639.88 92.6903 636.317C96.7192 632.754 89.7879 624.707 90.489 622.655C91.19 620.602 98.7991 620.691 100.683 616.422C102.566 612.153 108.829 607.3 108.451 604.228C108.072 601.156 99.1963 601.207 99.5001 593.502C99.8553 584.398 108.633 570.591 113.101 569.146C117.569 567.701 127.066 577.473 127.066 577.473C126.463 581.055 129.805 591.075 132.18 592.749C134.554 594.423 145.762 597.621 147.472 600.777C149.183 603.933 143.35 612.209 143.14 615.627C142.929 619.045 154.259 613.5 156.899 619.952C161.036 630.071 150.132 648.685 149.978 655.82C149.823 662.955 149.51 666.681 152.361 670.025C154.572 672.601 161.391 673.185 164.35 679.334C167.397 685.67 165.752 704.115 163.223 707.748C158.213 714.87 148.169 713.392 147.472 718.503C146.776 723.613 157.844 723.917 154.511 736.649C152.123 745.757 145.589 745.757 141.742 757.896C140.448 761.987 149.978 768.879 149.978 768.879C144.486 775.766 135.526 783.841 134.703 786.787C132.208 795.676 120.897 800.73 117.349 798.458Z" fill="#E5B76E"/>
<path d="M-44.2866 227.303C-47.6623 232.085 -46.6496 242.936 -44.2866 247.901C-41.9235 252.866 -38.8854 262.803 -39.8982 264.825C-40.9109 266.848 -45.1333 277.15 -45.1333 277.15C-37.0315 275.676 -29.6049 285.058 -28.5922 288.189C-27.5795 291.32 -17.2808 300.325 -13.396 303.268C-9.5111 306.21 -4.61904 293.52 -0.739727 289.475C3.13959 285.429 14.7941 278.253 14.9601 275.127C15.1262 272.002 1.96085 271.63 2.29842 267.951C2.63599 264.271 11.4184 261.146 10.5717 256.363C9.72501 251.581 -1.04963 246.25 -1.04963 242.382C-1.04963 238.514 -14.7185 238.336 -20.2913 233.188C-25.864 228.04 -30.9497 222.703 -44.2866 227.303Z" fill="#E5B76E"/>
<path d="M8.81395 511.568C14.0768 518.833 15.6982 521.116 17.1149 525.76C18.5316 530.404 16.8106 543.033 14.4586 546.913C12.1067 550.792 16.4287 558.605 19.1016 561.77C21.7745 564.934 17.5742 580.19 15.4824 580.916C13.3905 581.642 5.9363 592.554 4.7797 598.35C3.6231 604.147 14.7796 605.737 16.401 609.04C18.0225 612.343 17.4359 619.758 19.489 622.19C21.5421 624.623 24.1818 624.158 33.0417 620.146C41.9016 616.133 55.8029 606.43 59.5771 607.195C63.3512 607.959 68.0441 611.29 71.8957 608.447C75.7474 605.604 79.0899 603.166 77.7064 598.3C76.3229 593.435 75.8027 572.133 79.0179 566.07C82.2332 560.007 74.8453 551.019 76.2509 545.012C77.6566 539.005 81.7406 525.117 78.9183 521.039C69.2339 520.684 61.0823 529.102 57.0038 532.022C60.5621 521.776 70.2853 516.023 73.3235 514.921C76.3616 513.818 78.2211 502.457 78.9626 498.894C79.7042 495.331 72.997 500.002 69.256 496.051C65.5151 492.1 59.4941 485.799 61.1598 479.98C62.8255 474.162 63.8438 470.005 61.9346 464.436C60.0253 458.867 56.9983 450.46 56.9983 450.46C51.8849 461.061 45.9026 471.928 42.3277 472.139C38.7528 472.35 40.4074 476.899 40.258 478.75C40.1086 480.601 34.3754 492.51 31.0937 495.292C27.8121 498.074 25.0949 498.185 22.1564 498.961C19.2178 499.736 9.71599 500.662 8.81395 511.568Z" fill="#E5B76E"/>
<path d="M9.98175 313.228C5.40514 316.032 -6.31585 343.879 -6.31585 347.935C-6.31585 351.992 1.40406 358.525 3.33542 362.133C5.26679 365.74 3.11962 380.841 1.83574 383.319C0.55185 385.796 3.1196 385.796 3.33542 388.506C3.55125 391.215 -3.52672 413.969 -6.31585 415.322C-9.10498 416.674 -9.08283 432.905 -3.74253 436.934C1.59776 440.963 -0.737597 450.007 -0.0956545 452.484C0.546288 454.961 6.76651 465.557 6.98234 467.585C14.9125 458.569 24.9899 455.15 24.9899 449.852C24.9899 444.554 24.0713 434.208 28.9246 432.855C33.7779 431.503 55.4379 431.498 56.2957 426.544C57.1535 421.589 49.4335 405.807 49.2232 401.052C49.013 396.297 53.2963 391.814 51.5807 386.178C49.8652 380.542 29.8156 366.344 30.1919 361.385C30.5682 356.425 31.7469 346.511 30.1919 341.778C28.6368 337.046 27.6186 335.466 22.3392 331.41C17.0597 327.353 19.4172 316.309 19.4172 316.309C19.4172 316.309 15.1505 310.069 9.98175 313.228Z" fill="#E5B76E"/>
<path d="M137.547 374.718C131.843 377.524 130.618 383.663 129.736 389.254C128.854 394.844 123.135 398.93 123.135 398.93C128.463 408.892 134.216 418.898 142.464 421.492C128.978 420.049 118.401 408.054 114.786 406.525C109.692 410.112 103.449 411.676 97.2687 410.914C93.7341 410.346 92.852 413.284 93.1847 419.015C93.5174 424.747 90.0514 437.629 87.1485 439.999C84.2456 442.369 84.9003 461.004 84.9003 461.004C98.0397 458.621 100.472 468.651 100.232 470.899C99.9912 473.147 95.0117 485.143 95.4927 488.606C95.9736 492.068 99.789 497.604 101.66 503.784C103.531 509.965 101.982 525.159 103.655 529.184C105.328 533.208 113.007 533.172 116.696 530.579C120.386 527.987 118.019 521.547 120.906 516.835C123.792 512.122 130.782 526.425 130.862 529.688C130.941 532.951 133.896 553.337 136.083 556.558C138.271 559.78 147.911 564.819 151.243 568.475C155.651 573.311 165.769 564.574 168.871 559.772C171.973 554.971 169.998 550.647 165.31 545.308C162.87 542.527 160.52 534.317 161.523 530.25C162.526 526.183 159.303 515.115 158.099 510.243C156.895 505.371 166.769 494.758 168.968 488.355C171.168 481.953 167.598 476.822 168.007 469.47C168.415 462.118 188.95 454.49 190.058 451.577C191.166 448.664 199.148 436.07 196.999 434.875C194.851 433.681 186.476 435.85 185.202 433.613C183.928 431.375 197.537 422.778 197.196 415.15C196.855 407.523 184.646 403.184 179.523 401.499C174.399 399.814 173.386 391.546 171.817 388.53C170.247 385.514 153.401 387.116 149.626 385.207C145.851 383.298 137.818 377.495 137.547 374.718Z" fill="#E5B76E"/>
<path d="M-4.4649 638.782C-12.0132 648.12 -18.3718 658.732 -16.3851 668.07C-14.3984 677.408 -20.4913 696.089 -22.3451 700.334C-24.199 704.578 -46.014 706.274 -47.0323 711.084C-48.0505 715.895 -39.8381 719.857 -36.9162 724.939C-33.9942 730.02 -33.7397 744.75 -35.0623 748.141C-28.178 752.952 -28.9749 763.425 -32.6771 767.388C-36.3793 771.35 -39.5669 786.911 -35.0623 789.177C-30.5576 791.444 -28.4215 797.95 -29.235 800.211C-30.0485 802.472 -38.2443 815.777 -35.5935 823.696C-32.9428 831.616 -39.3677 838.166 -41.4872 840.549C-43.6067 842.932 -41.858 849.731 -37.06 848.307C-32.2621 846.883 -19.9047 851.421 -18.5599 853.4C-17.2152 855.378 -12.1571 846.611 -11.6258 840.654C-11.0946 834.697 -15.4332 825.658 -13.5738 822.544C-11.7144 819.429 -2.45052 816.32 1.52287 812.358C5.49627 808.396 4.70491 803.586 4.70491 800.754C4.70491 797.922 0.465881 791.788 2.31977 786.933C4.17365 782.079 12.6517 787.543 16.6251 786.933C20.5985 786.323 16.8907 765.947 18.7446 761.996C20.5985 758.044 40.0726 763.98 42.8562 755.49C45.6398 747 44.4444 732.143 42.8562 722.378C41.2679 712.614 44.5164 703.282 44.5164 703.282C37.6764 703.703 20.1669 698.189 15.8227 688.425C25.7839 693.091 39.4251 694.792 44.5164 694.365C43.2435 681.209 44.2397 679.087 44.5164 675.125C44.7931 671.162 51.3232 653.906 52.2252 649.372C53.6419 642.296 50.2496 636.072 41.6276 639.719C36.8795 641.719 26.0661 647.394 21.1187 647.583C16.1713 647.771 -1.03383 634.349 -4.4649 638.782Z" fill="#E5B76E"/>
<path d="M12.6098 204.388C15.2993 202.171 23.8881 188.356 25.017 185.945C26.146 183.535 23.9102 180.603 23.9102 178.359C23.9102 176.114 32.1282 168.018 33.7385 166.982C35.3489 165.946 43.8325 168.417 47.9166 165.203C52.0007 161.989 56.0792 155.089 52.6426 147.73C49.206 140.371 53.2901 126.179 53.7162 121.13C54.1423 116.082 52.1169 115.084 51.4694 110.945C50.8219 106.805 64.596 96.6027 69.3109 94.5302C74.0259 92.4576 73.0906 76.42 67.5622 75.162C65.3486 74.6578 63.4837 78.0991 59.6154 77.8719C55.7472 77.6447 54.0482 75.0401 55.7416 69.0662C57.435 63.0923 64.8229 62.8817 66.6878 59.0469C70.8992 50.3908 64.1809 45.963 63.3232 41.3136C62.4654 36.6641 65.8412 28.9834 64.7233 25.1874C62.4765 17.5454 52.9912 16.1323 52.4544 11.4274C51.3919 2.04538 45.0611 -0.520409 41.8458 2.9265C38.6306 6.37342 36.4668 15.3454 32.6041 17.1797C28.7414 19.0139 25.0834 27.997 23.3623 29.7149C21.6413 31.4328 8.75819 34.9407 8.97401 41.8068C9.18984 48.6729 19.4166 50.1692 19.6269 56.603C19.8372 63.0369 7.28062 64.0122 5.79198 67.9191C4.30334 71.826 -3.11772 82.2277 0.534703 84.7547C4.18713 87.2817 -4.25216 95.7881 -1.51284 102.444C2.76492 112.851 11.2596 108.334 12.3221 111.781C13.3846 115.228 10.1085 132.103 8.80246 134.402C16.5334 139.916 28.5643 148.899 28.5643 148.899C17.1809 145.912 9.15112 143.186 7.64588 143.413C5.4987 149.853 0.551322 166.688 3.5618 168.96C6.57228 171.232 8.58666 175.793 8.58666 179.24C8.58666 182.687 4.07645 203.623 4.93422 208.661C5.79198 213.698 9.48868 206.976 12.6098 204.388Z" fill="#E5B76E"/>
<path d="M106.775 77.9294C101.302 74.4326 101.961 60.922 98.5074 58.4505C95.1868 56.1769 91.4557 54.5732 87.5225 53.729C83.7427 52.8201 80.6658 44.2749 80.7323 39.5368C80.7987 34.7986 84.3791 20.551 83.2889 12.6043C82.1988 4.65753 78.0981 3.26103 76.3161 -0.695709C74.5342 -4.65245 83.2945 -16.5116 82.6747 -19.3711C80.5552 -29.1355 67.9709 -8.28778 61.9887 -16.8275C54.2743 -27.8609 63.3888 -46.9187 68.076 -53.4025C72.7633 -59.8862 69.1828 -79.2211 69.1828 -79.2211C76.4434 -79.9027 85.5136 -85.2781 80.8042 -86.0207C76.0948 -86.7633 68.4966 -86.5748 68.6848 -91.9613C68.8729 -97.3478 72.8076 -109.999 77.5779 -114.222C82.3482 -118.445 74.1413 -127.982 74.9714 -130.415C75.8015 -132.848 84.8108 -132.742 87.041 -137.796C89.2712 -142.85 96.6867 -148.614 96.2385 -152.255C95.7902 -155.895 85.2812 -155.829 85.6409 -164.967C86.0615 -175.751 96.4543 -192.121 101.745 -193.828C107.035 -195.535 118.28 -183.964 118.28 -183.964C117.566 -179.714 121.523 -167.838 124.334 -165.859C127.146 -163.881 140.416 -160.079 142.442 -156.344C144.467 -152.609 137.561 -142.795 137.312 -138.744C137.063 -134.693 150.477 -141.266 153.604 -133.618C158.501 -121.62 145.59 -99.5645 145.408 -91.1079C145.225 -82.6513 144.854 -78.2346 148.23 -74.2723C150.848 -71.2133 158.922 -70.5206 162.425 -63.2334C166.033 -55.7299 164.085 -33.8625 161.091 -29.5622C155.159 -21.1223 143.266 -22.8734 142.442 -16.8164C141.617 -10.7594 154.722 -10.3992 150.776 4.69078C147.948 15.4915 140.211 15.4915 135.657 29.8555C134.124 34.6989 145.408 42.8728 145.408 42.8728C138.905 51.0302 128.297 60.6062 127.323 64.0919C124.368 74.6321 110.975 80.6171 106.775 77.9294Z" fill="#E5B76E"/>
<path d="M-4.4649 -146.715C-12.0132 -137.377 -18.3718 -126.765 -16.3851 -117.427C-14.3984 -108.09 -20.4913 -89.4141 -22.3451 -85.1692C-24.199 -80.9243 -46.014 -79.2285 -47.0323 -74.4184C-48.0505 -69.6082 -39.8381 -65.6459 -36.9162 -60.5642C-33.9942 -55.4825 -33.7397 -40.7528 -35.0623 -37.3557C-28.178 -32.5456 -28.9749 -22.0774 -32.6771 -18.1151C-36.3793 -14.1528 -39.5669 1.4082 -35.0623 3.67474C-30.5576 5.94128 -28.4215 12.4472 -29.235 14.7082C-30.0485 16.9692 -38.2443 30.308 -35.5935 38.2104C-32.9428 46.1128 -39.3677 52.6797 -41.4872 55.057C-43.6067 57.4344 -41.858 64.2451 -37.06 62.8154C-32.2621 61.3856 -19.9047 65.9298 -18.5599 67.9082C-17.2152 69.8865 -12.1571 61.1196 -11.6258 55.1623C-11.0946 49.205 -15.4332 40.1611 -13.5738 37.0522C-11.7144 33.9433 -2.45052 30.8233 1.52287 26.8611C5.49627 22.8988 4.70491 18.0886 4.70491 15.2624C4.70491 12.4361 0.465881 6.29042 2.31977 1.43591C4.17365 -3.41858 12.6517 2.0455 16.6251 1.43591C20.5985 0.82634 16.8907 -19.5448 18.7446 -23.5016C20.5985 -27.4583 40.0726 -21.5232 42.8562 -30.013C45.6398 -38.5029 44.4444 -53.3545 42.8562 -63.1189C41.2679 -72.8833 44.5164 -82.221 44.5164 -82.221C37.6764 -81.7943 20.1669 -87.3138 15.8227 -97.0782C25.7839 -92.4066 39.4251 -90.7108 44.5164 -91.132C43.2435 -104.293 44.2397 -106.416 44.5164 -110.378C44.7931 -114.34 51.3232 -131.597 52.2252 -136.13C53.6419 -143.201 50.2496 -149.43 41.6276 -145.784C36.8795 -143.778 26.0661 -138.109 21.1187 -137.92C16.1713 -137.732 -1.03383 -151.187 -4.4649 -146.715Z" fill="#E5B76E"/>
<path d="M247.521 94.3325C253.5 98.0027 267.591 98.1103 267.55 91.9136C267.432 74.5132 274.851 75.9957 281.197 74.1027C287.543 72.2098 288.343 55.1616 287.878 51.024C287.563 48.2253 296.161 45.0896 303.212 38.6342C306.665 35.4681 299.067 28.8013 300.437 25.8353C302.623 21.0502 315.733 26.9497 316.095 21.4593C316.416 16.6172 313.667 1.30282 314.702 -2.95887C316.916 -12.039 328.61 -13.7905 330.298 -24.9346C331.986 -36.0787 326.5 -38.2271 322.112 -48.5738C319.351 -55.096 316.968 -70.4796 318.157 -80.2645C318.85 -85.9881 324.179 -83.4596 325.635 -90.5586C329.536 -109.854 320.217 -104.568 313.179 -111.91C307.067 -118.271 300.199 -126.778 292.414 -126.378C283.186 -125.898 287.3 -101.811 283.316 -100.703C274.849 -98.3344 265.173 -107.098 257.362 -105.657C249.552 -104.215 244.626 -78.3903 244.626 -78.3903C251.595 -69.0579 266.93 -58.2768 270.515 -51.5171C257.032 -60.1159 244.098 -67.5146 242.899 -67.382C241.082 -56.9946 242.224 -39.4342 237.515 -28.157C235.195 -22.638 226.234 -20.1394 225.046 -17.7891C221.407 -10.6207 220.858 -1.28907 227.151 0.942781C233.444 3.17464 243.439 5.79524 243.694 11.6962C243.949 17.5971 236.552 23.6307 238.435 40.4125C240.317 57.1943 252.576 78.1723 247.521 94.3325Z" fill="#E5B76E"/>
<path d="M212.222 553.788C206.377 554.113 198.503 561.647 196.079 566.583C193.656 571.519 187.757 580.072 185.542 580.535C183.328 580.998 172.632 584.088 172.632 584.088C178.82 589.522 176.081 601.17 174.256 603.908C172.432 606.647 171.772 620.311 171.879 625.184C171.986 630.056 184.97 626.007 190.55 626.534C196.13 627.061 208.994 631.736 211.546 629.925C214.099 628.114 206.212 617.566 209.305 615.545C212.398 613.523 220.303 618.464 223.525 614.83C226.747 611.196 224.232 599.44 227.263 597.038C230.294 594.635 221.942 583.813 222.515 576.248C223.088 568.683 224.111 561.382 212.222 553.788Z" fill="#E5B76E"/>
<path d="M1312.03 559.297C1315.06 555.015 1314.15 545.295 1312.03 540.849C1309.92 536.404 1307.2 527.507 1308.1 525.696C1309.01 523.885 1312.79 514.661 1312.79 514.661C1305.54 515.981 1298.89 507.581 1297.98 504.783C1297.07 501.984 1287.85 493.912 1284.38 491.277C1280.9 488.642 1276.52 500.005 1273.04 503.627C1269.57 507.249 1259.14 513.674 1258.99 516.472C1258.84 519.271 1270.63 519.603 1270.32 522.898C1270.02 526.192 1262.16 528.991 1262.92 533.273C1263.67 537.555 1273.32 542.333 1273.32 545.791C1273.32 549.249 1285.56 549.413 1290.55 554.023C1295.54 558.632 1300.09 563.43 1312.03 559.297Z" fill="#E5B76E"/>
<path d="M1219.88 443.901C1218.31 436.687 1219.56 432.807 1214.25 429.755C1208.95 426.704 1201.62 416.656 1201.51 412.602C1201.4 408.549 1201.51 397.439 1199.66 395.356C1197.8 393.272 1191.23 387.481 1188.54 387.556C1185.84 387.63 1184.05 397.296 1181.38 399.295C1178.72 401.295 1184.22 403.483 1184.54 406.678C1184.87 409.873 1177.91 413.064 1176.62 415.237C1175.32 417.41 1177.75 439.123 1177.4 442.765C1177.05 446.407 1174.65 449.89 1174.07 453.541C1173.5 457.193 1178.99 466.854 1181.6 470.625C1184.2 474.396 1182.26 478.067 1182.13 481.501C1182 484.934 1196.04 491.786 1199.11 495.756C1202.17 499.725 1201.76 501.214 1199.81 504.687C1197.87 508.16 1200.01 511.539 1201.42 513.196C1202.83 514.853 1198.54 523.516 1196.99 524.841C1201.54 533.276 1202.93 543.2 1203.07 547.169C1203.21 551.138 1211.49 551.749 1215.18 553.257C1218.87 554.765 1219.26 558.769 1220.24 561.305C1221.21 563.84 1226.82 567.051 1229.43 553.257C1231.23 543.795 1239.67 537.082 1241.07 534.705C1243.89 529.927 1240.01 526.598 1238.54 522.797C1237.07 518.996 1242.71 508.721 1242.71 508.721C1236.83 505.461 1233.54 502.548 1234.62 500.623C1236.35 497.547 1242.36 493.419 1238.81 488.393C1235.26 483.366 1224.34 484.964 1223.51 479.863C1222.68 474.763 1230.7 468.799 1229.87 464.036C1229.03 459.272 1222.19 453.447 1219.88 443.901Z" fill="#E5B76E"/>
<path d="M1197.16 603.006C1198.85 598.456 1209.86 590.73 1209.86 590.73C1206.23 582.623 1201.39 579.661 1196.35 579.815C1191.31 579.968 1185.45 578.371 1184.46 573.93C1183.47 569.489 1186.48 557.988 1184.46 554.153C1182.45 550.317 1178.62 545.881 1178.62 543.237C1178.62 540.592 1182.25 529.92 1180.84 522.05C1177.02 520.014 1174 516.758 1172.26 512.802C1169.78 520.077 1167.73 527.489 1166.1 535C1165.3 538.831 1161.07 541.252 1159.05 543.674C1157.04 546.095 1158.25 552.555 1158.06 558.306C1157.88 564.056 1144.76 567.286 1144.15 572.129C1143.55 576.972 1140.93 595.335 1137.31 599.775C1133.68 604.216 1137.91 612.889 1139.52 617.141C1141.13 621.394 1135.87 630.861 1135.87 630.861C1138.52 635.703 1141.54 641.558 1141.54 641.558C1142.53 638.328 1146.57 632.677 1147.78 631.669C1148.99 630.662 1156.45 637.321 1153.63 641.558C1150.81 645.795 1148.14 655.024 1146.47 657.902C1144.81 660.78 1140.88 664.714 1140.88 668.818C1140.88 672.921 1142.54 678.657 1145.12 677.898C1147.69 677.138 1152.22 671.695 1155.52 670.331C1158.83 668.966 1170.67 669.726 1172.86 669.726C1175.06 669.726 1173.83 660.189 1174.74 659.738C1175.64 659.286 1185.77 665.196 1188.64 662.616C1191.51 660.035 1197.41 647.631 1197.26 644.302C1197.1 640.973 1190.75 636.884 1190.91 634.006C1191.06 631.129 1197.84 629.164 1196.8 625.532C1195.75 621.9 1195.4 607.744 1197.16 603.006Z" fill="#E5B76E"/>
<path d="M1035.38 631.714C1032.98 624.217 1034.68 618.213 1030.28 607.654C1028.63 603.685 1016.19 598.867 1011.81 596.893C1007.43 594.918 1012.15 587.614 1013.86 587.073C1015.58 586.533 1018.84 589.877 1022.36 592.427C1022.36 592.427 1019.67 578.797 1019.8 575.17C1019.93 571.543 1025.96 562.87 1026.48 560.285C1027 557.7 1025.13 556.604 1023.77 553.12C1022.41 549.637 1026.63 539.501 1030.62 534.598C1036.72 539.977 1046.11 538.111 1048.32 537.352C1050.54 536.593 1056.75 532.887 1057.84 531.294C1060.53 527.374 1062.68 535.482 1062.43 540.046C1062.18 544.611 1056.45 551.528 1057.43 557.105C1058.41 562.682 1064.82 559.883 1067.29 564.19C1069.75 568.497 1057.32 572.521 1056.13 572.987C1052.57 574.376 1057.16 578.361 1061.05 577.09C1066.41 575.339 1068.1 580.564 1067.94 583.248C1067.77 585.932 1063.72 587.713 1064.47 590.998C1065.22 594.283 1067.07 597.18 1069.78 601.234C1068.86 605.809 1067.16 607.972 1064.47 610.249C1058.67 615.166 1061.25 619.25 1060.4 621.661C1058.23 627.789 1048.59 625.527 1046.82 629.6C1045.04 633.674 1037.69 638.943 1035.38 631.714Z" fill="#E5B76E"/>
<path d="M1316.34 477.857C1317.33 470.365 1324.21 448.171 1328.06 446.052C1331.92 443.934 1337.97 440.302 1338.25 435.762C1338.54 431.222 1334.79 422.747 1334.79 417.9C1334.79 413.052 1338.55 396.435 1339.7 389.777C1340.86 383.118 1339.36 372.818 1338.5 367.37C1337.64 361.922 1350.89 358.592 1352.03 353.144C1353.18 347.696 1348.57 343.459 1352.03 337.709C1355.5 331.958 1352.9 321.97 1356.35 315.609C1359.81 309.248 1351.46 316.214 1343.69 319.241C1335.91 322.268 1333.67 320.457 1328.89 316.82C1324.1 313.183 1323.53 305.621 1319.21 302.292C1314.89 298.963 1302.76 295.742 1299.85 288.771C1295.51 278.352 1287.23 266.766 1283.79 274.878C1279.33 285.372 1290.79 305.671 1286.47 311.099C1282.15 316.527 1284.08 334.374 1285.23 340.125C1286.38 345.875 1296.17 352.385 1298.48 357.228C1300.78 362.071 1295.01 361.311 1294.44 366.759C1293.88 372.207 1301.21 384.319 1300.21 396.718C1299.84 401.263 1291.85 400.057 1289.84 403.387C1288.77 405.153 1287.1 411.559 1293.44 416.704C1294.37 417.468 1288.59 418.52 1289.19 421.71C1289.98 425.863 1291.17 429.495 1293.29 430.934C1299.05 434.869 1302.21 434.869 1302.51 441.527C1302.8 448.186 1294.73 459.082 1294.16 464.227C1293.58 469.372 1310.86 478.15 1312.3 482.089C1313.73 486.029 1315.81 481.732 1316.34 477.857Z" fill="#E5B76E"/>
<path d="M1327.43 681.073C1329.13 676.513 1335.63 665.121 1336.26 663.211C1336.89 661.301 1332.25 658.656 1331.84 656.761C1331.44 654.866 1337.51 647.646 1341.28 646.317C1345.05 644.987 1347.2 633.59 1347.8 630.935C1348.41 628.281 1342.54 629.412 1337.62 625.428C1332.69 621.443 1332.07 613.083 1332.27 608.523C1332.48 603.963 1326.99 599.592 1327.43 597.508C1327.88 595.424 1329.55 586.687 1329.76 585.168C1329.97 583.65 1326.2 583.457 1325.36 578.138C1324.52 572.819 1322.01 570.402 1318.87 571.732C1315.73 573.062 1302.48 576.525 1299.34 573.677C1296.2 570.829 1292.27 568.835 1290.07 567.411C1287.87 565.987 1286.6 572.581 1286.6 575.285C1286.6 577.989 1282.11 586.067 1282.58 591.341C1283.05 596.615 1291.01 597.295 1292.58 599.458C1294.16 601.621 1291.95 608.002 1289.44 611.421C1286.93 614.839 1284.1 624.817 1285.83 628.37C1287.56 631.923 1287.71 634.21 1286.14 634.637C1284.57 635.063 1278.6 640.62 1279.7 643.325C1280.8 646.029 1291.48 652.156 1292.43 656.855C1293.37 661.554 1292.11 663.975 1293.68 667.275C1295.25 670.574 1301.38 671.686 1306.56 671.83C1311.75 671.973 1315.83 677.952 1316.78 679.947C1322.88 680.503 1327.43 681.073 1327.43 681.073Z" fill="#E5B76E"/>
<path d="M1103.05 243.407C1106.07 239.126 1105.16 229.41 1103.05 224.965C1100.93 220.519 1098.21 211.623 1099.12 209.812C1100.03 208.001 1103.81 198.777 1103.81 198.777C1096.55 200.097 1089.9 191.697 1089 188.893C1088.09 186.09 1078.87 178.027 1075.39 175.392C1071.91 172.758 1067.53 184.12 1064.06 187.742C1060.58 191.364 1050.15 197.79 1050 200.588C1049.85 203.386 1061.64 203.719 1061.34 207.013C1061.04 210.308 1053.17 213.106 1053.93 217.388C1054.69 221.67 1064.34 226.443 1064.34 229.907C1064.34 233.37 1076.57 233.529 1081.56 238.138C1086.55 242.748 1091.11 247.526 1103.05 243.407Z" fill="#E5B76E"/>
<path d="M1264.28 304.707C1259.57 298.202 1258.12 296.158 1256.85 292C1255.58 287.842 1257.12 276.535 1259.23 273.061C1261.33 269.588 1257.46 262.592 1255.07 259.759C1252.68 256.926 1256.44 243.266 1258.31 242.616C1260.18 241.966 1266.86 232.197 1267.89 227.007C1268.93 221.817 1258.94 220.393 1257.49 217.436C1256.04 214.479 1256.56 207.84 1254.72 205.662C1252.88 203.483 1250.52 203.9 1242.59 207.493C1234.66 211.085 1222.21 219.773 1218.83 219.088C1215.45 218.403 1211.25 215.421 1207.8 217.967C1204.35 220.512 1201.36 222.695 1202.6 227.052C1203.84 231.408 1204.3 250.481 1201.42 255.909C1198.54 261.337 1205.16 269.385 1203.9 274.763C1202.64 280.142 1198.99 292.576 1201.51 296.228C1210.18 296.545 1217.48 289.008 1221.13 286.394C1217.95 295.568 1209.24 300.718 1206.52 301.705C1203.8 302.693 1202.14 312.864 1201.47 316.055C1200.81 319.245 1206.81 315.062 1210.16 318.6C1213.51 322.138 1218.9 327.779 1217.41 332.989C1215.92 338.199 1215.01 341.92 1216.72 346.906C1218.43 351.893 1221.14 359.42 1221.14 359.42C1225.72 349.928 1231.07 340.198 1234.27 340.01C1237.48 339.821 1235.99 335.748 1236.13 334.09C1236.26 332.433 1241.39 321.771 1244.33 319.28C1247.27 316.789 1249.7 316.69 1252.33 315.995C1254.97 315.3 1263.47 314.472 1264.28 304.707Z" fill="#E5B76E"/>
<path d="M1263.97 479.767C1268.06 477.257 1278.56 452.324 1278.56 448.692C1278.56 445.06 1271.65 439.21 1269.92 435.98C1268.19 432.75 1270.11 419.229 1271.26 417.012C1272.41 414.794 1270.11 414.794 1269.92 412.367C1269.72 409.941 1276.06 389.568 1278.56 388.358C1281.06 387.147 1281.04 372.614 1276.26 369.007C1271.47 365.4 1273.56 357.302 1272.99 355.084C1272.42 352.867 1266.85 343.38 1266.65 341.564C1259.55 349.636 1250.53 352.698 1250.53 357.441C1250.53 362.185 1251.35 371.448 1247.01 372.659C1242.66 373.869 1223.27 373.874 1222.5 378.31C1221.73 382.746 1228.64 396.877 1228.83 401.134C1229.02 405.391 1225.19 409.405 1226.72 414.451C1228.26 419.497 1246.21 432.209 1245.87 436.65C1245.54 441.091 1244.48 449.967 1245.87 454.204C1247.26 458.442 1248.18 459.856 1252.9 463.488C1257.63 467.12 1255.52 477.009 1255.52 477.009C1255.52 477.009 1259.34 482.595 1263.97 479.767Z" fill="#E5B76E"/>
<path d="M1157.6 464.252C1160.69 475.852 1160.51 483.171 1157.6 484.183C1154.7 485.195 1151.8 476.74 1149.27 476.393C1146.73 476.046 1152.53 495.793 1151.44 500.15C1150.35 504.506 1144.19 509.577 1139.47 511.621C1134.76 513.665 1139.47 521.108 1138.03 527.206C1136.58 533.304 1123.16 544.14 1122.44 550.238C1121.71 556.336 1122.8 563.183 1121.94 568.924C1120.76 576.694 1112.65 579.031 1109.39 572.253C1106.13 565.475 1087.17 582.896 1082.85 578.703C1075.33 571.444 1086.81 565.589 1086.27 558.941C1085.46 549.335 1077.5 553.875 1082.56 537.69C1084.14 532.649 1081.31 519.396 1082.3 516.355C1083.29 513.313 1093.8 511.274 1094.04 508.336C1094.29 505.399 1082.2 507.885 1078.82 505.176C1075.43 502.467 1074.71 492.98 1078.82 492.528C1082.93 492.077 1090.66 483.721 1091.63 478.983C1092.59 474.245 1100.09 471.982 1103.23 468.821C1106.37 465.661 1108.79 458.898 1105.65 450.959C1102.51 443.021 1106.49 432.67 1106.14 427.247C1105.8 421.824 1104.7 411.33 1104.33 407.941C1103.96 404.552 1107.23 405.907 1113.4 409.633C1119.56 413.359 1130.8 415.731 1135.52 415.056C1140.23 414.382 1139.48 422.499 1139.87 426.91C1140.25 431.321 1155.09 423.184 1156.54 428.602C1158 434.02 1156.02 458.298 1157.6 464.252Z" fill="#E5B76E"/>
<path d="M958.471 753.588C960.406 750.727 967.437 732.893 965.891 728.456C964.345 724.019 955.052 717.916 955.052 717.916C955.052 717.916 957.705 694.486 958.09 690.696C958.475 686.906 952.37 672.121 948.955 667.724C945.539 663.326 948.13 655.666 955.422 654.766C962.715 653.866 950.773 636.567 947.751 629.467C966.926 632.57 969.956 626.364 976.57 629.959C983.184 633.554 977.027 639.448 984.66 640.641C992.293 641.834 1001.6 631.539 1001.78 625.019C1010.72 629.342 1018.88 641.863 1018.5 645.962C1018.12 650.06 1010.91 654.034 1012.96 657.939C1015.02 661.845 1017.14 661.706 1018.01 665.855C1018.87 670.003 1009.94 683.301 1009.32 688.378C1008.69 693.454 1006.69 715.309 1005.62 719.05C1004.54 722.791 1001.92 721.056 1000.27 718.105C998.625 715.154 993.581 721.556 992.793 726.666C992.004 731.777 992.334 743.253 988.216 747.202C984.099 751.151 975.396 749.947 972.38 753.181C964.974 761.098 952.639 762.212 958.471 753.588Z" fill="#E5B76E"/>
<path d="M1129.98 398.308C1135.28 396.248 1136.85 390.868 1138.08 385.95C1139.3 381.032 1144.72 377.832 1144.72 377.832C1140.74 368.533 1136.38 359.16 1129.23 356.205C1141.15 358.541 1149.65 370.062 1152.75 371.707C1157.58 368.904 1163.27 367.994 1168.72 369.154C1171.83 369.935 1172.84 367.383 1172.99 362.245C1173.14 357.107 1177.23 345.886 1180.01 343.997C1182.78 342.109 1183.64 325.436 1183.64 325.436C1171.74 326.541 1170.35 317.405 1170.74 315.419C1171.13 313.432 1176.5 303.119 1176.34 299.994C1176.18 296.868 1173.21 291.633 1172.02 285.975C1170.83 280.317 1173.4 266.885 1172.22 263.165C1171.04 259.445 1164.18 258.88 1160.69 260.906C1157.2 262.932 1158.81 268.859 1155.87 272.839C1152.93 276.818 1147.81 263.517 1147.99 260.6C1148.17 257.683 1147.12 239.27 1145.42 236.227C1143.72 233.183 1135.51 227.939 1132.82 224.419C1129.27 219.763 1119.56 226.77 1116.42 230.811C1113.28 234.852 1114.71 238.863 1118.48 243.99C1120.44 246.66 1121.89 254.165 1120.68 257.715C1119.47 261.265 1121.49 271.388 1122.18 275.827C1122.88 280.266 1113.24 288.965 1110.79 294.505C1108.33 300.045 1111.11 304.899 1110.18 311.425C1109.24 317.951 1090.33 323.158 1089.12 325.671C1087.9 328.183 1079.8 338.796 1081.63 340.028C1083.45 341.26 1091.09 339.977 1092.05 342.072C1093.01 344.166 1080.2 350.777 1079.92 357.607C1079.63 364.437 1090.18 369.256 1094.62 371.157C1099.06 373.059 1099.32 380.512 1100.48 383.324C1101.65 386.137 1116.8 386.017 1120.02 388.013C1123.24 390.009 1129.95 395.81 1129.98 398.308Z" fill="#E5B76E"/>
<path d="M1009.29 125.564C1010.42 133.742 996.589 135.155 998.818 141.17C1001.05 147.184 990.073 151.499 987.415 152.571C996.194 165.407 998.195 169.739 1003.05 173.085C1007.91 176.432 1008.72 190.013 1006.01 194.597C1003.31 199.181 1003.15 205.878 1003.22 210.081C1003.29 214.284 1007.14 214.24 1012.19 215.232C1017.24 216.224 1016.79 225.769 1014.71 228.511C1012.64 231.254 1021.4 246.549 1025.69 244.557C1029.97 242.564 1030.82 233.308 1031.75 226.166C1032.69 219.024 1038.2 208.076 1039.54 205.082C1040.88 202.088 1030.88 198.197 1032.07 186.451C1033.25 174.705 1042.75 172.384 1044.17 167.427C1045.59 162.469 1045.32 147.76 1051.23 144.838C1057.14 141.916 1054.43 124.807 1052.65 122.031C1050.87 119.256 1036.92 122.363 1031.68 122.484C1026.44 122.605 1023.33 115.327 1019.15 115.549C1014.98 115.771 1008.43 119.248 1009.29 125.564Z" fill="#E5B76E"/>
<path d="M1257.93 572.739C1255.52 574.724 1247.83 587.094 1246.82 589.252C1245.81 591.41 1247.81 594.035 1247.81 596.045C1247.81 598.054 1240.45 605.303 1239.01 606.231C1237.57 607.159 1229.97 604.946 1226.32 607.824C1222.66 610.701 1219.01 616.879 1222.09 623.468C1225.16 630.057 1221.51 642.764 1221.12 647.284C1220.74 651.804 1222.56 652.697 1223.14 656.404C1223.72 660.11 1211.38 669.245 1207.16 671.1C1202.94 672.956 1203.78 687.315 1208.73 688.441C1210.71 688.893 1212.38 685.812 1215.84 686.015C1219.31 686.219 1220.83 688.551 1219.31 693.899C1217.79 699.248 1211.18 699.437 1209.51 702.87C1205.74 710.62 1211.75 714.585 1212.52 718.748C1213.29 722.91 1210.27 729.787 1211.27 733.186C1213.28 740.028 1221.77 741.294 1222.25 745.506C1223.21 753.906 1228.87 756.203 1231.75 753.117C1234.63 750.031 1236.57 741.998 1240.03 740.356C1243.49 738.713 1246.76 730.671 1248.3 729.132C1249.84 727.594 1261.38 724.454 1261.18 718.306C1260.99 712.158 1251.83 710.819 1251.65 705.058C1251.46 699.298 1262.7 698.424 1264.03 694.926C1265.37 691.428 1272.01 682.115 1268.74 679.853C1265.47 677.59 1273.03 669.974 1270.57 664.015C1266.74 654.697 1259.14 658.741 1258.19 655.655C1257.23 652.568 1260.17 637.46 1261.34 635.401C1254.42 630.464 1243.64 622.421 1243.64 622.421C1253.84 625.095 1261.03 627.537 1262.37 627.333C1264.3 621.568 1268.73 606.494 1266.03 604.46C1263.33 602.425 1261.53 598.342 1261.53 595.256C1261.53 592.17 1265.57 573.424 1264.8 568.914C1264.03 564.404 1260.72 570.422 1257.93 572.739Z" fill="#E5B76E"/>
<path d="M1165.82 698.499C1170.72 701.63 1170.13 713.726 1173.22 715.939C1176.19 717.975 1179.53 719.411 1183.05 720.167C1186.44 720.98 1189.19 728.631 1189.13 732.873C1189.07 737.116 1185.87 749.872 1186.84 756.987C1187.82 764.102 1191.49 765.353 1193.09 768.895C1194.68 772.438 1186.84 783.056 1187.39 785.616C1189.29 794.359 1200.56 775.693 1205.92 783.339C1212.82 793.218 1204.66 810.281 1200.47 816.086C1196.27 821.891 1199.47 839.203 1199.47 839.203C1192.97 839.813 1184.85 844.626 1189.07 845.291C1193.29 845.956 1200.09 845.787 1199.92 850.61C1199.75 855.433 1196.23 866.76 1191.96 870.541C1187.69 874.322 1195.04 882.861 1194.29 885.039C1193.55 887.217 1185.48 887.123 1183.49 891.648C1181.49 896.173 1174.85 901.333 1175.25 904.593C1175.65 907.853 1185.06 907.793 1184.74 915.975C1184.36 925.631 1175.06 940.288 1170.32 941.816C1165.58 943.344 1155.52 932.984 1155.52 932.984C1156.15 929.178 1152.61 918.545 1150.09 916.774C1147.58 915.003 1135.7 911.599 1133.88 908.255C1132.07 904.911 1138.25 896.124 1138.48 892.497C1138.7 888.87 1126.69 894.754 1123.89 887.907C1119.5 877.165 1131.06 857.417 1131.23 849.846C1131.39 842.274 1131.72 838.32 1128.7 834.772C1126.36 832.033 1119.13 831.413 1115.99 824.888C1112.76 818.17 1114.5 798.591 1117.18 794.741C1122.5 787.184 1133.14 788.752 1133.88 783.329C1134.62 777.906 1122.89 777.583 1126.42 764.073C1128.95 754.402 1135.88 754.402 1139.96 741.542C1141.33 737.205 1131.23 729.887 1131.23 729.887C1137.05 722.583 1146.55 714.009 1147.42 710.888C1150.07 701.451 1162.06 696.092 1165.82 698.499Z" fill="#E5B76E"/>
<path d="M1276.38 887.098C1283.14 878.738 1288.83 869.236 1287.05 860.876C1285.27 852.515 1290.73 835.794 1292.39 831.994C1294.05 828.193 1313.58 826.675 1314.49 822.368C1315.4 818.061 1308.05 814.514 1305.43 809.964C1302.82 805.414 1302.59 792.226 1303.77 789.184C1297.61 784.877 1298.32 775.505 1301.64 771.957C1304.95 768.409 1307.81 754.477 1303.77 752.448C1299.74 750.418 1297.83 744.593 1298.56 742.569C1299.28 740.544 1306.62 728.602 1304.25 721.526C1301.88 714.451 1307.63 708.571 1309.53 706.443C1311.42 704.314 1309.86 698.216 1305.56 699.496C1301.27 700.776 1290.2 696.708 1289 694.936C1287.79 693.165 1283.27 701.015 1282.79 706.348C1282.31 711.682 1286.2 719.78 1284.53 722.563C1282.87 725.347 1274.57 728.14 1271.02 731.688C1267.46 735.235 1268.17 739.542 1268.17 742.073C1268.17 744.603 1271.96 750.106 1270.3 754.452C1268.64 758.799 1261.05 753.906 1257.5 754.452C1253.94 754.998 1257.26 773.237 1255.6 776.78C1253.94 780.322 1236.5 775.008 1234.01 782.61C1231.52 790.211 1232.59 803.508 1234.01 812.251C1235.43 820.994 1232.52 829.354 1232.52 829.354C1238.65 828.972 1254.32 833.914 1258.21 842.656C1249.3 838.474 1237.08 836.955 1232.52 837.332C1233.66 849.116 1232.77 851.017 1232.52 854.564C1232.28 858.112 1226.43 873.563 1225.62 877.621C1224.35 883.953 1227.39 889.53 1235.11 886.265C1239.36 884.469 1249.04 879.393 1253.47 879.224C1257.9 879.055 1273.31 891.102 1276.38 887.098Z" fill="#E5B76E"/>
<path d="M982.956 -30.3723C981.697 -23.8009 975.328 -14.6997 973.727 -10.8048C972.125 -6.90994 967.337 8.436 968.444 11.7916C969.55 15.1472 975.545 11.683 979.053 8.98936C982.562 6.29577 980.139 18.4259 979.119 22.5829C978.1 26.7398 984.666 40.1651 983.828 44.5446C982.99 48.924 966.673 65.4552 962.603 67.1807C958.533 68.9062 957.607 73.3766 958.541 81.6812C959.475 89.9859 954.943 102.006 952.812 108.182C950.681 114.358 959.23 120.077 957.825 131.191C956.419 142.305 964.65 129.739 968.678 125.88C972.705 122.022 984.493 116.479 990.413 111.911C996.333 107.342 990.397 97.0058 990.46 93.0581C990.522 89.1104 995.118 88.9578 998.484 85.6418C1001.85 82.3258 998.361 80.7631 999.38 76.6062C1000.4 72.4492 1017.54 61.9527 1018.83 55.0999C1020.11 48.247 1017.73 32.484 1019.5 26.8807C1021.27 21.2775 1016 10.1047 1009.74 2.79266C1003.48 -4.51938 997.365 -13.3374 997.48 -16.0632C997.596 -18.789 986.002 -28.9534 982.956 -30.3723Z" fill="#E5B76E"/>
<path d="M1111.41 608.474C1106.35 604.757 1093.78 603.621 1093.36 609.154C1092.18 624.689 1085.67 622.818 1079.87 624.039C1074.06 625.259 1072.1 640.412 1072.21 644.138C1072.27 646.659 1064.38 648.822 1057.6 654.062C1054.29 656.632 1060.58 663.142 1059.14 665.687C1056.83 669.795 1045.57 663.564 1044.84 668.436C1044.2 672.733 1045.52 686.601 1044.28 690.327C1041.63 698.266 1031.07 698.965 1028.74 708.785C1026.41 718.604 1031.15 720.926 1034.31 730.482C1036.29 736.506 1037.28 750.408 1035.49 759.052C1034.45 764.108 1029.88 761.458 1028.06 767.685C1023.15 784.614 1031.86 780.585 1037.6 787.656C1042.58 793.784 1048.08 801.881 1055.05 802.099C1063.33 802.352 1061.43 780.556 1065.07 779.861C1072.79 778.372 1080.78 786.907 1087.86 786.197C1094.93 785.488 1101.24 762.808 1101.24 762.808C1095.71 753.966 1082.82 743.214 1080.12 736.917C1091.52 745.586 1102.51 753.142 1103.59 753.112C1105.99 743.983 1106.26 728.225 1111.31 718.51C1113.79 713.756 1121.97 712.188 1123.21 710.179C1126.98 704.051 1128.16 695.765 1122.71 693.309C1117.26 690.853 1108.53 687.767 1108.74 682.458C1108.94 677.149 1115.99 672.336 1115.55 657.223C1115.12 642.109 1105.7 622.52 1111.41 608.474Z" fill="#E5B76E"/>
<path d="M168.664 148.371C171.169 145.212 179.586 143.864 185.031 141.763C190.476 139.663 193.016 133.313 192.51 129.886C192.004 126.459 197.253 124.331 198.127 123.616C199.002 122.902 203.129 124.261 205.884 125.104C208.64 125.947 214.45 117.503 217.586 116.586C220.722 115.67 229.51 102.5 225.515 99.16C221.519 95.8206 220.567 84.0496 222.088 80.6034C223.608 77.1572 217.701 69.6376 217.556 64.4491C217.411 59.2606 220.599 56.7499 223.689 51.4408C226.778 46.1317 226.033 38.4041 222.149 32.1855C217.407 24.6002 208.241 26.3745 203.958 22.068C197.197 15.2595 194.555 9.23103 194.555 9.23103C188.545 11.9788 184.272 12.9832 182.865 16.4395C181.458 19.8959 186.661 25.709 186.096 28.6475C185.531 31.586 180.739 37.8095 179.364 41.2985C177.529 45.9272 183.177 50.9928 182.231 54.6944C181.284 58.396 182.246 74.8054 178.141 80.0191C174.035 85.2327 170.41 91.8739 171.5 95.5574C172.59 99.241 166.056 106.42 162.331 109.875C158.606 113.329 160.401 115.68 159.997 120.222C159.593 124.764 157.245 130.02 161.366 133.236C166.179 137.002 169.248 144.044 168.664 148.371Z" fill="#E5B76E"/>
</g>
<defs>
<clipPath id="clip0_416_870">
<rect width="1280" height="720" fill="white"/>
</clipPath>
</defs>
</svg>
