<svg width="1280" height="720" viewBox="0 0 1280 720" fill="none" xmlns="http://www.w3.org/2000/svg">
<g clip-path="url(#clip0_416_982)">
<rect width="1280" height="720" fill="#FFFBF3"/>
<rect width="1280" height="720" fill="#023A2F"/>
<path d="M1064.5 164.437C1058.39 173.437 1062.8 156.864 1060.39 164.437C1057.97 172.009 1059.05 187.357 1059.05 187.357C1051.6 198.079 1050.49 217.642 1051.69 221.803C1052.88 225.964 1044.91 239.376 1040.52 246.763C1036.13 254.149 1038.92 271.088 1038.5 280.334C1038.08 289.58 1039.05 296.551 1040.57 304.905C1042.09 313.26 1033.46 322.62 1033.46 322.62C1026.84 313.227 1026.76 305.95 1023.82 297.338C1020.87 288.727 1016.16 278.338 1018.9 270.76C1021.63 263.182 1016.55 231.24 1018.43 224.87C1020.3 218.5 1027.39 223.574 1025.71 211.568C1024.69 204.296 1031.38 170.593 1035.91 167.034C1042.27 162.036 1043.72 159.797 1044.5 151C1044.73 148.365 1052.69 140 1056.5 140C1067.5 150.415 1062.5 151.937 1064.5 164.437Z" fill="#939960"/>
<path d="M1254.79 727.539C1257.7 720.311 1262.68 713.87 1259.58 706.041C1256.48 698.211 1264.08 691.519 1266.06 685.657C1268.03 679.796 1268.87 667.57 1271.13 660.561C1273.38 653.551 1282.11 644.896 1286.9 642.381C1291.69 639.866 1297.88 638.193 1296.19 629.806C1294.5 621.418 1300.41 603.561 1294.78 604.682C1289.15 605.803 1287.74 597.421 1290.56 592.396C1293.37 587.371 1294.78 572.57 1292.81 567.245C1290.84 561.92 1277.89 575.528 1262.68 573.478C1263.52 589.115 1267.56 596.562 1265.21 606.612C1264.36 610.242 1274.51 617.219 1270 621.407C1265.5 625.595 1261.83 626.437 1259.86 634.808C1257.9 643.179 1260.14 653.797 1254.79 661.895C1249.44 669.993 1243.81 687.593 1244.09 693.164C1244.37 698.736 1238.62 722.946 1235.46 729.251C1232.29 735.555 1246.34 729.89 1254.79 727.539Z" fill="#939960"/>
<path d="M1268.95 409.802C1264.27 403.567 1252.27 392.6 1249.18 388.203C1246.08 383.806 1247.14 361.662 1244.7 355.202C1242.25 348.741 1234.59 346.092 1234.27 342.448C1233.94 338.804 1238.3 323.711 1236.25 315.879C1234.2 308.047 1226.54 286.52 1223.52 282.302C1219.77 277.067 1216.95 271.899 1215.46 263.014C1213.96 254.13 1207.93 254.345 1205.85 268.561C1203.76 282.778 1204.27 286.366 1206.27 293.535C1208.26 300.704 1210.74 313.177 1211.12 317.485C1207.27 312.153 1201.74 302.961 1198.74 303.402C1195.73 303.843 1201.57 308.658 1202.32 316.944C1203.06 325.229 1205.2 352.766 1207.54 359.903C1209.88 367.039 1221.37 382.523 1227.08 393.47C1232.78 404.417 1253.29 420.033 1256.96 425.921C1260.64 431.808 1268.35 440.033 1268.35 440.033C1271.44 439.046 1274.6 438.241 1277.79 437.622C1273.93 427.277 1274.43 417.103 1268.95 409.802Z" fill="#939960"/>
<path d="M1169.43 262.275C1171.97 267.156 1166.13 273.823 1168.91 281.505C1166.02 289.755 1169.05 301.85 1171.76 309.216C1174.48 316.583 1172.19 319.557 1173 326.994C1173.82 334.431 1179.66 343.099 1182.49 351.089C1185.33 359.078 1180 366.13 1174.01 361.602C1168.02 357.075 1160.44 342.736 1158.03 335.296C1155.62 327.856 1148.55 299.809 1148.12 292.935C1147.68 286.061 1149.51 273.717 1145.39 265.664C1141.27 257.612 1132.84 240.554 1138.33 234.435C1143.83 228.317 1159.32 246.858 1167.14 243.157C1174.97 239.455 1166.88 257.394 1169.43 262.275Z" fill="#939960"/>
<path d="M1122.78 327.346C1123.13 333.579 1128.37 338.927 1129.84 343.121C1125.41 353.835 1125.97 363.946 1120.16 360.141C1114.35 356.335 1098.49 322.98 1093.75 316.606C1089.01 310.231 1086.82 298.469 1082.16 290.749C1077.5 283.029 1077.11 271.288 1076.1 262.057C1075.09 252.827 1079.92 247.631 1080.89 254.466C1081.86 261.301 1082.32 269.381 1082.88 272.655C1083.44 275.929 1089.86 282.012 1091.76 288.14C1093.66 294.268 1098.06 295.445 1096.45 289.96C1094.84 284.476 1090.34 267.946 1091.73 259.124C1093.12 250.301 1086.7 239.791 1085.44 230.349C1084.18 220.907 1089.64 205.189 1090.62 199.299C1091.6 193.409 1077.51 188.554 1089.23 186.553C1100.94 184.553 1109.22 210.48 1109.22 210.48C1109.52 217.119 1111.55 220.659 1113.3 224.295C1115.05 227.932 1108.06 238.181 1113.67 245.127C1113.93 247.119 1112.26 256.86 1115.74 265.367C1118.41 271.89 1118.77 285.389 1118.14 292.129C1117.51 298.869 1118.33 308.012 1121.78 308.966C1125.23 309.921 1122.43 321.114 1122.78 327.346Z" fill="#939960"/>
<path d="M1155.76 449.53C1157.87 440.656 1161.7 436.829 1159.37 433.477C1157.04 430.125 1141.68 425.101 1138.8 420.492C1135.91 415.882 1128.53 411.279 1119.97 410.863C1111.41 410.448 1120.28 397.877 1117.32 393.689C1114.37 389.501 1102.44 390.759 1095.1 376.1C1087.75 361.441 1084.8 354.322 1081 343.841C1077.19 333.359 1067.68 307 1067.68 307C1061.57 311.609 1055.23 313.703 1056.08 320.822C1056.92 327.941 1061.14 345.109 1062.41 352.228C1056.08 362.699 1059.84 374.427 1067.68 380.709C1075.51 386.991 1083.95 411.279 1091.56 420.492C1099.17 429.704 1117.13 436.468 1119.99 441.044C1122.86 445.621 1118.61 453.997 1122.42 458.606C1126.23 463.216 1135.48 460.033 1140.12 469.246" fill="#939960"/>
<path d="M1234.83 445.998C1232.19 436.637 1224.99 425.407 1218.59 419.792C1212.2 414.176 1200.09 394.181 1197.82 386.953C1195.54 379.725 1181.2 381.021 1174.4 382.246C1167.61 383.47 1155.14 369.621 1151.75 364C1146.82 376.357 1141.55 380.474 1147.97 384.968C1154.39 389.463 1159.3 388.714 1164.21 398.091C1169.12 407.468 1183.86 410.683 1188.13 416.424C1192.4 422.165 1205.5 443.379 1209.28 450.367C1213.05 457.354 1218.2 475.578 1230.11 484.189C1242.01 492.801 1238.23 489.433 1244.27 510.773C1250.32 532.113 1262.04 545.974 1266.76 546.701C1271.48 547.428 1276.75 540.336 1272.23 532.485C1267.71 524.633 1256.37 505.53 1256.37 499.914C1256.37 494.299 1260.91 487.557 1256 484.933C1251.09 482.309 1224.38 448.869 1234.83 445.998Z" fill="#939960"/>
<path d="M1250.07 804.676C1256.3 793.741 1281.75 779.694 1288.08 773.412C1294.42 767.13 1288.66 761.689 1291.33 757.501C1294 753.313 1299.07 751.219 1301.17 743.258C1303.28 735.297 1308.35 716.128 1312.58 710.452C1316.81 704.777 1316.38 698.888 1312.58 698.052C1308.78 697.215 1302.85 701.403 1297.16 708.938C1291.46 716.472 1289.35 721.923 1285.97 723.597C1282.59 725.27 1288.66 702.863 1291.33 697.948C1294 693.032 1303.28 666.236 1302.86 662.873C1302.44 659.51 1295.68 656.509 1289.74 658.854C1283.8 661.2 1280.87 668.007 1279.6 681.567C1278.34 695.127 1276.23 705.171 1272.85 713.126C1269.47 721.081 1268.62 734.904 1270.31 736.582C1272 738.261 1272.18 742.279 1268.51 743.28C1260.81 745.38 1262.08 756.55 1260.81 762.417C1259.54 768.283 1251.76 773.614 1244.15 785.282C1236.55 796.95 1238.66 824.633 1250.07 804.676Z" fill="#939960"/>
<path d="M1207.47 709.567C1203.13 721.049 1196.49 730.563 1196.21 736.424C1195.93 742.285 1200.71 742.848 1196.21 749.546C1191.7 756.244 1180.72 768.814 1178.16 774.397C1175.61 779.979 1179.03 781.187 1176.21 787.284C1173.4 793.38 1167.46 805.387 1165.79 809.018C1164.12 812.648 1158.47 814.622 1148.9 816.557C1139.32 818.493 1130.59 822.572 1128.06 826.547C1125.53 830.522 1125.81 840.566 1117.92 843.36C1110.03 846.154 1110.03 853.967 1102.15 857.318C1094.26 860.67 1096.8 847.827 1102.15 842.239C1107.49 836.651 1114.54 830.795 1118.2 821.582C1121.86 812.369 1134.54 806.491 1135.38 803.845C1136.22 801.199 1131.16 794.78 1137.63 790.018C1144.11 785.255 1152.27 781.379 1153.96 775.255C1154.99 771.699 1154.99 767.925 1153.96 764.369C1161.01 757.108 1167.48 753.756 1168.89 745.38C1170.3 737.003 1174.24 736.233 1177.34 729.639C1180.43 723.045 1187 717.976 1191.01 707.599C1196.15 694.34 1196.01 687.587 1196.01 687.587C1212.22 682.65 1211.48 698.938 1207.47 709.567Z" fill="#939960"/>
<path d="M1223.64 659.609C1228.46 654.836 1229.56 642.299 1229.56 633.911C1229.56 625.524 1237.73 612.959 1237.73 612.959C1230.4 598.443 1234.91 588.109 1232.94 579.454C1230.96 570.799 1227.02 564.937 1232.66 559.634C1238.29 554.33 1233.2 552.094 1227.87 542.323C1222.53 532.553 1217.73 515.242 1217.73 511.333C1217.73 507.423 1205.7 499.884 1202.71 496.816C1199.72 493.749 1196.32 478.385 1190.98 466.662C1185.63 454.94 1171.69 442.643 1173.38 457.652C1175.07 472.66 1179.58 471.408 1180.49 478.106C1181.39 484.804 1176.62 496.953 1180.49 501.562C1184.35 506.171 1189.85 510.775 1192.8 519.567C1195.76 528.359 1193.22 544.581 1197.05 553.865C1200.87 563.149 1205.07 571.105 1207.18 579.476C1209.29 587.847 1203.8 604.189 1205.49 616.333C1207.18 628.477 1205.73 643.671 1202.73 649.554C1199.72 655.437 1199.45 666.586 1199.45 666.586C1206.47 664.634 1220.83 662.398 1223.64 659.609Z" fill="#939960"/>
<path d="M1174.27 664.577C1174.4 651.497 1181.21 640.034 1179.88 634.951C1178.56 629.869 1171.81 621.789 1173.16 614.639C1175.19 603.938 1176.68 585.467 1175.6 582.138C1174.51 578.81 1157.07 578.627 1158.19 573.435C1159.31 568.243 1166.78 569.665 1167.48 558.434C1168.18 547.203 1172.54 533.238 1169.5 532.662C1166.46 532.085 1153.45 534.16 1148.28 531.193C1143.11 528.226 1132.41 515.112 1129.11 511.364C1125.8 507.616 1127.61 493.556 1124.43 487.66C1121.24 481.764 1103.51 474.411 1096.22 450.865C1088.54 459.642 1082.94 473.946 1097.05 487.616C1106.91 497.217 1103.38 514.171 1107.35 518.904C1111.33 523.637 1116.79 523.537 1118.62 528.998C1120.45 534.46 1122.65 542.26 1129.79 552.993C1136.94 563.725 1136.34 571.307 1139.42 579.254C1142.51 587.201 1138.4 586.156 1145.88 599.655C1153.35 613.154 1150.21 628.191 1154.45 636.1C1158.68 644.009 1161.36 655.596 1159.99 665.849C1158.34 678.168 1147.54 696.734 1161.37 695.952C1165.32 695.725 1174.11 677.337 1174.27 664.577Z" fill="#939960"/>
<path d="M1107.66 767.194C1116.17 759.682 1125.08 756.474 1125.75 746.389C1126.42 736.303 1136.33 733.304 1142.41 722.404C1148.48 711.505 1149.91 702.819 1149.13 700.996C1148.36 699.173 1137.07 696.468 1133.62 698.45C1130.17 700.433 1130.29 704.908 1123.57 706.691C1116.84 708.474 1123.53 694.012 1125 687.593C1126.47 681.174 1122.86 664.033 1125.89 656.041C1128.91 648.048 1115.1 648.73 1112.64 658.537C1110.18 668.345 1115.18 671.699 1110.53 687.047C1105.87 702.395 1093.84 721.796 1093.68 727.998C1093.52 734.2 1085.34 752.672 1079.77 757.12C1074.19 761.568 1079.7 764.462 1088.59 764.11C1097.48 763.757 1101.23 763.735 1107.66 767.194Z" fill="#939960"/>
<path d="M1345.54 414.074C1341.07 405.873 1322.4 388.743 1319.84 384.735C1317.29 380.727 1309.12 358.398 1306.21 356.85C1303.3 355.303 1293.03 344.821 1287.62 334.089C1282.21 323.356 1283.96 297.636 1282.44 285.175C1280.92 272.714 1270.31 257.154 1267.31 267.241C1264.31 277.329 1267.53 284.738 1266.61 299.068C1265.68 313.399 1265.32 340.726 1271.94 349.371C1278.55 358.015 1289.33 375.211 1297.29 392.685C1305.24 410.16 1316.97 411.958 1324.08 426.584C1331.18 441.21 1343.17 437.066 1354.03 443.436C1358.73 446.208 1351.78 425.48 1345.54 414.074Z" fill="#939960"/>
<path d="M1003.15 160.449C1003.35 173.954 1003.1 180.197 998.209 189.912C992.43 191.292 988.147 195.057 984.348 200.366C980.549 205.674 975.128 209.555 974.188 202.907C973.247 196.259 980.799 171.225 978.787 163.05C976.774 154.875 978.717 144.445 984.145 134.566C989.572 124.686 997.777 118.352 996.202 111.241C994.627 104.131 995.457 99.4961 999.962 87.5827C1004.47 75.6693 1001.34 69.9958 1015.95 65.8671C1018.87 65.4529 1027.15 70.3843 1021.57 84.5254C1014.34 89.9159 1015.7 107.467 1015.89 118.345C1016.09 129.223 1008.36 130.952 1009.58 140.084C1010.8 149.216 1002.94 146.943 1003.15 160.449Z" fill="#939960"/>
<path d="M1078.47 594.383C1073.82 604.209 1073.71 610.456 1074.23 623.953C1074.75 637.451 1066.84 635.362 1068.27 644.463C1069.7 653.564 1062.02 655.473 1062.47 666.343C1062.92 677.214 1058.4 698.05 1051.3 703.608C1044.2 709.166 1033.63 715.847 1028.86 724.844C1026.28 729.748 1017.77 739.231 1015.07 764.434C1014.35 771.152 1000.75 779.482 1000.5 782.223C999.964 788.257 1009.94 784.866 1014.58 782.803C1027.44 777.09 1028.89 762.474 1032.94 754.162C1036.99 745.85 1055.7 738.05 1058.38 735.24C1061.06 732.431 1063.5 724.773 1063.65 718.807C1063.81 712.84 1074.9 708.739 1079.12 696.718C1083.35 684.697 1084.07 680.055 1082.33 672.983C1080.59 665.912 1088.64 659.387 1093.84 649.378C1099.03 639.369 1100.73 628.907 1098.53 620.781C1096.33 612.656 1103.29 587.452 1102.2 580.827C1101.1 574.203 1095.77 578.21 1092.1 583.606C1088.42 589.002 1084.22 592.867 1078.47 594.383Z" fill="#939960"/>
<path d="M59.9124 677.389C58.3659 687.663 56.4781 699.329 52.7266 701.551C48.9751 703.773 39.6653 703.945 42.5235 710.207C45.3817 716.469 36.3164 717.221 33.366 727.438C30.4155 737.654 22.9237 748.528 20.4571 753.725C17.9906 758.921 24.0715 768.68 22.6387 776.167C21.2059 783.655 13.0033 805.111 8.87096 809.692C4.7386 814.273 0.0483368 832.528 -0.962164 836.104C13.4464 835.291 15.464 834.257 19.0108 823.239C22.5577 812.22 32.704 805.356 35.5354 798.194C38.3667 791.031 38.5769 792.72 37.6561 787.659C36.7353 782.598 50.3605 766.382 51.2817 757.62C52.2028 748.858 45.3996 742.988 55.0228 734.997C64.6461 727.007 75.8265 708.748 78.0491 702.557C80.2717 696.365 83.0401 687.526 83.0401 687.526C76.1624 679.726 65.1415 673.69 59.9124 677.389Z" fill="#939960"/>
<path d="M163.03 710.403C162.736 699.781 171.905 687.082 174.629 679.614C177.352 672.146 176.902 656.767 176.902 656.767C184.774 646.358 186.681 626.856 185.659 622.65C184.638 618.444 193.144 605.368 197.832 598.166C202.52 590.965 200.425 573.926 201.222 564.705C202.02 555.484 201.337 548.48 200.159 540.07C198.981 531.661 207.983 522.659 207.983 522.659C214.216 532.315 213.99 539.589 216.584 548.314C219.177 557.038 223.458 567.61 220.417 575.07C217.377 582.531 221.15 614.653 219.016 620.941C216.883 627.229 210.009 621.871 211.197 633.936C211.917 641.243 203.861 674.645 199.187 678.017C192.63 682.751 186.317 699.331 185.183 708.09C184.841 710.713 178.572 730.907 175.379 734.733C172.186 738.559 175.683 711.593 163.03 710.403Z" fill="#939960"/>
<path d="M245.469 53.6523C249.018 43.6356 262.144 35.088 267.377 29.103C272.611 23.118 277.716 8.60332 277.716 8.60332C288.807 1.72458 297.605 -15.784 298.166 -20.0757C298.727 -24.3674 311.369 -33.5057 318.335 -38.5374C325.301 -43.5691 329.478 -60.2198 333.541 -68.5357C337.604 -76.8516 339.488 -83.6328 341.416 -91.9028C343.343 -100.173 354.982 -105.331 354.982 -105.331C357.322 -94.0789 354.493 -87.3733 353.778 -78.2979C353.062 -69.2224 353.246 -57.8208 347.724 -51.9547C342.202 -46.0886 334.156 -14.7631 329.902 -9.66436C325.649 -4.56561 321.17 -12.0368 317.93 -0.354693C315.972 6.72198 296.434 34.9862 290.865 36.4518C283.043 38.5085 271.186 51.7056 266.97 59.4666C265.712 61.7934 252.595 78.3777 248.234 80.7959C243.872 83.2141 256.841 59.3135 245.469 53.6523Z" fill="#939960"/>
<path d="M-15.8456 401.805C-11.6788 409.521 -0.142742 423.722 2.5697 429.13C5.28215 434.537 0.425868 459.008 2.07494 466.605C3.72402 474.202 11.8039 478.422 11.565 482.533C11.3262 486.644 3.95602 502.716 4.93807 511.774C5.92011 520.832 10.8663 546.064 13.5326 551.262C16.8373 557.711 18.4682 577.822 18.6566 587.959C18.845 598.096 25.5884 598.858 30.2747 583.382C34.961 567.907 35.6286 549.936 34.5996 541.625C33.5706 533.315 32.8897 519.021 33.1755 514.163C36.5737 520.737 41.2079 531.887 44.6222 531.894C48.0365 531.902 42.341 525.574 42.8865 516.228C43.432 506.882 45.6272 475.879 44.2105 467.547C42.7939 459.215 32.5759 440.072 28.0444 426.94C23.513 413.808 3.28782 393.021 0.170965 385.856C-2.94589 378.692 -10.1539 368.258 -10.1539 368.258C-13.7649 368.842 -17.407 369.214 -21.0616 369.372C-18.4876 381.527 -20.7302 392.769 -15.8456 401.805Z" fill="#939960"/>
<path d="M14.6349 620.563C11.5067 631.379 10.6685 637.304 10.9999 642.593C11.3314 647.882 5.96704 667.904 1.87281 671.82C-2.22143 675.735 -14.9145 697.27 -15.4774 704.361C-16.0403 711.451 -22.5512 726.716 -28.1804 735.663C-33.8097 744.61 -51.4235 765.906 -50.7446 776.495C-50.0658 787.084 -42.7826 779.042 -37.5025 772.483C-32.2223 765.923 -10.7448 743.543 -5.79685 738.42C-0.848946 733.298 -0.0024373 724.353 1.60369 715.969C3.20981 707.586 3.51513 703.724 8.20219 701.775C12.8893 699.827 24.5099 693.713 24.5099 693.713C25.9083 688.812 33.1785 649.572 33.0138 642.074C32.8491 634.576 36.4711 617.557 37.1421 613.853C28.3833 619.165 16.4436 621.698 14.6349 620.563Z" fill="#939960"/>
<path d="M61.1042 520.042C62.2153 529.828 58.2579 543.533 59.8832 549.969C61.5085 556.405 59.6925 570.066 59.1067 578.792C58.2959 590.885 57.5167 594.826 56.9009 606.834C56.3441 617.8 61.8839 622.579 68.0733 619.083C73.9879 622.323 84.59 630.039 84.59 630.039C87.7185 618.276 92.016 614.609 91.4687 608.978C90.9214 603.347 86.5522 599.787 88.2533 585.99C89.9544 572.193 93.3767 562.214 90.7884 551.618C88.2001 541.023 94.2631 515.409 95.675 507.225C97.0869 499.042 96.6218 464.17 95.8725 454.771C95.1233 445.373 90.2267 426.436 84.4649 419.454C78.703 412.471 70.4861 419.255 71.5818 429.418C72.6774 439.581 77.1101 451.379 75.9897 460.33C74.8694 469.28 71.3549 472.13 72.4817 481.528C73.6086 490.926 68.5618 513.227 61.1042 520.042Z" fill="#939960"/>
<path d="M119.679 465.647C120.723 471.162 126.255 478.83 125.519 486.68C124.782 494.529 119.177 507.981 123.305 509.824C127.432 511.667 126.725 523.239 124.673 531.539C122.622 539.838 120.53 556.766 122.629 565.416C125.37 576.696 121.455 588.548 121.401 591.085C127.094 600.817 116.448 612.301 117.94 617.172C119.432 622.043 121.304 626.847 120.422 635.194C119.54 643.542 112.549 669.895 111.297 679.787C110.046 689.679 103.105 704.488 99.8363 708.546C96.568 712.604 91.019 724.411 91.4 728.887C91.7811 733.362 78.2179 738.401 77.8016 743.107C77.3852 747.812 91.9682 742.59 99.0632 734.469C106.158 726.348 104.838 724.089 112.574 721.05C120.31 718.011 129.427 715.592 128.046 708.001C126.665 700.409 122.055 702.864 125.486 694.692C128.917 686.52 139.926 676.074 140.856 668.845C141.786 661.616 139.188 659.835 141.516 652.663C143.844 645.491 153.621 626.89 153.828 614.86C154.034 602.83 147.998 588.493 151.397 577.736C154.796 566.98 152.291 545.487 151.314 538.333C150.336 531.179 155.61 533.48 156.827 541.491C158.043 549.503 164.896 558.308 164.982 562.503C165.068 566.698 164.116 576.876 164.04 585.596C163.963 594.315 170.96 588.735 171.438 577.016C171.916 565.298 173.645 550.561 169.286 540.04C164.927 529.52 164.41 514.418 159.699 505.563C154.987 496.708 141.492 452.063 134.962 446.215C128.431 440.367 127.222 453.101 119.679 465.647Z" fill="#939960"/>
<path d="M114.75 348.169C111.147 356.549 106.708 359.66 108.433 363.363C110.158 367.066 124.425 374.653 126.473 379.688C128.52 384.724 135.001 390.527 143.365 392.406C151.729 394.286 140.828 405.145 143.023 409.779C145.218 414.413 157.182 415.222 161.899 430.923C166.616 446.625 168.303 454.145 170.252 465.124C172.201 476.104 177.048 503.705 177.048 503.705C183.861 500.214 190.458 499.238 190.851 492.08C191.244 484.922 190.028 467.283 190.001 460.053C198.041 450.826 196.344 438.625 189.703 431.091C183.063 423.556 178.917 398.18 173.006 387.798C167.095 377.416 150.562 367.67 148.525 362.669C146.489 357.669 152.107 350.145 149.149 344.951C146.191 339.757 136.531 341.304 133.535 331.43" fill="#939960"/>
<path d="M13.4595 285.093C12.8723 294.499 16.5279 307.612 21.3796 315.437C26.2314 323.262 31.9665 346.286 31.7674 353.655C31.5684 361.025 47.5519 366.393 55.3508 368.401C63.1498 370.409 71.5353 388.207 73.1394 394.676C83.0048 386.072 90.224 384.854 84.9364 378.002C79.6487 371.15 74.0643 369.58 72.2041 359.131C70.3439 348.682 55.5878 339.178 53.0821 332.207C50.5763 325.236 44.2077 300.69 42.6984 292.851C41.1892 285.013 42.3165 266.695 32.6135 253.745C22.9104 240.796 25.7568 245.463 27.0727 224.01C28.3886 202.557 20.8051 185.084 15.9706 182.307C11.1361 179.529 2.82888 183.357 4.83038 192.293C6.83188 201.229 12.0612 223.121 9.996 228.045C7.93081 232.969 0.550419 236.825 4.89408 241.353C9.23774 245.881 25.8129 287.314 13.4595 285.093Z" fill="#939960"/>
<path d="M91.4978 107.214C85.9566 111.123 82.7957 123.305 81.4062 131.576C80.0167 139.848 69.8793 150.885 69.8793 150.885C74.6943 166.414 68.5393 175.859 69.0519 184.721C69.5645 193.584 72.4811 200.018 66.0432 204.314C59.6054 208.61 64.2549 211.659 67.8989 222.179C71.5428 232.698 73.4092 250.565 72.7615 254.42C72.1138 258.276 82.7273 267.704 85.1686 271.225C87.6098 274.745 88.4129 290.459 91.7443 302.906C95.0756 315.352 106.788 329.789 107.609 314.708C108.429 299.627 103.768 300.113 103.988 293.358C104.207 286.604 110.917 275.411 107.874 270.226C104.83 265.041 100.169 259.59 98.7081 250.43C97.2476 241.269 102.442 225.692 100.206 215.902C97.9698 206.112 95.1467 197.571 94.4521 188.966C93.7576 180.361 101.879 165.154 102.224 152.898C102.57 140.643 106.516 125.898 110.457 120.594C114.397 115.291 116.514 104.342 116.514 104.342C109.267 105.104 94.7367 104.93 91.4978 107.214Z" fill="#939960"/>
<path d="M133.326 173.118C133.175 186.199 126.343 197.652 127.664 202.736C128.986 207.82 135.723 215.911 134.356 223.059C132.312 233.756 130.791 252.225 131.874 255.555C132.958 258.885 150.392 259.095 149.266 264.285C148.14 269.475 140.671 268.041 139.955 279.272C139.239 290.502 134.856 304.46 137.896 305.041C140.936 305.622 153.948 303.567 159.113 306.542C164.278 309.516 174.961 322.647 178.257 326.4C181.553 330.153 179.724 344.209 182.899 350.11C186.074 356.011 203.801 363.391 211.05 386.948C218.748 378.183 224.364 363.887 210.282 350.195C200.43 340.58 203.992 323.631 200.022 318.892C196.051 314.153 190.589 314.245 188.767 308.781C186.945 303.317 184.762 295.513 177.631 284.77C170.5 274.027 171.114 266.446 168.041 258.494C164.969 250.542 169.071 251.593 161.617 238.083C154.162 224.573 157.325 209.541 153.105 201.626C148.884 193.711 146.223 182.119 147.609 171.868C149.279 159.551 160.106 141.002 146.266 141.764C142.322 141.984 133.499 160.359 133.326 173.118Z" fill="#939960"/>
<path d="M206.965 286.687C210.303 295.412 226.517 314.879 228.518 319.193C230.519 323.506 235.636 346.726 238.312 348.648C240.988 350.569 249.772 362.328 253.699 373.686C257.626 385.045 252.46 410.301 252.304 422.853C252.148 435.405 260.584 452.242 264.905 442.645C269.226 433.048 267.022 425.276 269.85 411.197C272.678 397.118 276.682 370.083 271.279 360.633C265.875 351.184 257.489 332.704 251.937 314.324C246.384 295.944 235.001 292.597 229.908 277.153C224.815 261.71 212.384 264.218 202.472 256.456C198.182 253.082 202.309 274.552 206.965 286.687Z" fill="#939960"/>
<path d="M264.606 638.011C257.003 645.787 254.868 651.658 250.968 664.59C247.068 677.522 240.268 672.974 238.662 682.046C237.056 691.118 229.167 690.422 226.056 700.848C222.946 711.274 211.895 729.507 203.373 732.452C194.851 735.398 182.681 738.275 175.245 745.231C171.193 749.026 160.037 755.219 149.302 778.175C146.443 784.296 130.865 787.745 129.741 790.261C127.276 795.789 137.816 795.83 142.87 795.392C156.89 794.169 163.017 780.821 169.551 774.284C176.085 767.748 196.317 766.449 199.763 764.664C203.209 762.879 208.009 756.432 210.096 750.84C212.184 745.249 224.007 744.98 231.912 734.993C239.817 725.006 242.012 720.841 242.668 713.588C243.323 706.334 253.061 702.785 261.229 695.016C269.396 687.247 274.409 677.897 274.97 669.497C275.531 661.096 290.317 639.53 291.436 632.91C292.556 626.289 286.214 628.345 280.984 632.252C275.754 636.159 270.532 638.447 264.606 638.011Z" fill="#939960"/>
<path d="M1122.64 -97.4758C1113.04 -94.6562 1097.28 -99.3921 1094.86 -95.15C1092.44 -90.9079 1076.79 -83.8982 1070.68 -83.2397C1064.57 -82.5812 1059.31 -82.1868 1048.93 -75.5672C1038.54 -68.9476 1039.6 -62.3766 1031.69 -58.9752C1023.77 -55.5738 1024.71 -66.0554 1012.69 -56.4916C1000.66 -46.9279 992.964 -36.664 992.564 -33.921C992.164 -31.1779 993.617 -14.7391 988.53 -9.5799C983.443 -4.42071 977.263 13.335 976.946 20.1095C976.628 26.8839 982.339 39.0008 977.831 46.9953C973.323 54.9898 969.962 56.0802 967.512 63.723C965.063 71.3659 968.459 71.8954 976.534 68.7292C984.61 65.563 984.898 57.1851 990.934 47.817C996.969 38.449 1009.14 24.2157 1009.14 24.2157C1004.97 11.5336 1005.21 9.96925 1012.82 2.4135C1020.43 -5.14225 1024.88 -11.6248 1026.55 -17.2075C1028.21 -22.7903 1042.92 -32.9604 1050.09 -36.8635C1057.27 -40.7666 1070.31 -46.7768 1073.86 -49.1715C1077.42 -51.5662 1076.38 -54.5327 1079.08 -59.3306C1081.78 -64.1284 1095.65 -68.5404 1100.89 -70.5414C1106.12 -72.5425 1122.22 -80.4708 1127.24 -83.7124C1132.26 -86.9539 1131.78 -100.142 1122.64 -97.4758Z" fill="#939960"/>
<path d="M979.091 673.533C975.227 682.773 961.657 692.058 963.436 696.606C965.214 701.155 960.83 717.733 957.503 722.898C954.176 728.062 951.17 732.403 949.797 744.641C948.424 756.879 954.197 760.183 951.862 768.477C949.527 776.771 941.969 769.455 941.851 784.817C941.733 800.18 944.872 812.618 946.759 814.654C948.647 816.689 962.34 825.902 963.156 833.09C963.973 840.278 973.903 856.256 978.962 860.761C984.021 865.265 997.045 868.44 1000.44 876.971C1003.83 885.502 1002.56 888.801 1006.96 895.51C1011.37 902.219 1013.88 899.909 1016.52 891.639C1019.17 883.369 1012.8 877.878 1009.31 867.296C1005.82 856.714 1002.37 838.302 1002.37 838.302C989.897 833.57 988.82 832.406 987.734 821.737C986.647 811.067 984.39 803.532 981.068 798.725C977.747 793.919 979.11 776.093 980.585 768.057C982.06 760.021 985.575 746.103 985.951 741.834C986.328 737.565 983.363 736.507 981.325 731.389C979.286 726.271 984.58 712.714 986.316 707.383C988.052 702.051 992 684.55 992.635 678.607C993.27 672.664 982.76 664.749 979.091 673.533Z" fill="#939960"/>
<path d="M-115.169 130.516C-116.592 141.206 -116.868 148.907 -110.746 155.186C-108.687 157.297 -107.947 156.05 -104.445 159.466C-100.943 162.881 -101.601 170.477 -97.3017 180.367C-93.0024 190.257 -92.4936 207.422 -84.583 212.732C-76.6725 218.041 -78.4433 229.747 -76.2447 236.555C-74.0461 243.362 -56.3446 261.13 -52.6536 268.861C-48.9625 276.593 -46.1883 292.778 -44.9228 298.793C-43.6574 304.808 -38.9545 316.282 -36.2484 323.371C-33.5424 330.459 -32.0732 340.673 -32.841 342.204C-20.8783 336.703 -16.473 331.24 -21.3206 319.227C-26.1682 307.214 -27.0189 301.668 -26.9465 290.689C-26.874 279.709 -29.7042 274.392 -31.3108 268.172C-32.9174 261.951 -23.161 272.702 -20.804 279.576C-18.4471 286.449 -15.8799 297.504 -12.5631 302.475C-9.24622 307.446 -3.47502 301.63 -6.86947 292.991C-10.2639 284.353 -16.496 259.72 -20.8796 254.511C-25.2632 249.301 -31.3864 243.107 -33.1262 237.486C-34.866 231.865 -37.6686 223.288 -39.3309 219.103C-40.9933 214.919 -46.102 213.155 -50.9091 208.055C-55.7162 202.955 -58.5361 187.533 -60.1427 181.313C-74.9042 178.208 -74.7611 168.638 -79.9978 159.623C-85.2346 150.607 -87.0624 138.611 -99.1157 130.249C-107.901 124.155 -114.129 119.128 -114.129 119.128C-114.492 123.277 -114.535 125.733 -115.169 130.516Z" fill="#939960"/>
<path d="M37.2398 -20.5425C30.6116 -19.1097 22.9413 -9.13178 18.4298 -2.06118C13.9183 5.00942 0.273541 11.2076 0.273541 11.2076C-1.36309 27.3832 -10.7197 33.6713 -13.7114 42.0295C-16.7031 50.3876 -16.5326 57.4492 -24.1375 58.888C-31.7425 60.3268 -28.6541 64.9501 -29.4111 76.0573C-30.1681 87.1645 -35.4324 104.34 -37.5353 107.635C-39.6381 110.931 -33.5534 123.757 -32.6821 127.952C-31.8107 132.146 -37.2127 146.925 -39.0104 159.683C-40.8081 172.442 -35.6689 190.308 -29.02 176.747C-22.3711 163.185 -26.8519 161.812 -24.0097 155.68C-21.1674 149.548 -10.6178 141.868 -11.3926 135.906C-12.1675 129.944 -14.328 123.105 -12.0925 114.102C-9.85691 105.099 1.01242 92.7909 2.77981 82.9057C4.54719 73.0205 5.28649 64.0553 8.01003 55.8633C10.7336 47.6713 24.152 36.847 29.2597 25.701C34.3675 14.5551 43.7621 2.52536 49.4617 -0.816635C55.1613 -4.15863 61.3886 -13.4099 61.3886 -13.4099C54.4203 -15.5406 41.1135 -21.3786 37.2398 -20.5425Z" fill="#939960"/>
<path d="M26.0954 153.295C21.215 151.692 23.9466 142.106 24.0931 139.235C24.6797 127.568 20.3054 108.681 24.6311 101.196C28.9568 93.7115 47.2281 77.7814 52.5976 69.713C57.967 61.6446 70.1017 76.1846 70.1017 76.1846C66.0239 78.4681 64.5799 91.3463 62.8817 95.1607C61.1835 98.9751 58.8969 97.1653 51.866 98.4043C51.866 98.4043 50.7573 111.047 46.6682 115.365C42.5792 119.682 36.1067 131.056 35.1282 136.437C34.1498 141.818 30.9758 154.899 26.0954 153.295Z" fill="#939960"/>
<path d="M248.519 -83.4944C238.92 -80.6636 223.15 -85.3811 220.736 -81.1362C218.321 -76.8912 202.679 -69.8633 196.571 -69.1977C190.464 -68.532 185.202 -68.1314 174.825 -61.4997C164.448 -54.868 165.518 -48.2982 157.607 -44.8876C149.695 -41.477 150.62 -51.9596 138.608 -42.3818C126.596 -32.804 118.91 -22.5311 118.513 -19.7876C118.116 -17.0441 119.588 -0.607001 114.507 4.55813C109.427 9.72327 103.267 27.4862 102.957 34.261C102.648 41.0359 108.373 53.146 103.874 61.1458C99.3759 69.1456 96.0155 70.2399 93.575 77.8856C91.1346 85.5313 94.5313 86.0568 102.603 82.8812C110.675 79.7055 110.953 71.3274 116.978 61.9522C123.002 52.5771 135.154 38.3296 135.154 38.3296C130.976 25.6524 131.205 24.0878 138.809 16.5231C146.413 8.9585 150.854 2.47076 152.514 -3.11392C154.175 -8.69859 168.865 -18.8859 176.038 -22.7974C183.211 -26.7089 196.241 -32.7343 199.792 -35.1332C203.343 -37.532 202.303 -40.4973 205 -45.2983C207.697 -50.0993 221.557 -54.5275 226.793 -56.5347C232.028 -58.5418 248.113 -66.489 253.131 -69.7364C258.149 -72.9838 257.654 -86.1716 248.519 -83.4944Z" fill="#939960"/>
<path d="M161.48 111.526C168.607 102.192 168.167 89.7461 172.479 86.1806C176.791 82.615 183.002 81.1427 183.002 81.1427C185.79 70.9534 187.746 51.9962 195.566 47.5112C203.386 43.0263 209.178 39.848 217.369 27.2951C225.561 14.7422 243.662 -6.01453 251.126 -9.0254C258.59 -12.0363 272.14 -7.97221 278.941 -14.6002C285.742 -21.2281 291.614 -28.4587 298.71 -32.6818C305.807 -36.9049 311.335 -40.6793 315.772 -44.367C319.429 -47.4083 331.622 -53.8848 337.588 -55.1475C343.554 -56.4101 333.26 -66.8306 322.151 -62.0124C311.042 -57.1943 311.266 -57.014 305.065 -61.3153C291.254 -54.0711 285.002 -47.2561 279.533 -44.551C274.064 -41.846 274.922 -43.3867 267.557 -42.7554C260.191 -42.124 256.05 -37.9588 248.219 -30.7962C240.388 -23.6337 232.851 -18.6446 222.091 -12.6189C211.33 -6.59324 200.775 4.20176 195.309 11.8761C189.843 19.5504 179.302 24.9899 175.545 29.5671C171.789 34.1442 174.117 40.4169 170.391 49.1673C166.665 57.9177 163.182 50.7963 157.046 60.2249C150.909 69.6534 149.88 88.6597 147.261 94.6189C144.642 100.578 138.484 112.568 138.484 112.568C144.899 117.134 156.302 118.293 161.48 111.526Z" fill="#939960"/>
</g>
<defs>
<clipPath id="clip0_416_982">
<rect width="1280" height="720" fill="white"/>
</clipPath>
</defs>
</svg>
