<svg width="1280" height="720" viewBox="0 0 1280 720" fill="none" xmlns="http://www.w3.org/2000/svg">
<g clip-path="url(#clip0_416_553)">
<rect width="1280" height="720" fill="#FFFBF3"/>
<rect width="1280" height="720" fill="#023A2F"/>
<path d="M255.353 62.8353C253.826 57.3754 249.358 54.9075 247.674 47.5037C245.99 40.1 246.697 28.6306 245.98 26.0304C245.262 23.4302 243.466 23.303 242.738 19.5375C242.011 15.772 245.008 11.3502 244.83 7.83401C244.652 4.31789 245.252 -11.5022 247.236 -16.9468C249.318 -22.6612 246.382 -24.4828 244.458 -26.4317C242.535 -28.3806 240.942 -19.0178 239.324 -24.0249C238.077 -31.1487 236.596 -39.7991 236.067 -45.8748C235.36 -53.8993 234.576 -53.4261 228.999 -54.5252C226.191 -55.0849 226.257 -39.5091 220.858 -37.377C218.085 -36.283 213.734 -23.3786 212.833 -13.9701C209.709 -36.9852 217.769 -49.5588 218.807 -56.0619C219.845 -62.565 218.329 -66.5034 217.739 -69.2919C217.148 -72.0804 209.185 -67.7908 206.819 -67.5466C204.152 -60.5957 206.585 -49.7369 204.814 -45.5949C203.043 -41.4529 199.491 -46.1038 200.158 -37.7892C200.824 -29.4746 201.323 -24.6202 200.077 -15.5933C198.83 -6.56634 196.886 -1.44733 200.077 8.55151C203.267 18.5504 202.555 24.1629 202.575 28.7985C202.575 32.3961 206.61 46.6743 209.444 54.9431C210.854 58.79 211.027 63.7054 211.388 68.1222C211.749 72.539 214.874 72.2795 218.599 75.1341C222.323 77.9888 222.802 83.1892 224.608 85.3976C226.414 87.606 232.108 84.7514 234.938 80.7213C237.767 76.6912 237.584 73.5109 240.586 70.5443C243.588 67.5778 244.433 69.084 247.313 70.5443C250.193 72.0047 256.899 68.3003 255.353 62.8353Z" fill="#ED824C"/>
<path d="M29.9587 131.973C30.039 125.098 29.6667 118.226 28.8443 111.4C28.483 107.975 29.572 104.006 29.4499 98.5515C29.3277 93.0967 30.9204 85.1383 29.6025 75.2259C28.076 63.843 29.0275 55.8134 29.0275 49.5801C29.0275 43.3467 29.6178 26.2443 29.6178 26.2443C25.8116 27.5317 17.0747 28.122 13.0395 28.468C4.69445 26.7278 8.45991 21.7003 6.31767 17.0698C3.97697 12.078 -0.439812 17.3853 -7.98093 18.2045C-17.6897 18.9525 -22.0658 24.672 -27.3222 24.672C-32.5786 24.672 -34.1713 31.1852 -34.7361 36.8843C-35.3009 42.5834 -37.2803 65.9242 -39.3615 70.5547C-41.4427 75.1852 -49.0296 93.9617 -49.0296 98.9891C-49.0296 104.017 -52.1489 124.976 -52.1489 124.976C-52.1489 124.976 -55.0137 138.338 -55.0137 139.682C-55.0137 141.025 -52.7493 140.389 -50.836 139.682C-48.9228 138.974 -42.3281 138.155 -39.7075 137.137C-37.087 136.12 -31.2302 105.334 -24.4421 82.6908C-17.99 105.319 -28.9149 141.865 -28.9149 141.865C-27.3884 142.765 -27.3884 143.096 -24.6966 144.47C-24.6966 144.47 -10.5099 151.12 -2.94336 148.871C-1.21837 148.988 0.175877 147.94 1.32078 147.101C1.83981 146.822 2.34865 146.522 2.84732 146.2C4.4044 145.732 11.5893 141.681 11.5893 144.017C11.5893 146.353 12.663 147.604 16.0163 148.693C19.3696 149.782 27.5569 151.706 28.9919 152.642C30.4268 153.578 29.8417 142.261 29.9587 131.973Z" fill="#ED824C"/>
<path d="M149.564 136.786C146.668 131.25 141.178 120.335 139.651 110.769C138.125 101.203 135.535 92.8881 132.334 91.1224C129.133 89.3567 129.937 84.0749 127.591 73.496C125.246 62.917 121.816 43.1127 119.959 36.228C118.102 29.3433 118.89 23.1354 114.926 22.7995C110.962 22.4637 102.465 22.0872 100.17 21.5987C103.604 33.699 104.24 80.5995 99.7525 92.5523C99.7525 72.0254 90.8375 25.0385 89.6926 22.3976C88.8733 20.4945 85.4284 19.7057 83.2098 21.3493C83.2098 21.3493 70.4327 26.6057 65.1305 26.2699C62.0774 25.5422 59.4671 24.9469 59.4671 24.9469C58.3221 18.3318 59.0091 13.798 57.4673 11.9814C55.3963 9.54916 49.0408 9.39142 48.0434 10.6483C47.0461 11.9051 50.547 22.479 49.3715 36.5435C48.481 47.1275 47.443 63.7668 49.3715 71.1909C51.3 78.615 52.9029 88.4917 51.6206 93.8142C50.3383 99.1368 49.3461 110.148 50.2162 113.608C52.0175 120.763 51.6868 134.929 51.8649 140.577C52.043 146.225 47.5091 164.152 52.6485 163.801C57.7878 163.45 69.9951 156.372 72.8853 153.548C75.7756 150.724 75.7807 143.295 75.7807 143.295C79.3298 142.922 82.8985 142.769 86.4665 142.837C100.673 145.498 107.66 150.52 113.944 151.996L114.021 152.042C114.742 152.257 115.491 152.37 116.244 152.377C119.062 152.429 121.881 152.317 124.686 152.042C124.075 143.142 123.312 133.067 123.312 133.067C127.276 141.966 131.24 149.691 133.682 155.059C136.125 160.427 142.221 160.097 145.895 164.295C153.059 154.057 154.128 151.706 155.349 148.851C156.57 145.996 152.459 142.328 149.564 136.786Z" fill="#ED824C"/>
<path d="M218.273 111.333C215.072 105.054 206.701 87.5544 204.183 83.102C201.664 78.6496 198.336 70.6556 197.303 63.9591C196.27 57.2627 191.914 53.6499 188.709 48.2409C185.503 42.8318 184.923 31.8814 184.923 25.9534C184.923 20.0253 176.501 2.29197 175.86 -3.55977C175.219 -9.41151 169.881 -9.73208 167.261 -10.5869C164.64 -11.4418 166.65 -4.06353 166.803 -0.282793C166.955 3.49794 167.724 15.6899 166.955 15.8629C166.187 16.036 164.818 9.81273 162.376 7.76717C159.933 5.72161 137.061 8.32182 137.473 13.9395C137.834 18.9058 141.569 47.4267 143.706 53.9552C145.843 60.4837 152.199 53.2632 152.357 70.106C152.433 77.7387 156.28 88.8621 157.552 93.971C158.824 99.0798 165.693 111.328 168.116 115.622C175.3 113.735 177.916 110.463 183.076 112.91C188.235 115.358 190.2 117.668 193.41 121.276C196.621 124.883 198.316 125.886 201.939 128.613C205.322 131.157 210.436 130.893 211.922 126.731C212.574 124.914 212.635 123.937 213.22 121.21C207.719 116.187 206.233 112.269 205.663 110.722C205.093 109.175 212.655 116.004 215.637 118.192C218.619 120.38 221.473 117.617 218.273 111.333ZM185.106 77.7489C184.144 74.5228 176.964 64.5799 174.308 59.4711C171.652 54.3623 170.09 45.2234 169.988 38.2369C170.209 35.2178 170.664 32.2202 171.347 29.2711C171.856 27.7445 172.151 23.9841 173.347 26.4062C174.542 28.8284 175.83 36.5272 177.417 40.654C179.005 44.7807 179.565 48.1798 180.928 53.2428C182.292 58.3059 186.063 80.9801 185.106 77.7642V77.7489Z" fill="#ED824C"/>
<path d="M30.0911 347.627C30.0911 333.029 28.2185 325.147 26.4223 318.771C24.6261 312.395 25.0739 316.735 27.323 306.05C29.5721 295.364 26.1119 271.524 26.1119 268.054C26.1119 264.584 24.3462 264.584 21.0591 264.66C18.4205 264.753 15.8217 263.997 13.6452 262.502C11.9609 261.347 10.531 260.167 10.531 260.167C7.58481 262.655 4.72 264.197 -0.154755 264.121C-5.0295 264.044 -8.58126 260.243 -10.179 258.208C-11.4155 256.773 -12.1839 256.132 -15.6949 254.88C-16.3463 255.964 -16.9264 273.025 -19.1348 282.358C-21.3431 291.69 -22.254 285.864 -22.1878 282.358C-22.1217 278.852 -22.6458 273.651 -22.9715 269.234C-23.2971 264.818 -25.3732 263.886 -30.5533 264.579C-36.9495 265.199 -48.5817 267.632 -55.0848 268.985C-61.9542 270.435 -66.7018 273.056 -71.9836 276.358C-72.5688 283.828 -73.4542 292.942 -74.5278 302.386C-75.4539 310.415 -78.8632 309.082 -79.428 321.055C-79.6977 326.653 -79.9979 335.349 -79.5909 341.165C-79.0362 349.032 -75.688 352.024 -76.4258 361.585C-76.9805 368.78 -80.176 379.039 -80.405 382.829C-81.1683 395.393 -73.5915 392.859 -68.5031 392.279C-66.829 392.091 -64.3814 385.577 -60.9314 385.664C-53.8992 385.872 -46.9483 392.966 -45.5846 392.839C-43.6408 392.655 -37.9061 395.434 -36.517 389.088C-35.1482 386.188 -32.3749 382.88 -29.0827 381.669C-25.7905 380.458 -19.8166 381.237 -15.0894 382.178C-6.79521 384.595 -1.85941 383.155 4.43503 381.303C10.7295 379.451 21.0133 383.338 28.4272 384.916C27.6792 368.953 30.0911 362.231 30.0911 347.627ZM-44.6229 344.895C-46.241 346.813 -45.2386 360.827 -47.5335 371.518C-49.06 378.565 -52.5456 377.766 -56.072 373.044C-54.762 365.936 -54.0471 358.732 -53.9348 351.505C-53.9348 345.521 -54.8863 341.45 -55.0034 334.749C-55.1204 328.047 -52.7492 310.324 -50.8563 305.79C-48.9634 301.256 -50.6426 298.402 -50.8563 295.496C-51.5076 286.408 -45.3811 293.649 -44.6229 296.285C-43.8647 298.921 -47.3707 313.362 -47.6098 318.628C-47.849 323.895 -45.6151 333.146 -44.6229 336.494C-43.6306 339.842 -42.9997 342.982 -44.6229 344.895Z" fill="#ED824C"/>
<path d="M154.22 -179.6C151.675 -181.635 146.322 -182.505 144.73 -179.6C143.137 -176.694 138.496 -170.441 136.695 -168.965C134.894 -167.489 132.471 -167.438 131.754 -170.033C130.69 -173.865 126.014 -178.948 123.068 -171.326C121.872 -168.227 114.489 -156.982 113.283 -155.246C112.077 -153.511 104.47 -143.884 97.8037 -144.744C94.3334 -145.955 90.7562 -147.1 90.8274 -150.127C90.9495 -155.511 84.5075 -156.279 76.946 -168.955C73.8522 -165.902 58.7242 -153.577 52.1906 -152.041C49.5548 -143.711 52.9946 -121.413 54.8265 -109.883C56.6583 -98.3522 54.8265 -87.8394 51.3867 -92.4547C47.9469 -97.0699 47.4889 -94.7597 47.3159 -86.3027C47.1429 -77.8457 48.6185 -60.6772 48.8424 -49.4316C49.0663 -38.1861 47.0055 -38.6339 45.9013 -27.6123C44.7971 -16.5907 41.5048 -20.697 47.3108 -15.8274C53.1167 -10.9577 53.6561 -14.5451 60.0727 -14.3008C66.4892 -14.0566 67.8682 -8.66283 69.7001 -0.719727C71.5319 7.22339 73.3689 4.66389 84.1411 1.99754C87.3774 0.699982 89.0872 -1.48805 92.7152 -2.03252C93.3465 -1.99196 93.973 -1.89661 94.5878 -1.74757C96.2365 -1.23872 96.6842 3.29002 106.291 4.61812C115.898 5.9462 115.135 5.77319 115.354 -0.892715C115.573 -7.55861 115.73 -14.5603 117.674 -20.5393C119.618 -26.5182 119.771 -40.018 118.722 -46.4905C117.674 -52.963 117.374 -55.029 118.422 -58.2754C119.47 -61.5219 123.037 -66.1371 124.248 -73.1439C125.46 -80.1507 128.319 -92.1087 132.049 -99.2834C135.779 -106.458 138.939 -127.133 139.911 -131.575C140.883 -136.017 144.78 -140.973 146.276 -144.047C147.772 -147.12 153.314 -164.808 154.214 -168.95C155.115 -173.092 156.764 -177.549 154.22 -179.6ZM66.8505 -24.4625C62.7238 -29.0778 58.2001 -42.9184 59.7674 -53.8484C60.1439 -56.4588 60.9428 -60.4634 59.4519 -63.4198C57.961 -66.3763 57.3707 -75.2048 57.4165 -79.82C57.4521 -84.308 61.9045 -88.216 62.9375 -90.5058C63.9705 -92.7956 63.8331 -96.4237 65.095 -93.6454C68.9012 -85.2748 66.9014 -68.0147 68.2753 -64.9413C69.6492 -61.8679 66.9421 -51.4416 67.1711 -47.3454C67.4001 -43.2491 63.5227 -37.2804 66.8505 -24.4625Z" fill="#ED824C"/>
<path d="M140.659 547.035C138.115 545 132.762 544.129 131.169 547.035C129.576 549.94 124.936 556.194 123.134 557.67C121.333 559.146 118.911 559.196 118.193 556.601C117.13 552.77 112.454 547.686 109.507 555.309C108.312 558.408 100.928 569.653 99.7223 571.388C98.5163 573.124 90.9091 582.751 84.2432 581.891C80.7728 580.68 77.1956 579.535 77.2669 576.507C77.389 571.124 70.947 570.355 63.3855 557.68C60.2917 560.733 45.1637 573.057 38.6301 574.594C35.9943 582.924 39.4341 605.222 41.2659 616.752C43.0978 628.283 41.2659 638.795 37.8261 634.18C34.3863 629.565 33.9283 631.875 33.7553 640.332C33.5823 648.789 35.058 665.958 35.2819 677.203C35.5058 688.449 33.445 688.001 32.3408 699.022C31.2366 710.044 27.9443 705.938 33.7502 710.807C39.5562 715.677 40.0956 712.09 46.5121 712.334C52.9287 712.578 54.3077 717.972 56.1395 725.915C57.9714 733.858 59.8083 731.299 70.5806 728.632C73.8169 727.335 75.5266 725.147 79.1547 724.602C79.7859 724.643 80.4125 724.738 81.0272 724.887C82.6759 725.396 83.1237 729.925 92.7307 731.253C102.338 732.581 101.574 732.408 101.793 725.742C102.012 719.076 102.17 712.074 104.114 706.095C106.057 700.117 106.21 686.617 105.162 680.144C104.114 673.672 103.813 671.606 104.862 668.359C105.91 665.113 109.477 660.498 110.688 653.491C111.899 646.484 114.759 634.526 118.489 627.351C122.218 620.177 125.378 599.502 126.35 595.06C127.322 590.618 131.22 585.662 132.716 582.588C134.212 579.515 139.753 561.827 140.654 557.685C141.555 553.543 143.203 549.086 140.659 547.035ZM53.29 702.172C49.1632 697.557 44.6396 683.716 46.2068 672.786C46.5834 670.176 47.3823 666.171 45.8914 663.215C44.4004 660.259 43.8102 651.43 43.856 646.815C43.8916 642.327 48.344 638.419 49.3769 636.129C50.4099 633.839 50.2725 630.211 51.5345 632.989C55.3406 641.36 53.3409 658.62 54.7147 661.693C56.0886 664.767 53.3816 675.193 53.6106 679.289C53.8395 683.386 49.9621 689.354 53.29 702.172Z" fill="#ED824C"/>
<path d="M29.465 202.865L28.142 198.911C28.142 198.911 30.1265 183.091 30.1265 178.618C30.1265 174.145 21.5168 173.804 16.8965 172.598C12.2762 171.392 6.79078 167.612 6.79078 167.612C5.18282 168.349 3.50873 169.169 1.93639 169.988C-3.06049 171.718 -14.7385 170.074 -22.8699 166.859C-28.1721 164.08 -35.4486 159.954 -39.7331 156.682C-48.3173 159.501 -59.6951 158.498 -60.2803 162.9C-60.8655 167.301 -68.7119 189.166 -68.7119 197.654C-68.7119 206.142 -68.1166 211.189 -67.8571 225.982C-67.5975 240.774 -73.9632 256.004 -68.8086 254.813C-63.654 253.622 -59.2779 252.045 -56.0874 249.836C-52.6731 247.49 -54.8357 232.383 -55.0697 227.055C-55.3394 221.015 -55.6498 199.801 -46.0988 184.409C-48.2257 196.25 -49.8032 211.688 -49.5437 219.204C-49.2841 226.719 -46.3583 232.342 -44.6791 245.257C-39.7687 243.801 -30.0497 243.17 -24.3659 242.687C-22.015 242.489 -20.7276 241.496 -20.0203 239.741C-18.2292 237.532 -16.4177 232.505 -13.1306 232.169C-9.84341 231.833 -5.58436 233.96 -3.62021 238.489C-3.15716 240.321 -2.71957 241.878 -0.999664 242.102C2.97443 242.611 5.4576 236.082 5.4576 236.082C7.94078 236.082 10.0932 236.423 12.2456 237.609C14.3981 238.794 18.0414 242.107 18.0414 242.107C22.5142 241.735 24.6564 241.221 25.3281 239.156C25.9997 237.09 24.9973 233.136 25.3281 229.869C25.6588 226.602 29.465 202.865 29.465 202.865Z" fill="#ED824C"/>
<path d="M175.275 245.623C172.604 236.113 170.879 224.058 170.095 218.288C169.312 212.517 163.032 187.207 160.834 184.165C149.065 182.068 150.148 181.111 144.826 177.692C139.503 174.273 136.979 171.219 132.899 171.413C128.818 171.606 124.248 173.886 122.854 173.886C121.928 173.886 118.941 170.461 116.992 169.031C116.905 168.965 116.799 168.894 116.676 168.818C116.465 168.675 116.236 168.56 115.995 168.477C111.329 166.441 94.7248 163.571 88.7917 163.714C86.7563 163.648 85.2654 163.714 85.2654 163.714C84.726 172.232 80.3855 178.979 78.1415 180.715C75.8975 182.45 69.6997 179.997 67.3132 186.821C65.9648 190.657 55.6912 191.741 50.2363 184.989C50.0735 192.179 45.7941 207.643 45.5295 210.864C45.2649 214.085 45.3056 230.546 45.5295 235.288C45.7534 240.031 43.2295 246.122 47.8346 245.816C52.4396 245.511 61.5734 244.697 65.3135 242.926C69.0535 241.155 69.3842 238.128 69.3842 238.128C73.4867 238.032 77.5731 238.673 81.449 240.021C84.38 241.161 83.8202 245.323 85.245 251.215C86.6698 257.108 93.6715 255.948 93.6715 255.948C94.4857 261.036 98.1493 259.733 102.673 262.196C107.003 264.547 111.456 271.355 111.222 264.913C111.224 264.908 111.225 264.902 111.225 264.896C111.225 264.89 111.224 264.884 111.222 264.878C111.267 263.458 109.212 242.88 108.27 238.55C107.329 234.22 108.27 226.338 107.583 211.698C109.298 212.207 118.569 252.742 120.198 260.278C121.826 267.814 124.899 267.651 129.525 267.402C129.608 267.396 129.69 267.379 129.769 267.351C132.558 267.096 135.651 265.865 137.59 264.898C141.595 262.898 140.104 255.576 139.315 252.177C145.93 252.935 149.36 257.311 153.914 258.075C158.468 258.838 165.058 258.833 169.922 257.505C174.787 256.177 177.942 255.139 175.275 245.623Z" fill="#ED824C"/>
<path d="M264.18 239.505C260.959 232.702 261.208 234.559 261.208 228.514C261.208 222.469 260.913 221.222 257.55 213.248C254.186 205.275 245.399 187.714 242.615 179.97C239.832 172.225 228.876 136.789 226.917 132.82C224.958 128.851 224.739 136.728 222.694 139.745C220.648 142.763 217.142 144.086 217.875 147.297C218.157 148.668 218.173 150.082 217.921 151.459C215.234 160.812 199.231 151.541 194.977 147.963C192.743 145.928 190.652 143.893 189.517 141.435C186.82 135.568 171.366 133.293 174.496 138.382C177.351 143.033 179.818 149.912 179.818 151.245C179.818 152.579 176.893 165.671 174.989 169.671C173.086 173.67 176.969 182.092 181.895 193.658C186.82 205.224 186.423 219.777 187.375 225.903C188.326 232.03 191.446 232.035 194.758 232.035C192.616 243.738 192.377 249.066 192.377 256.673C192.377 264.281 198.798 261.97 206.67 261.884C215.29 261.792 215.458 260.866 216.176 257.655C216.893 254.445 215.885 239.876 213.382 231.48C210.878 223.084 211.133 203.59 211.133 203.59C218.989 226.784 222.562 235.236 224.465 241.632C225.884 246.4 227.36 242.141 227.36 242.141C228.846 239.861 236.402 233.241 243.419 236.004C244.545 236.457 245.58 237.11 246.472 237.933C249.683 240.894 252.248 248.954 252.538 255.157C252.828 261.36 255.219 263.522 258.369 259.197C261.519 254.872 260.868 254.134 264.089 251.112C267.31 248.089 267.396 246.303 264.18 239.505Z" fill="#ED824C"/>
<path d="M186.175 378.672C182.46 367.828 183.498 362.292 182.063 351.072C180.628 339.852 180.649 337.618 179.977 332.112C179.305 326.607 179.799 325.63 175.575 322.739C171.352 319.849 171.164 317.849 174.339 314.969C177.514 312.089 174.085 314.969 174.278 302.248C174.471 289.527 170.746 283.853 169.968 281.665C169.189 279.477 153.792 275.61 153.792 275.61C152.382 281.716 145.487 283.456 143.416 284.215C141.345 284.973 144.037 285.894 141.92 287.812C139.803 289.731 133.219 287.675 130.502 287.242C120.35 284.291 115.236 292.59 103.411 288.204C99.5587 286.677 100.291 281.08 93.3559 277.116C90.1502 275.269 83.0314 275.641 80.533 273.341C78.0345 271.041 73.5363 262.685 73.5363 262.685C66.8755 262.029 65.0437 262.685 65.0437 262.685C65.5525 271.046 66.5702 286.789 67.7507 293.343C68.9313 299.897 72.8087 313.636 72.9969 322.734C67.939 307.24 63.6952 297.475 62.0465 290.066C60.52 283.105 58.1335 266.537 56.8817 264.487C55.63 262.436 43.9062 264.588 43.9927 265.799C44.6847 275.391 47.3917 300.233 46.6437 304.66C45.8957 309.087 50.1395 316.465 52.3886 319.417C54.6377 322.368 54.6326 343.027 54.3833 349.439C54.134 355.85 55.6351 373.787 56.6324 380.672C57.6297 387.556 58.276 390.777 64.8757 390.187C72.2031 389.526 73.1191 390.263 71.3737 371.329C90.6081 370.82 85.3619 372.067 94.8519 374.525C104.342 376.983 115.089 372.311 123.083 368.378C127.993 366.073 129.219 365.742 129.459 363.147C129.698 360.552 128.008 355.005 127.204 343.811C126.4 332.616 128.527 331.09 130.502 339.043C132.476 346.996 143.9 381.913 145.66 394.507C145.747 402.287 145.93 407.697 146.678 409.874C147.563 412.419 154.234 412.139 157.323 411.747C160.412 411.355 161.089 406.658 164.722 405.285C168.355 403.911 172.186 402.557 177.443 402.99C182.699 403.422 187.895 394.395 187.279 390.136C186.663 385.877 189.889 389.515 186.175 378.672Z" fill="#ED824C"/>
<path d="M281.628 367.166C280.757 363.9 280.61 358.333 279.027 353.132C277.445 347.932 281.063 328.927 279.46 324.128C277.857 319.33 274.438 311.224 272.336 306.827C270.234 302.431 268.627 278.53 267.756 276.999C266.886 275.467 262.983 277.803 260.785 279.879C258.587 281.955 257.763 286.117 255.921 287.944C254.079 289.771 251.178 291.196 249.957 292.101C248.736 293.007 249.102 295.612 250.69 303.535C252.277 311.458 250.812 319.258 246.044 300.94C241.276 282.621 242.624 281.985 241.597 275.615C240.36 267.982 240.752 265.265 239.775 262.97C238.798 260.675 234.3 262.507 231.007 264.466C228.926 265.697 228.021 269.727 228.021 274.078C228.021 276.251 227.4 281.98 225.746 283.833C224.092 285.685 220.805 281.751 216.953 283.324C216.5 283.507 214.821 284.245 214.037 284.586C211.056 285.893 208.852 285.252 208.852 285.252C208.852 285.252 204.161 284.296 203.331 285.649C203.967 292.707 209.371 303.672 209.722 305.825C210.073 307.977 208.455 330.886 208.16 333.369C207.595 326.571 203.189 306.507 201.749 303.128C200.309 299.749 197.047 290.504 196.151 287.201C191.928 286.138 186.992 281.879 187.71 284.693C189.501 291.506 190.763 302.024 192.798 304.644C194.834 307.265 192.874 313.661 192.544 315.976C192.213 318.292 194.655 326.662 197.123 333.135C199.591 339.607 195.475 342.665 201.779 360.205C204.324 367.197 206.552 375.079 206.868 383.506C206.99 387.123 207.58 387.469 214.068 386.243C220.556 385.017 222.683 382.829 225.008 378.61C227.334 374.392 226.433 369.192 226.306 367.136C225.858 360.012 232.02 355.315 233.002 361.813C233.328 363.623 233.863 365.388 234.595 367.075C235.256 368.78 236.966 371.263 240.961 370.418C244.41 369.69 245.27 376.478 249.331 377.786H249.407L249.55 377.827C249.642 377.856 249.735 377.88 249.83 377.898C249.998 377.944 250.155 377.99 250.339 378.025C250.484 378.058 250.635 378.058 250.781 378.025C251.871 378.044 252.96 377.957 254.033 377.766C260.882 376.748 262.22 369.624 266.952 367.721C271.685 365.818 271.476 373.176 276.112 374.479C280.747 375.781 283.444 374.01 281.628 367.166Z" fill="#ED824C"/>
<path d="M40.6265 -108.061C38.6521 -111.5 36.2758 -127.778 34.9834 -136.953C33.6909 -146.127 39.0847 -150.02 38.0772 -154.763C37.0696 -159.505 36.2046 -170.201 36.2046 -172.801C27.427 -174.48 21.9569 -175.396 22.1044 -172.801C22.252 -170.206 19.9011 -169.59 16.2527 -169.59C12.9706 -169.59 6.17754 -167.932 1.65898 -165.092C-4.6609 -161.123 -4.38614 -155.887 -7.43922 -150.916C-10.4923 -145.944 -18.0741 -142.006 -20.7099 -146.845C-23.3458 -151.684 -25.2896 -153.836 -25.2896 -153.836C-28.8515 -154.574 -27.6099 -152.468 -26.8161 -145.339C-26.0223 -138.21 -25.3405 -119.291 -25.3405 -114.106C-25.3405 -108.921 -11.9832 -71.103 -19.3208 -65.1241C-24.5772 -80.8423 -31.1973 -101.135 -33.5176 -109.724C-35.838 -118.314 -34.0265 -127.224 -35.7006 -132.404C-37.3747 -137.584 -40.9417 -138.887 -40.0105 -145.044C-39.0793 -151.201 -40.0105 -155.465 -40.4787 -156.574C-49.2919 -158.655 -51.9226 -159.301 -53.7799 -164.003C-55.6372 -168.705 -57.8558 -179.884 -60.7817 -180.393C-66.3484 -181.284 -67.763 -176.083 -67.2898 -172.679C-66.8166 -169.275 -76.3269 -165.168 -75.3957 -160.904C-74.4645 -156.64 -69.5847 -156.152 -67.9666 -151.292C-66.3484 -146.433 -66.8827 -143.98 -67.2898 -138.169C-67.6969 -132.358 -55.912 -117.026 -52.8945 -111.918C-49.8771 -106.809 -44.6817 -98.3518 -45.1448 -94.2199C-45.6078 -90.0881 -46.1625 -84.216 -41.7304 -80.1249C-37.2984 -76.0337 -38.7537 -64.2845 -39.3287 -56.9927C-39.9037 -49.7009 -39.1302 -31.9625 -39.1302 -31.9625C-32.7137 -30.0136 -31.1718 -29.2859 -32.0572 -20.2946C-32.9426 -11.3033 -28.7701 -7.12059 -27.3759 -3.13631C-25.9816 0.847961 -28.9329 4.25215 -21.7785 4.25215C-14.6241 4.25215 -12.0646 2.60349 -11.6016 -3.13631C-11.3319 -6.48961 -8.33987 -6.60155 -5.13923 -6.18938C-1.43482 -5.50244 1.17048 -2.28142 3.30764 -2.22037C5.44479 -2.1593 9.66312 -4.70355 15.2808 -4.49492C15.68 -4.46945 16.0775 -4.42188 16.4715 -4.35243C19.8706 -3.752 22.4606 -5.81793 22.0281 -1.22813C21.5956 3.36166 23.9719 6.56741 28.7195 4.73047C33.467 2.89354 30.017 -6.16902 31.0958 -14.8194C32.1745 -23.4698 35.4108 -38.6029 33.2533 -45.0246C31.0958 -51.4462 30.017 -53.0491 29.3708 -59.2418C28.7245 -65.4345 32.607 -69.1032 33.0396 -75.0618C33.4721 -81.0204 32.3933 -100.285 32.3933 -100.285C39.5121 -101.41 42.6059 -104.621 40.6265 -108.061Z" fill="#ED824C"/>
<path d="M22.9985 618.573C21.0242 615.133 18.6479 598.855 17.3554 589.681C16.063 580.506 21.4567 576.614 20.4492 571.871C19.4417 567.129 18.5766 556.433 18.5766 553.833C9.79903 552.153 4.32895 551.237 4.47652 553.833C4.62408 556.428 2.27321 557.043 -1.37522 557.043C-4.65729 557.043 -11.4504 558.702 -15.9689 561.542C-22.2888 565.511 -22.0141 570.747 -25.0672 575.718C-28.1202 580.69 -35.7021 584.628 -38.3379 579.789C-40.9737 574.95 -42.9175 572.797 -42.9175 572.797C-46.4794 572.06 -45.2378 574.166 -44.444 581.295C-43.6502 588.424 -42.9684 607.343 -42.9684 612.528C-42.9684 617.713 -29.6111 655.531 -36.9487 661.51C-42.2051 645.791 -48.8252 625.499 -51.1456 616.909C-53.4659 608.32 -51.6544 599.41 -53.3285 594.23C-55.0026 589.05 -58.5696 587.747 -57.6384 581.59C-56.7073 575.433 -57.6385 571.169 -58.1066 570.06C-66.9198 567.979 -69.5505 567.332 -71.4078 562.631C-73.2651 557.929 -75.4837 546.749 -78.4096 546.241C-83.9764 545.35 -85.391 550.551 -84.9177 553.955C-84.4445 557.359 -93.9549 561.465 -93.0237 565.729C-92.0925 569.994 -87.2126 570.482 -85.5945 575.342C-83.9764 580.201 -84.5107 582.654 -84.9177 588.465C-85.3248 594.276 -73.5399 609.607 -70.5225 614.716C-67.505 619.825 -62.3097 628.282 -62.7727 632.414C-63.2358 636.546 -63.7904 642.418 -59.3583 646.509C-54.9263 650.6 -56.3816 662.349 -56.9566 669.641C-57.5316 676.933 -56.7581 694.671 -56.7581 694.671C-50.3416 696.62 -48.7998 697.348 -49.6852 706.339C-50.5706 715.33 -46.398 719.513 -45.0038 723.497C-43.6095 727.482 -46.5609 730.886 -39.4065 730.886C-32.2521 730.886 -29.6926 729.237 -29.2295 723.497C-28.9598 720.144 -25.9678 720.032 -22.7672 720.444C-19.0628 721.131 -16.4575 724.352 -14.3203 724.413C-12.1831 724.474 -7.96481 721.93 -2.34714 722.139C-1.94791 722.164 -1.55038 722.212 -1.15643 722.281C2.24268 722.882 4.8327 720.816 4.40018 725.406C3.96766 729.995 6.34399 733.201 11.0915 731.364C15.8391 729.527 12.3891 720.465 13.4678 711.814C14.5466 703.164 17.7829 688.031 15.6253 681.609C13.4678 675.188 12.3891 673.585 11.7428 667.392C11.0966 661.199 14.9791 657.531 15.4116 651.572C15.8442 645.613 14.7654 626.348 14.7654 626.348C21.8842 625.224 24.9779 622.013 22.9985 618.573Z" fill="#ED824C"/>
<path d="M1039.62 388.241C1041.96 395.641 1041.07 403.552 1041.94 406.323C1042.81 409.094 1046.15 419.23 1045.37 425.326C1044.58 431.423 1052.8 438.741 1054.16 443.655C1055.51 448.569 1058.03 460.128 1056.5 466.206C1055.61 470.143 1055.57 474.225 1056.39 478.177C1063.76 478.904 1067.84 475.871 1071.5 472.111C1073.59 469.975 1073.01 464.518 1075.09 459.81C1077.35 454.75 1078.82 470.71 1083.48 469.488C1088.15 468.266 1089.22 465.009 1093.24 460.688C1091.74 448.067 1091.64 449.423 1097.47 445.593C1094.98 436.041 1095.39 427.333 1094.81 423.277C1094.24 419.222 1096.28 398.321 1089.92 391.008C1087.03 387.69 1087.67 371.04 1086.22 366.421C1084.76 361.801 1083.58 360.316 1081.79 357.476C1080 354.636 1072.7 362.917 1071.13 364.62C1069.55 366.323 1068.31 370.46 1066.34 373.029C1064.88 374.953 1060.05 373.489 1057.53 374.964C1055 376.44 1047.75 388.3 1039.62 388.241Z" fill="#ED824C"/>
<path d="M228.525 556.968C227.095 554.022 226.622 548.073 221.768 550.618C219.605 551.752 213.356 556.576 209.845 560.087C206.334 563.598 204.574 566.194 203.627 569.15C202.681 572.106 197.567 582.487 192.585 584.68C180.76 589.875 172.776 614.529 167.143 622.335C167.438 617.913 180.302 578.268 178.948 577.475C177.595 576.681 167.799 571.369 167.667 575.129C167.535 578.889 161.561 594.358 159.673 597.671C157.785 600.983 155.948 602.347 156.895 613.267C157.403 619.053 148.514 636.236 145.812 640.205C143.476 644.062 137.36 656.336 143.079 659.419C144.316 666.894 137.686 673.586 137.126 677.952C136.566 682.318 137.706 692.494 137.126 695.832C136.546 699.171 132.099 709.505 131.406 714.751C130.865 719.135 130.865 723.568 131.406 727.951C131.778 730.495 136.897 731.131 142.55 731.289C148.204 731.447 150.132 733.039 149.883 729.203C149.633 725.366 148.356 716.802 149.089 713.78C149.822 710.757 156.269 714.258 161.596 714.731C165.132 715.016 168.683 715.071 172.226 714.894C172.404 707.897 175.549 704.58 176.48 701.058C177.411 697.537 176.363 697.084 174.913 688.815C173.463 680.547 182.77 669.103 179.355 664.172C178.287 661.19 179.325 648.184 179.493 646.871C179.784 644.953 180.175 643.05 180.663 641.172C181.793 636.328 186.555 623.82 189.593 622.289C193.664 620.253 196.89 619.795 198.244 614.122C199.597 608.448 195.806 603.945 199.322 601.65C202.838 599.355 220.694 586.227 221.757 581.011C222.821 575.795 221.33 570.061 230.51 564.799C230.53 564.799 229.955 559.919 228.525 556.968Z" fill="#ED824C"/>
<path d="M49.1202 406.816C48.3772 413.762 43.1565 427.679 47.3799 434.599C51.6033 441.519 49.3695 463.873 49.1202 467.099C48.8708 470.325 43.4058 489.422 43.6551 497.121C43.9045 504.82 43.0191 515.317 43.6551 524.248C44.2912 533.178 39.5844 542.48 43.4262 542.48C47.268 542.48 52.8602 540.994 55.842 537.274C58.5881 533.672 60.6381 529.589 61.8871 525.235C62.3248 523.474 64.4314 512.788 66.0546 501.197C67.1842 493.188 66.3243 473.414 69.184 465.878C68.5327 479.652 74.1402 492.44 73.6008 500.825C72.6899 514.987 71.7995 529.626 72.5831 533.046C73.8247 538.643 81.1368 539.152 81.9154 535.04C88.454 539.62 87.6857 544.586 90.5098 549.548C103.74 551.781 102.147 542.2 104.02 536.246C105.948 530.14 112.919 526.812 111.556 517.46C110.864 512.692 121.336 508.672 122.333 502.082C124.745 486.206 114.614 475.083 117.896 465.12C120.842 456.189 115.27 452.465 116.018 444.257C116.766 436.049 120.898 429.373 121.89 425.155C122.883 420.936 122.14 419.761 120.399 414.891C118.659 410.022 117.916 392.161 116.675 392.161C104.249 394.889 101.974 402.587 95.7611 399.87C89.5481 397.153 77.5087 389.81 78.0074 393.255C79.249 402.185 71.769 410.739 71.021 415.207C70.2729 419.675 70.0287 430.34 65.5559 426.615C61.0831 422.89 61.5055 402.353 49.1202 406.816Z" fill="#ED824C"/>
<path d="M142.15 432.874C142.15 440.634 138.919 447.91 138.919 450.821C138.919 453.732 139.051 464.397 136.466 469.969C133.881 475.541 139.519 485 139.331 490.094C139.143 495.187 138.064 506.972 134.782 512.305C132.747 515.791 131.482 519.672 131.072 523.688C137.881 526.598 142.684 524.935 147.31 522.456C149.94 521.042 151.029 515.668 154.433 511.801C158.107 507.654 154.703 523.316 159.522 523.561C164.341 523.805 166.34 521.016 171.475 518.101C173.826 505.619 173.322 506.906 180.049 504.978C180.558 495.121 183.565 486.939 184.237 482.899C184.908 478.858 193.152 459.548 189.284 450.658C187.524 446.618 193.152 430.94 193.152 426.091C193.152 421.242 192.475 419.476 191.625 416.23C190.775 412.983 181.311 418.702 179.296 419.832C177.281 420.962 174.843 424.554 172.202 426.412C170.228 427.806 166.066 424.961 163.211 425.608C160.356 426.254 149.884 435.382 142.15 432.874Z" fill="#ED824C"/>
<path d="M272.46 389.154C272.46 389.154 277.264 393.652 281.289 396.619C284.886 399.27 285.278 407.452 283.833 414.826C282.388 422.199 287.517 435.403 286.652 447.707C286.326 452.343 283.599 454.77 282.459 460.108C282.082 461.863 282.968 472.493 282.576 474.188C280.943 481.001 279.691 481.174 278.775 484.151C276.938 490.12 277.284 494.837 274.877 502.169C272.47 509.502 265.006 511.328 258.508 526.665C253.058 539.529 243.807 534.15 246.036 529.779C248.264 525.408 253.424 517.933 250.554 511.181C247.12 503.105 238.026 498.124 233.355 500.719C231.437 501.783 229.753 503.309 229.213 505.355C228.14 509.425 231.488 515.089 224.344 519.246C221.168 521.093 221.092 519.638 213.815 526.523C209.618 530.497 201.603 531.367 199.268 537.112C196.932 542.857 196.133 548.047 190.434 549.874C184.974 551.619 173.281 550.973 174.583 543.956C175.499 539.01 188.236 537.575 191.884 525.23C194.739 515.506 197.349 516.732 199.98 513.384C202.611 510.036 204.661 504.429 203.226 499.137C201.791 493.844 208.488 477.114 209.048 472.33C209.607 467.547 211.592 455.172 209.684 450.384C207.775 445.596 210.64 438.579 212.228 434.269C213.815 429.959 213.826 419.268 212.228 409.844C214.615 408.948 216.934 407.882 219.169 406.654C221.932 405.066 222.308 409.849 226.043 407.346C229.681 404.908 233.376 402.766 233.376 397.22C233.376 391.673 237.238 391.882 243.629 392.045C250.814 392.162 253.872 396.741 260.161 394.477C262.319 393.724 271.437 389.276 272.46 389.154Z" fill="#ED824C"/>
<path d="M1016.72 210.026C1016.72 210.026 1022.8 212.548 1027.61 213.909C1031.91 215.125 1035.15 222.647 1036.39 230.057C1037.63 237.468 1047.08 248.025 1050.6 259.847C1051.92 264.301 1050.22 267.532 1051.03 272.93C1051.3 274.706 1055.86 284.345 1056.09 286.069C1056.96 293.022 1055.85 293.624 1056.04 296.732C1056.42 302.966 1058.4 307.26 1058.73 314.97C1059.05 322.681 1052.71 327.016 1052.02 343.659C1051.44 357.617 1040.89 355.836 1041.44 350.96C1041.99 346.085 1044.19 337.273 1039.13 331.961C1033.07 325.609 1022.81 324.144 1019.35 328.216C1017.93 329.887 1016.89 331.908 1017.1 334.013C1017.53 338.201 1022.65 342.325 1017.43 348.729C1015.11 351.575 1014.52 350.24 1010.13 359.244C1007.6 364.44 1000.4 368.074 1000.24 374.273C1000.07 380.472 1001.15 385.612 996.458 389.326C991.961 392.88 980.787 396.388 979.539 389.361C978.657 384.409 990.075 378.586 989.148 365.747C988.401 355.64 991.276 355.87 992.561 351.811C993.846 347.751 993.793 341.781 990.589 337.332C987.384 332.882 987.768 314.865 986.61 310.191C985.452 305.516 982.957 293.234 979.487 289.423C976.016 285.612 976.23 278.035 976.201 273.442C976.171 268.849 972.42 258.838 967.61 250.578C969.53 248.9 971.326 247.086 972.985 245.15C975.013 242.692 977.048 247.038 979.664 243.38C982.213 239.819 984.917 236.515 982.967 231.322C981.016 226.13 984.705 224.967 990.745 222.872C997.512 220.454 1001.99 223.666 1007.08 219.334C1008.83 217.87 1015.8 210.5 1016.72 210.026Z" fill="#ED824C"/>
<path d="M30.8601 518.692C28.7484 512.835 27.5933 503.665 28.0564 495.514C28.5194 487.362 30.3615 490.674 26.4433 481.775C22.5252 472.875 26.2194 459.614 25.4256 450.191C24.6318 440.767 22.3115 418.601 22.3115 412.745C22.3682 408.776 22.7528 404.819 23.4615 400.914C15.3963 401.031 7.4379 397.993 4.84787 400.914C2.25784 403.835 -5.46646 403.514 -8.06667 400.527C-12.5089 395.439 -17.9536 399.708 -16.773 404.038C-16.2998 409.635 -9.23701 432.747 -9.36423 441.973C-9.49144 451.198 -10.2751 457.431 -5.46647 465.888C-3.16648 469.929 -2.73904 487.194 -7.93436 498.236C-7.02862 486.415 -11.6082 473.201 -16.8596 467.156C-23.1387 459.925 -17.516 452.399 -19.5005 443.036C-23.2659 425.227 -27.7031 419.527 -31.4838 412.892C-33.7787 413.859 -38.1599 414.927 -44.8309 413.803C-50.9727 412.785 -59.45 409.656 -61.1445 409.544C-64.681 409.3 -65.1542 412.21 -67.9885 413.177C-70.8228 414.144 -78.1349 411.722 -83.0911 409.783C-81.1218 416.245 -83.4829 426.748 -83.7984 431.918C-84.1139 437.088 -77.6617 443.713 -77.3462 449.046C-77.0307 454.378 -73.886 468.112 -72.7666 474.412C-71.6471 480.711 -69.3013 482.172 -68.9909 485.723C-68.6805 489.275 -71.5046 498.49 -71.0263 503.172C-70.548 507.853 -72.1967 501.182 -68.8943 514.025C-65.5918 526.869 -67.2405 529.052 -64.1722 530.263C-61.1038 531.474 -61.577 529.754 -60.3965 520.732C-59.4551 524.04 -57.8014 535.84 -54.9722 536.323C-52.143 536.807 -49.0696 534.629 -42.4647 534.629C-40.811 538.506 -40.2665 543.946 -37.8851 545.884C-35.5037 547.823 -26.5582 547.579 -26.5582 541.035C-26.5582 538.216 -29.8555 528.451 -30.8834 524.106C-32.6389 516.661 -21.2153 530.548 -15.2465 533.85C-4.18417 540.725 0.349663 531.026 1.38262 528.477C2.41558 525.927 7.25471 525.932 11.4018 526.187C15.5489 526.441 24.2706 528.731 27.3084 527.713C30.3462 526.696 32.982 524.548 30.8601 518.692Z" fill="#ED824C"/>
<path d="M1113.17 778.891C1109.63 771.34 1101.97 768.846 1101.31 763.168C1100.65 757.489 1104.67 744.976 1100.8 736.077C1099.18 732.326 1098.21 711.794 1099.32 706.35C1100.42 700.905 1105.42 697.526 1107.26 690.067C1109.63 680.399 1106.58 676.419 1109.21 667.418C1111.84 658.416 1108.31 651.766 1106.24 651.028C1102.91 649.858 1102.52 653.628 1102.73 660.253C1102.86 664.324 1099.81 667.886 1096.45 672.725C1092.61 678.282 1089.02 675.356 1086.73 680.358C1084.44 685.36 1085.43 692.423 1084.25 691.044C1083.07 689.665 1078.5 684.785 1075.24 685.731C1071.98 686.678 1070.38 686.24 1069.82 689.573C1068.26 698.849 1064.78 721.223 1067.43 724.684C1070.08 728.144 1072.26 728.184 1071.82 734.25C1071.38 740.315 1070.12 744.808 1071.85 748.828C1073.59 752.848 1078.89 751.881 1078.89 751.881C1079.34 758.267 1078.72 767.793 1081.99 771.548C1085.42 777.034 1085.42 790.6 1088.4 793.332C1091.55 796.212 1100.85 797.337 1103.62 796.945C1106.38 796.553 1107.27 792.401 1110.6 789.714C1114.61 787.811 1116.26 785.496 1113.17 778.891Z" fill="#ED824C"/>
<path d="M1060 766.537C1058.48 761.077 1054.01 758.609 1052.33 751.205C1050.65 743.801 1051.35 732.342 1050.65 729.742C1049.94 727.142 1048.13 727.014 1047.41 723.249C1046.69 719.484 1049.68 715.062 1049.5 711.546C1049.33 708.029 1049.92 692.209 1051.9 686.765C1053.97 681.05 1051.03 679.239 1049.12 677.29C1047.21 675.341 1045.61 684.704 1043.99 679.697C1042.74 672.573 1041.26 663.923 1040.73 657.847C1040.03 649.822 1039.24 650.296 1033.66 649.197C1030.85 648.637 1030.92 664.213 1025.52 666.345C1022.75 667.439 1018.4 680.343 1017.5 689.752C1014.37 666.736 1022.44 654.163 1023.47 647.66C1024.5 641.157 1023 637.218 1022.4 634.43C1021.81 631.641 1013.85 635.931 1011.48 636.175C1008.82 643.126 1011.25 653.985 1009.48 658.127C1007.7 662.269 1004.15 657.618 1004.82 665.932C1005.49 674.247 1005.99 679.101 1004.74 688.128C1003.49 697.155 1001.55 702.274 1004.74 712.273C1007.93 722.272 1007.22 727.885 1007.24 732.52C1007.24 736.118 1011.27 750.396 1014.11 758.665C1015.52 762.512 1015.69 767.427 1016.06 771.844C1016.42 776.261 1019.54 776.001 1023.26 778.856C1026.99 781.71 1027.46 786.941 1029.28 789.15C1031.09 791.358 1036.78 788.504 1039.61 784.473C1042.44 780.443 1042.25 777.263 1045.26 774.297C1048.27 771.33 1049.1 772.836 1051.99 774.297C1054.87 775.757 1061.56 772.002 1060 766.537Z" fill="#ED824C"/>
<path d="M1104.27 478.407C1097.15 495.036 1083.69 504.76 1081.04 508.937C1078.39 513.115 1079.9 520.931 1074.97 525.221C1070.05 529.51 1061 530.864 1059.32 536.018C1057.64 541.173 1056.13 557.527 1048.95 563.949C1041.77 570.371 1035.21 573.877 1034.49 579.336C1033.77 584.796 1020.24 603.11 1024.42 605.211C1025.97 605.995 1027.78 606.921 1029.64 607.247C1033.9 608.773 1036.2 606.427 1038.44 608.677C1040.69 610.926 1039.36 624.527 1048.08 627.387C1050.51 627.733 1054.65 626.649 1055.53 623.184C1056.62 619.15 1059.14 615.655 1062.64 613.363C1065.45 611.501 1071.04 594.261 1071.47 599.848C1071.71 602.967 1063.98 632.231 1062.42 635.696C1060.86 639.162 1057.09 644.912 1060.8 650.946C1067.27 657.322 1069.55 657.124 1070.27 653.017C1071 648.911 1074.58 652.468 1079.07 651.633C1085.56 650.422 1089.85 646.83 1089.46 642.54C1088.01 629.02 1095.1 628.801 1097.52 623.204C1099.93 617.607 1098.66 600.968 1096.08 596.887C1093.5 592.806 1092.38 588.236 1095.44 588.043C1098.49 587.849 1094.15 572.681 1095.56 567.409C1096.96 562.137 1098.1 557.95 1101.8 555.37C1105.49 552.79 1102.93 545.651 1101.8 541.911C1100.84 538.746 1098.94 532.156 1099.68 529.037C1100.42 525.918 1101.62 518.209 1099.68 513.95C1099.06 512.214 1098.15 511.339 1097.83 509.09C1097.32 505.487 1104.37 496.522 1106.65 489.505C1108.92 482.488 1105.87 474.672 1104.27 478.407Z" fill="#ED824C"/>
<path d="M1351.17 788.281C1351.25 781.407 1350.88 774.534 1350.05 767.708C1349.69 764.284 1350.78 760.315 1350.66 754.86C1350.54 749.405 1352.13 741.447 1350.81 731.535C1349.29 720.152 1350.24 712.122 1350.24 705.889C1350.24 699.655 1350.83 682.553 1350.83 682.553C1347.02 683.84 1338.28 684.431 1334.25 684.777C1325.9 683.036 1329.67 678.009 1327.53 673.378C1325.19 668.387 1320.77 673.694 1313.23 674.513C1303.52 675.261 1299.14 680.981 1293.89 680.981C1288.63 680.981 1287.04 687.494 1286.47 693.193C1285.91 698.892 1283.93 722.233 1281.85 726.863C1279.77 731.494 1272.18 750.27 1272.18 755.298C1272.18 760.325 1269.06 781.285 1269.06 781.285C1269.06 781.285 1266.2 794.647 1266.2 795.99C1266.2 797.334 1268.46 796.698 1270.37 795.99C1272.29 795.283 1278.88 794.464 1281.5 793.446C1284.12 792.428 1289.98 761.643 1296.77 738.999C1303.22 761.628 1292.29 798.173 1292.29 798.173C1293.82 799.074 1293.82 799.405 1296.51 800.778C1296.51 800.778 1310.7 807.429 1318.27 805.18C1319.99 805.297 1321.39 804.249 1322.53 803.409C1323.05 803.131 1323.56 802.831 1324.06 802.509C1325.61 802.04 1332.8 797.99 1332.8 800.326C1332.8 802.661 1333.87 803.913 1337.23 805.002C1340.58 806.091 1348.77 808.014 1350.2 808.951C1351.64 809.887 1351.05 798.57 1351.17 788.281Z" fill="#ED824C"/>
<path d="M1335 336.071C1335 323.625 1333.36 316.905 1331.78 311.47C1330.2 306.034 1330.6 309.734 1332.57 300.624C1334.54 291.514 1331.51 271.19 1331.51 268.231C1331.51 265.273 1329.96 265.273 1327.07 265.338C1324.76 265.417 1322.48 264.773 1320.57 263.499C1319.09 262.514 1317.84 261.507 1317.84 261.507C1315.25 263.629 1312.74 264.943 1308.46 264.878C1304.18 264.813 1301.07 261.572 1299.67 259.837C1298.58 258.614 1297.91 258.067 1294.83 257C1294.25 257.924 1293.75 272.47 1291.81 280.426C1289.87 288.382 1289.07 283.415 1289.13 280.426C1289.19 277.437 1288.73 273.003 1288.44 269.238C1288.16 265.472 1286.33 264.679 1281.79 265.268C1276.18 265.798 1265.97 267.871 1260.26 269.025C1254.24 270.262 1250.07 272.496 1245.44 275.311C1244.92 281.68 1244.15 289.449 1243.2 297.501C1242.39 304.346 1239.4 303.21 1238.9 313.417C1238.67 318.189 1238.4 325.603 1238.76 330.562C1239.25 337.269 1242.19 339.819 1241.54 347.971C1241.05 354.105 1238.25 362.851 1238.05 366.082C1237.38 376.793 1244.03 374.633 1248.49 374.138C1249.96 373.978 1252.11 368.425 1255.13 368.499C1261.3 368.677 1267.4 374.724 1268.6 374.616C1270.31 374.459 1275.34 376.828 1276.56 371.418C1277.76 368.946 1280.19 366.126 1283.08 365.093C1285.97 364.061 1291.21 364.725 1295.36 365.527C1302.63 367.588 1306.97 366.36 1312.49 364.781C1318.01 363.202 1327.03 366.516 1333.54 367.861C1332.88 354.252 1335 348.522 1335 336.071ZM1269.44 333.742C1268.02 335.377 1268.9 347.324 1266.89 356.439C1265.55 362.447 1262.49 361.766 1259.4 357.74C1260.55 351.68 1261.17 345.538 1261.27 339.377C1261.27 334.275 1260.44 330.805 1260.34 325.091C1260.23 319.378 1262.31 304.268 1263.97 300.403C1265.63 296.538 1264.16 294.104 1263.97 291.627C1263.4 283.879 1268.78 290.052 1269.44 292.299C1270.11 294.547 1267.03 306.858 1266.82 311.348C1266.61 315.838 1268.57 323.725 1269.44 326.579C1270.31 329.434 1270.87 332.111 1269.44 333.742Z" fill="#ED824C"/>
<path d="M1263.66 727.941C1263.73 723.871 1260.61 718.838 1258.73 716.182C1256.85 713.526 1257.95 707.893 1258.08 700.27C1258.16 696.612 1249.76 697.263 1249.28 700.428C1248.7 704.316 1248.42 708.242 1248.44 712.172C1249.35 717.133 1250.12 730.628 1249.97 734.633C1249.81 738.637 1246.41 760.96 1238.12 772.135C1238.53 770.15 1243.39 742.993 1243.28 736.403C1243.18 730.491 1243 723.173 1241.97 718.243C1240.87 718.37 1239.8 718.716 1238.82 719.26C1234.07 721.448 1232.5 724.018 1227.44 720.858C1226.89 719.53 1227.38 718.177 1226.84 717.215C1225.88 715.21 1221.65 718.166 1220.56 717.052C1218.68 715.149 1213.81 707.959 1208.81 708.29C1208.17 711.923 1210.73 716.899 1209.65 722.028C1208.56 727.158 1206.97 733.813 1204.18 744.494C1201.38 755.175 1192.7 761.037 1192.61 767.988C1192.52 774.938 1194.27 777.391 1192.76 781.93C1191.25 786.469 1187.12 783.09 1182.7 791.283C1178.28 799.475 1181.52 805.138 1177.61 811.743C1173.71 818.348 1176.73 828.805 1164.35 843.531C1160.38 848.243 1156.93 855.168 1154.75 859.524C1150.13 868.78 1147.63 872.245 1151.79 874.194C1158.41 877.329 1161.26 870.764 1163.73 867.645C1168.09 862.124 1167.83 863.269 1167.56 869.314C1167.32 875.013 1173.37 869.355 1178.56 862.633C1185.21 856.328 1206.07 853.509 1209.81 853.947C1211.96 854.41 1213.55 854.151 1214.32 852.278C1215.66 849.037 1216.83 842.722 1218.95 843.409C1221.07 844.096 1225.83 852.878 1230.7 855.27C1235.56 857.662 1241.56 856.481 1241.38 854.252C1241.21 852.024 1239.46 842.142 1241.65 837.913C1243.84 833.685 1245.45 814.603 1246.83 808.67C1248.2 802.737 1248.42 789.395 1250.82 786.097C1253.22 782.8 1258.39 769.372 1259.95 765.347C1261.51 761.322 1260.74 751.806 1260.41 746.321C1260.07 740.835 1263.59 731.992 1263.66 727.941Z" fill="#ED824C"/>
<path d="M1214.72 338.323C1216.02 335.982 1218.1 324.813 1218.05 320.656C1218 316.498 1217.32 303.762 1218.05 298.826C1218.77 293.89 1221.51 267.835 1226.21 255.104C1218.41 254.086 1201.27 261.861 1198.1 261.861C1194.93 261.861 1190.67 256.173 1188.59 254.096C1187.03 252.534 1182.1 254.051 1178.41 255.893C1170.17 259.663 1158.09 260.503 1152.41 259.302C1148 257.868 1144.11 255.178 1141.21 251.562C1137.41 246.555 1128.67 247.064 1126.33 248C1123.98 248.937 1119.7 278.961 1120.5 283.876C1121.3 288.792 1122.06 304.515 1119.15 310.845C1116.25 317.175 1119.74 325.698 1118.96 335.779C1118.18 345.859 1116.28 343.411 1113.42 355.441C1114.67 358.631 1120.5 362.376 1123.6 360.656C1126.7 358.936 1126.72 357.847 1130.88 354.041C1135.03 350.235 1146.35 359.191 1154.15 362.386C1154.13 358.835 1154.39 355.288 1154.93 351.777C1156.01 346.327 1157.92 337.275 1157.83 333.285C1157.75 329.123 1157.83 328.706 1159.65 326.355C1161.47 324.004 1163.38 320.203 1163.53 316.178C1163.68 312.153 1162.68 302.795 1166.24 295.778C1166.06 300.867 1168.22 307.904 1169 316.178C1169.78 324.452 1166.67 338.221 1165.72 344.541C1164.76 350.861 1165.98 349.828 1169.32 357.054C1169.63 357.985 1169.77 358.96 1169.76 359.939C1169.76 365.918 1168.74 369.765 1166.64 375.474C1166.64 375.474 1170.63 379.911 1178.3 377.586C1181.21 376.7 1182.23 373.713 1186.39 361.76C1190.03 360.458 1192.11 358.122 1201.85 361.501C1201.98 363.318 1200.33 372.324 1207.45 373.103C1214.58 373.881 1214.34 378.817 1215.63 373.103C1216.93 367.388 1218.09 351.624 1218.04 345.116C1217.99 338.608 1213.44 340.659 1214.72 338.323Z" fill="#ED824C"/>
<path d="M1255.96 648.389C1254.48 633.454 1252.66 621.069 1251.38 615.217C1249.46 604.48 1245.43 594.965 1237.13 588.981C1225.1 577.954 1218.86 566.927 1220.3 560.124C1221.74 553.321 1223.81 546.456 1218.33 544.726C1212.85 542.996 1208.76 538.773 1206.11 532.789C1203.47 526.805 1194.38 519.803 1190.78 511.824C1187.65 516.287 1178.73 516.521 1178.5 520.505C1178.27 524.489 1173.66 537.216 1171.73 539.241C1169.8 541.266 1166.04 545.983 1172.97 550.268C1179.9 554.552 1187.01 560.312 1188.09 564.816C1189.16 569.319 1186.5 573.787 1190.25 576.061C1194 578.336 1202.61 593.448 1202.08 596.603C1201.96 597.409 1201.96 598.23 1202.08 599.036C1202.09 599.422 1202.18 599.804 1202.34 600.155C1202.68 601.257 1203.26 602.269 1204.05 603.118C1204.83 603.967 1205.79 604.632 1206.86 605.065C1208.02 606.002 1209.37 607.019 1210.93 608.118C1212.81 609.416 1211.88 615.705 1211.36 617.99C1210.57 621.455 1207.38 619.461 1210.57 628.233C1210.63 628.406 1210.7 628.574 1210.78 628.742C1214.31 637.591 1213.98 650.836 1212.96 657.07C1212.01 662.931 1210.89 667.348 1212.96 672.096C1215.03 676.843 1212.39 685.377 1213.05 686.628C1221.83 689.967 1230.31 697.747 1234.27 694.984C1241.72 689.799 1235.38 685.316 1239.51 678.365C1243.64 671.414 1248.55 673.938 1253.72 671.434C1258.89 668.931 1256.86 657.533 1255.96 648.389Z" fill="#ED824C"/>
<path d="M1354.19 595.641C1352.21 592.201 1349.84 575.923 1348.55 566.748C1347.25 557.574 1352.65 553.681 1351.64 548.939C1350.63 544.196 1349.77 533.5 1349.77 530.9C1340.99 529.221 1335.52 528.305 1335.67 530.9C1335.81 533.495 1333.46 534.111 1329.82 534.111C1326.53 534.111 1319.74 535.77 1315.22 538.609C1308.9 542.578 1309.18 547.814 1306.12 552.786C1303.07 557.757 1295.49 561.695 1292.85 556.856C1290.22 552.017 1288.27 549.865 1288.27 549.865C1284.71 549.127 1285.95 551.234 1286.75 558.362C1287.54 565.491 1288.22 584.41 1288.22 589.595C1288.22 594.781 1301.58 632.598 1294.24 638.577C1288.99 622.859 1282.37 602.566 1280.04 593.977C1277.72 585.387 1279.54 576.477 1277.86 571.297C1276.19 566.117 1272.62 564.815 1273.55 558.658C1274.48 552.501 1273.55 548.236 1273.08 547.127C1264.27 545.046 1261.64 544.4 1259.78 539.698C1257.93 534.996 1255.71 523.817 1252.78 523.308C1247.21 522.418 1245.8 527.618 1246.27 531.022C1246.75 534.426 1237.24 538.533 1238.17 542.797C1239.1 547.061 1243.98 547.549 1245.6 552.409C1247.21 557.268 1246.68 559.721 1246.27 565.532C1245.87 571.343 1257.65 586.675 1260.67 591.784C1263.69 596.892 1268.88 605.349 1268.42 609.481C1267.95 613.613 1267.4 619.485 1271.83 623.576C1276.26 627.667 1274.81 639.417 1274.23 646.708C1273.66 654 1274.43 671.739 1274.43 671.739C1280.85 673.688 1282.39 674.415 1281.51 683.407C1280.62 692.398 1284.79 696.581 1286.19 700.565C1287.58 704.549 1284.63 707.953 1291.78 707.953C1298.94 707.953 1301.5 706.305 1301.96 700.565C1302.23 697.212 1305.22 697.1 1308.42 697.512C1312.13 698.199 1314.73 701.42 1316.87 701.481C1319.01 701.542 1323.23 698.998 1328.84 699.206C1329.24 699.232 1329.64 699.279 1330.03 699.349C1333.43 699.949 1336.02 697.883 1335.59 702.473C1335.16 707.063 1337.53 710.269 1342.28 708.432C1347.03 706.595 1343.58 697.532 1344.66 688.882C1345.74 680.231 1348.97 665.098 1346.82 658.677C1344.66 652.255 1343.58 650.652 1342.93 644.459C1342.29 638.267 1346.17 634.598 1346.6 628.639C1347.03 622.681 1345.96 603.416 1345.96 603.416C1353.07 602.291 1356.17 599.08 1354.19 595.641Z" fill="#ED824C"/>
<path d="M1234.96 469.208C1234.79 463.692 1232.62 464.827 1230.94 462.084C1229.27 459.342 1231.79 451.037 1229.25 445.842C1226.7 440.647 1221.88 430.577 1218.36 423.962C1214.84 417.347 1216.98 403.979 1216.02 398.947C1215.05 393.914 1211.36 391.645 1207.17 392.779C1202.98 393.914 1196.18 390.235 1195.34 387.844C1194.5 385.452 1190.71 387.92 1190.25 389.233C1189.58 391.141 1188.8 393.01 1187.91 394.83C1185.97 397.797 1178.38 396.469 1172.5 397.456C1166.61 398.443 1166.8 408.543 1163.5 408.111C1160.21 407.678 1160.64 401.959 1159.52 397.715C1158.39 393.471 1155.25 392.881 1150.87 390.429C1150.67 390.276 1150.47 390.128 1150.27 389.991C1146.48 387.401 1147.5 381.437 1143.05 378.048C1138.61 374.659 1136.08 375.28 1132.14 377.102C1128.19 378.923 1122.12 383.717 1115.82 382.267C1114.78 386.979 1115.69 389.136 1115.82 393.558C1115.96 397.98 1113.32 406.07 1113.28 414.67C1113.24 423.269 1117.55 423.575 1118.93 430.007C1120.3 436.438 1116.72 447.358 1120.75 459.199C1122.54 464.476 1132.12 478.708 1131.94 484.102C1131.66 492.04 1133.98 496.075 1138.15 500.385C1142.33 504.695 1144.7 507.199 1150.19 514.933C1155.69 522.668 1155.36 522.057 1158.74 518.622C1160.94 516.394 1161.55 513.854 1161.75 511.203C1156.7 505.097 1152.71 500.212 1149.98 496.523C1147.01 492.488 1140.85 475.457 1140.35 471.264C1139.84 467.071 1135.67 453.917 1133.97 448.295C1137.43 453.327 1144.5 462.624 1145.23 465.758C1145.96 468.893 1148.02 479.212 1149.87 480.545C1151.71 481.879 1154.91 484.921 1156.17 488.728C1157.42 492.534 1164.39 501.286 1168.42 500.375C1172.75 499.154 1173.08 492.162 1177.64 491.542C1182.21 490.921 1186.03 492.05 1186.15 484.514C1186.21 481.049 1187.83 472.699 1189.86 468.531C1191.27 465.636 1190.4 462.201 1192.91 463.692C1196.18 465.641 1192.65 471.615 1196.05 482.922C1199.45 494.228 1203.61 501.617 1205.67 505.001C1207.73 508.384 1216.68 514.831 1217.49 517.243C1218.3 519.655 1221.9 513.508 1225.25 510.12C1228.6 506.731 1225.76 505.255 1227.09 501.683C1228.42 498.111 1237.14 493.892 1237.14 493.409C1234.63 486.412 1235.13 474.724 1234.96 469.208Z" fill="#ED824C"/>
<path d="M1353.91 501.193C1351.81 495.321 1350.66 486.162 1351.12 478.02C1351.58 469.879 1353.43 473.176 1349.51 464.281C1345.59 455.387 1349.28 442.121 1348.49 432.697C1347.7 423.273 1345.38 401.113 1345.38 395.256C1345.43 391.271 1345.8 387.297 1346.51 383.375C1338.45 383.492 1330.49 380.459 1327.9 383.375C1325.31 386.29 1317.58 385.98 1314.98 382.993C1310.54 377.905 1305.1 382.174 1306.28 386.499C1306.75 392.127 1313.81 415.213 1313.69 424.439C1313.56 433.664 1312.77 439.897 1317.58 448.354C1319.88 452.395 1320.31 469.665 1315.11 480.707C1316.02 468.886 1311.44 455.672 1306.19 449.627C1299.91 442.401 1305.53 434.875 1303.54 425.507C1299.77 407.698 1295.34 401.999 1291.56 395.368C1289.26 396.335 1284.88 397.404 1278.21 396.279C1272.07 395.261 1263.59 392.132 1261.89 392.015C1258.36 391.776 1257.88 394.681 1255.05 395.653C1252.22 396.625 1244.9 394.198 1239.95 392.259C1241.92 398.722 1239.56 409.224 1239.24 414.394C1238.93 419.564 1245.38 426.189 1245.69 431.522C1246.01 436.855 1249.15 450.588 1250.27 456.888C1251.39 463.187 1253.74 464.643 1254.05 468.2C1254.36 471.756 1251.53 480.961 1252.01 485.648C1252.49 490.334 1250.84 483.658 1254.14 496.502C1257.45 509.345 1255.8 511.528 1258.87 512.739C1261.94 513.95 1261.46 512.256 1262.64 503.203C1263.58 506.516 1265.24 518.316 1268.07 518.799C1270.9 519.283 1273.97 517.1 1280.57 517.1C1282.23 520.982 1282.77 526.422 1285.15 528.361C1287.54 530.299 1296.48 530.055 1296.48 523.511C1296.48 520.687 1293.18 510.922 1292.16 506.577C1290.4 499.137 1301.82 513.024 1307.79 516.321C1318.85 523.201 1323.39 513.502 1324.42 510.953C1325.45 508.404 1330.29 508.409 1334.44 508.658C1338.59 508.907 1347.31 511.202 1350.35 510.184C1353.39 509.167 1356.04 507.05 1353.91 501.193Z" fill="#ED824C"/>
<path d="M1015.33 35.7304C1011.71 29.1298 1012.07 30.9691 1011.71 24.9346C1011.35 18.9002 1010.99 17.6728 1007.15 9.91277C1003.32 2.15269 993.509 -14.8565 990.272 -22.4227C987.035 -29.9888 973.999 -64.7137 971.814 -68.56C969.628 -72.4063 969.871 -64.5299 968.003 -61.3963C966.135 -58.2626 962.718 -56.7345 963.64 -53.5728C964.005 -52.2207 964.106 -50.811 963.937 -49.4207V-49.4207C961.809 -39.9254 945.28 -48.232 940.821 -51.5509C938.476 -53.4507 936.268 -55.3586 934.989 -57.7448C931.945 -63.4414 916.388 -64.7968 919.809 -59.9024C922.934 -55.4288 925.81 -48.7078 925.889 -47.3769C925.968 -46.0461 923.818 -32.8028 922.155 -28.6976C920.492 -24.5923 924.872 -16.416 930.474 -5.16198C936.076 6.09201 936.537 20.6433 937.85 26.7027C939.163 32.7621 942.277 32.5824 945.583 32.3861C944.138 44.196 944.215 49.5284 944.666 57.1223C945.116 64.7162 951.395 62.0294 959.243 61.477C967.842 60.8749 967.96 59.9402 968.481 56.6928C969.002 53.4455 967.138 38.9621 964.142 30.7292C961.145 22.4963 960.271 3.04032 960.271 3.04032C969.493 25.7271 973.554 33.9529 975.833 40.2252C977.537 44.9003 978.753 40.5616 978.753 40.5616C980.101 38.1979 987.252 31.1418 994.426 33.484C995.567 33.8748 996.629 34.466 997.562 35.2298C1000.94 37.9962 1003.98 45.8903 1004.64 52.0648C1005.3 58.2392 1007.81 60.2566 1010.7 55.7524C1013.59 51.2482 1012.89 50.5506 1015.92 47.3425C1018.96 44.1345 1018.94 42.3258 1015.33 35.7304Z" fill="#ED824C"/>
<path d="M1193.12 670.313C1189.1 671.961 1179.53 671.224 1175.48 669.178C1171.44 667.132 1167.14 665.748 1167.28 671.722C1167.39 676.2 1163.58 683.426 1159.51 684.871C1155.45 686.316 1151.22 679.35 1145.16 677.874C1144.31 677.421 1143.36 677.391 1142.28 677.147C1140.13 676.638 1139.63 677.879 1137.35 679.218C1135.07 680.556 1131.19 665.061 1130.69 674.46C1130.5 684.957 1124.65 696.289 1126.19 698.07C1127.72 699.851 1128.22 705.464 1126.19 708.39C1124.15 711.316 1120.77 710.099 1120.77 714.252C1120.77 718.404 1123.74 727.436 1123.74 735.002C1123.74 742.569 1121.96 751.601 1123.54 754.288C1125.13 756.974 1131.09 759.885 1132.88 763.564C1134.66 767.243 1135.73 772.352 1135.73 772.352C1140.68 768.739 1139.46 758.903 1139.87 755.178C1140.29 751.453 1149.66 733.807 1152.21 716.638C1152.99 729.629 1147.04 756.476 1147.53 763.666C1147.75 766.902 1141.71 777.807 1143.89 784.193C1145.13 789.347 1152.23 784.111 1151.56 793.352C1150.88 802.593 1150.14 805.208 1154.41 807.172C1158.68 809.136 1158.33 804.628 1160.75 797.83C1163.16 791.032 1164.14 784.64 1166.97 780.224C1169.81 775.807 1168.78 771.573 1168.89 766.795C1169 762.017 1177.06 749.667 1179.48 743.897C1181.74 744.487 1185.07 745.103 1185.32 740.529C1185.56 735.954 1191.42 711.941 1191.52 708.944C1191.61 705.947 1187.59 701.821 1188.83 696.188C1190.07 690.555 1192.01 688.504 1192.22 686.392C1192.42 684.281 1189.83 680.708 1193.12 670.313Z" fill="#ED824C"/>
<path d="M1199.26 643.014C1198.02 639.162 1193.92 630.715 1191.69 624.487C1189.46 618.258 1189.05 612.239 1187.52 606.468C1185.99 600.698 1187.4 601.853 1183.19 600.057C1178.97 598.261 1172.57 587.01 1172.2 583.672C1171.82 580.334 1168.23 569.821 1166.12 566.615C1164.02 563.41 1147.66 552.505 1146.79 548.271C1145.91 544.038 1142.82 532.752 1139.1 528.131C1135.39 523.511 1122.62 514.28 1122.25 509.66C1119.28 514.794 1115.19 520.142 1117.79 526.595C1121.51 535.825 1119.25 538.339 1120.18 541.931C1120.78 547.808 1125.41 553.446 1128.4 560.642C1131.39 567.837 1136.59 573.765 1139.31 573.872C1142.04 573.978 1143.47 579.586 1143.73 584.557C1143.99 589.529 1143.86 597.136 1148.02 607.919C1140.61 601.553 1140.61 588.582 1137.88 583.107C1135.16 577.632 1129.48 581.81 1127.93 577.51C1126.37 573.21 1122.84 564.992 1122.03 566.682C1121.23 568.371 1122.03 568.274 1121.35 573.297C1120.52 574.981 1119.99 577.668 1118.69 579.576C1116.69 582.542 1114.92 586.303 1114.92 587.885C1114.92 589.468 1117.05 596.999 1117.77 601.003C1118.49 605.008 1116.18 610.671 1116.18 613.475C1116.19 616.279 1116.41 620.711 1118.52 625.301C1120.73 630.104 1120.18 632.73 1120.18 638.292C1120.18 643.853 1130.91 642.973 1130.69 649.898C1136.71 649.038 1135.04 655.526 1140.87 657.531C1146.69 659.536 1147.12 652.127 1148.6 654.834C1152.36 661.653 1153.37 659.556 1156.24 657.002C1159.35 654.229 1157.62 648.509 1157.62 648.509C1156.19 644.184 1157.99 641.965 1160.17 642.057C1163.29 642.189 1168.09 643.075 1171.21 643.141C1174.32 643.207 1176.06 647.644 1180.37 649.898C1180.6 650.028 1180.87 650.096 1181.14 650.097C1195.24 653.781 1200.48 646.789 1199.26 643.014Z" fill="#ED824C"/>
<path d="M1054.28 152.518C1055.91 154.652 1061.48 149.528 1063.68 159.296C1065.88 169.064 1075.67 206.038 1080.48 214.75C1080.48 214.75 1089.1 220.805 1088.65 228.141C1088.2 235.478 1103.67 245.26 1105.07 255.644C1106.47 266.029 1099.46 266.641 1101.36 270.699C1103.26 274.757 1102.84 281.116 1102.03 283.29C1101.21 285.464 1102.6 294.046 1103.03 297.759C1103.46 301.471 1098.75 307.698 1099.1 315.261C1099.15 316.319 1099.69 322.167 1096.31 322.675C1092.94 323.184 1092.16 320.72 1090.67 310.737C1089.19 300.754 1088.35 298.224 1087.04 295.747C1085.74 293.269 1092.67 287.796 1092.39 287.114C1090.88 284.81 1089 282.766 1086.83 281.061C1086.01 280.682 1085.26 280.166 1084.61 279.536C1083.65 279.004 1082.85 278.229 1082.29 277.289C1076.32 271.202 1072.05 264.08 1069.82 252.932C1066.03 242.325 1064.77 234.361 1060.1 230.456C1054.81 226.02 1059.47 226.602 1057.72 216.595C1055.97 206.587 1054.77 207.277 1047.19 201.944C1038.49 195.814 1037.61 182.224 1037.07 176.963C1035.88 165.242 1034.17 163.757 1027.43 154.67C1022.23 147.648 1046.08 126.973 1047.87 130.187C1049.66 133.401 1050.93 148.159 1054.28 152.518Z" fill="#ED824C"/>
<path d="M1015.07 175.77C1014.22 172.498 1014.1 166.931 1012.56 161.721C1011.01 156.511 1014.74 137.528 1013.17 132.72C1011.59 127.912 1008.22 119.785 1006.15 115.376C1004.07 110.967 1002.61 87.0572 1001.75 85.5203C1000.89 83.9835 996.976 86.2954 994.76 88.3582C992.544 90.4209 991.7 94.5783 989.847 96.3939C987.994 98.2095 985.085 99.6166 983.858 100.515C982.631 101.413 982.982 104.021 984.522 111.953C986.061 119.885 984.549 127.677 979.892 109.33C975.234 90.9828 976.592 90.355 975.597 83.9781C974.407 76.338 974.796 77.6912 973.828 75.3904C972.859 73.0896 968.417 74.8641 965.087 76.8031C963.004 78.0219 962.093 77.9784 962.067 82.329C962.054 84.5017 961.403 90.2276 959.733 92.0697C958.063 93.9118 954.81 89.9587 950.944 91.5077C950.495 91.6882 948.806 92.4158 948.02 92.752C945.031 94.0416 942.831 93.3872 942.831 93.3872C942.831 93.3872 938.146 92.4022 937.308 93.7507C937.906 100.812 943.239 111.81 943.577 113.965C943.915 116.119 942.163 139.017 941.853 141.499C941.33 134.697 937.039 114.607 935.62 111.22C934.2 107.832 930.994 98.567 930.119 95.2592C925.897 94.1702 920.967 89.8812 921.692 92.6996C923.442 99.5238 924.641 110.049 926.66 112.682C928.68 115.315 926.682 121.699 926.337 124.012C925.992 126.325 928.384 134.711 930.813 141.198C933.242 147.685 929.107 150.718 935.31 168.296C937.782 175.303 939.988 183.198 940.227 191.627C940.333 195.245 940.916 195.595 947.411 194.408C953.906 193.221 956.046 191.045 958.402 186.841C960.758 182.637 959.879 177.431 959.764 175.375C959.364 168.248 965.55 163.589 966.497 170.093C966.808 171.905 967.332 173.675 968.058 175.364C968.704 177.072 970.404 179.566 974.404 178.745C977.853 178.039 978.672 184.832 982.724 186.164L982.801 186.164L982.943 186.206C983.036 186.236 983.131 186.26 983.227 186.279C983.39 186.326 983.552 186.372 983.735 186.409C983.881 186.443 984.032 186.443 984.178 186.412C985.268 186.437 986.357 186.357 987.431 186.172C994.286 185.196 995.673 178.08 1000.41 176.206C1005.15 174.331 1004.91 181.688 1009.53 183.018C1014.15 184.349 1016.85 182.625 1015.07 175.77Z" fill="#ED824C"/>
</g>
<defs>
<clipPath id="clip0_416_553">
<rect width="1280" height="720" fill="white"/>
</clipPath>
</defs>
</svg>
