<svg width="1280" height="720" viewBox="0 0 1280 720" fill="none" xmlns="http://www.w3.org/2000/svg">
<g clip-path="url(#clip0_416_665)">
<rect width="1280" height="720" fill="#FFFBF3"/>
<rect width="1280" height="720" fill="#023A2F"/>
<path d="M40.9038 243.199C31.3505 238.422 27.8654 229.852 31.2806 224.267C34.6959 218.681 33.2181 213.713 35.5104 208.436C37.8027 203.159 53.3196 201.605 61.6918 203.781C66.6604 190.126 74.7301 191.057 81.8689 188.264C89.0077 185.472 86.215 179.572 89.9386 171.502C93.6622 163.433 99.2475 155.357 104.216 152.885C89.9386 149.475 76.2894 137.99 69.7615 129.915C63.2336 121.839 60.1384 122.153 57.0373 117.191C53.9363 112.228 58.5908 106.322 60.1384 98.5728C61.686 90.8231 63.2452 75.8822 73.4851 72.8045C83.7249 69.7267 95.8381 68.4584 101.738 72.8045C107.637 77.1506 121.915 86.1512 125.01 88.6355C128.105 91.1198 129.979 106.642 121.286 110.058C112.594 113.473 105.758 114.381 105.176 113.135C104.554 109.412 109.208 109.104 109.516 102.273C109.825 95.4426 102.069 92.9641 97.4148 90.1656C92.7604 87.3671 88.711 96.6819 87.1401 101.04C85.5692 105.397 85.9009 115.631 90.8637 122.77C95.8265 129.909 109.482 135.186 120.664 137.362C131.846 139.538 151.709 150.691 156.055 156.597C160.401 162.502 162.572 170.56 162.263 173.056C171.886 171.817 182.44 175.854 188.026 184.855C193.611 193.856 186.181 208.436 179.648 212.165C173.114 215.894 165.37 215.889 160.401 216.203C155.433 216.517 152.332 212.473 154.816 210.612C157.3 208.75 164.439 207.511 169.408 204.095C174.376 200.68 174.993 191.68 173.131 187.019C171.27 182.359 153.885 182.056 147.986 185.472C142.086 188.887 148.608 181.126 149.231 175.534C149.853 169.943 145.816 160.948 142.709 158.773C139.602 156.597 125.016 155.049 121.601 157.842C118.185 160.634 107.946 171.188 107.946 176.459C107.946 181.731 117.255 184.843 122.846 186.705C128.437 188.567 129.054 193.536 120.984 192.913C112.914 192.29 101.115 191.36 98.0083 197.882C94.9014 204.404 84.0449 198.19 79.0762 200.674C74.1076 203.159 78.762 220.851 74.1076 222.091C69.4531 223.33 54.8614 217.745 48.0309 223.022C41.2005 228.299 44.6215 234.198 46.7917 238.853C48.9618 243.507 48.3568 246.928 40.9038 243.199Z" fill="#E5B76E"/>
<path d="M12.8885 276.272C18.8695 272.543 28.4519 266.236 16.6528 263.583C4.8537 260.93 -2.68072 255.048 -5.71195 248.456C-8.74317 241.864 -15.0209 237.541 -16.33 232.456C-17.639 227.371 -7.79483 220.238 -6.15413 211.953C-4.51343 203.668 -1.17965 197.21 7.50094 197.117C16.1815 197.024 17.1997 191.45 20.0389 183.491C22.8781 175.532 34.9099 175.468 40.984 175.014C47.0581 174.56 49.7577 170.941 41.2342 164.262C32.7107 157.583 23.7799 161.109 25.9675 150.217C27.0439 144.847 34.1943 143.655 29.3653 139.675C24.5363 135.695 14.8957 129.202 11.7074 119.893C8.51909 110.585 10.4798 105.785 13.6914 101.7C16.903 97.616 22.7036 93.7935 21.6621 86.6664C20.5683 79.1727 28.673 82.5937 31.1747 74.6113C33.6765 66.6289 31.8729 44.6133 32.0707 36.2992C32.2685 27.9852 33.2343 23.8427 34.5609 16.1512C35.8874 8.45968 29.0046 6.51063 23.041 1.60598C17.0775 -3.29867 9.15328 -10.612 3.28865 -7.17933C-2.57598 -3.74666 -11.1228 3.47359 -14.0667 5.51573C-17.0107 7.55788 -18.9074 14.6269 -17.5983 20.602C-16.4856 25.7317 -14.4428 30.6141 -11.5708 35.0076C-9.33662 38.3297 -6.68939 36.6076 -7.06175 27.6826C-7.43411 18.7577 -3.96068 18.8392 1.58396 16.5934C7.12859 14.3476 13.8601 23.7147 17.2113 28.8463C20.5625 33.9778 17.0717 45.5849 10.9278 48.4125C4.7839 51.2401 -0.0451085 54.0618 -0.16147 59.1119C-0.277832 64.162 6.2384 65.6631 4.39407 69.5845C2.54973 73.5059 -2.38981 81.3254 -7.59118 88.1326C-11.9198 93.8226 -11.0064 95.4168 -9.96497 100.461C-9.23993 104.395 -9.51604 108.449 -10.7679 112.249C-11.3846 113.72 -16.6848 117.758 -18.5117 121.557C-20.3386 125.357 -17.4994 126.864 -10.7155 133.56C-3.9316 140.257 2.30537 144.708 2.21228 148.571C2.11919 152.434 2.54973 158.979 -3.24508 159.439C-9.0399 159.899 -20.1175 162.93 -23.9749 155.093C-27.8323 147.256 -31.4919 154.913 -29.9036 161.19C-28.3152 167.468 -23.172 170.266 -16.01 173.408C-8.8479 176.55 -10.3315 180.297 -18.8783 186.929C-27.425 193.562 -44.2219 198.048 -48.8763 199.147C-53.5308 200.247 -64.9866 207.683 -65.5335 218.667C-66.0804 229.652 -64.6375 234.958 -57.4638 237.483C-50.2901 240.008 -53.426 237.873 -55.6195 232.77C-57.8129 227.668 -55.1482 220.098 -52.1577 215.712C-49.1672 211.325 -40.6844 210.423 -36.9783 213.803C-33.2722 217.184 -35.4714 229.698 -37.4438 239.758C-39.4161 249.817 -24.2367 258.899 -21.7349 263.117C-19.2332 267.335 -36.3558 278.966 -44.2509 282.666C-52.1461 286.366 -65.9873 280.176 -69.6702 281.084C-73.353 281.991 -76.2213 284.691 -78.8162 286.617C-81.4111 288.542 -86.7113 292.173 -91.9011 291.457C-97.0908 290.742 -102.141 282.899 -105.003 282.637C-107.866 282.375 -111.578 283.475 -111.619 285.255C-111.659 287.035 -124.174 285.953 -128.154 283.085C-132.133 280.217 -140.29 274.084 -143.519 272.031C-146.748 269.977 -152.758 270.239 -149.582 275.649C-146.405 281.06 -141.017 288.926 -139.958 292.347C-138.9 295.768 -141.622 297.461 -142.67 301.005C-143.717 304.548 -139.324 306.433 -140.197 310.767C-141.07 315.102 -156.261 329.81 -162.888 332.824C-169.514 335.838 -168.973 337.438 -157.965 336.704C-146.958 335.971 -127.031 325.708 -123.668 322.601C-120.305 319.495 -115.243 308.731 -107.883 307.323C-100.523 305.915 -97.469 307.364 -92.6981 309.65C-87.9273 311.937 -75.2439 314.415 -68.1516 307.253C-61.0594 300.091 -59.314 308.842 -56.626 309.301C-53.9381 309.761 -40.027 308.719 -39.5732 305.741C-39.1194 302.762 -26.7734 287.414 -18.2732 285.435C-9.77294 283.457 -2.64581 285.401 2.40429 283.737C7.45439 282.073 8.44348 279.036 12.8885 276.272Z" fill="#E5B76E"/>
<path d="M42.6194 299.539C51.1545 291.446 57.473 290.625 57.473 285.278C57.473 279.932 51.8294 258.515 62.2263 258.835C72.6233 259.155 89.4782 243.214 97.5945 239.129C115.706 230.018 128.43 252.895 140.491 250.818C152.552 248.741 165.02 243.388 172.45 245.768C179.88 248.147 185.221 254.681 190.87 262.402C196.519 270.122 197.456 276.365 196.834 286.762C196.211 297.159 190.87 299.562 179.28 301.022C167.691 302.483 157.294 296.571 151.65 294.192C146.007 291.812 151.354 284.982 152.814 281.712C154.274 278.442 156.375 281.415 157.864 285.278C159.353 289.142 165.02 291.515 173.637 289.438C182.253 287.361 181.66 279.548 181.66 273.212C181.66 266.876 180.171 262.995 168.278 262.995C156.386 262.995 149.265 271.612 143.022 271.612C136.779 271.612 129.158 258.539 120.646 256.165C115.485 254.722 110.639 264.7 103.808 267.847C96.9778 270.995 79.7446 273.398 77.6617 276.365C75.5788 279.332 75.2879 286.838 75.8814 286.663C87.7677 286.465 90.1415 287.245 95.4883 290.032C100.835 292.819 98.0657 296.17 101.231 302.512C104.396 308.853 104.204 317.167 100.242 321.525C96.2796 325.883 85.7838 328.652 79.8551 327.07C73.9265 325.487 72.5243 324.097 71.9309 320.536C71.3375 316.975 72.7222 317.563 75.893 319.146C79.0639 320.728 83.4216 320.536 85.5976 317.761C87.7735 314.986 86.3888 307.87 84.6085 304.292C82.8282 300.714 74.904 297.363 67.5732 299.911C60.2424 302.459 53.5108 309.022 52.7196 314.962C51.9283 320.903 52.5218 326.651 54.6977 330.613C56.8737 334.575 63.0176 337.542 65.7928 342.296C68.5681 347.049 70.1506 352.402 65.211 361.711C60.2715 371.02 57.8802 382.307 54.1159 384.68C50.3516 387.054 37.0864 383.691 32.5308 384.68C27.9752 385.67 22.4306 389.434 15.8911 389.637C9.35156 389.841 -3.3086 380.329 -8.66706 377.553C-14.0255 374.778 -15.6022 373.789 -19.1396 370.42C-22.677 367.052 -24.2944 357.155 -24.2944 352.6C-24.2944 348.044 -14.1884 341.656 -10.6278 336.827C-7.06709 331.998 2.24769 321.897 7.79233 322.095C13.337 322.293 16.31 327.64 23.443 330.241C30.5759 332.841 29.3483 341.33 28.7665 347.072C28.1847 352.815 26.3869 356.963 23.0241 356.963C19.6612 356.963 21.4357 347.852 19.8532 344.681C18.2707 341.51 12.3246 337.944 8.56614 337.944C4.80766 337.944 -5.69982 343.296 -8.46923 348.248C-11.2386 353.199 1.42151 366.284 8.98503 369.833C16.5485 373.382 30.9658 370.624 37.1097 369.635C43.2536 368.646 53.3479 359.337 50.9741 354.781C48.6004 350.226 40.0769 349.434 39.4834 342.895C38.89 336.355 43.6434 332.597 42.6543 329.234C41.6652 325.871 31.1287 310.436 42.6194 299.539Z" fill="#E5B76E"/>
<path d="M-54.8282 410.949C-57.0449 401.338 -27.6926 400.256 -24.3298 400.256C-20.9669 400.256 -20.0709 411.397 -10.2675 410.949C-0.463981 410.501 14.2209 408.709 24.4956 413.178C34.7703 417.646 53.4639 422.091 62.8194 419.863C72.1749 417.634 81.5361 406.941 82.4263 396.241C83.3165 385.542 88.2444 372.625 93.1258 369.059C98.0072 365.492 109.638 349.452 117.201 345.874C124.765 342.296 117.201 353.897 117.201 357.906C117.201 361.914 116.753 365.929 122.548 371.287C128.343 376.646 120.768 380.201 113.635 379.753C106.502 379.305 99.8224 383.523 99.8224 389.643C99.8224 395.764 106.507 406.923 100.265 413.16C94.0218 419.397 79.7675 424.302 79.3195 428.758C78.8715 433.215 63.279 439.9 53.0275 440.342C42.7761 440.784 13.3656 431.877 8.01882 432.325C2.672 432.773 10.9278 449.506 17.6012 452.624C24.2745 455.743 47.1862 466.686 44.1142 485.357C42.7644 493.572 33.8627 498.424 37.8772 503.329C41.8917 508.233 45.2487 512.69 30.4068 516.71C15.5649 520.731 5.79047 517.449 3.56215 524.134C1.33382 530.819 2.672 546.865 -2.67483 546.865C-8.02165 546.865 -9.80782 532.605 -15.6026 532.157C-21.3974 531.709 -36.9899 532.652 -41.9411 525.327C-43.8902 522.418 -57.9874 526.491 -64.3233 523.739C-70.0425 521.243 -61.8971 514.185 -64.1255 507.5C-66.3538 500.815 -88.2531 492.49 -93.5999 498.738C-98.9467 504.987 -90.9236 515.675 -90.0334 521.912C-89.1432 528.149 -95.8515 529.935 -103.415 517.903C-110.979 505.871 -102.967 495.178 -103.415 485.374C-103.863 475.571 -94.9381 472.894 -87.3629 471.545C-79.7878 470.195 -69.9784 452.828 -62.8513 452.386C-55.7241 451.943 -64.5967 469.91 -61.3619 478.381C-58.127 486.852 -51.6108 498.383 -41.3593 501.95C-31.1078 505.516 -30.8867 494.497 -27.6926 490.657C-21.9501 483.728 -10.6631 486.893 -9.37145 494.73C-6.60204 511.602 17.1183 503.492 16.6703 487.899C16.2223 472.307 -1.36576 460.863 -14.2761 454.62C-27.1864 448.377 -28.0883 438.131 -32.9929 428.776C-37.8975 419.42 -53.49 416.744 -54.8282 410.949Z" fill="#E5B76E"/>
<path d="M-159.553 617.73C-154.003 625.13 -139.65 631.321 -133.11 625.154C-126.571 618.987 -125.093 611.487 -116.476 610.027C-107.86 608.566 -101.931 614.483 -91.2199 605.867C-80.5088 597.25 -75.7729 583.583 -78.4202 577.05C-81.0674 570.516 -84.9539 563.668 -97.7304 561.923C-110.507 560.177 -117.931 564 -121.201 564.89C-124.47 565.78 -118.524 572.023 -117.337 577.073C-116.15 582.123 -117.041 585.986 -122.091 585.986C-127.141 585.986 -131.894 579.092 -136.351 572.884C-140.807 566.676 -146.451 557.175 -137.514 555.383C-128.578 553.591 -106.324 546.173 -100.081 544.986C-96.1034 544.284 -92.0176 544.503 -88.1383 545.628C-84.2589 546.752 -80.6894 548.752 -77.7045 551.474C-70.7228 558.013 -56.4511 561.876 -52.2911 563.657C-48.1312 565.437 -48.7246 579.697 -52.2911 588.017C-55.8576 596.337 -55.2642 592.177 -53.4547 593.66C-51.6453 595.144 -35.4187 589.105 -26.6916 593.364C-15.9921 598.6 -8.766 613.459 -15.3986 610.102C-31.8405 601.783 -52.8322 602.871 -56.3987 608.52C-59.9652 614.169 -62.339 625.648 -67.0923 627.481C-71.8457 629.314 -84.0288 642.98 -85.5124 650.707C-86.996 658.433 -92.3486 674.177 -95.9093 682.491C-99.47 690.805 -95.0192 698.834 -86.4026 698.834C-77.786 698.834 -70.1643 705.071 -70.4145 708.044C-70.6646 711.017 -74.522 723.788 -66.7956 724.684C-59.0692 725.58 -50.7552 714.578 -41.2484 712.797C-31.7417 711.017 -18.3775 693.929 -18.3775 687.099C-18.3775 680.268 -27.6864 668.981 -34.2143 670.116C-47.0781 672.344 -47.881 685.167 -52.9311 687.57C-57.9812 689.973 -59.7674 687.57 -56.2009 671.239C-52.6344 654.907 -36.2041 655.629 -29.077 652.365C-21.9498 649.101 -20.2509 660.051 -14.6074 665.979C-8.96383 671.908 3.74868 681.403 3.74868 689.723C3.74868 698.043 -19.3259 718.144 -20.8095 726.464C-22.2931 734.784 -43.9829 741.591 -54.6824 745.478C-65.3818 749.364 -77.2565 751.121 -82.0274 739.537C-86.7982 727.954 -90.033 730.921 -99.2314 722.304C-108.43 713.688 -122.405 700.911 -120.328 682.491C-118.251 664.071 -108.145 655.606 -107.848 646.471C-107.551 637.337 -108.738 636.743 -122.975 637.93C-137.212 639.117 -153.281 646.547 -159.518 638.512C-165.755 630.477 -166.686 608.217 -159.553 617.73Z" fill="#E5B76E"/>
<path d="M67.4174 -77.9199C65.2996 -66.5397 60.3601 -66.6561 56.5027 -61.9027C52.6453 -57.1493 54.4198 -47.3575 53.5296 -42.8892C52.6395 -38.4209 43.4294 -26.5462 46.6992 -17.9296C49.969 -9.31301 65.1193 8.50778 67.493 15.344C69.8668 22.1803 82.9168 24.8508 88.2869 27.8238C93.657 30.7969 108.493 46.2439 113.246 41.7872C118 37.3306 125.424 29.9009 133.447 27.8238C141.47 25.7468 153.054 17.7178 151.867 7.02418C150.68 -3.66946 153.031 -8.71956 153.95 -19.1223C154.869 -29.525 147.41 -36.3497 139.69 -43.5059C131.969 -50.6621 120.374 -50.9298 115.917 -48.556C111.46 -46.1822 108.493 -38.7525 106.707 -34.0108C104.921 -29.269 101.954 -18.558 106.707 -16.4809C111.46 -14.4038 121.566 -13.2111 122.753 -15.5907C123.94 -17.9703 115.917 -18.8547 116.214 -21.531C116.51 -24.2073 120.973 -30.4443 125.424 -32.5214C129.875 -34.5984 137.607 -27.4887 139.387 -23.7942C141.167 -20.0997 134.634 -6.11307 135.233 -2.54658C135.832 1.01991 135.53 9.04305 133.744 9.93322C131.957 10.8234 114.433 11.0968 110.867 14.3899C107.3 17.6829 93.6395 6.66345 91.26 6.66345C88.8804 6.66345 91.5567 4.58639 85.6164 -4.32691C79.6761 -13.2402 71.0712 -13.8337 68.9766 -18.2903C66.8821 -22.747 76.4064 -48.8934 76.4064 -52.4599C76.4064 -56.0264 81.7532 -59.2147 87.3967 -61.606C93.0403 -63.9972 98.0438 -81.5562 104.851 -91.0629C111.658 -100.57 147.218 -106.958 156.446 -95.8687C161.845 -89.3815 164.94 -86.8565 161.374 -82.1031C157.807 -77.3497 151.57 -74.6734 151.867 -70.2167C152.164 -65.7601 153.653 -67.5462 160.484 -60.71C167.314 -53.8737 171.771 -46.1648 171.771 -42.5925C171.771 -39.0202 167.314 -27.1396 171.771 -20.6059C176.227 -14.0722 193.164 -5.47889 195.84 1.97407C198.516 9.42704 204.032 31.0645 191.767 40.2978C179.503 49.5311 178.915 45.4643 168.803 42.6018C158.692 39.7393 154.543 39.4251 157.51 43.2883C160.478 47.1515 162.863 51.9049 166.424 56.6699C169.984 61.4349 175.04 61.72 186.729 59.2415C197.498 56.9608 207.261 61.3127 210.298 59.4393C214.423 56.9026 224.064 46.4708 224.657 40.8214C225.25 35.1721 218.117 24.0886 218.117 16.6589C218.117 9.22923 224.046 -5.92107 221.672 -11.8497C219.299 -17.7783 204.34 -14.2235 197.126 -20.763C189.911 -27.3025 198.511 -35.5177 197.917 -44.7277C197.324 -53.9377 185.437 -61.5652 181.277 -64.5092C177.117 -67.4531 174.72 -69.3731 175.04 -70.752C175.36 -72.1309 183.831 -72.864 183.308 -94.6061C182.93 -110.414 171.934 -110.757 157.97 -115.813C144.007 -120.869 129.153 -115.813 117.563 -114.039C105.974 -112.264 84.6622 -110.076 77.5176 -102.653C70.373 -95.2287 68.8487 -85.5823 67.4174 -77.9199Z" fill="#E5B76E"/>
<path d="M110.171 481.137C116.035 491.976 125.961 505.468 136.352 512.607C146.743 519.746 170.97 531.021 183.374 532.01C195.778 532.999 215.135 528.933 219.446 522.428C223.757 515.923 244.464 511.502 251.166 511.112C257.869 510.722 264.996 490.516 276.248 488.328C287.5 486.141 301.719 497.468 302.278 505.079C302.837 512.689 289.426 503.176 283.66 502.926C277.894 502.676 268.341 524.115 264.076 526.157C259.812 528.2 234.166 532.441 228.348 542.89C222.529 553.34 228.074 559.385 227.981 561.607C227.888 563.83 217.136 564.708 204.767 572.196C192.398 579.684 182.588 580.103 181.739 593.723C181.157 603.23 196.505 606.366 196.755 610.834C197.006 615.302 184.642 619.439 190.315 630.86C193.858 637.993 213.133 634.275 216.461 639.773C219.789 645.271 200.584 649.012 209.625 664.285C216.31 675.572 221.232 673.46 226.922 675.921C232.612 678.382 230.192 682.757 212.377 682.425C194.562 682.094 180.593 670.295 178.632 665.338C174.338 654.446 180.145 648.011 179.545 644.393C178.946 640.774 166.879 647.156 162.138 633.199C157.396 619.241 173.838 614.703 173.064 611.992C172.29 609.28 159.962 605.592 158.804 591.297C157.646 577.002 178.585 559.39 187.662 555.324C196.738 551.257 186.498 551.705 174.344 553.852C162.19 555.998 142.467 558.71 136.736 546.87C131.005 535.03 119.218 531.388 110.933 531.027C102.648 530.666 99.2617 536.764 83.8554 532.074C68.4491 527.385 66.9015 511.711 66.0695 500.075C65.2375 488.439 72.1203 485.175 73.505 494.35C74.3079 499.691 76.6991 507.697 81.9762 513.753C88.0968 520.776 102.473 513.171 104.085 506.987C105.696 500.802 96.9519 486.146 95.8407 475.499C94.7818 465.265 96.2188 456.637 99.7271 451.29C102.113 447.654 105.749 452.524 104.882 455.823C103.166 462.368 107.535 476.262 110.171 481.137Z" fill="#E5B76E"/>
<path d="M58.7585 -125.391C42.334 -117.001 43.3754 -92.3153 36.3297 -86.0143C30.0637 -86.7416 23.8208 -86.0841 17.2755 -87.9168C9.8458 -89.9939 3.08517 -89.0804 -4.33871 -82.7213C-8.20192 -79.4282 -9.54006 -69.2699 -13.9967 -69.2699C-18.4534 -69.2699 -22.3166 -71.5331 -32.5622 -68.4088C-38.4268 -66.6285 -42.3483 -59.1988 -45.0246 -56.825C-47.7009 -54.4512 -58.0978 -55.0272 -58.0978 -48.86C-58.0978 -42.6928 -53.1466 -33.3025 -51.6572 -28.2291C-50.1677 -23.1557 -51.6106 -23.1266 -50.6797 -16.4998C-49.7488 -9.87302 -54.4964 8.67503 -57.4694 12.6197C-60.4425 16.5644 -90.6791 14.5746 -95.4325 11.6073C-100.186 8.64012 -91.0864 -12.4388 -89.5795 -12.4388C-88.0726 -12.4388 -80.3229 -13.2126 -77.9433 -17.582C-75.5637 -21.9514 -82.8014 -21.9456 -89.5795 -21.6546C-96.3575 -21.3637 -104.398 -16.5056 -105.288 -9.47158C-106.336 -1.12262 -120.636 2.53695 -117.431 15.1157C-114.853 25.2158 -89.5678 24.8551 -84.221 28.4216C-78.8742 31.9881 -66.0686 34.9611 -59.849 30.5336C-53.6295 26.106 -40.533 8.84957 -37.8625 1.12315C-35.192 -6.60326 -33.7026 -12.5435 -35.4829 -22.0503C-37.2632 -31.557 -28.5012 -39.3707 -24.5274 -49.1742C-20.5537 -58.9777 -12.5422 -53.3109 -8.08556 -55.9814C-4.82743 -57.9362 5.69752 -67.5884 9.54327 -69.2699C22.6514 -71.824 32.9029 -73.3425 39.7159 -62.7187C41.8686 -57.5697 48.2743 -42.6579 46.651 -39.4464C43.5093 -33.2035 29.8426 -33.0465 23.9023 -37.218C17.962 -41.3896 14.541 -38.626 16.3388 -34.245C18.1366 -29.864 30.5989 -18.6467 38.0228 -15.9762C45.4467 -13.3057 56.5941 -31.4232 59.8639 -36.4733C62.7322 -40.9125 52.952 -57.5755 50.0139 -65.1856C50.8633 -67.3732 51.7593 -69.9564 52.7309 -72.8189C57.1294 -85.6187 60.6435 -84.3212 61.5744 -100.344C62.5053 -116.367 76.4396 -119.957 83.9857 -124.629C91.5317 -129.301 76.8702 -134.654 58.7585 -125.391Z" fill="#E5B76E"/>
<path d="M174.601 901.924C194.474 921.099 196.764 927.052 197.45 935.423C198.135 943.793 198.858 953.688 204.65 952.372C210.442 951.055 224.843 955.4 230.466 958.692C236.089 961.984 241.997 951.804 235.491 945.968C228.985 940.133 220.061 933.027 223.708 927.627C227.355 922.228 240.784 907.6 248.264 901.633C255.744 895.666 254.335 890.808 252.172 890.691C250.009 890.574 245.454 881.245 245.813 874.768C246.172 868.29 245.564 865.982 243.628 861.953C239.24 852.808 232.347 852.513 220.388 858.883C208.43 865.254 203.09 868.299 205.904 870.1C208.718 871.901 220.626 865.309 223.848 872.763C227.07 880.216 229.669 888.182 225.319 895.871C220.969 903.56 214.94 913.469 210.215 916.673C205.49 919.878 204.54 910.344 200.961 902.632C197.382 894.919 177.264 886.844 174.114 882.381C170.963 877.918 173.442 878.089 178.08 870.328C181.018 865.406 172.391 860.344 171.885 858.485C169.241 848.877 174.925 838.104 176.995 834.429C179.065 830.755 190.695 827.818 198.089 824.86C205.483 821.902 210.082 822.134 219.894 826.896C229.706 831.658 236.018 833.809 239.014 838.456C242.009 843.103 244.52 841.339 249.676 836.986C254.832 832.634 258.751 825.699 265.587 824.461C272.424 823.223 280.418 824.269 285.644 820.223C290.87 816.177 284.792 808.418 296.372 804.425C314.856 798.045 328.781 792.32 327.776 786.981C326.159 778.399 304.731 779.124 310.099 767.307C312.392 762.275 314.106 750.078 308.036 741.016C305.086 736.621 294.599 737.394 292.512 729.629C290.424 721.864 292.128 697.891 292.41 692.099C292.692 686.307 276.116 671.633 269.511 666.774C262.905 661.916 240.016 668.42 249.087 671.417C258.757 674.589 267.87 680.082 269.411 685.89C270.952 691.697 267.175 701.666 264.932 703.662C262.688 705.658 253.398 706.493 248.045 708.563C242.692 710.633 250.057 715.522 256.374 717.696C262.692 719.869 267.687 725.727 271.357 727.649C275.028 729.571 280.352 742.567 279.036 746.255C277.721 749.943 274.899 754.618 275.412 760.653C275.925 766.687 280.314 762.295 281.641 770.048C282.968 777.801 276.117 793.147 271.014 795.369C265.911 797.592 261.31 796.305 257.624 800.955C253.938 805.606 251.674 816.514 237.456 816.567C223.238 816.619 218.174 811.404 212.769 807.549C207.364 803.695 197.758 800.783 195.058 801.713C192.358 802.643 194.384 807.278 189.84 808.627C185.296 809.977 175.528 812.519 171.221 816.357C166.915 820.194 159.223 828.822 156.245 832.888C153.267 836.954 157.222 845.792 158.404 856.162C159.988 870.032 148.872 874.6 148.4 885.459C148.092 893.631 169.914 897.393 174.601 901.924Z" fill="#E5B76E"/>
<path d="M271.93 111.63C269.707 111.444 267.156 111.223 268.51 123.922C269.865 136.622 265.351 143.745 261.839 148.099C258.327 152.452 251.315 149.27 249.876 152.628C248.438 155.986 241.706 158.151 238.835 157.514C235.965 156.878 229.538 153.5 224.674 155.596C219.809 157.691 214.766 166.9 213.078 171.361C211.198 176.32 208.164 166.36 209.446 159.544C210.727 152.729 207.186 147.798 213.816 146.094C220.446 144.389 229.282 143.165 233.566 142.65C237.85 142.134 242.431 146.286 245.687 144.379C253.834 139.636 257.52 129.639 256.561 123.858C255.437 117.094 243.853 106.679 239.737 105.767C235.621 104.854 234.947 112.039 236.76 115.696C238.573 119.354 230.894 119.159 229.587 111.861C228.28 104.562 233.184 99.1099 234.11 94.9347C235.036 90.7594 232.239 77.9556 234.14 72.1247C236.041 66.2937 239.67 68.4292 241.055 78.8759C242.41 89.0432 245.033 92.9566 252.272 96.5149C259.512 100.073 265.584 99.6336 272.396 103.911C279.38 108.298 280.279 112.342 271.93 111.63Z" fill="#E5B76E"/>
<path d="M157.096 470.933C159.293 469.235 161.819 467.292 149.896 456.776C137.973 446.26 136.125 435.926 135.687 428.977C135.249 422.028 144.361 419.052 142.857 414.76C141.353 410.469 145.711 402.82 148.881 400.99C152.05 399.161 160.79 396.856 163.492 390.842C166.193 384.828 163.078 372.135 160.875 366.622C158.43 360.489 169.59 367.079 174.146 374.411C178.702 381.744 186.099 383.291 181.447 390.431C176.796 397.571 169.716 406.126 166.218 410.202C162.719 414.277 155.024 414.319 153.638 418.808C150.151 430.012 155.175 442.287 160.917 446.786C167.637 452.049 187.027 451.865 191.572 449.241C196.117 446.617 190.693 439.457 185.953 437.625C181.214 435.792 188.425 429.513 195.762 435.112C203.1 440.711 203.184 449.84 205.846 454.45C208.507 459.06 221.841 468.46 225.001 475.41C228.16 482.359 223.033 483.452 212.977 475.029C203.182 466.837 197.484 465.451 187.848 468.274C178.211 471.097 173.008 476.607 163.159 478.41C153.06 480.257 148.834 477.302 157.096 470.933Z" fill="#E5B76E"/>
<path d="M209.531 94.4378C201.455 88.5861 192.621 84.564 188.887 83.6568C184.282 82.5328 171.234 80.5722 165.248 83.6568C159.263 86.7414 144.306 84.8866 144.008 93.2332C143.709 101.58 152.386 106.247 158.068 116.685C163.751 127.124 170.637 130.798 185.897 133.6C201.157 136.403 205.346 123.737 211.625 118.807C217.904 113.878 217.611 100.295 209.531 94.4378ZM195.558 112.235C194.735 117.32 182.936 115.345 177.175 112.235C171.415 109.125 162.072 101.479 165.649 98.9539C170.867 95.2795 184.311 95.844 186.503 100.647C188.696 105.451 196.399 107.149 195.558 112.235Z" fill="#E5B76E"/>
<path d="M21.3717 556.488C17.2234 565.501 24.2807 579.121 37.9009 579.121C51.521 579.121 65.1993 570.94 77.941 575.676C90.6826 580.412 102.959 582.134 103.872 592.467C104.786 602.8 91.1363 604.383 92.4978 611.778C93.8592 619.172 100.69 619.597 100.236 627.777C99.7821 635.958 86.5866 652.109 67.928 648.141C49.2694 644.173 37.4471 636.644 36.5104 628.458C35.5736 620.272 43.3815 610.131 59.1602 624.188C72.9141 636.406 68.4691 623.024 61.5863 616.723C51.9283 607.85 45.6448 603.132 39.5474 603.341C33.1475 603.539 21.3484 600.345 22.5586 615.274C23.1404 622.57 16.2693 637.086 14.6751 644.295C13.5115 649.496 17.299 650.805 27.4109 651.568C31.693 651.893 39.4485 666.328 43.3873 667.643C48.5422 669.388 55.4366 666.357 60.9289 668.341C70.4705 671.791 79.7562 674.107 86.1037 670.005C96.1166 663.547 108.399 646.971 117.521 648.158C126.644 649.345 117.068 667.753 117.521 673.176C117.975 678.598 125.713 677.749 133.445 679.471C141.178 681.193 154.001 691.2 146.746 713.35C144.523 720.14 136.273 722.292 124.177 717.69C120.326 716.23 118.109 709.393 118.72 704.89C121.553 684.224 103.657 703.267 103.657 713.123C103.657 718.673 115.526 724.177 119.127 727.04C127.313 733.498 143.697 741.684 151.883 730.92C160.069 720.157 166.655 703.104 172.578 694.959C178.501 686.814 158.033 685.487 151.191 675.177C144.349 664.868 145.279 653.709 145.279 646.355C145.279 639 142.551 632.542 137.541 628.237C132.532 623.932 138.001 600.683 138.909 590.774C139.816 580.866 140.73 576.997 119.796 573.983C98.8628 570.97 85.3183 564.512 81.3969 556.762C77.4755 549.012 68.6844 545.609 62.011 544.654C55.3377 543.7 45.8309 551.927 43.0033 558.24C40.1757 564.552 31.2741 560.09 30.0581 554.667C28.8421 549.245 22.6109 553.777 21.3717 556.488Z" fill="#E5B76E"/>
<path d="M58.7585 699.212C42.334 707.607 43.3755 732.293 36.3472 738.6C30.0811 737.867 23.8383 738.525 17.293 736.698C9.86327 734.615 3.10264 735.534 -4.32124 741.887C-8.18445 745.186 -9.52259 755.345 -13.9792 755.345C-18.4359 755.345 -22.2991 753.081 -32.5448 756.2C-38.4269 757.992 -42.3483 765.41 -45.0246 767.784C-47.7009 770.157 -58.0978 769.581 -58.0978 775.749C-58.0978 781.916 -53.1466 791.306 -51.6572 796.356C-50.1677 801.406 -51.6106 801.459 -50.6797 808.086C-49.7488 814.712 -54.4964 833.266 -57.4694 837.211C-60.4425 841.156 -90.6791 839.166 -95.4325 836.193C-100.186 833.22 -91.1154 812.17 -89.5795 812.17C-88.0435 812.17 -80.3229 811.396 -77.9433 807.032C-75.5637 802.669 -82.8014 802.663 -89.5795 802.96C-96.3575 803.257 -104.398 808.109 -105.288 815.143C-106.336 823.492 -120.636 827.151 -117.431 839.73C-114.853 849.836 -89.5678 849.47 -84.221 853.036C-78.8742 856.603 -66.0977 859.576 -59.8607 855.119C-53.6237 850.662 -40.5446 833.429 -37.8741 825.703C-35.2036 817.976 -33.7142 812.036 -35.4946 802.529C-37.2749 793.023 -28.5128 785.238 -24.5391 775.434C-20.5653 765.631 -12.5538 771.304 -8.09717 768.627C-4.83904 766.672 5.68587 757.02 9.53163 755.345C22.6398 752.79 32.8912 751.272 39.7042 761.89C41.8569 767.039 48.2626 781.951 46.6394 785.162C43.4976 791.399 29.8309 791.562 23.8907 787.391C17.9504 783.219 14.5294 785.977 16.3271 790.358C18.1249 794.739 30.5873 805.956 38.0112 808.632C45.4351 811.309 56.5825 793.18 59.8523 788.13C62.7206 783.696 52.9404 767.027 50.0022 759.423C50.8517 757.236 51.7477 754.646 52.7193 751.784C57.1178 738.984 60.6319 740.282 61.5628 724.259C62.4937 708.236 76.428 704.646 83.9741 699.974C91.5201 695.302 76.8702 689.955 58.7585 699.212Z" fill="#E5B76E"/>
<path d="M1261.09 505.623C1270.64 510.4 1274.13 518.97 1270.71 524.555C1267.3 530.141 1268.77 535.109 1266.48 540.386C1264.19 545.663 1248.67 547.217 1240.3 545.041C1235.33 558.696 1227.26 557.765 1220.12 560.558C1212.98 563.35 1215.78 569.25 1212.05 577.32C1208.33 585.389 1202.74 593.465 1197.78 595.937C1212.05 599.347 1225.7 610.832 1232.23 618.907C1238.76 626.983 1241.85 626.669 1244.95 631.631C1248.06 636.594 1243.4 642.5 1241.85 650.249C1240.31 657.999 1238.75 672.94 1228.51 676.018C1218.27 679.095 1206.15 680.364 1200.25 676.018C1194.35 671.671 1180.08 662.671 1176.98 660.187C1173.89 657.702 1172.01 642.18 1180.71 638.764C1189.4 635.349 1196.23 634.442 1196.82 635.687C1197.44 639.41 1192.78 639.719 1192.48 646.549C1192.17 653.379 1199.92 655.858 1204.58 658.656C1209.23 661.455 1213.28 652.14 1214.85 647.782C1216.42 643.425 1216.09 633.191 1211.13 626.052C1206.17 618.913 1192.51 613.636 1181.33 611.46C1170.15 609.284 1150.28 598.131 1145.94 592.225C1141.59 586.32 1139.42 578.262 1139.73 575.766C1130.11 577.005 1119.55 572.968 1113.97 563.967C1108.38 554.966 1115.81 540.386 1122.34 536.657C1128.88 532.928 1136.62 532.933 1141.59 532.619C1146.56 532.305 1149.66 536.349 1147.18 538.21C1144.69 540.072 1137.55 541.311 1132.58 544.727C1127.62 548.142 1127 557.142 1128.86 561.803C1130.72 566.463 1148.11 566.766 1154.01 563.35C1159.91 559.935 1153.38 567.696 1152.76 573.288C1152.14 578.879 1156.18 587.874 1159.28 590.049C1162.39 592.225 1176.98 593.773 1180.39 590.98C1183.81 588.188 1194.05 577.634 1194.05 572.363C1194.05 567.091 1184.74 563.979 1179.15 562.117C1173.56 560.255 1172.94 555.286 1181.01 555.909C1189.08 556.532 1200.88 557.462 1203.98 550.94C1207.09 544.418 1217.95 550.632 1222.92 548.148C1227.88 545.663 1223.23 527.971 1227.88 526.731C1232.54 525.492 1247.13 531.077 1253.96 525.8C1260.79 520.523 1257.37 514.624 1255.2 509.969C1253.03 505.315 1253.64 501.894 1261.09 505.623Z" fill="#E5B76E"/>
<path d="M1279.75 484.646C1273.77 488.375 1264.19 494.682 1275.99 497.335C1287.78 499.988 1295.32 505.87 1298.35 512.462C1301.38 519.054 1307.66 523.377 1308.97 528.462C1310.28 533.547 1300.43 540.68 1298.79 548.965C1297.15 557.25 1293.82 563.708 1285.14 563.801C1276.46 563.894 1275.44 569.468 1272.6 577.427C1269.76 585.386 1257.73 585.45 1251.65 585.904C1245.58 586.358 1242.88 589.977 1251.4 596.656C1259.93 603.335 1268.86 599.809 1266.67 610.701C1265.59 616.071 1258.44 617.264 1263.27 621.243C1268.1 625.223 1277.74 631.716 1280.93 641.025C1284.12 650.334 1282.16 655.133 1278.95 659.218C1275.74 663.302 1269.93 667.125 1270.98 674.252C1272.07 681.745 1263.97 678.324 1261.46 686.307C1258.96 694.289 1260.77 716.305 1260.57 724.619C1260.37 732.933 1259.4 737.075 1258.08 744.767C1256.75 752.458 1263.63 754.407 1269.6 759.312C1275.56 764.217 1283.48 771.53 1289.35 768.097C1295.21 764.665 1303.76 757.444 1306.7 755.402C1309.65 753.36 1311.55 746.291 1310.24 740.316C1309.12 735.186 1307.08 730.304 1304.21 725.91C1301.97 722.588 1299.33 724.31 1299.7 733.235C1300.07 742.16 1296.6 742.079 1291.05 744.325C1285.51 746.57 1278.78 737.203 1275.43 732.072C1272.08 726.94 1275.57 715.333 1281.71 712.506C1287.85 709.678 1292.68 706.856 1292.8 701.806C1292.92 696.756 1286.4 695.255 1288.24 691.334C1290.09 687.412 1295.03 679.593 1300.23 672.786C1304.56 667.095 1303.64 665.501 1302.6 660.457C1301.88 656.523 1302.15 652.469 1303.41 648.67C1304.02 647.198 1309.32 643.16 1311.15 639.361C1312.98 635.561 1310.14 634.055 1303.35 627.358C1296.57 620.661 1290.33 616.21 1290.43 612.347C1290.52 608.484 1290.09 601.939 1295.88 601.479C1301.68 601.019 1312.76 597.988 1316.61 605.825C1320.47 613.662 1324.13 606.006 1322.54 599.728C1320.95 593.45 1315.81 590.652 1308.65 587.51C1301.49 584.368 1302.97 580.621 1311.52 573.989C1320.06 567.356 1336.86 562.87 1341.51 561.771C1346.17 560.671 1357.62 553.236 1358.17 542.251C1358.72 531.266 1357.28 525.96 1350.1 523.435C1342.93 520.91 1346.06 523.045 1348.26 528.148C1350.45 533.25 1347.79 540.82 1344.8 545.207C1341.81 549.593 1333.32 550.495 1329.62 547.115C1325.91 543.735 1328.11 531.22 1330.08 521.16C1332.05 511.101 1316.87 502.019 1314.37 497.801C1311.87 493.583 1328.99 481.952 1336.89 478.252C1344.78 474.552 1358.63 480.742 1362.31 479.835C1365.99 478.927 1368.86 476.227 1371.45 474.302C1374.05 472.376 1379.35 468.745 1384.54 469.461C1389.73 470.177 1394.78 478.019 1397.64 478.281C1400.5 478.543 1404.22 477.443 1404.26 475.663C1404.3 473.883 1416.81 474.965 1420.79 477.833C1424.77 480.701 1432.93 486.834 1436.16 488.887C1439.39 490.941 1445.4 490.679 1442.22 485.269C1439.04 479.858 1433.66 471.992 1432.6 468.571C1431.54 465.15 1434.26 463.457 1435.31 459.913C1436.36 456.37 1431.96 454.485 1432.84 450.151C1433.71 445.816 1448.9 431.108 1455.53 428.094C1462.15 425.081 1461.61 423.481 1450.6 424.214C1439.6 424.947 1419.67 435.21 1416.31 438.317C1412.94 441.424 1407.88 452.187 1400.52 453.595C1393.16 455.003 1390.11 453.554 1385.34 451.268C1380.57 448.981 1367.88 446.503 1360.79 453.665C1353.7 460.827 1351.95 452.076 1349.26 451.617C1346.58 451.157 1332.67 452.199 1332.21 455.177C1331.76 458.156 1319.41 473.504 1310.91 475.483C1302.41 477.461 1295.28 475.518 1290.23 477.181C1285.18 478.845 1284.19 481.883 1279.75 484.646Z" fill="#E5B76E"/>
<path d="M1253.8 450.52C1245.27 458.613 1238.95 459.433 1238.95 464.78C1238.95 470.127 1244.59 491.543 1234.2 491.223C1223.8 490.903 1206.94 506.845 1198.83 510.929C1180.72 520.04 1167.99 497.164 1155.93 499.241C1143.87 501.318 1131.4 506.67 1123.97 504.291C1116.54 501.911 1111.2 495.378 1105.55 487.657C1099.9 479.936 1098.97 473.694 1099.59 463.297C1100.21 452.9 1105.55 450.497 1117.14 449.037C1128.73 447.576 1139.13 453.487 1144.77 455.867C1150.42 458.247 1145.07 465.077 1143.61 468.347C1142.15 471.617 1140.05 468.643 1138.56 464.78C1137.07 460.917 1131.4 458.543 1122.79 460.62C1114.17 462.697 1114.76 470.511 1114.76 476.847C1114.76 483.183 1116.25 487.064 1128.14 487.064C1140.04 487.064 1147.16 478.447 1153.4 478.447C1159.64 478.447 1167.26 491.52 1175.78 493.894C1180.94 495.337 1185.78 485.359 1192.61 482.211C1199.44 479.064 1216.68 476.661 1218.76 473.694C1220.84 470.726 1221.13 463.221 1220.54 463.396C1208.65 463.593 1206.28 462.814 1200.93 460.027C1195.59 457.24 1198.36 453.889 1195.19 447.547C1192.03 441.205 1192.22 432.891 1196.18 428.534C1200.14 424.176 1210.64 421.406 1216.57 422.989C1222.5 424.571 1223.9 425.962 1224.49 429.523C1225.08 433.083 1223.7 432.496 1220.53 430.913C1217.36 429.331 1213 429.523 1210.82 432.298C1208.65 435.073 1210.03 442.189 1211.81 445.767C1213.59 449.345 1221.52 452.696 1228.85 450.148C1236.18 447.599 1242.91 441.037 1243.7 435.096C1244.49 429.156 1243.9 423.408 1241.72 419.446C1239.55 415.484 1233.4 412.516 1230.63 407.763C1227.85 403.01 1226.27 397.657 1231.21 388.348C1236.15 379.039 1238.54 367.752 1242.31 365.378C1246.07 363.004 1259.34 366.367 1263.89 365.378C1268.45 364.389 1273.99 360.625 1280.53 360.421C1287.07 360.218 1299.73 369.73 1305.09 372.505C1310.45 375.281 1312.02 376.27 1315.56 379.638C1319.1 383.007 1320.72 392.904 1320.72 397.459C1320.72 402.015 1310.61 408.403 1307.05 413.232C1303.49 418.061 1294.17 428.161 1288.63 427.963C1283.09 427.766 1280.11 422.419 1272.98 419.818C1265.85 417.217 1267.07 408.729 1267.66 402.986C1268.24 397.244 1270.04 393.096 1273.4 393.096C1276.76 393.096 1274.99 402.207 1276.57 405.378C1278.15 408.548 1284.1 412.115 1287.86 412.115C1291.61 412.115 1302.12 406.762 1304.89 401.811C1307.66 396.86 1295 383.775 1287.44 380.226C1279.87 376.677 1265.46 379.435 1259.31 380.424C1253.17 381.413 1243.07 390.722 1245.45 395.277C1247.82 399.833 1256.35 400.624 1256.94 407.164C1257.53 413.703 1252.78 417.462 1253.77 420.825C1254.76 424.187 1265.29 439.623 1253.8 450.52Z" fill="#E5B76E"/>
<path d="M1351.43 345.916C1353.65 355.528 1324.3 356.61 1320.93 356.61C1317.57 356.61 1316.67 345.468 1306.87 345.916C1297.07 346.364 1282.38 348.156 1272.11 343.688C1261.83 339.22 1243.14 334.775 1233.78 337.003C1224.43 339.231 1215.07 349.925 1214.18 360.624C1213.29 371.324 1208.36 384.24 1203.48 387.806C1198.6 391.373 1186.97 407.413 1179.4 410.992C1171.84 414.57 1179.4 402.968 1179.4 398.96C1179.4 394.951 1179.85 390.937 1174.06 385.578C1168.26 380.22 1175.84 376.665 1182.97 377.113C1190.1 377.561 1196.78 373.343 1196.78 367.222C1196.78 361.101 1190.1 349.942 1196.34 343.705C1202.58 337.468 1216.84 332.564 1217.28 328.107C1217.73 323.65 1233.32 316.965 1243.58 316.523C1253.83 316.081 1283.24 324.989 1288.58 324.541C1293.93 324.093 1285.68 307.36 1279 304.241C1272.33 301.123 1249.42 290.179 1252.49 271.509C1253.84 263.294 1262.74 258.441 1258.73 253.537C1254.71 248.632 1251.35 244.175 1266.2 240.155C1281.04 236.135 1290.81 239.416 1293.04 232.731C1295.27 226.046 1293.93 210 1299.28 210C1304.62 210 1306.41 224.26 1312.21 224.708C1318 225.156 1333.59 224.214 1338.54 231.539C1340.49 234.448 1354.59 230.375 1360.93 233.127C1366.65 235.623 1358.5 242.68 1360.73 249.365C1362.96 256.05 1384.86 264.376 1390.2 258.127C1395.55 251.879 1387.53 241.191 1386.64 234.954C1385.75 228.717 1392.45 226.931 1400.02 238.962C1407.58 250.994 1399.57 261.688 1400.02 271.491C1400.47 281.295 1391.54 283.971 1383.97 285.321C1376.39 286.671 1366.58 304.038 1359.45 304.48C1352.33 304.922 1361.2 286.956 1357.96 278.485C1354.73 270.014 1348.21 258.482 1337.96 254.916C1327.71 251.349 1327.49 262.369 1324.3 266.208C1318.55 273.138 1307.27 269.973 1305.97 262.136C1303.21 245.263 1279.48 253.374 1279.93 268.966C1280.38 284.559 1297.97 296.003 1310.88 302.246C1323.79 308.489 1324.69 318.734 1329.6 328.09C1334.5 337.445 1350.09 340.121 1351.43 345.916Z" fill="#E5B76E"/>
<path d="M1161.66 873.305C1171.2 866.743 1174.61 870.313 1180.7 869.672C1186.79 869.03 1192.45 860.844 1196.23 858.308C1200.02 855.773 1214.92 853.869 1218.69 845.459C1222.46 837.049 1224.32 813.732 1227.47 807.216C1230.61 800.699 1223.26 789.593 1221.56 783.696C1219.85 777.798 1220.26 756.384 1213.74 756.183C1207.23 755.982 1196.73 756.001 1189.58 751.806C1182.43 747.611 1168.56 745.116 1161.85 753.526C1155.14 761.935 1149.91 763.851 1141.91 770.568C1133.92 777.285 1134.38 787.384 1134.79 797.903C1135.2 808.422 1143.23 816.799 1148.06 818.266C1152.89 819.732 1160.24 816.567 1164.85 814.471C1169.46 812.374 1179.13 806.886 1177.23 802.058C1175.33 797.231 1169.02 789.25 1166.5 790.097C1163.97 790.944 1169.03 797.236 1166.93 798.921C1164.83 800.606 1157.27 801.871 1152.65 800.199C1148.03 798.527 1147.58 788.033 1148.92 784.159C1150.27 780.286 1164.78 774.997 1166.87 772.048C1168.96 769.1 1174.84 763.633 1176.74 764.264C1178.63 764.895 1191.23 777.076 1196.08 777.263C1200.93 777.449 1202.82 794.899 1204.51 796.579C1206.19 798.259 1202.83 797.84 1200.74 808.346C1198.66 818.852 1204.33 825.348 1202.67 829.983C1201 834.618 1175.79 846.405 1173.28 848.931C1170.76 851.456 1164.72 849.938 1159.04 847.646C1153.35 845.354 1137.41 854.253 1125.88 856.177C1114.34 858.102 1084.65 837.514 1085.95 823.146C1086.71 814.74 1086.3 810.767 1092.18 809.92C1098.06 809.072 1104.37 811.582 1107.31 808.217C1110.24 804.851 1107.93 805.064 1107.92 795.401C1107.91 785.737 1110.2 777.131 1112.72 774.602C1115.24 772.073 1126.79 766.808 1128.25 759.034C1129.71 751.261 1123.78 733.217 1127.15 726.05C1130.52 718.882 1141.89 699.667 1157.1 701.79C1172.3 703.913 1169.84 707.208 1174.98 716.375C1180.12 725.542 1182.84 728.694 1183.46 723.863C1184.09 719.033 1185.76 713.982 1186.6 708.094C1187.45 702.206 1184.07 698.434 1174.04 691.935C1164.8 685.945 1160.96 675.969 1157.49 675.151C1152.78 674.035 1138.59 674.613 1134.18 678.194C1129.77 681.775 1126.99 694.66 1121.75 699.92C1116.5 705.181 1101.6 711.722 1099.1 717.596C1096.59 723.47 1109.69 731.516 1110.18 741.241C1110.67 750.966 1098.78 750.71 1092.7 757.65C1086.62 764.591 1089.65 778.385 1090.51 783.407C1091.38 788.429 1091.72 791.481 1090.52 792.232C1089.32 792.982 1082.8 787.519 1067.82 803.284C1056.93 814.743 1064.47 822.751 1070.79 836.192C1077.1 849.632 1091.19 856.541 1100.65 863.468C1110.11 870.396 1126.74 883.896 1137.05 883.685C1147.35 883.474 1155.24 877.72 1161.66 873.305Z" fill="#E5B76E"/>
<path d="M1064.48 594.851C1064.85 597.603 1065.28 600.762 1080.34 595.694C1095.4 590.627 1105.28 594.193 1111.53 597.288C1117.77 600.384 1115.78 609.762 1120.25 610.606C1124.73 611.45 1129.17 619.048 1129.17 622.708C1129.17 626.367 1126.79 635.089 1130.66 640.435C1134.52 645.782 1147.05 649.43 1152.92 650.256C1159.45 651.205 1148.16 657.575 1139.53 657.855C1130.91 658.134 1125.87 663.766 1122 656.168C1118.14 648.569 1114.28 638.161 1112.5 633.093C1110.72 628.025 1114.53 621.34 1111.33 617.896C1103.37 609.274 1090.23 607.488 1083.47 610.21C1075.55 613.399 1066.02 630.283 1066.02 635.531C1066.02 640.779 1074.93 639.662 1078.89 636.473C1082.85 633.285 1084.63 642.664 1076.12 646.224C1067.6 649.785 1059.67 645.288 1054.33 645.288C1048.98 645.288 1034.2 652.136 1026.6 651.385C1019 650.635 1020.62 645.66 1032.94 641.163C1044.93 636.776 1048.98 632.534 1051.36 622.778C1053.74 613.021 1051.56 605.76 1054.92 596.328C1058.42 586.694 1063.1 584.512 1064.48 594.851Z" fill="#E5B76E"/>
<path d="M983.272 515.834C982.415 521.891 970.798 533.652 975.391 538.588C979.984 543.524 989.212 547.977 994.827 555.912C1000.44 563.846 1001.79 576.699 1011.22 578.873C1020.65 581.046 1030.05 581.312 1035.35 582.319C1040.66 583.326 1044.41 577.221 1054.19 571.042C1063.96 564.862 1063.79 546.639 1066.93 543.856C1070.06 541.074 1087.52 526.558 1099.64 528.58C1111.75 530.601 1112.45 532.929 1112.61 527.538C1112.88 518.719 1107.1 514.151 1103.6 513.171C1100.09 512.19 1089.31 515.05 1082.01 519.84C1074.7 524.63 1060.86 516.213 1057.78 519.304C1054.7 522.396 1057.88 533.351 1054.24 542.2C1050.15 552.115 1043.77 566.159 1019.5 557.35C1011.55 554.462 1001.63 548.31 998.745 543.901C995.863 539.492 994.303 528.915 995.767 523.554C997.231 518.194 1014.15 520.011 1017.77 520.014C1021.39 520.017 1025.73 531.022 1025.65 539.182C1025.57 547.342 1033.34 543.439 1033.44 535.452C1033.55 527.465 1029.63 511.241 1026.8 506.634C1023.97 502.028 1011.1 507.793 1007 508.511C1002.91 509.23 984.886 504.387 983.272 515.834Z" fill="#E5B76E"/>
<path d="M1061.94 388.708C1068.25 391.541 1074.97 391.161 1077.01 395.45C1079.05 399.74 1078.43 409.752 1083.53 412.613C1088.62 415.474 1082.1 423.017 1078.43 426.511C1074.77 430.004 1069.88 439.588 1075.38 438.972C1080.87 438.355 1087.6 434.886 1092.89 434.886C1098.19 434.886 1108.98 431.413 1111.83 429.368C1114.68 427.323 1134.64 427.735 1138.91 426.307C1143.19 424.878 1137.9 413.842 1138.91 408.528C1139.93 403.213 1139.31 395.858 1142.99 392.181C1146.67 388.504 1155 385.454 1155 379.716C1155 373.978 1146.45 369.092 1145.63 363.778C1144.82 358.464 1149.91 345.37 1148.89 340.076C1147.87 334.782 1134.03 330.677 1126.9 324.546C1119.78 318.416 1112.85 314.142 1102.87 315.146C1092.89 316.151 1091.88 318.416 1090.86 321.481C1089.84 324.546 1086.38 326.383 1078.84 329.04C1071.3 331.697 1074.16 343.55 1071.92 348.452C1069.68 353.354 1067.44 356.219 1072.94 357.851C1078.44 359.484 1084.34 360.1 1089.84 364.798C1095.34 369.496 1101.04 378.696 1108.47 378.079C1115.9 377.463 1116.51 367.251 1118.96 363.982C1121.4 360.713 1119.76 355.178 1116.72 351.109C1113.68 347.039 1114.62 354.174 1113.93 357.239C1113.23 360.304 1110.18 368.476 1105.71 363.778C1101.23 359.08 1092.88 353.154 1091.45 349.68C1090.02 346.207 1094.1 342.729 1097.97 340.28C1101.83 337.831 1098.26 336.767 1101.56 332.677C1104.85 328.588 1124.01 335.763 1127.48 339.644C1130.94 343.526 1130.73 352.313 1131.55 355.995C1132.36 359.676 1136.64 362.533 1137.25 367.435C1137.86 372.337 1129.31 382.965 1125.85 386.031C1122.38 389.096 1125.85 400.949 1125.85 407.079C1125.85 413.209 1110.37 420.972 1105.28 419.744C1100.19 418.515 1102.2 408.856 1104.8 405.802C1108.39 401.569 1114.09 402.777 1110.62 396.927C1109.5 395.034 1095.71 399.328 1094.27 400.929C1092.84 402.529 1091.22 404.81 1089.39 405.83C1087.56 406.851 1085.52 403.994 1085.93 399.292C1086.33 394.59 1087.35 385.542 1080.22 382.713C1073.1 379.884 1062.68 383.966 1058.83 380.901C1054.99 377.835 1054.2 385.234 1061.94 388.708Z" fill="#E5B76E"/>
<path d="M1091.92 261.324C1086.59 252.208 1077.71 240.938 1068.62 235.126C1059.53 229.314 1038.5 220.363 1027.87 219.879C1017.24 219.396 1000.81 223.449 997.32 229.149C993.827 234.849 976.261 239.246 970.544 239.777C964.828 240.307 959.331 257.831 949.779 260.036C940.227 262.24 927.741 252.951 927.04 246.446C926.339 239.942 938.08 247.699 943.015 247.745C947.95 247.79 955.483 229.138 959.068 227.263C962.653 225.388 984.446 221.001 989.111 211.876C993.775 202.752 988.859 197.735 988.873 195.827C988.887 193.92 998.05 192.852 1008.4 186.073C1018.75 179.293 1027.12 178.647 1027.45 166.951C1027.67 158.787 1014.46 156.551 1014.11 152.729C1013.77 148.908 1024.21 145 1019.03 135.38C1015.79 129.372 999.424 133.123 996.418 128.51C993.413 123.896 1009.72 120.127 1001.54 107.305C995.495 97.8297 991.35 99.7839 986.415 97.842C981.479 95.9001 983.419 92.08 998.654 91.8414C1013.89 91.6028 1026.17 101.303 1028 105.493C1031.99 114.7 1027.21 120.385 1027.83 123.468C1028.45 126.551 1038.58 120.728 1043.04 132.549C1047.5 144.37 1033.58 148.741 1034.32 151.042C1035.07 153.342 1045.71 156.141 1047.12 168.357C1048.53 180.572 1031.15 196.277 1023.52 200.029C1015.88 203.78 1024.62 203.095 1034.94 200.899C1045.26 198.703 1062.04 195.801 1067.29 205.778C1072.53 215.755 1082.71 218.53 1089.81 218.596C1096.9 218.662 1099.61 213.338 1112.92 216.904C1126.22 220.471 1128 233.856 1129.06 243.802C1130.11 253.749 1124.32 256.748 1122.87 248.926C1122.03 244.373 1119.75 237.583 1115.06 232.548C1109.62 226.711 1097.56 233.648 1096.37 238.995C1095.17 244.342 1103.07 256.644 1104.34 265.735C1105.54 274.473 1104.57 281.909 1101.73 286.593C1099.8 289.779 1096.55 285.713 1097.19 282.861C1098.46 277.202 1094.32 265.425 1091.92 261.324Z" fill="#E5B76E"/>
<path d="M913.293 -33.8036C917.469 -30.0842 924.523 -29.6168 927.246 -25.1869C929.969 -20.7569 927.026 0.785338 932.071 -0.460716C937.115 -1.70677 937.504 -13.997 941.269 -18.1627C945.034 -22.3284 951.005 -29.371 958.668 -23.4651C966.332 -17.5593 969.599 -13.4692 968.258 -7.86321C966.916 -2.25721 964.766 1.62857 972.273 -2.14921C979.78 -5.927 986.303 -5.15459 989.65 2.34401C992.998 9.84261 990.116 12.9364 993.764 16.0004C997.411 19.0644 1000.54 33.5984 996.764 40.1632C992.986 46.7281 979.268 57.0269 970.583 52.0112C961.897 46.9954 952.705 37.6759 954.208 31.4498C955.315 26.7869 956.874 18.6608 963.023 20.4575C969.172 22.2543 966.292 29.0629 966.231 33.8792C966.169 38.6955 970.353 28.4259 972.322 23.7671C974.292 19.1084 966.612 13.9899 961.33 11.1449C956.048 8.29991 950.169 8.98276 947.221 16.8946C944.273 24.8064 943.025 32.2093 940.207 39.5172C937.389 46.8252 950.973 52.1204 954.455 53.6977C957.937 55.2749 964.035 65.5938 964.958 68.7376C965.881 71.8814 980.753 65.4043 985.097 67.5175C989.441 69.6307 999.611 67.3511 1003.16 59.5933C1006.72 51.8354 1009.33 37.2316 1016.13 31.4606C1022.94 25.6896 1016.82 16.1727 1014.54 5.08537C1012.27 -6.00199 1000.92 -19.7138 997.21 -25.6599C993.5 -31.606 984.344 -25.1971 980.6 -25.5354C976.856 -25.8737 982.849 -42.309 971.386 -43.7569C959.922 -45.2049 945.297 -37.8289 941.019 -34.1161C936.742 -30.4032 924.142 -33.3929 919.888 -36.5006C914.875 -40.165 905.489 -40.7579 913.293 -33.8036Z" fill="#E5B76E"/>
<path d="M1207.79 252.729L1207.79 252.728C1200.19 249.24 1199.67 253.342 1204.74 259.821C1209.69 266.139 1215.54 267.777 1221.14 273.563C1226.73 279.35 1227.87 283.912 1225.71 293.921C1223.48 304.201 1226.16 307.433 1229.92 302.597C1233.67 297.762 1235.38 284.79 1237.66 281.18C1239.94 277.571 1246.39 274.105 1247.63 266.808C1248.87 259.51 1241.72 256.735 1242.19 260.783C1242.65 264.83 1239.59 271.352 1236.04 269.105C1232.48 266.858 1225.12 253.164 1226.36 246.43C1227.41 240.676 1241.67 237.365 1243.5 230.824C1245.33 224.284 1242.36 221.661 1242.36 221.661C1242.36 221.661 1234.36 218.973 1229.6 221.877C1224.83 224.781 1218.18 229.948 1215.16 242.335C1212.14 254.715 1209.82 253.654 1207.79 252.729Z" fill="#E5B76E"/>
<path d="M1183.2 311.536L1183.2 311.538C1191.12 317.323 1187.56 319.365 1178.36 317.075C1169.38 314.839 1171.06 303.416 1155.41 306.95C1139.76 310.483 1138.17 294.388 1138.17 294.388C1140.19 290.888 1139.54 283.546 1145.67 279.622C1151.81 275.699 1158.78 281.328 1154.67 282.426C1150.57 283.524 1146.27 288.857 1150.56 291.331C1154.84 293.805 1172.25 295.496 1177.86 291.794C1182.65 288.629 1177.1 274.036 1182.16 269.849C1187.22 265.663 1191.51 267.449 1191.51 267.449C1191.51 267.449 1198.91 273.905 1199.07 279.465C1199.23 285.024 1198.39 293.197 1188.53 300.714C1178.68 308.227 1181.09 309.994 1183.2 311.536Z" fill="#E5B76E"/>
</g>
<defs>
<clipPath id="clip0_416_665">
<rect width="1280" height="720" fill="white"/>
</clipPath>
</defs>
</svg>
