<svg xmlns="http://www.w3.org/2000/svg" viewBox="0 0 125.32 121.5"><defs><style>.cls-1{fill:#fffbf3;}.cls-1,.cls-2{stroke:#023a2f;stroke-linecap:round;stroke-linejoin:round;stroke-width:3.5px;}.cls-2,.cls-3{fill:#023a2f;}</style></defs><g id="Layer_2" data-name="Layer 2"><g id="Livello_1" data-name="Livello 1"><path class="cls-1" d="M104.89,1.75c-7.09,0-13.27,10.54-16.43,26.05a120.32,120.32,0,0,0-2.25,23.68,119.68,119.68,0,0,0,2.38,24.31c3.2,15.17,9.3,25.42,16.3,25.42,10.32,0,18.68-22.27,18.68-49.73S115.21,1.75,104.89,1.75Zm0,64.15c-3.65,0-6.62-6.46-6.62-14.42s3-14.43,6.62-14.43,6.62,6.46,6.62,14.43S108.55,65.9,104.89,65.9Z"/><path class="cls-2" d="M111.51,51.48c0,8-3,14.42-6.62,14.42s-6.62-6.46-6.62-14.42,3-14.43,6.62-14.43S111.51,43.51,111.51,51.48Z"/><path class="cls-1" d="M104.89,1.75c-7.09,0-13.27,10.54-16.43,26.05a120.32,120.32,0,0,0-2.25,23.68v64.58a3.69,3.69,0,0,1-3.69,3.69H5.44a3.69,3.69,0,0,1-3.69-3.69V51.48c0-1,0-2,0-3C2.36,22.42,10.49,1.75,20.43,1.75Z"/><path class="cls-1" d="M104.89,101.21H86.21V75.79h2.38C91.79,91,97.89,101.21,104.89,101.21Z"/><path class="cls-3" d="M76.31,52.91h-6a1.44,1.44,0,1,1,0-2.87h6a1.44,1.44,0,1,1,0,2.87Zm-15.54,0h-6a1.44,1.44,0,0,1,0-2.87h6a1.44,1.44,0,1,1,0,2.87Zm-15.54,0h-6a1.44,1.44,0,1,1,0-2.87h6a1.44,1.44,0,0,1,0,2.87Zm-15.55,0h-6a1.44,1.44,0,1,1,0-2.87h6a1.44,1.44,0,1,1,0,2.87Zm-15.54,0h-6a1.44,1.44,0,0,1,0-2.87h6a1.44,1.44,0,0,1,0,2.87Z"/></g></g></svg>