<svg width="53" height="56" viewBox="0 0 53 56" fill="none" xmlns="http://www.w3.org/2000/svg">
<g clip-path="url(#clip0_268_57)">
<path d="M10.04 18.9689C10.04 9.49645 17.2684 1.81445 26.1904 1.81445C35.1124 1.81445 42.3468 9.49645 42.3468 18.9689" stroke="#FFFBF3" stroke-width="3.62929" stroke-miterlimit="10" stroke-linecap="square"/>
<path d="M45.4014 55.9996H6.98532C6.13929 56 5.32295 55.6877 4.69321 55.1228C4.06348 54.5578 3.66479 53.78 3.57377 52.9389L0.0231148 19.622C-0.0287113 19.1439 0.0207599 18.6602 0.168299 18.2026C0.315838 17.7449 0.558136 17.3234 0.879416 16.9656C1.2007 16.6078 1.59375 16.3217 2.03297 16.1259C2.47219 15.9301 2.94773 15.8291 3.4286 15.8293H48.9581C49.4387 15.83 49.9138 15.9317 50.3525 16.1278C50.7913 16.3239 51.184 16.61 51.505 16.9676C51.8261 17.3252 52.0685 17.7463 52.2164 18.2035C52.3643 18.6608 52.4144 19.1441 52.3636 19.622L48.8129 52.9449C48.7205 53.7849 48.3212 54.5613 47.6916 55.125C47.062 55.6887 46.2465 56.0002 45.4014 55.9996V55.9996Z" fill="#FFFBF3"/>
</g>
<defs>
<clipPath id="clip0_268_57">
<rect width="52.3828" height="56" fill="white"/>
</clipPath>
</defs>
</svg>
