<svg xmlns="http://www.w3.org/2000/svg" viewBox="0 0 211.28 209.75"><defs><style>.cls-1{fill:#fffbf3;stroke-linejoin:round;}.cls-1,.cls-3{stroke:#023a2f;stroke-linecap:round;stroke-width:3.5px;}.cls-2{fill:#023a2f;}.cls-3{fill:none;stroke-miterlimit:10;stroke-dasharray:10;}</style></defs><g id="Layer_2" data-name="Layer 2"><g id="BODY"><path class="cls-1" d="M177.67,171.38h-144c-11.94,0-22.35-17.48-27.81-43.35A203.86,203.86,0,0,1,1.75,86.56,204.29,204.29,0,0,1,5.59,46.18C11,19.72,21.51,1.75,33.62,1.75h144Z"/><path class="cls-1" d="M177.67,1.75c-12.11,0-22.64,18-28,44.43a204.29,204.29,0,0,0-3.84,40.38A203.86,203.86,0,0,0,149.86,128c5.46,25.87,15.87,43.35,27.81,43.35,17.6,0,31.86-38,31.86-84.82S195.27,1.75,177.67,1.75Zm0,109.41c-6.24,0-11.3-11-11.3-24.6S171.43,62,177.67,62,189,73,189,86.56,183.9,111.16,177.67,111.16Z"/><path class="cls-2" d="M189,86.56c0,13.59-5.06,24.6-11.29,24.6s-11.3-11-11.3-24.6S171.43,62,177.67,62,189,73,189,86.56Z"/></g><g id="TOP"><path class="cls-1" d="M177.67,1.75c-12.11,0-22.64,18-28,44.43a204.29,204.29,0,0,0-3.84,40.38V208H1.75V86.56c0-1.7,0-3.4.06-5.07C2.79,37,16.66,1.75,33.61,1.75Z"/></g><g id="LINEE"><line class="cls-3" x1="8.64" y1="87.77" x2="138.86" y2="87.77"/></g></g></svg>