<svg xmlns="http://www.w3.org/2000/svg" viewBox="0 0 211.28 212.75"><defs><style>.cls-1{fill:#fffbf3;stroke-linejoin:round;}.cls-1,.cls-3{stroke:#023a2f;stroke-linecap:round;stroke-width:3.5px;}.cls-2{fill:#023a2f;}.cls-3{fill:none;stroke-miterlimit:10;stroke-dasharray:10;}</style></defs><g id="Layer_2" data-name="Layer 2"><g id="TOP"><path class="cls-1" d="M33.61,1.75c12.11,0,22.64,18,28,44.43a204.29,204.29,0,0,1,3.84,40.38V211H209.53V86.56c0-1.7,0-3.4-.06-5.07-1-44.48-14.85-79.74-31.81-79.74Z"/></g><g id="Layer_5" data-name="Layer 5"><path class="cls-1" d="M177.67,171.38H33.61c-11.93,0-22.34-17.48-27.8-43.35A203.86,203.86,0,0,1,1.75,86.56,204.29,204.29,0,0,1,5.59,46.18C11,19.72,21.51,1.75,33.61,1.75H177.66Z"/><path class="cls-1" d="M177.67,1.75c-12.11,0-22.64,18-28,44.43a204.29,204.29,0,0,0-3.84,40.38A203.86,203.86,0,0,0,149.86,128c5.46,25.87,15.87,43.35,27.81,43.35,17.59,0,31.86-38,31.86-84.82S195.26,1.75,177.67,1.75Zm0,109.41c-6.24,0-11.3-11-11.3-24.6S171.43,62,177.67,62,189,73,189,86.56,183.9,111.16,177.67,111.16Z"/><path class="cls-2" d="M189,86.56c0,13.59-5,24.6-11.28,24.6s-11.3-11-11.3-24.6S171.43,62,177.67,62,189,73,189,86.56Z"/></g><g id="LINEE"><line class="cls-3" x1="8.58" y1="87.77" x2="138.8" y2="87.77"/></g></g></svg>