<svg width="1280" height="720" viewBox="0 0 1280 720" fill="none" xmlns="http://www.w3.org/2000/svg">
<g clip-path="url(#clip0_268_228)">
<rect width="1280" height="720" fill="#FFFBF3"/>
<rect width="1280" height="720" fill="#023A2F"/>
<path d="M1088.24 73.9566C1088.97 84.5583 1080.32 97.6205 1077.91 105.193C1075.49 112.766 1076.57 128.113 1076.57 128.113C1069.13 138.835 1068.02 158.399 1069.21 162.559C1070.4 166.72 1062.43 180.132 1058.04 187.519C1053.65 194.906 1056.44 211.845 1056.02 221.09C1055.6 230.336 1056.57 237.307 1058.09 245.662C1059.61 254.016 1050.98 263.377 1050.98 263.377C1044.36 253.984 1044.29 246.706 1041.34 238.095C1038.39 229.483 1033.68 219.095 1036.42 211.517C1039.15 203.938 1034.07 171.997 1035.95 165.627C1037.82 159.257 1044.91 164.331 1043.23 152.324C1042.21 145.052 1048.9 111.35 1053.43 107.79C1059.79 102.793 1065.42 85.969 1066.2 77.1716C1066.44 74.5362 1071.88 54.1036 1074.91 50.1505C1077.95 46.1975 1075.55 73.2841 1088.24 73.9566Z" fill="#939960"/>
<path d="M1249.83 704.953C1252.74 697.725 1257.72 691.284 1254.62 683.454C1251.52 675.625 1259.12 668.932 1261.1 663.071C1263.07 657.21 1263.91 644.984 1266.16 637.974C1268.42 630.965 1277.14 622.31 1281.93 619.795C1286.72 617.28 1292.92 615.606 1291.23 607.219C1289.54 598.832 1295.45 580.975 1289.82 582.095C1284.18 583.216 1282.78 574.834 1285.6 569.81C1288.41 564.785 1289.82 549.984 1287.85 544.659C1285.88 539.333 1272.92 552.942 1257.72 550.892C1258.56 566.529 1262.59 573.976 1260.25 584.025C1259.4 587.656 1269.54 594.633 1265.04 598.821C1260.53 603.009 1256.87 603.851 1254.9 612.222C1252.93 620.593 1255.18 631.211 1249.83 639.309C1244.47 647.406 1238.85 665.006 1239.13 670.578C1239.41 676.149 1233.66 700.36 1230.49 706.664C1227.33 712.968 1241.38 707.304 1249.83 704.953Z" fill="#939960"/>
<path d="M1271.55 381.331C1267.08 373.792 1254.97 360.073 1252.04 354.781C1249.11 349.488 1252.97 324.84 1251.01 317.316C1249.05 309.793 1240.81 305.906 1240.88 301.788C1240.95 297.671 1247.66 281.312 1246.31 272.301C1244.95 263.291 1238.98 238.282 1236.11 233.197C1232.54 226.887 1230.02 220.766 1229.42 210.645C1228.81 200.524 1222.05 200.038 1217.99 215.692C1213.94 231.345 1214.08 235.422 1215.45 243.684C1216.82 251.946 1218.08 266.2 1217.99 271.066C1214.33 264.636 1209.25 253.684 1205.83 253.815C1202.42 253.947 1208.37 260.038 1208.21 269.398C1208.04 278.759 1207.11 309.826 1208.87 318.093C1210.62 326.36 1221.61 345.07 1226.68 358.006C1231.74 370.943 1252.8 390.889 1256.2 397.92C1259.61 404.952 1267.24 415.083 1267.24 415.083C1270.82 414.352 1274.44 413.832 1278.09 413.525C1275.02 401.485 1276.8 390.162 1271.55 381.331Z" fill="#939960"/>
<path d="M1185.46 211.75C1187.35 218.114 1178.9 224.654 1180.4 234.387C1175.09 243.482 1175.87 258.494 1177.38 267.838C1178.89 277.182 1175.49 280.173 1174.74 289.162C1173.99 298.151 1178.9 309.759 1180.4 319.868C1181.91 329.978 1173.98 337.091 1167.94 330.35C1161.9 323.608 1156.23 304.887 1155.1 295.526C1153.97 286.166 1152.08 251.342 1153.16 243.108C1154.24 234.874 1159.25 220.688 1156.23 210.207C1153.21 199.725 1147.19 177.593 1155.1 171.621C1163.01 165.65 1177.06 191.171 1187.18 188.599C1197.3 186.027 1183.58 205.386 1185.46 211.75Z" fill="#939960"/>
<path d="M1126.85 296.291C1126.43 304.165 1132.27 311.601 1133.54 317.068C1126.52 329.912 1125.83 342.684 1119.06 337.107C1112.3 331.53 1097 287.472 1091.93 278.817C1086.86 270.162 1085.73 255.093 1080.94 244.759C1076.16 234.425 1077.28 219.63 1077.28 207.902C1077.28 196.174 1084.05 190.312 1084.33 199.028C1084.61 207.743 1084.07 217.951 1084.33 222.139C1084.58 226.328 1091.79 234.846 1093.33 242.802C1094.87 250.757 1100.24 252.84 1098.97 245.732C1097.7 238.624 1094.32 217.251 1097.28 206.365C1100.24 195.479 1093.62 181.4 1093.34 169.371C1093.05 157.343 1102.06 138.359 1104.1 131.098C1106.13 123.837 1089.13 115.805 1104.1 114.903C1119.06 114.001 1125.89 147.692 1125.89 147.692C1125.35 156.069 1127.41 160.793 1129.1 165.599C1130.79 170.405 1120.62 182.313 1126.71 191.805C1126.76 194.342 1123.33 206.343 1126.53 217.503C1128.98 226.06 1127.58 243.059 1125.86 251.435C1124.15 259.811 1123.92 271.403 1128.12 273.076C1132.32 274.749 1127.26 288.418 1126.85 296.291Z" fill="#939960"/>
<path d="M1153.76 419.53C1155.87 410.656 1159.7 406.829 1157.37 403.477C1155.04 400.125 1139.68 395.101 1136.8 390.491C1133.91 385.882 1126.53 381.278 1117.97 380.863C1109.41 380.447 1118.28 367.877 1115.32 363.689C1112.37 359.501 1100.44 360.758 1093.1 346.1C1085.75 331.441 1082.8 324.322 1079 313.841C1075.19 303.359 1065.68 277 1065.68 277C1059.56 281.609 1053.23 283.703 1054.08 290.822C1054.92 297.941 1059.14 315.109 1060.41 322.228C1054.08 332.698 1057.84 344.427 1065.68 350.709C1073.51 356.991 1081.95 381.278 1089.56 390.491C1097.17 399.704 1115.13 406.468 1117.99 411.044C1120.86 415.62 1116.61 423.997 1120.42 428.606C1124.23 433.215 1133.48 430.033 1138.12 439.246" fill="#939960"/>
<path d="M1237.09 425.286C1234.45 415.925 1227.24 404.695 1220.85 399.08C1214.45 393.464 1202.35 373.469 1200.07 366.241C1197.8 359.013 1183.45 360.309 1176.66 361.533C1169.86 362.758 1157.4 348.909 1154 343.288C1149.08 355.645 1143.8 359.762 1150.22 364.256C1156.64 368.751 1161.55 368.002 1166.46 377.379C1171.37 386.756 1186.11 389.97 1190.38 395.711C1194.65 401.453 1207.76 422.667 1211.53 429.655C1215.3 436.642 1220.46 454.866 1232.36 463.477C1244.27 472.089 1240.49 468.721 1246.53 490.061C1252.57 511.401 1264.3 525.261 1269.02 525.989C1273.74 526.716 1279.01 519.624 1274.49 511.773C1269.96 503.921 1258.63 484.817 1258.63 479.202C1258.63 473.587 1263.16 466.845 1258.25 464.221C1253.34 461.596 1226.64 428.156 1237.09 425.286Z" fill="#939960"/>
<path d="M1254.07 784.676C1260.3 773.741 1285.75 759.694 1292.08 753.412C1298.42 747.13 1292.66 741.689 1295.33 737.501C1298 733.313 1303.07 731.219 1305.17 723.258C1307.28 715.297 1312.35 696.128 1316.58 690.452C1320.81 684.777 1320.38 678.888 1316.58 678.052C1312.78 677.215 1306.85 681.403 1301.16 688.938C1295.46 696.472 1293.35 701.923 1289.97 703.597C1286.59 705.27 1292.66 682.863 1295.33 677.948C1298 673.032 1307.28 646.236 1306.86 642.873C1306.44 639.51 1299.68 636.509 1293.74 638.854C1287.8 641.2 1284.87 648.007 1283.6 661.567C1282.34 675.127 1280.23 685.171 1276.85 693.126C1273.47 701.081 1272.62 714.904 1274.31 716.582C1276 718.261 1276.18 722.279 1272.51 723.28C1264.81 725.38 1266.08 736.55 1264.81 742.417C1263.54 748.283 1255.76 753.614 1248.15 765.282C1240.55 776.95 1242.66 804.633 1254.07 784.676Z" fill="#939960"/>
<path d="M1211.47 689.567C1207.13 701.049 1200.49 710.563 1200.21 716.424C1199.93 722.285 1204.71 722.848 1200.21 729.546C1195.7 736.244 1184.72 748.814 1182.16 754.397C1179.61 759.979 1183.03 761.187 1180.21 767.284C1177.4 773.38 1171.46 785.387 1169.79 789.018C1168.12 792.648 1162.47 794.622 1152.9 796.557C1143.32 798.493 1134.59 802.572 1132.06 806.547C1129.53 810.522 1129.81 820.566 1121.92 823.36C1114.03 826.154 1114.03 833.967 1106.15 837.318C1098.26 840.67 1100.8 827.827 1106.15 822.239C1111.49 816.651 1118.54 810.795 1122.2 801.582C1125.86 792.369 1138.54 786.491 1139.38 783.845C1140.22 781.199 1135.16 774.78 1141.63 770.018C1148.11 765.255 1156.27 761.379 1157.96 755.255C1158.99 751.699 1158.99 747.925 1157.96 744.369C1165.01 737.108 1171.48 733.756 1172.89 725.38C1174.3 717.003 1178.24 716.233 1181.34 709.639C1184.43 703.045 1191 697.976 1195.01 687.599C1200.15 674.34 1200.01 667.587 1200.01 667.587C1216.22 662.65 1215.48 678.938 1211.47 689.567Z" fill="#939960"/>
<path d="M1223.64 640.609C1228.46 635.836 1229.56 623.299 1229.56 614.911C1229.56 606.524 1237.73 593.959 1237.73 593.959C1230.4 579.443 1234.91 569.109 1232.94 560.454C1230.96 551.799 1227.02 545.937 1232.66 540.634C1238.29 535.33 1233.2 533.094 1227.87 523.323C1222.53 513.553 1217.73 496.242 1217.73 492.333C1217.73 488.423 1205.7 480.884 1202.71 477.816C1199.72 474.749 1196.32 459.385 1190.98 447.662C1185.63 435.94 1171.69 423.643 1173.38 438.652C1175.07 453.66 1179.58 452.408 1180.48 459.106C1181.39 465.804 1176.62 477.953 1180.48 482.562C1184.35 487.171 1189.85 491.775 1192.8 500.567C1195.76 509.359 1193.22 525.581 1197.05 534.865C1200.87 544.149 1205.07 552.105 1207.18 560.476C1209.29 568.847 1203.8 585.189 1205.49 597.333C1207.18 609.477 1205.73 624.671 1202.73 630.554C1199.72 636.437 1199.45 647.586 1199.45 647.586C1206.47 645.634 1220.83 643.398 1223.64 640.609Z" fill="#939960"/>
<path d="M1177.65 632.486C1177.78 619.406 1184.6 607.943 1183.27 602.86C1181.94 597.778 1175.19 589.698 1176.54 582.548C1178.57 571.847 1180.07 553.376 1178.98 550.048C1177.89 546.719 1160.45 546.536 1161.57 541.344C1162.69 536.152 1170.16 537.575 1170.86 526.343C1171.56 515.112 1175.92 501.147 1172.88 500.571C1169.84 499.994 1156.83 502.069 1151.66 499.102C1146.49 496.135 1135.79 483.021 1132.49 479.273C1129.19 475.525 1130.99 461.465 1127.81 455.569C1124.63 449.673 1106.89 442.32 1099.6 418.774C1091.92 427.551 1086.32 441.855 1100.43 455.526C1110.29 465.126 1106.76 482.08 1110.73 486.813C1114.71 491.546 1120.17 491.446 1122 496.908C1123.83 502.369 1126.03 510.17 1133.18 520.902C1140.32 531.634 1139.72 539.216 1142.81 547.163C1145.89 555.111 1141.79 554.065 1149.26 567.564C1156.74 581.063 1153.6 596.1 1157.83 604.009C1162.06 611.918 1164.74 623.505 1163.37 633.758C1161.72 646.077 1150.92 664.643 1164.76 663.861C1168.7 663.635 1177.5 645.246 1177.65 632.486Z" fill="#939960"/>
<path d="M1111.66 747.194C1120.17 739.682 1129.08 736.474 1129.75 726.389C1130.42 716.303 1140.33 713.304 1146.41 702.404C1152.48 691.505 1153.91 682.819 1153.13 680.996C1152.36 679.173 1141.07 676.468 1137.62 678.45C1134.17 680.433 1134.29 684.908 1127.57 686.691C1120.84 688.474 1127.53 674.012 1129 667.593C1130.47 661.174 1126.86 644.033 1129.89 636.041C1132.91 628.049 1119.1 628.73 1116.64 638.537C1114.18 648.345 1119.18 651.699 1114.53 667.047C1109.87 682.395 1097.84 701.796 1097.68 707.998C1097.52 714.2 1089.34 732.672 1083.77 737.12C1078.19 741.568 1083.7 744.462 1092.59 744.11C1101.48 743.757 1105.23 743.735 1111.66 747.194Z" fill="#939960"/>
<path d="M1344.23 370.911C1339.76 362.709 1321.09 345.579 1318.53 341.572C1315.98 337.564 1307.81 315.234 1304.9 313.687C1301.99 312.139 1291.72 301.658 1286.31 290.925C1280.9 280.192 1282.65 254.472 1281.13 242.012C1279.61 229.551 1269 213.99 1266 224.078C1263 234.166 1266.22 241.574 1265.3 255.905C1264.37 270.235 1264.01 297.563 1270.63 306.207C1277.24 314.851 1288.02 332.047 1295.98 349.521C1303.93 366.996 1315.66 368.795 1322.77 383.421C1329.87 398.047 1341.86 393.902 1352.72 400.272C1357.42 403.044 1350.47 382.316 1344.23 370.911Z" fill="#939960"/>
<path d="M1023.56 103.958C1021.87 117.359 1020.74 123.505 1014.54 132.439C1008.62 132.996 1003.86 136.124 999.35 140.848C994.845 145.572 988.934 148.656 988.934 141.941C988.934 135.227 999.919 111.498 999.071 103.121C998.224 94.7448 1001.61 84.6899 1008.37 75.6683C1015.12 66.6467 1024.14 61.5235 1023.57 54.2625C1023.01 47.0015 1024.48 42.529 1030.61 31.3641C1036.74 20.1992 1048.35 17.963 1049.48 12.1017C1050.6 6.24042 1057.88 -11.9973 1065.41 -14.2321C1072.95 -16.467 1072.1 12.1017 1072.1 12.1017C1065.93 20.1993 1067.08 24.7866 1059.17 29.1115C1051.26 33.4364 1043.4 53.2565 1042.07 64.0551C1040.75 74.8536 1032.85 75.4824 1032.78 84.6954C1032.71 93.9083 1025.24 90.5566 1023.56 103.958Z" fill="#939960"/>
<path d="M1082.47 574.383C1077.82 584.209 1077.71 590.456 1078.23 603.953C1078.75 617.451 1070.84 615.362 1072.27 624.463C1073.7 633.564 1066.02 635.473 1066.47 646.343C1066.92 657.214 1062.4 678.05 1055.3 683.608C1048.2 689.166 1037.63 695.847 1032.86 704.844C1030.28 709.748 1021.77 719.231 1019.07 744.434C1018.35 751.152 1004.75 759.482 1004.5 762.223C1003.96 768.257 1013.94 764.866 1018.58 762.803C1031.44 757.09 1032.89 742.474 1036.94 734.162C1040.99 725.85 1059.7 718.05 1062.38 715.24C1065.06 712.431 1067.5 704.773 1067.65 698.807C1067.81 692.84 1078.9 688.739 1083.12 676.718C1087.35 664.697 1088.07 660.055 1086.33 652.983C1084.59 645.912 1092.64 639.387 1097.84 629.378C1103.03 619.369 1104.73 608.907 1102.53 600.781C1100.33 592.656 1107.29 567.452 1106.2 560.827C1105.1 554.203 1099.77 558.21 1096.1 563.606C1092.42 569.002 1088.22 572.867 1082.47 574.383Z" fill="#939960"/>
<path d="M88.9124 677.389C87.3659 687.663 85.4781 699.329 81.7266 701.551C77.9751 703.773 68.6653 703.945 71.5235 710.207C74.3817 716.469 65.3164 717.221 62.366 727.438C59.4155 737.654 51.9237 748.528 49.4571 753.725C46.9906 758.921 53.0715 768.68 51.6387 776.167C50.2059 783.655 42.0033 805.111 37.871 809.692C33.7386 814.273 29.0483 832.528 28.0378 836.104C42.4464 835.291 44.464 834.257 48.0108 823.239C51.5577 812.22 61.704 805.356 64.5354 798.194C67.3667 791.031 67.5769 792.72 66.6561 787.659C65.7353 782.598 79.3605 766.382 80.2817 757.62C81.2028 748.858 74.3996 742.988 84.0228 734.997C93.6461 727.007 104.826 708.748 107.049 702.557C109.272 696.365 112.04 687.526 112.04 687.526C105.162 679.726 94.1415 673.69 88.9124 677.389Z" fill="#939960"/>
<path d="M192.03 710.403C191.736 699.781 200.905 687.082 203.629 679.614C206.352 672.146 205.902 656.767 205.902 656.767C213.774 646.358 215.681 626.856 214.659 622.65C213.638 618.444 222.144 605.368 226.832 598.166C231.52 590.965 229.425 573.926 230.222 564.705C231.02 555.484 230.337 548.48 229.159 540.07C227.981 531.661 236.983 522.659 236.983 522.659C243.216 532.315 242.99 539.589 245.584 548.314C248.177 557.038 252.458 567.61 249.417 575.07C246.377 582.531 250.15 614.653 248.016 620.941C245.883 627.229 239.009 621.871 240.197 633.936C240.917 641.243 232.861 674.645 228.187 678.017C221.63 682.751 215.317 699.331 214.183 708.09C213.841 710.713 207.572 730.907 204.379 734.733C201.186 738.559 204.683 711.593 192.03 710.403Z" fill="#939960"/>
<path d="M274.469 53.6523C278.018 43.6356 291.144 35.088 296.377 29.103C301.611 23.118 306.716 8.60332 306.716 8.60332C317.807 1.72458 326.605 -15.784 327.166 -20.0757C327.727 -24.3674 340.369 -33.5057 347.335 -38.5374C354.301 -43.5691 358.478 -60.2198 362.541 -68.5357C366.604 -76.8516 368.488 -83.6328 370.416 -91.9028C372.343 -100.173 383.982 -105.331 383.982 -105.331C386.322 -94.0789 383.493 -87.3733 382.778 -78.2979C382.062 -69.2224 382.246 -57.8208 376.724 -51.9547C371.202 -46.0886 363.156 -14.7631 358.902 -9.66436C354.649 -4.56561 350.17 -12.0368 346.93 -0.35469C344.972 6.72198 325.434 34.9862 319.865 36.4518C312.043 38.5085 300.186 51.7056 295.97 59.4666C294.712 61.7934 281.595 78.3777 277.234 80.7959C272.872 83.2141 285.841 59.3135 274.469 53.6523Z" fill="#939960"/>
<path d="M13.1544 401.805C17.3212 409.521 28.8573 423.722 31.5697 429.13C34.2821 434.537 29.4259 459.008 31.0749 466.605C32.724 474.202 40.8039 478.422 40.565 482.533C40.3262 486.644 32.956 502.716 33.9381 511.774C34.9201 520.832 39.8663 546.064 42.5326 551.262C45.8373 557.711 47.4682 577.822 47.6566 587.959C47.845 598.096 54.5884 598.858 59.2747 583.382C63.961 567.907 64.6286 549.936 63.5996 541.626C62.5706 533.315 61.8897 519.021 62.1755 514.163C65.5737 520.737 70.2079 531.887 73.6222 531.894C77.0365 531.902 71.341 525.574 71.8865 516.228C72.432 506.882 74.6272 475.879 73.2105 467.547C71.7939 459.215 61.5759 440.072 57.0444 426.94C52.513 413.808 32.2878 393.021 29.171 385.856C26.0541 378.692 18.8462 368.258 18.8462 368.258C15.2351 368.842 11.593 369.214 7.93843 369.372C10.5124 381.527 8.26979 392.769 13.1544 401.805Z" fill="#939960"/>
<path d="M43.6349 620.563C40.5067 631.379 39.6685 637.304 39.9999 642.593C40.3314 647.882 34.967 667.904 30.8728 671.82C26.7786 675.735 14.0855 697.27 13.5226 704.361C12.9597 711.451 6.44884 726.716 0.819559 735.663C-4.80972 744.61 -22.4235 765.906 -21.7446 776.495C-21.0658 787.084 -13.7826 779.042 -8.50245 772.483C-3.22233 765.923 18.2552 743.543 23.2031 738.42C28.1511 733.298 28.9976 724.353 30.6037 715.969C32.2098 707.586 32.5151 703.724 37.2022 701.775C41.8893 699.827 53.5099 693.713 53.5099 693.713C54.9083 688.812 62.1784 649.572 62.0138 642.074C61.8491 634.576 65.4711 617.557 66.1421 613.853C57.3833 619.165 45.4436 621.698 43.6349 620.563Z" fill="#939960"/>
<path d="M90.1042 520.042C91.2153 529.828 87.2579 543.533 88.8832 549.969C90.5085 556.405 88.6925 570.066 88.1067 578.792C87.2959 590.885 86.5167 594.826 85.9009 606.834C85.3441 617.8 90.8839 622.579 97.0733 619.083C102.988 622.323 113.59 630.039 113.59 630.039C116.719 618.276 121.016 614.609 120.469 608.978C119.921 603.347 115.552 599.787 117.253 585.99C118.954 572.193 122.377 562.214 119.788 551.618C117.2 541.023 123.263 515.409 124.675 507.225C126.087 499.042 125.622 464.17 124.873 454.771C124.123 445.373 119.227 426.436 113.465 419.454C107.703 412.471 99.4861 419.255 100.582 429.418C101.677 439.581 106.11 451.379 104.99 460.33C103.869 469.28 100.355 472.13 101.482 481.528C102.609 490.926 97.5618 513.227 90.1042 520.042Z" fill="#939960"/>
<path d="M148.679 465.647C149.723 471.162 155.255 478.83 154.519 486.68C153.782 494.529 148.177 507.981 152.305 509.824C156.432 511.667 155.725 523.239 153.673 531.539C151.622 539.838 149.53 556.766 151.629 565.416C154.37 576.696 150.455 588.548 150.401 591.085C156.094 600.817 145.448 612.301 146.94 617.172C148.432 622.043 150.304 626.847 149.422 635.194C148.54 643.542 141.549 669.895 140.297 679.787C139.046 689.679 132.105 704.488 128.836 708.546C125.568 712.604 120.019 724.411 120.4 728.887C120.781 733.362 107.218 738.401 106.802 743.107C106.385 747.812 120.968 742.59 128.063 734.469C135.158 726.348 133.838 724.089 141.574 721.05C149.31 718.011 158.427 715.592 157.046 708.001C155.665 700.409 151.055 702.864 154.486 694.692C157.917 686.52 168.926 676.074 169.856 668.845C170.786 661.616 168.188 659.835 170.516 652.663C172.844 645.491 182.621 626.89 182.828 614.86C183.034 602.83 176.998 588.493 180.397 577.736C183.796 566.98 181.291 545.487 180.314 538.333C179.336 531.179 184.61 533.48 185.827 541.491C187.043 549.503 193.896 558.308 193.982 562.503C194.068 566.698 193.116 576.876 193.04 585.596C192.963 594.315 199.96 588.735 200.438 577.016C200.916 565.298 202.645 550.561 198.286 540.04C193.927 529.52 193.41 514.418 188.699 505.563C183.987 496.708 170.492 452.063 163.962 446.215C157.431 440.367 156.222 453.101 148.679 465.647Z" fill="#939960"/>
<path d="M143.75 348.169C140.147 356.549 135.708 359.66 137.433 363.363C139.158 367.066 153.425 374.653 155.473 379.688C157.52 384.724 164.001 390.527 172.365 392.406C180.729 394.286 169.828 405.145 172.023 409.779C174.218 414.413 186.182 415.222 190.899 430.923C195.616 446.625 197.303 454.145 199.252 465.124C201.201 476.104 206.048 503.705 206.048 503.705C212.861 500.214 219.458 499.238 219.851 492.08C220.244 484.922 219.028 467.283 219.001 460.053C227.041 450.826 225.344 438.625 218.703 431.091C212.063 423.556 207.917 398.18 202.006 387.798C196.095 377.416 179.562 367.67 177.525 362.669C175.489 357.669 181.107 350.145 178.149 344.951C175.191 339.757 165.531 341.304 162.535 331.43" fill="#939960"/>
<path d="M-64.7728 382.001C-60.6056 390.38 -42.4891 408.263 -40.0684 412.373C-37.6477 416.483 -30.3307 439.13 -27.4655 440.795C-24.6004 442.461 -14.6697 453.356 -9.65508 464.303C-4.64048 475.249 -7.45357 500.875 -6.43189 513.388C-5.41021 525.901 4.65212 541.885 8.08445 531.929C11.5168 521.973 8.57372 514.438 10.0921 500.158C11.6105 485.877 13.0851 458.587 6.77259 449.678C0.460037 440.769 -9.69956 423.145 -17.007 405.357C-24.3144 387.57 -36.0522 385.291 -42.6236 370.385C-49.1949 355.479 -61.4427 359.127 -72.1256 352.316C-76.7545 349.353 -70.5958 370.349 -64.7728 382.001Z" fill="#939960"/>
<path d="M42.4595 285.093C41.8723 294.499 45.5279 307.612 50.3796 315.437C55.2314 323.262 60.9665 346.286 60.7674 353.655C60.5684 361.025 76.5519 366.393 84.3508 368.401C92.1498 370.409 100.535 388.207 102.139 394.676C112.005 386.072 119.224 384.854 113.936 378.002C108.649 371.15 103.064 369.58 101.204 359.131C99.3439 348.682 84.5878 339.178 82.0821 332.207C79.5763 325.236 73.2077 300.69 71.6984 292.851C70.1892 285.013 71.3165 266.695 61.6135 253.745C51.9104 240.796 54.7568 245.463 56.0727 224.01C57.3886 202.557 49.8051 185.084 44.9706 182.307C40.1361 179.529 31.8289 183.357 33.8304 192.293C35.8319 201.229 41.0612 223.121 38.996 228.045C36.9308 232.969 29.5504 236.825 33.8941 241.353C38.2377 245.881 54.8129 287.314 42.4595 285.093Z" fill="#939960"/>
<path d="M120.498 107.214C114.957 111.123 111.796 123.305 110.406 131.576C109.017 139.848 98.8793 150.885 98.8793 150.885C103.694 166.414 97.5393 175.859 98.0519 184.721C98.5645 193.584 101.481 200.018 95.0432 204.314C88.6054 208.61 93.2549 211.659 96.8989 222.179C100.543 232.698 102.409 250.565 101.762 254.42C101.114 258.276 111.727 267.704 114.169 271.225C116.61 274.745 117.413 290.459 120.744 302.906C124.076 315.352 135.788 329.789 136.609 314.708C137.429 299.627 132.768 300.113 132.988 293.358C133.207 286.604 139.917 275.411 136.874 270.226C133.83 265.041 129.169 259.59 127.708 250.43C126.248 241.269 131.442 225.692 129.206 215.902C126.97 206.112 124.147 197.571 123.452 188.966C122.758 180.361 130.879 165.154 131.224 152.898C131.57 140.643 135.516 125.898 139.457 120.594C143.397 115.291 145.514 104.342 145.514 104.342C138.267 105.104 123.737 104.93 120.498 107.214Z" fill="#939960"/>
<path d="M162.326 173.118C162.175 186.199 155.343 197.652 156.664 202.736C157.986 207.82 164.723 215.911 163.356 223.059C161.312 233.756 159.791 252.225 160.874 255.555C161.958 258.885 179.392 259.095 178.266 264.285C177.14 269.475 169.671 268.041 168.955 279.272C168.239 290.502 163.856 304.46 166.896 305.041C169.936 305.622 182.948 303.567 188.113 306.542C193.278 309.516 203.961 322.647 207.257 326.4C210.553 330.153 208.724 344.209 211.899 350.11C215.074 356.011 232.801 363.391 240.05 386.948C247.748 378.183 253.364 363.887 239.282 350.195C229.43 340.58 232.992 323.631 229.022 318.892C225.051 314.153 219.589 314.245 217.767 308.781C215.945 303.317 213.762 295.513 206.631 284.77C199.5 274.027 200.114 266.446 197.041 258.494C193.969 250.542 198.071 251.593 190.617 238.083C183.162 224.573 186.325 209.541 182.105 201.626C177.884 193.711 175.223 182.119 176.609 171.868C178.279 159.551 189.106 141.002 175.266 141.764C171.322 141.984 162.499 160.359 162.326 173.118Z" fill="#939960"/>
<path d="M-20.3576 569.504C-10.6851 571.305 0.293176 568.595 0.293176 568.595C3.46469 591.855 6.83594 610.221 8.72441 619.059C10.6129 627.897 5.04544 635.73 2.84874 643.701C0.652044 651.672 -4.83785 675.98 -5.8804 683.292C-6.92296 690.604 -18.9552 700.636 -25.8481 704.207C-32.741 707.778 -38.4374 709.653 -41.4257 709.531C-44.414 709.409 -44.4823 701.696 -40.9975 699.036C-37.5126 696.376 -26.255 695.807 -24.6433 683.933C-23.0315 672.058 -22.3087 653.537 -22.3515 654.586C-32.4465 672.396 -39.6783 675.959 -45.3887 682.736C-51.0991 689.513 -59.9886 705.271 -66.6208 711.304C-73.253 717.338 -87.6457 716.958 -93.9959 716.349C-85.8872 698.403 -84.5556 691.65 -78.6112 683.832C-72.6668 676.014 -61.7755 665.913 -58.7404 660.461C-55.7052 655.009 -55.4187 638.867 -51.3482 630.972C-47.2776 623.078 -28.4637 611.932 -25.9686 605.9C-23.4734 599.867 -20.0233 579.685 -20.3576 569.504Z" fill="#939960"/>
<path d="M235.965 286.687C239.303 295.412 255.517 314.879 257.518 319.193C259.519 323.506 264.636 346.726 267.312 348.648C269.988 350.569 278.772 362.328 282.699 373.686C286.626 385.045 281.46 410.301 281.304 422.853C281.148 435.405 289.584 452.242 293.905 442.645C298.226 433.048 296.022 425.276 298.85 411.197C301.678 397.118 305.682 370.083 300.279 360.633C294.875 351.184 286.489 332.704 280.937 314.324C275.384 295.944 264.001 292.597 258.908 277.153C253.815 261.71 241.384 264.218 231.472 256.456C227.182 253.082 231.309 274.552 235.965 286.687Z" fill="#939960"/>
<path d="M293.605 638.011C286.002 645.787 283.867 651.658 279.967 664.59C276.068 677.522 269.267 672.974 267.662 682.046C266.056 691.118 258.166 690.422 255.056 700.848C251.946 711.274 240.895 729.507 232.373 732.452C223.851 735.398 211.681 738.275 204.244 745.231C200.192 749.026 189.036 755.219 178.301 778.175C175.442 784.296 159.865 787.745 158.741 790.261C156.276 795.789 166.816 795.83 171.869 795.392C185.889 794.169 192.016 780.821 198.55 774.284C205.084 767.748 225.316 766.449 228.762 764.664C232.208 762.879 237.008 756.432 239.096 750.84C241.183 745.249 253.007 744.979 260.912 734.993C268.816 725.006 271.012 720.841 271.667 713.588C272.322 706.334 282.061 702.785 290.228 695.016C298.395 687.247 303.409 677.897 303.969 669.497C304.53 661.096 319.317 639.53 320.436 632.91C321.555 626.289 315.213 628.345 309.984 632.252C304.754 636.159 299.531 638.447 293.605 638.011Z" fill="#939960"/>
<path d="M1100.03 -81.1115C1090.43 -78.2919 1074.66 -83.0279 1072.24 -78.7857C1069.82 -74.5436 1054.17 -67.534 1048.07 -66.8755C1041.96 -66.217 1036.69 -65.8226 1026.31 -59.203C1015.93 -52.5834 1016.99 -46.0123 1009.07 -42.6109C1001.16 -39.2096 1002.09 -49.6912 990.071 -40.1274C978.048 -30.5636 970.349 -20.2997 969.949 -17.5567C969.549 -14.8136 971.002 1.62516 965.915 6.78436C960.828 11.9436 954.648 29.6992 954.331 36.4737C954.013 43.2482 959.724 55.365 955.216 63.3596C950.708 71.3541 947.347 72.4444 944.897 80.0873C942.448 87.7302 945.844 88.2596 953.919 85.0934C961.995 81.9272 962.283 73.5494 968.319 64.1813C974.354 54.8132 986.523 40.5799 986.523 40.5799C982.359 27.8978 982.59 26.3335 990.203 18.7778C997.815 11.222 1002.26 4.73945 1003.93 -0.843276C1005.6 -6.426 1020.3 -16.5962 1027.48 -20.4993C1034.66 -24.4024 1047.69 -30.4125 1051.25 -32.8072C1054.8 -35.2019 1053.76 -38.1685 1056.47 -42.9663C1059.17 -47.7641 1073.03 -52.1762 1078.27 -54.1772C1083.51 -56.1782 1099.6 -64.1065 1104.63 -67.3481C1109.65 -70.5897 1109.17 -83.778 1100.03 -81.1115Z" fill="#939960"/>
<path d="M983.091 653.533C979.227 662.773 965.657 672.058 967.436 676.606C969.214 681.155 964.83 697.733 961.503 702.898C958.176 708.062 955.17 712.403 953.797 724.641C952.424 736.879 958.197 740.183 955.862 748.477C953.527 756.771 945.969 749.455 945.851 764.817C945.733 780.18 948.872 792.618 950.759 794.654C952.647 796.689 966.34 805.902 967.156 813.09C967.973 820.278 977.903 836.256 982.962 840.761C988.021 845.265 1001.05 848.44 1004.44 856.971C1007.83 865.502 1006.56 868.801 1010.96 875.51C1015.37 882.219 1017.88 879.909 1020.52 871.639C1023.17 863.369 1016.8 857.878 1013.31 847.296C1009.82 836.714 1006.37 818.302 1006.37 818.302C993.897 813.57 992.82 812.406 991.734 801.737C990.647 791.067 988.39 783.532 985.068 778.725C981.747 773.919 983.11 756.093 984.585 748.057C986.06 740.021 989.575 726.103 989.951 721.834C990.328 717.565 987.363 716.507 985.325 711.389C983.286 706.271 988.58 692.714 990.316 687.383C992.052 682.051 996 664.55 996.635 658.607C997.27 652.664 986.76 644.749 983.091 653.533Z" fill="#939960"/>
<path d="M1074.55 459.437C1070.06 462.089 1064.69 453.69 1062.63 451.685C1054.25 443.544 1037.1 434.411 1034.38 426.186C1031.66 417.961 1031.97 393.565 1029.52 384.162C1027.06 374.759 1046.16 375.126 1046.16 375.126C1045.14 379.732 1053.85 389.324 1055.58 393.131C1057.3 396.937 1054.4 397.482 1050.61 403.643C1050.61 403.643 1059.37 412.825 1059.86 418.781C1060.36 424.737 1064.56 437.159 1067.95 441.452C1071.34 445.745 1079.04 456.785 1074.55 459.437Z" fill="#939960"/>
<path d="M-86.1691 130.516C-87.5925 141.206 -87.8681 148.907 -81.7456 155.186C-79.6869 157.297 -78.9474 156.05 -75.445 159.466C-71.9427 162.881 -72.601 170.477 -68.3017 180.367C-64.0024 190.257 -63.4936 207.422 -55.583 212.732C-47.6725 218.041 -49.4433 229.747 -47.2447 236.555C-45.0461 243.362 -27.3446 261.13 -23.6536 268.861C-19.9625 276.593 -17.1883 292.778 -15.9228 298.793C-14.6574 304.808 -9.95451 316.282 -7.24845 323.371C-4.54238 330.459 -3.07318 340.673 -3.84104 342.204C8.12167 336.703 12.527 331.24 7.67945 319.227C2.83184 307.214 1.98109 301.668 2.05353 290.689C2.12596 279.709 -0.704248 274.392 -2.31082 268.172C-3.9174 261.951 5.83902 272.702 8.19596 279.576C10.5529 286.449 13.1201 297.504 16.4369 302.475C19.7538 307.446 25.525 301.63 22.1305 292.991C18.7361 284.353 12.504 259.72 8.12041 254.511C3.73681 249.301 -2.38638 243.107 -4.12621 237.486C-5.86605 231.865 -8.66856 223.288 -10.3309 219.103C-11.9933 214.919 -17.102 213.155 -21.9091 208.055C-26.7162 202.955 -29.5361 187.533 -31.1427 181.313C-45.9042 178.208 -45.7611 168.638 -50.9978 159.623C-56.2346 150.607 -58.0624 138.611 -70.1157 130.249C-78.901 124.155 -85.1291 119.128 -85.1291 119.128C-85.4921 123.277 -85.5353 125.733 -86.1691 130.516Z" fill="#939960"/>
<path d="M66.2398 -20.5425C59.6116 -19.1097 51.9413 -9.13178 47.4298 -2.06118C42.9183 5.00942 29.2735 11.2076 29.2735 11.2076C27.6369 27.3832 18.2803 33.6713 15.2886 42.0295C12.2969 50.3876 12.4674 57.4492 4.86249 58.888C-2.74245 60.3268 0.34589 64.9501 -0.411091 76.0573C-1.16807 87.1645 -6.43245 104.34 -8.53528 107.635C-10.6381 110.931 -4.55341 123.757 -3.68206 127.952C-2.81071 132.146 -8.21268 146.925 -10.0104 159.683C-11.8081 172.442 -6.66885 190.308 -0.019992 176.747C6.62887 163.185 2.14812 161.812 4.99035 155.68C7.83258 149.548 18.3822 141.868 17.6074 135.906C16.8325 129.944 14.672 123.105 16.9075 114.102C19.1431 105.099 30.0124 92.7909 31.7798 82.9057C33.5472 73.0205 34.2865 64.0553 37.01 55.8633C39.7336 47.6713 53.152 36.847 58.2597 25.701C63.3675 14.5551 72.7621 2.52536 78.4617 -0.816635C84.1613 -4.15863 90.3886 -13.4099 90.3886 -13.4099C83.4203 -15.5406 70.1135 -21.3786 66.2398 -20.5425Z" fill="#939960"/>
<path d="M55.0954 153.295C50.215 151.692 52.9466 142.106 53.0931 139.235C53.6797 127.568 49.3054 108.681 53.6311 101.196C57.9568 93.7115 76.2281 77.7814 81.5976 69.713C86.967 61.6446 99.1017 76.1846 99.1017 76.1846C95.0239 78.4681 93.5799 91.3463 91.8817 95.1607C90.1835 98.9751 87.8969 97.1653 80.866 98.4043C80.866 98.4043 79.7573 111.047 75.6682 115.365C71.5792 119.682 65.1067 131.056 64.1282 136.437C63.1498 141.818 59.9758 154.899 55.0954 153.295Z" fill="#939960"/>
<path d="M277.519 -83.4944C267.92 -80.6636 252.15 -85.3811 249.736 -81.1362C247.321 -76.8912 231.679 -69.8633 225.571 -69.1977C219.464 -68.532 214.202 -68.1314 203.825 -61.4997C193.448 -54.868 194.518 -48.2982 186.607 -44.8876C178.695 -41.477 179.62 -51.9596 167.608 -42.3818C155.596 -32.804 147.91 -22.5311 147.513 -19.7876C147.116 -17.0441 148.588 -0.606998 143.507 4.55814C138.427 9.72327 132.267 27.4862 131.957 34.261C131.648 41.0359 137.373 53.146 132.874 61.1458C128.376 69.1456 125.015 70.2399 122.575 77.8856C120.135 85.5313 123.531 86.0568 131.603 82.8812C139.675 79.7055 139.953 71.3274 145.978 61.9522C152.002 52.5771 164.154 38.3296 164.154 38.3296C159.976 25.6524 160.205 24.0878 167.809 16.5231C175.413 8.9585 179.854 2.47075 181.514 -3.11392C183.175 -8.69859 197.865 -18.8859 205.038 -22.7974C212.211 -26.7089 225.241 -32.7343 228.792 -35.1332C232.343 -37.532 231.303 -40.4973 234 -45.2983C236.697 -50.0993 250.557 -54.5275 255.793 -56.5347C261.028 -58.5418 277.113 -66.4889 282.131 -69.7364C287.149 -72.9838 286.654 -86.1716 277.519 -83.4944Z" fill="#939960"/>
<path d="M190.48 111.526C197.607 102.192 197.167 89.7461 201.479 86.1806C205.791 82.615 212.002 81.1427 212.002 81.1427C214.79 70.9534 216.746 51.9962 224.566 47.5112C232.386 43.0263 238.178 39.848 246.369 27.2951C254.561 14.7422 272.662 -6.01453 280.126 -9.0254C287.59 -12.0363 301.14 -7.97221 307.941 -14.6002C314.742 -21.2281 320.614 -28.4587 327.71 -32.6818C334.807 -36.9049 340.335 -40.6793 344.772 -44.367C348.429 -47.4083 360.622 -53.8848 366.588 -55.1475C372.554 -56.4101 362.26 -66.8306 351.151 -62.0124C340.042 -57.1943 340.266 -57.014 334.065 -61.3153C320.254 -54.0711 314.002 -47.2561 308.533 -44.551C303.064 -41.846 303.922 -43.3867 296.557 -42.7554C289.191 -42.124 285.05 -37.9588 277.219 -30.7962C269.388 -23.6337 261.851 -18.6446 251.091 -12.6189C240.33 -6.59324 229.775 4.20176 224.309 11.8761C218.843 19.5504 208.302 24.9899 204.545 29.5671C200.789 34.1442 203.117 40.4169 199.391 49.1673C195.665 57.9177 192.182 50.7963 186.046 60.2249C179.909 69.6534 178.88 88.6597 176.261 94.6189C173.642 100.578 167.484 112.568 167.484 112.568C173.899 117.134 185.302 118.293 190.48 111.526Z" fill="#939960"/>
</g>
<defs>
<clipPath id="clip0_268_228">
<rect width="1280" height="720" fill="white"/>
</clipPath>
</defs>
</svg>
