<svg width="1280" height="720" viewBox="0 0 1280 720" fill="none" xmlns="http://www.w3.org/2000/svg">
<g clip-path="url(#clip0_268_451)">
<rect width="1280" height="720" fill="#FFFBF3"/>
<rect width="1280" height="720" fill="#023A2F"/>
<path d="M-116.465 255.683C-109.407 253.821 -96.8747 241.656 -94.4132 241.427C-91.9517 241.199 -86.2272 240.46 -81.7202 237.751C-77.2132 235.042 -73.7899 231.842 -69.4105 229.987C-65.0311 228.132 -48.5232 221.016 -44.7748 221.277C-41.0263 221.539 -40.5201 222.534 -36.842 222.192C-33.1639 221.85 -30.5522 220.78 -26.9042 222.303C-23.2561 223.827 -18.5803 225.047 -14.239 222.782C-9.89769 220.517 -3.3276 217.745 1.35294 216.942C6.03348 216.14 12.8504 213.759 19.8144 215.227C26.7784 216.696 33.553 220.618 38.6811 220.142C43.8093 219.665 51.2764 224.323 58.782 224.977C66.2875 225.632 76.2236 230.103 81.0759 231.111C85.9282 232.119 77.517 232.89 73.2856 234.11C69.0541 235.331 66.4492 238.47 60.2614 240.903C54.0736 243.336 45.1281 244.998 38.8485 248.478C32.5689 251.958 20.6709 259.891 17.7977 259.951C14.9246 260.011 11.5498 250.6 9.51309 248.721C7.47639 246.841 9.83253 249.932 10.3425 253.195C10.8526 256.458 15.2073 261.019 9.95022 262.335C4.69314 263.651 -3.29878 266.669 -7.7254 267.901C-12.152 269.133 -16.8522 274.332 -18.392 268.892C-19.9318 263.452 -17.0794 262.977 -20.0218 255.802C-22.9642 248.627 -25.6152 244.55 -25.4734 241.622C-25.3316 238.695 -28.8195 244.002 -27.6503 247.411C-26.4811 250.819 -21.8609 255.973 -23.6715 258.831C-25.4821 261.689 -17.8102 270.7 -27.0038 269.692C-36.1973 268.684 -40.2317 267.61 -48.7035 265.501C-57.1754 263.391 -72.6987 258.833 -83.0468 258.76C-93.3948 258.687 -95.4833 260.743 -102.31 260.756C-109.136 260.77 -122.041 259.9 -122.212 258.054C-122.384 256.207 -121.294 256.955 -116.465 255.683Z" fill="#939960"/>
<path d="M-170.114 152.09C-167.5 152.676 -140.353 158.074 -135.998 158.074C-131.643 158.074 -123.378 162.362 -122.217 163.814C-121.055 165.267 -110.911 167.863 -106.677 168.954C-102.443 170.044 -92.4091 169.664 -90.9599 169.92C-89.5107 170.176 -89.9902 165.572 -90.3525 162.308C-90.7148 159.044 -85.7599 155.535 -83.8241 151.063C-81.8883 146.591 -83.9449 155.535 -85.0353 157.229C-86.1258 158.923 -88.4203 159.889 -87.3298 162.791C-86.2394 165.693 -86.3637 168.563 -86.3637 169.458C-86.3637 170.353 -78.1411 170.645 -72.5788 171.234C-67.0166 171.824 -62.6655 173.294 -58.9147 170.993C-56.0412 169.217 -48.2768 172.808 -41.2618 172.325C-34.2468 171.842 -33.888 168.773 -23.005 165.679C-12.122 162.585 -3.23517 162.415 2.92383 158.785C9.08281 155.155 19.9729 153.343 24.5087 153.524C29.0445 153.706 43.1917 149.536 46.8182 147.177C50.4447 144.819 49.0488 143.142 38.837 143.37C27.9611 143.622 20.0653 132.611 10.9866 132.483C8.26588 132.444 -4.79088 133.193 -7.87393 132.483C-10.957 131.773 -26.2834 127.66 -29.5405 127.297C-32.7976 126.935 -33.9839 135.566 -33.8028 138.102C-33.6216 140.638 -33.8951 146.378 -36.1754 148.104C-38.4558 149.83 -36.1932 146.566 -36.1754 143.664C-36.1577 140.763 -36.5306 139.555 -37.3724 137.74C-38.2142 135.925 -36.4347 130.863 -36.662 128.686C-36.8894 126.509 -35.3301 126.512 -41.9899 126.875C-48.6497 127.237 -56.9825 127.961 -60.4882 127.585C-63.9939 127.208 -67.6239 127.102 -69.8012 129.158C-71.9786 131.215 -71.3712 132.664 -75.2427 131.815C-79.1143 130.966 -84.3853 129.212 -96.7175 131.268C-102.401 132.213 -103.065 134.351 -109.476 134.955C-115.887 135.559 -118.111 135.47 -123.893 136.681C-129.676 137.893 -133.785 141.654 -141.425 142.258C-146.398 142.656 -155.952 147.056 -166.594 147.298C-171.805 147.433 -177.367 150.456 -170.114 152.09Z" fill="#939960"/>
<path d="M-49.441 92.7053C-40.6501 95.0922 -37.8299 100.519 -34.2034 101.049C-30.5769 101.578 -26.3892 102.136 -26.3892 96.8788C-26.3892 91.622 -23.8567 83.6373 -22.404 85.2712C-20.9512 86.905 -22.6775 89.5335 -23.0397 90.8015C-23.402 92.0695 -23.672 94.428 -23.0397 95.7741C-22.4075 97.1203 -21.896 101.578 -21.8321 103.755C-21.7682 105.933 -16.8595 109.559 -13.6983 110.195C-10.5371 110.831 -2.17947 109.74 -0.0945053 107.563C1.71696 109.651 1.71697 111.736 5.89046 111.193C10.0639 110.649 16.9546 109.257 18.7661 107.201C20.5775 105.144 25.3797 104.057 27.3333 103.816C29.2868 103.574 34.0037 104.299 35.6944 101.034C37.3851 97.7703 37.5094 94.9963 38.5963 93.1741C39.6832 91.352 36.2698 85.8004 36.3622 83.7154C36.4545 81.6305 37.2679 84.5288 37.8113 85.3458C38.3548 86.1627 40.1698 86.0561 40.8944 87.6119C41.619 89.1676 41.0755 90.5138 40.8944 92.1476C40.7132 93.7815 40.3509 96.0299 40.3509 97.1203C40.3509 98.2107 39.6406 99.5782 39.4452 101.209C39.2499 102.839 46.6982 102.722 50.3282 101.51C53.9583 100.299 58.6681 96.0689 60.6039 95.8274C62.5396 95.5859 67.8604 96.4312 69.7926 96.1826C71.7249 95.934 70.4 92.5561 71.0038 91.9523C71.6076 91.3485 71.6076 95.0957 73.3019 95.0957C74.9961 95.0957 80.1926 94.4919 83.819 91.7108C87.4455 88.9296 89.8573 89.0504 96.2152 88.1589C102.573 87.2673 110.664 85.9531 110.068 82.9731C109.471 79.9931 106.438 79.9966 103.053 78.4231C99.6676 76.8496 94.7695 75.1909 91.1431 74.1005C87.5166 73.01 83.5242 72.2854 82.3166 72.6513C81.109 73.0171 81.3469 70.3816 78.8109 69.2947C76.2748 68.2079 75.6142 69.8986 72.9467 70.0051C70.2792 70.1117 62.1844 71.2767 59.4033 69.7032C56.6222 68.1297 56.3807 65.956 53.2372 65.8352C50.0938 65.7144 48.0372 68.254 45.4976 68.3748C42.958 68.4956 35.8223 68.6163 32.1958 66.8013C28.5693 64.9863 25.1843 63.4164 22.8863 64.0202C20.5882 64.624 16.9617 64.5032 16.9617 67.0428C16.9617 69.5824 16.6065 74.4201 15.9921 75.8693C15.3776 77.3185 15.7825 72.907 15.239 70.7297C14.6956 68.5524 14.9656 66.0163 13.0617 65.4729C11.1579 64.9295 8.70711 67.2844 8.70711 67.2844C4.89948 66.7409 -1.10679 67.3874 -4.43491 68.4352C-9.83379 70.1294 -12.2917 71.4579 -16.7103 71.6319C-19.2499 71.7349 -21.3277 70.712 -29.5859 71.6319C-33.9618 72.1505 -41.3817 75.6562 -42.5787 76.4909C-43.7757 77.3256 -46.5675 76.3097 -48.0202 76.3097C-49.473 76.3097 -50.1052 78.4871 -51.7355 78.9381C-53.3658 79.3892 -53.7921 81.357 -61.7128 82.348C-65.9573 82.8772 -77.4619 84.5608 -77.3696 86.9193C-77.2772 89.2777 -67.9393 90.0947 -65.1297 90.2758C-59.8275 90.5138 -54.5669 91.3284 -49.441 92.7053Z" fill="#939960"/>
<path d="M-12.5513 302.215C-4.8463 299.882 -1.64125 300.443 5.09449 301.505C11.8302 302.568 12.5148 305.169 18.2788 306.14C20.1219 306.458 22.6276 305.982 27.1623 306.235C31.6969 306.489 36.6126 312.629 41.4721 313.849C46.3317 315.07 54.7819 314.112 57.8447 315.372C60.9075 316.632 62.3476 314.926 63.9438 310.02C65.5399 305.114 61.0244 295.719 60.945 291.759C60.8656 287.8 62.6394 279.707 64.3122 278.618C65.9849 277.53 64.6582 283.827 64.5745 285.676C64.4908 287.525 66.603 290.456 66.6899 291.776C66.7768 293.095 65.0842 294.614 66.0236 299.118C66.8091 302.854 67.8355 311.871 67.1232 314.973C66.2905 318.624 69.0384 318.711 72.7299 320.143C75.0823 321.058 81.0085 323.025 86.4397 322.106C91.871 321.187 99.1124 314.871 100.652 313.184C102.192 311.498 105.083 306.147 107.744 305.433C110.405 304.718 111.313 308.914 118.112 307.075C124.91 305.237 129.041 299.904 131.086 298.584C133.131 297.264 133.504 292.656 132.599 289.693C131.694 286.731 133.193 283.894 133.985 286.354C134.777 288.815 135.67 289.092 136.173 291.458C136.675 293.825 134.81 297.362 137.818 296.644C140.827 295.926 149.549 290.597 150.87 290.041C152.595 291.726 155.509 292.325 158.615 290.415C161.721 288.505 168.26 283.493 172.116 282.882C175.973 282.272 174.909 278.798 172.744 278.742C170.579 278.686 167.585 279.243 164.308 278.812C161.031 278.38 155.032 273.85 150.668 271.856C146.305 269.861 145.133 271.672 142.592 271.623C140.051 271.575 131.405 267.023 125.153 264.409C118.902 261.796 109.826 261.875 109.29 261.886C104.947 257.912 101.765 257.578 98.8592 257.437C95.9539 257.297 94.9606 261.974 95.4768 265.925C95.9931 269.876 95.3064 275.14 94.5411 273.472C93.7758 271.803 94.5465 269.311 93.6938 266.653C92.8412 263.995 92.3033 260.738 92.6159 258.255C92.9285 255.773 88.6268 256.509 84.8956 257.7C80.4798 259.124 79.0695 260.545 74.6349 261.028C70.2003 261.512 63.8219 260.019 62.7352 260.041C61.6485 260.063 59.3084 261.002 58.5432 263.589C57.778 266.177 56.081 263.045 53.0886 262.988C50.0961 262.931 41.7161 265.792 37.9751 269.331C34.2341 272.869 25.2205 280.099 22.4429 281.721C19.6654 283.344 16.8433 282.924 14.2193 283.172C11.5954 283.42 6.55408 285.539 4.53571 288.88C2.51734 292.221 -3.53364 293.948 -7.77518 295.024C-12.0167 296.101 -18.8616 304.121 -12.5513 302.215Z" fill="#939960"/>
<path d="M1052.26 56.289C1051.42 53.309 1051.88 48.7093 1053.96 47.4306C1053.96 47.4306 1062.5 42.126 1067 43.126C1071.5 44.126 1074 52.9787 1081 56.289C1088 59.5994 1100 59.3046 1098 66.5327C1096 73.7608 1075.01 84.5586 1075.01 84.5586C1074.47 84.5586 1065.4 84.4556 1059.2 81.7171C1053 78.9786 1044.45 74.2545 1041.91 74.1551C1039.37 74.0556 1038.16 75.8422 1033.84 73.7608C1029.52 71.6794 1023.61 67.03 1020.34 66.5327C1017.08 66.0354 1014.07 66.5327 1011.91 66.4333C1009.74 66.3338 1008.75 62.8387 1012.62 62.306C1016.49 61.7732 1023.12 56.8929 1026.27 55.0459C1029.41 53.1989 1032.31 53.856 1034 55.5751C1035.34 55.0459 1044.16 49.8921 1047.19 49.235C1050.21 48.5779 1048.27 52.0765 1048.73 54.4527C1049.18 56.8289 1050.07 57.1237 1050.81 59.5994C1051.55 62.0751 1053.11 59.2691 1052.26 56.289Z" fill="#939960"/>
<path d="M-112.798 346.732C-109.843 343.741 -107.47 342.47 -103.08 340.846C-99.3573 339.468 -97.2546 333.458 -95.0773 331.995C-92.9 330.532 -88.8544 329.619 -87.1459 331.31C-84.7022 327.015 -83.594 325.062 -76.1528 324.412C-68.7116 323.762 -66.3638 321.954 -61.1496 319.986C-55.9354 318.018 -51.6021 316.992 -48.4267 316.864C-45.2513 316.736 -45.5567 322.067 -45.4644 324.802C-45.372 327.537 -47.2048 334.947 -47.2048 338.903C-47.2048 342.86 -45.9226 343.446 -45.9226 341.202C-45.9226 338.957 -45.2797 334.432 -44.2745 332.251C-43.2693 330.07 -42.6229 328.61 -43.3581 326.266C-44.0934 323.922 -42.8182 318.75 -43.042 316.505C-43.2658 314.26 -37.0677 311.138 -32.912 311.007C-28.7563 310.875 -24.8528 312.57 -22.7749 315.823C-20.697 319.077 -18.6227 317.773 -17.891 316.214C-17.1593 314.655 -14.3391 315.17 -11.1708 318.164C-8.00254 321.158 -3.59821 321.076 1.04413 320.65C5.68645 320.224 10.6911 319.585 15.4577 322.188C20.2244 324.792 24.9839 328.827 29.5019 328.695C34.0199 328.564 40.5128 327.655 47.7019 329.867C54.8909 332.08 58.3291 336.85 65.5359 338.197C75.3072 340.019 76.2946 342.704 69.6881 343.013C63.0816 343.322 56.9012 347.403 53.566 349.176C50.2308 350.948 45.6133 348.007 45.6133 348.007C44.6366 352.429 40.9639 352.383 36.1475 353.555C31.3312 354.727 26.2022 353.555 23.0304 355.505C19.8585 357.455 15.9763 360.325 11.6643 361.188C7.3523 362.051 6.11624 362.183 4.9157 358.57C3.71516 354.958 5.82854 344.718 5.64739 341.589C5.46625 338.459 4.33318 339.962 4.15204 341.393C3.97089 342.825 2.80586 346.664 2.19494 348.746C1.58401 350.827 1.4313 353.985 2.16653 357.302C2.90178 360.62 4.10233 362.119 -0.0711517 363.518C-4.24463 364.918 -7.452 366.576 -15.149 366.868C-22.8459 367.159 -24.0287 365.092 -25.318 362.669C-26.6074 360.247 -27.094 361.248 -28.2484 362.378C-29.4027 363.507 -39.8844 365.013 -45.3792 363.444C-50.8739 361.874 -54.5395 357.196 -57.7149 356.286C-60.8903 355.377 -64.6766 357.977 -73.5954 357.391C-82.5142 356.805 -84.8336 352.774 -93.2587 351.079C-101.684 349.385 -106.511 349.85 -109.565 350.17C-115.788 350.831 -114.016 347.968 -112.798 346.732Z" fill="#939960"/>
<path d="M-126.09 10.1014C-121.579 10.1014 -116.532 13.5467 -111.453 13.909C-106.373 14.2713 -102.573 11.7317 -99.3016 12.0052C-96.0303 12.2787 -91.7786 15.1806 -84.3836 15.5571C-76.9885 15.9336 -72.8399 13.426 -71.0178 11.6856C-69.1957 9.94512 -66.1091 11.0214 -64.4788 14.2855C-62.8484 17.5497 -51.4504 19.4251 -50.3458 17.1271C-49.2411 14.829 -48.5165 9.13529 -48.3958 5.8782C-48.275 2.62111 -44.407 -3.42776 -43.5581 -3.79006C-42.7092 -4.15235 -44.7693 -0.163574 -45.0108 1.65145C-45.2524 3.46646 -44.407 5.55853 -44.7693 7.16754C-45.1316 8.77655 -46.7051 11.8063 -47.1881 15.1948C-47.6712 18.5833 -46.5381 18.3383 -43.3556 19.5459C-40.1731 20.7535 -35.0939 21.2046 -32.9628 21.9505C-30.8316 22.6964 -24.9817 24.8489 -18.2082 21.6522C-11.4347 18.4555 -9.9465 18.1003 -6.67875 17.2478C-3.411 16.3954 0.332687 16.4025 1.41957 13.9836C2.50645 11.5648 1.17804 7.09295 1.41957 4.67411C1.6611 2.25527 2.26848 3.81455 2.99306 5.8782C3.71765 7.94185 4.2007 11.0817 4.07994 12.8968C3.95918 14.7118 11.3151 13.323 13.1302 12.7192C14.9452 12.1153 20.3938 7.5618 22.461 6.83722C24.5282 6.11263 28.144 6.21919 30.4421 5.864C32.7402 5.50881 36.1252 2.96565 39.8724 1.39571C43.6197 -0.174231 50.798 -0.898817 55.3693 -1.32504C59.9406 -1.75127 66.5933 -2.76356 68.046 -3.82913C69.4987 -4.8947 70.1026 -7.30999 67.2007 -7.55152C64.2988 -7.79305 63.6914 -7.30999 60.0649 -7.55152C56.4384 -7.79305 54.3819 -10.5742 49.7857 -11.9061C45.1896 -13.2381 42.412 -11.1958 42.412 -11.1958C38.0574 -13.3695 32.1328 -16.2714 28.2648 -17.234C24.3968 -18.1966 17.6091 -21.4643 16.778 -20.7397C15.9468 -20.0151 17.1722 -13.6182 15.8438 -11.5616C14.5154 -9.50506 14.6006 -5.14333 15.3252 -3.20755C16.0498 -1.27176 14.2597 -3.00864 12.9419 -4.57858C11.6242 -6.14852 12.4837 -7.73977 13.2722 -9.61517C14.0608 -11.4906 14.2987 -14.5878 13.7553 -17.234C13.2119 -19.8801 13.3326 -21.7058 11.4572 -22.3132C9.58183 -22.9206 -0.0899963 -24.8457 -3.62768 -24.0891C-7.16537 -23.3326 -8.4334 -21.276 -10.2484 -21.0061C-12.0634 -20.7362 -10.7919 -22.7075 -14.1555 -24.2596C-17.5191 -25.8118 -25.8519 -26.4476 -28.9349 -26.4476C-32.018 -26.4476 -40.9048 -27.5345 -42.9933 -26.4476C-45.0819 -25.3607 -45.5116 -22.5405 -48.6764 -21.3506C-51.8411 -20.1607 -52.2283 -22.6187 -58.9236 -20.9954C-65.6189 -19.3722 -68.4462 -16.8255 -69.6255 -15.7386C-70.8047 -14.6518 -74.52 -10.7482 -77.4219 -8.84085C-80.3238 -6.93349 -85.4918 -6.21245 -91.3879 -5.93896C-97.2841 -5.66546 -100.818 -3.94634 -103.901 -2.22367C-106.984 -0.501005 -108.98 1.68342 -114.514 3.31019C-120.048 4.93695 -123.394 5.12165 -126.665 5.93859C-129.937 6.75552 -134.195 10.1014 -126.09 10.1014Z" fill="#939960"/>
<path d="M153.582 69.7764C162.536 69.8245 167.767 76.9633 179.196 76.2817C190.626 75.6001 187.252 71.4556 191.505 71.8438C195.759 72.232 195.671 74.6052 207.277 76.8187C218.884 79.0321 224.005 78.9439 227.657 79.0417C231.309 79.1395 232.611 73.3085 232.075 68.9871C231.538 64.6656 231.495 63.3325 231.677 61.8567C231.858 60.381 233.071 61.3257 234.419 65.2923C235.767 69.2589 236.28 69.503 236.533 72.5175C236.785 75.532 234.828 78.6812 235.205 80.4777C235.582 82.2742 241.23 82.8795 245.082 83.2889C248.934 83.6983 252.216 86.956 263.872 82.2197C275.528 77.4834 272.499 72.1937 274.959 69.8731C277.42 67.5526 278.758 72.5082 285.778 70.1765C292.797 67.8449 294.846 62.2933 299.663 58.4024C304.481 54.5115 313.075 54.547 315.873 53.466C318.67 52.385 324.104 47.6946 329.685 45.5414C335.266 43.3883 349.318 40.3339 353.728 38.9776C358.137 37.6213 356.096 34.3885 349.646 35.5686C343.197 36.7487 336.99 35.676 332.969 34.7148C328.948 33.7537 319.747 30.2716 315.568 30.0496C311.388 29.8276 307.332 31.43 306.757 34.676C298.207 34.4167 292.318 29.1599 287.818 28.2547C283.317 27.3495 277.302 26.9902 275.984 29.1152C274.666 31.2403 274.509 34.9034 274.911 38.1427C275.313 41.382 276.685 42.6326 275.292 43.1707C273.898 43.7088 272.808 41.8148 272.211 37.9911C271.615 34.1674 271.644 29.5037 271.535 28.6189C271.425 27.7342 266.267 26.4095 262.712 26.2567C259.157 26.1039 246.532 26.4365 242.824 27.0184C239.117 27.6003 239.149 29.7904 236.487 30.9834C233.826 32.1763 233.491 28.7247 229.743 26.7025C225.995 24.6802 220.646 25.7917 214.08 32.38C207.514 38.9683 205.726 40.2748 200.714 42.1138C195.702 43.9529 193.033 44.0445 189.148 46.1087C185.263 48.173 183.722 51.4138 181.928 53.7089C180.133 56.004 167.542 61.4863 156.1 63.5653C144.658 65.6443 146.598 69.7414 153.582 69.7764Z" fill="#939960"/>
<path d="M161.365 139.826C168.768 139.116 179.867 138.274 184.765 136.548C189.663 134.822 198.366 132.055 199.637 131.192C200.909 130.329 199.094 120.945 199.637 118.181C200.181 115.418 204.535 110.697 206.347 110.236C208.158 109.774 204.897 112.999 203.928 115.187C202.958 117.375 202.841 118.526 203.445 120.025C204.049 121.524 202.841 122.578 203.324 125.85C203.807 129.121 203.203 131.888 209.128 129.004C215.052 126.12 226.781 125.452 229.928 125.097C233.075 124.742 241.049 124.06 240.939 120.952C240.828 117.844 243.72 117.268 243.72 118.995C243.72 120.721 243.116 122.333 246.501 121.527C249.886 120.721 257.625 117.727 261.135 117.62C264.644 117.513 268.991 119.577 271.652 118.195C274.312 116.814 281.569 116.121 287.735 116.238C293.901 116.356 301.157 116.352 301.52 114.626C301.882 112.9 295.837 111.862 292.572 111.745C289.308 111.628 284.108 108.754 278.059 107.025C272.011 105.295 264.882 105.529 262.705 105.068C260.527 104.606 258.687 106.897 257.977 108.74C257.267 110.584 255.924 113.919 255.075 113.358C254.226 112.797 255.43 110.136 255.682 106.911C255.935 103.686 256.393 103.228 251.932 102.294C247.47 101.359 242.984 102.18 236.577 101.256C230.169 100.333 224.944 97.1185 220.718 96.3051C216.491 95.4917 209.11 93.3108 205 93.8863C200.891 94.4617 192.302 91.0057 188.307 90.4303C184.311 89.8549 175.609 91.3537 173.556 93.8863C171.503 96.4188 170.171 98.6067 169.201 99.413C168.231 100.219 168.356 98.3758 168.718 95.8611C169.08 93.3464 169.925 93.0977 166.057 92.9805C162.189 92.8633 156.869 95.2857 154.088 95.7439C151.306 96.2021 146.146 94.824 143.808 94.824C141.471 94.824 131.959 98.6245 129.42 100.468C126.88 102.311 126.759 107.835 127.484 110.023C128.208 112.21 128.287 121.424 127.1 122.099C125.914 122.774 126.745 120.028 126.639 118.416C126.586 117.17 126.212 115.96 125.552 114.903C124.948 113.866 125.974 110.9 124.433 108.57C123.722 107.479 124.223 101.775 123.367 101.256C122.511 100.738 123.126 99.6474 115.869 101.835C108.613 104.023 109.831 104.712 105.832 105.98C101.832 107.248 102.809 106.67 99.3031 107.362C95.7974 108.055 93.1264 112.107 89.9723 113.258C86.8182 114.409 74.1309 114.065 70.0213 114.871C65.9118 115.677 62.7612 120.398 58.4102 121.204C54.0591 122.01 47.0441 122.699 44.1422 122.468C41.2403 122.237 33.6215 122.113 33.3799 123.85C33.1384 125.587 34.0903 127.402 38.3526 128.112C42.6149 128.823 50.2017 127.999 51.4094 129.38C52.617 130.762 51.2034 132.833 53.7252 132.833C56.2471 132.833 59.2697 132.027 63.2585 133.064C67.2473 134.101 70.6358 137.553 73.6584 138.477C76.6811 139.4 86.4453 136.747 89.2264 137.035C92.0076 137.322 92.4906 133.898 92.551 132.229C92.6114 130.56 94.5152 130.414 95.1829 127.537C95.8507 124.66 94.636 122.241 95.3037 121.953C95.9715 121.666 96.4829 123.996 96.8452 126.184C97.2075 128.372 97.2004 129.736 96.49 130.446C95.7658 131.155 95.1537 131.971 94.675 132.865C94.0712 133.902 94.3731 137.099 94.2523 137.901C94.1316 138.704 98.1204 137.901 101.143 138.363C104.166 138.825 107.796 140.579 112.154 139.631C116.512 138.683 120.075 135.014 120.618 136.079C121.162 137.145 121.939 139.741 123.023 139.905C124.106 140.068 129.608 139.972 131.966 138.839C134.325 137.706 139.493 136.189 142.576 136.708C145.659 137.227 154.002 140.519 161.365 139.826Z" fill="#939960"/>
<path d="M-6.96003 40.6816C-0.843663 40.8378 5.91561 43.4023 9.90795 45.9419C13.9003 48.4815 22.4213 48.6627 26.6019 47.3946C30.7824 46.1266 35.3075 43.4023 36.9379 44.3116C38.5682 45.2209 38.0283 46.8477 40.749 47.2135C43.4698 47.5794 49.231 44.3329 55.802 44.4217C62.373 44.5105 71.885 48.8438 75.8738 49.3269C79.8625 49.8099 84.0964 47.8777 84.0964 47.8777C84.8601 50.364 89.1188 52.5591 94.7095 52.9392C100.3 53.3192 104.364 54.2853 109.08 56.5834C113.797 58.8815 124.847 54.6476 126.304 51.5255C127.76 48.4034 128.435 46.3113 130.722 47.1247C133.01 47.9381 135.446 47.7037 139.545 45.9419C145.406 43.4236 149.341 39.1933 154.758 36.707C160.59 34.0253 165.307 31.3791 170.265 30.8819C175.224 30.3846 187.35 29.9442 186.022 27.1488C184.693 24.3535 180.058 24.9715 176.787 24.7158C173.515 24.4601 169.306 22.5207 165.382 21.2882C161.457 20.0557 156.374 18.6847 154.289 18.7735C152.204 18.8623 152.382 20.315 152.566 22.13C152.751 23.945 152.019 27.9445 150.57 28.3458C149.121 28.7472 150.925 26.6658 150.57 24.3961C150.215 22.1265 150.02 18.9546 149.029 17.5054C148.038 16.0563 145.946 15.6016 142.863 15.147C139.779 14.6923 133.684 13.5415 129.895 10.8847C126.105 8.22789 120.23 7.86915 117.552 8.29537C113.289 4.38829 106.591 2.25715 103.838 3.14867C101.085 4.0402 99.6572 6.02926 97.313 6.75385C94.9687 7.47844 95.6472 6.21041 89.5947 7.20849C83.5423 8.20658 85.5385 12.1066 86.0855 14.2839C86.6324 16.4612 83.5991 22.4142 83.5458 27.9303C83.4997 31.9261 81.912 32.1925 81.3686 30.0614C80.8251 27.9303 80.1893 24.2718 81.5497 22.2756C82.9101 20.2795 83.3647 19.0114 83.1836 17.3811C83.0024 15.7508 82.4554 12.0781 81.5497 10.8741C80.6439 9.66996 77.4011 11.6555 75.38 12.2948C73.359 12.9342 67.676 14.0175 63.6836 14.5609C59.6913 15.1044 60.1317 17.374 59.2402 18.0063C58.3487 18.6385 52.1649 20.9863 49.1742 20.9472C46.1835 20.9082 39.9392 22.8155 37.2931 24.627C34.6469 26.4385 31.8515 30.8854 26.1401 31.61C20.4286 32.3346 17.7967 31.8835 10.359 32.6081C2.92135 33.3327 -3.13819 36.3269 -6.96003 37.1439C-10.7819 37.9608 -10.48 40.5928 -6.96003 40.6816Z" fill="#939960"/>
<path d="M15.9431 386.798C15.7244 389.175 16.4939 390.242 24.2947 390.588C32.0954 390.933 37.9039 393.098 44.6204 396.348C51.3369 399.598 52.2221 403.226 64.5732 403.743C76.9243 404.26 79.9967 400.989 84.7117 400.073C89.4266 399.157 87.0459 388.823 87.0377 385.011C87.0295 381.2 89.0167 377.029 90.103 376.754C91.1893 376.478 89.3998 380.112 90.118 383.737C90.8362 387.362 91.9871 392.357 91.2827 396.791C90.5783 401.225 91.2128 400.602 96.487 400.41C101.761 400.217 112.472 401.221 116.64 403.691C120.809 406.161 128.992 411.013 142.168 410.363C155.344 409.713 154.724 400.466 154.724 400.466C160.17 402.265 165.074 401.75 166.331 398.555C167.589 395.359 165.757 386.124 163.574 383.216C161.39 380.308 165.204 382.971 166.723 385.87C168.268 389 169.159 392.412 169.345 395.898C169.472 399.041 172.688 398.022 175.873 395.764C179.057 393.505 183.235 388.736 187.101 387.758C190.967 386.78 196.652 387.858 203.792 386.273C210.931 384.688 214.054 378.511 221.532 377.408C229.01 376.305 229.622 372.063 222.852 371.723C216.081 371.382 211.365 371.989 207.128 370.545C202.891 369.102 195.63 365.373 190.421 364.415C185.212 363.457 181.11 363.831 179.772 367.34C168.524 366.036 160.183 362.48 153.272 361.387C146.362 360.294 144.571 361.491 139.861 363.075C135.151 364.658 133.923 360.345 125.457 357.906C116.991 355.466 108.569 353.68 102.718 354.676C96.8666 355.673 92.694 357.735 89.3171 361.489C85.9402 365.244 83.9918 362.68 80.1312 362.809C76.2705 362.938 65.8972 367.081 60.8388 371.798C55.7804 376.515 50.332 378.26 41.9894 378.64C33.6468 379.021 16.2936 382.965 15.9431 386.798Z" fill="#939960"/>
<path d="M-11.2026 186.879C-1.22675 188.487 10.26 194.577 14.461 196.861C18.662 199.144 25.132 203.028 29.0099 205.299C32.8879 207.57 50.6938 204.969 54.98 204.16C59.2662 203.351 65.4112 204.973 69.4235 206.239C74.6054 207.87 75.4077 208.283 79.9326 210.675C84.4574 213.067 91.1762 212.438 96.429 212.785C101.682 213.133 102.041 215.427 106.761 215.248C114.456 214.927 121.958 211.787 126.863 208.625C131.769 205.463 142.094 205.623 145.82 205.519C149.547 205.416 157.595 201.157 162.728 198.001C167.86 194.845 183.785 191.386 188.643 190.07C193.501 188.755 211.369 188.565 208.378 185.814C205.388 183.063 192.776 181.305 184.914 180.47C177.053 179.635 177.276 176.67 173.823 174.721C170.37 172.771 162.855 174.418 162.05 171.909C161.246 169.399 156.862 166.791 152.291 166.043C147.721 165.296 142.871 162.98 137.597 163.659C132.323 164.338 133.989 164.747 135.32 167.747C136.555 170.531 137.239 177.038 138.653 178.729C140.066 180.421 139.505 187.391 140.183 189.197C140.862 191.003 142.555 192.382 142.793 193.263C143.032 194.143 141.81 193.623 139.112 190.798C136.415 187.974 137.751 183.217 136.045 180.903C135.384 180.007 132.939 180.135 132.285 177.442C131.631 174.748 135.045 175.922 133.405 171.894C131.764 167.866 130.02 165.789 128.721 165.202C127.423 164.615 121.727 164.736 119.391 164.671C117.054 164.607 118.262 168.623 118.202 170.818C118.141 173.012 117.744 176.714 116.867 176.821C115.99 176.929 117.085 174.216 116.295 171.035C115.505 167.854 117.196 164.877 113.132 163.941C109.068 163.005 101.226 161.587 99.1911 161.169C97.156 160.75 92.326 161.307 90.7022 161.948C89.0785 162.589 81.6251 162.799 80.0241 162.616C78.4231 162.434 71.41 162.652 68.7486 163.816C66.0871 164.979 63.1247 171.904 62.3553 173.393C61.5858 174.882 61.8335 181.622 62.7627 184.395C63.6919 187.167 60.4073 185.154 59.7818 181.292C59.1562 177.43 59.5721 173.043 59.7895 170.437C60.007 167.832 61.5381 165.266 55.6258 167.835C49.7134 170.405 43.5279 172.444 38.6603 174.236C33.7927 176.028 27.9973 174.354 22.2862 175.295C16.5751 176.235 13.5499 179.766 5.90512 181.893C-1.73969 184.02 -9.51784 185.313 -13.1562 184.921C-16.7946 184.529 -17.6372 185.835 -11.2026 186.879Z" fill="#939960"/>
<path d="M-41.1139 716.088C-38.4997 716.674 -11.3526 722.072 -6.99794 722.072C-2.64331 722.072 5.62195 726.36 6.78342 727.812C7.94489 729.265 18.0891 731.862 22.323 732.952C26.5568 734.042 36.5909 733.662 38.0401 733.918C39.4893 734.174 39.0098 729.571 38.6475 726.306C38.2852 723.042 43.2401 719.533 45.1759 715.061C47.1117 710.589 45.0551 719.533 43.9647 721.227C42.8742 722.921 40.5797 723.888 41.6702 726.789C42.7606 729.691 42.6363 732.561 42.6363 733.456C42.6363 734.351 50.8589 734.643 56.4212 735.232C61.9834 735.822 66.3345 737.292 70.0853 734.991C72.9588 733.215 80.7232 736.806 87.7382 736.323C94.7532 735.84 95.112 732.771 105.995 729.677C116.878 726.583 125.765 726.413 131.924 722.783C138.083 719.153 148.973 717.341 153.509 717.523C158.044 717.704 172.192 713.534 175.818 711.175C179.445 708.817 178.049 707.14 167.837 707.368C156.961 707.62 149.065 696.609 139.987 696.481C137.266 696.442 124.209 697.191 121.126 696.481C118.043 695.771 102.717 691.658 99.4595 691.295C96.2024 690.933 95.0161 699.564 95.1972 702.1C95.3784 704.636 95.1049 710.376 92.8246 712.102C90.5442 713.829 92.8068 710.564 92.8246 707.662C92.8423 704.761 92.4694 703.553 91.6276 701.738C90.7858 699.923 92.5653 694.861 92.338 692.684C92.1106 690.507 93.6699 690.51 87.0101 690.873C80.3503 691.235 72.0175 691.96 68.5118 691.583C65.0061 691.207 61.3761 691.1 59.1988 693.157C57.0214 695.213 57.6288 696.662 53.7573 695.813C49.8857 694.964 44.6147 693.21 32.2825 695.266C26.5994 696.211 25.9352 698.349 19.5241 698.953C13.1129 699.557 10.8894 699.468 5.10693 700.679C-0.67556 701.891 -4.78511 705.652 -12.4252 706.256C-17.3979 706.654 -26.9525 711.055 -37.594 711.296C-42.8046 711.431 -48.3669 714.454 -41.1139 716.088Z" fill="#939960"/>
<path d="M-63.0426 692.825C-55.644 692.114 -44.5443 691.273 -39.6463 689.546C-34.7482 687.82 -26.0425 685.053 -24.7745 684.19C-23.5065 683.327 -25.3179 673.943 -24.7745 671.18C-24.231 668.416 -19.8764 663.696 -18.0614 663.234C-16.2464 662.772 -19.5141 665.997 -20.4802 668.185C-21.4464 670.373 -21.5707 671.524 -20.9633 673.023C-20.3559 674.522 -21.5707 675.577 -21.0841 678.848C-20.5974 682.119 -21.2048 684.886 -15.2803 682.002C-9.3557 679.118 2.37267 678.45 5.5161 678.095C8.65953 677.74 16.6406 677.058 16.527 673.95C16.4133 670.842 19.3081 670.267 19.3081 671.993C19.3081 673.719 18.7043 675.332 22.0893 674.525C25.4742 673.719 33.2138 670.725 36.7195 670.618C40.2253 670.512 44.5799 672.575 47.2402 671.194C49.9006 669.812 57.1536 669.119 63.3197 669.237C69.4857 669.354 76.7423 669.35 77.1046 667.624C77.4669 665.898 71.4215 664.861 68.1573 664.743C64.8931 664.626 59.6932 661.753 53.6479 660.023C47.6025 658.293 40.4668 658.528 38.2895 658.066C36.1121 657.604 34.3007 659.909 33.5761 661.753C32.8515 663.596 31.5195 666.931 30.6742 666.37C29.8288 665.809 31.0294 663.149 31.278 659.924C31.5266 656.698 31.9884 656.24 27.5307 655.306C23.0731 654.372 18.5835 655.192 12.1723 654.269C5.76117 653.345 0.557663 650.117 -3.66554 649.303C-7.88875 648.49 -15.2731 646.309 -19.3862 646.885C-23.4993 647.46 -32.0807 644.004 -36.0802 643.429C-40.0796 642.853 -48.7746 644.352 -50.8312 646.885C-52.8877 649.417 -54.2162 651.605 -55.1681 652.411C-56.12 653.218 -56.017 651.374 -55.6547 648.859C-55.2924 646.345 -54.4435 646.096 -58.315 645.979C-62.1866 645.862 -67.5038 648.284 -70.2849 648.742C-73.0661 649.2 -78.2554 647.804 -80.5748 647.804C-82.8942 647.804 -92.4275 651.605 -94.9493 653.448C-97.4712 655.292 -97.6097 660.815 -96.8851 663.003C-96.1605 665.191 -96.0824 674.405 -97.2722 675.08C-98.4621 675.754 -97.6274 673.009 -97.7304 671.396C-97.784 670.151 -98.1597 668.94 -98.8209 667.883C-99.4247 666.846 -98.3982 663.88 -99.9397 661.55C-100.65 660.46 -100.146 654.756 -101.005 654.237C-101.865 653.718 -101.247 652.628 -108.5 654.816C-115.753 657.004 -114.538 657.693 -118.541 658.961C-122.544 660.229 -121.564 659.65 -125.069 660.343C-128.575 661.035 -131.264 665.092 -134.407 666.242C-137.551 667.393 -150.245 667.049 -154.358 667.855C-158.471 668.661 -161.618 673.396 -165.987 674.202C-170.356 675.008 -177.353 675.698 -180.255 675.467C-183.157 675.236 -190.776 675.111 -191.017 676.848C-191.259 678.585 -190.289 680.4 -186.045 681.111C-181.8 681.821 -174.196 680.997 -172.984 682.379C-171.773 683.76 -173.194 685.831 -170.672 685.831C-168.15 685.831 -165.128 685.025 -161.135 686.062C-157.143 687.099 -153.762 690.552 -150.739 691.475C-147.716 692.399 -137.952 689.745 -135.171 690.033C-132.39 690.321 -131.903 686.897 -131.843 685.227C-131.782 683.558 -129.879 683.412 -129.214 680.535C-128.55 677.658 -129.758 675.239 -129.094 674.952C-128.429 674.664 -127.914 676.994 -127.552 679.182C-127.19 681.37 -127.197 682.734 -127.907 683.444C-128.629 684.156 -129.241 684.971 -129.722 685.863C-130.326 686.9 -130.024 690.097 -130.145 690.9C-130.266 691.702 -126.273 690.9 -123.251 691.361C-120.228 691.823 -116.602 693.578 -112.24 692.629C-107.878 691.681 -104.319 688.012 -103.776 689.078C-103.232 690.143 -102.44 692.75 -101.353 692.924C-100.266 693.098 -94.7646 692.992 -92.4097 691.859C-90.0548 690.726 -84.8797 689.209 -81.7966 689.728C-78.7136 690.246 -70.3879 693.517 -63.0426 692.825Z" fill="#939960"/>
<path d="M79.559 645.704C88.3499 648.09 91.1701 653.518 94.7966 654.047C98.4231 654.576 102.611 655.134 102.611 649.877C102.611 644.62 105.143 636.636 106.596 638.269C108.049 639.903 106.323 642.532 105.96 643.8C105.598 645.068 105.328 647.426 105.96 648.772C106.592 650.119 107.104 654.576 107.168 656.754C107.232 658.931 112.141 662.557 115.302 663.193C118.463 663.829 126.821 662.738 128.905 660.561C130.717 662.65 130.717 664.735 134.89 664.191C139.064 663.648 145.955 662.255 147.766 660.199C149.578 658.142 154.38 657.055 156.333 656.814C158.287 656.572 163.004 657.297 164.694 654.033C166.385 650.769 166.509 647.995 167.596 646.172C168.683 644.35 165.27 638.799 165.362 636.714C165.455 634.629 166.268 637.527 166.811 638.344C167.355 639.161 169.17 639.054 169.894 640.61C170.619 642.166 170.076 643.512 169.894 645.146C169.713 646.78 169.351 649.028 169.351 650.119C169.351 651.209 168.641 652.577 168.445 654.207C168.25 655.837 175.698 655.72 179.328 654.509C182.958 653.298 187.668 649.067 189.604 648.826C191.54 648.584 196.86 649.43 198.793 649.181C200.725 648.932 199.4 645.554 200.004 644.951C200.608 644.347 200.608 648.094 202.302 648.094C203.996 648.094 209.193 647.49 212.819 644.709C216.446 641.928 218.857 642.049 225.215 641.157C231.573 640.266 239.664 638.951 239.068 635.971C238.471 632.991 235.438 632.995 232.053 631.421C228.668 629.848 223.77 628.189 220.143 627.099C216.517 626.008 212.524 625.284 211.317 625.65C210.109 626.015 210.347 623.38 207.811 622.293C205.275 621.206 204.614 622.897 201.947 623.003C199.279 623.11 191.184 624.275 188.403 622.702C185.622 621.128 185.381 618.954 182.237 618.833C179.094 618.713 177.037 621.252 174.498 621.373C171.958 621.494 164.822 621.615 161.196 619.8C157.569 617.985 154.184 616.415 151.886 617.018C149.588 617.622 145.962 617.502 145.962 620.041C145.962 622.581 145.607 627.418 144.992 628.868C144.378 630.317 144.782 625.905 144.239 623.728C143.696 621.551 143.966 619.015 142.062 618.471C140.158 617.928 137.707 620.283 137.707 620.283C133.899 619.739 127.893 620.386 124.565 621.433C119.166 623.128 116.708 624.456 112.29 624.63C109.75 624.733 107.672 623.71 99.4141 624.63C95.0382 625.149 87.6183 628.654 86.4213 629.489C85.2243 630.324 82.4325 629.308 80.9798 629.308C79.527 629.308 78.8948 631.485 77.2645 631.936C75.6342 632.388 75.2079 634.355 67.2872 635.346C63.0427 635.875 51.5381 637.559 51.6304 639.918C51.7228 642.276 61.0607 643.093 63.8703 643.274C69.1725 643.512 74.4331 644.327 79.559 645.704Z" fill="#939960"/>
<path d="M-90.4318 622.332C-85.5373 622.748 -74.2885 621.583 -72.477 620.517C-70.6655 619.452 -65.7639 615.442 -64.8582 616.71C-63.9524 617.978 -63.9524 619.455 -61.047 619.455C-58.1415 619.455 -46.9033 617.797 -42.911 618.162C-38.9187 618.528 -36.9261 617.452 -35.4733 613.9C-34.0206 610.348 -32.3903 605.816 -31.6657 607.088C-30.9411 608.359 -32.5714 611.258 -32.5714 612.891C-32.5714 614.525 -33.1504 618.575 -33.0438 619.445C-32.9373 620.315 -25.6594 620.738 -23.8515 621.054C-22.0436 621.37 -18.0335 621.324 -16.1297 621.597C-14.2259 621.871 -11.5939 623.139 -9.23547 624.499C-6.87701 625.859 -0.000534058 624.954 1.79672 624.588C3.59399 624.222 10.1117 621.959 10.8363 624.016C11.5609 626.073 14.9458 628.488 17.9685 629.941C20.9912 631.393 29.2138 629.859 33.2061 628.768C37.1985 627.678 39.8553 624.659 39.8553 623.441C39.8553 622.222 38.8892 619.651 38.8892 617.353C38.8892 615.055 39.2728 607.493 38.8892 605.383C38.2214 601.735 40.8818 604.758 40.8818 607.176C40.8818 609.595 42.6364 613.303 42.7572 614.149C42.878 614.994 41.4288 616.205 42.1534 618.262C42.878 620.318 42.6364 622.879 44.693 622.879C46.7495 622.879 50.1345 621.974 52.3082 620.038C54.482 618.102 57.9913 616.653 65.1874 616.674C69.0341 616.674 70.4478 610.991 71.0409 610.87C74.2554 612.142 77.1573 613.229 82.0518 611.957C86.9463 610.686 93.3895 606.882 96.437 606.335C99.4845 605.788 108.624 606.335 113.294 605.791C117.965 605.248 118.036 603.678 114.715 602.495C111.394 601.312 103.615 599.583 99.1293 596.972C94.6433 594.361 90.6545 594.486 88.8289 594.365C87.0032 594.244 87.8982 591.339 82.7089 589.502C77.5196 587.666 60.6516 586.785 57.2667 585.933C53.8817 585.08 47.5807 584.174 44.693 584.363C41.8053 584.551 37.5892 586.139 35.522 586.139C33.4548 586.139 31.9701 584.913 27.7646 584.863C23.5592 584.814 18.8849 585.318 16.4341 584.739C13.9833 584.16 13.7346 585.258 13.2978 586.799C12.8609 588.341 11.877 590.969 11.5928 593.235C11.3087 595.501 12.3032 598.588 11.4117 598.588C10.5202 598.588 10.0513 595.324 9.86663 593.509C9.68194 591.694 9.41555 590.245 9.41555 588.792C9.41555 587.339 11.1382 587.25 11.4117 585.439C11.6852 583.627 11.7065 583.631 8.57019 582.892C5.43387 582.153 2.88716 580.903 -0.817467 579.543C-4.52209 578.182 -8.63165 579.692 -10.3117 580.427C-13.4551 581.819 -15.6395 588.046 -20.7081 588.046C-24.5193 588.046 -30.0176 592.227 -31.108 593.608C-33.4665 596.602 -44.9818 595.001 -48.5123 596.631C-52.0429 598.261 -53.0765 602.165 -53.0765 602.165C-58.0492 603.159 -61.633 604.399 -63.9915 605.759C-66.35 607.12 -71.4505 610.647 -76.2633 611.645C-81.0761 612.643 -87.0859 614.607 -90.4105 614.969C-93.7351 615.332 -98.7752 618.795 -96.6903 620.066C-94.6053 621.338 -94.6941 621.97 -90.4318 622.332Z" fill="#939960"/>
<path d="M-128.454 520.543C-120.704 518.366 -117.51 518.991 -110.797 520.188C-104.084 521.385 -103.452 523.999 -97.7086 525.086C-95.8723 525.441 -93.3575 525.015 -88.8289 525.359C-84.3002 525.704 -79.5087 531.941 -74.6746 533.259C-69.8404 534.577 -61.3727 533.788 -58.3358 535.109C-55.299 536.431 -53.8249 534.754 -52.1307 529.881C-50.4364 525.008 -54.7626 515.524 -54.7626 511.564C-54.7626 507.603 -52.8269 499.548 -51.1326 498.493C-49.4383 497.438 -50.8911 503.707 -51.0118 505.554C-51.1326 507.401 -49.0796 510.374 -49.0192 511.695C-48.9588 513.017 -50.6815 514.501 -49.8326 519.023C-49.1222 522.774 -48.2769 531.81 -49.0512 534.896C-49.9569 538.53 -47.2113 538.672 -43.5493 540.178C-41.2157 541.14 -35.3302 543.225 -29.8816 542.416C-24.433 541.606 -17.0664 535.436 -15.4929 533.781C-13.9194 532.126 -10.9216 526.833 -8.24701 526.173C-5.57243 525.512 -4.74839 529.725 2.08546 528.023C8.91931 526.322 13.1567 521.072 15.2275 519.794C17.2982 518.515 17.7635 513.915 16.9182 510.935C16.0728 507.955 17.6286 505.149 18.3709 507.625C19.1133 510.1 20.0012 510.395 20.4559 512.771C20.9105 515.148 18.9747 518.646 21.9974 517.989C25.0201 517.332 33.8465 512.178 35.1785 511.649C36.8692 513.368 39.7711 514.025 42.9145 512.178C46.0579 510.331 52.6964 505.451 56.5645 504.918C60.4325 504.385 59.4379 500.89 57.2748 500.791C55.1117 500.691 52.1068 501.189 48.8391 500.691C45.5713 500.194 39.6645 495.545 35.3419 493.463C31.0192 491.382 29.8116 493.169 27.272 493.069C24.7323 492.97 16.1794 488.246 9.98132 485.507C3.78326 482.769 -5.29183 482.666 -5.82816 482.666C-10.0904 478.606 -13.2658 478.208 -16.1677 478.009C-19.0696 477.81 -20.1565 482.467 -19.7196 486.427C-19.2827 490.387 -20.0748 495.637 -20.8065 493.954C-21.5382 492.27 -20.7177 489.794 -21.5169 487.12C-22.3161 484.445 -22.7885 481.177 -22.4262 478.702C-22.0639 476.226 -26.3794 476.876 -30.1338 477.991C-34.5772 479.327 -36.0157 480.719 -40.4592 481.113C-44.9026 481.508 -51.2498 479.888 -52.3367 479.888C-53.4236 479.888 -55.782 480.78 -56.599 483.351C-57.4159 485.923 -59.0498 482.758 -62.0405 482.641C-65.0312 482.523 -73.4669 485.216 -77.2781 488.679C-81.0893 492.142 -90.2461 499.189 -93.0556 500.755C-95.8652 502.322 -98.6783 501.846 -101.307 502.041C-103.935 502.237 -109.018 504.254 -111.103 507.554C-113.188 510.853 -119.272 512.459 -123.534 513.45C-127.797 514.441 -134.801 522.322 -128.454 520.543Z" fill="#939960"/>
<path d="M2.19572 554.276C6.70653 554.247 11.7759 557.659 16.8574 557.989C21.9388 558.318 25.7229 555.754 28.9959 556.006C32.2689 556.259 36.5392 559.133 43.9365 559.462C51.3338 559.791 55.4661 557.256 57.277 555.504C59.0878 553.752 62.1813 554.808 63.8327 558.062C65.4841 561.315 76.894 563.117 77.9837 560.812C79.0735 558.507 79.7613 552.808 79.861 549.55C79.9607 546.293 83.7895 540.219 84.6361 539.851C85.4826 539.483 83.4483 543.485 83.2185 545.302C82.9887 547.118 83.8476 549.205 83.4957 550.816C83.1438 552.428 81.59 555.468 81.1288 558.859C80.6677 562.251 81.7991 561.998 84.9894 563.185C88.1796 564.372 93.2616 564.791 95.3976 565.523C97.5335 566.255 103.397 568.369 110.15 565.129C116.903 561.889 118.388 561.524 121.651 560.65C124.913 559.777 128.656 559.759 129.728 557.334C130.799 554.908 129.442 550.445 129.668 548.024C129.893 545.604 130.511 547.159 131.249 549.218C131.987 551.277 132.49 554.414 132.381 556.23C132.272 558.045 139.619 556.609 141.43 555.994C143.241 555.378 148.66 550.789 150.722 550.051C152.785 549.313 156.401 549.397 158.697 549.027C160.993 548.657 164.361 546.092 168.098 544.497C171.835 542.903 179.009 542.132 183.577 541.677C188.146 541.221 194.792 540.166 196.238 539.091C197.683 538.016 198.272 535.596 195.368 535.374C192.465 535.151 191.861 535.638 188.233 535.42C184.605 535.202 182.53 532.434 177.925 531.132C173.321 529.83 170.556 531.89 170.556 531.89C166.188 529.744 160.245 526.881 156.371 525.943C152.496 525.006 145.688 521.782 144.861 522.512C144.035 523.242 145.302 529.631 143.987 531.696C142.671 533.761 142.785 538.122 143.522 540.053C144.259 541.984 142.458 540.259 141.13 538.697C139.802 537.136 140.651 535.539 141.428 533.659C142.204 531.778 142.422 528.68 141.861 526.037C141.301 523.394 141.41 521.568 139.53 520.973C137.651 520.377 127.967 518.515 124.434 519.294C120.902 520.074 119.647 522.138 117.834 522.42C116.021 522.702 117.279 520.722 113.906 519.192C110.532 517.661 102.195 517.08 99.1124 517.1C96.0295 517.119 87.1358 516.09 85.0543 517.19C82.9729 518.291 82.5613 521.114 79.4044 522.324C76.2474 523.534 75.8443 521.079 69.1597 522.745C62.475 524.412 59.6642 526.977 58.492 528.071C57.3198 529.166 53.6298 533.093 50.7403 535.019C47.8508 536.945 42.6876 537.7 36.7933 538.011C30.8991 538.323 27.3761 540.065 24.3043 541.808C21.2324 543.55 19.2504 545.747 13.7272 547.41C8.20398 549.072 4.85936 549.279 1.59341 550.117C-1.67253 550.955 -5.90954 554.328 2.19572 554.276Z" fill="#939960"/>
<path d="M87.3371 496.229C93.6967 495.083 99.9403 498.206 101.039 496.785C102.137 495.364 104.988 493.506 105.829 493.944C106.67 494.382 105.014 495.932 105.862 497.004C106.71 498.076 115.898 495.564 118.331 495.812C120.765 496.061 121.651 498.316 123.98 498.769C126.31 499.223 132.279 499.757 135.855 496.601C140.461 500.027 147.178 502.233 150.788 502.194C154.398 502.155 159.612 502.697 160.995 503.041C162.378 503.386 164.042 500.011 164.54 496.769C165.039 493.527 164.549 487.778 164.426 486.205C164.303 484.632 166.128 486.669 166.703 490.738C167.277 494.806 167.548 499.367 166.824 501.886C166.099 504.405 166.962 504.523 169.634 506.05C172.306 507.578 180.939 510.355 187.308 509.81C193.677 509.266 194.791 504.341 195.085 502.059C195.378 499.777 196.994 501.707 197.34 504.267C197.686 506.828 206.94 501.811 208.901 499.631C210.862 497.45 211.761 492.049 214.188 490.582C216.616 489.115 223.846 489.16 227.021 488.647C230.195 488.133 233.275 483.828 232.54 481.656C238.729 481.205 241.126 479.774 243.86 477.825C246.594 475.876 247.831 472.499 254.088 471.374C260.344 470.25 265.293 468.788 266.477 467.718C267.66 466.649 269.456 463.368 264.758 463.778C260.06 464.189 255.857 465.055 251.986 463.797C247.916 462.485 246.139 462.124 241.125 461.608C236.052 461.085 233.923 463.87 233.923 463.87C228.231 460.695 228.122 459.576 223.497 458.387C218.872 457.197 218.007 458.288 218.034 460.717C218.06 463.147 216.935 469.629 216.394 471.255C215.853 472.881 214.946 477.293 215.44 478.816C215.934 480.339 213.347 476.863 213.084 474.527C212.822 472.192 214.722 471.273 215.335 469.107C215.948 466.942 215.886 462.357 215.317 459.951C214.748 457.545 213.957 457.123 211.312 456.966C208.667 456.808 202.897 457.948 200.651 457.081C198.404 456.214 195.9 454.121 193.276 453.826C190.652 453.53 183.269 455.847 181.791 459.459C180.314 463.07 176.401 459.637 171.527 459.059C167.44 458.575 162.043 458.084 159.268 459.192C156.493 460.3 140.979 462.627 137.253 464.379C133.528 466.131 134.319 469.732 128.764 470.243C123.208 470.754 125.983 468.474 118.159 470.71C115.222 471.545 110.86 476.446 107.275 476.485C103.69 476.523 98.0081 478.864 95.8142 482.304C93.6204 485.744 87.1417 490.582 83.1739 492.154C79.2061 493.725 81.2298 497.331 87.3371 496.229Z" fill="#939960"/>
<path d="M-45.6633 446.786C-36.7835 447.937 -32.4715 455.666 -21.0451 456.398C-9.61864 457.13 -12.4566 452.601 -8.28313 453.51C-4.10965 454.42 -4.4897 456.764 6.7556 460.39C18.0009 464.017 23.0943 464.56 26.7066 465.107C30.3189 465.654 32.3293 460.028 32.3293 455.673C32.3293 451.319 32.45 449.99 32.8123 448.548C33.1746 447.106 34.2615 448.193 35.1104 452.295C35.9593 456.398 36.4388 456.703 36.318 459.726C36.1973 462.749 33.8672 465.633 34.02 467.462C34.1727 469.291 39.703 470.588 43.4751 471.469C47.2472 472.349 50.1029 475.987 62.254 472.722C74.405 469.458 72.0501 463.836 74.778 461.836C77.5058 459.836 78.2233 464.919 85.4763 463.47C92.7292 462.021 95.4465 456.764 100.707 453.496C105.967 450.228 114.492 451.322 117.401 450.594C120.31 449.866 126.28 445.881 132.084 444.432C137.888 442.982 152.209 441.682 156.752 440.88C161.295 440.077 159.668 436.617 153.122 436.994C146.576 437.37 140.548 435.541 136.677 434.092C132.805 432.643 124.103 428.054 119.983 427.319C115.863 426.583 111.64 427.674 110.67 430.824C102.216 429.514 97.0199 423.571 92.6653 422.119C88.3107 420.666 82.3861 419.568 80.8162 421.515C79.2463 423.461 78.6389 427.077 78.6389 430.341C78.6389 433.605 79.8465 435.016 78.3974 435.378C76.9482 435.74 76.0993 433.726 75.9785 429.858C75.8577 425.99 76.4616 421.366 76.4616 420.474C76.4616 419.583 71.5067 417.633 67.9974 417.043C64.4881 416.453 51.918 415.228 48.1672 415.349C44.4164 415.469 44.1784 417.647 41.3901 418.503C38.6019 419.359 38.6943 415.892 35.2241 413.424C31.7539 410.955 26.3088 411.399 18.9812 417.128C11.6537 422.857 9.71788 423.934 4.51791 425.141C-0.682072 426.349 -3.34244 426.111 -7.45198 427.681C-11.5615 429.251 -13.4902 432.277 -15.5539 434.334C-17.6175 436.39 -30.7879 440.279 -42.3991 440.933C-54.0102 441.587 -52.5895 445.891 -45.6633 446.786Z" fill="#939960"/>
<path d="M122.04 587.68C128.156 587.836 134.916 590.401 138.908 592.94C142.9 595.48 151.421 595.661 155.602 594.393C159.782 593.125 164.308 590.401 165.938 591.31C167.568 592.219 167.028 593.846 169.749 594.212C172.47 594.578 178.231 591.331 184.802 591.42C191.373 591.509 200.885 595.842 204.874 596.325C208.863 596.808 213.096 594.876 213.096 594.876C213.86 597.362 218.119 599.557 223.709 599.937C229.3 600.318 233.364 601.284 238.08 603.582C242.797 605.88 253.847 601.646 255.304 598.524C256.76 595.402 257.435 593.31 259.722 594.123C262.01 594.936 264.446 594.702 268.545 592.94C274.406 590.422 278.341 586.192 283.758 583.705C289.59 581.024 294.307 578.377 299.265 577.88C304.224 577.383 316.35 576.942 315.022 574.147C313.693 571.352 309.058 571.97 305.787 571.714C302.515 571.458 298.306 569.519 294.382 568.286C290.457 567.054 285.374 565.683 283.289 565.772C281.204 565.861 281.382 567.313 281.566 569.128C281.751 570.943 281.019 574.943 279.57 575.344C278.121 575.745 279.925 573.664 279.57 571.394C279.215 569.125 279.02 565.953 278.029 564.504C277.038 563.055 274.946 562.6 271.863 562.145C268.779 561.691 262.684 560.54 258.895 557.883C255.105 555.226 249.23 554.867 246.552 555.294C242.289 551.387 235.591 549.255 232.838 550.147C230.085 551.038 228.657 553.028 226.313 553.752C223.969 554.477 224.647 553.209 218.595 554.207C212.542 555.205 214.538 559.105 215.085 561.282C215.632 563.459 212.599 569.412 212.546 574.929C212.5 578.924 210.912 579.191 210.369 577.06C209.825 574.929 209.189 571.27 210.55 569.274C211.91 567.278 212.365 566.01 212.184 564.379C212.002 562.749 211.455 559.076 210.55 557.872C209.644 556.668 206.401 558.654 204.38 559.293C202.359 559.932 196.676 561.016 192.684 561.559C188.691 562.103 189.132 564.372 188.24 565.005C187.349 565.637 181.165 567.985 178.174 567.946C175.183 567.906 168.939 569.814 166.293 571.625C163.647 573.437 160.852 577.884 155.14 578.608C149.429 579.333 146.797 578.882 139.359 579.606C131.921 580.331 125.862 583.325 122.04 584.142C118.218 584.959 118.52 587.591 122.04 587.68Z" fill="#939960"/>
<path d="M161.677 689.046C169.33 687.711 172.315 688.684 178.593 690.61C184.871 692.536 185.181 695.219 190.548 696.93C192.266 697.485 194.719 697.332 199.006 698.168C203.292 699.005 207.163 705.761 211.638 707.605C216.113 709.448 224.294 709.58 227.047 711.231C229.8 712.882 231.399 711.366 233.57 706.677C235.74 701.989 232.689 692.037 233.139 688.078C233.59 684.118 236.356 676.274 238.092 675.403C239.828 674.532 237.73 680.643 237.405 682.476C237.079 684.31 238.707 687.506 238.615 688.833C238.522 690.161 236.707 691.458 237.001 696.071C237.254 699.898 237.038 709.025 235.947 712.027C234.664 715.561 237.276 716.002 240.606 717.906C242.724 719.122 248.116 721.846 253.414 721.628C258.711 721.411 266.461 716.043 268.15 714.559C269.839 713.075 273.332 708.123 275.951 707.752C278.569 707.38 278.888 711.683 285.618 710.725C292.347 709.767 296.988 704.978 299.116 703.925C301.245 702.872 302.212 698.323 301.743 695.252C301.274 692.181 303.08 689.544 303.505 692.1C303.929 694.655 304.751 695.047 304.913 697.472C305.074 699.897 302.829 703.185 305.796 702.857C308.764 702.529 317.784 698.335 319.114 697.95C320.538 699.853 323.238 700.826 326.453 699.321C329.668 697.816 336.581 693.637 340.34 693.547C344.099 693.456 343.542 689.832 341.472 689.496C339.401 689.159 336.486 689.332 333.422 688.48C330.358 687.628 325.233 682.336 321.341 679.786C317.449 677.235 316.085 678.889 313.668 678.514C311.252 678.138 303.616 672.486 298.002 669.074C292.389 665.662 283.725 664.573 283.209 664.514C279.596 659.992 276.609 659.249 273.858 658.735C271.106 658.221 269.534 662.758 269.505 666.766C269.476 670.773 268.119 675.936 267.607 674.172C267.096 672.409 268.168 670.024 267.705 667.262C267.242 664.501 267.168 661.183 267.796 658.747C268.424 656.311 264.225 656.492 260.509 657.199C256.109 658.052 254.576 659.287 250.283 659.199C245.991 659.11 240.107 656.801 239.065 656.682C238.023 656.564 235.67 657.199 234.597 659.681C233.524 662.164 232.325 658.822 229.476 658.38C226.627 657.937 218.26 659.712 214.226 662.761C210.193 665.81 200.635 671.86 197.771 673.121C194.907 674.381 192.24 673.639 189.694 673.555C187.148 673.47 182.075 674.93 179.706 678.002C177.338 681.075 171.339 682.019 167.152 682.546C162.965 683.074 155.407 690.135 161.677 689.046Z" fill="#939960"/>
<path d="M938.947 121.803C946.6 120.468 949.584 121.44 955.862 123.367C962.14 125.293 962.451 127.975 967.818 129.686C969.536 130.242 971.988 130.089 976.275 130.925C980.562 131.761 984.433 138.518 988.908 140.362C993.383 142.205 1001.56 142.337 1004.32 143.988C1007.07 145.639 1008.67 144.123 1010.84 139.434C1013.01 134.746 1009.96 124.794 1010.41 120.834C1010.86 116.875 1013.63 109.031 1015.36 108.16C1017.1 107.289 1015 113.399 1014.67 115.233C1014.35 117.066 1015.98 120.262 1015.88 121.59C1015.79 122.918 1013.98 124.215 1014.27 128.828C1014.52 132.655 1014.31 141.782 1013.22 144.784C1011.93 148.318 1014.55 148.759 1017.88 150.663C1019.99 151.878 1025.39 154.603 1030.68 154.385C1035.98 154.167 1043.73 148.8 1045.42 147.316C1047.11 145.832 1050.6 140.88 1053.22 140.508C1055.84 140.137 1056.16 144.44 1062.89 143.482C1069.62 142.524 1074.26 137.735 1076.39 136.682C1078.51 135.629 1079.48 131.08 1079.01 128.009C1078.54 124.937 1080.35 122.301 1080.77 124.857C1081.2 127.412 1082.02 127.804 1082.18 130.229C1082.34 132.654 1080.1 135.942 1083.07 135.614C1086.03 135.286 1095.05 131.092 1096.38 130.707C1097.81 132.61 1100.51 133.582 1103.72 132.077C1106.94 130.572 1113.85 126.394 1117.61 126.304C1121.37 126.213 1120.81 122.588 1118.74 122.252C1116.67 121.916 1113.76 122.088 1110.69 121.236C1107.63 120.384 1102.5 115.093 1098.61 112.542C1094.72 109.992 1093.35 111.646 1090.94 111.271C1088.52 110.895 1080.89 105.243 1075.27 101.831C1069.66 98.4192 1060.99 97.3298 1060.48 97.2712C1056.87 92.7487 1053.88 92.0062 1051.13 91.4919C1048.38 90.9776 1046.8 95.5149 1046.77 99.5225C1046.75 103.53 1045.39 108.692 1044.88 106.929C1044.37 105.166 1045.44 102.781 1044.97 100.019C1044.51 97.2579 1044.44 93.9401 1045.07 91.5042C1045.69 89.0683 1041.49 89.2491 1037.78 89.9562C1033.38 90.8085 1031.85 92.0443 1027.55 91.9555C1023.26 91.8667 1017.38 89.5574 1016.33 89.4389C1015.29 89.3204 1012.94 89.9558 1011.87 92.4381C1010.79 94.9205 1009.59 91.5791 1006.75 91.1364C1003.9 90.6938 995.529 92.4692 991.496 95.5178C987.462 98.5665 977.904 104.617 975.04 105.877C972.177 107.138 969.51 106.396 966.964 106.312C964.418 106.227 959.344 107.686 956.976 110.759C954.608 113.831 948.609 114.775 944.422 115.303C940.234 115.83 932.677 122.892 938.947 121.803Z" fill="#939960"/>
<path d="M1148.46 613.988C1157.34 615.139 1161.65 622.868 1173.07 623.599C1184.5 624.331 1181.66 619.806 1185.84 620.712C1190.01 621.617 1189.63 623.965 1200.87 627.592C1212.12 631.218 1217.21 631.765 1220.83 632.308C1224.44 632.852 1226.45 627.229 1226.45 622.878C1226.45 618.527 1226.57 617.195 1226.93 615.75C1227.29 614.304 1228.38 615.394 1229.23 619.497C1230.08 623.599 1230.56 623.905 1230.44 626.927C1230.32 629.95 1227.99 632.834 1228.14 634.667C1228.29 636.5 1233.82 637.789 1237.59 638.67C1241.37 639.551 1244.22 643.191 1256.37 639.927C1268.52 636.663 1266.17 631.048 1268.89 629.044C1271.61 627.041 1272.34 632.127 1279.59 630.675C1286.84 629.222 1289.57 623.965 1294.83 620.701C1300.09 617.437 1308.61 618.524 1311.52 617.799C1314.43 617.074 1320.4 613.082 1326.21 611.633C1332.02 610.184 1346.34 608.887 1350.88 608.081C1355.41 607.275 1353.78 603.819 1347.25 604.195C1340.72 604.572 1334.67 602.742 1330.8 601.293C1326.93 599.844 1318.23 595.255 1314.11 594.523C1309.99 593.792 1305.77 594.879 1304.8 598.029C1296.33 596.697 1291.14 590.773 1286.78 589.323C1282.43 587.874 1276.5 586.784 1274.93 588.716C1273.36 590.648 1272.75 594.278 1272.75 597.546C1272.75 600.814 1273.96 602.217 1272.51 602.579C1271.06 602.941 1270.21 600.931 1270.09 597.059C1269.97 593.188 1270.58 588.567 1270.58 587.675C1270.58 586.784 1265.62 584.834 1262.11 584.244C1258.6 583.655 1246.03 582.429 1242.28 582.55C1238.53 582.671 1238.29 584.848 1235.51 585.693C1232.73 586.539 1232.82 583.083 1229.35 580.618C1225.88 578.153 1220.42 578.611 1213.1 584.329C1205.77 590.048 1203.83 591.135 1198.63 592.346C1193.43 593.557 1190.77 593.312 1186.66 594.886C1182.55 596.459 1180.63 599.478 1178.56 601.535C1176.5 603.591 1163.33 607.484 1151.72 608.138C1140.11 608.791 1141.53 613.075 1148.46 613.988Z" fill="#939960"/>
<path d="M1254.47 429.699C1261.67 428.499 1275.28 417.545 1277.75 417.545C1280.22 417.545 1285.99 417.339 1290.73 415.058C1295.47 412.778 1299.17 409.908 1303.7 408.466C1308.24 407.024 1325.33 401.465 1329.04 402.073C1332.75 402.68 1333.16 403.717 1336.85 403.717C1340.55 403.717 1343.25 402.893 1346.74 404.747C1350.23 406.601 1354.77 408.249 1359.3 406.395C1363.84 404.541 1370.63 402.389 1375.37 402.023C1380.1 401.657 1387.11 399.917 1393.91 402.023C1400.71 404.129 1407.09 408.661 1412.24 408.661C1417.39 408.661 1424.4 413.989 1431.81 415.335C1439.22 416.682 1448.7 422.052 1453.44 423.505C1458.18 424.957 1449.73 424.947 1445.41 425.771C1441.08 426.595 1438.2 429.479 1431.81 431.33C1425.42 433.18 1416.36 434.008 1409.79 436.892C1403.21 439.776 1390.63 446.574 1387.77 446.368C1384.9 446.162 1382.41 436.48 1380.56 434.42C1378.7 432.36 1380.76 435.656 1380.97 438.952C1381.17 442.248 1385.09 447.192 1379.73 448.016C1374.37 448.84 1366.14 451.107 1361.62 451.923C1357.09 452.74 1351.93 457.482 1350.9 451.923C1349.87 446.365 1352.76 446.155 1350.49 438.739C1348.23 431.322 1345.96 427.018 1346.38 424.116C1346.79 421.214 1342.82 426.176 1343.67 429.678C1344.52 433.18 1348.64 438.739 1346.58 441.417C1344.51 444.095 1351.32 453.778 1342.26 451.923C1333.19 450.069 1329.28 448.627 1321.04 445.743C1312.8 442.859 1297.76 436.885 1287.46 435.855C1277.17 434.825 1274.9 436.679 1268.1 436.061C1261.3 435.443 1248.53 433.383 1248.53 431.528C1248.53 429.674 1249.55 430.52 1254.47 429.699Z" fill="#939960"/>
<path d="M1156.47 326.395C1159.09 326.981 1186.23 332.38 1190.59 332.38C1194.94 332.38 1203.21 336.667 1204.37 338.12C1205.53 339.572 1215.67 342.169 1219.91 343.259C1224.14 344.35 1234.18 343.97 1235.63 344.225C1237.07 344.481 1236.6 339.878 1236.23 336.614C1235.87 333.35 1240.83 329.84 1242.76 325.368C1244.7 320.897 1242.64 329.84 1241.55 331.535C1240.46 333.229 1238.17 334.195 1239.26 337.097C1240.35 339.999 1240.22 342.869 1240.22 343.764C1240.22 344.659 1248.44 344.95 1254.01 345.54C1259.57 346.129 1263.92 347.6 1267.67 345.298C1270.54 343.522 1278.31 347.113 1285.32 346.63C1292.34 346.147 1292.7 343.078 1303.58 339.984C1314.46 336.891 1323.35 336.72 1329.51 333.09C1335.67 329.46 1346.56 327.649 1351.09 327.83C1355.63 328.011 1369.78 323.841 1373.4 321.483C1377.03 319.124 1375.63 317.448 1365.42 317.675C1354.55 317.927 1346.65 306.916 1337.57 306.788C1334.85 306.749 1321.79 307.499 1318.71 306.788C1315.63 306.078 1300.3 301.965 1297.04 301.603C1293.79 301.24 1292.6 309.872 1292.78 312.408C1292.96 314.944 1292.69 320.683 1290.41 322.41C1288.13 324.136 1290.39 320.872 1290.41 317.97C1290.43 315.068 1290.05 313.86 1289.21 312.045C1288.37 310.23 1290.15 305.169 1289.92 302.991C1289.7 300.814 1291.26 300.818 1284.6 301.18C1277.94 301.542 1269.6 302.267 1266.1 301.89C1262.59 301.514 1258.96 301.407 1256.78 303.464C1254.61 305.52 1255.21 306.97 1251.34 306.121C1247.47 305.272 1242.2 303.517 1229.87 305.574C1224.18 306.518 1223.52 308.657 1217.11 309.261C1210.7 309.864 1208.47 309.776 1202.69 310.987C1196.91 312.198 1192.8 315.959 1185.16 316.563C1180.19 316.961 1170.63 321.362 1159.99 321.603C1154.78 321.738 1149.22 324.761 1156.47 326.395Z" fill="#939960"/>
<path d="M1132.01 303.519C1139.41 302.808 1150.51 301.966 1155.41 300.24C1160.3 298.514 1169.01 295.747 1170.28 294.884C1171.55 294.021 1169.73 284.637 1170.28 281.873C1170.82 279.11 1175.18 274.39 1176.99 273.928C1178.81 273.466 1175.54 276.691 1174.57 278.879C1173.61 281.067 1173.48 282.218 1174.09 283.717C1174.7 285.216 1173.48 286.271 1173.97 289.542C1174.45 292.813 1173.85 295.58 1179.77 292.696C1185.7 289.812 1197.42 289.144 1200.57 288.789C1203.71 288.434 1211.69 287.752 1211.58 284.644C1211.47 281.536 1214.36 280.961 1214.36 282.687C1214.36 284.413 1213.76 286.026 1217.14 285.219C1220.53 284.413 1228.27 281.419 1231.77 281.312C1235.28 281.206 1239.63 283.269 1242.29 281.888C1244.95 280.506 1252.21 279.813 1258.37 279.93C1264.54 280.048 1271.79 280.044 1272.16 278.318C1272.52 276.592 1266.47 275.555 1263.21 275.437C1259.94 275.32 1254.74 272.447 1248.7 270.717C1242.65 268.987 1235.52 269.222 1233.34 268.76C1231.16 268.298 1229.35 270.603 1228.63 272.447C1227.9 274.29 1226.57 277.625 1225.73 277.064C1224.88 276.503 1226.08 273.843 1226.33 270.617C1226.58 267.392 1227.04 266.934 1222.58 266C1218.12 265.066 1213.64 265.886 1207.22 264.963C1200.81 264.039 1195.61 260.811 1191.39 259.997C1187.16 259.184 1179.78 257.003 1175.67 257.578C1171.55 258.154 1162.97 254.698 1158.97 254.122C1154.97 253.547 1146.28 255.046 1144.22 257.578C1142.16 260.111 1140.84 262.299 1139.88 263.105C1138.93 263.911 1139.03 262.068 1139.4 259.553C1139.76 257.039 1140.61 256.79 1136.74 256.673C1132.87 256.555 1127.55 258.978 1124.77 259.436C1121.99 259.894 1116.8 258.498 1114.48 258.498C1112.16 258.498 1102.62 262.299 1100.1 264.142C1097.58 265.986 1097.44 271.509 1098.17 273.697C1098.89 275.885 1098.97 285.098 1097.78 285.773C1096.59 286.448 1097.42 283.703 1097.32 282.09C1097.27 280.844 1096.89 279.634 1096.23 278.577C1095.63 277.54 1096.65 274.574 1095.11 272.244C1094.4 271.154 1094.91 265.449 1094.05 264.931C1093.19 264.412 1093.8 263.322 1086.55 265.51C1079.3 267.698 1080.51 268.387 1076.51 269.655C1072.51 270.923 1073.49 270.344 1069.98 271.037C1066.48 271.729 1063.79 275.785 1060.64 276.936C1057.5 278.087 1044.81 277.743 1040.69 278.549C1036.58 279.355 1033.43 284.09 1029.06 284.896C1024.7 285.702 1017.7 286.391 1014.8 286.161C1011.89 285.93 1004.28 285.805 1004.03 287.542C1003.79 289.279 1004.76 291.094 1009.01 291.804C1013.25 292.515 1020.86 291.691 1022.07 293.073C1023.28 294.454 1021.86 296.525 1024.38 296.525C1026.9 296.525 1029.92 295.719 1033.92 296.756C1037.91 297.793 1041.29 301.245 1044.31 302.169C1047.34 303.092 1057.1 300.439 1059.88 300.727C1062.66 301.015 1063.15 297.59 1063.21 295.921C1063.27 294.252 1065.17 294.106 1065.84 291.229C1066.5 288.352 1065.29 285.933 1065.96 285.645C1066.62 285.358 1067.14 287.688 1067.5 289.876C1067.86 292.064 1067.85 293.428 1067.14 294.138C1066.42 294.849 1065.81 295.665 1065.33 296.557C1064.73 297.594 1065.03 300.791 1064.91 301.593C1064.79 302.396 1068.78 301.593 1071.8 302.055C1074.82 302.517 1078.45 304.272 1082.81 303.323C1087.17 302.375 1090.73 298.706 1091.28 299.771C1091.82 300.837 1092.61 303.444 1093.7 303.618C1094.79 303.792 1100.29 303.686 1102.64 302.553C1105 301.419 1110.17 299.903 1113.26 300.421C1116.34 300.94 1124.66 304.211 1132.01 303.519Z" fill="#939960"/>
<path d="M1106.46 227.739C1111.1 228.494 1121.91 228.221 1123.72 227.345C1125.53 226.469 1130.5 223.03 1131.27 224.298C1132.04 225.567 1131.93 226.968 1134.7 227.182C1137.48 227.397 1148.32 226.655 1152.1 227.297C1155.89 227.938 1157.87 227.065 1159.51 223.806C1161.16 220.547 1163.05 216.371 1163.65 217.63C1164.24 218.889 1162.48 221.515 1162.36 223.064C1162.24 224.613 1161.39 228.408 1161.42 229.241C1161.46 230.074 1168.38 231.012 1170.08 231.445C1171.78 231.878 1175.61 232.131 1177.41 232.531C1179.2 232.931 1181.62 234.327 1183.77 235.791C1185.92 237.254 1192.55 236.904 1194.29 236.69C1196.03 236.476 1202.42 234.813 1202.96 236.816C1203.5 238.818 1206.55 241.358 1209.33 242.958C1212.11 244.558 1220.06 243.711 1223.95 242.973C1227.84 242.234 1230.6 239.569 1230.69 238.414C1230.78 237.259 1230.05 234.75 1230.21 232.572C1230.38 230.393 1231.3 223.254 1231.09 221.226C1230.72 217.719 1233.04 220.78 1232.86 223.073C1232.68 225.366 1234.09 229.01 1234.14 229.821C1234.19 230.631 1232.72 231.672 1233.26 233.675C1233.8 235.678 1233.38 238.087 1235.35 238.239C1237.31 238.391 1240.6 237.783 1242.82 236.108C1245.04 234.434 1248.49 233.32 1255.36 233.871C1259.03 234.156 1260.79 228.873 1261.37 228.803C1264.34 230.245 1267.03 231.49 1271.79 230.646C1276.56 229.802 1282.98 226.673 1285.93 226.379C1288.88 226.086 1297.56 227.279 1302.06 227.109C1306.55 226.939 1306.74 225.456 1303.65 224.09C1300.57 222.723 1293.28 220.509 1289.19 217.703C1285.1 214.897 1281.28 214.72 1279.55 214.471C1277.82 214.222 1278.89 211.534 1274.07 209.41C1269.25 207.286 1253.22 205.205 1250.05 204.147C1246.89 203.089 1240.94 201.765 1238.17 201.73C1235.4 201.695 1231.26 202.889 1229.29 202.736C1227.32 202.583 1225.99 201.312 1221.98 200.954C1217.97 200.596 1213.48 200.729 1211.18 199.999C1208.89 199.269 1208.57 200.291 1208.04 201.72C1207.51 203.149 1206.38 205.568 1205.94 207.695C1205.5 209.822 1206.22 212.821 1205.37 212.755C1204.52 212.689 1204.31 209.561 1204.27 207.827C1204.23 206.093 1204.08 204.699 1204.19 203.322C1204.29 201.945 1205.94 201.988 1206.34 200.292C1206.73 198.595 1206.75 198.6 1203.81 197.668C1200.88 196.736 1198.54 195.362 1195.1 193.799C1191.67 192.236 1187.64 193.363 1185.98 193.936C1182.88 195.024 1180.34 200.764 1175.5 200.39C1171.86 200.108 1166.31 203.665 1165.17 204.894C1162.7 207.558 1151.83 205.189 1148.34 206.474C1144.85 207.758 1143.58 211.382 1143.58 211.382C1138.76 211.957 1135.25 212.867 1132.9 213.983C1130.55 215.098 1125.42 218.064 1120.76 218.655C1116.09 219.245 1110.21 220.663 1107.02 220.761C1103.82 220.859 1098.75 223.769 1100.65 225.129C1102.55 226.488 1102.42 227.081 1106.46 227.739Z" fill="#939960"/>
<path d="M989.409 181.814C995.515 182.21 1002.17 185.037 1006.06 187.732C1009.94 190.426 1018.46 190.941 1022.68 189.838C1026.91 188.735 1031.54 186.19 1033.13 187.163C1034.73 188.135 1034.12 189.74 1036.83 190.212C1039.53 190.684 1045.41 187.666 1051.98 188.013C1058.54 188.359 1067.87 193.062 1071.84 193.701C1075.81 194.34 1080.11 192.576 1080.11 192.576C1080.78 195.09 1084.95 197.451 1090.52 198.05C1096.09 198.649 1100.12 199.774 1104.74 202.255C1109.36 204.736 1120.58 200.939 1122.16 197.877C1123.73 194.814 1124.49 192.75 1126.74 193.653C1129 194.555 1131.43 194.434 1135.6 192.82C1141.55 190.533 1145.65 186.461 1151.16 184.189C1157.1 181.738 1161.91 179.279 1166.88 178.976C1171.85 178.674 1183.99 178.71 1182.77 175.864C1181.55 173.019 1176.9 173.455 1173.64 173.071C1170.38 172.687 1166.26 170.563 1162.38 169.181C1158.5 167.799 1153.48 166.226 1151.4 166.233C1149.31 166.24 1149.43 167.699 1149.54 169.519C1149.65 171.34 1148.77 175.308 1147.31 175.652C1145.84 175.996 1147.73 173.987 1147.46 171.706C1147.2 169.424 1147.13 166.258 1146.21 164.76C1145.28 163.263 1143.2 162.737 1140.14 162.162C1137.07 161.587 1131.03 160.198 1127.35 157.394C1123.66 154.591 1117.78 154.015 1115.1 154.336C1110.99 150.265 1104.38 147.873 1101.59 148.655C1098.81 149.438 1097.3 151.37 1094.94 152.002C1092.57 152.634 1093.29 151.394 1087.21 152.154C1081.12 152.914 1082.96 156.889 1083.42 159.086C1083.88 161.283 1080.62 167.112 1080.35 172.622C1080.15 176.613 1078.55 176.817 1078.09 174.666C1077.62 172.515 1077.14 168.835 1078.57 166.894C1080.01 164.952 1080.51 163.703 1080.4 162.067C1080.28 160.431 1079.9 156.74 1079.02 155.501C1078.14 154.261 1074.84 156.119 1072.8 156.678C1070.75 157.238 1065.03 158.098 1061.03 158.484C1057.02 158.871 1057.37 161.156 1056.45 161.753C1055.54 162.349 1049.26 164.453 1046.27 164.296C1043.29 164.14 1036.97 165.801 1034.26 167.507C1031.55 169.214 1028.58 173.547 1022.84 174.047C1017.1 174.547 1014.49 173.993 1007.04 174.426C999.579 174.858 993.403 177.612 989.548 178.279C985.694 178.945 985.878 181.586 989.409 181.814Z" fill="#939960"/>
<path d="M1214.97 557.173C1217.93 554.182 1220.3 552.91 1224.69 551.287C1228.41 549.909 1230.52 543.899 1232.69 542.436C1234.87 540.973 1238.92 540.06 1240.62 541.75C1243.07 537.456 1244.18 535.503 1251.62 534.853C1259.06 534.203 1261.41 532.395 1266.62 530.427C1271.84 528.459 1276.17 527.433 1279.34 527.305C1282.52 527.177 1282.21 532.508 1282.31 535.243C1282.4 537.978 1280.57 545.388 1280.57 549.344C1280.57 553.301 1281.85 553.887 1281.85 551.642C1281.85 549.398 1282.49 544.873 1283.5 542.692C1284.5 540.511 1285.15 539.051 1284.41 536.707C1283.68 534.362 1284.95 529.191 1284.73 526.946C1284.5 524.701 1290.7 521.579 1294.86 521.448C1299.01 521.316 1302.92 523.011 1305 526.264C1307.07 529.518 1309.15 528.214 1309.88 526.655C1310.61 525.096 1313.43 525.611 1316.6 528.605C1319.77 531.599 1324.17 531.517 1328.81 531.091C1333.46 530.665 1338.46 530.026 1343.23 532.629C1347.99 535.233 1352.75 539.268 1357.27 539.136C1361.79 539.005 1368.28 538.096 1375.47 540.308C1382.66 542.521 1386.1 547.291 1393.31 548.638C1403.08 550.46 1404.07 553.145 1397.46 553.454C1390.85 553.763 1384.67 557.844 1381.34 559.616C1378 561.389 1373.38 558.448 1373.38 558.448C1372.41 562.87 1368.73 562.824 1363.92 563.996C1359.1 565.168 1353.97 563.996 1350.8 565.946C1347.63 567.896 1343.75 570.766 1339.43 571.629C1335.12 572.492 1333.89 572.624 1332.69 569.011C1331.49 565.399 1333.6 555.159 1333.42 552.03C1333.24 548.9 1332.1 550.403 1331.92 551.834C1331.74 553.266 1330.58 557.105 1329.97 559.187C1329.35 561.268 1329.2 564.426 1329.94 567.743C1330.67 571.061 1331.87 572.56 1327.7 573.959C1323.53 575.358 1320.32 577.017 1312.62 577.308C1304.92 577.6 1303.74 575.532 1302.45 573.11C1301.16 570.688 1300.68 571.689 1299.52 572.819C1298.37 573.948 1287.89 575.454 1282.39 573.884C1276.9 572.314 1273.23 567.637 1270.06 566.727C1266.88 565.818 1263.09 568.418 1254.18 567.832C1245.26 567.246 1242.94 563.215 1234.51 561.52C1226.09 559.826 1221.26 560.291 1218.21 560.611C1211.98 561.272 1213.75 558.409 1214.97 557.173Z" fill="#939960"/>
<path d="M1046.15 518.703C1052.27 518.554 1060.71 514.235 1065.65 513.585C1070.58 512.935 1073.23 513.535 1079.04 511.845C1084.84 510.154 1084.36 506.517 1089.8 504.226C1095.23 501.935 1097.18 504.709 1098.02 506.886C1098.87 509.064 1098.9 510.392 1099.25 512.214C1099.59 514.036 1102.06 513.212 1101.46 510.673C1100.86 508.133 1099.63 504.776 1099.25 503.37C1098.87 501.963 1102.04 500.425 1104.31 500.241C1106.57 500.056 1112.93 500.12 1115.92 499.154C1118.9 498.188 1122.11 493.222 1128.75 493.023C1135.39 492.824 1140.7 495.89 1142.4 496.856C1144.09 497.822 1149.41 498.791 1151.23 498.188C1153.04 497.584 1157.62 495.186 1160.71 496.202C1161.63 496.521 1162.47 497.036 1163.17 497.71C1163.87 498.385 1164.42 499.203 1164.77 500.109C1168.52 498.298 1171.66 498.177 1175.04 499.022C1178.43 499.868 1178.19 503.011 1177.7 505.671C1177.22 508.332 1175.86 512.385 1176.77 516.373C1177.67 520.362 1178.58 516.192 1178.4 514.377C1178.22 512.562 1178.13 510.41 1179.04 508.314C1179.98 506.101 1180.77 503.825 1181.39 501.502C1181.85 499.687 1183.84 500.866 1187.01 501.502C1190.19 502.137 1196.71 503.157 1201.77 501.079C1206.83 499.001 1214.7 498.177 1218.58 499.143C1222.45 500.109 1229.27 500.415 1232.72 499.324C1236.17 498.234 1240.69 497.513 1247.5 498.614C1254.3 499.715 1262.1 502.784 1262.1 504.418C1262.1 506.052 1261.11 506.321 1256.57 505.686C1252.04 505.05 1249.68 504.975 1246.96 505.867C1244.24 506.758 1243.05 510.04 1239.61 510.946C1236.18 511.852 1232.97 511.49 1231.51 510.765C1230.18 514.636 1226.18 517.418 1220.27 517.78C1214.35 518.142 1212.63 519.971 1211.68 521.769C1210.74 523.566 1208.18 530.474 1202.49 533.135C1196.81 535.795 1191.13 538.107 1185.09 537.244C1179.05 536.381 1177.83 533.98 1175.41 534.101C1172.99 534.222 1174.79 536.15 1172.39 537.425C1169.99 538.701 1163.69 538.69 1154.92 537.425C1146.15 536.161 1143.86 536.612 1143.95 532.62C1144.04 528.627 1144.76 526.816 1144.76 523.644C1144.76 520.472 1144.49 516.299 1143.59 517.478C1142.68 518.657 1143.01 520.675 1142.29 521.829C1141.56 522.983 1142.29 523.221 1142.53 524.972C1142.77 526.724 1142.1 529.81 1141.86 531.199C1141.62 532.588 1141.92 535.071 1142.1 536.097C1142.29 537.124 1141.01 537.912 1136.72 537.124C1132.43 536.335 1119.46 533.437 1115.2 531.44C1110.94 529.444 1110.12 532.151 1106.4 533.074C1102.69 533.998 1093.16 532.257 1090.17 530.989C1087.17 529.721 1076.84 526.372 1071.76 526.272C1066.68 526.173 1063.87 525.456 1060.97 526.816C1058.07 528.176 1058.58 528.592 1051.32 526.969C1044.07 525.345 1039.49 523.488 1036.2 522.735C1032.74 521.939 1038.71 518.888 1046.15 518.703Z" fill="#939960"/>
<path d="M992.189 584.159C992.035 586.541 992.828 587.588 1000.64 587.732C1008.44 587.877 1014.3 589.891 1021.1 592.967C1027.9 596.042 1028.88 599.647 1041.24 599.845C1053.6 600.043 1056.59 596.694 1061.28 595.657C1065.96 594.62 1063.32 584.351 1063.21 580.541C1063.11 576.731 1064.99 572.511 1066.07 572.207C1067.14 571.903 1065.45 575.582 1066.26 579.187C1067.07 582.793 1068.35 587.756 1067.76 592.207C1067.17 596.658 1067.79 596.019 1073.06 595.691C1078.32 595.363 1089.06 596.09 1093.29 598.452C1097.53 600.813 1105.82 605.453 1118.98 604.464C1132.14 603.475 1131.27 594.246 1131.27 594.246C1136.76 595.905 1141.65 595.264 1142.83 592.037C1144 588.809 1141.93 579.625 1139.67 576.775C1137.41 573.924 1141.29 576.488 1142.89 579.346C1144.51 582.435 1145.49 585.823 1145.77 589.304C1145.98 592.443 1149.16 591.341 1152.29 589.001C1155.42 586.66 1159.47 581.786 1163.31 580.709C1167.15 579.631 1172.86 580.563 1179.96 578.794C1187.05 577.025 1190.02 570.77 1197.48 569.475C1204.95 568.179 1205.43 563.923 1198.65 563.757C1191.87 563.591 1187.18 564.319 1182.91 562.985C1178.64 561.651 1171.28 558.111 1166.05 557.287C1160.81 556.463 1156.72 556.944 1155.48 560.485C1144.2 559.472 1135.77 556.132 1128.83 555.217C1121.89 554.303 1120.14 555.546 1115.47 557.25C1110.8 558.955 1109.46 554.675 1100.94 552.454C1092.42 550.233 1083.95 548.665 1078.12 549.811C1072.3 550.958 1068.18 553.127 1064.9 556.967C1061.62 560.808 1059.61 558.295 1055.76 558.524C1051.9 558.752 1041.61 563.154 1036.67 568.007C1031.72 572.861 1026.33 574.738 1018 575.333C1009.67 575.928 992.44 580.318 992.189 584.159Z" fill="#939960"/>
<path d="M1123.91 404.243C1133.59 404.847 1138.89 402.701 1146.65 403.76C1150.01 404.218 1156.17 399.6 1158.44 399.806C1160.7 400.012 1158.85 402.897 1160.5 403.713C1162.15 404.53 1174 406.555 1176.46 408.001C1178.92 409.446 1184.27 411.908 1188.61 411.908C1192.95 411.908 1194.72 409.514 1209.75 413.865C1214.32 415.186 1226.42 411.378 1229.04 410.057C1236.3 406.427 1240.41 395.903 1243.45 399.259C1247.08 403.248 1251.89 398.354 1257.86 396.102C1263.84 393.85 1274.23 388.76 1275.05 388.554C1275.87 388.348 1271.96 380.74 1271.55 376.811C1271.14 372.883 1272.58 375.167 1274.03 377.841C1275.49 380.516 1276.52 384.764 1279.39 385.631C1282.26 386.497 1291.13 384.434 1297.31 382.789C1303.49 381.145 1313.29 379.77 1317.82 379.77C1322.34 379.77 1330.04 376.872 1315.65 374.211C1309.09 373 1291.99 368.202 1287.46 366.347C1282.89 364.505 1277.99 363.669 1273.07 363.897C1268.12 364.11 1264.57 369.011 1254.27 364.905C1243.97 360.799 1235.2 360.018 1231.34 362.153C1227.49 364.287 1221.49 363.453 1219.64 364.071C1217.79 364.689 1215.73 369.221 1214.49 372.723C1213.25 376.225 1213.87 383.024 1214.08 386.316C1214.28 389.609 1212.74 389.818 1212.22 386.419C1211.71 383.02 1211.2 378.8 1210.79 376.119C1210.37 373.437 1215.01 367.26 1214.8 365.303C1214.59 363.346 1210.18 362.242 1203.54 362.604C1198.27 362.892 1188.63 362.604 1187.71 362.725C1186.79 362.845 1186.16 367.875 1186.26 371.377C1186.37 374.879 1186.78 377.77 1186.78 379.511C1186.78 381.251 1185.95 379.202 1185.34 376.115C1184.68 372.932 1184.4 369.682 1184.51 366.433C1184.62 362.725 1185.44 362.526 1181.63 363.034C1177.82 363.541 1170.51 365.19 1167.94 365.808C1165.36 366.426 1149.87 372.123 1146.17 373.789C1137.29 377.778 1133.83 382.938 1131.57 383.762C1129.3 384.586 1123.7 384.991 1118.07 385.755C1116.5 385.968 1104.86 391.083 1098.66 391.864C1085.91 393.52 1087.68 394.173 1093.15 395.86C1095.49 396.571 1100.96 398.442 1106.74 400.225C1113.51 402.31 1120.72 404.044 1123.91 404.243Z" fill="#939960"/>
<path d="M1068.61 450.359C1073.74 448.012 1085.61 443.021 1090.54 443.426C1095.46 443.831 1098.64 448.129 1101.17 443.401C1103.7 438.674 1108.55 435.058 1114.82 431.325C1122.31 426.842 1126.69 426.842 1132.83 426.722C1138.75 426.59 1146.06 427.869 1146.79 430.771C1147.52 433.673 1145.88 438.752 1146.79 443.465C1147.7 448.179 1149.14 452.899 1151.13 455.968C1153.12 459.037 1151.84 454.48 1151.13 451.326C1150.42 448.171 1149.21 444.179 1149.53 440.915C1149.86 437.651 1151.61 432.177 1153.64 431.105C1155.66 430.032 1162.27 432.742 1168.49 433.925C1174.71 435.108 1181.06 434.852 1184.12 433.982C1187.19 433.111 1188.84 437.104 1191.94 438.375C1195.03 439.647 1204.09 436.198 1211.34 436.198C1218.6 436.198 1221.14 442.908 1221.14 445.628C1221.14 448.349 1220.11 457.236 1220.48 460.987C1220.84 464.738 1222.53 467.515 1223.01 465.338C1223.49 463.16 1222.05 459.172 1222.17 457.357C1222.29 455.542 1223.25 451.915 1223.86 449.741C1224.47 447.568 1224.83 442.364 1223.86 440.187C1222.89 438.01 1228.33 440.187 1231.23 441.76C1234.14 443.334 1243.45 447.624 1246.17 447.443C1248.89 447.262 1250.16 444.179 1256.32 445.628C1262.49 447.078 1261.6 450.672 1273.02 451.311C1284.44 451.951 1291.34 450.331 1297.14 452.146C1302.94 453.961 1302.58 454.86 1295.87 455.954C1289.16 457.048 1284.81 458.856 1278.11 462.844C1271.42 466.833 1261.19 472.228 1256.23 469.803C1250.9 475.361 1240.02 481.346 1230.23 480.075C1220.44 478.803 1215.9 478.082 1212.82 479.169C1209.75 480.256 1207.68 482.554 1197.53 483.097C1187.37 483.641 1180.5 481.893 1173.59 479.652C1166.67 477.411 1159.08 476.81 1154.72 477.521C1150.37 478.231 1148.68 480.909 1144.21 480.547C1139.73 480.185 1136.71 477.887 1135.62 476.072C1134.53 474.257 1133.78 474.495 1129.56 475.361C1125.34 476.228 1116.15 475.848 1108.41 472.221C1100.67 468.595 1092.45 463.271 1087.38 460.145C1082.3 457.019 1074.25 454.888 1069.24 454.522C1065.24 454.242 1065.67 451.706 1068.61 450.359Z" fill="#939960"/>
<path d="M931.561 659.282C938.309 658.205 944.879 661.395 946.062 659.987C947.244 658.578 950.277 656.75 951.162 657.198C952.047 657.645 950.277 659.177 951.162 660.258C952.047 661.339 961.805 658.927 964.375 659.201C966.945 659.476 967.863 661.74 970.337 662.219C972.811 662.698 979.107 663.297 982.932 660.18C987.765 663.656 994.85 665.934 998.672 665.934C1002.49 665.934 1008.01 666.533 1009.47 666.892C1010.93 667.251 1012.73 663.896 1013.29 660.659C1013.85 657.423 1013.4 651.669 1013.29 650.095C1013.18 648.521 1015.09 650.577 1015.65 654.652C1016.22 658.726 1016.45 663.29 1015.65 665.801C1014.86 668.311 1015.77 668.438 1018.58 669.995C1021.39 671.551 1030.5 674.421 1037.24 673.946C1043.99 673.47 1045.23 668.558 1045.56 666.28C1045.9 664.001 1047.59 665.949 1047.93 668.512C1048.26 671.076 1058.12 666.16 1060.22 664.001C1062.32 661.842 1063.35 656.433 1065.93 655.007C1068.52 653.581 1076.17 653.69 1079.54 653.211C1082.9 652.732 1086.21 648.461 1085.46 646.281C1092.03 645.883 1094.57 644.478 1097.49 642.559C1100.4 640.64 1101.76 637.277 1108.39 636.22C1115.02 635.164 1120.28 633.755 1121.54 632.699C1122.81 631.642 1124.75 628.353 1119.77 628.712C1114.8 629.072 1110.34 629.892 1106.25 628.596C1101.98 627.237 1100.08 626.857 1094.78 626.286C1089.41 625.709 1087.13 628.469 1087.13 628.469C1081.13 625.233 1081.04 624.113 1076.17 622.874C1071.31 621.634 1070.36 622.715 1070.36 625.145C1070.36 627.575 1069.1 634.044 1068.51 635.664C1067.91 637.284 1066.9 641.686 1067.41 643.214C1067.91 644.742 1065.22 641.238 1064.96 638.9C1064.71 636.562 1066.73 635.664 1067.41 633.505C1068.08 631.346 1068.07 626.762 1067.49 624.349C1066.92 621.937 1066.06 621.56 1063.28 621.381C1060.49 621.201 1054.34 622.282 1051.98 621.381C1049.61 620.479 1046.98 618.37 1044.21 618.032C1041.43 617.694 1033.59 619.944 1031.99 623.539C1030.38 627.135 1026.28 623.659 1021.13 623.029C1016.8 622.501 1011.1 621.951 1008.15 623.029C1005.19 624.106 988.736 626.251 984.772 627.962C980.808 629.674 981.601 633.297 975.695 633.748C969.789 634.199 972.772 631.949 964.464 634.1C961.343 634.903 956.672 639.756 952.876 639.756C949.081 639.756 943.039 642.034 940.678 645.45C938.316 648.866 931.399 653.634 927.184 655.162C922.969 656.691 925.083 660.318 931.561 659.282Z" fill="#939960"/>
<path d="M1194.04 725.636C1201.3 724.549 1208.36 727.767 1209.63 726.347C1210.9 724.926 1214.17 723.082 1215.12 723.534C1216.07 723.985 1214.17 725.53 1215.12 726.62C1216.07 727.711 1226.56 725.278 1229.33 725.555C1232.1 725.832 1233.08 728.116 1235.72 728.599C1238.37 729.082 1245.16 729.685 1249.27 726.542C1254.46 730.048 1262.08 732.346 1266.19 732.346C1270.3 732.346 1276.23 732.95 1277.8 733.312C1279.37 733.674 1281.31 730.289 1281.91 727.025C1282.52 723.761 1282.03 717.957 1281.91 716.369C1281.79 714.782 1283.85 716.856 1284.45 720.966C1285.05 725.075 1285.31 729.678 1284.45 732.211C1283.59 734.743 1284.57 734.871 1287.6 736.441C1290.62 738.011 1300.41 740.906 1307.67 740.426C1314.93 739.947 1316.25 734.992 1316.62 732.694C1316.98 730.396 1318.79 732.36 1319.16 734.946C1319.52 737.532 1330.11 732.573 1332.37 730.396C1334.63 728.219 1335.72 722.781 1338.5 721.328C1341.28 719.875 1349.51 719.999 1353.13 719.516C1356.75 719.033 1360.31 714.725 1359.5 712.526C1366.55 712.139 1369.3 710.722 1372.43 708.786C1375.57 706.85 1377.02 703.458 1384.16 702.393C1391.29 701.327 1396.94 699.906 1398.3 698.841C1399.66 697.775 1401.75 694.486 1396.4 694.848C1391.04 695.211 1386.25 696.038 1381.86 694.728C1377.24 693.36 1375.22 692.977 1369.52 692.401C1363.75 691.819 1361.3 694.603 1361.3 694.603C1354.86 691.339 1354.75 690.21 1349.5 688.959C1344.25 687.709 1343.25 688.8 1343.25 691.25C1343.25 693.701 1341.89 700.226 1341.25 701.86C1340.62 703.494 1339.53 707.934 1340.07 709.475C1340.62 711.017 1337.71 707.483 1337.44 705.124C1337.17 702.766 1339.35 701.86 1340.07 699.683C1340.8 697.505 1340.78 692.881 1340.17 690.448C1339.55 688.015 1338.65 687.581 1335.64 687.393C1332.64 687.205 1326.05 688.292 1323.51 687.393C1320.96 686.494 1318.14 684.356 1315.15 684.029C1312.17 683.703 1303.74 685.958 1302.01 689.585C1300.28 693.211 1295.87 689.705 1290.33 689.07C1285.69 688.537 1279.55 687.983 1276.38 689.07C1273.2 690.156 1255.52 692.334 1251.25 694.06C1246.99 695.786 1247.85 699.427 1241.52 699.881C1235.19 700.336 1238.37 698.066 1229.44 700.237C1226.09 701.047 1221.06 705.941 1216.98 705.941C1212.9 705.941 1206.4 708.239 1203.86 711.684C1201.33 715.13 1193.89 719.939 1189.36 721.481C1184.82 723.022 1187.08 726.681 1194.04 725.636Z" fill="#939960"/>
<path d="M1066.87 683.62C1075.8 684.229 1080.58 691.681 1092.03 691.716C1103.48 691.751 1100.37 687.404 1104.59 688.057C1108.81 688.711 1108.57 691.074 1120.02 694.009C1131.46 696.945 1136.58 697.177 1140.22 697.504C1143.86 697.83 1145.52 692.092 1145.26 687.745C1144.99 683.399 1145.03 682.065 1145.31 680.604C1145.58 679.142 1146.73 680.161 1147.83 684.204C1148.92 688.247 1149.42 688.523 1149.49 691.548C1149.55 694.572 1147.4 697.593 1147.66 699.409C1147.93 701.226 1153.52 702.183 1157.34 702.833C1161.16 703.483 1164.23 706.939 1176.16 702.942C1188.09 698.944 1185.4 693.475 1188 691.313C1190.6 689.151 1191.63 694.181 1198.78 692.293C1205.93 690.405 1208.32 684.993 1213.38 681.411C1218.43 677.829 1227 678.403 1229.86 677.499C1232.72 676.595 1238.44 672.254 1244.14 670.454C1249.85 668.655 1264.06 666.486 1268.55 665.408C1273.03 664.33 1271.2 660.976 1264.69 661.75C1258.18 662.524 1252.05 661.065 1248.1 659.854C1244.15 658.643 1235.18 654.592 1231.02 654.109C1226.87 653.626 1222.72 654.971 1221.94 658.175C1213.42 657.381 1207.87 651.766 1203.44 650.581C1199 649.396 1193.02 648.661 1191.58 650.699C1190.13 652.738 1189.74 656.384 1189.94 659.642C1190.14 662.9 1191.43 664.234 1190 664.684C1188.58 665.134 1187.61 663.175 1187.25 659.322C1186.9 655.468 1187.22 650.816 1187.17 649.926C1187.11 649.036 1182.05 647.391 1178.51 647.016C1174.97 646.641 1162.35 646.183 1158.61 646.531C1154.88 646.88 1154.77 649.068 1152.04 650.092C1149.31 651.116 1149.19 647.65 1145.58 645.397C1141.96 643.145 1136.55 643.919 1129.59 650.084C1122.62 656.248 1120.76 657.44 1115.64 658.962C1110.52 660.484 1107.85 660.408 1103.85 662.225C1099.84 664.042 1098.1 667.18 1096.16 669.358C1094.23 671.537 1081.32 676.22 1069.77 677.579C1058.22 678.938 1059.9 683.148 1066.87 683.62Z" fill="#939960"/>
<path d="M1128.82 707.843C1121.57 708.93 1114.5 705.712 1113.23 707.133C1111.97 708.554 1108.7 710.397 1107.75 709.946C1106.79 709.495 1108.7 707.95 1107.75 706.859C1106.79 705.769 1096.31 708.202 1093.54 707.925C1090.77 707.648 1089.79 705.364 1087.15 704.881C1084.5 704.398 1077.71 703.794 1073.6 706.937C1068.4 703.432 1060.78 701.134 1056.67 701.134C1052.56 701.134 1046.64 700.53 1045.07 700.168C1043.5 699.805 1041.56 703.19 1040.95 706.454C1040.35 709.719 1040.83 715.522 1040.95 717.11C1041.07 718.698 1039.02 716.623 1038.42 712.514C1037.81 708.404 1037.56 703.801 1038.42 701.269C1039.27 698.736 1038.29 698.608 1035.27 697.038C1032.25 695.468 1022.45 692.574 1015.2 693.053C1007.94 693.533 1006.61 698.488 1006.25 700.786C1005.89 703.084 1004.07 701.119 1003.71 698.534C1003.35 695.948 992.753 700.906 990.494 703.084C988.235 705.261 987.145 710.699 984.364 712.152C981.583 713.604 973.353 713.48 969.734 713.963C966.114 714.446 962.555 718.755 963.365 720.953C956.315 721.34 953.569 722.758 950.433 724.693C947.296 726.629 945.847 730.021 938.711 731.087C931.576 732.152 925.924 733.573 924.564 734.639C923.204 735.704 921.119 738.993 926.471 738.631C931.824 738.269 936.619 737.441 941.009 738.752C945.627 740.119 947.644 740.503 953.345 741.078C959.113 741.661 961.571 738.876 961.571 738.876C968.011 742.14 968.121 743.27 973.371 744.52C978.62 745.77 979.619 744.68 979.619 742.229C979.619 739.778 980.979 733.253 981.615 731.62C982.25 729.986 983.337 725.546 982.794 724.004C982.25 722.463 985.152 725.997 985.422 728.355C985.692 730.714 983.519 731.62 982.794 733.797C982.069 735.974 982.084 740.599 982.702 743.032C983.32 745.465 984.215 745.898 987.223 746.086C990.232 746.275 996.813 745.188 999.36 746.086C1001.91 746.985 1004.73 749.123 1007.71 749.45C1010.7 749.777 1019.13 747.521 1020.86 743.895C1022.58 740.268 1026.99 743.774 1032.53 744.41C1037.18 744.943 1043.32 745.497 1046.49 744.41C1049.66 743.323 1067.35 741.146 1071.61 739.42C1075.87 737.693 1075.02 734.053 1081.35 733.598C1087.68 733.143 1084.49 735.413 1093.42 733.243C1096.78 732.433 1101.8 727.538 1105.88 727.538C1109.97 727.538 1116.46 725.24 1119 721.795C1121.54 718.35 1128.98 713.54 1133.51 711.999C1138.05 710.457 1135.79 706.799 1128.82 707.843Z" fill="#939960"/>
<path d="M980.218 -9.71875C977.746 -9.71875 964.142 1.23529 956.942 2.43583C952.016 3.25632 951 2.41097 951 4.26506C951 6.11916 963.769 8.17926 970.567 8.79729C977.366 9.41532 979.635 7.56122 989.932 8.59127C1000.23 9.62132 1015.26 15.5956 1023.5 18.4798C1031.75 21.3639 1035.66 22.806 1044.72 24.66C1053.78 26.5141 1046.98 16.8317 1049.05 14.1536C1051.11 11.4754 1046.99 5.91669 1046.14 2.41452C1045.29 -1.08765 1049.26 -6.04964 1048.84 -3.14774C1048.43 -0.24584 1050.69 4.05905 1052.96 11.4754C1055.23 18.8918 1052.34 19.1013 1053.37 24.66C1054.4 30.2188 1059.56 25.477 1064.09 24.66C1068.61 23.8431 1076.84 21.577 1082.2 20.753C1087.56 19.9289 1083.64 14.9847 1083.44 11.6885C1083.23 8.39238 1083.86 9.35581 1077.84 2.43583C1071.81 -4.48415 1080.68 -17.7181 1077.84 -25.2405C1075 -32.763 1066.31 -22.7223 1061.77 -20.8682C1057.24 -19.0141 1052.7 -20.6622 1049.21 -22.5162C1045.71 -24.3703 1043.02 -23.5463 1039.32 -23.5463C1035.63 -23.5463 1035.22 -24.5834 1031.51 -25.1908C1027.8 -25.7982 1010.7 -20.2395 1006.17 -18.7974C1001.64 -17.3553 997.935 -14.4854 993.197 -12.2051C988.458 -9.92476 982.69 -9.71875 980.218 -9.71875Z" fill="#939960"/>
</g>
<defs>
<clipPath id="clip0_268_451">
<rect width="1280" height="720" fill="white"/>
</clipPath>
</defs>
</svg>
