<svg width="1280" height="720" viewBox="0 0 1280 720" fill="none" xmlns="http://www.w3.org/2000/svg">
<g clip-path="url(#clip0_268_296)">
<rect width="1280" height="720" fill="#FFFBF3"/>
<rect width="1280" height="720" fill="#023A2F"/>
<path d="M29.4469 730.562C29.2778 739.791 36.1338 744.416 43.8092 745.119C51.4845 745.823 53.9426 743.238 59.1388 745.119C64.335 747.001 59.4084 752.631 61.8611 754.978C64.3139 757.325 66.756 757.795 77.9149 757.33C89.0738 756.865 99.9578 749.11 102.68 749.343C105.402 749.576 99.4134 760.613 108.669 763.43C117.925 766.248 122.276 763.43 126.901 761.083C131.526 758.736 139.418 754.74 149.213 756.855C159.009 758.969 157.264 764.609 170.522 764.609C183.779 764.609 203.369 756.855 209.903 756.617C216.436 756.379 226.776 760.09 229.498 760.09C232.221 760.09 236.846 756.146 236.846 753.329C246.097 751.452 243.374 757.922 247.186 760.09C250.997 762.257 254.808 766.253 264.059 764.609C273.309 762.965 284.199 757.79 287.735 757.79C291.271 757.79 290.727 757.843 300.527 758.964C310.328 760.084 313.589 756.849 315.767 756.617C317.945 756.384 319.303 756.146 327.196 756.855C335.088 757.563 342.705 753.255 338.354 747.773C334.004 742.291 326.921 743.47 323.115 744.644C319.309 745.817 311.411 746.05 308.419 744.876C305.427 743.703 314.403 741.356 316.037 737.597C317.67 733.839 312.099 731.254 310.122 727.739C308.145 724.224 306.786 723.51 306.786 717.642C306.786 711.775 305.422 707.546 296.986 708.72C288.549 709.893 286.768 711.067 277.729 712.478C268.689 713.889 256.711 707.292 248.544 705.543C240.377 703.793 222.965 705.432 217.795 708.487C212.625 711.542 212.35 717.405 210.447 717.405C208.544 717.405 206.911 713.651 206.092 710.834C205.272 708.016 185.957 701.657 177.246 705.548C168.534 709.438 169.628 714.36 158.744 714.83C147.86 715.301 142.416 709.428 136.701 709.428C130.987 709.428 127.186 710.369 121.462 710.839C115.737 711.31 111.392 704.263 101.871 703.322C92.3512 702.382 90.4376 707.313 90.4376 707.313C77.9202 706.848 72.206 707.081 70.303 711.542C68.4 716.004 71.117 722.812 58.0551 722.342C44.9933 721.871 29.6002 722.902 29.4469 730.562Z" fill="#ED824C"/>
<path d="M114.014 390.002C114.543 397.64 122.578 399.702 127.959 401.568C133.34 403.434 138.753 398.692 141.925 399.887C145.096 401.082 139.477 408.63 141.925 410.755C144.372 412.88 157.651 413.118 165.326 408.641C173.002 404.163 182.3 408.641 186.471 409.349C190.641 410.057 201.768 404.856 208.313 406.986C214.857 409.116 218.282 401.785 215.586 398.243C212.89 394.701 207.514 396.129 201.398 392.809C195.282 389.489 192.1 381.941 183.045 383.125C173.99 384.309 168.672 388.554 165.337 388.791C162.001 389.029 159.062 385.149 152.703 384.964C146.344 384.779 136.803 388.665 131.295 387.903C125.786 387.142 113.523 382.956 114.014 390.002Z" fill="#ED824C"/>
<path d="M86.0144 -0.998018C86.543 6.64036 94.5778 8.70193 99.959 10.5679C105.34 12.4339 110.753 7.69229 113.925 8.88695C117.096 10.0816 111.477 17.6301 113.925 19.7551C116.372 21.8801 129.651 22.118 137.326 17.6407C145.002 13.1634 154.3 17.6407 158.471 18.349C162.641 19.0573 173.768 13.8559 180.313 15.9861C186.857 18.1164 190.282 10.7847 187.586 7.24299C184.89 3.70132 179.514 5.12854 173.398 1.80889C167.282 -1.51077 164.1 -9.05929 155.045 -7.87521C145.99 -6.69113 140.672 -2.44639 137.337 -2.20852C134.001 -1.97064 131.062 -5.85062 124.703 -6.03563C118.344 -6.22064 108.803 -2.33538 103.295 -3.09657C97.7864 -3.85777 85.5227 -8.04436 86.0144 -0.998018Z" fill="#ED824C"/>
<path d="M377.506 695.805C373.996 692.85 378.854 685.159 374.266 683.827C369.677 682.495 367.114 682.495 363.472 682.939C359.829 683.383 357.657 680.571 355.373 680.296C353.09 680.021 352.402 685.18 351.456 685.328C350.51 685.476 347.138 683.309 343.495 681.136C339.853 678.964 332.564 677.484 329.593 677.78C326.622 678.076 320.316 681.681 315.506 681.136C310.865 680.608 300.292 678.985 294.092 674.793C291.274 672.753 288.23 671.209 286.163 670.834C281.844 670.041 282.203 674.581 278.424 674.777C274.644 674.973 267.27 675.369 263.131 673.789C258.992 672.208 246.575 665.114 242.077 665.114C237.578 665.114 227.149 664.469 226.969 666.245C226.79 668.021 232.007 678.076 228.592 677.684C225.177 677.293 224.453 667.641 220.134 667.229C215.816 666.816 214.182 666.885 212.734 669.454C211.285 672.023 209.314 672.213 203.917 669.65C198.52 667.086 195.602 664.966 192.361 665.558C189.121 666.15 187.044 669.169 184.702 671.537C182.36 673.905 177.381 671.14 177.016 677.595C176.794 681.475 178.892 685.777 184.126 689.314C187.546 691.619 192.758 690.952 195.818 691.344C198.879 691.735 203.377 693.516 208.415 694.695C213.453 695.874 219.754 692.528 222.27 691.74C224.786 690.952 235.406 695.197 237.568 694.949C239.73 694.7 250.344 691.936 253.585 690.752C256.825 689.568 265.098 689.568 266.361 690.952C267.418 692.1 276.167 691.481 281.263 690.662C288.816 690.281 302.988 704.258 307.693 704.85C312.398 705.442 318.624 704.702 321.997 702.635C325.369 700.568 323.752 692.131 325.507 691.243C327.262 690.355 326.184 700.711 328.34 700.711C330.497 700.711 336.037 699.965 339.811 698.12C343.585 696.276 350.071 699.674 353.581 700.415C357.091 701.155 363.435 700.267 364.915 700.267C366.395 700.267 372.474 702.043 375.307 701.747C378.14 701.451 381.021 698.765 377.506 695.805Z" fill="#ED824C"/>
<path d="M106.777 189.716C105.472 194.563 108.707 200.388 113.364 200.927C118.021 201.467 127.298 202.582 129.539 202.867C131.781 203.153 137.315 206.906 137.659 209.237C138.002 211.568 142.665 215.327 144.731 214.608C146.798 213.889 148.691 207.429 151.106 207.958C153.522 208.486 159.992 213.107 163.745 213.376C167.499 213.646 173.847 209.11 176.168 210.442C180.513 212.948 186.338 212.314 190.662 210.733C193.601 209.676 196.355 207.371 196.741 204.39C205.151 202.376 205.928 201.615 205.542 199.379C205.157 197.143 206.838 190.154 195.192 191.095C183.547 192.036 178.108 195.488 175.634 195.351C173.16 195.213 173.953 192.396 169.819 193.204C165.685 194.013 168.011 196.699 162.704 196.831C157.397 196.963 148.601 195.488 144.975 194.817C143.966 194.601 142.923 194.609 141.918 194.841C140.913 195.073 139.972 195.523 139.16 196.159C134.63 192.533 133.345 192.819 129.064 192.459C124.782 192.1 111.9 187.252 106.777 189.716Z" fill="#ED824C"/>
<path d="M200.029 80.9807C200.705 83.5551 201.255 87.2923 204.575 87.4932C207.894 87.6941 212.435 86.1082 215.406 86.1082C218.377 86.1082 224.493 89.0684 226.063 89.2799C227.633 89.4913 230.783 82.1807 232.179 82.1807C233.574 82.1807 237.074 86.5206 240.568 87.5091C244.062 88.4976 256.547 85.7224 260.042 86.3144C263.536 86.9065 271.925 88.4817 274.895 86.9012C277.866 85.3206 280.758 80.0028 274.895 79.6064C269.033 79.2099 264.196 81.3825 259.037 77.2382C253.878 73.0939 247.207 68.9497 243.866 69.7373C240.525 70.5249 242.465 74.6639 238.797 72.9089C235.128 71.154 229.012 61.8663 225.344 64.4512C221.675 67.0361 217.568 74.4947 212.462 75.4938C207.355 76.4929 199.463 78.8293 200.029 80.9807Z" fill="#ED824C"/>
<path d="M121.112 581.282C126.646 581.779 138.186 581.102 142.145 578.406C146.104 575.71 148.584 571.006 152.564 570.477C156.545 569.949 170.399 571.096 175.823 569.076C181.246 567.057 199.219 567.136 200.477 575.948C201.735 584.76 196.518 591.727 183.033 588.852C169.548 585.976 165.219 584.353 159.817 585.432C154.414 586.51 153.161 591.008 143.985 590.829C134.808 590.649 121.487 588.672 116.09 587.409C110.693 586.145 109.076 580.204 121.112 581.282Z" fill="#ED824C"/>
<path d="M82.8785 621.023C90.39 623.211 108.41 617.507 112.243 615.737C116.075 613.966 119.046 604.435 129.306 606.444C139.566 608.452 141.184 611.465 149.013 611.465C156.841 611.465 161.171 603.431 161.171 603.431C173.048 603.431 192.485 603.431 197.882 604.937C203.279 606.444 217.05 612.972 220.829 612.221C224.609 611.471 229.192 609.578 234.325 608.141C239.457 606.703 249.977 606.819 257.266 608.141C264.556 609.462 263.657 614.315 261.268 620.478C259.988 623.798 272.897 635.977 268.14 643.113C263.192 650.567 247.402 645.376 241.667 643.367C235.932 641.358 227.289 638.847 222.431 643.113C217.573 647.379 213.524 651.655 204.886 651.904C196.249 652.152 197.058 641.104 189.768 639.096C182.479 637.087 187.072 643.853 166.287 647.638C145.503 651.423 125.199 650.281 122.017 648.167C115.71 643.938 133.805 638.52 131.368 634.888C127.858 629.655 119.49 642.701 105.55 637.864C92.8639 633.466 87.4668 636.611 80.4469 638.62C73.427 640.629 66.9886 642.701 58.552 634.349C55.909 631.748 47.779 624.136 51.0193 620.077C54.7355 615.419 71.8359 617.804 82.8785 621.023Z" fill="#ED824C"/>
<path d="M131.823 687.585C139.16 685.001 145.709 689.7 149.7 687.585C153.691 685.471 155.848 681.173 148.019 676.664C140.191 672.155 138.034 662.186 133.171 662.424C128.307 662.662 121.451 669.296 111.656 671.204C101.861 673.112 107.528 666.695 103.199 666.446C98.8693 666.198 76.4774 667.874 70.002 667.636C63.5266 667.398 57.0406 663.84 53.8055 658.856C50.5704 653.871 37.609 655.055 28.1628 655.293C18.7165 655.531 7.6475 655.055 3.84682 660.753C0.0461273 666.452 7.89594 669.771 7.89594 669.771C-12.3497 667.874 -15.0509 665.262 -24.2275 665.262C-33.4041 665.262 -40.6936 669.491 -48.2474 671.886C-55.8012 674.28 -72.8118 669.243 -75.513 671.886C-78.2142 674.529 -80.9101 688.521 -70.1159 690.916C-59.3218 693.31 -52.5662 690.202 -47.1691 689.732C-41.772 689.261 -43.9287 697.56 -41.772 700.885C-39.6153 704.21 -30.9726 704.443 -27.193 704.681C-23.4135 704.918 -22.3351 699.463 -20.1784 699.696C-18.0217 699.928 -18.0164 705.632 -14.2369 705.87C-10.4573 706.108 0.067276 705.162 2.49887 702.312C4.93047 699.463 7.92236 692.634 12.4842 692.105C28.0147 690.292 21.9992 681.887 25.4933 680.476C28.9874 679.064 25.9796 688.791 31.1071 689.266C36.2346 689.742 50.2744 684.757 54.5931 685.233C58.9118 685.709 66.2225 690.688 75.378 691.64C84.5334 692.591 98.3195 685.466 103.447 685.704C108.574 685.941 121.028 691.397 131.823 687.585Z" fill="#ED824C"/>
<path d="M110.176 112.206C112.566 114.58 118.005 117.661 121.964 117.762C125.924 117.862 132.04 110.166 134.741 110.552C137.442 110.938 134.381 115.034 138.161 115.42C141.94 115.806 154.178 114.839 159.575 116.98C164.972 119.12 163.354 121.071 166.235 121.267C169.116 121.462 169.83 115.811 172.711 116.203C175.591 116.594 175.951 123.989 179.73 125.548C183.51 127.108 189.245 127.494 192.866 125.548C196.487 123.603 203.1 118.735 208.148 118.93C213.197 119.126 221.839 120.294 222.828 120.49C223.816 120.685 222.199 117.371 224.176 115.811C226.153 114.252 229.034 116.203 234.256 116.588C239.479 116.974 249.549 107.602 240.911 106.846C232.274 106.09 227.416 108.014 223.637 106.846C219.857 105.678 214.819 101.782 212.298 101.391C209.777 101 209.216 103.727 208.148 104.51C207.081 105.292 198.263 100.027 192.507 98.8589C186.75 97.6907 181.66 102.364 178.176 102.95C174.693 103.537 176.062 101.116 165.781 98.6686C155.499 96.2212 149.595 94.3076 146.079 95.201C142.564 96.0943 141.893 100.17 141.893 100.17C134.492 99.4404 132.584 99.7364 126.241 100.609C119.897 101.481 113.374 99.9426 112.069 100.318C107.66 101.587 106.566 108.612 110.176 112.206Z" fill="#ED824C"/>
<path d="M130.496 37.9838C130.015 41.7687 129.439 45.8019 131.669 48.075C133.9 50.348 150.387 51.2466 151.228 52.3038C155.081 61.2003 156.297 67.9982 157.967 71.265C160.214 75.6735 176.469 78.1791 182.891 76.6673C189.314 75.1555 189.435 69.7637 190.583 66.4071C192.338 61.2796 193.342 61.2003 199.675 60.9465C206.007 60.6928 209.306 55.1319 213.709 54.6403C218.112 54.1487 227.453 57.4154 231.877 58.4251C236.302 59.4347 230.503 51.3576 234.357 50.0995C238.21 48.8414 243.438 55.2693 247.043 52.3038C250.648 49.3383 247.736 43.2858 241.334 37.9891C234.933 32.6925 225.571 35.1452 220.068 35.0554C214.565 34.9655 208.693 39.5009 205.754 39.1679C202.815 38.8349 200.066 33.6175 194.008 33.1101C187.95 32.6026 181.2 34.458 174.761 36.4773C168.323 38.4966 166.304 40.8489 160.796 39.649C155.287 38.449 140.608 30.7525 130.496 37.9838Z" fill="#ED824C"/>
<path d="M-86.2068 232.909C-86.709 236.852 -87.2905 244.152 -86.2068 245.337C-85.1232 246.521 -77.5694 246.817 -76.2214 247.705C-74.8735 248.593 -68.1232 251.844 -62.7261 247.705C-57.329 243.566 -53.819 242.672 -49.5109 245.337C-45.2028 248.001 -38.7115 247.705 -33.0448 246.817C-27.3781 245.929 -20.6278 248.889 -17.1178 247.705C-13.6079 246.521 -10.0979 242.376 -2.53884 248.001C5.02025 253.625 14.1916 255.692 18.5156 254.508C22.8396 253.324 38.7665 256.591 38.7665 256.591C36.6098 261.026 41.5893 267.501 48.7572 267.242C61.0526 266.793 54.9525 257.019 60.783 249.338C62.76 246.727 55.83 262.923 69.8116 260.73C77.5505 259.519 90.3216 257.183 100.043 257.479C109.764 257.775 112.729 265.762 121.906 265.17C131.083 264.578 136.48 259.847 145.931 261.618C155.383 263.389 150.519 254.518 145.931 248.011C141.343 241.504 144.039 240.32 141.343 236.768C138.647 233.216 132.161 232.01 122.715 229.669C113.268 227.327 117.857 221.681 110.837 219.313C103.817 216.945 96.5327 217.241 91.6748 217.241C86.8169 217.241 76.0175 217.241 70.6204 214.873C65.2233 212.505 58.991 214.577 61.1742 218.129C63.3573 221.681 57.1251 224.34 46.8648 225.53C36.6045 226.719 26.8887 225.234 20.1437 224.938C13.3987 224.642 10.9671 219.588 5.28455 219.588C-0.397987 219.588 -21.6744 226.989 -30.0634 226.402C-38.4524 225.815 -50.8483 226.106 -57.8682 222.855C-64.8881 219.604 -70.0262 216.638 -74.8735 218.415C-79.7208 220.191 -85.1073 224.134 -86.2068 232.909Z" fill="#ED824C"/>
<path d="M-56.7212 142.559C-56.9326 144.8 -54.0781 153.739 -48.1366 153.602C-42.195 153.464 -26.6064 150.15 -20.9397 150.018C-15.2731 149.885 -15.9814 154.934 -13.2538 156.361C-10.5262 157.788 1.60538 156.889 8.60414 155.832C15.6029 154.775 12.0876 154.569 16.105 152.703C20.1225 150.837 21.5497 155.24 23.7804 158.74C26.0112 162.239 42.3874 162.746 45.2789 163.27C48.1704 163.793 56.9506 162.773 60.4235 168.841C65.2338 177.251 66.0426 189.637 66.0426 189.637C75.0289 195.557 85.8971 188.516 85.7967 183.193C85.6962 177.87 88.2335 169.523 88.2335 169.523C90.2687 162.725 97.8912 163.412 102.215 167.842C110.176 176.009 136.162 175.243 139.419 176.057C142.675 176.871 167.472 176.11 170.982 176.03C174.492 175.951 181.554 164.248 170.749 163.904C159.944 163.56 148.696 161.531 137.976 160.093C129.488 158.866 121.12 156.921 112.962 154.278C120.098 152.047 139.863 156.863 142.035 155.203C143.145 154.347 145.64 148.495 148.336 148.432C151.032 148.368 151.931 153.913 156.545 155.171C161.16 156.43 173.894 158.734 174.899 154.743C175.903 150.752 173.63 145.049 172.256 143.077C170.881 141.105 163.798 138.319 159.463 137.823C155.129 137.326 145.017 129.571 138.848 132.082C132.679 134.593 129.75 136.432 124.892 136.543C120.035 136.654 102.464 129.465 99.4506 127.171C96.4375 124.877 99.2814 135.846 96.0622 136.808C92.843 137.77 84.7289 141.845 77.1169 139.065C69.505 136.284 68.1306 136.311 64.959 138.161C61.7873 140.011 46.6956 132.584 41.0078 131.532C37.6995 130.91 34.3558 130.493 30.9959 130.285C28.6278 133.594 18.9912 137.955 14.6567 137.157C10.3221 136.358 0.431858 137.067 -4.72206 135.708C-9.87598 134.35 -11.0125 131.416 -18.043 130.982C-25.0735 130.549 -31.7868 131.892 -37.982 132.922C-44.1773 133.953 -57.2339 129.846 -56.7212 142.559Z" fill="#ED824C"/>
<path d="M-138.973 300.227C-140.099 295.501 -129.458 294.307 -125.298 294.307C-121.138 294.307 -117.369 292.335 -113.06 291.743C-108.752 291.151 -95.6164 295.491 -90.473 295.094C-85.3297 294.698 -83.1888 289.771 -81.3863 288.587C-79.5837 287.403 -78.1512 290.559 -74.5514 290.559C-70.9515 290.559 -68.8847 275.372 -68.7367 273.205C-68.5887 271.037 -57.2659 273.009 -52.0433 273.205C-46.8206 273.4 -43.4058 269.256 -37.829 269.06C-32.2522 268.865 -10.8383 274.78 -7.23849 274.981C-3.63869 275.182 -5.98039 286.42 -3.81839 285.828C-1.65639 285.236 -2.20088 276.752 4.45958 276.953C11.12 277.153 11.2258 280.124 15.9039 278.961C20.5821 277.798 28.7596 276.73 30.0177 278.026C31.2758 279.321 33.7973 287.012 40.4577 287.604C47.1182 288.196 51.9761 287.207 52.8747 293.123C53.7734 299.038 48.9154 305.947 39.1996 304.366C30.3772 312.824 29.4786 314.41 23.722 311.666C17.9655 308.923 15.4282 303.774 9.12718 304.165C2.82619 304.556 0.849182 304.361 -5.2668 305.941C-11.3828 307.522 -18.7674 308.505 -22.7108 304.953C-26.6543 301.401 -29.551 302.786 -33.5103 305.148C-37.4696 307.511 -41.0694 312.253 -42.8667 308.896C-44.6639 305.54 -53.1269 304.556 -62.4833 306.729C-71.8396 308.902 -78.6798 307.125 -79.5784 306.925C-88.0361 311.069 -95.5952 311.856 -100.813 308.701C-110.708 314.42 -110.169 315.604 -120.249 310.286C-130.33 304.969 -136.811 309.298 -138.973 300.227Z" fill="#ED824C"/>
<path d="M74.2735 284.834C71.1018 286.076 75.2619 292.203 75.0611 295.142C74.8602 298.081 68.3372 303.674 70.3036 305.947C72.27 308.22 83.3655 305.947 86.7274 305.947C90.0894 305.947 93.4566 311.333 99.7894 310.916C103.538 310.683 107.065 309.06 109.68 306.364C117.202 311.333 122.942 308.019 128.281 307.421C133.62 306.824 144.314 298.102 137.796 296.654C131.278 295.205 132.901 287.266 126.695 285.627C119.046 283.608 115.743 290.384 110.975 287.641C106.941 285.326 103.389 292.515 101.407 290.448C99.4246 288.381 102.004 283.824 95.4706 282.788C88.937 281.752 77.4398 279.041 74.2735 284.834Z" fill="#ED824C"/>
<path d="M-96.8584 417.456C-103.107 418.587 -105.765 427.198 -107.653 431.089C-109.54 434.979 -112.241 441.312 -111.702 444.23C-111.162 447.148 -105.089 445.662 -101.848 448.094C-98.6081 450.525 -94.0092 455.674 -92.1168 459.565C-90.2243 463.455 -89.96 465.649 -79.9588 468.551C-69.9575 471.453 -69.1593 463.688 -64.8406 462.953C-60.5219 462.218 -52.9628 468.308 -49.1833 470.496C-45.4037 472.685 -42.4382 469.28 -37.0253 469.037C-31.6123 468.794 -14.0837 465.633 -9.49542 465.866C-3.82875 470.486 5.89233 475.597 13.9906 474.625C22.0889 473.652 23.7064 469.999 25.8631 471.707C28.0199 473.414 29.6427 473.89 32.6134 474.746C35.5842 475.603 47.7052 462.747 56.3427 465.919C64.9801 469.09 77.1275 468.387 83.8725 467.15C90.6175 465.913 97.6163 469.793 103.579 471.273C109.542 472.753 122.741 471.516 125.173 469.566C127.604 467.615 121.393 465.432 115.726 464.46C110.06 463.487 108.167 457.847 111.408 457.868C114.648 457.889 122.471 459.105 131.785 456.187C141.1 453.269 139.746 450.832 141.369 448.4C142.992 445.969 138.129 445.964 145.957 444.505C153.786 443.046 152.433 438.161 143.526 436.961C134.619 435.761 128.143 435.502 120.584 433.557C113.025 431.612 96.5591 425.501 93.0333 426.474C89.5075 427.446 88.1754 429.645 81.6999 430.364C75.2245 431.083 74.68 431.58 70.3613 429.149C66.0426 426.717 63.8806 425.015 55.5127 424.042C47.1449 423.07 50.9244 422.821 44.449 423.799C37.9735 424.777 39.591 424.285 35.2723 423.064C30.9536 421.843 20.4238 420.876 12.3255 423.551C4.22724 426.225 4.1691 434.281 0.928734 434.281C-2.31163 434.281 6.34167 423.757 -9.51656 422.092C-14.7603 421.563 -16.5365 420.876 -22.7317 420.876C-28.927 420.876 -47.2961 424.285 -51.8844 422.335C-56.4728 420.384 -63.7622 416.256 -63.7622 416.256C-67.0026 421.119 -66.4582 424.285 -74.5564 422.599C-82.6547 420.913 -83.3577 415.019 -96.8584 417.456Z" fill="#ED824C"/>
<path d="M62.5647 488.961C58.8644 489.933 60.5824 497.027 61.5074 498.375C62.4325 499.723 62.0361 503.08 63.8439 505.601C65.6517 508.123 73.3588 504.592 79.3215 505.601C85.2842 506.611 98.7531 511.31 101.993 510.808C105.234 510.306 105.054 507.954 107.031 507.446C109.008 506.939 110.631 509.465 112.793 509.968C114.955 510.47 119.808 505.601 125.749 507.113C131.691 508.625 141.946 510.549 146.804 510.845C151.661 511.141 153.305 509.465 157.524 508.287C161.742 507.108 168.038 504.925 160.479 503.08C152.92 501.235 148.781 501.975 145.725 499.908C142.67 497.841 139.784 492.476 135.645 493.316C131.506 494.157 130.966 497.017 127.187 496.678C123.407 496.34 119.628 491.636 115.489 490.795C111.35 489.955 110.271 490.626 105.234 491.466C100.196 492.307 95.7189 487.1 92.2777 486.931C88.8365 486.762 87.5995 493.147 87.5995 493.147C85.2578 492.307 84.8983 485.419 78.6132 485.583C72.328 485.747 67.0631 487.787 62.5647 488.961Z" fill="#ED824C"/>
<path d="M-76.5282 344.788C-79.8584 343.292 -78.0558 331.177 -73.2402 330.193C-68.4246 329.21 -53.1531 331.97 -48.993 333.365C-44.8329 334.761 -41.0639 329.422 -38.9178 327.841C-36.7716 326.261 -34.4193 330.014 -31.7181 331.193C-29.0169 332.371 -18.5822 324.252 -11.3826 324.252C-4.18298 324.252 7.15038 335.696 16.8715 335.696C26.5926 335.696 27.6656 332.34 33.7869 333.133C39.9082 333.925 49.9781 330.172 52.6793 327.804C55.3805 325.436 60.2384 324.056 67.4381 326.218C74.6377 328.38 78.0525 338.049 81.2928 337.261C84.5332 336.473 76.0755 329.57 80.574 328.386C85.0724 327.202 95.6868 333.143 99.8258 333.318C103.965 333.492 110.086 340.612 105.223 344.757C100.36 348.901 90.8289 349.292 88.8361 351.264C86.8432 353.235 85.5957 356.592 78.0366 354.028C70.4776 351.465 67.2531 346.982 63.6585 347.944C60.064 348.906 46.3836 355.44 42.4244 356.624C38.4651 357.808 27.3062 353.452 24.7847 353.267C22.2633 353.082 26.4075 360.567 22.9875 361.159C19.5674 361.751 14.5297 363.131 8.049 358.791C1.56828 354.451 -12.2812 352.088 -15.5216 352.088C-18.7619 352.088 -20.1998 354.848 -25.9616 355.831C-31.7234 356.814 -35.8571 357.015 -41.0745 355.244C-46.2918 353.473 -47.016 349.324 -51.155 347.548C-55.294 345.772 -52.2122 348.732 -57.6305 349.519C-63.0487 350.307 -72.5689 346.564 -76.5282 344.788Z" fill="#ED824C"/>
<path d="M8.64787 381.699C10.0963 383.988 15.1233 390.157 18.7231 393.535C22.3229 396.913 19.6218 401.03 22.3229 401.993C25.0241 402.955 35.6386 401.305 41.2154 402.928C46.7922 404.551 59.188 410.08 64.2521 410.08C69.3161 410.08 72.3503 402.78 79.5447 404.556C86.739 406.332 98.4424 414.024 102.941 413.236C107.439 412.448 102.581 407.025 101.503 402.928C100.425 398.831 97.9349 390.559 91.063 390.136C81.4794 389.544 82.4256 375.007 77.3192 371.687C75.4903 370.498 68.4122 375.8 66.4352 375.8C64.4582 375.8 56.36 375.002 51.6765 373.622C46.993 372.242 40.3379 368.283 36.1989 374.003C32.0599 379.722 27.72 381.895 23.7607 380.309C19.8015 378.723 5.55023 376.81 8.64787 381.699Z" fill="#ED824C"/>
<path d="M43.5503 186.1C43.5503 188.743 44.6075 193.5 45.1361 196.455C45.6647 199.41 43.8199 203.259 37.2387 203.259C30.6576 203.259 15.3914 197.639 10.655 197.639C5.91872 197.639 3.80957 196.455 -0.139114 198.528C-4.08781 200.6 -13.8353 206.515 -21.2094 205.315C-28.5835 204.115 -32.5269 196.006 -37.7918 195.8C-43.0567 195.594 -41.7405 200.309 -50.4255 200.309C-59.1106 200.309 -70.169 198.237 -72.8015 197.941C-75.434 197.645 -84.119 202.968 -95.9651 203.856C-107.811 204.744 -118.077 200.309 -124.922 199.421C-131.768 198.533 -136.24 199.717 -142.292 202.064C-148.345 204.411 -161.512 210.939 -166.249 201.176C-170.985 191.412 -164.404 189.932 -154.931 189.044C-145.459 188.156 -145.982 184.287 -141.24 177.209C-136.499 170.131 -123.342 178.985 -114.916 177.209C-106.49 175.433 -104.19 165.807 -102.61 163.74C-101.029 161.673 -93.5969 162.714 -84.3833 162.122C-75.1696 161.53 -68.5885 155.61 -65.1684 162.122C-61.7483 168.635 -57.0067 177.505 -48.845 177.209C-40.6833 176.913 -33.3145 171.886 -28.0496 173.958C-22.7847 176.03 -9.88663 180.761 -5.41461 180.761C-0.942596 180.761 14.3289 178.118 16.697 179.873C19.0652 181.628 16.4327 186.676 22.2263 185.788C28.0198 184.9 31.7148 180.47 43.5503 186.1Z" fill="#ED824C"/>
<path d="M165.265 489.889C166.285 492.828 173.025 494.72 178.252 496.105C183.48 497.49 186.102 499.356 187.498 503.104C188.893 506.852 197.658 510.764 200.274 509.183C202.891 507.603 215.81 506.82 217.718 505.636C219.627 504.452 217.301 495.016 219.568 492.849C221.836 490.682 233.169 485.549 228.46 481.801C223.75 478.053 216.471 481.209 212.702 481.801C208.933 482.393 201.955 476.283 193.413 477.07C184.871 477.858 182.603 479.042 181.731 481.801C172.173 482.002 163.346 484.365 165.265 489.889Z" fill="#ED824C"/>
<path d="M-68.3553 492.276C-71.0565 495.088 -73.9321 504.688 -77.1196 507.658C-80.3071 510.629 -70.4803 514.943 -63.5714 511.702C-56.6625 508.462 -47.3749 508.938 -45.7785 509.514C-44.1821 510.09 -39.4035 516.56 -29.8463 516.291C-20.289 516.021 -16.8319 511.163 -15.2355 511.163C-13.6391 511.163 -13.9087 515.831 -9.39444 518.088C-4.88013 520.345 9.7306 519.801 14.7735 516.56C19.8164 513.32 27.5235 511.702 34.4271 514.134C41.3307 516.566 44.5658 510.376 43.5086 505.877C42.4514 501.379 37.6569 496.891 33.0686 495.448C28.9983 494.168 24.484 496.426 19.2772 496.87C14.0704 497.314 6.45322 496.595 1.67461 495.696C-3.104 494.797 -9.8649 491.198 -14.4532 492.276C-19.0415 493.354 -22.2026 497.673 -22.2026 497.673C-28.7573 496.774 -28.2234 490.273 -35.8354 489.58C-43.4473 488.888 -50.5307 491.737 -55.489 491.018C-60.4473 490.299 -64.7238 488.496 -68.3553 492.276Z" fill="#ED824C"/>
<path d="M25.4189 536.182C28.5219 533.481 37.1646 533.571 42.1546 534.517C47.1447 535.463 53.895 534.649 56.1945 533.169C58.4939 531.689 64.335 525.737 73.2896 525.769C77.5608 525.769 87.8158 527.957 91.8226 529.004C97.669 530.537 97.6373 535.754 97.4893 537.773C97.3413 539.793 95.8717 544.386 99.1121 546.68C102.352 548.975 109.637 549.514 113.554 551.131C117.471 552.749 122.323 557.607 117.872 559.23C113.421 560.852 100.597 557.876 95.8717 557.475C91.146 557.073 88.1805 554.773 85.2097 557.337C82.2389 559.901 82.646 562.063 77.8092 561.524C72.9725 560.985 69.9805 552.347 63.0981 551.808C56.2156 551.269 59.7203 559.092 59.7203 559.092C50.274 560.038 38.1267 561.386 32.053 558.283C25.9793 555.18 25.9846 547.003 25.4189 536.182Z" fill="#ED824C"/>
<path d="M98.0289 588.407C94.8572 581.836 89.9306 577.972 82.5565 578.892C78.0634 579.421 59.4299 579.881 54.8416 579.072C50.2533 578.263 47.013 582.043 42.4247 582.582C37.8363 583.121 29.4685 580.15 25.4194 573.432C25.4194 573.432 17.5907 577.185 9.22282 577.994C0.854973 578.802 -11.2871 581.234 -17.0173 583.623C-22.7474 586.013 -19.9246 588.518 -24.7878 588.518C-29.651 588.518 -33.9644 583.121 -36.4171 583.66C-38.8699 584.199 -38.5791 588.788 -53.692 587.979C-59.4433 587.672 -65.0835 587.001 -69.8991 586.657C-84.4887 585.272 -93.0997 588.608 -95.2723 588.608C-97.4449 588.608 -95.8009 582.492 -101.214 582.851C-106.627 583.211 -114.17 588.248 -118.309 588.608C-122.448 588.967 -127.486 601.739 -121.729 602.997C-115.973 604.255 -108.588 602.817 -103.371 601.559C-98.1532 600.301 -80.3391 609.62 -74.757 607.749C-69.1749 605.878 -71.5854 598.625 -64.0633 602.42C-60.4741 604.773 -56.1342 609.261 -45.8792 609.292C-29.6827 609.366 -23.202 605.983 -15.1037 608.41C-7.00542 610.836 -4.03993 607.881 -0.260391 604.096C3.51916 600.311 6.75952 602.743 20.7941 605.444C21.8513 604.635 25.1128 600.047 34.2894 602.473C43.466 604.9 54.535 602.267 64.7953 599.032C75.0556 595.797 79.9981 600.021 85.411 601.908C90.8239 603.795 102.437 597.578 98.0289 588.407Z" fill="#ED824C"/>
<path d="M-75.2912 20.7892C-63.5931 20.1126 -60.7915 24.6533 -54.057 25.0604C-47.3226 25.4674 -35.0272 19.3673 -30.7243 18.7594C-26.4214 18.1515 -23.1652 23.6331 -19.6553 24.6481C-16.1453 25.663 -14.5278 18.8704 -13.4494 18.7118C-12.3711 18.5532 0.29438 19.769 7.03941 18.7858C13.7844 17.8026 20.2546 13.5579 27.5547 14.7737C34.8547 15.9895 46.5845 25.7211 53.0758 26.1282C59.5671 26.5352 55.7717 32.0116 60.6296 33.2326C65.4875 34.4537 67.1103 29.58 76.287 29.1729C85.4636 28.7659 98.9642 28.343 101.93 33.4018C104.895 38.4606 103.822 43.3555 93.5618 43.9739C83.3016 44.5924 79.2577 42.552 73.3162 43.9739C67.3746 45.3959 64.6787 52.9074 51.7226 50.4705C38.7664 48.0336 34.7173 41.9758 29.0718 41.9758C23.4262 41.9758 32.5817 45.6285 23.1355 49.2864C13.6893 52.9444 -4.78027 53.7796 -16.0079 49.4873C-23.5035 46.6223 -30.164 45.9932 -33.4942 40.501C-34.858 38.2544 -39.0023 43.7043 -43.2153 44.0004C-49.6802 44.4603 -55.3257 46.1677 -63.2284 46.0461C-69.2492 45.9509 -86.5875 48.0389 -88.2262 36.2774C-90.0182 23.5486 -84.1454 21.2967 -75.2912 20.7892Z" fill="#ED824C"/>
<path d="M-131.138 74.7081C-134.521 83.0443 -128.976 91.3593 -116.29 91.0949C-103.603 90.8306 -99.5541 82.5209 -91.7254 82.8962C-83.8967 83.2716 -85.7891 87.5639 -81.2008 88.3198C-76.6125 89.0757 -65.9769 86.3005 -61.304 86.8079C-56.6311 87.3154 -42.6019 90.6351 -42.3323 94.7741C-42.0627 98.9131 -39.499 106.62 -36.7502 108.333C-27.304 114.222 -13.1796 113.836 -11.3771 109.512C-9.90227 105.959 -11.0176 102.698 -8.05212 102.444C-5.08663 102.19 -7.52352 107.968 2.47774 110.373C12.479 112.778 24.3409 102.862 33.4277 103.618C42.5145 104.374 45.2103 113.83 59.8898 113.291C70.7632 112.884 82.6199 109.813 85.3422 101.662C86.9651 96.7986 85.7968 93.9759 83.8727 92.501C80.5742 89.9637 73.3005 91.761 73.5596 87.622C73.6177 86.7234 83.3652 88.7955 88.0434 86.8027C94.4448 84.075 96.6438 83.4566 105.947 82.2566C115.843 80.988 129.703 85.4547 132.404 79.085C135.317 72.1867 120.976 65.1245 110.731 65.3782C100.487 65.6319 87.2505 68.6556 83.4709 69.6652C79.6914 70.6748 67.2744 65.7165 62.9557 65.209C58.637 64.7016 56.7498 72.525 52.1615 73.0324C47.5732 73.5399 42.1709 67.9842 34.0726 67.9842C28.9187 67.9842 18.2144 67.6512 11.6702 69.8079C7.93297 71.0396 2.19229 74.8878 -3.50081 74.8878C-19.1529 74.8878 -28.5515 72.192 -40.6936 69.4168C-52.8357 66.6416 -53.8454 64.1307 -56.7157 68.8882C-59.5861 73.6456 -62.2872 76.2041 -64.7188 71.1612C-67.1504 66.1183 -67.9592 64.5906 -81.9937 65.3465C-96.0282 66.1024 -98.1004 69.3903 -107.996 70.6326C-117.891 71.8748 -128.168 67.3922 -131.138 74.7081Z" fill="#ED824C"/>
<path d="M1072.56 401.961C1068.86 402.933 1070.58 410.027 1071.51 411.375C1072.43 412.723 1072.04 416.08 1073.84 418.601C1075.65 421.123 1083.36 417.592 1089.32 418.601C1095.28 419.611 1108.75 424.31 1111.99 423.808C1115.23 423.306 1115.05 420.954 1117.03 420.446C1119.01 419.939 1120.63 422.465 1122.79 422.968C1124.95 423.47 1129.81 418.601 1135.75 420.113C1141.69 421.625 1151.95 423.549 1156.8 423.845C1161.66 424.141 1163.31 422.465 1167.52 421.287C1171.74 420.108 1178.04 417.925 1170.48 416.08C1162.92 414.235 1158.78 414.975 1155.73 412.908C1152.67 410.841 1149.78 405.476 1145.64 406.316C1141.51 407.157 1140.97 410.017 1137.19 409.678C1133.41 409.34 1129.63 404.636 1125.49 403.795C1121.35 402.955 1120.27 403.626 1115.23 404.466C1110.2 405.307 1105.72 400.1 1102.28 399.931C1098.84 399.762 1097.6 406.147 1097.6 406.147C1095.26 405.307 1094.9 398.419 1088.61 398.583C1082.33 398.747 1077.06 400.787 1072.56 401.961Z" fill="#ED824C"/>
<path d="M1068.27 660.381C1064.57 661.353 1066.29 668.447 1067.21 669.795C1068.14 671.143 1067.74 674.5 1069.55 677.021C1071.36 679.543 1079.07 676.012 1085.03 677.021C1090.99 678.031 1104.46 682.73 1107.7 682.228C1110.94 681.726 1110.76 679.374 1112.74 678.866C1114.72 678.359 1116.34 680.885 1118.5 681.388C1120.66 681.89 1125.51 677.021 1131.46 678.533C1137.4 680.045 1147.65 681.969 1152.51 682.265C1157.37 682.561 1159.01 680.885 1163.23 679.707C1167.45 678.528 1173.74 676.345 1166.19 674.5C1158.63 672.655 1154.49 673.395 1151.43 671.328C1148.38 669.261 1145.49 663.896 1141.35 664.736C1137.21 665.577 1136.67 668.437 1132.89 668.098C1129.11 667.76 1125.33 663.055 1121.2 662.215C1117.06 661.374 1115.98 662.046 1110.94 662.886C1105.9 663.727 1101.43 658.52 1097.98 658.351C1094.54 658.182 1093.31 664.567 1093.31 664.567C1090.96 663.727 1090.61 656.839 1084.32 657.003C1078.04 657.167 1072.77 659.207 1068.27 660.381Z" fill="#ED824C"/>
<path d="M1024 252.307C1024.06 257.831 1027.85 265.411 1032.72 265.607C1037.58 265.802 1042.67 262.472 1048.26 263.534C1050.26 263.915 1051.91 267.166 1055.35 267.176C1062.1 267.176 1057.77 262.794 1062.45 261.89C1067.13 260.986 1077.94 265.591 1083.16 265.004C1088.38 264.417 1091.8 261.055 1094.5 260.664C1097.19 260.273 1109.97 264.021 1111.05 263.524C1112.13 263.027 1113.93 262.435 1115.73 257.709C1117.53 252.983 1119.87 247.454 1124.19 246.08C1128.51 244.705 1129.77 236.808 1124.19 237.004C1118.6 237.199 1116.09 239.176 1112.85 239.964C1109.62 240.751 1102.81 237.5 1099.22 237.199C1095.63 236.898 1090.23 237.305 1085.19 237.199C1080.14 237.093 1079.07 246.762 1076.2 246.566C1073.34 246.37 1075.12 239.858 1070.8 240.059C1066.48 240.26 1066.12 245.778 1060.54 248.141C1054.97 250.504 1055.45 251.223 1047.89 251.815C1040.33 252.407 1023.95 245.757 1024 252.307Z" fill="#ED824C"/>
<path d="M1109.61 127.128C1107.3 124.676 1101.96 121.415 1098.02 121.182C1094.07 120.95 1087.69 128.443 1085 127.962C1082.31 127.481 1085.51 123.494 1081.75 122.982C1077.99 122.47 1065.72 123.029 1060.4 120.709C1055.08 118.389 1056.76 116.493 1053.89 116.202C1051.01 115.91 1050.11 121.534 1047.25 121.047C1044.38 120.56 1044.27 113.157 1040.54 111.472C1036.82 109.787 1031.1 109.21 1027.41 111.033C1023.73 112.857 1016.96 117.502 1011.91 117.138C1006.87 116.773 998.275 115.318 997.294 115.089C996.312 114.861 997.824 118.227 995.79 119.72C993.757 121.212 990.948 119.167 985.747 118.607C980.545 118.047 970.157 127.077 978.765 128.121C987.372 129.165 992.297 127.404 996.03 128.698C999.763 129.991 1004.68 134.054 1007.18 134.529C1009.68 135.003 1010.34 132.296 1011.43 131.55C1012.52 130.804 1021.16 136.36 1026.88 137.72C1032.6 139.08 1037.83 134.579 1041.34 134.109C1044.85 133.639 1043.39 136.013 1053.58 138.802C1063.77 141.591 1069.62 143.686 1073.16 142.926C1076.7 142.166 1077.51 138.099 1077.51 138.099C1084.9 139.076 1086.8 138.843 1093.17 138.183C1099.54 137.523 1106.01 139.278 1107.32 138.947C1111.77 137.826 1113.1 130.841 1109.61 127.128Z" fill="#ED824C"/>
<path d="M1079.27 47.5461C1079.88 43.9091 1080.67 37.0727 1081.74 27.4377L1068.95 18.1173C1064.03 20.8782 1061.41 19.2207 1054.67 19.1761C1047.92 19.1316 1040.91 19.3382 1035.27 21.5965C1029.63 23.8548 1028.54 29.6454 1025.82 30.8295C1023.09 32.0136 1016.13 29.429 1010.89 31.1286C1005.65 32.8281 995.988 33.2239 991.419 40.1635C986.85 47.1031 985.838 53.7434 990.154 55.5226C994.469 57.3019 997.585 49.6245 1001.64 49.6985C1005.69 49.7725 1002.52 59.1924 1006.45 56.9325C1010.38 54.6726 1018.35 48.8295 1022.7 47.9928C1027.06 47.1562 1031.83 51.5166 1037.96 49.904C1044.09 48.2914 1047.78 46.6394 1053.12 50.5321C1057.38 53.6276 1058.42 58.1511 1065.01 57.6983C1071.59 57.2456 1078.66 51.183 1079.27 47.5461Z" fill="#ED824C"/>
<path d="M1199.94 196.304C1198.11 200.977 1200.68 207.125 1205.24 208.177C1209.81 209.23 1218.91 211.367 1221.11 211.9C1223.3 212.432 1228.39 216.776 1228.47 219.131C1228.55 221.486 1232.77 225.738 1234.9 225.253C1237.04 224.768 1239.63 218.558 1241.97 219.351C1244.32 220.144 1250.23 225.454 1253.93 226.138C1257.63 226.822 1264.45 223.019 1266.61 224.6C1270.65 227.572 1276.51 227.588 1280.98 226.497C1284.02 225.772 1287.01 223.787 1287.72 220.867C1296.31 219.798 1297.16 219.128 1297.03 216.863C1296.89 214.598 1299.34 207.84 1287.66 207.483C1275.98 207.126 1270.19 209.953 1267.75 209.542C1265.31 209.131 1266.41 206.419 1262.21 206.764C1258.01 207.11 1260.02 210.036 1254.73 209.579C1249.45 209.122 1240.87 206.68 1237.34 205.611C1236.36 205.284 1235.32 205.177 1234.3 205.296C1233.27 205.415 1232.29 205.758 1231.41 206.3C1227.31 202.194 1226 202.335 1221.79 201.503C1217.57 200.671 1205.31 194.424 1199.94 196.304Z" fill="#ED824C"/>
<path d="M1199.13 536.513C1203.68 534.155 1210.97 534.927 1217.18 534.155C1223.38 533.383 1231.21 530.27 1234.72 528.684C1238.23 527.098 1253.72 518.207 1261 518.73C1268.29 519.254 1262.99 532.522 1266.29 532.326C1269.59 532.13 1280.49 536.148 1277.75 541.74C1272.78 551.911 1257.32 551.16 1250.51 549.331C1243.69 547.502 1235.51 544.706 1226.34 547.798C1217.16 550.891 1213.92 552.202 1205.55 549.585C1197.19 546.968 1190.71 546.186 1187.74 545.663C1184.77 545.139 1176.11 547.497 1174.38 543.443C1172.65 539.388 1184.1 538.209 1186.66 538.209C1189.22 538.209 1196.75 537.744 1199.13 536.513Z" fill="#ED824C"/>
<path d="M1237.97 493.416C1237.07 498.422 1240.67 503.164 1241.75 504.718C1242.84 506.272 1237.43 509.782 1232.56 510.109C1227.7 510.437 1219.43 513.873 1217.09 514.037C1214.76 514.201 1208.81 510.929 1206.29 511.093C1203.77 511.257 1207.92 515.02 1205.57 516.659C1203.23 518.298 1189.56 519.302 1185.78 519.931C1182 520.56 1174.95 525.132 1170.56 525.132C1166.17 525.132 1165.99 526.116 1160.95 524.313C1155.91 522.511 1150.69 522.838 1149.79 519.894C1148.89 516.95 1149.61 517.928 1150.85 513.508C1152.08 509.089 1151.21 508.603 1152.65 504.342C1154.09 500.082 1160.93 499.273 1164.7 499.765C1168.48 500.256 1177.84 496.651 1181.62 495.668C1185.39 494.685 1187.92 494.526 1192.42 496.487C1196.92 498.448 1205.01 495.996 1209.51 496.815C1214.01 497.634 1231.31 497.322 1237.97 493.416Z" fill="#ED824C"/>
<path d="M1247.83 455.809C1246.25 461.386 1243.12 467.925 1239.78 468.696C1236.44 469.468 1227.02 469.082 1224.86 468.696C1222.7 468.311 1220.35 471.773 1217.8 471.773C1215.24 471.773 1215.05 470.044 1211.52 470.044C1207.98 470.044 1204.64 470.811 1200.92 471.773C1197.19 472.735 1187.77 469.849 1180.89 469.659C1174.02 469.468 1164.99 473.887 1160.67 475.04C1156.36 476.192 1153.8 472.349 1149.48 472.159C1145.16 471.969 1142.13 477.926 1136.27 478.698C1130.41 479.47 1124.34 479.274 1120.02 476.197C1115.71 473.121 1112.17 471.969 1110.6 467.444C1109.89 465.394 1109.96 463.156 1110.79 461.153C1111.62 459.151 1113.16 457.524 1115.11 456.581C1118.85 454.852 1127.18 448.842 1133.09 447.885C1138.99 446.928 1148 451.728 1151.34 452.69C1154.67 453.652 1156.02 450.38 1159.27 450.19C1162.52 450 1165.86 454.805 1170.37 455.767C1174.88 456.729 1181.47 448.895 1190.89 449.852C1200.32 450.808 1206.22 454.081 1209.92 454.081C1213.62 454.081 1222.68 450.042 1226.61 450.428C1230.53 450.814 1247.83 453.113 1247.83 455.809Z" fill="#ED824C"/>
<path d="M1085.83 74.0789C1089.65 75.9156 1090.03 71.471 1094.13 77.5388C1098.24 83.6066 1092.91 91.3761 1083.68 91.3254C1074.45 91.2746 1074.64 94.7416 1072.49 94.9353C1070.34 95.129 1070.49 84.7186 1068.82 85.7607C1067.15 86.8028 1069.52 95.06 1066.35 97.4214C1063.17 99.7828 1057.04 101.079 1052.3 100.912C1047.56 100.745 1032.19 88.0979 1024.7 89.1554C1019.7 90.4292 1011.04 91.8309 1009.89 90.7834C1008.5 89.5175 1000.27 90.2606 997.144 91.7309C994.023 93.2012 983.7 96.908 981.569 97.3496C979.438 97.7913 968.48 94.5175 966.045 95.528C963.61 96.5384 957.635 100.437 952.511 99.7153C947.388 98.9937 942.748 97.6236 939.665 97.5089C936.581 97.3942 931.45 98.5257 927.837 96.5374C922.307 93.4854 919.83 89.3884 919.703 85.5041C919.487 79.0432 924.694 81.3494 926.814 78.7805C928.933 76.2115 930.731 73.0188 933.905 72.1381C937.08 71.2574 940.176 73.1065 945.782 75.1751C951.387 77.2438 953.334 76.8772 954.546 74.1884C955.757 71.4997 957.378 71.2846 961.716 71.3073C966.055 71.3301 967.643 80.8784 971.079 80.9612C974.515 81.0441 968.416 71.4993 968.435 69.7142C968.455 67.9291 978.9 67.6347 983.38 67.2306C987.861 66.8266 1000.86 72.7766 1005.13 73.979C1009.36 75.1717 1016.58 74.1412 1020.36 73.603L1020.45 73.5899C1024.19 73.0557 1023.43 68.5656 1027.8 68.9674C1029.89 69.1556 1033.06 70.4194 1036.05 72.1985C1042.61 75.8165 1053.28 76.4832 1057.95 76.5929C1062.79 76.7031 1068.75 72.5461 1071.68 71.9845C1074.61 71.4228 1082.01 72.2422 1085.83 74.0789Z" fill="#ED824C"/>
<path d="M1232.03 326.225C1230.9 321.499 1241.54 320.305 1245.7 320.305C1249.86 320.305 1253.63 318.333 1257.94 317.741C1262.25 317.149 1275.38 321.489 1280.53 321.092C1285.67 320.696 1287.81 315.769 1289.61 314.585C1291.41 313.401 1292.85 316.557 1296.45 316.557C1300.05 316.557 1302.11 301.37 1302.26 299.203C1302.41 297.035 1313.73 299.007 1318.95 299.203C1324.18 299.398 1327.59 295.254 1333.17 295.058C1338.75 294.863 1360.16 300.778 1363.76 300.979C1367.36 301.18 1365.02 312.418 1367.18 311.826C1369.34 311.234 1368.8 302.75 1375.46 302.951C1382.12 303.151 1382.22 306.122 1386.9 304.959C1391.58 303.796 1399.76 302.729 1401.02 304.024C1402.27 305.319 1404.8 313.01 1411.46 313.602C1418.12 314.194 1422.97 313.206 1423.87 319.121C1424.77 325.036 1419.91 331.945 1410.2 330.364C1401.38 338.822 1400.48 340.408 1394.72 337.664C1388.96 334.921 1386.43 329.772 1380.13 330.163C1373.82 330.554 1371.85 330.359 1365.73 331.939C1359.62 333.52 1352.23 334.503 1348.29 330.951C1344.34 327.399 1341.45 328.784 1337.49 331.146C1333.53 333.509 1329.93 338.251 1328.13 334.894C1326.33 331.538 1317.87 330.554 1308.51 332.727C1299.16 334.9 1292.32 333.123 1291.42 332.923C1282.96 337.067 1275.4 337.854 1270.19 334.699C1260.29 340.418 1260.83 341.602 1250.75 336.285C1240.67 330.967 1234.19 335.296 1232.03 326.225Z" fill="#ED824C"/>
<path d="M1274.14 456.454C1267.89 457.585 1265.23 466.196 1263.35 470.087C1261.46 473.977 1258.76 480.31 1259.3 483.228C1259.84 486.146 1265.91 484.66 1269.15 487.092C1272.39 489.524 1276.99 494.672 1278.88 498.563C1280.77 502.453 1281.04 504.647 1291.04 507.549C1301.04 510.451 1301.84 502.686 1306.16 501.951C1310.48 501.216 1318.04 507.306 1321.81 509.494C1325.59 511.683 1328.56 508.279 1333.97 508.035C1339.39 507.792 1356.91 504.631 1361.5 504.864C1367.17 509.484 1376.89 514.595 1384.99 513.623C1393.09 512.65 1394.7 508.997 1396.86 510.705C1399.02 512.412 1400.64 512.888 1403.61 513.744C1406.58 514.601 1418.7 501.745 1427.34 504.917C1435.98 508.088 1448.13 507.385 1454.87 506.148C1461.62 504.911 1468.61 508.791 1474.58 510.271C1480.54 511.751 1493.74 510.515 1496.17 508.564C1498.6 506.613 1492.39 504.43 1486.72 503.458C1481.06 502.485 1479.17 496.845 1482.41 496.866C1485.65 496.887 1493.47 498.103 1502.78 495.185C1512.1 492.267 1510.74 489.83 1512.37 487.399C1513.99 484.967 1509.13 484.962 1516.96 483.503C1524.78 482.044 1523.43 477.159 1514.52 475.959C1505.62 474.76 1499.14 474.501 1491.58 472.555C1484.02 470.61 1467.56 464.499 1464.03 465.472C1460.51 466.445 1459.17 468.644 1452.7 469.362C1446.22 470.081 1445.68 470.578 1441.36 468.147C1437.04 465.715 1434.88 464.013 1426.51 463.04C1418.14 462.068 1421.92 461.819 1415.45 462.797C1408.97 463.775 1410.59 463.283 1406.27 462.062C1401.95 460.841 1391.42 459.874 1383.32 462.549C1375.23 465.223 1375.17 473.279 1371.93 473.279C1368.69 473.279 1377.34 462.755 1361.48 461.09C1356.24 460.561 1354.46 459.874 1348.27 459.874C1342.07 459.874 1323.7 463.283 1319.11 461.333C1314.53 459.382 1307.24 455.254 1307.24 455.254C1304 460.117 1304.54 463.283 1296.44 461.597C1288.34 459.911 1287.64 454.017 1274.14 456.454Z" fill="#ED824C"/>
<path d="M1186.57 418.052C1186.2 421.335 1190.64 424.559 1194.67 423.973C1198.71 423.386 1204.38 417.46 1208.16 418.052C1211.94 418.644 1207.35 421.753 1210.05 424.041C1212.74 426.33 1223 424.406 1230.02 424.041C1237.04 423.677 1244.6 425.448 1248.11 427.52C1251.62 429.592 1255.67 420.42 1257.83 420.119C1259.99 419.818 1267 434.455 1269.7 435.274C1272.4 436.094 1281.13 434.312 1285.68 432.848C1290.23 431.384 1292.92 427.52 1298.31 428.408C1303.71 429.296 1311.53 434.46 1315.86 435.28C1320.19 436.099 1333.95 432.848 1336.1 432.848C1338.26 432.848 1344.97 431.067 1346.59 428.878C1348.2 426.69 1348.48 429.819 1349.02 433.726C1349.56 437.632 1360.09 438.483 1363.59 437.616C1367.1 436.749 1375.98 432.98 1383.27 434.228C1390.56 435.475 1381.45 426.928 1379.57 421.901C1377.68 416.874 1381.46 414.5 1376.6 412.729C1371.74 410.958 1360.13 407.972 1353.92 410.086C1347.71 412.201 1337.19 415.113 1332.33 412.454C1327.47 409.795 1304.53 407.422 1302.64 407.422C1300.74 407.422 1289.24 397.378 1285.68 398.547C1282.13 399.715 1270.52 404.763 1266.2 405.059C1261.88 405.355 1250.81 403.875 1247.57 403.579C1244.33 403.283 1242.44 404.171 1235.69 405.059C1228.94 405.947 1217.07 405.059 1212.21 403.875C1207.36 402.691 1187.91 405.921 1186.57 418.052Z" fill="#ED824C"/>
<path d="M247.17 435.699C245.722 437.988 240.695 444.157 237.095 447.535C233.495 450.913 236.197 455.03 233.495 455.993C230.794 456.955 220.18 455.305 214.603 456.928C209.026 458.551 196.63 464.08 191.566 464.08C186.502 464.08 183.468 456.78 176.274 458.556C169.079 460.332 157.376 468.024 152.878 467.236C148.379 466.448 153.237 461.025 154.315 456.928C155.394 452.831 157.883 444.559 164.755 444.136C174.339 443.544 173.393 429.007 178.499 425.687C180.328 424.498 187.406 429.8 189.383 429.8C191.36 429.8 199.458 429.002 204.142 427.622C208.825 426.242 215.48 422.283 219.619 428.003C223.758 433.722 228.098 435.895 232.058 434.309C236.017 432.723 250.268 430.81 247.17 435.699Z" fill="#ED824C"/>
<path d="M1278.09 267.586C1282.3 268.228 1287.92 253.805 1287.92 253.805C1280.57 253.866 1268.08 248.06 1264.21 248.637C1260.34 249.214 1264.53 252.967 1259.24 254.154C1253.94 255.341 1251.52 250.3 1245.09 249.571C1238.65 248.841 1222.08 251.191 1218.21 252.06C1214.33 252.93 1198.55 245.783 1194.5 245.323C1190.45 244.864 1180.05 248.154 1174.75 249.341C1169.46 250.528 1151.07 248.119 1146.87 250.025C1142.66 251.931 1141.32 257.339 1145.98 257.867C1150.63 258.394 1159.86 256.86 1160.28 259.489C1160.71 262.117 1160.24 266.23 1164.55 266.522C1168.87 266.814 1175.77 263.427 1175.77 263.427C1180.89 267.779 1184.87 269.432 1190.3 269.447C1195.73 269.461 1206.53 265.329 1209.3 265.643C1212.07 265.957 1211.53 267.492 1214.71 268.24C1217.88 268.989 1231.85 270.381 1233.63 267.407C1235.42 264.434 1234.89 264.358 1238.01 267.111C1241.14 269.865 1250.82 270.745 1255.22 268.664C1259.62 266.583 1273 266.482 1278.09 267.586Z" fill="#ED824C"/>
<path d="M1069.37 360.086C1069.37 362.529 1068.73 368.919 1072.2 369.073C1075.67 369.226 1075.66 368.745 1078.02 369.073C1080.37 369.4 1081.5 371.848 1083.43 374.644C1085.36 377.441 1090.31 379.359 1095.8 379.671C1101.29 379.983 1116.77 380.623 1119.33 380.623C1121.88 380.623 1128.2 373.809 1128.2 373.809C1129.86 375.294 1133.24 384.587 1135.98 384.741C1138.72 384.894 1143.26 382.024 1146.18 382.367C1149.1 382.711 1155.35 382.896 1158.04 382.288C1163.11 381.199 1167.92 375.247 1170.36 379.285C1179.41 394.208 1189.39 383.488 1189.72 379.914C1189.96 377.229 1197.23 382.626 1200.15 382.589C1203.07 382.552 1214.74 381.098 1219.12 381.236C1223.5 381.373 1228.58 377.536 1233.7 377.684C1238.81 377.832 1250.16 380.855 1251.61 379.719C1253.05 378.582 1251.38 375.215 1254.84 374.433C1258.3 373.65 1267.28 377.293 1268.92 376.896C1270.56 376.5 1273.54 368.967 1270.24 365.61C1266.95 362.254 1260.73 360.853 1257.81 360.853C1254.88 360.853 1247.81 364.918 1244.87 363.454C1241.93 361.989 1241.7 358.791 1237.15 358.099C1232.61 357.406 1234.26 360.573 1231.71 361.921C1229.17 363.269 1218.69 356.439 1215.78 357.036C1212.87 357.634 1204.41 359.801 1197.24 359.891C1190.07 359.981 1180.35 356.333 1176.52 355.815C1172.68 355.297 1171.09 360.573 1167.82 362.307C1164.55 364.04 1167.76 356.492 1163.9 353.711C1160.03 350.931 1140.48 348.066 1133.91 347.77C1127.33 347.474 1121.66 357.998 1116.91 357.893C1112.16 357.787 1113.92 350.836 1106.44 351.29C1098.96 351.745 1097.49 352.432 1088.36 353.151C1083.07 353.569 1079.18 354.89 1076.08 354.737C1072.97 354.584 1069.38 356.138 1069.37 360.086Z" fill="#ED824C"/>
<path d="M1272.21 288.203C1271.51 283.081 1270.22 281.659 1264.04 282.917C1257.87 284.175 1251.89 287.024 1245.91 288.203C1239.94 289.382 1231.17 289.392 1225.99 288.203C1220.81 287.014 1217.18 288.303 1208.41 289.974C1199.65 291.644 1193.99 290.957 1196.25 294.414C1198.32 297.586 1200.63 299.79 1205.52 300.134C1212.83 300.662 1213.8 300.953 1218.39 301.191C1222.97 301.429 1226.58 297.739 1227.97 296.544C1229.37 295.35 1230.16 304.415 1237.73 304.177C1245.3 303.94 1250.28 299.166 1251.47 299.166C1252.66 299.166 1254.86 300.123 1259.04 301.075C1263.23 302.026 1290.54 302.274 1272.21 288.203Z" fill="#ED824C"/>
<path d="M1068.18 208.141C1068.93 210.741 1070.37 215.98 1073.92 215.684C1077.47 215.388 1081.32 211.555 1083.91 211.915C1086.49 212.274 1086.78 215.266 1089.51 215.694C1092.25 216.123 1094.43 211.243 1096.49 210.651C1098.55 210.059 1096.63 212.28 1099.66 213.294C1102.7 214.309 1112.79 212.597 1116.35 211.91C1119.91 211.222 1124.28 211.381 1126.06 212.998C1127.84 214.616 1133.18 220.151 1135.5 219.87C1137.83 219.59 1141.52 219.955 1141.52 221.139C1141.52 222.323 1134.31 227.35 1139.88 229.998C1143.74 231.833 1153.42 229.01 1157.52 226.399C1161.63 223.787 1164.13 222.122 1170.7 223.01C1177.27 223.898 1187.21 224.11 1188.02 222.63C1188.84 221.15 1189.81 219.109 1187.07 215.694C1184.33 212.28 1182.24 209.235 1182.1 207.765C1181.96 206.296 1184.19 201.11 1180.2 199.926C1176.22 198.742 1172.57 202.802 1169.42 203.473C1166.28 204.144 1164.23 199.863 1160.39 198.975C1156.56 198.086 1143.98 199.567 1142.75 199.863C1141.52 200.159 1138.37 201.929 1136.18 201.781C1134 201.633 1125.38 199.006 1120.73 198.694C1116.08 198.382 1114.15 201.755 1112.64 201.755C1111.13 201.755 1109.36 199.53 1103.75 198.647C1098.14 197.764 1094.91 200.92 1090.62 201.607C1086.33 202.294 1077.12 201.607 1073.93 201.607C1070.74 201.607 1067.15 204.567 1068.18 208.141Z" fill="#ED824C"/>
<path d="M1203.55 573.931C1200.98 575.147 1199.88 579.316 1201.99 582.742C1204.09 586.169 1203.89 593.049 1203.31 596.619C1202.73 600.189 1200.44 604.193 1202.9 609.392C1205.37 614.591 1212.95 612.584 1220.67 612.953C1230.83 613.449 1234.06 603.041 1234.06 603.041C1233.83 611.732 1237.18 617.447 1242.05 618.096C1246.93 618.744 1250.52 616.53 1253.27 613.844C1256.01 611.159 1259.34 605.99 1261.71 605.238C1264.08 604.486 1275.26 611.344 1283.38 611.163C1291.49 610.982 1299.37 608.115 1301.25 607.948C1303.13 607.781 1304.6 612.065 1307.89 612.547C1311.19 613.028 1319.85 609.81 1322.14 608.253C1325.45 606.118 1329.28 604.934 1333.22 604.83C1338.08 604.668 1343.64 609.321 1348.76 605.882C1353.88 602.444 1356.94 597.3 1359.89 597.037C1362.85 596.774 1370.38 599.08 1373.95 596.597C1377.52 594.114 1380.32 584.243 1376.67 580.434C1371.19 574.692 1362.55 580.2 1353.02 578.703C1343.5 577.205 1327.83 573.718 1325.22 574.857C1322.62 575.997 1325.41 580.981 1321.66 581.495C1317.91 582.01 1320.24 577.827 1315.98 576.583C1311.71 575.339 1299.28 576.711 1293.6 578.305C1287.92 579.899 1281.16 578.351 1279.68 574.71C1278.01 570.613 1277.78 567.56 1271.38 568.767C1264.98 569.974 1263.07 576.777 1258.24 577.367C1253.4 577.957 1249.98 569.887 1239.56 570.274C1229.14 570.66 1223.64 574.069 1218.62 574.431C1213.59 574.794 1208.75 571.483 1203.55 573.931Z" fill="#ED824C"/>
<path d="M1097 570.414C1100.1 567.713 1108.75 567.802 1113.74 568.749C1118.73 569.695 1125.48 568.881 1127.78 567.401C1130.07 565.921 1135.92 559.968 1144.87 560C1149.14 560 1159.4 562.189 1163.4 563.235C1169.25 564.768 1169.22 569.986 1169.07 572.005C1168.92 574.024 1167.45 578.618 1170.69 580.912C1173.93 583.206 1181.22 583.745 1185.13 585.363C1189.05 586.98 1193.9 591.838 1189.45 593.461C1185 595.084 1172.18 592.108 1167.45 591.706C1162.73 591.304 1159.76 589.005 1156.79 591.569C1153.82 594.132 1154.23 596.294 1149.39 595.755C1144.55 595.216 1141.56 586.579 1134.68 586.039C1127.8 585.5 1131.3 593.324 1131.3 593.324C1121.86 594.27 1109.71 595.618 1103.63 592.515C1097.56 589.412 1097.57 581.234 1097 570.414Z" fill="#ED824C"/>
<path d="M1018.4 622.448C1018.79 616.522 1025.41 613.541 1029.73 613.002C1034.05 612.462 1046.08 609 1046.08 609C1043.44 613.319 1046.08 619.149 1051.21 617.04C1056.34 614.931 1058.5 612.505 1063.9 610.618C1069.29 608.73 1085.49 611.426 1090.08 612.505C1094.67 613.583 1100.07 612.505 1102.49 611.157C1104.92 609.809 1118.15 613.858 1125.17 614.127C1132.19 614.397 1132.96 613.319 1135.16 615.46C1139.21 619.419 1135.43 620.154 1135.43 623.917C1135.43 626.946 1143.57 632.771 1149.48 631.424C1155.4 630.076 1162.42 634.659 1164.85 634.659C1167.28 634.659 1170.78 633.041 1176.48 632.771C1182.17 632.502 1188.11 640.325 1183.76 642.487C1179.42 644.649 1173.78 644.105 1163.79 642.487C1153.81 640.87 1152.16 641.287 1144.62 643.909C1137.09 646.531 1140.22 649.232 1129.47 647.081C1118.72 644.929 1121.14 642.767 1114.93 640.605C1108.72 638.443 1109.4 643.037 1099.21 643.576C1089.03 644.115 1087.65 632.581 1086.43 632.29C1085.22 632 1086.84 640.706 1085.09 641.647C1083.33 642.588 1077.93 645.157 1072.53 644.48C1067.14 643.804 1064.03 638.137 1059.32 636.926C1054.6 635.716 1048.39 640.838 1043.46 640.706C1038.53 640.574 1035.19 637.534 1032.51 635.531C1029.83 633.527 1026.91 632.835 1021.78 632.296C1016.65 631.757 1018.14 626.492 1018.4 622.448Z" fill="#ED824C"/>
<path d="M1326.93 697.912C1325.58 703.002 1320.04 706.2 1307.94 703.198C1295.84 700.195 1283.23 699.334 1278.94 701.141C1274.65 702.949 1271.97 706.015 1267.95 704.355C1263.92 702.696 1265.27 697.172 1261.24 697.922C1257.22 698.673 1248.64 703.536 1239.52 703.911C1230.4 704.287 1224.42 698.678 1217.45 697.674C1210.48 696.669 1199.27 694.407 1191.55 694.407C1183.82 694.407 1174.81 685.949 1183.66 683.692C1192.51 681.435 1205.23 684.221 1207.98 683.692C1210.72 683.163 1214.45 675.7 1219.04 673.976C1235.13 667.95 1238.7 679.839 1242.73 680.848C1246.75 681.858 1244.6 677.333 1254.26 675.324C1263.91 673.316 1283.25 679.844 1283.25 679.844C1286.43 672.057 1281.61 666.533 1292.33 665.529C1303.06 664.525 1320.3 664.44 1321.11 669.964C1321.91 675.488 1316.46 684.739 1321.83 688.259C1327.19 691.78 1328.56 691.886 1326.93 697.912Z" fill="#ED824C"/>
<path d="M1222.36 730.585C1219.78 725.473 1231.54 721.937 1239.81 721.281C1248.08 720.626 1251.86 717.105 1255.46 717.105C1259.06 717.105 1257.8 721.292 1265 721.958C1272.2 722.624 1279.4 716.101 1286.77 717.105C1294.15 718.11 1296.82 722.555 1298.11 729.496C1298.96 734.1 1311.06 742.056 1288.59 742.056C1280.66 742.056 1271.86 737.198 1265.38 737.029C1258.91 736.859 1262.43 738.371 1250.86 739.376C1239.28 740.38 1238.54 733.682 1233.69 733.682C1228.83 733.682 1224.52 734.856 1222.36 730.585Z" fill="#ED824C"/>
<path d="M1068.36 168.585C1065.78 163.473 1077.54 159.937 1085.81 159.281C1094.08 158.626 1097.86 155.105 1101.46 155.105C1105.06 155.105 1103.8 159.292 1111 159.958C1118.2 160.624 1125.4 154.101 1132.77 155.105C1140.15 156.11 1142.82 160.555 1144.11 167.496C1144.96 172.1 1157.06 180.056 1134.59 180.056C1126.66 180.056 1117.86 175.198 1111.38 175.029C1104.91 174.859 1108.43 176.371 1096.86 177.376C1085.28 178.38 1084.54 171.682 1079.69 171.682C1074.83 171.682 1070.52 172.856 1068.36 168.585Z" fill="#ED824C"/>
<path d="M1423.35 639.975C1420.18 633.405 1415.25 629.541 1407.88 630.46C1403.39 630.989 1384.75 631.449 1380.16 630.64C1375.58 629.831 1372.34 633.611 1367.75 634.15C1363.16 634.689 1354.79 631.719 1350.74 625C1350.74 625 1342.91 628.753 1334.55 629.562C1326.18 630.371 1314.04 632.802 1308.31 635.192C1302.58 637.581 1305.4 640.086 1300.53 640.086C1295.67 640.086 1291.36 634.689 1288.91 635.229C1286.45 635.768 1286.74 640.356 1271.63 639.547C1265.88 639.241 1260.24 638.569 1255.42 638.226C1240.83 636.841 1232.22 640.176 1230.05 640.176C1227.88 640.176 1229.52 634.06 1224.11 634.42C1218.7 634.779 1211.15 639.817 1207.01 640.176C1202.87 640.536 1197.84 653.307 1203.59 654.565C1209.35 655.823 1216.73 654.385 1221.95 653.127C1227.17 651.869 1244.98 661.188 1250.57 659.317C1256.15 657.446 1253.74 650.193 1261.26 653.989C1264.85 656.341 1269.19 660.829 1279.44 660.861C1295.64 660.935 1302.12 657.552 1310.22 659.978C1318.32 662.404 1321.28 659.449 1325.06 655.665C1328.84 651.88 1332.08 654.311 1346.12 657.012C1347.17 656.204 1350.44 651.615 1359.61 654.042C1368.79 656.468 1379.86 653.835 1390.12 650.6C1400.38 647.365 1405.32 651.589 1410.73 653.476C1416.15 655.363 1427.76 649.147 1423.35 639.975Z" fill="#ED824C"/>
<path d="M1237.22 741.876C1239.49 738.277 1237.49 734.048 1233.06 731.209C1229.88 729.2 1221.92 730.585 1220.55 730.961C1219.18 731.336 1215.51 727.72 1212.75 727.757C1201.95 727.884 1197.38 727.393 1196.83 725.77C1196.28 724.147 1203.84 725.638 1204.38 721.049C1204.92 716.461 1201.95 710.879 1192.6 709.51C1189.19 708.352 1183.98 708.363 1180.56 707.845C1175.11 707.015 1173.72 707.485 1169.83 709.663C1165.93 711.841 1164.42 705.006 1160.27 704.144C1156.13 703.283 1146 707.543 1143.92 709.431C1141.83 711.318 1138.73 710.699 1132.76 709.431C1126.79 708.162 1123.93 705.344 1117.96 704.023C1111.98 702.701 1112.25 708.934 1112.08 711.619C1111.92 714.304 1110.01 716.408 1108.63 711.429C1107.24 706.449 1103.98 702.226 1099.81 702.035C1095.65 701.845 1088.55 702.416 1086.13 703.949C1083.71 705.482 1077.82 703.373 1075.03 703.182C1072.24 702.992 1070.56 709.711 1068.65 709.711C1066.75 709.711 1059.67 703.367 1055.5 703.769C1051.34 704.171 1046.3 703.383 1044.4 705.688C1042.5 707.993 1043.55 713.887 1038.18 715.996C1032.82 718.105 1020 715.673 1020 721.811C1020 730.533 1032.98 731.399 1035.83 731.146C1038.69 730.892 1044.03 731.114 1046.36 732.837C1048.7 734.561 1043.1 741.58 1049.53 743.97C1051.72 744.778 1058.58 741.184 1065.16 741.184C1071.74 741.184 1074.63 746.185 1078.14 746.185C1100.98 746.248 1092.19 738.351 1097.97 736.046C1103.75 733.741 1102.2 739.418 1106.67 740.069C1116.57 741.506 1128.54 737.907 1133.21 735.893C1137.87 733.879 1140.14 737.817 1144.2 738.689C1147.16 739.323 1150.89 738.853 1154.31 738.314C1160.94 735.142 1164.47 728.106 1166.14 729.269C1167.94 730.527 1163.98 733.768 1168.3 737.907C1172.62 742.046 1177.29 743.848 1184.77 742.135C1184.77 742.135 1191.89 740.55 1192.7 740.624C1193.75 740.74 1196.11 744.9 1198.33 744.9C1200.54 744.9 1202.79 742.474 1204.3 743.05C1205.81 743.626 1210.24 745.302 1214.03 745.069C1217.83 744.837 1219.75 741.443 1221.12 741.522C1228.67 741.956 1235.42 744.71 1237.22 741.876Z" fill="#ED824C"/>
<path d="M828.974 -23.4559C825.591 -15.1198 831.136 -6.80481 843.823 -7.06911C856.509 -7.33342 860.558 -15.6431 868.387 -15.2678C876.216 -14.8925 874.323 -10.6002 878.911 -9.8443C883.5 -9.0884 894.135 -11.8636 898.808 -11.3561C903.481 -10.8487 917.51 -7.529 917.78 -3.39C918.05 0.748993 920.613 8.45608 923.362 10.1688C932.808 16.0575 946.933 15.6716 948.735 11.3476C950.21 7.79532 949.095 4.53382 952.06 4.28008C955.026 4.02635 952.589 9.80403 962.59 12.2092C972.591 14.6144 984.453 4.69769 993.54 5.45359C1002.63 6.2095 1005.32 15.6663 1020 15.1271C1030.88 14.7201 1042.73 11.6489 1045.45 3.49775C1047.08 -1.36544 1045.91 -4.1882 1043.98 -5.66302C1040.69 -8.20033 1033.41 -6.40306 1033.67 -10.5421C1033.73 -11.4407 1043.48 -9.36856 1048.16 -11.3614C1054.56 -14.089 1056.76 -14.7075 1066.06 -15.9074C1075.96 -17.1761 1089.82 -12.7094 1092.52 -19.0791C1095.43 -25.9774 1081.09 -33.0396 1070.84 -32.7859C1060.6 -32.5321 1047.36 -29.5085 1043.58 -28.4989C1039.8 -27.4892 1027.39 -32.4476 1023.07 -32.955C1018.75 -33.4625 1016.86 -25.6391 1012.27 -25.1316C1007.69 -24.6242 1002.28 -30.1798 994.185 -30.1798C989.031 -30.1798 978.327 -30.5129 971.783 -28.3561C968.045 -27.1245 962.305 -23.2762 956.611 -23.2762C940.959 -23.2762 931.561 -25.9721 919.419 -28.7473C907.277 -31.5225 906.267 -34.0334 903.397 -29.2759C900.526 -24.5184 897.825 -21.96 895.393 -27.0029C892.962 -32.0458 892.153 -33.5735 878.119 -32.8176C864.084 -32.0617 862.012 -28.7737 852.116 -27.5315C842.221 -26.2893 831.945 -30.7719 828.974 -23.4559Z" fill="#ED824C"/>
<path d="M1213.85 328.498C1216.13 324.898 1214.13 320.669 1209.69 317.83C1206.52 315.822 1198.55 317.206 1197.19 317.582C1195.82 317.957 1192.15 314.341 1189.38 314.378C1178.59 314.505 1174.02 314.014 1173.47 312.391C1172.92 310.768 1180.48 312.259 1181.01 307.67C1181.55 303.082 1178.59 297.5 1169.23 296.131C1165.82 294.973 1160.62 294.984 1157.2 294.466C1151.75 293.636 1150.36 294.106 1146.47 296.284C1142.57 298.462 1141.05 291.627 1136.91 290.766C1132.76 289.904 1122.64 294.164 1120.55 296.052C1118.47 297.939 1115.36 297.32 1109.39 296.052C1103.43 294.783 1100.57 291.965 1094.59 290.644C1088.62 289.322 1088.88 295.555 1088.72 298.24C1088.56 300.925 1086.65 303.029 1085.26 298.05C1083.88 293.07 1080.62 288.847 1076.45 288.656C1072.29 288.466 1065.19 289.037 1062.77 290.57C1060.34 292.103 1054.46 289.994 1051.66 289.803C1048.87 289.613 1047.19 296.332 1045.29 296.332C1043.39 296.332 1036.3 289.988 1032.14 290.39C1027.97 290.792 1022.93 290.004 1021.04 292.309C1019.14 294.614 1020.19 300.508 1014.82 302.617C1009.46 304.726 996.637 302.294 996.637 308.432C996.637 317.154 1009.61 318.021 1012.47 317.767C1015.32 317.513 1020.66 317.735 1023 319.458C1025.33 321.182 1019.74 328.202 1026.17 330.591C1028.36 331.4 1035.21 327.805 1041.8 327.805C1048.38 327.805 1051.27 332.806 1054.78 332.806C1077.62 332.869 1068.83 324.972 1074.61 322.667C1080.38 320.362 1078.84 326.04 1083.3 326.69C1093.2 328.128 1105.18 324.528 1109.84 322.514C1114.51 320.5 1116.77 324.438 1120.83 325.31C1123.79 325.944 1127.53 325.474 1130.95 324.935C1137.58 321.763 1141.11 314.727 1142.78 315.89C1144.58 317.148 1140.62 320.389 1144.94 324.528C1149.26 328.667 1153.92 330.469 1161.4 328.757C1161.4 328.757 1168.53 327.171 1169.33 327.245C1170.39 327.361 1172.75 331.521 1174.96 331.521C1177.18 331.521 1179.42 329.095 1180.94 329.671C1182.45 330.247 1186.87 331.923 1190.67 331.69C1194.46 331.458 1196.39 328.064 1197.76 328.143C1205.31 328.577 1212.06 331.331 1213.85 328.498Z" fill="#ED824C"/>
</g>
<defs>
<clipPath id="clip0_268_296">
<rect width="1280" height="720" fill="white"/>
</clipPath>
</defs>
</svg>
