<svg width="1280" height="720" viewBox="0 0 1280 720" fill="none" xmlns="http://www.w3.org/2000/svg">
<g clip-path="url(#clip0_278_1649)">
<rect width="1280" height="720" fill="#FFFBF3"/>
<rect width="1280" height="720" fill="#023A2F"/>
<path d="M255.353 62.8353C253.826 57.3754 249.358 54.9075 247.674 47.5037C245.99 40.1 246.697 28.6306 245.98 26.0304C245.262 23.4302 243.466 23.303 242.738 19.5375C242.011 15.772 245.008 11.3502 244.83 7.83401C244.652 4.31789 245.252 -11.5022 247.236 -16.9468C249.318 -22.6612 246.382 -24.4828 244.458 -26.4317C242.535 -28.3806 240.942 -19.0178 239.324 -24.0249C238.077 -31.1487 236.596 -39.7991 236.067 -45.8748C235.36 -53.8993 234.576 -53.4261 228.999 -54.5252C226.191 -55.0849 226.257 -39.5091 220.858 -37.377C218.085 -36.283 213.734 -23.3786 212.833 -13.9701C209.709 -36.9852 217.769 -49.5588 218.807 -56.0619C219.845 -62.565 218.329 -66.5034 217.739 -69.2919C217.148 -72.0804 209.185 -67.7908 206.819 -67.5466C204.152 -60.5957 206.585 -49.7369 204.814 -45.5949C203.043 -41.4529 199.491 -46.1038 200.158 -37.7892C200.824 -29.4746 201.323 -24.6202 200.077 -15.5933C198.83 -6.56634 196.886 -1.44733 200.077 8.55151C203.267 18.5504 202.555 24.1629 202.575 28.7985C202.575 32.3961 206.61 46.6743 209.444 54.9431C210.854 58.79 211.027 63.7054 211.388 68.1222C211.749 72.539 214.874 72.2795 218.599 75.1341C222.323 77.9888 222.802 83.1892 224.608 85.3976C226.414 87.606 232.108 84.7514 234.938 80.7213C237.767 76.6912 237.584 73.5109 240.586 70.5443C243.588 67.5778 244.433 69.084 247.313 70.5443C250.193 72.0047 256.899 68.3003 255.353 62.8353Z" fill="#ED824C"/>
<path d="M29.959 131.973C30.0392 125.098 29.667 118.226 28.8446 111.4C28.4833 107.975 29.5722 104.006 29.4501 98.5515C29.328 93.0967 30.9207 85.1383 29.6028 75.2259C28.0762 63.843 29.0278 55.8134 29.0278 49.5801C29.0278 43.3467 29.618 26.2443 29.618 26.2443C25.8119 27.5317 17.0749 28.122 13.0398 28.468C4.6947 26.7278 8.46016 21.7003 6.31791 17.0698C3.97721 12.078 -0.439568 17.3853 -7.98068 18.2045C-17.6895 18.9525 -22.0656 24.672 -27.322 24.672C-32.5784 24.672 -34.171 31.1852 -34.7359 36.8843C-35.3007 42.5834 -37.2801 65.9242 -39.3613 70.5547C-41.4425 75.1852 -49.0294 93.9617 -49.0294 98.9891C-49.0294 104.017 -52.1486 124.976 -52.1486 124.976C-52.1486 124.976 -55.0134 138.338 -55.0134 139.682C-55.0134 141.025 -52.749 140.389 -50.8358 139.682C-48.9225 138.974 -42.3279 138.155 -39.7073 137.137C-37.0867 136.12 -31.2299 105.334 -24.4419 82.6908C-17.9897 105.319 -28.9147 141.865 -28.9147 141.865C-27.3881 142.765 -27.3881 143.096 -24.6963 144.47C-24.6963 144.47 -10.5097 151.12 -2.94312 148.871C-1.21812 148.988 0.176121 147.94 1.32103 147.101C1.84005 146.822 2.3489 146.522 2.84757 146.2C4.40464 145.732 11.5896 141.681 11.5896 144.017C11.5896 146.353 12.6632 147.604 16.0165 148.693C19.3698 149.782 27.5572 151.706 28.9921 152.642C30.4271 153.578 29.8419 142.261 29.959 131.973Z" fill="#ED824C"/>
<path d="M149.563 136.786C146.668 131.25 141.177 120.335 139.651 110.769C138.124 101.203 135.534 92.8881 132.334 91.1224C129.133 89.3567 129.937 84.0749 127.591 73.496C125.245 62.917 121.816 43.1127 119.959 36.228C118.101 29.3433 118.89 23.1354 114.926 22.7995C110.962 22.4637 102.464 22.0872 100.169 21.5987C103.604 33.699 104.24 80.5995 99.7522 92.5523C99.7522 72.0254 90.8372 25.0385 89.6923 22.3976C88.8731 20.4945 85.4282 19.7057 83.2096 21.3493C83.2096 21.3493 70.4325 26.6057 65.1303 26.2699C62.0772 25.5422 59.4668 24.9469 59.4668 24.9469C58.3219 18.3318 59.0089 13.798 57.467 11.9814C55.396 9.54916 49.0405 9.39142 48.0432 10.6483C47.0458 11.9051 50.5467 22.479 49.3713 36.5435C48.4808 47.1275 47.4427 63.7668 49.3713 71.1909C51.2998 78.615 52.9027 88.4917 51.6204 93.8142C50.3381 99.1368 49.3458 110.148 50.216 113.608C52.0173 120.763 51.6865 134.929 51.8646 140.577C52.0427 146.225 47.5089 164.152 52.6482 163.801C57.7876 163.45 69.9949 156.372 72.8851 153.548C75.7754 150.724 75.7804 143.295 75.7804 143.295C79.3295 142.922 82.8983 142.769 86.4662 142.837C100.673 145.498 107.66 150.52 113.944 151.996L114.02 152.042C114.742 152.257 115.491 152.37 116.244 152.377C119.062 152.429 121.881 152.317 124.686 152.042C124.075 143.142 123.312 133.067 123.312 133.067C127.276 141.966 131.24 149.691 133.682 155.059C136.125 160.427 142.221 160.097 145.894 164.295C153.059 154.057 154.128 151.706 155.349 148.851C156.57 145.996 152.459 142.328 149.563 136.786Z" fill="#ED824C"/>
<path d="M218.273 111.333C215.072 105.054 206.701 87.5544 204.183 83.102C201.664 78.6496 198.336 70.6556 197.303 63.9591C196.27 57.2627 191.914 53.6499 188.709 48.2409C185.503 42.8318 184.923 31.8814 184.923 25.9534C184.923 20.0253 176.501 2.29197 175.86 -3.55977C175.219 -9.41151 169.881 -9.73208 167.261 -10.5869C164.64 -11.4418 166.65 -4.06353 166.803 -0.282793C166.955 3.49794 167.724 15.6899 166.955 15.8629C166.187 16.036 164.818 9.81273 162.376 7.76717C159.933 5.72161 137.061 8.32182 137.473 13.9395C137.834 18.9058 141.569 47.4267 143.706 53.9552C145.843 60.4837 152.199 53.2632 152.357 70.106C152.433 77.7387 156.28 88.8621 157.552 93.971C158.824 99.0798 165.693 111.328 168.116 115.622C175.3 113.735 177.916 110.463 183.076 112.91C188.235 115.358 190.2 117.668 193.41 121.276C196.621 124.883 198.316 125.886 201.939 128.613C205.322 131.157 210.436 130.893 211.922 126.731C212.574 124.914 212.635 123.937 213.22 121.21C207.719 116.187 206.233 112.269 205.663 110.722C205.093 109.175 212.655 116.004 215.637 118.192C218.619 120.38 221.473 117.617 218.273 111.333ZM185.106 77.7489C184.144 74.5228 176.964 64.5799 174.308 59.4711C171.652 54.3623 170.09 45.2234 169.988 38.2369C170.209 35.2178 170.664 32.2202 171.347 29.2711C171.856 27.7445 172.151 23.9841 173.347 26.4062C174.542 28.8284 175.83 36.5272 177.417 40.654C179.005 44.7807 179.565 48.1798 180.928 53.2428C182.292 58.3059 186.063 80.9801 185.106 77.7642V77.7489Z" fill="#ED824C"/>
<path d="M30.0911 347.627C30.0911 333.029 28.2185 325.147 26.4223 318.771C24.6261 312.395 25.0739 316.735 27.323 306.05C29.5721 295.364 26.1119 271.524 26.1119 268.054C26.1119 264.584 24.3462 264.584 21.0591 264.66C18.4205 264.753 15.8217 263.997 13.6452 262.502C11.9609 261.347 10.531 260.167 10.531 260.167C7.58481 262.655 4.72 264.197 -0.154755 264.121C-5.0295 264.044 -8.58126 260.243 -10.179 258.208C-11.4155 256.773 -12.1839 256.132 -15.6949 254.88C-16.3463 255.964 -16.9264 273.025 -19.1348 282.358C-21.3431 291.69 -22.254 285.864 -22.1878 282.358C-22.1217 278.852 -22.6458 273.651 -22.9715 269.234C-23.2971 264.818 -25.3732 263.886 -30.5533 264.579C-36.9495 265.199 -48.5817 267.632 -55.0848 268.985C-61.9542 270.435 -66.7018 273.056 -71.9836 276.358C-72.5688 283.828 -73.4542 292.942 -74.5278 302.386C-75.4539 310.415 -78.8632 309.082 -79.428 321.055C-79.6977 326.653 -79.9979 335.349 -79.5909 341.165C-79.0362 349.032 -75.688 352.024 -76.4258 361.585C-76.9805 368.78 -80.176 379.039 -80.405 382.829C-81.1683 395.393 -73.5915 392.859 -68.5031 392.279C-66.829 392.091 -64.3814 385.577 -60.9314 385.664C-53.8992 385.872 -46.9483 392.966 -45.5846 392.839C-43.6408 392.655 -37.9061 395.434 -36.517 389.088C-35.1482 386.188 -32.3749 382.88 -29.0827 381.669C-25.7905 380.458 -19.8166 381.237 -15.0894 382.178C-6.79521 384.595 -1.85941 383.155 4.43503 381.303C10.7295 379.451 21.0133 383.338 28.4272 384.916C27.6792 368.953 30.0911 362.231 30.0911 347.627ZM-44.6229 344.895C-46.241 346.813 -45.2386 360.827 -47.5335 371.518C-49.06 378.565 -52.5456 377.766 -56.072 373.044C-54.762 365.936 -54.0471 358.732 -53.9348 351.505C-53.9348 345.521 -54.8863 341.45 -55.0034 334.749C-55.1204 328.047 -52.7492 310.324 -50.8563 305.79C-48.9634 301.256 -50.6426 298.402 -50.8563 295.496C-51.5076 286.408 -45.3811 293.649 -44.6229 296.285C-43.8647 298.921 -47.3707 313.362 -47.6098 318.628C-47.849 323.895 -45.6151 333.146 -44.6229 336.494C-43.6306 339.842 -42.9997 342.982 -44.6229 344.895Z" fill="#ED824C"/>
<path d="M154.219 -179.6C151.675 -181.635 146.322 -182.505 144.729 -179.6C143.137 -176.694 138.496 -170.441 136.695 -168.965C134.893 -167.489 132.471 -167.438 131.754 -170.033C130.69 -173.865 126.014 -178.948 123.068 -171.326C121.872 -168.227 114.489 -156.982 113.283 -155.246C112.077 -153.511 104.469 -143.884 97.8035 -144.744C94.3331 -145.955 90.7559 -147.1 90.8272 -150.127C90.9493 -155.511 84.5073 -156.279 76.9458 -168.955C73.852 -165.902 58.724 -153.577 52.1904 -152.041C49.5546 -143.711 52.9944 -121.413 54.8262 -109.883C56.6581 -98.3522 54.8262 -87.8394 51.3864 -92.4547C47.9466 -97.0699 47.4886 -94.7597 47.3156 -86.3027C47.1426 -77.8457 48.6183 -60.6772 48.8422 -49.4316C49.0661 -38.1861 47.0053 -38.6339 45.9011 -27.6123C44.7969 -16.5907 41.5046 -20.697 47.3105 -15.8274C53.1165 -10.9577 53.6559 -14.5451 60.0724 -14.3008C66.489 -14.0566 67.868 -8.66283 69.6998 -0.719727C71.5317 7.22339 73.3686 4.66389 84.1409 1.99754C87.3772 0.699982 89.0869 -1.48805 92.715 -2.03252C93.3463 -1.99196 93.9728 -1.89661 94.5875 -1.74757C96.2362 -1.23872 96.684 3.29002 106.291 4.61812C115.898 5.9462 115.135 5.77319 115.354 -0.892715C115.572 -7.55861 115.73 -14.5603 117.674 -20.5393C119.618 -26.5182 119.77 -40.018 118.722 -46.4905C117.674 -52.963 117.374 -55.029 118.422 -58.2754C119.47 -61.5219 123.037 -66.1371 124.248 -73.1439C125.459 -80.1507 128.319 -92.1087 132.049 -99.2834C135.779 -106.458 138.939 -127.133 139.911 -131.575C140.882 -136.017 144.78 -140.973 146.276 -144.047C147.772 -147.12 153.314 -164.808 154.214 -168.95C155.115 -173.092 156.764 -177.549 154.219 -179.6ZM66.8503 -24.4625C62.7235 -29.0778 58.1999 -42.9184 59.7671 -53.8484C60.1437 -56.4588 60.9426 -60.4634 59.4517 -63.4198C57.9607 -66.3763 57.3705 -75.2048 57.4163 -79.82C57.4519 -84.308 61.9043 -88.216 62.9372 -90.5058C63.9702 -92.7956 63.8328 -96.4237 65.0948 -93.6454C68.9009 -85.2748 66.9012 -68.0147 68.275 -64.9413C69.6489 -61.8679 66.9419 -51.4416 67.1709 -47.3454C67.3998 -43.2491 63.5224 -37.2804 66.8503 -24.4625Z" fill="#ED824C"/>
<path d="M140.659 547.035C138.115 545 132.762 544.129 131.169 547.035C129.577 549.94 124.936 556.194 123.135 557.67C121.333 559.146 118.911 559.196 118.194 556.601C117.13 552.77 112.454 547.686 109.508 555.309C108.312 558.408 100.928 569.653 99.7225 571.388C98.5166 573.124 90.9093 582.751 84.2434 581.891C80.7731 580.68 77.1959 579.535 77.2671 576.507C77.3892 571.124 70.9472 570.355 63.3857 557.68C60.2919 560.733 45.1639 573.057 38.6303 574.594C35.9945 582.924 39.4343 605.222 41.2662 616.752C43.098 628.283 41.2662 638.795 37.8264 634.18C34.3865 629.565 33.9286 631.875 33.7556 640.332C33.5826 648.789 35.0582 665.958 35.2821 677.203C35.506 688.449 33.4452 688.001 32.341 699.022C31.2368 710.044 27.9445 705.938 33.7505 710.807C39.5564 715.677 40.0958 712.09 46.5124 712.334C52.9289 712.578 54.3079 717.972 56.1398 725.915C57.9716 733.858 59.8085 731.299 70.5808 728.632C73.8171 727.335 75.5269 725.147 79.1549 724.602C79.7862 724.643 80.4127 724.738 81.0275 724.887C82.6762 725.396 83.1239 729.925 92.731 731.253C102.338 732.581 101.575 732.408 101.794 725.742C102.012 719.076 102.17 712.074 104.114 706.095C106.058 700.117 106.21 686.617 105.162 680.144C104.114 673.672 103.814 671.606 104.862 668.359C105.91 665.113 109.477 660.498 110.688 653.491C111.899 646.484 114.759 634.526 118.489 627.351C122.219 620.177 125.379 599.502 126.35 595.06C127.322 590.618 131.22 585.662 132.716 582.588C134.212 579.515 139.754 561.827 140.654 557.685C141.555 553.543 143.204 549.086 140.659 547.035ZM53.2902 702.172C49.1635 697.557 44.6398 683.716 46.2071 672.786C46.5836 670.176 47.3825 666.171 45.8916 663.215C44.4007 660.259 43.8104 651.43 43.8562 646.815C43.8918 642.327 48.3442 638.419 49.3772 636.129C50.4101 633.839 50.2728 630.211 51.5347 632.989C55.3409 641.36 53.3411 658.62 54.715 661.693C56.0889 664.767 53.3818 675.193 53.6108 679.289C53.8398 683.386 49.9624 689.354 53.2902 702.172Z" fill="#ED824C"/>
<path d="M29.4652 202.865L28.1423 198.911C28.1423 198.911 30.1268 183.091 30.1268 178.618C30.1268 174.145 21.5171 173.804 16.8968 172.598C12.2764 171.392 6.79102 167.612 6.79102 167.612C5.18307 168.349 3.50897 169.169 1.93664 169.988C-3.06024 171.718 -14.7383 170.074 -22.8697 166.859C-28.1718 164.08 -35.4484 159.954 -39.7328 156.682C-48.3171 159.501 -59.6949 158.498 -60.2801 162.9C-60.8653 167.301 -68.7117 189.166 -68.7117 197.654C-68.7117 206.142 -68.1163 211.189 -67.8568 225.982C-67.5973 240.774 -73.963 256.004 -68.8084 254.813C-63.6537 253.622 -59.2777 252.045 -56.0872 249.836C-52.6728 247.49 -54.8354 232.383 -55.0695 227.055C-55.3392 221.015 -55.6496 199.801 -46.0985 184.409C-48.2255 196.25 -49.8029 211.688 -49.5434 219.204C-49.2839 226.719 -46.358 232.342 -44.6788 245.257C-39.7685 243.801 -30.0495 243.17 -24.3657 242.687C-22.0148 242.489 -20.7274 241.496 -20.0201 239.741C-18.229 237.532 -16.4175 232.505 -13.1303 232.169C-9.84316 231.833 -5.58411 233.96 -3.61996 238.489C-3.15691 240.321 -2.71932 241.878 -0.99942 242.102C2.97467 242.611 5.45785 236.082 5.45785 236.082C7.94102 236.082 10.0935 236.423 12.2459 237.609C14.3983 238.794 18.0417 242.107 18.0417 242.107C22.5144 241.735 24.6566 241.221 25.3283 239.156C26 237.09 24.9976 233.136 25.3283 229.869C25.6591 226.602 29.4652 202.865 29.4652 202.865Z" fill="#ED824C"/>
<path d="M175.276 245.623C172.604 236.113 170.879 224.058 170.095 218.288C169.312 212.517 163.033 187.207 160.834 184.165C149.065 182.068 150.149 181.111 144.826 177.692C139.504 174.273 136.98 171.219 132.899 171.413C128.818 171.606 124.248 173.886 122.854 173.886C121.928 173.886 118.941 170.461 116.992 169.031C116.906 168.965 116.799 168.894 116.677 168.818C116.465 168.675 116.236 168.56 115.995 168.477C111.329 166.441 94.7251 163.571 88.7919 163.714C86.7565 163.648 85.2656 163.714 85.2656 163.714C84.7262 172.232 80.3858 178.979 78.1417 180.715C75.8977 182.45 69.7 179.997 67.3135 186.821C65.965 190.657 55.6914 191.741 50.2366 184.989C50.0737 192.179 45.7943 207.643 45.5297 210.864C45.2651 214.085 45.3058 230.546 45.5297 235.288C45.7536 240.031 43.2298 246.122 47.8348 245.816C52.4399 245.511 61.5737 244.697 65.3137 242.926C69.0537 241.155 69.3845 238.128 69.3845 238.128C73.4869 238.032 77.5733 238.673 81.4493 240.021C84.3802 241.161 83.8205 245.323 85.2452 251.215C86.67 257.108 93.6718 255.948 93.6718 255.948C94.4859 261.036 98.1496 259.733 102.673 262.196C107.004 264.547 111.456 271.355 111.222 264.913C111.224 264.908 111.226 264.902 111.226 264.896C111.226 264.89 111.224 264.884 111.222 264.878C111.268 263.458 109.212 242.88 108.271 238.55C107.329 234.22 108.271 226.338 107.584 211.698C109.298 212.207 118.57 252.742 120.198 260.278C121.826 267.814 124.9 267.651 129.525 267.402C129.608 267.396 129.691 267.379 129.769 267.351C132.558 267.096 135.652 265.865 137.59 264.898C141.595 262.898 140.104 255.576 139.315 252.177C145.93 252.935 149.36 257.311 153.914 258.075C158.468 258.838 165.058 258.833 169.922 257.505C174.787 256.177 177.942 255.139 175.276 245.623Z" fill="#ED824C"/>
<path d="M264.18 239.505C260.959 232.702 261.208 234.559 261.208 228.514C261.208 222.469 260.913 221.222 257.55 213.248C254.186 205.275 245.399 187.714 242.615 179.97C239.832 172.225 228.876 136.789 226.917 132.82C224.958 128.851 224.739 136.728 222.694 139.745C220.648 142.763 217.142 144.086 217.875 147.297C218.157 148.668 218.173 150.082 217.921 151.459C215.234 160.812 199.231 151.541 194.977 147.963C192.743 145.928 190.652 143.893 189.517 141.435C186.82 135.568 171.366 133.293 174.496 138.382C177.351 143.033 179.818 149.912 179.818 151.245C179.818 152.579 176.893 165.671 174.989 169.671C173.086 173.67 176.969 182.092 181.895 193.658C186.82 205.224 186.423 219.777 187.375 225.903C188.326 232.03 191.446 232.035 194.758 232.035C192.616 243.738 192.377 249.066 192.377 256.673C192.377 264.281 198.798 261.97 206.67 261.884C215.29 261.792 215.458 260.866 216.176 257.655C216.893 254.445 215.885 239.876 213.382 231.48C210.878 223.084 211.133 203.59 211.133 203.59C218.989 226.784 222.562 235.236 224.465 241.632C225.884 246.4 227.36 242.141 227.36 242.141C228.846 239.861 236.402 233.241 243.419 236.004C244.545 236.457 245.58 237.11 246.472 237.933C249.683 240.894 252.248 248.954 252.538 255.157C252.828 261.36 255.219 263.522 258.369 259.197C261.519 254.872 260.868 254.134 264.089 251.112C267.31 248.089 267.396 246.303 264.18 239.505Z" fill="#ED824C"/>
<path d="M186.175 378.672C182.46 367.828 183.498 362.292 182.063 351.072C180.629 339.852 180.649 337.618 179.977 332.112C179.306 326.607 179.799 325.63 175.576 322.739C171.352 319.849 171.164 317.849 174.339 314.969C177.514 312.089 174.085 314.969 174.278 302.248C174.471 289.527 170.747 283.853 169.968 281.665C169.19 279.477 153.792 275.61 153.792 275.61C152.382 281.716 145.488 283.456 143.417 284.215C141.345 284.973 144.037 285.894 141.92 287.812C139.804 289.731 133.219 287.675 130.502 287.242C120.35 284.291 115.237 292.59 103.411 288.204C99.559 286.677 100.292 281.08 93.3561 277.116C90.1504 275.269 83.0317 275.641 80.5332 273.341C78.0348 271.041 73.5366 262.685 73.5366 262.685C66.8758 262.029 65.0439 262.685 65.0439 262.685C65.5528 271.046 66.5705 286.789 67.751 293.343C68.9315 299.897 72.8089 313.636 72.9972 322.734C67.9392 307.24 63.6955 297.475 62.0468 290.066C60.5203 283.105 58.1337 266.537 56.882 264.487C55.6302 262.436 43.9064 264.588 43.9929 265.799C44.6849 275.391 47.392 300.233 46.644 304.66C45.896 309.087 50.1398 316.465 52.3889 319.417C54.638 322.368 54.6329 343.027 54.3836 349.439C54.1342 355.85 55.6353 373.787 56.6327 380.672C57.63 387.556 58.2762 390.777 64.876 390.187C72.2034 389.526 73.1193 390.263 71.374 371.329C90.6084 370.82 85.3622 372.067 94.8521 374.525C104.342 376.983 115.089 372.311 123.083 368.378C127.993 366.073 129.22 365.742 129.459 363.147C129.698 360.552 128.009 355.005 127.205 343.811C126.401 332.616 128.528 331.09 130.502 339.043C132.476 346.996 143.9 381.913 145.661 394.507C145.747 402.287 145.93 407.697 146.678 409.874C147.564 412.419 154.235 412.139 157.323 411.747C160.412 411.355 161.089 406.658 164.722 405.285C168.355 403.911 172.187 402.557 177.443 402.99C182.7 403.422 187.895 394.395 187.279 390.136C186.663 385.877 189.89 389.515 186.175 378.672Z" fill="#ED824C"/>
<path d="M281.628 367.166C280.757 363.9 280.61 358.333 279.027 353.132C277.445 347.932 281.063 328.927 279.46 324.128C277.857 319.33 274.438 311.224 272.336 306.827C270.234 302.431 268.627 278.53 267.756 276.999C266.886 275.467 262.983 277.803 260.785 279.879C258.587 281.955 257.763 286.117 255.921 287.944C254.079 289.771 251.178 291.196 249.957 292.101C248.736 293.007 249.102 295.612 250.69 303.535C252.277 311.458 250.812 319.258 246.044 300.94C241.276 282.621 242.624 281.985 241.597 275.615C240.36 267.982 240.752 265.265 239.775 262.97C238.798 260.675 234.3 262.507 231.007 264.466C228.926 265.697 228.021 269.727 228.021 274.078C228.021 276.251 227.4 281.98 225.746 283.833C224.092 285.685 220.805 281.751 216.953 283.324C216.5 283.507 214.821 284.245 214.037 284.586C211.056 285.893 208.852 285.252 208.852 285.252C208.852 285.252 204.161 284.296 203.331 285.649C203.967 292.707 209.371 303.672 209.722 305.825C210.073 307.977 208.455 330.886 208.16 333.369C207.595 326.571 203.189 306.507 201.749 303.128C200.309 299.749 197.047 290.504 196.151 287.201C191.928 286.138 186.992 281.879 187.71 284.693C189.501 291.506 190.763 302.024 192.798 304.644C194.834 307.265 192.874 313.661 192.544 315.976C192.213 318.292 194.655 326.662 197.123 333.135C199.591 339.607 195.475 342.665 201.779 360.205C204.324 367.197 206.552 375.079 206.868 383.506C206.99 387.123 207.58 387.469 214.068 386.243C220.556 385.017 222.683 382.829 225.008 378.61C227.334 374.392 226.433 369.192 226.306 367.136C225.858 360.012 232.02 355.315 233.002 361.813C233.328 363.623 233.863 365.388 234.595 367.075C235.256 368.78 236.966 371.263 240.961 370.418C244.41 369.69 245.27 376.478 249.331 377.786H249.407L249.55 377.827C249.642 377.856 249.735 377.88 249.83 377.898C249.998 377.944 250.155 377.99 250.339 378.025C250.484 378.058 250.635 378.058 250.781 378.025C251.871 378.044 252.96 377.957 254.033 377.766C260.882 376.748 262.22 369.624 266.952 367.721C271.685 365.818 271.476 373.176 276.112 374.479C280.747 375.781 283.444 374.01 281.628 367.166Z" fill="#ED824C"/>
<path d="M40.6265 -108.061C38.6521 -111.5 36.2758 -127.778 34.9834 -136.953C33.6909 -146.127 39.0847 -150.02 38.0772 -154.763C37.0696 -159.505 36.2046 -170.201 36.2046 -172.801C27.427 -174.48 21.9569 -175.396 22.1044 -172.801C22.252 -170.206 19.9011 -169.59 16.2527 -169.59C12.9706 -169.59 6.17754 -167.932 1.65898 -165.092C-4.6609 -161.123 -4.38614 -155.887 -7.43922 -150.916C-10.4923 -145.944 -18.0741 -142.006 -20.7099 -146.845C-23.3458 -151.684 -25.2896 -153.836 -25.2896 -153.836C-28.8515 -154.574 -27.6099 -152.468 -26.8161 -145.339C-26.0223 -138.21 -25.3405 -119.291 -25.3405 -114.106C-25.3405 -108.921 -11.9832 -71.103 -19.3208 -65.1241C-24.5772 -80.8423 -31.1973 -101.135 -33.5176 -109.724C-35.838 -118.314 -34.0265 -127.224 -35.7006 -132.404C-37.3747 -137.584 -40.9417 -138.887 -40.0105 -145.044C-39.0793 -151.201 -40.0105 -155.465 -40.4787 -156.574C-49.2919 -158.655 -51.9226 -159.301 -53.7799 -164.003C-55.6372 -168.705 -57.8558 -179.884 -60.7817 -180.393C-66.3484 -181.284 -67.763 -176.083 -67.2898 -172.679C-66.8166 -169.275 -76.3269 -165.168 -75.3957 -160.904C-74.4645 -156.64 -69.5847 -156.152 -67.9666 -151.292C-66.3484 -146.433 -66.8827 -143.98 -67.2898 -138.169C-67.6969 -132.358 -55.912 -117.026 -52.8945 -111.918C-49.8771 -106.809 -44.6817 -98.3518 -45.1448 -94.2199C-45.6078 -90.0881 -46.1625 -84.216 -41.7304 -80.1249C-37.2984 -76.0337 -38.7537 -64.2845 -39.3287 -56.9927C-39.9037 -49.7009 -39.1302 -31.9625 -39.1302 -31.9625C-32.7137 -30.0136 -31.1718 -29.2859 -32.0572 -20.2946C-32.9426 -11.3033 -28.7701 -7.12059 -27.3759 -3.13631C-25.9816 0.847961 -28.9329 4.25215 -21.7785 4.25215C-14.6241 4.25215 -12.0646 2.60349 -11.6016 -3.13631C-11.3319 -6.48961 -8.33987 -6.60155 -5.13923 -6.18938C-1.43482 -5.50244 1.17048 -2.28142 3.30764 -2.22037C5.44479 -2.1593 9.66312 -4.70355 15.2808 -4.49492C15.68 -4.46945 16.0775 -4.42188 16.4715 -4.35243C19.8706 -3.752 22.4606 -5.81793 22.0281 -1.22813C21.5956 3.36166 23.9719 6.56741 28.7195 4.73047C33.467 2.89354 30.017 -6.16902 31.0958 -14.8194C32.1745 -23.4698 35.4108 -38.6029 33.2533 -45.0246C31.0958 -51.4462 30.017 -53.0491 29.3708 -59.2418C28.7245 -65.4345 32.607 -69.1032 33.0396 -75.0618C33.4721 -81.0204 32.3933 -100.285 32.3933 -100.285C39.5121 -101.41 42.6059 -104.621 40.6265 -108.061Z" fill="#ED824C"/>
<path d="M22.9983 618.573C21.024 615.133 18.6477 598.855 17.3552 589.681C16.0627 580.506 21.4565 576.614 20.449 571.871C19.4415 567.129 18.5764 556.433 18.5764 553.833C9.79879 552.153 4.3287 551.237 4.47627 553.833C4.62384 556.428 2.27296 557.043 -1.37547 557.043C-4.65753 557.043 -11.4506 558.702 -15.9692 561.542C-22.2891 565.511 -22.0143 570.747 -25.0674 575.718C-28.1205 580.69 -35.7023 584.628 -38.3381 579.789C-40.974 574.95 -42.9177 572.797 -42.9177 572.797C-46.4797 572.06 -45.2381 574.166 -44.4443 581.295C-43.6505 588.424 -42.9686 607.343 -42.9686 612.528C-42.9686 617.713 -29.6114 655.531 -36.949 661.51C-42.2054 645.791 -48.8255 625.499 -51.1458 616.909C-53.4662 608.32 -51.6546 599.41 -53.3288 594.23C-55.0029 589.05 -58.5699 587.747 -57.6387 581.59C-56.7075 575.433 -57.6387 571.169 -58.1068 570.06C-66.9201 567.979 -69.5508 567.332 -71.4081 562.631C-73.2654 557.929 -75.484 546.749 -78.4098 546.241C-83.9766 545.35 -85.3912 550.551 -84.918 553.955C-84.4448 557.359 -93.9551 561.465 -93.0239 565.729C-92.0927 569.994 -87.2129 570.482 -85.5947 575.342C-83.9766 580.201 -84.5109 582.654 -84.918 588.465C-85.3251 594.276 -73.5402 609.607 -70.5227 614.716C-67.5052 619.825 -62.3099 628.282 -62.7729 632.414C-63.236 636.546 -63.7906 642.418 -59.3586 646.509C-54.9265 650.6 -56.3818 662.349 -56.9568 669.641C-57.5318 676.933 -56.7584 694.671 -56.7584 694.671C-50.3418 696.62 -48.8 697.348 -49.6854 706.339C-50.5708 715.33 -46.3983 719.513 -45.004 723.497C-43.6098 727.482 -46.5611 730.886 -39.4067 730.886C-32.2523 730.886 -29.6928 729.237 -29.2298 723.497C-28.9601 720.144 -25.968 720.032 -22.7674 720.444C-19.063 721.131 -16.4577 724.352 -14.3205 724.413C-12.1834 724.474 -7.96505 721.93 -2.34738 722.139C-1.94816 722.164 -1.55063 722.212 -1.15667 722.281C2.24243 722.882 4.83245 720.816 4.39993 725.406C3.96741 729.995 6.34374 733.201 11.0913 731.364C15.8388 729.527 12.3888 720.465 13.4676 711.814C14.5463 703.164 17.7826 688.031 15.6251 681.609C13.4676 675.188 12.3888 673.585 11.7426 667.392C11.0964 661.199 14.9789 657.531 15.4114 651.572C15.8439 645.613 14.7651 626.348 14.7651 626.348C21.8839 625.224 24.9777 622.013 22.9983 618.573Z" fill="#ED824C"/>
<path d="M1043.2 340.848C1045.53 348.248 1044.64 356.16 1045.52 358.931C1046.39 361.701 1049.73 371.837 1048.94 377.934C1048.16 384.03 1056.38 391.349 1057.73 396.263C1059.09 401.177 1061.6 412.735 1060.08 418.813C1059.19 422.75 1059.15 426.832 1059.97 430.785C1067.34 431.511 1071.42 428.479 1075.08 424.718C1077.17 422.582 1076.59 417.125 1078.67 412.418C1080.93 407.357 1082.39 423.318 1087.06 422.095C1091.73 420.873 1092.8 417.617 1096.82 413.296C1095.32 400.674 1095.21 402.031 1101.04 398.2C1098.56 388.648 1098.97 379.94 1098.39 375.885C1097.82 371.83 1099.86 350.929 1093.5 343.615C1090.61 340.297 1091.25 323.648 1089.79 319.028C1088.34 314.409 1087.16 312.924 1085.37 310.084C1083.58 307.244 1076.28 315.524 1074.71 317.227C1073.13 318.93 1071.89 323.068 1069.92 325.637C1068.46 327.56 1063.63 326.096 1061.1 327.571C1058.58 329.047 1051.33 340.907 1043.2 340.848Z" fill="#ED824C"/>
<path d="M228.525 556.968C227.095 554.022 226.622 548.073 221.768 550.618C219.605 551.752 213.356 556.576 209.845 560.087C206.334 563.598 204.574 566.194 203.627 569.15C202.681 572.106 197.567 582.487 192.585 584.68C180.76 589.875 172.776 614.529 167.143 622.335C167.438 617.913 180.302 578.268 178.948 577.475C177.595 576.681 167.799 571.369 167.667 575.129C167.535 578.889 161.561 594.358 159.673 597.671C157.785 600.983 155.948 602.347 156.895 613.267C157.403 619.053 148.514 636.236 145.812 640.205C143.476 644.062 137.36 656.336 143.079 659.419C144.316 666.894 137.686 673.586 137.126 677.952C136.566 682.318 137.706 692.494 137.126 695.832C136.546 699.171 132.099 709.505 131.406 714.751C130.865 719.135 130.865 723.568 131.406 727.951C131.778 730.495 136.897 731.131 142.55 731.289C148.204 731.447 150.132 733.039 149.883 729.203C149.633 725.366 148.356 716.802 149.089 713.78C149.822 710.757 156.269 714.258 161.596 714.731C165.132 715.016 168.683 715.071 172.226 714.894C172.404 707.897 175.549 704.58 176.48 701.058C177.411 697.537 176.363 697.084 174.913 688.815C173.463 680.547 182.77 669.103 179.355 664.172C178.287 661.19 179.325 648.184 179.493 646.871C179.784 644.953 180.175 643.05 180.663 641.172C181.793 636.328 186.555 623.82 189.593 622.289C193.664 620.253 196.89 619.795 198.244 614.122C199.597 608.448 195.806 603.945 199.322 601.65C202.838 599.355 220.694 586.227 221.757 581.011C222.821 575.795 221.33 570.061 230.51 564.799C230.53 564.799 229.955 559.919 228.525 556.968Z" fill="#ED824C"/>
<path d="M49.1199 406.816C48.377 413.762 43.1562 427.679 47.3797 434.599C51.6031 441.519 49.3692 463.873 49.1199 467.099C48.8706 470.325 43.4056 489.422 43.6549 497.121C43.9042 504.82 43.0188 515.317 43.6549 524.248C44.291 533.178 39.5841 542.48 43.4259 542.48C47.2677 542.48 52.86 540.994 55.8418 537.274C58.5878 533.672 60.6379 529.589 61.8869 525.235C62.3245 523.474 64.4311 512.788 66.0544 501.197C67.184 493.188 66.324 473.414 69.1837 465.878C68.5324 479.652 74.1399 492.44 73.6005 500.825C72.6897 514.987 71.7992 529.626 72.5828 533.046C73.8244 538.643 81.1366 539.152 81.9151 535.04C88.4538 539.62 87.6854 544.586 90.5095 549.548C103.74 551.781 102.147 542.2 104.019 536.246C105.948 530.14 112.919 526.812 111.555 517.46C110.863 512.692 121.335 508.672 122.333 502.082C124.745 486.206 114.614 475.083 117.896 465.12C120.842 456.189 115.27 452.465 116.018 444.257C116.766 436.049 120.898 429.373 121.89 425.155C122.882 420.936 122.139 419.761 120.399 414.891C118.659 410.022 117.916 392.161 116.674 392.161C104.248 394.889 101.974 402.587 95.7609 399.87C89.5478 397.153 77.5085 389.81 78.0072 393.255C79.2488 402.185 71.7687 410.739 71.0207 415.207C70.2727 419.675 70.0284 430.34 65.5557 426.615C61.0829 422.89 61.5053 402.353 49.1199 406.816Z" fill="#ED824C"/>
<path d="M142.15 432.874C142.15 440.634 138.919 447.91 138.919 450.821C138.919 453.732 139.051 464.397 136.466 469.969C133.881 475.541 139.519 485 139.331 490.094C139.143 495.187 138.064 506.972 134.782 512.305C132.747 515.791 131.482 519.672 131.072 523.688C137.881 526.598 142.684 524.935 147.31 522.456C149.94 521.042 151.029 515.668 154.433 511.801C158.107 507.654 154.703 523.316 159.522 523.561C164.341 523.805 166.34 521.016 171.475 518.101C173.826 505.619 173.322 506.906 180.049 504.978C180.558 495.121 183.565 486.939 184.237 482.899C184.908 478.858 193.152 459.548 189.284 450.658C187.524 446.618 193.152 430.94 193.152 426.091C193.152 421.242 192.475 419.476 191.625 416.23C190.775 412.983 181.311 418.702 179.296 419.832C177.281 420.962 174.843 424.554 172.202 426.412C170.228 427.806 166.066 424.961 163.211 425.608C160.356 426.254 149.884 435.382 142.15 432.874Z" fill="#ED824C"/>
<path d="M272.46 389.154C272.46 389.154 277.264 393.652 281.289 396.619C284.886 399.27 285.278 407.452 283.833 414.826C282.388 422.199 287.517 435.403 286.652 447.707C286.326 452.343 283.599 454.77 282.459 460.108C282.082 461.863 282.968 472.493 282.576 474.188C280.943 481.001 279.691 481.174 278.775 484.151C276.938 490.12 277.284 494.837 274.877 502.169C272.47 509.502 265.006 511.328 258.508 526.665C253.058 539.529 243.807 534.15 246.036 529.779C248.264 525.408 253.424 517.933 250.554 511.181C247.12 503.105 238.026 498.124 233.355 500.719C231.437 501.783 229.753 503.309 229.213 505.355C228.14 509.425 231.488 515.089 224.344 519.246C221.168 521.093 221.092 519.638 213.815 526.523C209.618 530.497 201.603 531.367 199.268 537.112C196.932 542.857 196.133 548.047 190.434 549.874C184.974 551.619 173.281 550.973 174.583 543.956C175.499 539.01 188.236 537.575 191.884 525.23C194.739 515.506 197.349 516.732 199.98 513.384C202.611 510.036 204.661 504.429 203.226 499.137C201.791 493.844 208.488 477.114 209.048 472.33C209.607 467.547 211.592 455.172 209.684 450.384C207.775 445.596 210.64 438.579 212.228 434.269C213.815 429.959 213.826 419.268 212.228 409.844C214.615 408.948 216.934 407.882 219.169 406.654C221.932 405.066 222.308 409.849 226.043 407.346C229.681 404.908 233.376 402.766 233.376 397.22C233.376 391.673 237.238 391.882 243.629 392.045C250.814 392.162 253.872 396.741 260.161 394.477C262.319 393.724 271.437 389.276 272.46 389.154Z" fill="#ED824C"/>
<path d="M1055.97 149.344C1055.97 149.344 1062.05 151.866 1066.86 153.227C1071.16 154.444 1074.41 161.965 1075.65 169.376C1076.89 176.786 1086.34 187.343 1089.85 199.165C1091.18 203.619 1089.48 206.85 1090.29 212.248C1090.55 214.024 1095.12 223.663 1095.35 225.387C1096.22 232.34 1095.11 232.942 1095.3 236.051C1095.68 242.284 1097.66 246.578 1097.99 254.289C1098.31 261.999 1091.97 266.335 1091.28 282.977C1090.7 296.935 1080.15 295.154 1080.7 290.278C1081.25 285.403 1083.45 276.591 1078.39 271.279C1072.33 264.928 1062.07 263.462 1058.61 267.535C1057.18 269.205 1056.14 271.226 1056.36 273.331C1056.79 277.519 1061.91 281.643 1056.69 288.048C1054.36 290.893 1053.78 289.558 1049.39 298.562C1046.86 303.759 1039.66 307.392 1039.5 313.591C1039.33 319.79 1040.41 324.93 1035.72 328.645C1031.22 332.199 1020.04 335.706 1018.8 328.679C1017.91 323.727 1029.33 317.905 1028.41 305.065C1027.66 294.959 1030.53 295.189 1031.82 291.129C1033.1 287.069 1033.05 281.099 1029.85 276.65C1026.64 272.201 1027.03 254.183 1025.87 249.509C1024.71 244.835 1022.21 232.552 1018.74 228.741C1015.27 224.93 1015.49 217.353 1015.46 212.76C1015.43 208.168 1011.68 198.156 1006.87 189.896C1008.79 188.218 1010.58 186.404 1012.24 184.469C1014.27 182.011 1016.31 186.356 1018.92 182.699C1021.47 179.137 1024.17 175.833 1022.22 170.641C1020.27 165.449 1023.96 164.285 1030 162.19C1036.77 159.773 1041.24 162.984 1046.33 158.652C1048.09 157.189 1055.06 149.818 1055.97 149.344Z" fill="#ED824C"/>
<path d="M30.8599 518.692C28.7482 512.835 27.5931 503.665 28.0561 495.514C28.5192 487.362 30.3612 490.674 26.4431 481.775C22.525 472.875 26.2192 459.614 25.4254 450.191C24.6316 440.767 22.3113 418.601 22.3113 412.745C22.3679 408.776 22.7526 404.819 23.4613 400.914C15.396 401.031 7.43765 397.993 4.84763 400.914C2.25759 403.835 -5.46671 403.514 -8.06692 400.527C-12.5092 395.439 -17.9538 399.708 -16.7733 404.038C-16.3001 409.635 -9.23726 432.747 -9.36447 441.973C-9.49168 451.198 -10.2753 457.431 -5.46671 465.888C-3.16673 469.929 -2.73928 487.194 -7.93461 498.236C-7.02886 486.415 -11.6085 473.201 -16.8598 467.156C-23.139 459.925 -17.5162 452.399 -19.5007 443.036C-23.2662 425.227 -27.7033 419.527 -31.4841 412.892C-33.7789 413.859 -38.1601 414.927 -44.8311 413.803C-50.9729 412.785 -59.4503 409.656 -61.1447 409.544C-64.6812 409.3 -65.1545 412.21 -67.9887 413.177C-70.823 414.144 -78.1352 411.722 -83.0913 409.783C-81.1221 416.245 -83.4831 426.748 -83.7986 431.918C-84.1141 437.088 -77.6619 443.713 -77.3464 449.046C-77.031 454.378 -73.8863 468.112 -72.7668 474.412C-71.6474 480.711 -69.3016 482.172 -68.9912 485.723C-68.6808 489.275 -71.5049 498.49 -71.0266 503.172C-70.5483 507.853 -72.1969 501.182 -68.8945 514.025C-65.5921 526.869 -67.2407 529.052 -64.1724 530.263C-61.104 531.474 -61.5773 529.754 -60.3967 520.732C-59.4554 524.04 -57.8016 535.84 -54.9724 536.323C-52.1432 536.807 -49.0698 534.629 -42.465 534.629C-40.8112 538.506 -40.2668 543.946 -37.8854 545.884C-35.5039 547.823 -26.5584 547.579 -26.5584 541.035C-26.5584 538.216 -29.8557 528.451 -30.8836 524.106C-32.6391 516.661 -21.2155 530.548 -15.2467 533.85C-4.18441 540.725 0.349419 531.026 1.38238 528.477C2.41534 525.927 7.25447 525.932 11.4016 526.187C15.5487 526.441 24.2703 528.731 27.3081 527.713C30.346 526.696 32.9818 524.548 30.8599 518.692Z" fill="#ED824C"/>
<path d="M1116.75 731.498C1113.21 723.947 1105.55 721.454 1104.89 715.775C1104.23 710.096 1108.24 697.584 1104.38 688.684C1102.75 684.934 1101.79 664.402 1102.9 658.957C1104 653.513 1109 650.134 1110.84 642.674C1113.21 633.006 1110.16 629.027 1112.79 620.025C1115.42 611.024 1111.89 604.373 1109.82 603.635C1106.48 602.465 1106.1 606.236 1106.31 612.861C1106.44 616.932 1103.38 620.493 1100.03 625.333C1096.19 630.889 1092.6 627.963 1090.31 632.965C1088.02 637.967 1089 645.03 1087.82 643.651C1086.64 642.272 1082.08 637.392 1078.82 638.339C1075.56 639.285 1073.95 638.848 1073.39 642.181C1071.84 651.457 1068.36 673.831 1071.01 677.291C1073.66 680.751 1075.84 680.792 1075.4 686.857C1074.96 692.923 1073.69 697.416 1075.43 701.436C1077.16 705.456 1082.47 704.489 1082.47 704.489C1082.91 710.875 1082.3 720.4 1085.57 724.156C1088.99 729.641 1088.99 743.207 1091.98 745.939C1095.13 748.82 1104.43 749.944 1107.2 749.552C1109.96 749.161 1110.84 745.008 1114.18 742.322C1118.19 740.419 1119.84 738.103 1116.75 731.498Z" fill="#ED824C"/>
<path d="M1063.58 719.144C1062.06 713.684 1057.59 711.216 1055.91 703.812C1054.23 696.409 1054.93 684.95 1054.23 682.349C1053.52 679.749 1051.71 679.622 1050.99 675.856C1050.27 672.091 1053.25 667.669 1053.08 664.153C1052.91 660.637 1053.5 644.817 1055.48 639.372C1057.55 633.658 1054.61 631.846 1052.7 629.897C1050.79 627.948 1049.19 637.311 1047.57 632.304C1046.32 625.18 1044.84 616.53 1044.31 610.454C1043.61 602.43 1042.82 602.903 1037.24 601.804C1034.43 601.244 1034.5 616.82 1029.1 618.952C1026.33 620.046 1021.97 632.95 1021.07 642.359C1017.95 619.344 1026.01 606.77 1027.05 600.267C1028.08 593.764 1026.57 589.826 1025.98 587.037C1025.38 584.249 1017.43 588.538 1015.06 588.783C1012.4 595.733 1014.83 606.592 1013.05 610.734C1011.28 614.876 1007.73 610.225 1008.4 618.54C1009.07 626.854 1009.57 631.709 1008.32 640.736C1007.07 649.763 1005.13 654.882 1008.32 664.881C1011.51 674.879 1010.8 680.492 1010.82 685.128C1010.82 688.725 1014.85 703.003 1017.68 711.272C1019.09 715.119 1019.27 720.035 1019.63 724.451C1020 728.868 1023.11 728.609 1026.84 731.463C1030.56 734.318 1031.04 739.549 1032.85 741.757C1034.67 743.966 1040.35 741.111 1043.19 737.081C1046.02 733.051 1045.83 729.871 1048.84 726.904C1051.84 723.937 1052.68 725.444 1055.56 726.904C1058.45 728.364 1065.13 724.609 1063.58 719.144Z" fill="#ED824C"/>
<path d="M1107.85 431.014C1100.73 447.643 1087.27 457.367 1084.62 461.545C1081.97 465.723 1083.48 473.538 1078.55 477.828C1073.63 482.118 1064.57 483.471 1062.9 488.626C1061.22 493.78 1059.71 510.135 1052.53 516.556C1045.35 522.978 1038.79 526.484 1038.07 531.944C1037.35 537.404 1023.82 555.717 1027.99 557.819C1029.55 558.602 1031.36 559.528 1033.22 559.854C1037.48 561.381 1039.77 559.035 1042.02 561.284C1044.27 563.533 1042.93 577.135 1051.66 579.994C1054.09 580.34 1058.23 579.256 1059.11 575.791C1060.19 571.758 1062.72 568.263 1066.21 565.97C1069.03 564.108 1074.61 546.868 1075.05 552.455C1075.29 555.575 1067.56 584.839 1066 588.304C1064.44 591.769 1060.67 597.519 1064.38 603.554C1070.84 609.93 1073.12 609.731 1073.85 605.625C1074.58 601.519 1078.16 605.075 1082.64 604.241C1089.14 603.03 1093.43 599.437 1093.04 595.148C1091.59 581.628 1098.68 581.409 1101.09 575.812C1103.51 570.214 1102.23 553.575 1099.65 549.494C1097.08 545.413 1095.96 540.844 1099.01 540.65C1102.07 540.457 1097.73 525.288 1099.14 520.016C1100.54 514.745 1101.68 510.557 1105.37 507.977C1109.07 505.397 1106.5 498.258 1105.37 494.518C1104.42 491.353 1102.51 484.764 1103.26 481.644C1104 478.525 1105.2 470.816 1103.26 466.557C1102.64 464.822 1101.73 463.947 1101.41 461.698C1100.9 458.095 1107.95 449.129 1110.22 442.112C1112.5 435.095 1109.45 427.279 1107.85 431.014Z" fill="#ED824C"/>
<path d="M1351.17 788.281C1351.25 781.407 1350.88 774.534 1350.05 767.708C1349.69 764.284 1350.78 760.315 1350.66 754.86C1350.54 749.405 1352.13 741.447 1350.81 731.535C1349.29 720.152 1350.24 712.122 1350.24 705.889C1350.24 699.655 1350.83 682.553 1350.83 682.553C1347.02 683.84 1338.28 684.431 1334.25 684.777C1325.9 683.036 1329.67 678.009 1327.53 673.378C1325.19 668.387 1320.77 673.694 1313.23 674.513C1303.52 675.261 1299.14 680.981 1293.89 680.981C1288.63 680.981 1287.04 687.494 1286.47 693.193C1285.91 698.892 1283.93 722.233 1281.85 726.863C1279.77 731.494 1272.18 750.27 1272.18 755.298C1272.18 760.325 1269.06 781.285 1269.06 781.285C1269.06 781.285 1266.2 794.647 1266.2 795.99C1266.2 797.334 1268.46 796.698 1270.37 795.99C1272.29 795.283 1278.88 794.464 1281.5 793.446C1284.12 792.428 1289.98 761.643 1296.77 738.999C1303.22 761.628 1292.29 798.173 1292.29 798.173C1293.82 799.074 1293.82 799.405 1296.51 800.778C1296.51 800.778 1310.7 807.429 1318.27 805.18C1319.99 805.297 1321.39 804.249 1322.53 803.409C1323.05 803.131 1323.56 802.831 1324.06 802.509C1325.61 802.04 1332.8 797.99 1332.8 800.326C1332.8 802.661 1333.87 803.913 1337.23 805.002C1340.58 806.091 1348.77 808.014 1350.2 808.951C1351.64 809.887 1351.05 798.57 1351.17 788.281Z" fill="#ED824C"/>
<path d="M1351.3 275.355C1351.3 260.756 1349.43 252.874 1347.63 246.498C1345.84 240.122 1346.28 244.463 1348.53 233.777C1350.78 223.091 1347.32 199.252 1347.32 195.782C1347.32 192.311 1345.56 192.311 1342.27 192.387C1339.63 192.481 1337.03 191.724 1334.85 190.23C1333.17 189.075 1331.74 187.894 1331.74 187.894C1328.79 190.383 1325.93 191.924 1321.05 191.848C1316.18 191.772 1312.63 187.971 1311.03 185.935C1309.79 184.5 1309.03 183.859 1305.51 182.607C1304.86 183.691 1304.28 200.753 1302.07 210.085C1299.87 219.417 1298.96 213.591 1299.02 210.085C1299.09 206.579 1298.56 201.379 1298.24 196.962C1297.91 192.545 1295.84 191.614 1290.66 192.306C1284.26 192.927 1272.63 195.359 1266.12 196.713C1259.25 198.163 1254.51 200.783 1249.23 204.086C1248.64 211.556 1247.75 220.669 1246.68 230.113C1245.76 238.143 1242.35 236.81 1241.78 248.783C1241.51 254.38 1241.21 263.076 1241.62 268.893C1242.17 276.759 1245.52 279.751 1244.78 289.313C1244.23 296.508 1241.03 306.766 1240.8 310.557C1240.04 323.12 1247.62 320.586 1252.71 320.006C1254.38 319.818 1256.83 313.305 1260.28 313.391C1267.31 313.6 1274.26 320.693 1275.62 320.566C1277.57 320.383 1283.3 323.161 1284.69 316.816C1286.06 313.915 1288.83 310.608 1292.13 309.397C1295.42 308.186 1301.39 308.964 1306.12 309.906C1314.41 312.323 1319.35 310.883 1325.64 309.03C1331.94 307.178 1342.22 311.066 1349.64 312.643C1348.89 296.681 1351.3 289.959 1351.3 275.355ZM1276.59 272.623C1274.97 274.541 1275.97 288.554 1273.68 299.245C1272.15 306.293 1268.66 305.494 1265.14 300.772C1266.45 293.664 1267.16 286.459 1267.27 279.232C1267.27 273.248 1266.32 269.178 1266.21 262.476C1266.09 255.775 1268.46 238.051 1270.35 233.518C1272.25 228.984 1270.57 226.129 1270.35 223.224C1269.7 214.136 1275.83 221.377 1276.59 224.012C1277.34 226.648 1273.84 241.089 1273.6 246.356C1273.36 251.622 1275.59 260.873 1276.59 264.221C1277.58 267.57 1278.21 270.709 1276.59 272.623Z" fill="#ED824C"/>
<path d="M1267.24 680.549C1267.3 676.478 1264.19 671.445 1262.31 668.789C1260.43 666.133 1261.53 660.5 1261.66 652.878C1261.74 649.219 1253.34 649.87 1252.86 653.035C1252.28 656.923 1252 660.849 1252.02 664.78C1252.92 669.741 1253.7 683.235 1253.55 687.24C1253.39 691.245 1249.98 713.568 1241.69 724.742C1242.11 722.758 1246.97 695.6 1246.86 689.011C1246.76 683.098 1246.57 675.781 1245.55 670.85C1244.44 670.977 1243.37 671.323 1242.4 671.868C1237.65 674.056 1236.08 676.625 1231.01 673.466C1230.47 672.137 1230.96 670.784 1230.42 669.822C1229.46 667.817 1225.23 670.774 1224.13 669.659C1222.26 667.756 1217.39 660.566 1212.39 660.897C1211.75 664.53 1214.31 669.507 1213.22 674.636C1212.14 679.765 1210.55 686.421 1207.75 697.101C1204.96 707.782 1196.28 713.644 1196.19 720.595C1196.1 727.546 1197.85 729.998 1196.34 734.537C1194.83 739.076 1190.7 735.698 1186.28 743.89C1181.86 752.082 1185.1 757.746 1181.19 764.351C1177.29 770.956 1180.31 781.412 1167.93 796.138C1163.96 800.85 1160.51 807.776 1158.33 812.131C1153.71 821.387 1151.21 824.853 1155.37 826.802C1161.98 829.936 1164.84 823.372 1167.31 820.253C1171.67 814.732 1171.41 815.877 1171.14 821.922C1170.9 827.621 1176.95 821.962 1182.13 815.24C1188.79 808.936 1209.65 806.117 1213.39 806.554C1215.53 807.018 1217.13 806.758 1217.9 804.885C1219.23 801.644 1220.4 795.329 1222.53 796.016C1224.65 796.703 1229.41 805.486 1234.28 807.877C1239.14 810.269 1245.13 809.089 1244.96 806.86C1244.79 804.631 1243.04 794.749 1245.23 790.521C1247.41 786.292 1249.03 767.21 1250.41 761.277C1251.78 755.344 1252 742.002 1254.4 738.705C1256.8 735.407 1261.97 721.979 1263.53 717.954C1265.09 713.929 1264.32 704.414 1263.99 698.928C1263.65 693.443 1267.17 684.599 1267.24 680.549Z" fill="#ED824C"/>
<path d="M1218.3 286.93C1219.6 284.59 1221.67 273.42 1221.62 269.263C1221.57 265.106 1220.9 252.369 1221.62 247.434C1222.35 242.498 1225.09 216.443 1229.78 203.711C1221.99 202.694 1204.85 210.469 1201.68 210.469C1198.51 210.469 1194.25 204.78 1192.17 202.704C1190.61 201.142 1185.68 202.658 1181.99 204.5C1173.75 208.271 1161.67 209.11 1155.99 207.909C1151.58 206.475 1147.69 203.785 1144.79 200.17C1140.99 195.163 1132.25 195.672 1129.91 196.608C1127.56 197.544 1123.27 227.568 1124.08 232.484C1124.88 237.399 1125.64 253.123 1122.73 259.453C1119.82 265.783 1123.32 274.306 1122.54 284.386C1121.76 294.466 1119.86 292.019 1117 304.048C1118.25 307.238 1124.08 310.984 1127.18 309.264C1130.28 307.544 1130.3 306.455 1134.45 302.649C1138.61 298.842 1149.93 307.798 1157.73 310.994C1157.71 307.442 1157.97 303.895 1158.51 300.384C1159.59 294.934 1161.49 285.882 1161.41 281.893C1161.33 277.73 1161.41 277.313 1163.23 274.962C1165.05 272.611 1166.95 268.81 1167.11 264.785C1167.26 260.76 1166.26 251.403 1169.81 244.386C1169.64 249.474 1171.8 256.511 1172.58 264.785C1173.36 273.059 1170.25 286.829 1169.29 293.148C1168.34 299.468 1169.55 298.435 1172.9 305.661C1173.2 306.592 1173.35 307.567 1173.34 308.546C1173.34 314.525 1172.32 318.372 1170.22 324.081C1170.22 324.081 1174.21 328.518 1181.88 326.193C1184.79 325.308 1185.81 322.321 1189.97 310.368C1193.61 309.065 1195.69 306.73 1205.43 310.108C1205.56 311.925 1203.91 320.931 1211.03 321.71C1218.15 322.489 1217.91 327.424 1219.21 321.71C1220.51 315.996 1221.67 300.232 1221.62 293.723C1221.57 287.215 1217.02 289.266 1218.3 286.93Z" fill="#ED824C"/>
<path d="M1259.53 600.996C1258.05 586.061 1256.24 573.676 1254.95 567.824C1253.04 557.088 1249.01 547.572 1240.71 541.588C1228.68 530.561 1222.43 519.535 1223.87 512.731C1225.31 505.928 1227.39 499.064 1221.91 497.334C1216.42 495.604 1212.33 491.38 1209.69 485.396C1207.05 479.412 1197.96 472.41 1194.36 464.432C1191.23 468.894 1182.31 469.128 1182.08 473.113C1181.85 477.097 1177.24 489.823 1175.31 491.848C1173.38 493.874 1169.62 498.591 1176.55 502.875C1183.48 507.16 1190.59 512.92 1191.66 517.423C1192.74 521.926 1190.08 526.394 1193.83 528.668C1197.58 530.943 1206.19 546.056 1205.66 549.211C1205.54 550.016 1205.54 550.837 1205.66 551.643C1205.67 552.03 1205.75 552.411 1205.92 552.762C1206.26 553.864 1206.84 554.876 1207.62 555.726C1208.41 556.575 1209.37 557.24 1210.44 557.673C1211.6 558.609 1212.95 559.627 1214.51 560.726C1216.39 562.023 1215.46 568.313 1214.94 570.597C1214.15 574.063 1210.95 572.068 1214.15 580.841C1214.21 581.014 1214.28 581.182 1214.35 581.349C1217.89 590.198 1217.55 603.444 1216.54 609.677C1215.59 615.539 1214.47 619.956 1216.54 624.703C1218.61 629.451 1215.97 637.984 1216.63 639.236C1225.41 642.574 1233.88 650.354 1237.85 647.591C1245.3 642.406 1238.96 637.923 1243.09 630.972C1247.22 624.021 1252.13 626.545 1257.3 624.042C1262.47 621.538 1260.44 610.14 1259.53 600.996Z" fill="#ED824C"/>
<path d="M1357.77 548.248C1355.79 544.808 1353.42 528.53 1352.12 519.356C1350.83 510.181 1356.23 506.288 1355.22 501.546C1354.21 496.804 1353.35 486.108 1353.35 483.507C1344.57 481.828 1339.1 480.912 1339.25 483.507C1339.39 486.103 1337.04 486.718 1333.39 486.718C1330.11 486.718 1323.32 488.377 1318.8 491.216C1312.48 495.185 1312.75 500.421 1309.7 505.393C1306.65 510.364 1299.07 514.303 1296.43 509.464C1293.79 504.625 1291.85 502.472 1291.85 502.472C1288.29 501.734 1289.53 503.841 1290.32 510.97C1291.12 518.099 1291.8 537.018 1291.8 542.203C1291.8 547.388 1305.16 585.206 1297.82 591.185C1292.56 575.466 1285.94 555.173 1283.62 546.584C1281.3 537.995 1283.11 529.085 1281.44 523.905C1279.77 518.725 1276.2 517.422 1277.13 511.265C1278.06 505.108 1277.13 500.844 1276.66 499.735C1267.85 497.653 1265.22 497.007 1263.36 492.305C1261.5 487.604 1259.28 476.424 1256.36 475.915C1250.79 475.025 1249.38 480.225 1249.85 483.63C1250.32 487.034 1240.81 491.14 1241.74 495.404C1242.68 499.668 1247.56 500.157 1249.17 505.016C1250.79 509.876 1250.26 512.329 1249.85 518.14C1249.44 523.951 1261.23 539.282 1264.25 544.391C1267.26 549.5 1272.46 557.957 1272 562.089C1271.53 566.221 1270.98 572.093 1275.41 576.184C1279.84 580.275 1278.39 592.024 1277.81 599.316C1277.24 606.608 1278.01 624.346 1278.01 624.346C1284.43 626.295 1285.97 627.023 1285.08 636.014C1284.2 645.005 1288.37 649.188 1289.76 653.172C1291.16 657.157 1288.21 660.561 1295.36 660.561C1302.52 660.561 1305.08 658.912 1305.54 653.172C1305.81 649.819 1308.8 649.707 1312 650.119C1315.71 650.806 1318.31 654.027 1320.45 654.088C1322.59 654.149 1326.8 651.605 1332.42 651.814C1332.82 651.839 1333.22 651.887 1333.61 651.956C1337.01 652.557 1339.6 650.491 1339.17 655.08C1338.74 659.67 1341.11 662.876 1345.86 661.039C1350.61 659.202 1347.16 650.14 1348.24 641.489C1349.32 632.839 1352.55 617.706 1350.39 611.284C1348.24 604.862 1347.16 603.259 1346.51 597.067C1345.87 590.874 1349.75 587.205 1350.18 581.247C1350.61 575.288 1349.53 556.023 1349.53 556.023C1356.65 554.899 1359.75 551.688 1357.77 548.248Z" fill="#ED824C"/>
<path d="M1238.54 421.816C1238.37 416.3 1236.19 417.434 1234.52 414.692C1232.85 411.949 1235.37 403.645 1232.82 398.449C1230.28 393.254 1225.46 383.184 1221.94 376.569C1218.41 369.954 1220.56 356.587 1219.59 351.554C1218.63 346.522 1214.93 344.252 1210.75 345.387C1206.56 346.522 1199.75 342.843 1198.92 340.451C1198.08 338.059 1194.28 340.527 1193.83 341.84C1193.16 343.749 1192.38 345.618 1191.49 347.437C1189.55 350.404 1181.96 349.076 1176.07 350.063C1170.19 351.05 1170.37 361.151 1167.08 360.718C1163.79 360.286 1164.22 354.566 1163.1 350.323C1161.97 346.079 1158.82 345.489 1154.45 343.036C1154.25 342.883 1154.05 342.736 1153.85 342.598C1150.06 340.008 1151.08 334.045 1146.63 330.656C1142.18 327.267 1139.66 327.888 1135.72 329.709C1131.77 331.531 1125.7 336.324 1119.4 334.874C1118.36 339.586 1119.27 341.743 1119.4 346.165C1119.54 350.587 1116.89 358.678 1116.86 367.277C1116.82 375.877 1121.13 376.182 1122.51 382.614C1123.88 389.046 1120.3 399.966 1124.32 411.807C1126.12 417.083 1135.7 431.316 1135.52 436.71C1135.24 444.648 1137.55 448.683 1141.73 452.993C1145.91 457.303 1148.27 459.806 1153.77 467.541C1159.27 475.275 1158.94 474.664 1162.32 471.23C1164.52 469.001 1165.13 466.462 1165.33 463.811C1160.28 457.705 1156.28 452.82 1153.56 449.131C1150.59 445.095 1144.43 428.064 1143.92 423.871C1143.42 419.678 1139.25 406.525 1137.55 400.902C1141.01 405.935 1148.08 415.231 1148.81 418.366C1149.54 421.5 1151.6 431.82 1153.44 433.153C1155.29 434.486 1158.49 437.529 1159.74 441.335C1161 445.141 1167.97 453.893 1172 452.983C1176.33 451.761 1176.65 444.77 1181.22 444.149C1185.79 443.528 1189.6 444.658 1189.73 437.122C1189.79 433.657 1191.4 425.306 1193.44 421.139C1194.84 418.244 1193.98 414.809 1196.49 416.3C1199.75 418.249 1196.22 424.222 1199.63 435.529C1203.03 446.836 1207.19 454.224 1209.25 457.608C1211.31 460.992 1220.26 467.439 1221.07 469.851C1221.88 472.263 1225.48 466.116 1228.83 462.727C1232.17 459.338 1229.33 457.862 1230.67 454.29C1232 450.718 1240.72 446.5 1240.72 446.016C1238.2 439.02 1238.71 427.332 1238.54 421.816Z" fill="#ED824C"/>
<path d="M1357.49 453.801C1355.39 447.928 1354.24 438.769 1354.7 430.628C1355.16 422.486 1357 425.783 1353.09 416.889C1349.17 407.994 1352.86 394.729 1352.07 385.305C1351.27 375.881 1348.95 353.721 1348.95 347.864C1349 343.879 1349.38 339.905 1350.09 335.982C1342.02 336.099 1334.07 333.066 1331.48 335.982C1328.89 338.898 1321.16 338.587 1318.56 335.601C1314.12 330.512 1308.67 334.781 1309.85 339.106C1310.33 344.734 1317.39 367.821 1317.26 377.046C1317.14 386.272 1316.35 392.505 1321.16 400.962C1323.46 405.002 1323.89 422.272 1318.69 433.314C1319.6 421.494 1315.02 408.279 1309.77 402.234C1303.49 395.008 1309.11 387.483 1307.12 378.115C1303.35 360.305 1298.91 354.606 1295.13 347.976C1292.84 348.942 1288.46 350.011 1281.79 348.887C1275.64 347.869 1267.17 344.739 1265.47 344.622C1261.94 344.383 1261.46 347.289 1258.63 348.261C1255.79 349.233 1248.48 346.805 1243.53 344.867C1245.5 351.329 1243.13 361.832 1242.82 367.001C1242.5 372.171 1248.96 378.797 1249.27 384.129C1249.59 389.462 1252.73 403.196 1253.85 409.495C1254.97 415.795 1257.32 417.25 1257.63 420.807C1257.94 424.364 1255.11 433.569 1255.59 438.255C1256.07 442.942 1254.42 436.266 1257.72 449.109C1261.03 461.952 1259.38 464.135 1262.45 465.346C1265.51 466.557 1265.04 464.863 1266.22 455.811C1267.16 459.123 1268.82 470.923 1271.65 471.407C1274.47 471.89 1277.55 469.707 1284.15 469.707C1285.81 473.59 1286.35 479.029 1288.73 480.968C1291.11 482.907 1300.06 482.662 1300.06 476.119C1300.06 473.295 1296.76 463.53 1295.73 459.184C1293.98 451.745 1305.4 465.631 1311.37 468.929C1322.43 475.808 1326.97 466.11 1328 463.56C1329.03 461.011 1333.87 461.016 1338.02 461.265C1342.17 461.515 1350.89 463.81 1353.93 462.792C1356.96 461.774 1359.61 459.657 1357.49 453.801Z" fill="#ED824C"/>
<path d="M1023.33 7.73013C1019.71 1.12961 1020.07 2.96888 1019.71 -3.06561C1019.35 -9.10009 1018.99 -10.3274 1015.15 -18.0875C1011.32 -25.8476 1001.51 -42.8568 998.272 -50.4229C995.035 -57.9891 981.999 -92.714 979.814 -96.5602C977.628 -100.407 977.871 -92.5301 976.003 -89.3965C974.135 -86.2629 970.718 -84.7348 971.64 -81.573C972.005 -80.2209 972.106 -78.8112 971.937 -77.421C969.809 -67.9256 953.28 -76.2322 948.821 -79.5511C946.476 -81.4509 944.268 -83.3588 942.989 -85.745C939.945 -91.4417 924.388 -92.7971 927.809 -87.9026C930.934 -83.429 933.81 -76.708 933.889 -75.3772C933.968 -74.0463 931.818 -60.8031 930.155 -56.6978C928.492 -52.5926 932.872 -44.4162 938.474 -33.1622C944.076 -21.9082 944.537 -7.35696 945.85 -1.29757C947.163 4.76181 950.277 4.58211 953.583 4.38588C952.138 16.1957 952.215 21.5281 952.666 29.122C953.116 36.7159 959.395 34.0291 967.243 33.4767C975.842 32.8747 975.96 31.94 976.481 28.6926C977.002 25.4452 975.138 10.9619 972.142 2.72897C969.145 -5.50396 968.271 -24.9599 968.271 -24.9599C977.493 -2.27312 981.554 5.95268 983.833 12.2249C985.537 16.9 986.753 12.5614 986.753 12.5614C988.101 10.1977 995.252 3.1416 1002.43 5.4838C1003.57 5.87459 1004.63 6.46577 1005.56 7.22958C1008.94 9.99596 1011.98 17.89 1012.64 24.0645C1013.3 30.239 1015.81 32.2564 1018.7 27.7522C1021.59 23.248 1020.89 22.5503 1023.92 19.3423C1026.96 16.1342 1026.94 14.3256 1023.33 7.73013Z" fill="#ED824C"/>
<path d="M1196.7 622.92C1192.68 624.569 1183.11 623.831 1179.06 621.785C1175.02 619.74 1170.72 618.356 1170.86 624.33C1170.97 628.808 1167.16 636.033 1163.09 637.478C1159.03 638.923 1154.8 631.957 1148.74 630.482C1147.88 630.029 1146.94 629.998 1145.85 629.754C1143.71 629.245 1143.21 630.487 1140.93 631.825C1138.65 633.163 1134.77 617.669 1134.27 627.067C1134.07 637.565 1128.23 648.897 1129.76 650.678C1131.3 652.459 1131.8 658.071 1129.76 660.997C1127.73 663.923 1124.34 662.707 1124.34 666.859C1124.34 671.011 1127.32 680.043 1127.32 687.61C1127.32 695.176 1125.53 704.208 1127.12 706.895C1128.71 709.582 1134.67 712.492 1136.45 716.171C1138.24 719.85 1139.3 724.959 1139.3 724.959C1144.26 721.346 1143.04 711.51 1143.45 707.786C1143.86 704.061 1153.24 686.414 1155.79 669.246C1156.56 682.236 1150.62 709.083 1151.1 716.273C1151.33 719.509 1145.28 730.414 1147.47 736.8C1148.71 741.955 1155.81 736.719 1155.13 745.959C1154.46 755.2 1153.71 757.815 1157.98 759.78C1162.25 761.744 1161.91 757.235 1164.32 750.437C1166.74 743.639 1167.72 737.248 1170.55 732.831C1173.39 728.414 1172.35 724.181 1172.47 719.403C1172.58 714.625 1180.64 702.275 1183.06 696.505C1185.31 697.095 1188.65 697.71 1188.9 693.136C1189.14 688.561 1195 664.549 1195.09 661.552C1195.19 658.555 1191.17 654.428 1192.41 648.795C1193.64 643.162 1195.59 641.111 1195.8 639C1196 636.888 1193.41 633.316 1196.7 622.92Z" fill="#ED824C"/>
<path d="M1202.84 595.621C1201.6 591.769 1197.5 583.322 1195.27 577.094C1193.03 570.866 1192.63 564.846 1191.1 559.076C1189.57 553.305 1190.98 554.46 1186.76 552.664C1182.55 550.868 1176.14 539.617 1175.77 536.279C1175.4 532.941 1171.81 522.429 1169.7 519.223C1167.6 516.017 1151.24 505.113 1150.37 500.879C1149.49 496.645 1146.4 485.359 1142.68 480.739C1138.97 476.118 1126.2 466.888 1125.83 462.268C1122.86 467.402 1118.77 472.75 1121.37 479.202C1125.09 488.432 1122.83 490.946 1123.76 494.539C1124.36 500.416 1128.99 506.054 1131.98 513.249C1134.96 520.444 1140.16 526.372 1142.89 526.479C1145.62 526.586 1147.05 532.193 1147.31 537.165C1147.57 542.136 1147.44 549.743 1151.6 560.526C1144.19 554.16 1144.19 541.19 1141.46 535.715C1138.73 530.239 1133.06 534.417 1131.5 530.117C1129.95 525.817 1126.42 517.6 1125.61 519.289C1124.81 520.978 1125.61 520.882 1124.92 525.904C1124.1 527.588 1123.57 530.275 1122.27 532.183C1120.27 535.15 1118.5 538.91 1118.5 540.493C1118.5 542.075 1120.63 549.606 1121.35 553.611C1122.06 557.615 1119.75 563.279 1119.76 566.083C1119.76 568.886 1119.99 573.318 1122.1 577.908C1124.31 582.712 1123.75 585.337 1123.75 590.899C1123.75 596.461 1134.49 595.58 1134.27 602.506C1140.29 601.646 1138.62 608.134 1144.44 610.139C1150.26 612.143 1150.7 604.735 1152.18 607.442C1155.93 614.26 1156.95 612.164 1159.82 609.609C1162.93 606.836 1161.2 601.117 1161.2 601.117C1159.77 596.791 1161.57 594.573 1163.74 594.664C1166.86 594.797 1171.67 595.682 1174.79 595.748C1177.9 595.814 1179.64 600.252 1183.95 602.506C1184.18 602.636 1184.44 602.704 1184.71 602.704C1198.81 606.388 1204.05 599.397 1202.84 595.621Z" fill="#ED824C"/>
<path d="M1078.77 35.5702C1080.23 37.8295 1086.19 33.1717 1087.6 43.0859C1089 53 1095.77 90.6436 1099.85 99.7155C1099.85 99.7155 1107.95 106.448 1106.92 113.724C1105.88 121 1120.5 132 1121.06 142.464C1121.61 152.927 1114.58 152.971 1116.15 157.169C1117.71 161.367 1116.78 167.672 1115.8 169.774C1114.81 171.875 1115.5 180.541 1115.62 184.276C1115.75 188.011 1110.55 193.837 1110.29 201.403C1110.26 202.462 1110.32 208.334 1106.92 208.568C1103.51 208.802 1102.93 206.283 1102.26 196.213C1101.59 186.143 1100.95 183.553 1099.85 180.978C1098.75 178.404 1106.1 173.508 1105.88 172.806C1104.56 170.388 1102.85 168.198 1100.83 166.324C1100.04 165.879 1099.33 165.305 1098.73 164.624C1097.82 164.016 1097.09 163.179 1096.61 162.197C1091.15 155.648 1087.47 148.203 1086.14 136.912C1083.23 126.033 1082.61 117.993 1078.27 113.724C1073.36 108.875 1077.95 109.831 1077.02 99.7155C1076.09 89.5996 1074.83 90.1898 1067.71 84.2618C1059.53 77.4483 1059.75 63.8316 1059.64 58.5446C1059.4 46.7648 1057.82 45.1467 1051.83 35.5448C1047.22 28.1258 1072.66 9.446 1074.19 12.7942C1075.71 16.1424 1075.78 30.955 1078.77 35.5702Z" fill="#ED824C"/>
<path d="M1059.87 126.056C1058.51 122.96 1057.51 117.482 1055.16 112.585C1052.8 107.687 1053.46 88.3528 1051.14 83.8564C1048.82 79.3599 1044.2 71.8731 1041.45 67.8503C1038.7 63.8275 1033.45 40.455 1032.36 39.0746C1031.27 37.6943 1027.77 40.5991 1025.91 42.9881C1024.05 45.3771 1023.88 49.6158 1022.34 51.7031C1020.8 53.7904 1018.15 55.6424 1017.08 56.7244C1016.01 57.8065 1016.78 60.325 1019.56 67.9112C1022.34 75.4974 1022.09 83.4305 1014.57 66.058C1007.05 48.6856 1008.29 47.8497 1006.3 41.7123C1003.91 34.3589 1004.51 35.633 1003.18 33.5155C1001.86 31.398 997.757 33.8567 994.779 36.3007C992.916 37.8354 992.01 37.9374 992.676 42.2367C993.009 44.3839 993.277 50.1402 991.922 52.2246C990.566 54.309 986.725 50.9237 983.155 53.0681C982.74 53.3176 981.189 54.3046 980.467 54.7615C977.72 56.5104 975.445 56.2142 975.445 56.2142C975.445 56.2142 970.662 55.9872 970.049 57.4517C971.764 64.328 978.778 74.3378 979.454 76.4111C980.131 78.4843 982.044 101.369 982.133 103.869C980.534 97.237 973.102 78.0852 971.162 74.9668C969.221 71.8484 964.583 63.2111 963.192 60.0848C958.85 59.6813 953.301 56.2313 954.466 58.8982C957.279 65.3571 960.136 75.5578 962.549 77.8358C964.962 80.1138 964.005 86.7345 964.033 89.0731C964.06 91.4117 967.756 99.3096 971.185 105.328C974.615 111.346 971.015 114.999 979.936 131.366C983.491 137.89 986.925 145.334 988.502 153.617C989.182 157.172 989.813 157.425 996.037 155.22C1002.26 153.014 1004.03 150.526 1005.68 146.001C1007.34 141.476 1005.65 136.476 1005.2 134.464C1003.68 127.492 1009.04 121.908 1011.01 128.178C1011.61 129.918 1012.41 131.581 1013.39 133.134C1014.3 134.718 1016.38 136.909 1020.19 135.463C1023.49 134.216 1025.38 140.792 1029.59 141.463L1029.66 141.451L1029.81 141.47C1029.91 141.484 1030.01 141.493 1030.1 141.496C1030.27 141.517 1030.44 141.537 1030.63 141.544C1030.78 141.554 1030.92 141.531 1031.06 141.476C1032.14 141.328 1033.21 141.075 1034.24 140.722C1040.85 138.668 1041.09 131.422 1045.47 128.818C1049.85 126.213 1050.78 133.515 1055.55 134.093C1060.33 134.672 1062.72 132.54 1059.87 126.056Z" fill="#ED824C"/>
<path d="M1082.68 -21.0637C1080.51 -26.3021 1075.78 -28.2185 1073.23 -35.3685C1070.68 -42.5185 1070.01 -53.9795 1069 -56.4766C1067.98 -58.9736 1066.17 -58.8841 1065.01 -62.5362C1063.84 -66.1883 1066.28 -70.9355 1065.68 -74.4057C1065.09 -77.876 1063.79 -93.6538 1065.11 -99.296C1066.48 -105.216 1063.34 -106.664 1061.21 -108.37C1059.08 -110.077 1058.61 -100.59 1056.41 -105.368C1054.31 -112.291 1051.81 -120.703 1050.56 -126.671C1048.9 -134.554 1048.18 -133.991 1042.51 -134.415C1039.65 -134.635 1041.58 -119.179 1036.47 -116.417C1033.85 -114.999 1031.07 -101.668 1031.3 -92.2187C1025.45 -114.696 1031.96 -128.143 1032.2 -134.723C1032.45 -141.303 1030.49 -145.033 1029.56 -147.73C1028.64 -150.428 1021.25 -145.218 1018.93 -144.693C1017.12 -137.474 1020.83 -126.983 1019.56 -122.659C1018.29 -118.334 1014.22 -122.528 1015.87 -114.352C1017.53 -106.177 1018.61 -101.418 1018.44 -92.3059C1018.28 -83.194 1016.97 -77.88 1021.33 -68.3341C1025.69 -58.7882 1025.65 -53.1307 1026.23 -48.5313C1026.66 -44.9596 1032.37 -31.2652 1036.17 -23.3944C1038.03 -19.7435 1038.8 -14.8846 1039.68 -10.5426C1040.57 -6.20064 1043.64 -6.83102 1047.67 -4.44195C1051.71 -2.05289 1052.81 3.08402 1054.88 5.05951C1056.94 7.035 1062.25 3.52162 1064.58 -0.818275C1066.91 -5.15815 1066.34 -8.29255 1068.97 -11.5972C1071.6 -14.9019 1072.61 -13.5063 1075.65 -12.4011C1078.69 -11.296 1084.88 -15.8233 1082.68 -21.0637Z" fill="#ED824C"/>
</g>
<defs>
<clipPath id="clip0_278_1649">
<rect width="1280" height="720" fill="white"/>
</clipPath>
</defs>
</svg>
