<svg width="1280" height="720" viewBox="0 0 1280 720" fill="none" xmlns="http://www.w3.org/2000/svg">
<g clip-path="url(#clip0_264_1773)">
<rect width="1280" height="720" fill="#FFFBF3"/>
<rect x="-20" y="-10" width="1320" height="748" fill="#023A2F"/>
<path d="M11.1771 7.38185C12.9514 14.3549 10.6093 15.2953 10.6093 21.1861C10.6093 27.0768 17.3162 34.7773 20.9891 35.5048C25.1012 36.6251 29.1472 37.9757 33.1077 39.5503C33.1077 39.5503 20.9891 37.7759 20.6875 43.2231C20.3858 48.6703 13.1288 59.3871 9.81087 64.8875C6.4929 70.3879 7.18488 83.2517 4.98473 87.6698C2.70908 91.6501 0.13485 95.4522 -2.71582 99.0432L3.51204 107.489C3.51204 107.489 13.8031 81.4242 18.2744 78.1062C22.7457 74.7882 22.6924 87.2972 22.6924 89.1247C22.6924 90.9523 43.9843 88.7699 43.9843 88.7699C43.9843 88.7699 24.1651 93.1702 22.6924 96.4704C21.2197 99.7707 21.5214 110.807 20.5987 114.835C19.6761 118.862 35.8401 117.407 35.8401 117.407L47.2313 106.761L40.2405 121.08L50.2121 137.244C50.2121 137.244 42.8132 125.853 35.8401 125.481C28.8671 125.108 21.823 121.453 20.7762 123.28C19.7293 125.108 18.9486 148.547 23.7215 155.644C28.4945 162.741 28.1218 175.836 27.0218 179.509C25.9217 183.181 38.7678 187.227 38.7678 187.227C38.7678 187.227 28.1218 186.127 27.767 190.9C27.4121 195.673 22.6215 215.137 33.2674 215.137C43.9133 215.137 44.4811 220.584 44.8537 227.557C45.2263 234.53 43.381 242.994 43.381 250.339C43.381 257.685 44.8537 265.758 44.8537 269.857C44.8537 273.956 46.628 282.951 40.684 294.218C34.7401 305.485 46.557 321.135 45.5812 326.529C44.6053 331.923 62.7211 331.302 62.7211 331.302C63.2001 324.453 64.1938 306.816 62.7211 302.912C67.1214 319.077 70.5458 335.72 72.5153 343.065C83.7822 348.956 106.227 337.742 106.227 337.742C105.731 326.475 104.755 315.705 106.227 307.384C107.7 299.062 96.4332 270.123 96.4332 270.123C96.4332 270.123 87.5615 271.117 85.1662 266.22C82.7709 261.322 80.3756 240.261 80.3756 240.261C72.5508 241.734 58.8353 239.764 58.8353 239.764C74.0235 234.867 80.8724 236.837 80.8724 233.395C78.3883 222.625 62.1533 207.099 62.6324 193.792C63.1114 180.484 64.5841 181.052 65.0809 173.476C65.5777 165.9 63.1114 144.342 67.0327 142.39C70.9539 140.438 68.0085 122.872 66.5536 119.324C65.0987 115.775 59.2079 113.451 59.2079 113.451L66.0568 105.129C66.0568 105.129 66.0568 86.5165 68.5054 77.2191C70.9539 67.9216 73.438 42.4424 72.604 35.9839C69.0554 31.4416 63.2534 29.898 59.8999 16.3599C58.3917 10.1498 56.8658 -5.99652 56.8658 -5.99652L35.8224 -10.3968H57.3094C54.4647 -18.2779 52.7909 -26.5335 52.3413 -34.9002C51.809 -54.0628 50.567 -53.5838 47.9765 -57.5582C44.4278 -62.9699 50.3541 -77.9097 49.0943 -88.2185C47.9055 -98.0659 47.9055 -106.405 43.8601 -113.715C40.8615 -119.038 28.4235 -119.943 18.718 -122.8C11.5142 -124.947 6.40418 -124.929 7.46877 -119.251C8.90597 -111.71 17.8308 -106.05 19.0728 -92.9559C19.3567 -90.0105 17.2985 -80.234 17.1211 -77.2709C16.9436 -74.3078 29.8252 -70.5463 27.3412 -70.1736C22.8699 -69.3752 14.2112 -68.9671 13.4482 -68.0977C10.0238 -64.1764 18.0969 -53.7967 18.0969 -50.3545C18.0969 -46.9123 13.6079 -36.4438 12.9514 -33.8711C9.59796 -19.3926 16.6597 -0.602585 16.6597 -0.602585L11.1771 7.38185Z" fill="#939960"/>
<path d="M102.49 661.514C90.1759 669.268 79.7783 679.257 80.0445 684.758C80.3106 690.258 85.6159 695.279 83.1496 698.952C80.6833 702.625 77.0459 707.203 78.9622 708.409C80.8784 709.616 86.0594 713.307 86.0594 713.307L90.9033 724.325C100.627 720.776 106.092 721.522 106.092 721.522L91.8969 731.866C92.0921 737.455 91.2582 752.146 93.4229 749.84C110.137 738.36 124.598 729.896 122.965 728.211C117.891 724.662 115.62 708.143 115.868 703.37C116.116 698.597 120.286 697.941 119.186 692.228C118.086 686.514 114.253 687.508 112.337 682.433C110.421 677.359 110.35 665.418 109.995 662.526C109.64 659.633 102.49 661.514 102.49 661.514Z" fill="#939960"/>
<path d="M244.863 549.198C238.774 544.258 242.155 538.099 242.483 530.936C242.811 523.773 250.688 509.907 250.245 496.355C250.114 492.501 240.153 495.07 241.597 494.165C245.043 492.024 252.001 486.985 250.393 485.931C248.784 484.877 244.157 476.891 244.157 476.891V465.726C234.623 465.034 230.274 462.432 230.274 462.432L246.142 459.007C248.062 454.182 254.347 442.029 251.607 443.182C233.162 446.624 217.77 448.336 218.508 450.395C221.429 455.335 217.179 470.155 215.112 474.19C213.044 478.224 209.335 477.121 208.121 482.424C206.907 487.726 210.5 488.302 210.221 493.325C209.942 498.347 201.836 516.807 201.048 519.392C200.261 521.978 207.005 523.065 207.005 523.065C210.057 523.723 211.928 523.279 213.405 521.846C213.405 522.653 213.011 526.144 212.666 528.68C211.485 537.276 208.958 538.264 206.907 546.794C206.907 547.815 221.675 553.381 221.675 553.381C221.675 553.381 209.106 552.129 204.691 553.381C200.277 554.632 198.915 567.46 190.431 588.258C189.742 589.625 184.983 570.869 182.948 564.743C181.931 560.989 171.068 574.278 171.068 574.278C171.068 574.278 178.879 558.601 179.273 557.58C179.666 556.559 177.271 539.104 170.543 535.695C170.543 534.674 167.343 526.111 167.654 518.042C167.933 511.159 171.248 505.955 168.097 505C164.635 503.963 150.326 510.961 147.7 516.247C144.287 523.081 142.318 532.731 143.991 539.071L149.078 549.182L146.814 571.709L153.165 581.26C153.165 581.26 148.242 593.067 150.9 599.374C153.558 605.681 163.585 608.908 163.585 608.908C163.585 608.908 161.763 621.193 163.585 625.721C165.406 630.25 166.292 647.129 162.223 659.364C158.153 671.599 164.028 665.72 167.654 675.271C171.281 684.822 170.821 707.531 168.114 715.715C165.406 723.899 169.016 731.622 166.292 744.335C163.568 757.048 156.332 756.158 168.114 779.789C181.685 776.611 186.165 768.888 188.938 749.802C188.938 749.802 191.202 766.615 190.3 774.338C189.397 782.061 176.713 788.434 169.919 791.151C169.919 791.151 164.996 811.603 164.487 821.154C163.979 830.705 171.724 845.23 171.724 853.414C171.724 861.598 181.685 862.043 181.685 875.233C181.619 879.473 180.349 883.607 178.024 887.148C175.699 890.69 172.414 893.491 168.557 895.224C166.752 895.685 160.861 901.136 160.861 901.136C160.861 901.136 164.487 915.215 160.861 919.25C157.234 923.284 151.803 936.063 150.9 950.537C157.878 948.64 165.022 947.421 172.233 946.898C164.851 951.499 157.729 956.507 150.9 961.9C152.262 968.256 154.527 972.801 157.234 988.247C157.234 988.247 174.891 993.188 173.546 983.703C172.2 974.217 170.821 970.973 173.546 967.334C176.27 963.695 172.627 960.517 174.891 953.255C177.156 945.993 189.84 929.163 192.105 915.528C192.105 915.528 194.829 940.97 193.467 953.255C200.999 953.13 208.473 951.904 215.653 949.615C215.653 945.07 222.004 934.153 222.004 927.681C222.004 921.209 215.653 913.717 215.21 905.533C215.21 905.533 223.415 902.799 225.171 895.537C227.275 884.577 227.275 873.315 225.171 862.355C222.791 851.784 229.24 841.228 229.24 837.128C229.24 833.027 223.464 823.163 222.791 819.409C221.273 812.115 220.362 804.706 220.067 797.261C220.067 797.261 222.447 805.774 231.554 824.514C231.554 824.514 237.675 812.592 240.054 809.183C242.434 805.774 238.413 781.567 238.692 774.42C238.003 771.358 215.587 773.729 207.104 768.97C213.208 766.236 219.673 763.849 219.673 763.849C219.673 763.849 223.743 762.202 222.726 743.396C223.398 749.193 230.931 764.54 239.71 768.97C240.054 764.194 244.124 760.094 244.124 760.094C243.68 756.287 242.28 752.655 240.054 749.539C236.658 745.438 242.417 743.396 243.107 740.333C243.796 737.27 242.155 708.93 236.379 700.697C230.602 692.463 225.844 676.836 224.153 676.506C222.463 676.177 215.325 672.077 216.342 664.979C217.36 657.882 223.809 648.611 226.188 642.831C228.568 637.051 234.672 616.582 234.672 608.398C234.672 600.214 233.031 597.826 228.223 595.784C223.415 593.742 228.223 589.987 228.912 585.212C228.912 585.212 238.069 585.904 242.828 585.904L244.469 563.739C244.469 563.739 250.951 554.138 244.863 549.198Z" fill="#939960"/>
<path d="M222.268 36.3624C216.746 31.6681 219.954 26.0073 220.397 19.3762C220.841 12.7451 228.328 -0.0246893 228.158 -12.6032C228.105 -16.1841 218.882 -13.9725 220.229 -14.7883C223.426 -16.7165 229.941 -21.2742 228.478 -22.2811C227.015 -23.2879 222.892 -30.7859 222.892 -30.7859L223.088 -41.1545C214.301 -41.9637 210.355 -44.4557 210.355 -44.4557L225.098 -47.4346C226.952 -51.8666 232.957 -63.0582 230.412 -62.0356C213.357 -59.1618 199.144 -57.8404 199.788 -55.9158C202.393 -51.2769 198.2 -37.5879 196.239 -33.8769C194.278 -30.166 190.85 -31.2561 189.638 -26.353C188.426 -21.4499 191.742 -20.8515 191.397 -16.1921C191.051 -11.5326 183.257 5.43849 182.471 7.81013C181.685 10.1818 187.88 11.3243 187.88 11.3243C190.68 11.9894 192.412 11.6092 193.798 10.3045C193.784 11.0538 193.374 14.3046 193.012 16.6384C191.772 24.6007 189.411 25.4738 187.386 33.36C187.368 34.3081 200.878 39.7353 200.878 39.7353C200.878 39.7353 189.318 38.3533 185.229 39.4384C181.14 40.5235 179.659 52.4129 171.46 71.5793C170.816 72.8368 166.762 55.335 164.995 49.6104C164.124 46.1059 153.865 58.2571 153.865 58.2571C153.865 58.2571 161.353 43.8351 161.719 42.8935C162.085 41.9519 160.183 25.8219 153.968 22.5372C153.986 21.589 151.189 13.5808 151.618 6.09271C151.981 -0.295137 155.142 -5.06947 152.256 -6.01153C149.084 -7.03551 135.761 -0.786439 133.249 4.07669C129.999 10.3486 128.074 19.3534 129.505 25.2093L134.014 34.6881L131.531 55.5692L137.199 64.5498C137.199 64.5498 132.455 75.4441 134.793 81.3324C137.132 87.2208 146.313 90.4088 146.313 90.4088C146.313 90.4088 144.433 101.786 146.016 106.038C147.599 110.291 148.149 125.967 144.169 137.242C140.189 148.518 145.735 143.177 148.908 152.111C152.082 161.044 151.258 182.125 148.604 189.678C145.95 197.231 149.155 204.467 146.437 216.225C143.718 227.984 137.051 227.032 147.475 249.183C160.05 246.469 164.299 239.374 167.205 221.698C167.205 221.698 168.996 237.352 168.028 244.509C167.06 251.665 155.261 257.362 148.953 259.767C148.953 259.767 144.057 278.674 143.405 287.535C142.753 296.396 149.664 310.02 149.519 317.621C149.375 325.221 158.545 325.808 158.313 338.058C158.178 341.995 156.935 345.812 154.73 349.06C152.525 352.308 149.449 354.852 145.865 356.394C144.178 356.79 138.669 361.75 138.669 361.75C138.669 361.75 141.748 374.888 138.35 378.572C134.953 382.255 129.708 394.028 128.606 407.454C135.069 405.814 141.673 404.807 148.326 404.447C141.442 408.589 134.792 413.116 128.406 418.006C129.549 423.933 131.555 428.193 133.793 442.586C133.793 442.586 149.975 447.482 148.887 438.65C147.799 429.817 146.617 426.781 149.175 423.449C151.734 420.116 148.464 417.102 150.678 410.397C152.893 403.692 164.877 388.285 167.204 375.662C167.204 375.662 169.25 399.352 167.794 410.722C174.736 410.737 181.644 409.729 188.3 407.73C188.38 403.509 194.408 393.496 194.523 387.47C194.637 381.445 188.932 374.391 188.653 366.783C188.653 366.783 196.261 364.387 198.022 357.674C200.146 347.532 200.344 337.074 198.607 326.859C196.601 316.999 202.729 307.309 202.801 303.501C202.873 299.693 197.725 290.432 197.171 286.933C195.893 280.134 195.184 273.237 195.051 266.317C195.051 266.317 197.094 274.265 205.155 291.843C205.155 291.843 210.99 280.862 213.242 277.738C215.495 274.614 212.216 252.078 212.6 245.431C212.034 242.575 191.338 244.385 183.605 239.817C189.278 237.385 195.262 235.28 195.262 235.28C195.262 235.28 199.056 233.822 198.45 216.34C198.968 221.735 205.637 236.12 213.648 240.387C214.035 235.958 217.872 232.237 217.872 232.237C217.522 228.687 216.291 225.286 214.293 222.347C211.235 218.495 216.594 216.684 217.283 213.852C217.972 211.02 216.888 184.395 211.726 176.694C206.563 168.992 202.439 154.35 200.873 154.014C199.306 153.679 192.816 149.746 193.879 143.173C194.941 136.599 201.062 128.102 203.341 122.776C205.62 117.449 211.738 98.6873 211.883 91.0867C212.027 83.4861 210.557 81.24 206.163 79.2596C201.769 77.2792 206.265 73.8765 206.969 69.4686C206.969 69.4686 215.409 70.2559 219.793 70.3391L221.696 49.7988C221.696 49.7988 227.791 41.0414 222.268 36.3624Z" fill="#939960"/>
<path d="M0.105488 636.821C1.87981 643.794 -0.462294 644.752 -0.462294 650.625C-0.462294 656.498 6.24463 664.217 9.91747 664.962C14.0311 666.07 18.0774 667.415 22.0361 668.99C22.0361 668.99 9.91747 667.215 9.61584 672.662C9.31421 678.11 1.98627 688.826 -1.243 694.345C-4.47226 699.863 -3.88673 712.78 -6.08689 717.109C-8.36786 721.096 -10.948 724.904 -13.8052 728.5L-7.55957 736.946C-7.55957 736.946 2.73148 710.864 7.13179 707.563C11.5321 704.263 11.5498 716.737 11.5498 718.582C11.5498 720.427 32.8417 718.209 32.8417 718.209C32.8417 718.209 13.0048 722.61 11.5498 725.928C10.0949 729.245 10.4498 740.246 9.52712 744.292C8.60448 748.337 24.7685 746.864 24.7685 746.864L36.1419 736.219L29.1688 750.555L39.0873 766.701C39.0873 766.701 31.7416 755.328 24.7685 754.955C17.7955 754.583 10.8046 750.91 9.70456 752.755C8.60448 754.601 7.93023 778.092 12.6499 785.066C17.3696 792.039 17.0502 805.275 15.9502 808.948C14.8501 812.621 27.6962 816.648 27.6962 816.648C27.6962 816.648 17.0502 815.548 16.6776 820.321C16.305 825.094 11.5498 844.558 22.1958 844.558C32.8417 844.558 33.4095 850.006 33.7643 856.979C34.1192 863.952 32.3094 872.398 32.3094 879.743C32.3094 887.089 33.7643 895.162 33.7643 899.261C33.7643 903.359 35.5386 912.355 29.6124 923.622C23.6862 934.889 35.4854 950.539 34.5095 955.862C33.5337 961.185 51.6495 960.759 51.6495 960.759C52.1285 953.892 53.1221 936.273 51.6495 932.37C56.0498 948.534 59.4742 965.177 61.4437 972.522C72.6929 978.395 95.1558 967.199 95.1558 967.199C94.659 955.95 93.6831 945.162 95.1558 936.841C96.6285 928.519 85.3615 899.58 85.3615 899.58C85.3615 899.58 76.4899 900.556 74.0946 895.659C71.6993 890.762 69.1975 869.701 69.1975 869.701C61.3727 871.173 47.6572 869.222 47.6572 869.222C62.8277 864.324 69.6943 866.276 69.6943 862.852C67.2457 852.082 51.0107 836.468 51.5075 823.249C52.0043 810.03 53.4593 810.492 53.9561 802.915C54.4529 795.339 51.9866 773.781 55.9078 771.829C59.8291 769.877 56.8837 752.312 55.4288 748.763C53.9738 745.214 48.154 742.943 48.154 742.943L55.0029 734.622C55.0029 734.622 55.0029 716.009 57.4515 706.712C59.9001 697.414 62.3841 671.935 61.5324 665.476C57.9838 660.916 52.1995 659.373 48.846 645.835C47.3201 639.66 45.7942 623.461 45.7942 623.461L24.7508 619.043H46.291C43.4453 611.168 41.7714 602.918 41.3229 594.557C40.7906 575.377 39.5486 575.856 36.9581 571.881C33.4095 566.558 39.3357 551.547 38.0759 541.239C36.8871 531.373 36.8871 523.034 32.8417 515.742C29.8431 510.419 17.3874 509.514 7.69958 506.639C0.495839 504.51 -4.6142 504.528 -3.54961 510.188C-2.11241 517.729 6.81241 523.371 8.05444 536.466C8.33833 539.429 6.28012 549.205 6.10269 552.151C5.92525 555.096 18.8068 558.893 16.3228 559.337C11.8515 560.135 3.1928 560.543 2.42985 561.413C-0.994591 565.334 7.07856 575.714 7.07856 579.156C7.07856 582.598 2.53631 593.084 1.93304 595.657C-1.42043 610.135 5.64136 628.925 5.64136 628.925L0.105488 636.821Z" fill="#939960"/>
<path d="M114.638 596.739C115.206 587.867 120.724 557.189 120.724 557.189C111.32 556.905 109.013 552.771 109.013 552.771L102.2 567.977V545.852C102.2 541.983 105.518 534.23 104.134 533.13C102.75 532.03 98.1191 522.608 98.1191 522.608C98.1191 522.608 106.139 529.528 106.139 526.157C106.139 522.785 102.821 515.919 105.305 509.567C107.789 503.215 105.305 498.779 109.457 496.845C113.609 494.911 119.411 499.861 119.074 493.012C118.737 486.163 112.438 470.62 112.438 467.302C112.438 463.984 106.352 465.084 106.352 465.084C106.352 465.084 111.32 462.033 112.704 458.449C114.088 454.864 106.068 431.053 106.068 424.967C106.068 418.881 104.968 400.641 104.968 400.641H90.3121C90.3121 400.641 101.366 398.973 101.1 394.555C100.834 390.137 104.968 376.564 100.816 376.014C96.6641 375.464 57.1146 371.596 53.5127 371.862C49.9108 372.128 53.2466 399.523 53.5127 408.927C53.7789 418.331 61.2665 437.76 61.8165 439.357C62.3666 440.954 71.5043 441.309 71.5043 441.309C71.5043 441.309 64.3183 443.243 64.0522 450.18C63.786 457.118 71.5043 459.318 72.6221 472.856C73.7399 486.394 74.84 501.068 70.9543 511.039C67.0685 521.011 74.84 540.901 75.3901 544.751C75.9401 548.602 93.1333 544.184 93.1333 544.184C93.1333 544.184 75.3901 552.771 75.3901 556.905C75.3901 561.04 83.96 569.326 81.1921 577.931C78.4241 586.537 80.9259 601.441 80.9259 601.441C80.9259 601.441 108.552 601.175 114.638 596.739Z" fill="#939960"/>
<path d="M110.239 137.338C107.045 137.143 96.5941 135.759 96.5941 140.479C96.5941 150.38 98.3684 162.179 89 165.976C90.6324 175.504 93.2229 184.074 93.1696 187.268C93.1164 190.461 106.495 186.097 109.28 185.156C105.04 190.479 95.5472 195.252 95.5472 195.252C96.9844 200.149 102.786 206.909 104.774 208.471C106.761 210.032 114.958 201.604 117.194 200.309C119.43 199.014 117.779 191.065 117.939 188.687C118.099 186.31 122.659 174.599 122.659 174.599C122.659 174.599 111.179 142.36 110.239 137.338Z" fill="#939960"/>
<path d="M272.619 599.695C272.619 603.243 275.511 614.564 273.523 620.046C280.337 622.016 286.689 623.329 286.689 623.329C279.68 624.872 272.494 623.772 272.299 624.659C270.897 628.598 271.448 636.512 271.82 639.67C272.14 642.385 270.17 645.401 278.03 643.751C285.891 642.101 306.206 636.21 310.589 634.88C311.902 628.723 304.042 620.188 304.042 620.188C298.47 616.356 298.932 613.215 297.725 609.542C303.527 605.798 301.487 599.18 300.706 593.751C299.824 588.675 298.597 583.666 297.033 578.758C297.033 578.758 285.057 579.539 282.981 588.96C282.502 591.089 272.619 599.695 272.619 599.695Z" fill="#939960"/>
<path d="M299.638 738C311.952 730.247 322.35 720.257 322.083 714.775C321.817 709.292 316.512 704.253 318.978 700.58C321.445 696.907 325.082 692.329 323.166 691.141C321.25 689.952 316.068 686.244 316.068 686.244L311.225 675.225C301.501 678.774 296.036 678.028 296.036 678.028L310.231 667.684C310.036 662.095 310.87 647.386 308.705 649.693C291.991 661.19 277.53 669.636 279.163 671.339C284.237 674.888 286.508 691.389 286.26 696.18C286.012 700.97 281.842 701.609 282.942 707.305C284.042 713 287.875 712.042 289.791 717.099C291.707 722.156 291.814 733.991 292.168 736.883C292.523 739.775 299.638 738 299.638 738Z" fill="#939960"/>
<path d="M348.006 61.4099C347.734 54.2908 345.452 43.2182 344.81 36.7559C344.168 30.2936 350.003 31.9299 348.34 26.7144C346.677 21.4989 340.112 13.3783 339.879 10.1515C345.488 0.478461 351.356 -6.5172 349.591 -11.0982C347.826 -15.6792 334.167 -24.0589 332.056 -33.5243C319.063 -37.3769 312.075 -38.679 312.075 -38.679C323.674 -39.3891 331.477 -41.2803 331.538 -42.5385C331.676 -51.8582 327.307 -67.8118 326.762 -69.7571C320.604 -68.7801 316.473 -63.156 315.12 -61.659C315.004 -72.3234 317.104 -76.022 315.41 -80.5996C313.716 -85.1771 283.336 -73.5391 281.267 -52.714C280.416 -44.0688 276.978 -24.3234 279.805 -22.9057C282.631 -21.4881 282.847 -10.3214 283.336 -5.07461C278.222 -9.48228 271.637 -20.0909 271.637 -20.0909C269.521 -9.90905 269.007 7.08416 270.206 9.0793C271.405 11.0744 276.61 16.1439 273.774 21.4585C270.937 26.7731 269.208 30.8807 267.891 32.7347C266.575 34.5887 266.928 40.7881 267.404 42.6767C268.428 46.795 258.435 52.4159 257.684 59.7513C256.937 66.2876 262.256 66.8682 262.358 73.1086C262.422 77.9614 258.184 81.7861 259.428 85.4C260.659 88.4497 261.146 91.7485 260.85 95.0237C260.553 98.2989 259.481 101.457 257.723 104.236C254.472 109.539 253.445 115.91 254.864 121.966C256.267 129.567 265.814 142.826 265.814 142.826C265.814 142.826 256.426 147.695 258.519 149.574C260.612 151.453 264.131 162.285 264.131 162.285C264.131 162.285 285.508 158.537 284.21 154.209C282.913 149.882 280.617 139.822 281.492 137.2C282.366 134.578 285.643 131.879 284.676 124.068C284.676 124.068 279.489 121.167 264.069 119.007C264.069 119.007 268.592 116.6 283.39 116.615L284.63 109.428L270.653 101.033C270.653 101.033 271.942 101.185 273.968 101.533C280.691 106.073 289.467 107.871 290.626 102.35C291.763 100.928 292.583 99.2801 293.031 97.5159C293.479 95.7517 293.545 93.9122 293.224 92.1204C292.386 85.713 292.911 79.2006 294.766 73.0103C295.372 70.784 292.935 67.5912 293.863 65.3274C295.023 63.0091 295.384 60.3722 294.889 57.8277L299.994 59.8546C301.78 57.1176 299.329 53.1425 298.878 50.3846C297.644 42.9341 301.554 42.1666 299.75 36.2158C297.946 30.265 293.478 25.7468 296.074 18.8039C298.671 11.861 306.704 -1.24608 303.931 -16.8016C307.634 5.86981 303.312 8.87322 305.009 17.0038C306.707 25.1344 310.456 26.9171 312.518 30.8731C312.653 41.1654 312.1 48.8303 312.1 48.8303C317.54 49.0971 320.192 56.2442 320.42 58.1206C321.304 65.4958 321.344 72.9479 320.538 80.3321C319.805 88.7521 348.297 68.53 348.006 61.4099Z" fill="#939960"/>
<path d="M37.4119 439.85C36.0102 434.527 36.9506 417.316 36.0102 400.176C35.0698 383.036 27.6177 386.957 27.6177 386.957C27.6177 386.957 27.6177 382.557 24.8143 369.817C22.0108 357.078 16.8831 356.102 13.3699 350.725C9.85675 345.349 11.3117 309.739 8.7212 309.739C9.13 307.198 9.18375 304.612 8.88088 302.056C7.10656 293.61 5.33224 287.737 8.52602 283.709C12.2435 278.766 13.949 272.597 13.2989 266.445C12.8199 258.727 5.36773 244.408 5.36773 244.408C5.36773 244.408 14.8249 240.735 13.086 238.535C11.3472 236.335 9.23574 225.299 9.23574 225.299C9.23574 225.299 -11.4351 226.417 -10.7431 230.817C-10.0511 235.217 -8.96877 245.508 -10.0334 248.081C-11.098 250.654 -14.5934 252.854 -14.5934 260.732C-14.5934 260.732 -10.0334 264.281 4.32088 268.273C4.32088 268.273 -0.23912 270.047 -14.2385 268.273L-16.3499 275.246L-4.08939 285.36C-9.17203 283.993 -14.1009 282.108 -18.7985 279.735C-20.9099 278.99 -26.8539 283.78 -26.499 291.481C-26.1442 299.181 -29.6573 313.145 -37.3756 324.909C-38.7616 327.914 -39.8147 331.061 -40.5162 334.295C-42.947 343.628 -41.9001 358.444 -40.1258 364.459C-38.245 370.829 -25.0618 375.601 -25.0618 375.601C-25.0618 375.601 -33.1173 383.071 -30.7752 386.993C-28.4331 390.914 -25.8248 403.157 -25.8248 403.157C-18.1597 403.157 -10.2285 403.157 -7.42511 406.084C-4.62169 409.012 -5.08301 414.406 -6.52021 418.238C-8.39652 421.836 -10.5313 425.293 -12.9078 428.583C7.70983 427.128 10.9746 428.583 10.9746 428.583C10.9746 428.583 -14.3627 434.402 -12.9078 437.951C-11.4351 444.8 -4.83461 456.599 -4.83461 456.599C-4.83461 456.599 14.3813 465.684 22.206 480.286C26.3579 488.04 37.4119 460.006 37.4119 460.006C37.4119 460.006 38.8136 445.226 37.4119 439.85Z" fill="#939960"/>
<path d="M1059.93 163.595C1055.72 168.622 1052.39 189.035 1050.08 194.372C1047.78 199.71 1066.48 194.204 1066.48 194.204C1065.89 199.663 1065 205.085 1063.82 210.446L1091.01 214.891L1060.08 218.467C1059.48 222.183 1050.8 236.975 1050.97 242.234C1051.14 247.492 1056.4 250.27 1055.01 252.908C1053.62 255.547 1047.4 264.042 1048.73 264.743C1050.07 265.445 1056.41 291.254 1056.41 291.254C1056.41 291.254 1051.02 283.226 1046.41 284.855C1041.8 286.484 1035.22 312.081 1033.63 321.834C1032.03 331.586 1041.95 344.6 1041.07 349.947C1040.2 355.294 1065.62 347.055 1065.62 347.055C1065.62 347.055 1047.93 354.642 1045.26 359.436C1042.59 364.231 1049.95 369.267 1049.95 369.267C1049.95 369.267 1040.48 365.335 1038.81 375.542C1037.14 385.748 1037.19 394.268 1034.23 397.668C1031.27 401.068 1043.2 410.563 1048.83 411.482C1054.17 417.12 1049.83 437.369 1049.83 437.369C1056.64 439.915 1091.83 433.755 1092.66 428.66C1093.08 425.21 1092.66 421.708 1091.43 418.446L1073.68 412.212C1087.19 412.039 1095.31 412.417 1095.31 412.417C1096.56 393.078 1094.4 370.835 1097.27 365.09C1100.15 359.345 1103.9 342.159 1102.26 337.455C1100.62 332.75 1093.16 325.454 1093.16 325.454L1103.02 324.095C1100.87 305.169 1104.01 303.299 1105.83 292.168C1107.65 281.036 1114.32 257.82 1110.74 244.374C1107.16 230.928 1109.94 222.801 1106.34 221.212C1107.54 210.928 1113.61 206.207 1111.22 197.236C1108.83 188.266 1107.57 184.261 1108.32 182.951C1115.7 176.06 1123.37 161.586 1119.31 162.839C1101.61 165.125 1074.77 161.274 1071.34 158.797C1067.9 156.319 1059.93 163.595 1059.93 163.595Z" fill="#939960"/>
<path d="M985.34 -192.706C980.111 -195.578 981.822 -200.624 981.107 -206.021C980.392 -211.419 984.438 -222.842 982.286 -232.911C981.668 -235.785 974.545 -232.511 975.507 -233.383C977.802 -235.459 982.343 -240.162 980.998 -240.721C979.653 -241.28 975.108 -246.637 975.108 -246.637L973.609 -254.982C966.356 -254.2 962.756 -255.573 962.756 -255.573L974.231 -260.289C975.026 -264.141 978.108 -274.07 976.205 -272.852C962.835 -267.795 951.521 -264.442 952.351 -263.003C955.204 -259.705 953.994 -248.054 952.999 -244.75C952.005 -241.446 949.061 -241.782 948.849 -237.653C948.638 -233.524 951.433 -233.595 951.898 -229.803C952.363 -226.012 948.727 -211.245 948.504 -209.16C948.282 -207.075 953.464 -207.218 953.464 -207.218C955.83 -207.135 957.185 -207.721 958.098 -209.003C958.207 -208.4 958.382 -205.726 958.464 -203.784C958.732 -197.201 956.957 -196.12 956.576 -189.471C956.713 -188.708 968.536 -186.537 968.536 -186.537C968.536 -186.537 958.941 -185.779 955.798 -184.249C952.656 -182.72 953.358 -172.937 949.773 -156.261C949.452 -155.149 943.367 -168.513 941.017 -172.829C939.75 -175.498 933.389 -164.091 933.389 -164.091C933.389 -164.091 937.143 -176.859 937.299 -177.687C937.455 -178.516 933.304 -191.16 927.751 -192.793C927.612 -193.568 924.001 -199.525 923.214 -205.609C922.487 -210.788 924.286 -215.126 921.798 -215.403C919.059 -215.724 909.257 -208.552 907.995 -204.26C906.367 -198.683 906.244 -191.166 908.339 -186.715L913.511 -179.843L914.839 -162.69L920.881 -156.42C920.881 -156.42 918.776 -146.921 921.614 -142.578C924.452 -138.234 932.397 -137.146 932.397 -137.146C932.397 -137.146 932.69 -127.734 934.654 -124.581C936.618 -121.427 939.57 -108.949 938.158 -99.2691C936.746 -89.5893 940.367 -94.7495 944.367 -88.1123C948.366 -81.4752 951.074 -64.4176 950.128 -57.9465C949.181 -51.4754 952.952 -46.1819 952.615 -36.3142C952.279 -26.4464 946.734 -26.1239 958.73 -10.0485C968.494 -14.2538 970.802 -20.6392 970.332 -35.2785C970.332 -35.2785 974.288 -23.0183 974.65 -17.1126C975.011 -11.2068 966.349 -4.76013 961.621 -1.80213C961.621 -1.80213 960.674 14.146 961.573 21.3401C962.471 28.5343 970.274 38.452 971.372 44.5684C972.471 50.6849 980.001 49.6755 981.769 59.521C982.294 62.718 981.891 65.9985 980.608 68.9736C979.325 71.9487 977.217 74.4936 974.532 76.3067C973.238 76.8821 969.551 81.7491 969.551 81.7491C969.551 81.7491 974.163 91.7953 971.982 95.2866C969.802 98.778 967.446 109.072 968.712 120.011C973.688 117.647 978.882 115.773 984.222 114.418C979.302 118.846 974.633 123.544 970.235 128.491C972.099 133.072 974.407 136.164 978.521 147.328C978.521 147.328 992.427 148.642 990.144 141.735C987.862 134.827 986.393 132.588 987.95 129.514C989.506 126.439 986.345 124.543 987.067 118.798C987.788 113.053 995.045 98.7796 994.915 88.2969C994.915 88.2969 1000.37 106.944 1001 116.296C1006.63 115.188 1012.07 113.265 1017.15 110.588C1016.54 107.191 1019.84 98.1887 1018.97 93.3521C1018.1 88.5155 1012.33 83.7591 1010.9 77.7022C1010.9 77.7022 1016.69 74.5665 1017.03 68.8904C1017.14 60.4203 1015.62 52.0077 1012.58 44.1045C1009.37 36.524 1012.79 27.7544 1012.24 24.7023C1011.69 21.6502 1006.03 15.0319 1005.03 12.3289C1002.9 7.08009 1001.22 1.66157 1000.01 -3.86918C1000.01 -3.86918 1002.94 2.18526 1012.28 14.9636C1012.28 14.9636 1015.27 5.2291 1016.59 2.36332C1017.9 -0.502458 1011.65 -18.0541 1010.91 -23.4474C1009.98 -25.6436 993.493 -20.8399 986.489 -23.2661C990.703 -26.119 995.231 -28.7743 995.231 -28.7743C995.231 -28.7743 998.062 -30.5532 994.775 -44.4705C996.058 -40.2291 1003.76 -29.786 1010.94 -27.658C1010.55 -31.2711 1013.06 -34.8736 1013.06 -34.8736C1012.21 -37.6615 1010.67 -40.1895 1008.58 -42.2242C1005.49 -44.8187 1009.54 -47.1228 1009.65 -49.5047C1009.75 -51.8866 1004.63 -73.0582 999.201 -78.3967C993.77 -83.7351 988.097 -94.8102 986.783 -94.841C985.469 -94.8718 979.555 -96.9602 979.378 -102.404C979.201 -107.847 982.783 -115.63 983.789 -120.282C984.796 -124.935 986.628 -141.042 985.532 -147.146C984.436 -153.251 982.882 -154.826 979.002 -155.705C975.123 -156.583 978.224 -160.037 978.088 -163.696C978.088 -163.696 985.058 -164.427 988.627 -165.068L986.885 -181.842C986.885 -181.842 990.567 -189.846 985.34 -192.706Z" fill="#939960"/>
<path d="M1189.72 659.22C1191.3 665.413 1189.23 666.264 1189.23 671.48C1189.23 676.696 1195.22 683.551 1198.5 684.213C1202.17 685.201 1205.79 686.4 1209.32 687.806C1209.32 687.806 1198.5 686.23 1198.23 691.068C1197.96 695.906 1191.48 705.409 1188.53 710.309C1185.58 715.21 1186.23 726.62 1184.26 730.528C1182.22 734.065 1179.92 737.447 1177.37 740.645L1182.95 748.146C1182.95 748.146 1192.13 724.981 1196.07 722.05C1200.02 719.118 1200 730.197 1200 731.836C1200 733.475 1219.03 731.505 1219.03 731.505C1219.03 731.505 1201.3 735.429 1200 738.36C1198.7 741.291 1199.02 751.077 1198.2 754.67C1197.37 758.263 1211.81 756.955 1211.81 756.955L1221.99 747.5L1215.76 760.233L1224.62 774.573C1224.62 774.573 1218.06 764.472 1211.81 764.141C1205.57 763.81 1199.35 760.548 1198.37 762.187C1197.39 763.826 1196.79 784.69 1200.99 790.883C1205.19 797.076 1204.93 808.832 1203.95 812.094C1202.97 815.356 1214.44 818.933 1214.44 818.933C1214.44 818.933 1204.93 817.956 1204.6 822.195C1204.27 826.434 1200 843.721 1209.51 843.721C1219.03 843.721 1219.53 848.575 1219.87 854.752C1220.2 860.93 1218.55 868.447 1218.55 874.971C1218.55 881.495 1219.87 888.665 1219.87 892.305C1219.87 895.945 1221.45 903.935 1216.14 913.942C1210.83 923.948 1221.39 937.863 1220.52 942.654C1219.64 947.444 1235.83 947.003 1235.83 947.003C1236.27 940.904 1237.14 925.256 1235.83 921.789C1239.77 936.145 1242.83 950.927 1244.58 957.451C1254.64 962.667 1274.69 952.723 1274.69 952.723C1274.27 942.732 1273.39 933.151 1274.69 925.76C1275.99 918.37 1265.94 892.668 1265.94 892.668C1265.94 892.668 1258.02 893.534 1255.89 889.185C1253.77 884.836 1251.52 866.13 1251.52 866.13C1244.51 867.438 1232.26 865.705 1232.26 865.705C1245.83 861.355 1251.95 863.089 1251.95 860.047C1249.76 850.482 1235.27 836.614 1235.7 824.874C1236.13 813.134 1237.46 813.544 1237.89 806.815C1238.32 800.086 1236.14 780.955 1239.65 779.206C1243.15 777.457 1240.52 761.872 1239.2 758.72C1237.89 755.568 1232.64 753.504 1232.64 753.504L1238.76 746.113C1238.76 746.113 1238.76 729.582 1240.95 721.325C1243.13 713.067 1245.35 690.438 1244.61 684.702C1241.44 680.652 1236.27 679.281 1233.28 667.257C1231.91 661.773 1230.55 647.386 1230.55 647.386L1211.73 643.462H1230.98C1228.44 636.463 1226.95 629.13 1226.55 621.699C1226.08 604.664 1224.97 605.09 1222.64 601.56C1219.47 596.753 1224.78 583.5 1223.65 574.345C1222.58 565.583 1222.59 558.176 1218.9 551.7C1216.22 546.972 1205.11 546.168 1196.45 543.615C1190 541.724 1185.36 541.74 1186.39 546.767C1187.67 553.465 1195.65 558.476 1196.77 570.106C1197.02 572.737 1195.19 581.42 1195.03 584.036C1194.87 586.652 1206.36 590.024 1204.14 590.418C1200.15 591.127 1192.43 591.49 1191.75 592.262C1188.69 595.745 1195.88 604.964 1195.88 608.021C1195.88 611.078 1191.83 620.391 1191.3 622.676C1188.31 635.535 1194.62 652.239 1194.62 652.239L1189.72 659.22Z" fill="#939960"/>
<path d="M1081.4 59.7776C1082.5 65.5461 1090.32 88.7811 1095.27 97.119C1084.71 102.517 1074.67 106.678 1074.67 106.678C1086.69 106.999 1098.29 102.9 1098.73 104.317C1102.29 110.374 1106.12 124.075 1109.43 128.192C1112.75 132.309 1112.75 136.085 1099.26 135.828C1085.77 135.571 1071.22 131.634 1063.59 130.853C1060.82 123.636 1058.82 116.147 1057.62 108.51C1052.59 104.612 1051.75 88.6948 1052.58 82.1772C1041.86 77.8688 1039.98 70.0093 1038.25 60.9819L1035 43.9727C1035 43.9727 1045.08 43.8526 1048.76 43.5811C1052.45 43.3096 1081.4 59.7776 1081.4 59.7776Z" fill="#939960"/>
<path d="M1199.7 465.749C1198.36 460.589 1199.24 443.905 1198.36 427.306C1197.48 410.708 1190.33 414.475 1190.33 414.475C1190.33 414.475 1190.33 410.209 1187.65 397.859C1184.97 385.509 1180.07 384.58 1176.72 379.351C1173.36 374.122 1174.75 339.618 1172.27 339.618C1172.67 337.16 1172.72 334.66 1172.43 332.188C1170.73 324 1169.04 318.307 1172.09 314.385C1175.64 309.593 1177.27 303.612 1176.65 297.649C1176.19 290.184 1169.09 276.286 1169.09 276.286C1169.09 276.286 1178.12 272.726 1176.44 270.593C1174.77 268.46 1172.77 257.778 1172.77 257.778C1172.77 257.778 1153.02 258.845 1153.68 263.11C1154.34 267.376 1155.37 277.352 1154.36 279.847C1153.34 282.341 1150 284.473 1150 292.128C1150 292.128 1154.36 295.568 1168.07 299.438C1168.07 299.438 1163.73 301.158 1150.34 299.438L1148.32 306.198L1160.04 315.933C1155.18 314.598 1150.47 312.765 1145.98 310.463C1143.98 309.758 1138.29 314.385 1138.63 321.867C1138.97 329.349 1135.61 342.869 1128.25 354.256C1126.93 357.175 1125.91 360.232 1125.24 363.372C1122.91 372.419 1123.91 386.782 1125.61 392.613C1127.41 398.788 1140 403.415 1140 403.415C1140 403.415 1132.3 410.656 1134.54 414.44C1136.78 418.224 1139.29 430.11 1139.29 430.11C1146.59 430.11 1154.17 430.11 1156.85 432.965C1159.53 435.82 1159.09 441.032 1157.71 444.73C1155.92 448.222 1153.89 451.579 1151.63 454.775C1171.31 453.348 1174.43 454.775 1174.43 454.775C1174.43 454.775 1150.22 460.469 1151.63 463.788C1153.02 470.445 1159.32 481.866 1159.32 481.866C1159.32 481.866 1177.68 490.69 1185.16 504.846C1189.14 512.345 1199.7 485.169 1199.7 485.169C1199.7 485.169 1201.04 470.909 1199.7 465.749Z" fill="#939960"/>
<path d="M1005.93 439.703C1010.69 438.092 1016.33 435.893 1019.71 435.742C1021.11 445.599 1032.75 461.971 1032.55 464.488C1032.23 468.432 1026.01 485.346 1030.72 487.244C1035.43 489.142 1039.62 497.738 1039.32 501.446C1039.03 505.155 1046.84 508.806 1046.84 508.806C1048.17 513.186 1028.37 515.262 1022.87 518.182C1030.95 520.096 1039.28 520.764 1047.56 520.163C1047.02 526.876 1048.4 540.093 1047.82 543.407C1047.23 546.721 1039.1 549.734 1038.91 552.15C1038.71 554.567 1041.52 562.494 1042.43 563.75C1043.34 565.005 1049.25 582.622 1045.83 587.229C1042.42 591.836 1040.04 615.342 1037.57 616.968C1034.82 618.791 1022.2 607.29 1017.19 604.861C1012.19 602.433 1016.55 590.217 1016.63 586.575C1016.7 582.932 1012.36 583.58 1006 578.054C1002.18 574.741 1014.25 568.16 1015.83 567.374C1007.7 568.614 1002.14 569.012 1002.57 563.575C1003.01 558.137 1003.86 557.953 1005.07 551.547C1006.27 545.14 1005.99 545.523 1004.13 540.561C1002.28 535.598 1002.53 534.943 1004.88 531.247C1007.23 527.55 1007.93 514.179 1001.67 504.101C995.416 494.022 993.717 492.129 992.752 489.484C991.464 485.817 992.287 482.691 995.929 477.562C999.571 472.432 985.666 455.338 982.956 446.119C981.151 440.096 981.797 425.758 986.635 418.731C994.08 407.928 1007.64 396.602 1012.42 390.956C1013.1 399.455 1015.27 421.907 1017.28 426.426C1018.43 428.849 1015.28 431.636 1005.93 439.703Z" fill="#939960"/>
<path d="M1171.28 603.093C1170.23 596.045 1166.79 585.245 1165.45 578.889C1164.12 572.533 1170.1 573.534 1167.89 568.527C1165.67 563.52 1158.27 556.151 1157.7 552.968C1162.23 542.749 1167.32 535.181 1165.07 530.798C1162.82 526.416 1148.41 519.564 1145.23 510.42C1131.9 508.002 1124.81 507.44 1124.81 507.44C1136.27 505.489 1143.82 502.771 1143.75 501.513C1142.88 492.232 1136.83 476.84 1136.08 474.965C1130.06 476.597 1126.56 482.632 1125.37 484.266C1124.11 473.675 1125.8 469.773 1123.63 465.403C1121.45 461.034 1092.48 475.867 1092.67 496.793C1092.76 505.48 1091.46 525.48 1094.42 526.586C1097.38 527.692 1098.8 538.771 1099.85 543.935C1094.29 540.102 1086.6 530.261 1086.6 530.261C1085.59 540.612 1086.91 557.562 1088.31 559.417C1089.72 561.272 1095.44 565.753 1093.19 571.341C1090.94 576.93 1089.66 581.199 1088.55 583.184C1087.44 585.168 1088.46 591.294 1089.13 593.121C1090.59 597.105 1081.26 603.784 1081.3 611.14C1081.26 617.719 1086.61 617.725 1087.38 623.918C1087.98 628.735 1084.18 632.993 1085.81 636.452C1087.36 639.342 1088.21 642.56 1088.28 645.84C1088.34 649.12 1087.63 652.37 1086.2 655.323C1083.54 660.944 1083.2 667.389 1085.26 673.258C1087.47 680.664 1098.39 692.822 1098.39 692.822C1098.39 692.822 1089.58 698.67 1091.86 700.314C1094.14 701.957 1098.8 712.348 1098.8 712.348C1098.8 712.348 1119.66 706.327 1117.94 702.198C1116.22 698.068 1112.79 688.281 1113.28 685.568C1113.78 682.855 1116.84 679.814 1115.04 672.152C1115.04 672.152 1109.57 669.825 1094.01 669.333C1094.01 669.333 1098.25 666.454 1112.96 664.88L1113.51 657.596L1098.71 650.75C1098.71 650.75 1100.01 650.763 1102.06 650.891C1109.23 654.683 1118.15 655.529 1118.71 649.915C1119.69 648.38 1120.33 646.653 1120.58 644.851C1120.84 643.049 1120.71 641.213 1120.2 639.466C1118.67 633.175 1118.49 626.631 1119.68 620.266C1120.04 617.987 1117.28 615.163 1117.95 612.724C1118.86 610.295 1118.93 607.634 1118.17 605.158L1123.46 606.625C1124.94 603.712 1122.08 600.041 1121.34 597.329C1119.31 590.054 1123.12 588.871 1120.68 583.149C1118.25 577.426 1113.32 573.396 1115.16 566.214C1116.99 559.033 1123.57 545.157 1119.15 529.971C1125.26 552.114 1121.29 555.564 1123.85 563.466C1126.41 571.367 1130.33 572.719 1132.8 576.431C1134.04 586.649 1134.31 594.329 1134.31 594.329C1139.75 594.01 1143.15 600.831 1143.58 602.673C1145.25 609.91 1146.09 617.315 1146.08 624.743C1146.18 633.269 1172.42 610.1 1171.28 603.093Z" fill="#939960"/>
<path d="M1228.44 257.757C1233.3 255.663 1239.08 252.878 1242.63 252.434C1244.94 262.672 1258.6 278.889 1258.6 281.551C1258.6 285.72 1253.47 304.013 1258.6 305.61C1263.73 307.207 1268.87 315.884 1268.87 319.805C1268.87 323.726 1277.42 326.902 1277.42 326.902C1279.2 331.391 1258.49 335.241 1252.92 338.772C1261.61 340.102 1270.45 340.102 1279.15 338.772C1279.15 345.87 1281.7 359.638 1281.38 363.169C1281.06 366.7 1272.72 370.55 1272.72 373.105C1272.72 375.66 1276.36 383.751 1277.42 384.993C1278.49 386.235 1286.19 404.245 1283 409.372C1279.8 414.5 1279.27 439.394 1276.79 441.31C1274.04 443.457 1259.77 432.439 1254.29 430.309C1248.8 428.18 1252.37 414.979 1252.14 411.147C1251.91 407.314 1247.38 408.361 1240.2 403.091C1235.9 399.933 1248.06 392.002 1249.66 391.044C1241.21 393.031 1235.46 393.918 1235.46 388.169C1235.46 382.421 1236.35 382.154 1237.06 375.323C1237.77 368.492 1237.54 368.918 1235.14 363.861C1232.75 358.804 1233 358.095 1235.14 354.014C1237.29 349.933 1236.92 335.827 1229.48 325.767C1222.05 315.706 1220.08 313.861 1218.84 311.164C1217.15 307.42 1217.77 304.067 1221.18 298.371C1224.58 292.676 1208.47 275.89 1204.84 266.433C1202.42 260.259 1201.87 245.141 1206.38 237.352C1213.34 225.376 1226.68 212.334 1231.22 206C1232.66 214.872 1236.85 238.275 1239.36 242.853C1240.73 245.301 1237.61 248.495 1228.44 257.757Z" fill="#939960"/>
<path d="M1311.68 727.134C1312.29 717.979 1318.42 686.32 1318.42 686.32C1307.98 686.027 1305.42 681.743 1305.42 681.743L1297.85 697.453V674.602C1297.85 670.61 1301.53 662.627 1300 661.473C1298.46 660.32 1293.24 650.634 1293.24 650.634C1293.24 650.634 1302.14 657.775 1302.14 654.296C1302.14 650.817 1298.46 643.731 1301.24 637.157C1304.02 630.584 1301.24 626.025 1305.83 624.029C1310.42 622.033 1316.91 627.178 1316.59 620.037C1316.28 612.896 1309.22 596.912 1309.22 593.488C1309.22 590.064 1302.46 591.199 1302.46 591.199C1302.46 591.199 1307.98 588.068 1309.52 584.351C1311.05 580.634 1302.14 556.098 1302.14 549.818C1302.14 543.537 1300.92 524.696 1300.92 524.696H1284.72C1284.72 524.696 1297 522.993 1296.7 518.416C1296.41 513.838 1301 499.867 1296.39 499.3C1291.78 498.732 1247.85 494.722 1243.85 495.015C1239.84 495.308 1243.55 523.561 1243.85 533.265C1244.14 542.97 1252.46 562.946 1253.07 564.667C1253.68 566.389 1263.83 566.663 1263.83 566.663C1263.83 566.663 1255.83 568.659 1255.53 575.818C1255.24 582.978 1263.83 585.23 1265.05 599.219C1266.27 613.208 1267.52 628.332 1263.2 638.604C1258.88 648.876 1267.52 669.438 1268.13 673.393C1268.74 677.348 1287.84 672.826 1287.84 672.826C1287.84 672.826 1268.13 681.67 1268.13 685.954C1268.13 690.239 1277.65 698.771 1274.57 707.652C1271.5 716.532 1274.28 731.913 1274.28 731.913C1274.28 731.913 1304.92 731.675 1311.68 727.134Z" fill="#939960"/>
<path d="M1164.24 170.352C1161.04 170.139 1150.59 168.755 1150.59 173.475C1150.59 183.393 1152.37 195.175 1143 198.972C1144.63 208.518 1147.22 217.07 1147.17 220.264C1147.12 223.457 1160.49 219.11 1163.28 218.17C1159.04 223.493 1149.55 228.266 1149.55 228.266C1150.98 233.145 1156.8 239.905 1158.77 241.485C1160.74 243.064 1168.98 234.618 1171.19 233.305C1173.41 231.992 1171.8 224.079 1171.94 221.683C1172.08 219.288 1176.84 207.595 1176.84 207.595C1176.84 207.595 1165.23 175.373 1164.24 170.352Z" fill="#939960"/>
</g>
<defs>
<clipPath id="clip0_264_1773">
<rect width="1280" height="720" fill="white"/>
</clipPath>
</defs>
</svg>
