<svg width="1280" height="720" viewBox="0 0 1280 720" fill="none" xmlns="http://www.w3.org/2000/svg">
<g clip-path="url(#clip0_268_380)">
<rect width="1280" height="720" fill="#FFFBF3"/>
<rect width="1280" height="720" fill="#023A2F"/>
<path d="M174.459 193.485C173.752 199.395 179.208 199.642 184.512 199.848C189.815 200.054 188.142 198.351 193.172 198.725C198.202 199.099 204.063 201.146 209.928 201.146C215.792 201.146 217.469 196.483 221.938 195.907C226.406 195.33 230.037 188.257 220.261 187.512C210.485 186.767 207.693 184.342 199.037 185.461C190.38 186.58 175.017 188.822 174.459 193.485Z" fill="#E5B76E"/>
<path d="M128.232 15.0597C127.023 18.8322 130.762 18.8921 134.22 21.2275C137.678 23.5628 144.613 23.9783 151.676 22.7245C158.738 21.4707 159.404 19.7304 160.868 17.7244C162.331 15.7184 165.531 15.4788 163.798 12.6382C162.065 9.79758 159.269 8.5513 151.941 8.38663C144.613 8.22195 140.747 7.13286 136.485 9.55057C132.222 11.9683 129.029 12.5559 128.232 15.0597Z" fill="#E5B76E"/>
<path d="M168.197 597.01C166.988 600.782 170.727 600.842 174.185 603.178C177.643 605.513 184.578 605.928 191.641 604.675C198.703 603.421 199.369 601.681 200.832 599.675C202.296 597.669 205.496 597.429 203.763 594.588C202.03 591.748 199.234 590.501 191.906 590.337C184.578 590.172 180.712 589.083 176.449 591.501C172.187 593.918 168.994 594.506 168.197 597.01Z" fill="#E5B76E"/>
<path d="M150.671 683.957C148.818 687.883 154.563 687.943 159.885 690.372C165.207 692.801 175.858 693.231 186.708 691.933C197.558 690.634 198.584 688.811 200.837 686.731C203.09 684.65 208.004 684.391 205.328 681.442C202.652 678.493 198.366 677.194 187.105 677.022C175.844 676.85 169.889 675.724 163.351 678.235C156.812 680.746 151.902 681.367 150.671 683.957Z" fill="#E5B76E"/>
<path d="M64.9114 509.083C63.2572 514.132 70.3307 515.707 74.7469 520.123C79.1632 524.54 81.9739 526.546 87.9957 524.54C94.0175 522.534 99.841 514.903 95.2226 507.878C90.6043 500.853 68.523 498.042 64.9114 509.083Z" fill="#E5B76E"/>
<path d="M-21.7387 507.57C-23.5127 511.796 -18.0223 511.863 -12.9361 514.472C-7.84992 517.08 2.32244 517.552 12.6894 516.152C23.0564 514.752 24.0332 512.784 26.1852 510.538C28.3372 508.293 33.0341 508.019 30.4892 504.846C27.9442 501.672 23.8386 500.276 13.0786 500.089C2.31869 499.902 -3.35133 498.693 -9.61269 501.395C-15.874 504.097 -20.5672 504.775 -21.7387 507.57Z" fill="#E5B76E"/>
<path d="M211.231 641.056C210.026 644.828 213.761 644.888 217.219 647.224C220.677 649.559 227.612 649.975 234.675 648.721C241.737 647.467 242.403 645.727 243.87 643.721C245.337 641.715 248.533 641.475 246.801 638.634C245.068 635.794 242.276 634.551 234.948 634.387C227.62 634.222 223.757 633.133 219.491 635.551C215.224 637.968 212.032 638.552 211.231 641.056Z" fill="#E5B76E"/>
<path d="M202.361 727.957C200.489 731.883 206.249 731.943 211.575 734.372C216.901 736.801 227.545 737.231 238.398 735.933C249.252 734.634 250.273 732.811 252.526 730.731C254.779 728.65 259.69 728.391 257.017 725.442C254.345 722.493 250.067 721.194 238.806 721.022C227.545 720.85 221.59 719.724 215.056 722.235C208.521 724.746 203.588 725.367 202.361 727.957Z" fill="#E5B76E"/>
<path d="M169.068 53.2192C168.488 60.4835 172.968 60.7867 177.325 61.015C181.681 61.2433 180.319 59.1811 184.436 59.6415C188.552 60.1018 193.38 62.6355 198.197 62.6355C203.014 62.6355 204.387 56.8944 208.059 56.1983C211.73 55.5022 214.709 46.7969 206.682 45.88C198.654 44.963 196.363 41.9802 189.252 43.3575C182.141 44.7347 169.529 47.4855 169.068 53.2192Z" fill="#E5B76E"/>
<path d="M100.071 562.191C99.2627 568.015 105.487 568.258 111.542 568.441C117.598 568.625 115.681 566.97 121.419 567.337C127.156 567.704 133.844 569.729 140.532 569.729C147.22 569.729 149.14 565.133 154.234 564.583C159.328 564.033 163.474 557.045 152.321 556.308C141.168 555.571 137.984 553.183 128.107 554.287C118.23 555.391 100.704 557.595 100.071 562.191Z" fill="#E5B76E"/>
<path d="M23.1272 561.321C21.473 566.373 28.5465 567.945 32.9628 572.361C37.379 576.778 40.1897 578.787 46.2115 576.781C52.2333 574.775 58.0568 567.144 53.4384 560.108C48.8201 553.072 26.7388 550.28 23.1272 561.321Z" fill="#E5B76E"/>
<path d="M50.6835 30.686C48.7299 34.99 50.9043 39.7543 57.9815 41.7453C65.0588 43.7364 69.4825 42.8494 73.4646 41.7453C77.4467 40.6413 79.4528 36.88 78.9924 32.2354C78.5321 27.5909 74.5687 24.4957 69.7033 24.9374C64.838 25.379 52.8954 25.8206 50.6835 30.686Z" fill="#E5B76E"/>
<path d="M-6.52208 613.686C-8.47571 617.99 -6.30127 622.754 0.775971 624.745C7.85321 626.736 12.2769 625.849 16.2591 624.745C20.2412 623.641 22.2472 619.88 21.7869 615.235C21.3265 610.591 17.3631 607.496 12.4978 607.937C7.6324 608.379 -4.31021 608.821 -6.52208 613.686Z" fill="#E5B76E"/>
<path d="M-2.92096 6.24552C-3.64703 11.5675 0.627007 19.8498 9.99845 19.2548C19.3699 18.6597 21.1476 13.3377 19.8789 6.24552C18.6101 -0.846688 16.5854 0.418308 14.0517 -3.11095C11.5179 -6.64022 7.71921 -4.37595 5.94522 -3.11095C4.17123 -1.84596 -2.16122 0.669062 -2.92096 6.24552Z" fill="#E5B76E"/>
<path d="M28.2214 82.825C27.443 86.7247 29.8569 86.7846 32.095 89.1874C34.3331 91.5901 38.8092 92.028 43.3714 90.7368C47.9336 89.4456 48.364 87.6379 49.3109 85.572C50.2578 83.5061 52.3237 83.2479 51.2047 80.3324C50.0856 77.4169 48.2779 76.1145 43.5436 75.9423C38.8092 75.7702 36.3129 74.6511 33.5583 77.1474C30.8038 79.6437 28.7379 80.2426 28.2214 82.825Z" fill="#E5B76E"/>
<path d="M115.097 59.0709C114.674 62.6077 115.737 63.6069 116.291 64.7222C116.845 65.8375 119.794 67.5853 124.409 67.5853C129.023 67.5853 131.808 65.7552 133.241 64.0036C134.675 62.2521 134.035 62.1735 134.514 60.5043C134.993 58.8351 135.865 58.4347 132.762 55.493C129.659 52.5513 127.032 52.1509 123.376 53.4233C119.719 54.6958 115.337 57.0873 115.097 59.0709Z" fill="#E5B76E"/>
<path d="M62.0795 642.071C61.6566 645.608 62.7195 646.607 63.2734 647.722C63.8273 648.838 66.7764 650.585 71.391 650.585C76.0057 650.585 78.7901 648.755 80.2236 647.004C81.657 645.252 81.017 645.174 81.496 643.504C81.9751 641.835 82.8471 641.435 79.7445 638.493C76.6419 635.551 74.0146 635.151 70.3581 636.423C66.7016 637.696 62.319 640.087 62.0795 642.071Z" fill="#E5B76E"/>
<path d="M-11.4464 188.703C-13.5423 193.232 -7.05635 193.303 -1.04576 196.106C4.96484 198.909 16.9823 199.403 29.2318 197.906C41.4813 196.409 42.634 194.306 45.179 191.918C47.7239 189.53 53.2667 189.22 50.2614 185.818C47.2561 182.416 42.402 180.919 29.6772 180.716C16.9524 180.514 10.2644 179.219 2.86525 182.116C-4.53385 185.013 -10.0617 185.702 -11.4464 188.703Z" fill="#E5B76E"/>
<path d="M47.065 473.229C46.6571 477.455 48.1279 477.545 52.6452 478.982C57.1625 480.419 60.8789 481.085 60.8789 479.644C60.8789 478.203 63.2704 478.207 66.7248 478.982C70.1793 479.756 74.7003 478.761 78.4204 478.095C82.1406 477.429 79.4833 475.774 82.8067 475.662C86.1302 475.55 91.7104 476.216 95.5652 476.216C99.4201 476.216 99.5511 475 99.5511 472.122C99.5511 469.244 96.1042 465.834 91.4409 465.928C86.7776 466.021 81.0739 465.815 78.02 465.153C74.966 464.49 75.8904 466.148 76.0252 466.923C76.1599 467.698 74.6966 469.023 70.8417 468.473C66.9868 467.922 56.4889 466.481 54.4941 467.919C52.4993 469.356 47.3307 470.464 47.065 473.229Z" fill="#E5B76E"/>
<path d="M62.3309 601.322C61.747 606.472 63.8504 606.562 70.3138 608.332C76.7773 610.102 82.103 610.896 82.103 609.14C82.103 607.385 85.5237 607.389 90.4677 608.332C95.4116 609.275 101.871 608.063 107.197 607.254C112.523 606.446 108.717 604.421 113.47 604.286C118.223 604.152 126.194 604.96 131.722 604.96C137.25 604.96 137.426 603.463 137.426 599.971C137.426 596.479 132.482 592.288 125.824 592.422C119.166 592.557 111 592.295 106.639 591.475C102.279 590.656 103.6 592.692 103.788 593.635C103.975 594.578 101.886 596.195 96.3735 595.506C90.8607 594.818 75.8417 593.081 72.9898 594.833C70.1379 596.584 62.7089 597.95 62.3309 601.322Z" fill="#E5B76E"/>
<path d="M-26.3158 428.247C-27.2477 432.161 -25.8555 433.595 -24.9685 434.849C-24.0815 436.102 -22.0455 435.792 -20.5523 435.896C-19.059 436.001 -19.1825 436.439 -18.4152 438.142C-17.648 439.845 -16.1173 439.639 -13.6958 440.668C-11.1297 441.685 -8.44673 442.378 -5.70914 442.73C-4.2121 442.835 -4.01375 442.281 -2.76372 443.771C-1.5137 445.26 -0.847519 444.92 2.27754 444.28C5.40261 443.64 6.73871 442.959 8.39294 441.802C10.0472 440.646 15.0547 440.971 18.6214 440.953C22.1881 440.934 24.5123 442.513 28.2848 440.923C32.0573 439.332 31.6157 439.729 35.5903 439.123C39.565 438.516 39.2992 440.829 42.6713 439.834C46.0434 438.838 45.5568 436.986 45.336 434.362C45.1152 431.738 42.1324 428.449 39.9542 428.071C37.776 427.693 35.3321 428.606 32.5888 428.037C29.8455 427.468 29.445 424.983 25.1036 425.357C20.7622 425.732 19.2128 425.84 14.774 425.208C10.3353 424.575 6.48421 422.693 5.2529 424.893C4.02158 427.094 5.65335 428.917 5.65335 428.917C2.38608 428.864 0.0881252 424.8 -2.58034 424.545C-5.24881 424.291 -8.47118 425.028 -11.1883 425.586C-13.9054 426.143 -14.4556 426.046 -17.5507 425.758C-20.6458 425.47 -25.9753 426.809 -26.3158 428.247Z" fill="#E5B76E"/>
<path d="M132.538 300.187C131.962 306.501 133.182 306.621 136.591 308.092C140.001 309.562 143.133 309.836 147.28 310.506C151.427 311.175 156.03 311.711 156.03 307.691V300.206C156.03 296.463 158.702 291.096 150.873 292.837C143.043 294.577 143.133 296.856 141.198 296.856C139.263 296.856 132.856 296.692 132.538 300.187Z" fill="#E5B76E"/>
<path d="M163.92 295.227C163.796 298.719 164.186 301.126 163.92 304.61C163.654 308.094 162.311 311.174 165.66 311.575C169.01 311.975 176.379 309.299 178.524 307.832C180.668 306.365 186.832 309.307 192.326 308.768C197.82 308.229 202.91 307.428 204.52 304.348C206.129 301.268 206.93 299.793 196.481 296.039C186.031 292.285 181.738 290.279 178.793 291.754C175.848 293.229 172.494 292.817 170.754 292.503C169.014 292.188 163.976 293.086 163.92 295.227Z" fill="#E5B76E"/>
<path d="M1202.94 476.428C1203.51 470.114 1202.29 469.994 1198.88 468.524C1195.47 467.053 1192.34 466.78 1188.19 466.11C1184.05 465.44 1179.44 464.905 1179.44 468.924L1179.44 476.409C1179.44 480.152 1176.77 485.519 1184.6 483.778C1192.43 482.038 1192.34 479.759 1194.28 479.759C1196.21 479.759 1202.62 479.924 1202.94 476.428Z" fill="#E5B76E"/>
<path d="M1171.55 481.388C1171.68 477.896 1171.29 475.49 1171.55 472.005C1171.82 468.521 1173.16 465.441 1169.81 465.04C1166.46 464.64 1159.1 467.316 1156.95 468.783C1154.81 470.25 1148.64 467.308 1143.15 467.847C1137.65 468.386 1132.56 469.187 1130.95 472.267C1129.35 475.348 1128.54 476.822 1138.99 480.576C1149.44 484.33 1153.74 486.336 1156.68 484.861C1159.63 483.387 1162.98 483.798 1164.72 484.113C1166.46 484.427 1171.5 483.529 1171.55 481.388Z" fill="#E5B76E"/>
<path d="M70.7114 138.266C70.5318 142.009 71.0857 144.599 70.7114 148.341C70.3371 152.084 68.3536 155.396 73.2638 155.826C78.1741 156.257 88.9827 153.379 92.104 151.796C95.2254 150.212 104.275 153.379 112.314 152.802C120.353 152.226 127.823 151.365 130.177 148.053C132.531 144.741 133.71 143.158 118.399 139.127C103.089 135.096 96.8085 132.937 92.4895 134.524C88.1706 136.11 83.264 135.665 80.7153 135.309C78.1666 134.954 70.8199 135.961 70.7114 138.266Z" fill="#E5B76E"/>
<path d="M33.8091 240.41C32.6863 245.275 38.8129 247.266 40.8526 247.637C42.8924 248.007 44.5578 248.561 51.0437 249.86C57.5296 251.159 64.7528 252.266 65.3105 246.709C65.8681 241.151 66.9759 232.629 56.4143 231.147C45.8527 229.665 44.7487 232.644 42.6154 233.924C40.4821 235.204 34.7372 236.334 33.8091 240.41Z" fill="#E5B76E"/>
<path d="M170.134 527.519C169.011 532.317 175.239 534.256 177.32 534.63C179.401 535.004 181.1 535.539 187.717 536.815C194.334 538.092 201.707 539.188 202.272 533.717C202.837 528.245 203.975 519.869 193.2 518.402C182.425 516.935 181.295 519.861 179.12 521.138C176.946 522.414 171.081 523.507 170.134 527.519Z" fill="#E5B76E"/>
<path d="M154.152 105.161C152.943 110.472 159.594 112.62 161.809 113.021C164.025 113.421 165.844 114.027 172.899 115.438C179.953 116.849 187.817 118.058 188.423 112.014C189.029 105.97 190.238 96.6918 178.745 95.0787C167.251 93.4657 166.053 96.6918 163.729 98.1028C161.405 99.5137 155.159 100.726 154.152 105.161Z" fill="#E5B76E"/>
<path d="M81.152 688.161C79.9431 693.472 86.5937 695.62 88.8093 696.021C91.0249 696.421 92.8438 697.027 99.8986 698.438C106.953 699.849 114.817 701.058 115.423 695.014C116.029 688.97 117.238 679.692 105.745 678.079C94.251 676.466 93.0534 679.692 90.7292 681.103C88.4051 682.514 82.1587 683.726 81.152 688.161Z" fill="#E5B76E"/>
<path d="M106.086 229.358C105.315 234.744 105.798 234.224 112.096 237.09C118.395 239.957 115.839 237.379 124.125 239.954C132.411 242.528 138.156 240.957 143.587 239.954C149.017 238.95 158.183 239.096 160.054 232.94C161.925 226.783 156.618 225.208 147.883 225.923C139.148 226.637 134.713 225.208 128.126 224.635C121.539 224.062 106.658 225.35 106.086 229.358Z" fill="#E5B76E"/>
<path d="M35.5492 327.789C32.6749 335.589 40.4632 339.878 54.221 341.401C67.9788 342.924 78.3944 344.492 77.4251 331.52C76.4557 318.549 59.5392 321.112 54.6364 322.49C49.7336 323.867 36.9415 324.046 35.5492 327.789Z" fill="#E5B76E"/>
<path d="M4.03471 130.71C1.71805 134.977 4.29669 139.692 12.6801 141.676C21.0635 143.659 26.3031 142.772 31.0188 141.676C35.7344 140.579 38.0923 136.848 37.5683 132.244C37.0444 127.641 32.3287 124.568 26.5651 125.006C20.8015 125.444 6.65452 125.882 4.03471 130.71Z" fill="#E5B76E"/>
<path d="M77.7922 278.33C75.6963 282.937 78.0279 288.038 85.6067 290.171C93.1854 292.305 97.9198 291.354 102.183 290.171C106.445 288.989 108.579 284.962 108.103 279.988C107.628 275.014 103.369 271.698 98.1593 272.173C92.9496 272.648 80.1612 273.12 77.7922 278.33Z" fill="#E5B76E"/>
<path d="M198.739 147.238C196.628 151.879 198.975 157.014 206.599 159.158C214.222 161.303 219.002 160.352 223.291 159.158C227.58 157.964 229.732 153.918 229.252 148.907C228.773 143.896 224.484 140.557 219.237 141.048C213.99 141.538 201.134 141.991 198.739 147.238Z" fill="#E5B76E"/>
<path d="M88.6041 430.089C87.6422 434.467 93.3123 441.271 105.753 440.781C118.193 440.291 120.543 435.916 118.852 430.089C117.16 424.261 114.48 425.302 111.119 422.386C107.759 419.471 102.714 421.346 100.36 422.386C98.0055 423.427 89.6146 425.508 88.6041 430.089Z" fill="#E5B76E"/>
<path d="M84.4914 99.8161C83.5595 104.55 89.0536 111.916 101.109 111.384C113.163 110.853 115.443 106.122 113.833 99.8161C112.224 93.5098 109.578 94.6251 106.322 91.4814C103.066 88.3376 98.1743 90.3586 95.8951 91.4814C93.6159 92.6041 85.472 94.8609 84.4914 99.8161Z" fill="#E5B76E"/>
<path d="M11.4914 682.816C10.5595 687.55 16.0536 694.916 28.1085 694.384C40.1634 693.853 42.4426 689.122 40.8333 682.816C39.224 676.51 36.578 677.625 33.322 674.481C30.0659 671.338 25.1743 673.359 22.8951 674.481C20.6159 675.604 12.472 677.861 11.4914 682.816Z" fill="#E5B76E"/>
<path d="M110.566 345.861C109.885 349.327 113.904 354.716 122.722 354.327C131.539 353.938 133.201 350.48 132.018 345.861C130.836 341.243 128.919 342.07 126.535 339.764C124.151 337.459 120.577 338.937 118.908 339.764C117.239 340.592 111.281 342.235 110.566 345.861Z" fill="#E5B76E"/>
<path d="M92.4031 189.609C91.8267 194.399 93.2639 195.75 94.0199 197.259C94.7759 198.767 98.758 201.132 105.004 201.132C111.251 201.132 115.02 198.658 116.958 196.289C118.897 193.92 118.036 193.804 118.684 191.559C119.331 189.313 120.514 188.759 116.311 184.773C112.108 180.788 108.56 180.252 103.605 181.974C98.6495 183.696 92.7249 186.918 92.4031 189.609Z" fill="#E5B76E"/>
<path d="M44.0152 382.032C41.9792 386.28 44.7225 389.566 44.7225 390.981C44.7225 392.396 46.4478 395.379 50.6882 397.261C54.9286 399.144 61.0514 398.676 68.2784 397.261C75.5053 395.846 77.6985 392.239 76.9125 388.47C76.1266 384.701 75.8122 384.858 73.1437 379.989C70.4753 375.12 66.5493 374.023 61.6839 374.967C56.8186 375.91 56.0289 378.107 53.9892 379.675C51.9494 381.243 45.8228 378.264 44.0152 382.032Z" fill="#E5B76E"/>
<path d="M226.752 712.374C224.716 716.622 227.459 719.908 227.459 721.323C227.459 722.738 229.185 725.72 233.425 727.603C237.665 729.485 243.788 729.018 251.015 727.603C258.242 726.188 260.435 722.58 259.649 718.812C258.863 715.043 258.549 715.2 255.881 710.331C253.212 705.462 249.286 704.365 244.421 705.308C239.555 706.251 238.766 708.448 236.726 710.016C234.686 711.585 228.56 708.605 226.752 712.374Z" fill="#E5B76E"/>
<path d="M120.88 496.515C118.5 498.543 121.703 500.112 121.703 500.785C121.703 501.459 123.72 502.881 128.676 503.779C133.631 504.677 140.787 504.453 149.226 503.779C157.666 503.106 160.233 501.384 159.331 499.588C158.429 497.791 158.047 497.862 154.926 495.542C151.805 493.221 147.22 492.697 141.535 493.147C135.85 493.596 134.929 494.644 132.553 495.392C130.176 496.141 122.987 494.718 120.88 496.515Z" fill="#E5B76E"/>
<path d="M224.358 19.2735C222.487 24.3372 227.547 27.1329 236.48 28.1097C245.414 29.0866 252.177 30.1195 251.54 21.6987C250.904 13.2779 239.938 14.9321 236.735 15.8266C233.531 16.721 225.249 16.852 224.358 19.2735Z" fill="#E5B76E"/>
<path d="M229.084 568.921C228.316 574.535 232.826 583.307 242.744 582.675C252.662 582.042 254.533 576.421 253.193 568.921C251.854 561.42 249.709 562.745 247.033 559.003C244.357 555.26 240.334 557.663 238.459 559.003C236.584 560.343 229.888 563.026 229.084 568.921Z" fill="#E5B76E"/>
<path d="M52.1399 722.767C51.2155 727.281 55.0479 731.491 58.4387 732.341C61.8295 733.191 67.8925 732.581 71.7698 732.341C75.6471 732.101 82.1929 730.945 82.0732 726.098C81.9534 721.252 77.0132 719.71 75.8006 716.663C74.588 713.617 70.3139 712 65.6956 712C61.0772 712 53.229 717.434 52.1399 722.767Z" fill="#E5B76E"/>
<path d="M-42.8843 55.08C-43.543 57.64 -43.7189 58.5007 -41.1028 59.1669C-38.4867 59.8331 -32.9327 60.75 -28.3256 61.7531C-23.7185 62.7561 -23.4041 62.4192 -22.5657 61.7531C-21.7274 61.0869 -21.7274 61.1692 -17.3261 61.5023C-12.9248 61.8354 -7.69269 61.6707 -6.53997 63.92C-5.38725 66.1693 -1.51367 66.6746 2.06799 64.5862C5.64965 62.4978 4.47447 61.9177 6.04636 61.7531C7.61825 61.5884 8.97681 62.8347 13.5877 62.1685C18.1986 61.5023 21.6492 61.42 21.23 56.9289C20.8109 52.4378 10.4439 48.2573 3.95051 47.2543C-2.54288 46.2513 -7.77878 45.7572 -10.0805 46.3373C-12.3822 46.9174 -12.3859 47.5911 -13.2242 47.9242C-14.0626 48.2573 -15.002 47.7558 -16.5926 47.6734C-18.1832 47.5911 -23.2955 47.8381 -27.7979 48.3396C-32.3002 48.8411 -38.6888 50.4242 -38.8984 50.8434C-39.108 51.2626 -42.3453 52.9991 -42.8843 55.08Z" fill="#E5B76E"/>
<path d="M-34.272 284.079C-36.6411 287.87 -29.2981 287.93 -22.4941 290.277C-15.69 292.623 -2.07824 293.042 11.7918 291.774C25.6618 290.505 26.9717 288.757 29.8498 286.747C32.7278 284.738 39.0117 284.502 35.6096 281.639C32.2076 278.776 26.7098 277.522 12.3158 277.365C-2.07823 277.208 -9.66821 276.107 -18.0441 278.536C-26.42 280.965 -32.7001 281.564 -34.272 284.079Z" fill="#E5B76E"/>
<path d="M-44.3211 371.499C-47.7867 374.452 -43.1197 376.739 -43.1197 377.719C-43.1197 378.7 -40.178 380.773 -32.9586 382.083C-25.7391 383.393 -15.316 383.067 -3.01783 382.083C9.28032 381.099 13.0229 378.591 11.6868 375.971C10.3507 373.352 9.81551 373.464 5.27201 370.081C0.7285 366.697 -5.95577 365.934 -14.2456 366.585C-22.5354 367.236 -23.8678 368.771 -27.3447 369.86C-30.8215 370.949 -41.2484 368.879 -44.3211 371.499Z" fill="#E5B76E"/>
<path d="M1249.25 703.39C1247.59 708.439 1254.67 710.015 1259.08 714.431C1263.5 718.847 1266.31 720.853 1272.33 718.847C1278.35 716.841 1284.18 709.21 1279.56 702.185C1274.94 695.16 1252.86 692.35 1249.25 703.39Z" fill="#E5B76E"/>
<path d="M1081.73 702.366C1080.96 707.979 1085.47 716.752 1095.39 716.123C1105.3 715.495 1107.17 709.866 1105.83 702.366C1104.5 694.865 1102.35 696.205 1099.67 692.455C1097 688.705 1092.98 691.115 1091.1 692.455C1089.23 693.795 1082.53 696.475 1081.73 702.366Z" fill="#E5B76E"/>
<path d="M999.075 121.074C998.308 126.687 1002.82 135.46 1012.74 134.831C1022.65 134.203 1024.52 128.574 1023.18 121.074C1021.84 113.573 1019.7 114.913 1017.02 111.163C1014.35 107.413 1010.33 109.823 1008.45 111.163C1006.57 112.503 999.879 115.183 999.075 121.074Z" fill="#E5B76E"/>
<path d="M1143.26 702.57C1141.49 706.796 1146.98 706.863 1152.06 709.472C1157.15 712.08 1167.32 712.552 1177.69 711.152C1188.06 709.752 1189.03 707.784 1191.19 705.538C1193.34 703.293 1198.03 703.019 1195.49 699.846C1192.94 696.672 1188.84 695.276 1178.08 695.089C1167.32 694.902 1161.65 693.693 1155.39 696.395C1149.13 699.097 1144.43 699.775 1143.26 702.57Z" fill="#E5B76E"/>
<path d="M1052.34 120.912C1050.57 125.138 1056.06 125.205 1061.14 127.814C1066.23 130.422 1076.4 130.894 1086.77 129.494C1097.14 128.094 1098.11 126.126 1100.26 123.88C1102.42 121.634 1107.11 121.361 1104.57 118.188C1102.02 115.014 1097.92 113.618 1087.16 113.431C1076.4 113.244 1070.73 112.035 1064.47 114.737C1058.21 117.439 1053.51 118.116 1052.34 120.912Z" fill="#E5B76E"/>
<path d="M1034.88 209.01C1033.68 212.783 1037.41 212.842 1040.87 215.178C1044.33 217.513 1051.26 217.929 1058.33 216.675C1065.39 215.421 1066.06 213.681 1067.52 211.675C1068.99 209.669 1072.19 209.429 1070.45 206.589C1068.72 203.748 1065.93 202.505 1058.6 202.341C1051.27 202.176 1047.41 201.087 1043.14 203.505C1038.88 205.922 1035.68 206.506 1034.88 209.01Z" fill="#E5B76E"/>
<path d="M1017.36 295.957C1015.49 299.883 1021.25 299.943 1026.57 302.372C1031.9 304.801 1042.54 305.231 1053.4 303.933C1064.25 302.634 1065.27 300.811 1067.53 298.731C1069.78 296.65 1074.69 296.391 1072.02 293.442C1069.35 290.493 1065.07 289.194 1053.81 289.022C1042.54 288.85 1036.59 287.724 1030.06 290.235C1023.52 292.746 1018.59 293.367 1017.36 295.957Z" fill="#E5B76E"/>
<path d="M1079.98 506.571C1081.11 501.668 1074.96 499.681 1072.91 499.311C1070.86 498.94 1069.19 498.379 1062.67 497.065C1056.15 495.751 1048.89 494.644 1048.33 500.231C1047.78 505.819 1046.66 514.378 1057.27 515.868C1067.88 517.357 1068.99 514.371 1071.12 513.076C1073.24 511.781 1079.05 510.688 1079.98 506.571Z" fill="#E5B76E"/>
<path d="M1002.03 9.56357C1002.48 4.53158 995.584 4.56766 990.548 1.4187C985.513 -1.73026 982.472 -2.99573 977.316 0.151578C972.16 3.29888 968.385 11.618 974.167 17.1513C979.95 22.6845 1001.03 20.5779 1002.03 9.56357Z" fill="#E5B76E"/>
<path d="M1029.42 663.076C1027.24 667.406 1033.97 667.478 1040.21 670.154C1046.45 672.829 1058.92 673.312 1071.65 671.875C1084.37 670.438 1085.56 668.432 1088.2 666.138C1090.84 663.844 1096.59 663.555 1093.48 660.303C1090.36 657.051 1085.32 655.617 1072.14 655.438C1058.97 655.258 1051.99 654.004 1044.32 656.777C1036.64 659.551 1030.85 660.206 1029.42 663.076Z" fill="#E5B76E"/>
<path d="M946.417 72.42C944.243 76.7502 950.972 76.8213 957.211 79.4973C963.45 82.1732 975.924 82.656 988.649 81.2188C1001.37 79.7817 1002.56 77.7757 1005.2 75.4815C1007.84 73.1873 1013.59 72.8991 1010.48 69.6468C1007.36 66.3945 1002.32 64.9611 989.143 64.7814C975.965 64.6018 968.993 63.348 961.317 66.1212C953.64 68.8945 947.854 69.5494 946.417 72.42Z" fill="#E5B76E"/>
<path d="M1231.68 215.79C1229.73 220.094 1231.9 224.859 1238.98 226.85C1246.06 228.841 1250.48 227.954 1254.46 226.85C1258.45 225.746 1260.45 221.984 1259.99 217.34C1259.53 212.695 1255.57 209.6 1250.7 210.042C1245.84 210.483 1233.9 210.925 1231.68 215.79Z" fill="#E5B76E"/>
<path d="M1178.91 210.395C1178.18 215.717 1182.45 223.999 1191.83 223.404C1201.2 222.809 1202.97 217.487 1201.71 210.395C1200.44 203.303 1198.41 204.568 1195.88 201.038C1193.34 197.509 1189.55 199.773 1187.77 201.038C1186 202.303 1179.67 204.818 1178.91 210.395Z" fill="#E5B76E"/>
<path d="M1193.22 277.825C1192.44 281.725 1194.86 281.785 1197.09 284.187C1199.33 286.59 1203.81 287.028 1208.37 285.737C1212.93 284.446 1213.36 282.638 1214.31 280.572C1215.26 278.506 1217.32 278.248 1216.2 275.332C1215.09 272.417 1213.28 271.114 1208.54 270.942C1203.81 270.77 1201.31 269.651 1198.56 272.147C1195.8 274.644 1193.74 275.243 1193.22 277.825Z" fill="#E5B76E"/>
<path d="M1153.55 383.703C1151.46 388.232 1157.94 388.303 1163.95 391.106C1169.96 393.909 1181.98 394.403 1194.23 392.906C1206.48 391.409 1207.63 389.306 1210.18 386.918C1212.72 384.53 1218.27 384.22 1215.26 380.818C1212.26 377.416 1207.4 375.919 1194.68 375.716C1181.95 375.514 1175.26 374.219 1167.87 377.116C1160.47 380.013 1154.94 380.702 1153.55 383.703Z" fill="#E5B76E"/>
<path d="M1216.07 666.229C1215.66 670.455 1217.13 670.545 1221.65 671.982C1226.16 673.419 1229.88 674.085 1229.88 672.644C1229.88 671.203 1232.27 671.207 1235.72 671.982C1239.18 672.756 1243.7 671.761 1247.42 671.095C1251.14 670.429 1248.48 668.774 1251.81 668.662C1255.13 668.55 1260.71 669.216 1264.57 669.216C1268.42 669.216 1268.55 668 1268.55 665.122C1268.55 662.244 1265.1 658.834 1260.44 658.928C1255.78 659.021 1250.07 658.815 1247.02 658.153C1243.97 657.49 1244.89 659.148 1245.03 659.923C1245.16 660.698 1243.7 662.023 1239.84 661.473C1235.99 660.922 1225.49 659.481 1223.49 660.919C1221.5 662.356 1216.33 663.464 1216.07 666.229Z" fill="#E5B76E"/>
<path d="M212.093 105.037C211.509 110.187 213.613 110.277 220.076 112.047C226.539 113.817 231.865 114.611 231.865 112.855C231.865 111.1 235.286 111.104 240.23 112.047C245.174 112.99 251.634 111.777 256.959 110.969C262.285 110.161 258.479 108.136 263.232 108.001C267.985 107.866 275.957 108.675 281.484 108.675C287.012 108.675 287.188 107.178 287.188 103.686C287.188 100.194 282.244 96.0024 275.586 96.1372C268.928 96.2719 260.762 96.0099 256.402 95.1903C252.042 94.3707 253.363 96.4066 253.55 97.3498C253.737 98.2929 251.649 99.9097 246.136 99.2211C240.623 98.5324 225.604 96.7959 222.752 98.5474C219.9 100.299 212.471 101.665 212.093 105.037Z" fill="#E5B76E"/>
<path d="M945.426 692.374C944.752 695.039 944.572 695.933 947.241 696.63C949.909 697.326 955.561 698.276 960.254 699.32C964.947 700.365 965.265 700.013 966.119 699.32C966.972 698.628 966.972 698.71 971.452 699.058C975.932 699.407 981.269 699.231 982.44 701.577C983.611 703.924 987.56 704.44 991.186 702.27C994.813 700.099 993.642 699.493 995.24 699.32C996.838 699.148 998.234 700.443 1002.92 699.755C1007.61 699.066 1011.13 698.972 1010.71 694.283C1010.28 689.593 999.72 685.256 993.118 684.215C986.516 683.175 981.171 682.651 978.825 683.257C976.478 683.864 976.478 684.56 975.625 684.908C974.771 685.256 973.813 684.736 972.211 684.65C970.61 684.563 965.385 684.822 960.797 685.342C956.208 685.862 949.704 687.513 949.49 687.962C949.277 688.411 945.972 690.207 945.426 692.374Z" fill="#E5B76E"/>
<path d="M1138.68 623.247C1137.75 627.161 1139.14 628.595 1140.03 629.849C1140.92 631.102 1142.95 630.792 1144.45 630.896C1145.94 631.001 1145.82 631.439 1146.58 633.142C1147.35 634.845 1148.88 634.639 1151.3 635.668C1153.87 636.685 1156.55 637.378 1159.29 637.73C1160.79 637.835 1160.99 637.281 1162.24 638.771C1163.49 640.26 1164.15 639.92 1167.28 639.28C1170.4 638.64 1171.74 637.959 1173.39 636.802C1175.05 635.646 1180.05 635.971 1183.62 635.953C1187.19 635.934 1189.51 637.513 1193.28 635.923C1197.06 634.332 1196.62 634.729 1200.59 634.123C1204.56 633.516 1204.3 635.829 1207.67 634.834C1211.04 633.838 1210.56 631.986 1210.34 629.362C1210.12 626.738 1207.13 623.449 1204.95 623.071C1202.78 622.693 1200.33 623.606 1197.59 623.037C1194.85 622.468 1194.44 619.983 1190.1 620.357C1185.76 620.732 1184.21 620.84 1179.77 620.208C1175.34 619.575 1171.48 617.693 1170.25 619.893C1169.02 622.094 1170.65 623.917 1170.65 623.917C1167.39 623.864 1165.09 619.8 1162.42 619.545C1159.75 619.291 1156.53 620.028 1153.81 620.586C1151.09 621.143 1150.54 621.046 1147.45 620.758C1144.35 620.47 1139.02 621.809 1138.68 623.247Z" fill="#E5B76E"/>
<path d="M1256.71 336.266C1256.53 340.009 1257.09 342.599 1256.71 346.341C1256.34 350.084 1254.35 353.396 1259.26 353.826C1264.17 354.257 1274.98 351.379 1278.1 349.796C1281.23 348.212 1290.27 351.379 1298.31 350.802C1306.35 350.226 1313.82 349.365 1316.18 346.053C1318.53 342.741 1319.71 341.158 1304.4 337.127C1289.09 333.096 1282.81 330.937 1278.49 332.524C1274.17 334.11 1269.26 333.665 1266.72 333.309C1264.17 332.954 1256.82 333.961 1256.71 336.266Z" fill="#E5B76E"/>
<path d="M1198.81 435.41C1197.69 440.275 1203.81 442.266 1205.85 442.637C1207.89 443.007 1209.56 443.561 1216.04 444.86C1222.53 446.159 1229.75 447.266 1230.31 441.709C1230.87 436.151 1231.98 427.629 1221.41 426.147C1210.85 424.665 1209.75 427.644 1207.62 428.924C1205.48 430.204 1199.74 431.334 1198.81 435.41Z" fill="#E5B76E"/>
<path d="M1271.09 424.358C1270.31 429.744 1270.8 429.224 1277.1 432.09C1283.4 434.957 1280.84 432.379 1289.13 434.954C1297.41 437.528 1303.16 435.957 1308.59 434.954C1314.02 433.95 1323.18 434.096 1325.05 427.94C1326.93 421.783 1321.62 420.208 1312.88 420.923C1304.15 421.637 1299.71 420.208 1293.13 419.635C1286.54 419.062 1271.66 420.35 1271.09 424.358Z" fill="#E5B76E"/>
<path d="M1200.55 522.789C1197.67 530.589 1205.46 534.878 1219.22 536.401C1232.98 537.924 1243.39 539.492 1242.43 526.52C1241.46 513.549 1224.54 516.112 1219.64 517.49C1214.73 518.867 1201.94 519.046 1200.55 522.789Z" fill="#E5B76E"/>
<path d="M1197.03 325.71C1194.72 329.977 1197.3 334.692 1205.68 336.676C1214.06 338.659 1219.3 337.772 1224.02 336.676C1228.73 335.579 1231.09 331.848 1230.57 327.244C1230.04 322.641 1225.33 319.568 1219.57 320.006C1213.8 320.444 1199.65 320.882 1197.03 325.71Z" fill="#E5B76E"/>
<path d="M1242.79 473.33C1240.7 477.937 1243.03 483.038 1250.61 485.171C1258.19 487.305 1262.92 486.354 1267.18 485.171C1271.45 483.989 1273.58 479.962 1273.1 474.988C1272.63 470.014 1268.37 466.698 1263.16 467.173C1257.95 467.648 1245.16 468.12 1242.79 473.33Z" fill="#E5B76E"/>
<path d="M1253.1 618.261C1252.14 622.64 1257.81 629.444 1270.25 628.954C1282.69 628.464 1285.04 624.089 1283.35 618.261C1281.66 612.434 1278.98 613.475 1275.62 610.559C1272.26 607.644 1267.21 609.519 1264.86 610.559C1262.51 611.6 1254.12 613.681 1253.1 618.261Z" fill="#E5B76E"/>
<path d="M1249.49 294.816C1248.56 299.55 1254.05 306.916 1266.11 306.384C1278.16 305.853 1280.44 301.122 1278.83 294.816C1277.22 288.51 1274.58 289.625 1271.32 286.481C1268.07 283.338 1263.17 285.359 1260.9 286.481C1258.62 287.604 1250.47 289.861 1249.49 294.816Z" fill="#E5B76E"/>
<path d="M1261.07 540.331C1260.39 543.797 1264.41 549.186 1273.23 548.797C1282.05 548.407 1283.71 544.949 1282.53 540.331C1281.34 535.713 1279.43 536.54 1277.04 534.234C1274.66 531.929 1271.09 533.407 1269.42 534.234C1267.75 535.061 1261.79 536.704 1261.07 540.331Z" fill="#E5B76E"/>
<path d="M1257.4 384.609C1256.83 389.399 1258.26 390.75 1259.02 392.259C1259.78 393.767 1263.76 396.132 1270 396.132C1276.25 396.132 1280.02 393.658 1281.96 391.289C1283.9 388.92 1283.04 388.804 1283.68 386.559C1284.33 384.313 1285.51 383.759 1281.31 379.773C1277.11 375.788 1273.56 375.252 1268.6 376.974C1263.65 378.696 1257.72 381.918 1257.4 384.609Z" fill="#E5B76E"/>
<path d="M1209.02 577.032C1206.98 581.28 1209.72 584.566 1209.72 585.981C1209.72 587.396 1211.45 590.379 1215.69 592.261C1219.93 594.144 1226.05 593.676 1233.28 592.261C1240.51 590.846 1242.7 587.239 1241.91 583.47C1241.13 579.701 1240.81 579.858 1238.14 574.989C1235.48 570.12 1231.55 569.023 1226.68 569.967C1221.82 570.91 1221.03 573.107 1218.99 574.675C1216.95 576.243 1210.82 573.264 1209.02 577.032Z" fill="#E5B76E"/>
<path d="M1069.76 255.193C1067.89 260.257 1072.95 263.053 1081.88 264.03C1090.81 265.006 1097.58 266.039 1096.94 257.619C1096.3 249.198 1085.34 250.852 1082.13 251.746C1078.93 252.641 1070.65 252.772 1069.76 255.193Z" fill="#E5B76E"/>
<path d="M1105.14 211.749C1103.62 215.118 1105.32 218.808 1110.82 220.357C1116.33 221.907 1119.78 221.218 1122.88 220.357C1125.97 219.496 1127.52 216.57 1127.18 212.954C1126.84 209.339 1123.74 206.914 1119.95 207.288C1116.16 207.662 1106.86 207.962 1105.14 211.749Z" fill="#E5B76E"/>
<path d="M1076.08 170.921C1075.32 176.535 1079.83 185.307 1089.74 184.675C1099.66 184.042 1101.53 178.421 1100.19 170.921C1098.85 163.42 1096.71 164.745 1094.03 161.003C1091.36 157.26 1087.33 159.663 1085.46 161.003C1083.58 162.343 1076.89 165.026 1076.08 170.921Z" fill="#E5B76E"/>
<path d="M1124.34 176.895C1122.57 181.116 1128.06 181.184 1133.14 183.796C1138.23 186.408 1148.4 186.876 1158.77 185.477C1169.14 184.077 1170.11 182.116 1172.27 179.87C1174.43 177.625 1179.12 177.355 1176.58 174.181C1174.03 171.008 1169.92 169.619 1159.17 169.432C1148.43 169.245 1142.74 168.032 1136.48 170.738C1130.22 173.444 1125.51 174.095 1124.34 176.895Z" fill="#E5B76E"/>
<path d="M1113.61 294.233C1112.69 298.747 1116.52 302.957 1119.91 303.807C1123.3 304.656 1129.37 304.046 1133.24 303.807C1137.12 303.567 1143.67 302.411 1143.55 297.564C1143.43 292.717 1138.49 291.176 1137.27 288.129C1136.06 285.083 1131.79 283.466 1127.17 283.466C1122.55 283.466 1114.7 288.9 1113.61 294.233Z" fill="#E5B76E"/>
<path d="M1122.12 250.08C1121.46 252.64 1121.28 253.501 1123.9 254.167C1126.51 254.833 1132.07 255.75 1136.67 256.753C1141.28 257.756 1141.6 257.419 1142.43 256.753C1143.27 256.087 1143.27 256.169 1147.67 256.502C1152.07 256.835 1157.31 256.671 1158.46 258.92C1159.61 261.169 1163.49 261.675 1167.07 259.586C1170.65 257.498 1169.47 256.918 1171.05 256.753C1172.62 256.588 1173.98 257.835 1178.59 257.168C1183.2 256.502 1186.65 256.42 1186.23 251.929C1185.81 247.438 1175.44 243.257 1168.95 242.254C1162.46 241.251 1157.22 240.757 1154.92 241.337C1152.62 241.917 1152.61 242.591 1151.78 242.924C1150.94 243.257 1150 242.756 1148.41 242.673C1146.82 242.591 1141.7 242.838 1137.2 243.34C1132.7 243.841 1126.31 245.424 1126.1 245.843C1125.89 246.263 1122.65 247.999 1122.12 250.08Z" fill="#E5B76E"/>
<path d="M1178.91 522.82C1179.77 527.285 1178.12 528.808 1177.04 530.193C1175.97 531.578 1173.67 531.095 1171.98 531.132C1170.28 531.17 1170.4 531.668 1169.44 533.531C1168.48 535.395 1166.75 535.077 1163.95 536.121C1161.16 537.165 1156.47 537.974 1154.79 537.992C1153.1 538.011 1154.91 533.224 1154.56 530.795C1154.21 528.367 1153.26 531.653 1152.79 533.524C1152.32 535.395 1152.88 537.412 1151.39 539.025C1149.9 540.638 1149.15 540.216 1145.64 539.325C1142.14 538.434 1140.65 537.588 1138.83 536.192C1137.01 534.796 1131.32 534.89 1127.27 534.673C1123.22 534.456 1120.51 536.11 1116.31 534.111C1112.11 532.113 1112.59 532.584 1108.11 531.682C1103.63 530.781 1103.82 533.4 1100.04 532.094C1096.27 530.788 1096.91 528.726 1097.3 525.777C1097.68 522.827 1101.24 519.302 1103.73 518.98C1106.22 518.658 1108.95 519.833 1112.09 519.354C1115.23 518.875 1115.83 516.083 1120.72 516.735C1125.6 517.386 1127.37 517.603 1132.44 517.131C1137.51 516.66 1141.98 514.747 1143.26 517.3C1144.55 519.852 1142.6 521.813 1142.6 521.813C1146.31 521.933 1149.13 517.498 1152.18 517.322C1155.24 517.146 1158.84 518.19 1161.92 518.965C1164.99 519.74 1165.6 519.665 1169.14 519.508C1172.68 519.351 1178.6 521.173 1178.91 522.82Z" fill="#E5B76E"/>
<path d="M1119.22 420.2C1118.61 425.938 1118.99 425.388 1123.94 428.434C1128.88 431.481 1126.86 428.737 1133.38 431.484C1139.89 434.231 1144.39 432.551 1148.66 431.484C1152.93 430.418 1160.12 430.567 1161.58 423.999C1163.04 417.431 1158.88 415.765 1152.03 416.514C1145.18 417.262 1141.69 415.765 1136.52 415.14C1131.35 414.515 1119.67 415.938 1119.22 420.2Z" fill="#E5B76E"/>
<path d="M1132.31 667.211C1131.94 671.545 1132.18 671.129 1135.1 673.435C1138.02 675.74 1136.83 673.667 1140.68 675.74C1144.53 677.814 1147.19 676.545 1149.71 675.74C1152.24 674.936 1156.49 675.048 1157.35 670.093C1158.22 665.138 1155.76 663.869 1151.7 664.445C1147.65 665.022 1145.59 663.869 1142.54 663.408C1139.48 662.948 1132.58 663.985 1132.31 667.211Z" fill="#E5B76E"/>
<path d="M1048.14 65.9063C1047.76 70.2402 1048 69.8248 1050.92 72.1302C1053.85 74.4356 1052.65 72.3622 1056.5 74.4356C1060.36 76.509 1063.01 75.2403 1065.54 74.4356C1068.07 73.631 1072.31 73.7432 1073.18 68.788C1074.04 63.8328 1071.58 62.5641 1067.53 63.1405C1063.48 63.7168 1061.42 62.5641 1058.36 62.1038C1055.31 61.6434 1048.4 62.6801 1048.14 65.9063Z" fill="#E5B76E"/>
<path d="M1088.1 382.458C1087.2 386.927 1092.5 393.862 1104.12 393.36C1115.75 392.859 1117.95 388.401 1116.38 382.458C1114.81 376.515 1112.29 377.593 1109.15 374.599C1106.01 371.605 1101.29 373.539 1099.1 374.599C1096.9 375.658 1089.04 377.784 1088.1 382.458Z" fill="#E5B76E"/>
<path d="M996.062 720.364C995.358 729.159 1000.78 729.522 1006.05 729.803C1011.33 730.083 1009.66 727.58 1014.66 728.137C1019.66 728.695 1025.49 731.745 1031.31 731.745C1037.14 731.745 1038.8 724.806 1043.25 723.972C1047.7 723.137 1051.3 712.594 1041.58 711.483C1031.87 710.371 1029.09 706.767 1020.49 708.432C1011.89 710.098 996.619 713.425 996.062 720.364Z" fill="#E5B76E"/>
<path d="M1129.89 343.328C1129.04 346.266 1132.55 349.009 1135.66 349.563C1138.77 350.117 1144.33 349.72 1147.89 349.563C1151.44 349.406 1157.44 348.653 1157.33 345.498C1157.22 342.343 1152.69 341.337 1151.58 339.342C1150.47 337.347 1146.55 336.303 1142.33 336.303C1138.11 336.303 1130.89 339.854 1129.89 343.328Z" fill="#E5B76E"/>
<path d="M1079.6 604.181C1078.31 608.65 1083.65 612.819 1088.38 613.661C1093.11 614.503 1101.56 613.901 1106.97 613.661C1112.37 613.422 1121.49 612.28 1121.32 607.482C1121.15 602.684 1114.27 601.157 1112.58 598.126C1110.9 595.094 1104.94 593.522 1098.52 593.522C1092.1 593.522 1081.12 598.904 1079.6 604.181Z" fill="#E5B76E"/>
<path d="M1258.25 251.398C1256.59 256.45 1263.67 258.022 1268.08 262.439C1272.5 266.855 1275.31 268.865 1281.33 266.859C1287.35 264.853 1293.18 257.221 1288.56 250.185C1283.94 243.149 1261.86 240.357 1258.25 251.398Z" fill="#E5B76E"/>
<path d="M122.051 644.219C121.471 651.484 125.951 651.787 130.307 652.015C134.663 652.243 133.301 650.181 137.418 650.641C141.535 651.102 146.363 653.636 151.179 653.636C155.996 653.636 157.37 647.894 161.041 647.198C164.713 646.502 167.692 637.797 159.664 636.88C151.636 635.963 149.346 632.98 142.235 634.357C135.124 635.735 122.511 638.486 122.051 644.219Z" fill="#E5B76E"/>
<path d="M1023.19 21.6589C1021.91 26.1275 1027.25 30.2968 1031.98 31.1389C1036.71 31.981 1045.16 31.3784 1050.56 31.1389C1055.96 30.8994 1065.09 29.7579 1064.92 24.9599C1064.75 20.1619 1057.87 18.6349 1056.18 15.6034C1054.49 12.5719 1048.53 11 1042.11 11C1035.7 11 1024.71 16.3818 1023.19 21.6589Z" fill="#E5B76E"/>
<path d="M286.022 10.2895C285.442 17.5539 289.922 17.857 294.278 18.0853C298.635 18.3136 297.272 16.2514 301.389 16.7118C305.506 17.1721 310.334 19.7059 315.151 19.7059C319.967 19.7059 321.341 13.9647 325.012 13.2686C328.684 12.5725 331.663 3.86721 323.635 2.95028C315.607 2.03334 313.317 -0.949501 306.206 0.427772C299.095 1.80504 286.482 4.55585 286.022 10.2895Z" fill="#E5B76E"/>
<path d="M1120.68 566.499C1117.21 569.452 1121.88 571.739 1121.88 572.719C1121.88 573.7 1124.82 575.773 1132.04 577.083C1139.26 578.393 1149.68 578.067 1161.98 577.083C1174.28 576.099 1178.02 573.591 1176.69 570.971C1175.35 568.352 1174.82 568.464 1170.27 565.081C1165.73 561.697 1159.04 560.934 1150.75 561.585C1142.46 562.236 1141.13 563.771 1137.66 564.86C1134.18 565.949 1123.75 563.879 1120.68 566.499Z" fill="#E5B76E"/>
</g>
<defs>
<clipPath id="clip0_268_380">
<rect width="1280" height="720" fill="white"/>
</clipPath>
</defs>
</svg>
