<svg width="1280" height="720" viewBox="0 0 1280 720" fill="none" xmlns="http://www.w3.org/2000/svg">
<g clip-path="url(#clip0_268_157)">
<rect width="1280" height="720" fill="#FFFBF3"/>
<rect width="1280" height="720" fill="#023A2F"/>
<path d="M44.9038 243.199C35.3505 238.422 31.8654 229.852 35.2806 224.267C38.6959 218.681 37.2181 213.713 39.5104 208.436C41.8027 203.159 57.3196 201.605 65.6918 203.781C70.6604 190.126 78.7301 191.057 85.8689 188.264C93.0077 185.472 90.215 179.572 93.9386 171.502C97.6622 163.433 103.248 155.357 108.216 152.885C93.9386 149.475 80.2894 137.99 73.7615 129.915C67.2336 121.839 64.1384 122.153 61.0373 117.191C57.9363 112.228 62.5908 106.322 64.1384 98.5728C65.686 90.8231 67.2452 75.8822 77.4851 72.8045C87.7249 69.7267 99.8381 68.4584 105.738 72.8045C111.637 77.1506 125.915 86.1512 129.01 88.6355C132.105 91.1198 133.979 106.642 125.286 110.058C116.594 113.473 109.758 114.381 109.176 113.135C108.554 109.412 113.208 109.104 113.516 102.273C113.825 95.4426 106.069 92.9641 101.415 90.1656C96.7604 87.3671 92.711 96.6819 91.1401 101.04C89.5692 105.397 89.9009 115.631 94.8637 122.77C99.8265 129.909 113.482 135.186 124.664 137.362C135.846 139.538 155.709 150.691 160.055 156.597C164.401 162.502 166.572 170.56 166.263 173.056C175.886 171.817 186.44 175.854 192.026 184.855C197.611 193.856 190.181 208.436 183.648 212.165C177.114 215.894 169.37 215.889 164.401 216.203C159.433 216.517 156.332 212.473 158.816 210.612C161.3 208.75 168.439 207.511 173.408 204.095C178.376 200.68 178.993 191.68 177.131 187.019C175.27 182.359 157.885 182.056 151.986 185.472C146.086 188.887 152.608 181.126 153.231 175.534C153.853 169.943 149.816 160.948 146.709 158.773C143.602 156.597 129.016 155.049 125.601 157.842C122.185 160.634 111.946 171.188 111.946 176.459C111.946 181.731 121.255 184.843 126.846 186.705C132.437 188.567 133.054 193.536 124.984 192.913C116.914 192.29 105.115 191.36 102.008 197.882C98.9014 204.404 88.0449 198.19 83.0762 200.674C78.1076 203.159 82.762 220.851 78.1076 222.091C73.4531 223.33 58.8614 217.745 52.0309 223.022C45.2005 228.299 48.6215 234.198 50.7917 238.853C52.9618 243.507 52.3568 246.928 44.9038 243.199Z" fill="#E5B76E"/>
<path d="M12.8885 276.272C18.8695 272.542 28.4519 266.236 16.6528 263.582C4.8537 260.929 -2.68072 255.047 -5.71195 248.455C-8.74317 241.864 -15.0209 237.541 -16.33 232.456C-17.639 227.371 -7.79483 220.238 -6.15413 211.953C-4.51343 203.668 -1.17965 197.21 7.50094 197.117C16.1815 197.024 17.1997 191.45 20.0389 183.491C22.8781 175.532 34.9099 175.468 40.984 175.014C47.0581 174.56 49.7577 170.941 41.2342 164.262C32.7107 157.583 23.7799 161.109 25.9675 150.217C27.0439 144.847 34.1943 143.654 29.3653 139.675C24.5363 135.695 14.8957 129.202 11.7074 119.893C8.51909 110.584 10.4798 105.784 13.6914 101.7C16.903 97.6158 22.7036 93.7933 21.6621 86.6661C20.5683 79.1725 28.673 82.5935 31.1747 74.6111C33.6765 66.6287 31.8729 44.613 32.0707 36.299C32.2685 27.9849 33.2343 23.8425 34.5609 16.1509C35.8874 8.45944 29.0046 6.51038 23.041 1.60574C17.0775 -3.29891 9.15328 -10.6122 3.28865 -7.17957C-2.57598 -3.7469 -11.1228 3.47334 -14.0667 5.51549C-17.0107 7.55764 -18.9074 14.6266 -17.5983 20.6018C-16.4856 25.7314 -14.4428 30.6139 -11.5708 35.0074C-9.33662 38.3295 -6.68939 36.6073 -7.06175 27.6824C-7.43411 18.7575 -3.96068 18.8389 1.58396 16.5931C7.12859 14.3473 13.8601 23.7145 17.2113 28.846C20.5625 33.9776 17.0717 45.5846 10.9278 48.4122C4.7839 51.2398 -0.0451085 54.0616 -0.16147 59.1117C-0.277832 64.1618 6.2384 65.6629 4.39407 69.5842C2.54973 73.5056 -2.38981 81.3251 -7.59118 88.1323C-11.9198 93.8224 -11.0064 95.4166 -9.96497 100.461C-9.23993 104.395 -9.51604 108.449 -10.7679 112.248C-11.3846 113.72 -16.6848 117.758 -18.5117 121.557C-20.3386 125.356 -17.4994 126.863 -10.7155 133.56C-3.9316 140.257 2.30537 144.707 2.21228 148.571C2.11919 152.434 2.54973 158.979 -3.24508 159.439C-9.0399 159.898 -20.1175 162.93 -23.9749 155.093C-27.8323 147.256 -31.4919 154.912 -29.9036 161.19C-28.3152 167.468 -23.172 170.266 -16.01 173.408C-8.8479 176.55 -10.3315 180.297 -18.8783 186.929C-27.425 193.562 -44.2219 198.048 -48.8763 199.147C-53.5308 200.247 -64.9866 207.682 -65.5335 218.667C-66.0804 229.651 -64.6375 234.958 -57.4638 237.483C-50.2901 240.008 -53.426 237.872 -55.6195 232.77C-57.8129 227.667 -55.1482 220.098 -52.1577 215.711C-49.1672 211.324 -40.6844 210.423 -36.9783 213.803C-33.2722 217.183 -35.4714 229.698 -37.4438 239.757C-39.4161 249.817 -24.2367 258.899 -21.7349 263.117C-19.2332 267.335 -36.3558 278.966 -44.2509 282.666C-52.1461 286.366 -65.9873 280.176 -69.6702 281.083C-73.353 281.991 -76.2213 284.691 -78.8162 286.616C-81.4111 288.542 -86.7113 292.173 -91.9011 291.457C-97.0908 290.741 -102.141 282.899 -105.003 282.637C-107.866 282.375 -111.578 283.475 -111.619 285.255C-111.659 287.035 -124.174 285.953 -128.154 283.085C-132.133 280.216 -140.29 274.084 -143.519 272.03C-146.748 269.977 -152.758 270.238 -149.582 275.649C-146.405 281.06 -141.017 288.926 -139.958 292.347C-138.9 295.768 -141.622 297.461 -142.67 301.004C-143.717 304.548 -139.324 306.433 -140.197 310.767C-141.07 315.102 -156.261 329.81 -162.888 332.824C-169.514 335.837 -168.973 337.437 -157.965 336.704C-146.958 335.971 -127.031 325.708 -123.668 322.601C-120.305 319.494 -115.243 308.731 -107.883 307.323C-100.523 305.915 -97.469 307.364 -92.6981 309.65C-87.9273 311.937 -75.2439 314.415 -68.1516 307.253C-61.0594 300.091 -59.314 308.841 -56.626 309.301C-53.9381 309.761 -40.027 308.719 -39.5732 305.74C-39.1194 302.761 -26.7734 287.413 -18.2732 285.435C-9.77294 283.457 -2.64581 285.4 2.40429 283.736C7.45439 282.072 8.44348 279.035 12.8885 276.272Z" fill="#E5B76E"/>
<path d="M42.6191 299.538C51.1543 291.445 57.4727 290.625 57.4727 285.278C57.4727 279.931 51.8292 258.515 62.2261 258.835C72.623 259.155 89.478 243.213 97.5942 239.129C115.706 230.018 128.43 252.895 140.491 250.818C152.552 248.741 165.02 243.388 172.45 245.768C179.879 248.147 185.22 254.681 190.87 262.402C196.519 270.122 197.456 276.365 196.833 286.762C196.211 297.159 190.87 299.562 179.28 301.022C167.691 302.482 157.294 296.571 151.65 294.191C146.007 291.812 151.353 284.981 152.814 281.712C154.274 278.442 156.374 281.415 157.864 285.278C159.353 289.141 165.02 291.515 173.637 289.438C182.253 287.361 181.66 279.547 181.66 273.211C181.66 266.876 180.17 262.995 168.278 262.995C156.386 262.995 149.265 271.612 143.022 271.612C136.779 271.612 129.157 258.538 120.645 256.164C115.485 254.722 110.638 264.7 103.808 267.847C96.9775 270.995 79.7443 273.398 77.6615 276.365C75.5786 279.332 75.2877 286.837 75.8811 286.663C87.7675 286.465 90.1413 287.245 95.4881 290.032C100.835 292.818 98.0655 296.17 101.231 302.511C104.396 308.853 104.204 317.167 100.241 321.525C96.2793 325.883 85.7835 328.652 79.8549 327.07C73.9263 325.487 72.5241 324.096 71.9307 320.536C71.3372 316.975 72.7219 317.563 75.8928 319.145C79.0636 320.728 83.4214 320.536 85.5973 317.761C87.7733 314.985 86.3886 307.87 84.6083 304.292C82.8279 300.714 74.9037 297.362 67.5729 299.911C60.2421 302.459 53.5106 309.022 52.7193 314.962C51.9281 320.902 52.5215 326.651 54.6975 330.613C56.8735 334.575 63.0174 337.542 65.7926 342.295C68.5678 347.049 70.1503 352.401 65.2108 361.71C60.2712 371.019 57.88 382.306 54.1157 384.68C50.3514 387.054 37.0861 383.691 32.5306 384.68C27.975 385.669 22.4304 389.434 15.8908 389.637C9.35132 389.841 -3.30885 380.328 -8.66731 377.553C-14.0258 374.778 -15.6025 373.789 -19.1399 370.42C-22.6773 367.051 -24.2947 357.155 -24.2947 352.599C-24.2947 348.044 -14.1887 341.655 -10.628 336.826C-7.06733 331.997 2.24745 321.897 7.79208 322.095C13.3367 322.293 16.3097 327.64 23.4427 330.24C30.5757 332.841 29.3481 341.33 28.7663 347.072C28.1845 352.815 26.3867 356.963 23.0238 356.963C19.661 356.963 21.4355 347.852 19.853 344.681C18.2704 341.51 12.3244 337.944 8.5659 337.944C4.80741 337.944 -5.70007 343.296 -8.46948 348.247C-11.2389 353.199 1.42127 366.283 8.98478 369.832C16.5483 373.381 30.9655 370.624 37.1094 369.635C43.2533 368.646 53.3477 359.337 50.9739 354.781C48.6001 350.225 40.0766 349.434 39.4832 342.895C38.8897 336.355 43.6431 332.597 42.654 329.234C41.665 325.871 31.1284 310.436 42.6191 299.538Z" fill="#E5B76E"/>
<path d="M-54.8284 410.949C-57.0451 401.337 -27.6929 400.255 -24.33 400.255C-20.9672 400.255 -20.0712 411.397 -10.2677 410.949C-0.464226 410.501 14.2206 408.709 24.4954 413.177C34.7701 417.646 53.4637 422.091 62.8191 419.862C72.1746 417.634 81.5359 406.94 82.4261 396.241C83.3162 385.541 88.2442 372.625 93.1255 369.059C98.0069 365.492 109.637 349.452 117.201 345.874C124.764 342.296 117.201 353.897 117.201 357.905C117.201 361.914 116.753 365.929 122.548 371.287C128.342 376.646 120.767 380.2 113.634 379.752C106.501 379.304 99.8222 383.522 99.8222 389.643C99.8222 395.764 106.507 406.923 100.264 413.16C94.0215 419.397 79.7672 424.301 79.3192 428.758C78.8712 433.215 63.2788 439.9 53.0273 440.342C42.7758 440.784 13.3654 431.877 8.01858 432.325C2.67175 432.773 10.9276 449.505 17.6009 452.624C24.2743 455.742 47.1859 466.686 44.114 485.356C42.7642 493.572 33.8625 498.424 37.877 503.329C41.8914 508.233 45.2485 512.69 30.4066 516.71C15.5646 520.73 5.79023 517.449 3.5619 524.134C1.33357 530.819 2.67175 546.865 -2.67507 546.865C-8.02189 546.865 -9.80806 532.605 -15.6029 532.157C-21.3977 531.709 -36.9902 532.652 -41.9414 525.327C-43.8904 522.418 -57.9876 526.49 -64.3235 523.738C-70.0427 521.242 -61.8974 514.185 -64.1257 507.5C-66.354 500.815 -88.2533 492.489 -93.6001 498.738C-98.947 504.987 -90.9238 515.675 -90.0336 521.912C-89.1435 528.148 -95.8517 529.935 -103.415 517.903C-110.979 505.871 -102.967 495.177 -103.415 485.374C-103.863 475.57 -94.9383 472.894 -87.3632 471.544C-79.788 470.195 -69.9787 452.828 -62.8515 452.385C-55.7244 451.943 -64.597 469.909 -61.3621 478.381C-58.1272 486.852 -51.611 498.383 -41.3596 501.95C-31.1081 505.516 -30.887 494.497 -27.6928 490.657C-21.9504 483.727 -10.6633 486.892 -9.37169 494.729C-6.60228 511.602 17.1181 503.491 16.6701 487.899C16.2221 472.306 -1.366 460.862 -14.2763 454.62C-27.1867 448.377 -28.0885 438.131 -32.9931 428.776C-37.8978 419.42 -53.4902 416.744 -54.8284 410.949Z" fill="#E5B76E"/>
<path d="M-159.554 617.73C-154.003 625.13 -139.65 631.321 -133.111 625.154C-126.571 618.986 -125.093 611.487 -116.477 610.026C-107.86 608.566 -101.932 614.483 -91.2204 605.867C-80.5093 597.25 -75.7734 583.583 -78.4206 577.05C-81.0679 570.516 -84.9544 563.668 -97.7309 561.923C-110.507 560.177 -117.931 564 -121.201 564.89C-124.471 565.78 -118.525 572.023 -117.338 577.073C-116.151 582.123 -117.041 585.986 -122.091 585.986C-127.141 585.986 -131.895 579.092 -136.351 572.884C-140.808 566.676 -146.452 557.175 -137.515 555.383C-128.578 553.591 -106.324 546.173 -100.081 544.986C-96.1039 544.283 -92.0181 544.503 -88.1388 545.627C-84.2594 546.752 -80.6899 548.752 -77.705 551.473C-70.7233 558.013 -56.4516 561.876 -52.2916 563.656C-48.1317 565.437 -48.7251 579.697 -52.2916 588.017C-55.8581 596.336 -55.2647 592.177 -53.4552 593.66C-51.6458 595.144 -35.4192 589.105 -26.692 593.363C-15.9926 598.6 -8.76649 613.459 -15.3991 610.102C-31.841 601.782 -52.8327 602.87 -56.3992 608.52C-59.9657 614.169 -62.3395 625.648 -67.0928 627.481C-71.8462 629.313 -84.0293 642.98 -85.5129 650.707C-86.9965 658.433 -92.3491 674.177 -95.9098 682.491C-99.4705 690.805 -95.0196 698.834 -86.4031 698.834C-77.7865 698.834 -70.1648 705.071 -70.415 708.044C-70.6651 711.017 -74.5225 723.788 -66.7961 724.683C-59.0697 725.579 -50.7557 714.578 -41.2489 712.797C-31.7422 711.017 -18.378 693.929 -18.378 687.099C-18.378 680.268 -27.6869 668.981 -34.2148 670.116C-47.0786 672.344 -47.8815 685.167 -52.9316 687.57C-57.9817 689.973 -59.7678 687.57 -56.2014 671.239C-52.6349 654.907 -36.2046 655.629 -29.0774 652.365C-21.9503 649.101 -20.2514 660.05 -14.6079 665.979C-8.96431 671.908 3.7482 681.403 3.7482 689.723C3.7482 698.042 -19.3264 718.144 -20.81 726.464C-22.2936 734.784 -43.9834 741.591 -54.6828 745.477C-65.3823 749.364 -77.257 751.121 -82.0278 739.537C-86.7987 727.953 -90.0335 730.92 -99.2319 722.304C-108.43 713.687 -122.405 700.911 -120.328 682.491C-118.251 664.071 -108.145 655.605 -107.849 646.471C-107.552 637.337 -108.739 636.743 -122.976 637.93C-137.212 639.117 -153.282 646.547 -159.519 638.512C-165.756 630.477 -166.687 608.217 -159.554 617.73Z" fill="#E5B76E"/>
<path d="M67.4172 -77.9199C65.2994 -66.5397 60.3598 -66.6561 56.5024 -61.9027C52.645 -57.1493 54.4196 -47.3575 53.5294 -42.8892C52.6392 -38.4209 43.4292 -26.5462 46.699 -17.9296C49.9687 -9.31301 65.119 8.50778 67.4928 15.344C69.8666 22.1803 82.9165 24.8508 88.2866 27.8238C93.6567 30.7969 108.493 46.2439 113.246 41.7872C118 37.3306 125.423 29.9009 133.447 27.8238C141.47 25.7468 153.054 17.7178 151.867 7.02418C150.68 -3.66946 153.03 -8.71956 153.95 -19.1223C154.869 -29.525 147.41 -36.3497 139.689 -43.5059C131.969 -50.6621 120.373 -50.9298 115.917 -48.556C111.46 -46.1822 108.493 -38.7525 106.707 -34.0108C104.921 -29.269 101.953 -18.558 106.707 -16.4809C111.46 -14.4038 121.566 -13.2111 122.753 -15.5907C123.94 -17.9703 115.917 -18.8547 116.213 -21.531C116.51 -24.2073 120.973 -30.4443 125.423 -32.5214C129.874 -34.5984 137.607 -27.4887 139.387 -23.7942C141.167 -20.0997 134.634 -6.11307 135.233 -2.54658C135.832 1.01991 135.529 9.04305 133.743 9.93322C131.957 10.8234 114.433 11.0968 110.867 14.3899C107.3 17.6829 93.6393 6.66345 91.2597 6.66345C88.8801 6.66345 91.5564 4.58639 85.6162 -4.32691C79.6759 -13.2402 71.0709 -13.8337 68.9764 -18.2903C66.8819 -22.747 76.4061 -48.8934 76.4061 -52.4599C76.4061 -56.0264 81.7529 -59.2147 87.3965 -61.606C93.04 -63.9972 98.0436 -81.5562 104.851 -91.0629C111.658 -100.57 147.218 -106.958 156.446 -95.8687C161.845 -89.3815 164.94 -86.8565 161.373 -82.1031C157.807 -77.3497 151.57 -74.6734 151.867 -70.2167C152.163 -65.7601 153.653 -67.5462 160.483 -60.71C167.314 -53.8737 171.77 -46.1648 171.77 -42.5925C171.77 -39.0202 167.314 -27.1396 171.77 -20.6059C176.227 -14.0722 193.163 -5.47889 195.84 1.97407C198.516 9.42704 204.032 31.0645 191.767 40.2978C179.503 49.5311 178.915 45.4643 168.803 42.6018C158.691 39.7393 154.543 39.4251 157.51 43.2883C160.477 47.1515 162.863 51.9049 166.424 56.6699C169.984 61.4349 175.04 61.72 186.729 59.2415C197.498 56.9608 207.261 61.3127 210.298 59.4393C214.423 56.9026 224.063 46.4708 224.657 40.8214C225.25 35.1721 218.117 24.0886 218.117 16.6589C218.117 9.22923 224.046 -5.92107 221.672 -11.8497C219.298 -17.7783 204.34 -14.2235 197.126 -20.763C189.911 -27.3025 198.51 -35.5177 197.917 -44.7277C197.323 -53.9377 185.437 -61.5652 181.277 -64.5092C177.117 -67.4531 174.72 -69.3731 175.04 -70.752C175.36 -72.1309 183.831 -72.864 183.308 -94.6061C182.929 -110.414 171.933 -110.757 157.97 -115.813C144.006 -120.869 129.153 -115.813 117.563 -114.039C105.974 -112.264 84.662 -110.076 77.5174 -102.653C70.3727 -95.2287 68.8484 -85.5823 67.4172 -77.9199Z" fill="#E5B76E"/>
<path d="M110.17 481.137C116.035 491.976 125.961 505.468 136.352 512.607C146.743 519.746 170.969 531.021 183.374 532.01C195.778 532.999 215.134 528.933 219.446 522.428C223.757 515.923 244.463 511.502 251.166 511.112C257.868 510.722 264.995 490.516 276.248 488.328C287.5 486.141 301.719 497.468 302.278 505.079C302.836 512.689 289.426 503.176 283.66 502.926C277.894 502.676 268.341 524.115 264.076 526.157C259.812 528.2 234.165 532.441 228.347 542.89C222.529 553.34 228.074 559.385 227.981 561.607C227.888 563.83 217.136 564.708 204.767 572.196C192.397 579.684 182.588 580.103 181.739 593.723C181.157 603.23 196.505 606.366 196.755 610.834C197.005 615.302 184.642 619.439 190.315 630.86C193.858 637.993 213.133 634.275 216.461 639.773C219.789 645.271 200.583 649.012 209.625 664.285C216.31 675.572 221.232 673.46 226.922 675.921C232.612 678.382 230.192 682.757 212.377 682.425C194.562 682.094 180.592 670.295 178.632 665.338C174.338 654.446 180.144 648.011 179.545 644.393C178.946 640.774 166.879 647.156 162.138 633.199C157.396 619.241 173.838 614.703 173.064 611.992C172.29 609.28 159.962 605.592 158.804 591.297C157.646 577.002 178.585 559.39 187.661 555.324C196.738 551.257 186.498 551.705 174.344 553.852C162.19 555.998 142.467 558.71 136.736 546.87C131.005 535.03 119.217 531.388 110.933 531.027C102.648 530.666 99.2615 536.764 83.8552 532.074C68.4489 527.385 66.9013 511.711 66.0693 500.075C65.2373 488.439 72.1201 485.175 73.5048 494.35C74.3077 499.691 76.6989 507.697 81.9759 513.753C88.0965 520.776 102.473 513.171 104.085 506.987C105.696 500.802 96.9517 486.146 95.8404 475.499C94.7815 465.265 96.2186 456.637 99.7269 451.29C102.112 447.654 105.749 452.524 104.882 455.823C103.165 462.368 107.535 476.262 110.17 481.137Z" fill="#E5B76E"/>
<path d="M58.758 -125.391C42.3335 -117.001 43.375 -92.3153 36.3292 -86.0143C30.0632 -86.7416 23.8204 -86.0841 17.275 -87.9168C9.84531 -89.9939 3.08468 -89.0804 -4.3392 -82.7213C-8.20241 -79.4282 -9.54055 -69.2699 -13.9972 -69.2699C-18.4539 -69.2699 -22.3171 -71.5331 -32.5627 -68.4088C-38.4273 -66.6285 -42.3487 -59.1988 -45.0251 -56.825C-47.7014 -54.4512 -58.0983 -55.0272 -58.0983 -48.86C-58.0983 -42.6928 -53.1471 -33.3025 -51.6577 -28.2291C-50.1682 -23.1557 -51.6111 -23.1266 -50.6802 -16.4998C-49.7493 -9.87302 -54.4969 8.67503 -57.4699 12.6197C-60.443 16.5644 -90.6796 14.5746 -95.433 11.6073C-100.186 8.64012 -91.0868 -12.4388 -89.58 -12.4388C-88.0731 -12.4388 -80.3234 -13.2126 -77.9438 -17.582C-75.5642 -21.9514 -82.8019 -21.9456 -89.58 -21.6546C-96.358 -21.3637 -104.399 -16.5056 -105.289 -9.47158C-106.336 -1.12262 -120.637 2.53695 -117.431 15.1157C-114.854 25.2158 -89.5683 24.8551 -84.2215 28.4216C-78.8747 31.9881 -66.0691 34.9611 -59.8495 30.5336C-53.63 26.106 -40.5335 8.84957 -37.863 1.12315C-35.1925 -6.60326 -33.7031 -12.5435 -35.4834 -22.0503C-37.2637 -31.557 -28.5017 -39.3707 -24.5279 -49.1742C-20.5542 -58.9777 -12.5427 -53.3109 -8.08605 -55.9814C-4.82792 -57.9362 5.69703 -67.5884 9.54278 -69.2699C22.6509 -71.824 32.9024 -73.3425 39.7154 -62.7187C41.8681 -57.5697 48.2738 -42.6579 46.6505 -39.4464C43.5088 -33.2035 29.8421 -33.0465 23.9018 -37.218C17.9616 -41.3896 14.5405 -38.626 16.3383 -34.245C18.1361 -29.864 30.5984 -18.6467 38.0223 -15.9762C45.4462 -13.3057 56.5937 -31.4232 59.8634 -36.4733C62.7317 -40.9125 52.9515 -57.5755 50.0134 -65.1856C50.8628 -67.3732 51.7588 -69.9564 52.7304 -72.8189C57.1289 -85.6187 60.643 -84.3212 61.5739 -100.344C62.5048 -116.367 76.4391 -119.957 83.9852 -124.629C91.5312 -129.301 76.8697 -134.654 58.758 -125.391Z" fill="#E5B76E"/>
<path d="M174.601 901.924C194.473 921.099 196.763 927.052 197.449 935.423C198.135 943.793 198.857 953.688 204.65 952.372C210.442 951.055 224.843 955.4 230.466 958.692C236.089 961.984 241.997 951.804 235.491 945.968C228.985 940.133 220.061 933.027 223.708 927.627C227.355 922.228 240.783 907.6 248.263 901.633C255.743 895.666 254.334 890.808 252.172 890.691C250.009 890.574 245.454 881.245 245.813 874.768C246.172 868.29 245.564 865.982 243.628 861.953C239.239 852.808 232.347 852.513 220.388 858.883C208.43 865.254 203.09 868.299 205.904 870.1C208.718 871.901 220.626 865.309 223.848 872.763C227.07 880.216 229.668 888.182 225.319 895.871C220.969 903.56 214.94 913.469 210.215 916.673C205.49 919.878 204.54 910.344 200.961 902.632C197.382 894.919 177.264 886.844 174.114 882.381C170.963 877.918 173.442 878.089 178.08 870.328C181.018 865.406 172.391 860.344 171.885 858.485C169.241 848.877 174.924 838.104 176.995 834.429C179.065 830.755 190.694 827.818 198.089 824.86C205.483 821.902 210.082 822.134 219.894 826.896C229.706 831.658 236.018 833.809 239.014 838.456C242.009 843.103 244.52 841.339 249.676 836.986C254.832 832.634 258.75 825.699 265.587 824.461C272.424 823.223 280.418 824.269 285.644 820.223C290.869 816.177 284.792 808.418 296.372 804.425C314.856 798.045 328.781 792.32 327.776 786.981C326.159 778.399 304.731 779.124 310.099 767.307C312.392 762.275 314.105 750.078 308.036 741.016C305.085 736.621 294.599 737.394 292.511 729.629C290.424 721.864 292.128 697.891 292.41 692.099C292.692 686.307 276.116 671.633 269.51 666.774C262.905 661.916 240.016 668.42 249.086 671.417C258.757 674.589 267.87 680.082 269.411 685.89C270.952 691.697 267.175 701.666 264.931 703.662C262.688 705.658 253.397 706.493 248.045 708.563C242.692 710.633 250.056 715.522 256.374 717.696C262.691 719.869 267.686 725.727 271.357 727.649C275.028 729.571 280.351 742.567 279.036 746.255C277.72 749.943 274.899 754.618 275.412 760.653C275.925 766.687 280.314 762.295 281.641 770.048C282.968 777.801 276.117 793.147 271.014 795.369C265.91 797.592 261.31 796.305 257.624 800.955C253.938 805.606 251.674 816.514 237.456 816.567C223.238 816.619 218.174 811.404 212.769 807.549C207.364 803.695 197.758 800.783 195.058 801.713C192.358 802.643 194.384 807.278 189.84 808.627C185.296 809.977 175.528 812.519 171.221 816.357C166.915 820.194 159.222 828.822 156.245 832.888C153.267 836.954 157.221 845.792 158.403 856.162C159.988 870.032 148.872 874.6 148.399 885.459C148.092 893.631 169.913 897.393 174.601 901.924Z" fill="#E5B76E"/>
<path d="M293.314 119.556C290.547 119.324 287.372 119.049 289.058 134.858C290.744 150.666 285.125 159.533 280.753 164.953C276.381 170.372 267.653 166.411 265.862 170.59C264.072 174.77 255.691 177.465 252.118 176.673C248.545 175.881 240.545 171.676 234.49 174.285C228.435 176.893 222.157 188.356 220.056 193.909C217.716 200.083 213.939 187.684 215.534 179.2C217.129 170.716 212.721 164.578 220.974 162.456C229.227 160.335 240.226 158.811 245.559 158.169C250.892 157.528 256.594 162.695 260.648 160.323C270.788 154.418 275.377 141.973 274.183 134.778C272.784 126.357 258.364 113.393 253.241 112.257C248.117 111.121 247.279 120.065 249.535 124.618C251.792 129.17 242.233 128.928 240.606 119.843C238.979 110.758 245.084 103.971 246.236 98.7736C247.388 93.5763 243.908 77.6381 246.274 70.3797C248.64 63.1213 253.157 65.7796 254.881 78.7836C256.569 91.4399 259.833 96.3113 268.845 100.741C277.857 105.17 285.415 104.623 293.895 109.947C302.589 115.408 303.708 120.442 293.314 119.556Z" fill="#E5B76E"/>
<path d="M157.095 470.933C159.292 469.235 161.819 467.292 149.896 456.776C137.973 446.26 136.125 435.926 135.687 428.977C135.249 422.028 144.36 419.052 142.857 414.76C141.353 410.469 145.711 402.82 148.88 400.991C152.05 399.161 160.789 396.856 163.491 390.842C166.193 384.828 163.077 372.136 160.875 366.622C158.429 360.489 169.59 367.079 174.146 374.411C178.702 381.744 186.099 383.292 181.447 390.431C176.795 397.571 169.716 406.126 166.217 410.202C162.719 414.277 155.024 414.319 153.638 418.808C150.151 430.012 155.175 442.287 160.917 446.786C167.637 452.049 187.027 451.865 191.572 449.241C196.117 446.617 190.692 439.457 185.953 437.625C181.214 435.793 188.425 429.513 195.762 435.112C203.1 440.711 203.184 449.84 205.845 454.45C208.507 459.06 221.841 468.46 225 475.41C228.16 482.36 223.033 483.452 212.977 475.029C203.182 466.838 197.484 465.451 187.848 468.274C178.211 471.097 173.008 476.607 163.159 478.41C153.06 480.257 148.834 477.302 157.095 470.933Z" fill="#E5B76E"/>
<path d="M211.53 100.438C203.455 94.5861 194.621 90.564 190.887 89.6568C186.281 88.5328 173.233 86.5722 167.248 89.6568C161.262 92.7414 146.306 90.8866 146.007 99.2332C145.709 107.58 154.386 112.247 160.068 122.685C165.75 133.124 172.636 136.798 187.896 139.6C203.156 142.403 207.346 129.737 213.625 124.807C219.904 119.878 219.611 106.295 211.53 100.438ZM197.557 118.235C196.735 123.32 184.935 121.345 179.175 118.235C173.415 115.125 164.072 107.479 167.649 104.954C172.866 101.28 186.311 101.844 188.503 106.647C190.696 111.451 198.399 113.149 197.557 118.235Z" fill="#E5B76E"/>
<path d="M21.3714 556.489C17.2231 565.501 24.2805 579.121 37.9006 579.121C51.5208 579.121 65.1991 570.941 77.9407 575.677C90.6823 580.413 102.958 582.135 103.872 592.468C104.785 602.801 91.1361 604.383 92.4975 611.778C93.859 619.173 100.689 619.597 100.236 627.778C99.7818 635.958 86.5864 652.109 67.9278 648.141C49.2692 644.173 37.4468 636.644 36.5101 628.458C35.5734 620.272 43.3813 610.131 59.1599 624.188C72.9139 636.406 68.4688 623.024 61.586 616.723C51.928 607.851 45.6445 603.132 39.5472 603.342C33.1473 603.54 21.3482 600.345 22.5584 615.275C23.1402 622.57 16.269 637.087 14.6749 644.295C13.5112 649.497 17.2988 650.806 27.4106 651.568C31.6927 651.894 39.4482 666.328 43.3871 667.643C48.5419 669.389 55.4364 666.357 60.9286 668.341C70.4703 671.791 79.7559 674.107 86.1035 670.005C96.1164 663.547 108.398 646.972 117.521 648.158C126.644 649.345 117.067 667.754 117.521 673.176C117.975 678.599 125.713 677.749 133.445 679.471C141.177 681.193 154.001 691.201 146.745 713.35C144.523 720.14 136.273 722.292 124.177 717.69C120.325 716.23 118.109 709.394 118.72 704.891C121.553 684.225 103.657 703.267 103.657 713.123C103.657 718.674 115.526 724.178 119.127 727.04C127.313 733.498 143.697 741.684 151.883 730.921C160.069 720.157 166.655 703.104 172.578 694.959C178.5 686.814 158.032 685.487 151.19 675.178C144.348 664.868 145.279 653.709 145.279 646.355C145.279 639.001 142.551 632.543 137.541 628.237C132.532 623.932 138.001 600.683 138.908 590.775C139.816 580.866 140.729 576.997 119.796 573.984C98.8625 570.97 85.318 564.512 81.3967 556.762C77.4753 549.012 68.6841 545.609 62.0108 544.655C55.3374 543.7 45.8307 551.927 43.0031 558.24C40.1755 564.552 31.2738 560.09 30.0578 554.668C28.8419 549.245 22.6107 553.777 21.3714 556.489Z" fill="#E5B76E"/>
<path d="M58.758 699.212C42.3335 707.607 43.375 732.293 36.3467 738.6C30.0806 737.867 23.8378 738.525 17.2925 736.698C9.86278 734.615 3.10215 735.534 -4.32173 741.888C-8.18493 745.186 -9.52308 755.345 -13.9797 755.345C-18.4364 755.345 -22.2996 753.081 -32.5453 756.2C-38.4274 757.992 -42.3487 765.41 -45.0251 767.784C-47.7014 770.158 -58.0983 769.582 -58.0983 775.749C-58.0983 781.916 -53.1471 791.306 -51.6577 796.356C-50.1682 801.407 -51.6111 801.459 -50.6802 808.086C-49.7493 814.712 -54.4969 833.266 -57.4699 837.211C-60.443 841.156 -90.6796 839.166 -95.433 836.193C-100.186 833.22 -91.1159 812.17 -89.58 812.17C-88.044 812.17 -80.3234 811.396 -77.9438 807.033C-75.5642 802.669 -82.8019 802.663 -89.58 802.96C-96.358 803.257 -104.399 808.109 -105.289 815.143C-106.336 823.492 -120.637 827.152 -117.431 839.73C-114.854 849.836 -89.5683 849.47 -84.2215 853.036C-78.8747 856.603 -66.0982 859.576 -59.8612 855.119C-53.6242 850.662 -40.5451 833.429 -37.8746 825.703C-35.2041 817.976 -33.7147 812.036 -35.495 802.529C-37.2754 793.023 -28.5133 785.238 -24.5396 775.435C-20.5658 765.631 -12.5543 771.304 -8.09766 768.627C-4.83953 766.673 5.68538 757.02 9.53114 755.345C22.6393 752.791 32.8908 751.272 39.7037 761.89C41.8564 767.039 48.2621 781.951 46.6389 785.162C43.4971 791.399 29.8304 791.562 23.8902 787.391C17.9499 783.219 14.5289 785.977 16.3267 790.358C18.1244 794.739 30.5868 805.956 38.0107 808.633C45.4346 811.309 56.582 793.18 59.8518 788.13C62.7201 783.696 52.9399 767.027 50.0018 759.423C50.8512 757.236 51.7472 754.647 52.7188 751.784C57.1173 738.984 60.6314 740.282 61.5623 724.259C62.4932 708.236 76.4275 704.646 83.9736 699.974C91.5196 695.302 76.8697 689.955 58.758 699.212Z" fill="#E5B76E"/>
<path d="M1261.09 505.623C1270.64 510.4 1274.13 518.97 1270.71 524.555C1267.3 530.14 1268.77 535.109 1266.48 540.386C1264.19 545.663 1248.67 547.217 1240.3 545.041C1235.33 558.696 1227.26 557.765 1220.12 560.557C1212.98 563.35 1215.78 569.25 1212.05 577.319C1208.33 585.389 1202.74 593.464 1197.78 595.937C1212.05 599.347 1225.7 610.831 1232.23 618.907C1238.76 626.982 1241.85 626.668 1244.95 631.631C1248.06 636.594 1243.4 642.499 1241.85 650.249C1240.31 657.999 1238.75 672.94 1228.51 676.017C1218.27 679.095 1206.15 680.363 1200.25 676.017C1194.35 671.671 1180.08 662.671 1176.98 660.186C1173.89 657.702 1172.01 642.179 1180.71 638.764C1189.4 635.349 1196.23 634.441 1196.82 635.686C1197.44 639.41 1192.78 639.718 1192.48 646.549C1192.17 653.379 1199.92 655.858 1204.58 658.656C1209.23 661.455 1213.28 652.14 1214.85 647.782C1216.42 643.424 1216.09 633.19 1211.13 626.052C1206.17 618.913 1192.51 613.636 1181.33 611.46C1170.15 609.284 1150.28 598.131 1145.94 592.225C1141.59 586.32 1139.42 578.262 1139.73 575.766C1130.11 577.005 1119.55 572.967 1113.97 563.967C1108.38 554.966 1115.81 540.386 1122.34 536.657C1128.88 532.927 1136.62 532.933 1141.59 532.619C1146.56 532.305 1149.66 536.348 1147.18 538.21C1144.69 540.072 1137.55 541.311 1132.58 544.726C1127.62 548.142 1127 557.142 1128.86 561.802C1130.72 566.463 1148.11 566.765 1154.01 563.35C1159.91 559.935 1153.38 567.696 1152.76 573.287C1152.14 578.879 1156.18 587.873 1159.28 590.049C1162.39 592.225 1176.98 593.773 1180.39 590.98C1183.81 588.187 1194.05 577.633 1194.05 572.362C1194.05 567.091 1184.74 563.978 1179.15 562.117C1173.56 560.255 1172.94 555.286 1181.01 555.909C1189.08 556.531 1200.88 557.462 1203.98 550.94C1207.09 544.418 1217.95 550.632 1222.92 548.147C1227.88 545.663 1223.23 527.97 1227.88 526.731C1232.54 525.492 1247.13 531.077 1253.96 525.8C1260.79 520.523 1257.37 514.624 1255.2 509.969C1253.03 505.315 1253.64 501.894 1261.09 505.623Z" fill="#E5B76E"/>
<path d="M1279.75 484.646C1273.77 488.376 1264.19 494.682 1275.99 497.335C1287.78 499.989 1295.32 505.871 1298.35 512.462C1301.38 519.054 1307.66 523.377 1308.97 528.462C1310.28 533.547 1300.43 540.68 1298.79 548.965C1297.15 557.25 1293.82 563.708 1285.14 563.801C1276.46 563.894 1275.44 569.468 1272.6 577.427C1269.76 585.386 1257.73 585.45 1251.65 585.904C1245.58 586.358 1242.88 589.977 1251.4 596.656C1259.93 603.335 1268.86 599.809 1266.67 610.701C1265.59 616.071 1258.44 617.264 1263.27 621.243C1268.1 625.223 1277.74 631.716 1280.93 641.025C1284.12 650.334 1282.16 655.134 1278.95 659.218C1275.74 663.302 1269.93 667.125 1270.98 674.252C1272.07 681.746 1263.97 678.324 1261.46 686.307C1258.96 694.289 1260.77 716.305 1260.57 724.619C1260.37 732.933 1259.4 737.075 1258.08 744.767C1256.75 752.459 1263.63 754.408 1269.6 759.312C1275.56 764.217 1283.48 771.53 1289.35 768.098C1295.21 764.665 1303.76 757.445 1306.7 755.402C1309.65 753.36 1311.55 746.291 1310.24 740.316C1309.12 735.187 1307.08 730.304 1304.21 725.911C1301.97 722.588 1299.33 724.311 1299.7 733.236C1300.07 742.16 1296.6 742.079 1291.05 744.325C1285.51 746.571 1278.78 737.203 1275.43 732.072C1272.08 726.94 1275.57 715.333 1281.71 712.506C1287.85 709.678 1292.68 706.856 1292.8 701.806C1292.92 696.756 1286.4 695.255 1288.24 691.334C1290.09 687.412 1295.03 679.593 1300.23 672.786C1304.56 667.096 1303.64 665.501 1302.6 660.457C1301.88 656.523 1302.15 652.469 1303.41 648.67C1304.02 647.198 1309.32 643.16 1311.15 639.361C1312.98 635.562 1310.14 634.055 1303.35 627.358C1296.57 620.661 1290.33 616.211 1290.43 612.347C1290.52 608.484 1290.09 601.939 1295.88 601.479C1301.68 601.02 1312.76 597.988 1316.61 605.825C1320.47 613.662 1324.13 606.006 1322.54 599.728C1320.95 593.45 1315.81 590.652 1308.65 587.51C1301.49 584.368 1302.97 580.621 1311.52 573.989C1320.06 567.356 1336.86 562.87 1341.51 561.771C1346.17 560.671 1357.62 553.236 1358.17 542.251C1358.72 531.267 1357.28 525.96 1350.1 523.435C1342.93 520.91 1346.06 523.046 1348.26 528.148C1350.45 533.251 1347.79 540.82 1344.8 545.207C1341.81 549.594 1333.32 550.495 1329.62 547.115C1325.91 543.735 1328.11 531.22 1330.08 521.161C1332.05 511.101 1316.87 502.019 1314.37 497.801C1311.87 493.583 1328.99 481.952 1336.89 478.252C1344.78 474.552 1358.63 480.742 1362.31 479.835C1365.99 478.927 1368.86 476.227 1371.45 474.302C1374.05 472.376 1379.35 468.745 1384.54 469.461C1389.73 470.177 1394.78 478.019 1397.64 478.281C1400.5 478.543 1404.22 477.443 1404.26 475.663C1404.3 473.883 1416.81 474.965 1420.79 477.833C1424.77 480.702 1432.93 486.834 1436.16 488.888C1439.39 490.941 1445.4 490.68 1442.22 485.269C1439.04 479.858 1433.66 471.992 1432.6 468.571C1431.54 465.15 1434.26 463.457 1435.31 459.914C1436.36 456.37 1431.96 454.485 1432.84 450.151C1433.71 445.816 1448.9 431.108 1455.53 428.094C1462.15 425.081 1461.61 423.481 1450.6 424.214C1439.6 424.947 1419.67 435.21 1416.31 438.317C1412.94 441.424 1407.88 452.187 1400.52 453.595C1393.16 455.003 1390.11 453.554 1385.34 451.268C1380.57 448.981 1367.88 446.503 1360.79 453.665C1353.7 460.827 1351.95 452.077 1349.26 451.617C1346.58 451.157 1332.67 452.199 1332.21 455.178C1331.76 458.156 1319.41 473.505 1310.91 475.483C1302.41 477.461 1295.28 475.518 1290.23 477.182C1285.18 478.846 1284.19 481.883 1279.75 484.646Z" fill="#E5B76E"/>
<path d="M1253.8 450.52C1245.27 458.613 1238.95 459.434 1238.95 464.78C1238.95 470.127 1244.59 491.544 1234.2 491.224C1223.8 490.904 1206.94 506.845 1198.83 510.929C1180.72 520.041 1167.99 497.164 1155.93 499.241C1143.87 501.318 1131.4 506.671 1123.97 504.291C1116.54 501.911 1111.2 495.378 1105.55 487.657C1099.9 479.936 1098.97 473.694 1099.59 463.297C1100.21 452.9 1105.55 450.497 1117.14 449.037C1128.73 447.576 1139.13 453.487 1144.77 455.867C1150.42 458.247 1145.07 465.077 1143.61 468.347C1142.15 471.617 1140.05 468.644 1138.56 464.78C1137.07 460.917 1131.4 458.543 1122.79 460.62C1114.17 462.698 1114.76 470.511 1114.76 476.847C1114.76 483.183 1116.25 487.064 1128.14 487.064C1140.04 487.064 1147.16 478.447 1153.4 478.447C1159.64 478.447 1167.26 491.52 1175.78 493.894C1180.94 495.337 1185.78 485.359 1192.61 482.211C1199.44 479.064 1216.68 476.661 1218.76 473.694C1220.84 470.726 1221.13 463.221 1220.54 463.396C1208.65 463.594 1206.28 462.814 1200.93 460.027C1195.59 457.24 1198.36 453.889 1195.19 447.547C1192.03 441.206 1192.22 432.891 1196.18 428.534C1200.14 424.176 1210.64 421.407 1216.57 422.989C1222.5 424.572 1223.9 425.962 1224.49 429.523C1225.08 433.083 1223.7 432.496 1220.53 430.913C1217.36 429.331 1213 429.523 1210.82 432.298C1208.65 435.073 1210.03 442.189 1211.81 445.767C1213.59 449.345 1221.52 452.696 1228.85 450.148C1236.18 447.6 1242.91 441.037 1243.7 435.097C1244.49 429.156 1243.9 423.408 1241.72 419.446C1239.55 415.484 1233.4 412.517 1230.63 407.763C1227.85 403.01 1226.27 397.657 1231.21 388.348C1236.15 379.039 1238.54 367.752 1242.31 365.378C1246.07 363.005 1259.34 366.367 1263.89 365.378C1268.45 364.389 1273.99 360.625 1280.53 360.421C1287.07 360.218 1299.73 369.73 1305.09 372.506C1310.45 375.281 1312.02 376.27 1315.56 379.639C1319.1 383.007 1320.72 392.904 1320.72 397.459C1320.72 402.015 1310.61 408.403 1307.05 413.232C1303.49 418.061 1294.17 428.161 1288.63 427.964C1283.08 427.766 1280.11 422.419 1272.98 419.818C1265.85 417.218 1267.07 408.729 1267.66 402.987C1268.24 397.244 1270.03 393.096 1273.4 393.096C1276.76 393.096 1274.99 402.207 1276.57 405.378C1278.15 408.549 1284.1 412.115 1287.86 412.115C1291.61 412.115 1302.12 406.762 1304.89 401.811C1307.66 396.86 1295 383.775 1287.44 380.226C1279.87 376.677 1265.46 379.435 1259.31 380.424C1253.17 381.413 1243.07 390.722 1245.45 395.278C1247.82 399.833 1256.35 400.624 1256.94 407.164C1257.53 413.703 1252.78 417.462 1253.77 420.825C1254.76 424.188 1265.29 439.623 1253.8 450.52Z" fill="#E5B76E"/>
<path d="M1351.25 339.109C1353.47 348.721 1324.11 349.803 1320.75 349.803C1317.39 349.803 1316.49 338.661 1306.69 339.109C1296.89 339.557 1282.2 341.349 1271.93 336.881C1261.65 332.413 1242.96 327.967 1233.6 330.196C1224.25 332.424 1214.89 343.118 1214 353.817C1213.1 364.517 1208.18 377.433 1203.3 380.999C1198.41 384.566 1186.78 400.606 1179.22 404.184C1171.66 407.763 1179.22 396.161 1179.22 392.153C1179.22 388.144 1179.67 384.129 1173.87 378.771C1168.08 373.413 1175.65 369.858 1182.79 370.306C1189.92 370.754 1196.6 366.536 1196.6 360.415C1196.6 354.294 1189.91 343.135 1196.16 336.898C1202.4 330.661 1216.65 325.757 1217.1 321.3C1217.55 316.843 1233.14 310.158 1243.39 309.716C1253.65 309.274 1283.06 318.181 1288.4 317.733C1293.75 317.285 1285.49 300.553 1278.82 297.434C1272.15 294.316 1249.24 283.372 1252.31 264.702C1253.66 256.486 1262.56 251.634 1258.54 246.73C1254.53 241.825 1251.17 237.368 1266.01 233.348C1280.86 229.328 1290.63 232.609 1292.86 225.924C1295.09 219.239 1293.75 203.193 1299.1 203.193C1304.44 203.193 1306.23 217.453 1312.02 217.901C1317.82 218.349 1333.41 217.406 1338.36 224.731C1340.31 227.64 1354.41 223.568 1360.74 226.32C1366.46 228.816 1358.32 235.873 1360.55 242.558C1362.78 249.243 1384.67 257.569 1390.02 251.32C1395.37 245.071 1387.34 234.384 1386.45 228.147C1385.56 221.91 1392.27 220.123 1399.84 232.155C1407.4 244.187 1399.39 254.881 1399.84 264.684C1400.28 274.488 1391.36 277.164 1383.78 278.514C1376.21 279.864 1366.4 297.231 1359.27 297.673C1352.15 298.115 1361.02 280.149 1357.78 271.678C1354.55 263.206 1348.03 251.675 1337.78 248.108C1327.53 244.542 1327.31 255.561 1324.11 259.401C1318.37 266.331 1307.08 263.166 1305.79 255.329C1303.02 238.456 1279.3 246.567 1279.75 262.159C1280.2 277.752 1297.79 289.196 1310.7 295.439C1323.61 301.681 1324.51 311.927 1329.41 321.283C1334.32 330.638 1349.91 333.314 1351.25 339.109Z" fill="#E5B76E"/>
<path d="M1161.66 873.305C1171.2 866.743 1174.61 870.314 1180.7 869.672C1186.79 869.03 1192.45 860.844 1196.23 858.309C1200.02 855.773 1214.92 853.869 1218.69 845.459C1222.46 837.049 1224.32 813.733 1227.47 807.216C1230.61 800.699 1223.26 789.593 1221.56 783.696C1219.85 777.799 1220.26 756.385 1213.74 756.183C1207.23 755.982 1196.73 756.001 1189.58 751.806C1182.43 747.611 1168.56 745.116 1161.85 753.526C1155.14 761.936 1149.91 763.851 1141.91 770.568C1133.92 777.285 1134.38 787.384 1134.79 797.903C1135.2 808.422 1143.23 816.8 1148.06 818.266C1152.89 819.732 1160.24 816.567 1164.85 814.471C1169.46 812.375 1179.13 806.886 1177.23 802.059C1175.33 797.231 1169.02 789.25 1166.5 790.097C1163.97 790.944 1169.03 797.236 1166.93 798.921C1164.83 800.607 1157.27 801.872 1152.65 800.199C1148.03 798.527 1147.58 788.033 1148.92 784.16C1150.27 780.286 1164.78 774.997 1166.87 772.048C1168.96 769.1 1174.84 763.633 1176.74 764.264C1178.63 764.895 1191.23 777.076 1196.08 777.263C1200.93 777.45 1202.82 794.899 1204.51 796.579C1206.19 798.259 1202.83 797.84 1200.74 808.346C1198.66 818.852 1204.33 825.349 1202.67 829.983C1201 834.618 1175.79 846.405 1173.28 848.931C1170.76 851.456 1164.72 849.938 1159.04 847.646C1153.35 845.354 1137.41 854.253 1125.88 856.178C1114.34 858.102 1084.65 837.514 1085.95 823.146C1086.71 814.74 1086.3 810.767 1092.18 809.92C1098.06 809.073 1104.37 811.582 1107.31 808.217C1110.24 804.852 1107.93 805.065 1107.92 795.401C1107.91 785.737 1110.2 777.131 1112.72 774.602C1115.24 772.073 1126.79 766.808 1128.25 759.034C1129.7 751.261 1123.78 733.217 1127.15 726.05C1130.52 718.883 1141.89 699.667 1157.1 701.79C1172.3 703.913 1169.84 707.208 1174.98 716.375C1180.12 725.542 1182.84 728.694 1183.46 723.863C1184.09 719.033 1185.76 713.983 1186.6 708.094C1187.44 702.206 1184.07 698.434 1174.04 691.935C1164.8 685.945 1160.96 675.97 1157.49 675.151C1152.78 674.035 1138.59 674.613 1134.18 678.194C1129.77 681.775 1126.99 694.66 1121.75 699.921C1116.5 705.181 1101.6 711.722 1099.1 717.596C1096.59 723.47 1109.69 731.516 1110.18 741.241C1110.67 750.966 1098.78 750.71 1092.7 757.65C1086.62 764.591 1089.65 778.385 1090.51 783.407C1091.38 788.429 1091.72 791.481 1090.52 792.232C1089.32 792.982 1082.8 787.519 1067.82 803.284C1056.93 814.743 1064.47 822.752 1070.79 836.192C1077.1 849.632 1091.19 856.541 1100.65 863.469C1110.11 870.396 1126.74 883.897 1137.05 883.685C1147.35 883.474 1155.24 877.72 1161.66 873.305Z" fill="#E5B76E"/>
<path d="M1064.48 594.851C1064.85 597.603 1065.28 600.762 1080.34 595.694C1095.4 590.627 1105.28 594.193 1111.53 597.289C1117.77 600.384 1115.78 609.763 1120.25 610.606C1124.73 611.45 1129.17 619.048 1129.17 622.708C1129.17 626.367 1126.79 635.089 1130.66 640.436C1134.52 645.782 1147.05 649.43 1152.92 650.256C1159.45 651.205 1148.16 657.576 1139.53 657.855C1130.91 658.134 1125.87 663.766 1122 656.168C1118.14 648.569 1114.28 638.161 1112.5 633.093C1110.72 628.026 1114.53 621.341 1111.33 617.896C1103.37 609.274 1090.23 607.488 1083.47 610.211C1075.55 613.399 1066.02 630.283 1066.02 635.531C1066.02 640.779 1074.93 639.662 1078.89 636.473C1082.85 633.285 1084.63 642.664 1076.12 646.225C1067.6 649.785 1059.67 645.288 1054.33 645.288C1048.98 645.288 1034.2 652.136 1026.6 651.385C1019 650.635 1020.62 645.66 1032.94 641.163C1044.93 636.776 1048.98 632.535 1051.36 622.778C1053.74 613.021 1051.56 605.76 1054.92 596.329C1058.42 586.694 1063.1 584.512 1064.48 594.851Z" fill="#E5B76E"/>
<path d="M983.272 515.834C982.415 521.892 970.797 533.652 975.39 538.588C979.983 543.524 989.211 547.977 994.826 555.912C1000.44 563.847 1001.79 576.699 1011.22 578.873C1020.65 581.046 1030.05 581.312 1035.35 582.319C1040.66 583.326 1044.41 577.222 1054.19 571.042C1063.96 564.862 1063.79 546.639 1066.93 543.856C1070.06 541.074 1087.52 526.558 1099.64 528.58C1111.75 530.601 1112.45 532.929 1112.61 527.538C1112.88 518.719 1107.1 514.151 1103.6 513.171C1100.09 512.191 1089.31 515.05 1082.01 519.84C1074.7 524.63 1060.86 516.213 1057.78 519.305C1054.7 522.396 1057.88 533.351 1054.24 542.2C1050.15 552.115 1043.77 566.159 1019.5 557.35C1011.55 554.462 1001.63 548.31 998.745 543.901C995.863 539.492 994.303 528.915 995.767 523.554C997.231 518.194 1014.15 520.011 1017.77 520.014C1021.39 520.017 1025.73 531.022 1025.65 539.182C1025.57 547.342 1033.34 543.439 1033.44 535.452C1033.55 527.466 1029.63 511.241 1026.8 506.634C1023.97 502.028 1011.1 507.793 1007 508.512C1002.91 509.23 984.885 504.387 983.272 515.834Z" fill="#E5B76E"/>
<path d="M1039.44 378.766C1047.35 382.33 1055.76 381.852 1058.32 387.249C1060.87 392.646 1060.1 405.241 1066.48 408.841C1072.86 412.44 1064.69 421.93 1060.1 426.325C1055.51 430.72 1049.39 442.777 1056.27 442.001C1063.16 441.226 1071.58 436.861 1078.21 436.861C1084.84 436.861 1098.36 432.492 1101.93 429.919C1105.5 427.347 1130.5 427.865 1135.85 426.068C1141.21 424.271 1134.58 410.386 1135.85 403.701C1137.12 397.015 1136.35 387.762 1140.96 383.136C1145.56 378.509 1156 374.673 1156 367.454C1156 360.235 1145.29 354.088 1144.27 347.403C1143.24 340.717 1149.63 324.245 1148.35 317.585C1147.07 310.924 1129.73 305.759 1120.81 298.047C1111.88 290.334 1103.2 284.958 1090.71 286.221C1078.21 287.485 1076.94 290.334 1075.66 294.191C1074.38 298.047 1070.05 300.358 1060.61 303.7C1051.17 307.043 1054.74 321.955 1051.94 328.121C1049.13 334.288 1046.33 337.893 1053.22 339.947C1060.1 342.001 1067.5 342.776 1074.38 348.686C1081.27 354.597 1088.41 366.17 1097.72 365.395C1107.03 364.62 1107.79 351.772 1110.86 347.659C1113.92 343.546 1111.86 336.584 1108.05 331.464C1104.24 326.344 1105.43 335.32 1104.55 339.177C1103.68 343.033 1099.87 353.313 1094.26 347.403C1088.65 341.492 1078.19 334.037 1076.4 329.667C1074.61 325.297 1079.72 320.922 1084.56 317.842C1089.41 314.761 1084.93 313.421 1089.06 308.276C1093.19 303.131 1117.19 312.158 1121.53 317.041C1125.86 321.924 1125.61 332.98 1126.63 337.611C1127.64 342.243 1133 345.837 1133.77 352.004C1134.53 358.171 1123.82 371.542 1119.48 375.398C1115.15 379.254 1119.48 394.166 1119.48 401.878C1119.48 409.591 1100.1 419.357 1093.72 417.812C1087.35 416.266 1089.87 404.114 1093.12 400.272C1097.62 394.946 1104.75 396.467 1100.42 389.106C1099.01 386.725 1081.74 392.127 1079.94 394.141C1078.14 396.154 1076.11 399.024 1073.82 400.308C1071.53 401.591 1068.97 397.997 1069.48 392.082C1069.99 386.166 1071.27 374.784 1062.34 371.225C1053.42 367.666 1040.36 372.8 1035.55 368.944C1030.73 365.088 1029.75 374.396 1039.44 378.766Z" fill="#E5B76E"/>
<path d="M1151.12 294.306C1145.26 283.467 1135.33 269.975 1124.94 262.836C1114.55 255.697 1090.33 244.422 1077.92 243.432C1065.52 242.443 1046.16 246.51 1041.85 253.015C1037.54 259.519 1016.83 263.941 1010.13 264.331C1003.43 264.721 996.299 284.927 985.047 287.115C973.795 289.302 959.575 277.974 959.017 270.364C958.458 262.754 971.869 272.267 977.635 272.517C983.401 272.767 992.954 251.328 997.218 249.285C1001.48 247.243 1027.13 243.002 1032.95 232.553C1038.77 222.103 1033.22 216.058 1033.31 213.836C1033.41 211.613 1044.16 210.735 1056.53 203.247C1068.9 195.759 1078.71 195.34 1079.56 181.72C1080.14 172.213 1064.79 169.077 1064.54 164.609C1064.29 160.141 1076.65 156.004 1070.98 144.583C1067.44 137.45 1048.16 141.168 1044.83 135.67C1041.51 130.172 1060.71 126.431 1051.67 111.158C1044.98 99.8712 1040.06 101.983 1034.37 99.5221C1028.68 97.061 1031.1 92.6858 1048.92 93.0174C1066.73 93.3491 1080.7 105.148 1082.66 110.105C1086.96 120.997 1081.15 127.431 1081.75 131.05C1082.35 134.669 1094.42 128.287 1099.16 142.244C1103.9 156.202 1087.46 160.74 1088.23 163.451C1089 166.162 1101.33 169.851 1102.49 184.146C1103.65 198.441 1082.71 216.052 1073.63 220.119C1064.56 224.186 1074.8 223.738 1086.95 221.591C1099.1 219.444 1118.83 216.733 1124.56 228.573C1130.29 240.413 1142.08 244.055 1150.36 244.416C1158.65 244.776 1162.03 238.679 1177.44 243.368C1192.85 248.058 1194.39 263.732 1195.23 275.368C1196.06 287.004 1189.17 290.268 1187.79 281.093C1186.99 275.752 1184.6 267.746 1179.32 261.69C1173.2 254.667 1158.82 262.271 1157.21 268.456C1155.6 274.641 1164.34 289.296 1165.45 299.944C1166.51 310.178 1165.08 318.806 1161.57 324.153C1159.18 327.789 1155.55 322.919 1156.41 319.62C1158.13 313.075 1153.76 299.181 1151.12 294.306Z" fill="#E5B76E"/>
<path d="M959.293 -28.8039C963.469 -25.0844 970.523 -24.617 973.246 -20.1871C975.969 -15.7572 973.026 5.78509 978.071 4.53904C983.115 3.29299 983.504 -8.99724 987.269 -13.1629C991.034 -17.3287 997.005 -24.3712 1004.67 -18.4654C1012.33 -12.5596 1015.6 -8.46946 1014.26 -2.86346C1012.92 2.74255 1010.77 6.62833 1018.27 2.85054C1025.78 -0.927242 1032.3 -0.154838 1035.65 7.34377C1039 14.8424 1036.12 17.9361 1039.76 21.0001C1043.41 24.0641 1046.54 38.5981 1042.76 45.163C1038.99 51.7279 1025.27 62.0266 1016.58 57.0109C1007.9 51.9952 998.705 42.6757 1000.21 36.4496C1001.31 31.7867 1002.87 23.6605 1009.02 25.4573C1015.17 27.254 1012.29 34.0626 1012.23 38.879C1012.17 43.6953 1016.35 33.4256 1018.32 28.7669C1020.29 24.1082 1012.61 18.9897 1007.33 16.1447C1002.05 13.2997 996.169 13.9825 993.221 21.8943C990.273 29.8062 989.025 37.209 986.207 44.517C983.389 51.8249 996.973 57.1201 1000.45 58.6974C1003.94 60.2747 1010.03 70.5936 1010.96 73.7374C1011.88 76.8812 1026.75 70.4041 1031.1 72.5173C1035.44 74.6305 1045.61 72.3509 1049.16 64.593C1052.72 56.8352 1055.33 42.2313 1062.13 36.4603C1068.94 30.6894 1062.82 21.1725 1060.54 10.0851C1058.27 -1.00223 1046.92 -14.714 1043.21 -20.6601C1039.5 -26.6062 1030.34 -20.1974 1026.6 -20.5357C1022.86 -20.8739 1028.85 -37.3092 1017.39 -38.7572C1005.92 -40.2051 991.297 -32.8292 987.019 -29.1163C982.742 -25.4035 970.142 -28.3932 965.888 -31.5008C960.875 -35.1652 951.489 -35.7582 959.293 -28.8039Z" fill="#E5B76E"/>
<path d="M1203.79 237.73L1203.79 237.728C1196.19 234.24 1195.67 238.342 1200.74 244.822C1205.69 251.14 1211.54 252.777 1217.14 258.564C1222.73 264.351 1223.87 268.912 1221.71 278.921C1219.48 289.202 1222.16 292.433 1225.92 287.598C1229.67 282.762 1231.38 269.79 1233.66 266.181C1235.94 262.571 1242.39 259.106 1243.63 251.808C1244.87 244.511 1237.72 241.736 1238.19 245.783C1238.65 249.831 1235.59 256.353 1232.04 254.106C1228.48 251.859 1221.12 238.164 1222.36 231.43C1223.41 225.677 1237.67 222.365 1239.5 215.825C1241.33 209.284 1238.36 206.662 1238.36 206.662C1238.36 206.662 1230.36 203.974 1225.6 206.877C1220.83 209.781 1214.18 214.949 1211.16 227.335C1208.14 239.716 1205.82 238.655 1203.79 237.73Z" fill="#E5B76E"/>
<path d="M1150.16 204.122L1150.17 204.124C1156.04 208.654 1153.04 210.757 1145.85 209.444C1138.85 208.163 1141.09 197.847 1128.3 202.237C1115.5 206.628 1115.5 192.405 1115.5 192.405C1117.39 189.125 1117.46 182.631 1122.68 178.647C1127.89 174.662 1133.02 179.128 1129.65 180.432C1126.28 181.737 1122.42 186.832 1125.65 188.698C1128.88 190.564 1142.67 190.691 1147.45 186.946C1151.54 183.745 1148.25 171.175 1152.64 167.041C1157.02 162.907 1160.31 164.16 1160.31 164.16C1160.31 164.16 1165.71 169.329 1165.4 174.273C1165.09 179.217 1163.77 186.569 1155.29 194.052C1146.81 201.531 1148.6 202.915 1150.16 204.122Z" fill="#E5B76E"/>
</g>
<defs>
<clipPath id="clip0_268_157">
<rect width="1280" height="720" fill="white"/>
</clipPath>
</defs>
</svg>
